<svg width="16" height="14" viewBox="0 0 16 14" fill="none"
  xmlns="http://www.w3.org/2000/svg">
  <path fillRule="evenodd" clipRule="evenodd" d="M1.45455 1.4V12.4696L3.69816 10.6753L4.10711 11.149L3.69816 10.6753C3.93864 10.483 4.24138 10.3785 4.55294 10.3785H14.5455V1.4H1.45455ZM0.393527 0.371029C0.644209 0.132541 0.982426 0 1.33333 0H14.6667C15.0176 0 15.3558 0.13254 15.6065 0.371029C15.8574 0.609791 16 0.935364 16 1.27658V10.5019C16 10.8431 15.8574 11.1687 15.6065 11.4074C15.3558 11.6459 15.0176 11.7785 14.6667 11.7785H4.59476L2.18811 13.7032C1.99353 13.8588 1.75722 13.9576 1.50718 13.9891C1.25716 14.0206 1.00265 13.9836 0.773317 13.8819C0.543911 13.7803 0.348518 13.6179 0.211049 13.4127C0.0735237 13.2074 -2.60092e-07 12.9683 0 12.7234V1.27658C0 0.935363 0.142559 0.60979 0.393527 0.371029Z" fill="#9CA3AF" />
</svg>