<svg width="32" height="32" viewBox="0 0 32 32" fill="none" xmlns="http://www.w3.org/2000/svg">
<path d="M16 27C22.6274 27 28 22.0751 28 16C28 9.92487 22.6274 5 16 5C9.37258 5 4 9.92487 4 16C4 18.9181 5.2396 21.5709 7.26245 23.5399C7.70761 23.9732 8.00605 24.565 7.88518 25.1744C7.68369 26.1902 7.22576 27.1137 6.58105 27.8746C6.78906 27.9119 7 27.941 7.21289 27.9618C7.47168 27.9871 7.73438 28 8 28C9.70934 28 11.2935 27.4638 12.5936 26.5505C13.6734 26.843 14.8167 27 16 27Z" stroke="#6B7280" stroke-width="1.5" stroke-linecap="round" stroke-linejoin="round"/>
</svg>
