<svg width="20" height="20" viewBox="0 0 20 20" fill="none" xmlns="http://www.w3.org/2000/svg">
<path fill-rule="evenodd" clip-rule="evenodd" d="M12.707 5.29279C12.8945 5.48031 12.9998 5.73462 12.9998 5.99979C12.9998 6.26495 12.8945 6.51926 12.707 6.70679L9.41403 9.99979L12.707 13.2928C12.8892 13.4814 12.99 13.734 12.9877 13.9962C12.9854 14.2584 12.8803 14.5092 12.6948 14.6946C12.5094 14.88 12.2586 14.9852 11.9964 14.9875C11.7342 14.9897 11.4816 14.8889 11.293 14.7068L7.29303 10.7068C7.10556 10.5193 7.00024 10.265 7.00024 9.99979C7.00024 9.73462 7.10556 9.48031 7.29303 9.29279L11.293 5.29279C11.4806 5.10532 11.7349 5 12 5C12.2652 5 12.5195 5.10532 12.707 5.29279Z" fill="#6B7280"/>
</svg>
