<svg width="16" height="17" viewBox="0 0 16 17" fill="none" xmlns="http://www.w3.org/2000/svg">
<path d="M15.9452 12.2618C15.9034 12.0922 15.8358 11.9313 15.7452 11.7855C15.7646 11.7088 15.7794 11.6308 15.7893 11.552C15.8537 11.0519 15.6927 10.5941 15.3895 10.2399C15.2252 10.0464 15.049 9.9186 14.8625 9.84019C14.9849 9.27593 15.0469 8.69844 15.0472 8.11903C15.0472 7.85435 15.0333 7.5951 15.01 7.3397C14.9978 7.21217 14.9832 7.08498 14.9659 6.95812C14.9125 6.58381 14.8333 6.21427 14.7289 5.85269C14.6604 5.61509 14.5813 5.38122 14.4916 5.15194C14.3573 4.81237 14.2005 4.48366 14.0223 4.16834C13.9055 3.95856 13.7782 3.75569 13.6411 3.56065C13.5739 3.46216 13.5039 3.36599 13.4311 3.27228C13.2153 2.98977 12.9807 2.72448 12.7293 2.47848C12.6458 2.39578 12.56 2.31591 12.4718 2.23898C12.385 2.16102 12.2963 2.08557 12.2058 2.01271C12.0236 1.86665 11.8354 1.72963 11.6416 1.60208C10.571 0.901671 9.31555 0.5 7.97367 0.5C4.06666 0.5 0.900165 3.91102 0.900165 8.11928C0.90001 8.70606 0.963091 9.29082 1.08817 9.86187C0.920364 9.94036 0.759553 10.0627 0.610395 10.2397C0.307185 10.5937 0.146141 11.0499 0.210543 11.55C0.220331 11.6294 0.235014 11.708 0.254591 11.7854C0.164016 11.9312 0.0964758 12.0922 0.0547038 12.2618C-0.0385199 12.6435 -0.00783382 12.9877 0.110638 13.2893C-0.0181661 13.6834 0.0139961 14.1032 0.181721 14.4681C0.303689 14.7346 0.47825 14.9408 0.693442 15.1251C0.949263 15.3442 1.26949 15.5303 1.65574 15.7089C2.11658 15.9206 2.67911 16.1195 2.93493 16.1925C3.59573 16.3767 4.22934 16.4935 4.8715 16.4992C5.78641 16.5083 6.5743 16.2766 7.13838 15.6836C7.41549 15.7202 7.69446 15.7385 7.97367 15.7383C8.26864 15.7376 8.56331 15.7176 8.85603 15.6785C9.41879 16.2753 10.2097 16.5091 11.128 16.4997C11.7701 16.4942 12.4037 16.3774 13.0628 16.1929C13.3203 16.1199 13.8826 15.921 14.3436 15.7093C14.7299 15.5304 15.0501 15.3443 15.3077 15.1256C15.5212 14.9412 15.6956 14.7351 15.8177 14.4686C15.9871 14.1036 16.0176 13.6838 15.8905 13.2897C16.0078 12.9881 16.0384 12.6432 15.9452 12.2618ZM15.2896 13.2638C15.4194 13.5291 15.4277 13.829 15.3132 14.1082C15.1395 14.5314 14.708 14.8648 13.87 15.2227C13.3489 15.4453 12.8717 15.5876 12.8675 15.5889C12.1783 15.7814 11.5549 15.8792 11.0153 15.8792C10.1218 15.8792 9.45686 15.6136 9.03518 15.0891C8.32209 15.22 7.59402 15.2244 6.87961 15.1023C6.45739 15.6181 5.79627 15.8792 4.91026 15.8792C4.37057 15.8792 3.74729 15.7814 3.05798 15.5889C3.05379 15.5876 2.57679 15.4453 2.05552 15.2227C1.21759 14.8648 0.785966 14.5316 0.612337 14.1082C0.497827 13.829 0.506139 13.5291 0.635953 13.2638C0.647917 13.2391 0.660813 13.2151 0.674564 13.1918C0.596769 13.0659 0.544587 12.9238 0.521444 12.7746C0.498309 12.6254 0.504741 12.4727 0.540322 12.3265C0.591905 12.1153 0.698413 11.9398 0.843066 11.8137C0.773381 11.6903 0.727662 11.5531 0.708668 11.4101C0.667028 11.0993 0.762816 10.7891 0.97824 10.536C1.14604 10.3391 1.38322 10.2307 1.6458 10.2307H1.65279C1.45481 9.54714 1.35443 8.83509 1.3551 8.11903C1.3551 4.21353 4.29444 1.04711 7.92069 1.04711C11.5469 1.04711 14.4862 4.2132 14.4862 8.11903C14.4867 8.83702 14.3857 9.5509 14.1864 10.2361C14.2181 10.2327 14.2492 10.2311 14.2797 10.231C14.5423 10.231 14.7795 10.3394 14.9472 10.5363C15.1626 10.7891 15.2585 11.0996 15.2168 11.4104C15.1978 11.5533 15.1521 11.6906 15.0824 11.8139C15.2271 11.94 15.3337 12.1156 15.3852 12.3267C15.4208 12.473 15.4272 12.6257 15.4041 12.7749C15.381 12.924 15.3288 13.0662 15.2509 13.1921C15.2647 13.2151 15.2777 13.2391 15.2896 13.2638Z" fill="white"/>
<path d="M15.2509 13.1921C15.3288 13.0662 15.381 12.924 15.4041 12.7749C15.4272 12.6257 15.4208 12.473 15.3852 12.3267C15.3336 12.1156 15.227 11.94 15.0824 11.8139C15.1521 11.6906 15.1978 11.5533 15.2167 11.4104C15.2585 11.0996 15.1627 10.7893 14.9472 10.5363C14.7795 10.3394 14.5423 10.231 14.2797 10.231C14.2492 10.231 14.2181 10.2328 14.1864 10.2361C14.3854 9.55092 14.4863 8.83712 14.4856 8.11922C14.4856 4.21364 11.5463 1.0473 7.92044 1.0473C4.2945 1.0473 1.35484 4.21331 1.35484 8.11922C1.35419 8.83528 1.45457 9.54732 1.65254 10.2309H1.64554C1.38296 10.2309 1.14579 10.3392 0.978068 10.5361C0.762644 10.7889 0.666771 11.0995 0.708488 11.4102C0.727498 11.5532 0.773217 11.6905 0.842886 11.8138C0.698234 11.9399 0.591656 12.1154 0.540072 12.3266C0.504507 12.4729 0.498098 12.6256 0.521264 12.7748C0.54443 12.924 0.596635 13.0662 0.674462 13.1921C0.660634 13.2153 0.647893 13.2393 0.635851 13.264C0.506115 13.5294 0.497733 13.8292 0.61232 14.1085C0.786027 14.5316 1.21749 14.865 2.05549 15.2229C2.57654 15.4455 3.05377 15.5879 3.05797 15.5891C3.7472 15.7817 4.37056 15.8795 4.91017 15.8795C5.79626 15.8795 6.45737 15.6184 6.8796 15.1026C7.594 15.2247 8.32208 15.2202 9.03516 15.0894C9.45684 15.6139 10.1218 15.8795 11.0153 15.8795C11.5549 15.8795 12.1783 15.7817 12.8674 15.5891C12.8717 15.5879 13.3487 15.4455 13.87 15.2229C14.708 14.865 15.1395 14.5316 15.3132 14.1085C15.4277 13.8292 15.4194 13.5294 15.2895 13.264C15.2777 13.2392 15.2647 13.2151 15.2509 13.1921ZM6.57747 14.2951C6.54112 14.3635 6.50219 14.4304 6.46079 14.4954C6.35164 14.6675 6.20807 14.7991 6.04144 14.8968C5.72291 15.0839 5.31973 15.1493 4.91017 15.1493C4.26312 15.1493 3.59983 14.9862 3.2281 14.8824C3.20977 14.8772 0.949246 14.1895 1.23544 13.604C1.28361 13.5055 1.36284 13.4662 1.46267 13.4662C1.86563 13.4662 2.59938 14.1126 2.91471 14.1126C2.98517 14.1126 3.03489 14.0803 3.05516 14.0014C3.18956 13.4823 1.01255 13.264 1.19589 12.5122C1.22821 12.3792 1.316 12.3251 1.43937 12.3251C1.97214 12.325 3.16789 13.3343 3.41797 13.3343C3.43715 13.3343 3.4509 13.3282 3.45835 13.3155C3.45944 13.3136 3.46054 13.3117 3.46155 13.3097C3.57893 13.1009 3.51157 12.9491 2.70744 12.4186L2.63022 12.368C1.74529 11.7911 1.12419 11.4439 1.47743 11.0297C1.51806 10.9819 1.5757 10.9607 1.6457 10.9607C1.72867 10.9607 1.82912 10.9906 1.93974 11.0408C2.4071 11.2531 3.05486 11.8321 3.32544 12.0845C3.36801 12.1244 3.4103 12.1646 3.4523 12.2051C3.4523 12.2051 3.7949 12.5889 4.00201 12.5889C4.04971 12.5889 4.09018 12.5686 4.1176 12.5186C4.26451 12.2518 2.7532 11.0182 2.66797 10.5092C2.61017 10.1643 2.70853 9.98958 2.89031 9.98958C2.97678 9.98958 3.08227 10.0292 3.19873 10.1088C3.55997 10.3558 4.25744 11.6468 4.51279 12.1491C4.5984 12.3173 4.74453 12.3885 4.87621 12.3885C5.13747 12.3885 5.34171 12.1087 4.90014 11.7532C4.23646 11.2184 4.46937 10.3441 4.7861 10.2902C4.79962 10.2879 4.81328 10.2867 4.82688 10.2867C5.11494 10.2867 5.24196 10.8214 5.24196 10.8214C5.24196 10.8214 5.61439 11.8287 6.25414 12.5173C6.83461 13.1424 6.91572 13.6552 6.57747 14.2951ZM8.64618 14.4131L8.61301 14.4173L8.55646 14.4243C8.5267 14.4276 8.49687 14.4308 8.46696 14.4337L8.43783 14.4366L8.41118 14.439L8.37343 14.4423L8.33171 14.4455L8.29007 14.4485L8.28083 14.4491C8.26995 14.4498 8.25907 14.4506 8.24804 14.4511L8.23414 14.452C8.22124 14.4527 8.20834 14.4534 8.19529 14.454L8.15016 14.4561L8.10922 14.4576L8.08187 14.4584H8.06796C8.05942 14.4584 8.05095 14.4589 8.04241 14.459H8.02889C8.02034 14.459 8.01187 14.459 8.00333 14.4594L7.96853 14.4599H7.91997C7.88183 14.4599 7.84376 14.4595 7.80585 14.4587L7.77509 14.4579C7.76631 14.4579 7.75753 14.4575 7.74891 14.4572L7.71628 14.4562L7.6758 14.4545L7.63929 14.4527L7.62989 14.4523L7.59516 14.4504C7.58545 14.4498 7.5759 14.4493 7.56627 14.4485L7.54381 14.4471C7.51561 14.4452 7.48741 14.4431 7.45921 14.4408L7.42969 14.4382C7.41726 14.4372 7.40483 14.4359 7.39248 14.4347C7.37795 14.4334 7.36343 14.4319 7.3489 14.4304C7.32458 14.428 7.30027 14.4253 7.27595 14.4224H7.27479C7.62981 13.5693 7.45028 12.7725 6.73285 12.0004C6.2623 11.4942 5.9493 10.7467 5.88435 10.5826C5.7529 10.0969 5.40503 9.55686 4.82728 9.55686C4.77841 9.55686 4.72962 9.56105 4.68138 9.56925C4.42828 9.61217 4.20703 9.76908 4.04917 10.0052C3.87857 9.77669 3.71279 9.59502 3.56285 9.49243C3.33678 9.33803 3.11117 9.25971 2.8914 9.25971C2.61709 9.25971 2.37191 9.38105 2.201 9.60113L2.19665 9.60674C2.19339 9.59226 2.19028 9.57778 2.18709 9.56322L2.18671 9.5613C2.15418 9.41151 2.12687 9.26046 2.10482 9.10841C2.10482 9.10741 2.10482 9.1064 2.10436 9.1054C2.10265 9.09394 2.1011 9.08239 2.09946 9.07092C2.09469 9.03695 2.0902 9.00289 2.08602 8.96883C2.08416 8.95335 2.08214 8.93787 2.08035 8.92239L2.07507 8.87595C2.07336 8.86047 2.07196 8.84641 2.07041 8.83168L2.06995 8.828C2.06374 8.76775 2.05831 8.7075 2.05363 8.64708L2.05192 8.6239L2.0492 8.5844C2.04842 8.57361 2.04765 8.56273 2.0471 8.55185C2.0471 8.54925 2.04671 8.54674 2.04664 8.54432C2.04466 8.51402 2.04298 8.48365 2.04159 8.45327C2.04081 8.43746 2.04003 8.42172 2.03941 8.40582L2.03786 8.36432L2.03747 8.35177L2.03623 8.31352L2.03545 8.28097C2.03545 8.268 2.03483 8.25503 2.03467 8.24206C2.03444 8.22909 2.03413 8.21486 2.03405 8.20114C2.0339 8.18742 2.03405 8.17386 2.03366 8.16022C2.03335 8.14649 2.03366 8.13286 2.03366 8.11922C2.03366 4.6169 4.66964 1.77751 7.92137 1.77751C11.173 1.77751 13.8089 4.61682 13.8089 8.11922V8.20114C13.8089 8.21478 13.8085 8.2285 13.8083 8.24206C13.8083 8.25336 13.8078 8.26449 13.8075 8.27595C13.8075 8.28599 13.8071 8.29612 13.8068 8.30582C13.8068 8.31863 13.8061 8.33143 13.8057 8.34423V8.34524L13.8041 8.38967C13.8036 8.40264 13.8031 8.4157 13.8025 8.42867L13.8021 8.43787L13.8 8.47938C13.7954 8.56833 13.7891 8.65712 13.7813 8.74582V8.74691C13.7799 8.76147 13.7786 8.77603 13.7771 8.79059L13.7736 8.82498L13.7667 8.89226L13.7628 8.92632L13.7579 8.96641C13.7561 8.98097 13.7543 8.99561 13.7523 9.01009C13.7503 9.02641 13.748 9.04264 13.7458 9.05887L13.7404 9.09728L13.734 9.1408C13.7318 9.15528 13.7295 9.16967 13.727 9.18406C13.7245 9.19854 13.7224 9.21293 13.7201 9.22732C13.7155 9.25611 13.7106 9.2849 13.7054 9.3136C13.6976 9.35653 13.6896 9.39937 13.6814 9.44222L13.6728 9.48464C13.67 9.49879 13.667 9.51301 13.664 9.52716C13.4983 9.35368 13.2789 9.25921 13.0369 9.25921C12.8172 9.25921 12.5914 9.33745 12.3654 9.49184C12.2155 9.59444 12.0498 9.77619 11.8791 10.0046C11.721 9.76849 11.4998 9.61159 11.2468 9.56866C11.1986 9.56046 11.1498 9.55628 11.1009 9.55628C10.523 9.55628 10.1754 10.0963 10.0438 10.582C9.97858 10.7461 9.66551 11.4936 9.19457 12.0005C8.4776 12.7702 8.29675 13.5634 8.64618 14.4131ZM14.7244 12.7052L14.7221 12.7127C14.7162 12.7295 14.7094 12.7459 14.7017 12.7618C14.6959 12.7735 14.6896 12.7849 14.6827 12.7959C14.6698 12.8168 14.6555 12.8367 14.6401 12.8554C14.6365 12.8598 14.6331 12.8641 14.6291 12.8684C14.6235 12.8748 14.6178 12.8812 14.612 12.8874C14.5074 12.999 14.348 13.0969 14.1677 13.1867C14.1473 13.1967 14.1266 13.2066 14.1057 13.2167L14.0849 13.2266C14.071 13.2332 14.057 13.2398 14.0424 13.2462C14.0285 13.2527 14.0141 13.2593 13.9996 13.2656L13.9563 13.2849C13.8549 13.3298 13.751 13.3727 13.6497 13.4149L13.6064 13.4331L13.5636 13.4511C13.5351 13.4631 13.5069 13.4751 13.4793 13.487L13.438 13.505L13.3975 13.5228L13.3776 13.5318C13.3643 13.5378 13.3513 13.5437 13.3384 13.5496C13.0403 13.6875 12.8258 13.8276 12.8709 14.0015C12.8721 14.0065 12.8735 14.0111 12.875 14.0157C12.8791 14.0286 12.8846 14.0408 12.8915 14.0522C12.8956 14.059 12.9002 14.0655 12.9054 14.0713C12.9584 14.1306 13.0548 14.1213 13.1764 14.0742C13.1935 14.0674 13.2105 14.0603 13.2274 14.053L13.2379 14.0483C13.2657 14.0356 13.2952 14.0214 13.3252 14.006C13.3328 14.0021 13.3404 13.9984 13.348 13.9942C13.4967 13.9158 13.6652 13.8104 13.8324 13.7144C13.8993 13.6755 13.9671 13.6386 14.0358 13.6035C14.1941 13.5233 14.3429 13.4664 14.4626 13.4664C14.5187 13.4664 14.5683 13.4788 14.6096 13.5072L14.6165 13.5122C14.6425 13.5318 14.6642 13.5571 14.6805 13.5864C14.6837 13.592 14.6868 13.5979 14.6898 13.604C14.7489 13.725 14.6994 13.8501 14.5836 13.9729C14.4724 14.0908 14.2995 14.2064 14.103 14.3133C14.0884 14.3213 14.0737 14.3292 14.0589 14.337C13.4739 14.6465 12.7079 14.8795 12.6972 14.8824C12.4931 14.9394 12.2011 15.0142 11.8722 15.0702L11.8236 15.0784L11.8156 15.0797C11.7787 15.0857 11.7418 15.0913 11.7049 15.0965C11.6673 15.1019 11.6294 15.1069 11.5913 15.1115L11.5843 15.1123C11.446 15.1295 11.3072 15.1408 11.168 15.1463H11.166C11.1157 15.1482 11.0654 15.1492 11.0151 15.1492H10.957C10.8803 15.1481 10.8037 15.1444 10.7272 15.138C10.7254 15.138 10.7234 15.138 10.7217 15.1375C10.6942 15.1352 10.6669 15.1325 10.6395 15.1292C10.6112 15.1259 10.5829 15.1223 10.5547 15.1182C10.5361 15.1155 10.5177 15.1125 10.4992 15.1092C10.4804 15.1059 10.4616 15.1026 10.4428 15.0991L10.4173 15.0939L10.4153 15.0935C10.3884 15.088 10.3616 15.0818 10.3349 15.0752C10.3193 15.0714 10.3039 15.0677 10.2886 15.0632L10.2793 15.0607C10.2717 15.0587 10.2643 15.0565 10.2568 15.0543L10.2527 15.0531L10.2287 15.0456C10.22 15.043 10.2113 15.0402 10.2026 15.0374L10.1996 15.0365L10.177 15.029C10.1684 15.0262 10.1599 15.0232 10.1514 15.0202L10.1306 15.0127L10.1153 15.007C10.1006 15.0013 10.0859 14.9956 10.0713 14.9895L10.0575 14.9837L10.0461 14.9788C10.024 14.9693 10.0021 14.9593 9.98045 14.9489L9.96608 14.9413L9.96367 14.9402C9.95854 14.9376 9.95349 14.935 9.94836 14.9327C9.93834 14.9275 9.9284 14.9222 9.91853 14.9167L9.9155 14.9152L9.90121 14.907C9.87581 14.8927 9.85095 14.8775 9.82655 14.8613L9.81319 14.8525C9.80651 14.848 9.79983 14.8434 9.7933 14.8388L9.7759 14.8264L9.75718 14.8125L9.74599 14.8039C9.73418 14.7948 9.72261 14.7854 9.71127 14.7758L9.69316 14.7608C9.68594 14.7546 9.67879 14.7482 9.67172 14.7418C9.66574 14.7365 9.65991 14.731 9.65409 14.7254L9.65362 14.725C9.64733 14.7191 9.64119 14.7131 9.63505 14.707C9.62899 14.7011 9.62294 14.6951 9.61703 14.689L9.61633 14.6882C9.61012 14.6819 9.60406 14.6754 9.59808 14.6688C9.59209 14.6623 9.58596 14.6557 9.58013 14.649C9.5743 14.6424 9.56832 14.6357 9.56257 14.6287C9.55682 14.6219 9.55154 14.6156 9.5461 14.6088L9.54432 14.6065C9.53903 14.6 9.53383 14.5934 9.5287 14.5866C9.51759 14.5723 9.50679 14.5577 9.49639 14.5427C9.4859 14.5276 9.47564 14.5122 9.46562 14.4966L9.45607 14.4812C9.44332 14.4611 9.4309 14.4408 9.41885 14.4203C9.40984 14.4054 9.40106 14.3906 9.39252 14.3754C9.387 14.366 9.38172 14.3564 9.37644 14.347L9.37426 14.3432C9.36921 14.334 9.36424 14.3249 9.35942 14.3158C9.35663 14.3109 9.35399 14.306 9.3515 14.3008C9.34894 14.2957 9.34598 14.2904 9.34326 14.2851L9.33884 14.2768L9.33612 14.2715C9.33091 14.2614 9.32578 14.2513 9.32081 14.2411C9.31848 14.2366 9.31623 14.2321 9.31382 14.2277L9.30691 14.2132L9.29992 14.1989C9.28244 14.1613 9.26589 14.1231 9.25035 14.0844L9.24484 14.0703C9.24126 14.0609 9.23792 14.0515 9.23435 14.0422C9.23264 14.0377 9.23093 14.0332 9.22945 14.0287C9.22114 14.0055 9.21337 13.9821 9.20623 13.9585C9.20366 13.9501 9.20118 13.9418 9.19885 13.9334C9.19325 13.9144 9.1882 13.8952 9.1837 13.8759C9.17818 13.8534 9.17329 13.8307 9.16917 13.8079C9.16831 13.8033 9.16746 13.7987 9.16676 13.7942C9.16272 13.7719 9.15946 13.7494 9.15689 13.7268C9.15627 13.7224 9.15581 13.7179 9.15534 13.7135L9.15402 13.6999C9.15231 13.6822 9.15099 13.6644 9.15021 13.6465C9.15021 13.642 9.14983 13.6375 9.14967 13.6332C9.14928 13.6243 9.14913 13.6154 9.14905 13.6065C9.1447 13.249 9.31266 12.9052 9.6718 12.5185C10.3115 11.8301 10.684 10.8226 10.684 10.8226C10.684 10.8226 10.694 10.7804 10.7148 10.7195C10.7177 10.7111 10.7207 10.7024 10.7241 10.6933C10.7363 10.6592 10.7499 10.6257 10.7651 10.5931L10.7681 10.5868C10.781 10.559 10.7951 10.5319 10.8104 10.5056C10.8139 10.4995 10.8174 10.4934 10.8213 10.4873C10.8327 10.4692 10.8448 10.4514 10.8575 10.4343C10.8644 10.425 10.8719 10.4158 10.8794 10.4068C10.8825 10.4033 10.8854 10.3998 10.8886 10.3964C10.9257 10.3552 10.968 10.3215 11.0159 10.3036L11.022 10.3015C11.026 10.3 11.0301 10.2987 11.0342 10.2974C11.0389 10.2961 11.0437 10.2949 11.0486 10.2938L11.0508 10.2933C11.0609 10.2912 11.0712 10.2897 11.0815 10.289H11.0824C11.0877 10.289 11.0932 10.2884 11.0987 10.2884C11.1056 10.2884 11.112 10.2884 11.1188 10.2892C11.1258 10.2898 11.1327 10.2907 11.1397 10.2918C11.1973 10.3017 11.2522 10.3387 11.2994 10.3958C11.3174 10.4175 11.3335 10.441 11.3477 10.4657C11.357 10.4818 11.3658 10.4988 11.3741 10.5167C11.3774 10.5241 11.3806 10.531 11.3837 10.5384C11.3918 10.5573 11.3991 10.5765 11.4055 10.5962C11.4206 10.6422 11.432 10.6896 11.4396 10.7378C11.4461 10.78 11.45 10.8227 11.4512 10.8655C11.4518 10.8883 11.4518 10.9115 11.4512 10.9348C11.447 11.0435 11.4263 11.1507 11.3901 11.2522C11.3868 11.2615 11.3832 11.2708 11.3797 11.2802C11.3725 11.2991 11.3647 11.3177 11.3562 11.3358C11.3499 11.3497 11.3433 11.3635 11.3362 11.3774C11.3315 11.3866 11.3266 11.3958 11.3217 11.405C11.3092 11.4279 11.2957 11.4507 11.2812 11.4733L11.2724 11.4869C11.238 11.5384 11.1998 11.5868 11.158 11.6315C11.1168 11.6759 11.0727 11.717 11.026 11.7545C10.9793 11.7918 10.9354 11.8332 10.8948 11.8781C10.7781 12.0101 10.7509 12.1266 10.7771 12.2148C10.7813 12.2287 10.7868 12.2422 10.7935 12.2549C10.8014 12.2695 10.8107 12.2829 10.8212 12.2951L10.8254 12.2997L10.8296 12.3042C10.8338 12.3086 10.8382 12.3128 10.8429 12.317L10.8476 12.321C10.8588 12.3304 10.8708 12.3388 10.8833 12.3461C10.887 12.3482 10.8902 12.3503 10.8944 12.3523C10.9079 12.3594 10.9218 12.3655 10.9361 12.3705C10.94 12.3719 10.944 12.3732 10.948 12.3745L10.9531 12.3759L10.9601 12.3779L10.9661 12.3795L10.9726 12.381L10.979 12.3825L10.9852 12.3835C10.9897 12.3844 10.9943 12.3852 10.999 12.3858L11.0034 12.3866L11.0115 12.3874L11.0165 12.388L11.0246 12.3886H11.0294L11.038 12.3891H11.0649L11.0726 12.3886L11.0814 12.388L11.0922 12.3869L11.1023 12.3856C11.1046 12.3856 11.107 12.385 11.1093 12.3845C11.1404 12.3796 11.1708 12.3707 11.2 12.358L11.2123 12.3524C11.2192 12.3491 11.2262 12.3457 11.2326 12.342C11.2463 12.3347 11.2596 12.3263 11.2723 12.3172C11.2901 12.3046 11.3069 12.2906 11.3226 12.2751C11.3263 12.2715 11.3299 12.2676 11.3335 12.264C11.3353 12.2621 11.337 12.2604 11.3387 12.2584C11.3421 12.2546 11.3456 12.2509 11.3491 12.2468C11.3739 12.2173 11.3954 12.1849 11.4131 12.15C11.5652 11.8522 11.7245 11.5588 11.891 11.2702L11.9138 11.2307L11.9369 11.1913C11.9484 11.1713 11.9601 11.1517 11.9716 11.1321L11.9833 11.1125C12.022 11.0472 12.0613 10.9824 12.1013 10.918L12.125 10.8799C12.1725 10.804 12.2199 10.7302 12.2669 10.66L12.2903 10.6253C12.3414 10.5494 12.3946 10.4751 12.4499 10.4026L12.4718 10.3743C12.4754 10.3697 12.4788 10.365 12.4827 10.3605C12.49 10.3513 12.4972 10.3423 12.5042 10.3336C12.5078 10.3292 12.5112 10.3248 12.515 10.3205L12.5358 10.2952L12.5462 10.2829C12.5567 10.2707 12.5669 10.2591 12.577 10.248C12.584 10.2405 12.5905 10.233 12.5972 10.226C12.6365 10.1826 12.68 10.1437 12.7268 10.11L12.7377 10.1025C12.7481 10.0949 12.7589 10.0879 12.7699 10.0815C12.9536 9.96924 13.1056 9.96096 13.1932 10.0553C13.2462 10.1123 13.2755 10.207 13.2739 10.3387C13.2739 10.3445 13.2739 10.3503 13.2735 10.3564V10.3628C13.2735 10.3688 13.273 10.3748 13.2726 10.381C13.2726 10.3885 13.2718 10.3959 13.2711 10.4035C13.2704 10.4109 13.27 10.4166 13.2693 10.4233C13.2693 10.4251 13.269 10.4271 13.2687 10.4291C13.2682 10.4348 13.2675 10.4408 13.2667 10.4467C13.2667 10.4485 13.2667 10.4503 13.2661 10.4522C13.2653 10.4601 13.2642 10.468 13.2629 10.4759C13.2621 10.4834 13.2609 10.4904 13.2597 10.4978L13.2577 10.5102C13.2556 10.5221 13.2531 10.5338 13.2499 10.5454C13.2438 10.5671 13.2365 10.5882 13.2279 10.6088C13.2159 10.6371 13.2026 10.6646 13.188 10.6914C13.1799 10.7063 13.1716 10.721 13.163 10.7354C13.1541 10.7504 13.1448 10.7656 13.1351 10.7809C13.1106 10.8187 13.0851 10.8558 13.0586 10.892L13.0465 10.9085C13.0033 10.9665 12.9587 11.0233 12.9127 11.0788L12.8982 11.0964C12.8786 11.1199 12.8587 11.1435 12.8384 11.1673L12.8231 11.1852C12.8129 11.1972 12.8023 11.2092 12.792 11.2212C12.7818 11.2332 12.7712 11.2453 12.7605 11.2574L12.7285 11.2937L12.6961 11.3302L12.6635 11.3666C12.6416 11.3911 12.6196 11.4155 12.5975 11.4399C12.2825 11.788 11.9506 12.1348 11.8382 12.3511C11.8307 12.3651 11.8239 12.3797 11.8179 12.3945C11.8019 12.4338 11.7952 12.4675 11.7998 12.4947C11.8013 12.5036 11.8041 12.5122 11.8084 12.52C11.8147 12.5318 11.8224 12.5427 11.8313 12.5524C11.8354 12.5568 11.8398 12.5608 11.8444 12.5645C11.8675 12.5822 11.8954 12.5913 11.9239 12.5905H11.9327L11.9418 12.5897L11.9509 12.5886L11.9584 12.5875C11.9594 12.5873 11.9605 12.5871 11.9615 12.5868L11.9684 12.5854L11.9702 12.585L11.9779 12.5832L11.9806 12.5824C11.9834 12.5817 11.986 12.5809 11.9887 12.5801C11.9914 12.5793 11.9952 12.5782 11.9984 12.577C12.0121 12.5726 12.0255 12.5673 12.0386 12.5613C12.0455 12.5583 12.0523 12.555 12.0589 12.5515C12.0624 12.5498 12.0659 12.5481 12.0692 12.5462L12.0796 12.5407C12.1045 12.5268 12.1287 12.5117 12.1523 12.4954L12.1627 12.4879C12.1662 12.4855 12.1697 12.4831 12.173 12.4804L12.1833 12.473L12.1888 12.4689L12.2038 12.4576C12.2177 12.4473 12.2306 12.4367 12.2438 12.4259L12.2449 12.4249L12.2658 12.4075C12.2943 12.3832 12.3214 12.3588 12.3459 12.3358L12.3622 12.3204L12.3637 12.3189L12.3723 12.3107C12.3923 12.2913 12.4102 12.2732 12.425 12.2584L12.4311 12.2519C12.4365 12.2465 12.4414 12.2414 12.4458 12.237L12.4545 12.2277L12.4576 12.2245L12.4585 12.2235L12.4676 12.2137L12.4733 12.2073L12.474 12.2067L12.4767 12.204L12.4802 12.2007L12.4813 12.1996L12.4841 12.1968L12.5 12.1818L12.5088 12.1732C12.5136 12.1688 12.5182 12.1643 12.5227 12.1597L12.5333 12.1496C12.5352 12.1479 12.5371 12.1461 12.5391 12.1442L12.5502 12.1337L12.5665 12.1183L12.5752 12.1102C12.609 12.0785 12.6501 12.0403 12.6973 11.9972L12.7166 11.9795L12.7486 11.9507L12.7813 11.9213C12.824 11.883 12.87 11.8425 12.9186 11.8004L12.9506 11.7727C12.9777 11.7494 13.0056 11.7256 13.0339 11.7017C13.0453 11.6921 13.0569 11.6825 13.0687 11.6729C13.0976 11.6487 13.1267 11.6247 13.156 11.601C13.2226 11.5468 13.2914 11.4925 13.361 11.4396L13.3908 11.4172C13.4117 11.4017 13.4325 11.3861 13.4533 11.371L13.4722 11.3573C13.5094 11.3301 13.5472 11.3035 13.5853 11.2777L13.6041 11.2649L13.6229 11.2523C13.6417 11.2398 13.6603 11.2275 13.6789 11.2155L13.6974 11.2035L13.7346 11.1803L13.771 11.1578L13.7784 11.1534L13.8072 11.1363C13.8192 11.1293 13.8312 11.1225 13.8432 11.1159L13.861 11.1061L13.8783 11.0967C13.8843 11.0936 13.8903 11.0903 13.8962 11.0872C13.9352 11.0665 13.975 11.0474 14.0154 11.03C14.0264 11.025 14.0372 11.0205 14.048 11.0165L14.0799 11.0045C14.0894 11.001 14.0988 10.9978 14.1077 10.9948L14.1108 10.9938C14.1156 10.9922 14.1204 10.9907 14.1252 10.9893L14.1266 10.9889C14.1365 10.9858 14.1464 10.9831 14.1561 10.9806H14.1568C14.1843 10.9735 14.2123 10.9684 14.2405 10.9653C14.2534 10.9639 14.2664 10.9631 14.2795 10.9632H14.286C14.2947 10.9632 14.3031 10.9638 14.3114 10.9647C14.3152 10.9647 14.319 10.9656 14.3227 10.9661H14.3243C14.328 10.9666 14.3317 10.9671 14.3355 10.9681C14.3391 10.9688 14.3429 10.9695 14.3464 10.9704H14.3476C14.3512 10.9712 14.3545 10.9722 14.3583 10.9734C14.378 10.9794 14.3968 10.9886 14.4141 11.0006C14.4226 11.0066 14.4305 11.0133 14.4378 11.0207L14.4399 11.0229C14.4413 11.0242 14.4426 11.0256 14.4438 11.0271L14.4477 11.0315C14.4789 11.0667 14.5047 11.1071 14.5241 11.1512L14.527 11.1587C14.5337 11.1754 14.5389 11.1928 14.5426 11.2104C14.5536 11.2645 14.5493 11.3209 14.5303 11.3723C14.5231 11.3931 14.5143 11.4131 14.504 11.4322C14.4798 11.476 14.4511 11.5168 14.4186 11.5537L14.4117 11.5616C14.4014 11.5733 14.3906 11.585 14.3794 11.5968C14.3744 11.602 14.3692 11.6072 14.364 11.6125L14.3481 11.6283L14.3397 11.6363C14.3197 11.6555 14.2991 11.6742 14.2782 11.6922C14.2656 11.7033 14.2528 11.7141 14.2399 11.7247C14.1944 11.7622 14.148 11.7984 14.1008 11.8333C14.0723 11.8543 14.0435 11.875 14.0146 11.8954C13.9432 11.9459 13.871 11.9951 13.7981 12.043C13.6452 12.1442 13.4758 12.2525 13.2952 12.3702L13.2484 12.4008C13.1972 12.4344 13.1489 12.4665 13.1034 12.4972L13.0804 12.5127L13.0371 12.5426C13.0084 12.5624 12.9797 12.5824 12.951 12.6024L12.9279 12.6189C12.9167 12.6267 12.9055 12.6348 12.8943 12.6428L12.8834 12.6503L12.8498 12.6747L12.832 12.6878L12.8112 12.7034L12.7918 12.7178C12.7594 12.7425 12.7293 12.766 12.7016 12.7884L12.6912 12.7969C12.6748 12.8102 12.6587 12.8238 12.6428 12.8376C12.6188 12.8584 12.5969 12.8783 12.5772 12.8975L12.5676 12.907C12.562 12.9124 12.5566 12.9178 12.5514 12.9232C12.5478 12.927 12.5445 12.9307 12.5408 12.9343L12.5358 12.9397C12.5247 12.9517 12.5138 12.964 12.5033 12.9767L12.4982 12.983C12.4868 12.9973 12.4768 13.0109 12.4681 13.0242L12.4642 13.0301C12.4574 13.0409 12.4511 13.0519 12.4454 13.0633C12.444 13.0661 12.4426 13.069 12.4413 13.0718L12.4375 13.0804L12.435 13.0865L12.4333 13.0907L12.432 13.0945L12.4302 13.0996C12.4254 13.1137 12.4221 13.1285 12.4201 13.1434L12.4195 13.1486L12.419 13.1534V13.1798C12.419 13.1819 12.419 13.1841 12.4196 13.1865L12.42 13.1905C12.42 13.1927 12.4204 13.1947 12.4207 13.1971C12.421 13.1993 12.4216 13.2032 12.4222 13.2063V13.2067C12.4228 13.2096 12.4233 13.2125 12.424 13.2154C12.4247 13.2183 12.4254 13.2217 12.4263 13.2247C12.4277 13.2306 12.4296 13.2365 12.4315 13.2424C12.4328 13.2459 12.4339 13.2493 12.4353 13.2527C12.4353 13.2534 12.4357 13.2542 12.436 13.2548L12.4388 13.2616L12.4427 13.2709C12.4469 13.2805 12.4515 13.2899 12.4565 13.299L12.4616 13.3086L12.4669 13.3181C12.4678 13.3197 12.4689 13.3212 12.4701 13.3226L12.4718 13.3245L12.4737 13.3265L12.4757 13.3281C12.4787 13.3304 12.4819 13.3322 12.4852 13.3334C12.487 13.3341 12.4889 13.3346 12.4907 13.3351C12.5356 13.346 12.6277 13.306 12.7501 13.2364C12.757 13.2324 12.7647 13.2282 12.772 13.2239L12.8093 13.2019L12.8275 13.1911C12.8405 13.1836 12.8537 13.1752 12.8672 13.1669L12.8918 13.1519C13.0536 13.0516 13.2469 12.9227 13.4467 12.7968C13.4655 12.785 13.4843 12.7732 13.5031 12.7616L13.5408 12.7356C13.5846 12.7086 13.6287 12.6819 13.6729 12.6555C13.7286 12.6225 13.7847 12.5904 13.8413 12.5593L13.8783 12.5391C13.9028 12.526 13.9272 12.5133 13.9512 12.5009C13.9976 12.4772 14.0446 12.4546 14.0922 12.4332L14.1182 12.4219L14.1213 12.4205C14.2592 12.3617 14.3842 12.3254 14.4853 12.3254C14.5072 12.3251 14.5291 12.3271 14.5506 12.3312H14.5513C14.5582 12.3325 14.5645 12.334 14.5709 12.3357H14.5721C14.5887 12.3402 14.6047 12.3466 14.62 12.3549C14.6413 12.3668 14.6605 12.3826 14.6767 12.4017C14.6842 12.4106 14.6908 12.4202 14.6966 12.4304C14.7075 12.4484 14.7161 12.4679 14.7222 12.4883C14.7247 12.4963 14.7269 12.504 14.7291 12.5123C14.7455 12.5757 14.7439 12.6429 14.7244 12.7052Z" fill="#FF9D00"/>
<path fill-rule="evenodd" clip-rule="evenodd" d="M13.808 8.16019V8.1191C13.808 4.61669 11.173 1.77747 7.92133 1.77747C4.66969 1.77747 2.03371 4.61686 2.03371 8.1191V8.13282C2.03355 8.14194 2.03347 8.15107 2.03371 8.16019C2.03409 8.17383 2.03422 8.18747 2.03409 8.20111L2.03449 8.23123L2.03472 8.24203C2.03472 8.24705 2.03488 8.25199 2.03503 8.25701C2.03527 8.26496 2.03541 8.27299 2.03541 8.28094L2.03627 8.31349L2.03751 8.35173L2.0379 8.36429L2.03945 8.40387V8.40579C2.04008 8.42127 2.04086 8.43667 2.04156 8.45207L2.04163 8.45324C2.04241 8.46897 2.04319 8.48479 2.04412 8.5006C2.0449 8.51516 2.04567 8.52972 2.04668 8.54428L2.04684 8.54688C2.04752 8.55935 2.0483 8.5719 2.04917 8.58437L2.0494 8.58772L2.05196 8.62387L2.0522 8.62621C2.05267 8.63324 2.05313 8.64027 2.05375 8.64705C2.05839 8.70738 2.06381 8.76771 2.06999 8.82788L2.07037 8.83165L2.07511 8.87592L2.0804 8.92236L2.08428 8.95391L2.08607 8.96872C2.09021 9.00286 2.09469 9.03692 2.09951 9.07089L2.09982 9.07315L2.1044 9.10529C2.12658 9.25834 2.15405 9.41047 2.18675 9.56135L2.18714 9.56319L2.18962 9.57449L2.19669 9.6067L2.20104 9.6011C2.37195 9.38102 2.61713 9.25968 2.89144 9.25968C3.11129 9.25968 3.33683 9.338 3.56289 9.4924C3.71283 9.59499 3.87861 9.77666 4.04921 10.0052C4.20707 9.76905 4.42832 9.61206 4.68142 9.56921C4.72968 9.56101 4.77846 9.55691 4.82732 9.55683C5.40499 9.55683 5.75294 10.0968 5.88439 10.5826C5.94933 10.7467 6.26233 11.4941 6.73436 11.9997C7.45187 12.7719 7.6314 13.5686 7.2763 14.4217H7.27754C7.3017 14.4247 7.32602 14.4273 7.35049 14.4298C7.36501 14.4313 7.37946 14.4328 7.39407 14.4341L7.3992 14.4346L7.43128 14.4376L7.4608 14.4401C7.48892 14.4424 7.51712 14.4446 7.5454 14.4465L7.56785 14.4479L7.58564 14.4491L7.59667 14.4498L7.6314 14.4517L7.64088 14.4521L7.67731 14.4539L7.71787 14.4555L7.75042 14.4565L7.75585 14.4567C7.76277 14.4571 7.76968 14.4573 7.7766 14.4573L7.78405 14.4576C7.82989 14.4587 7.87565 14.4593 7.92148 14.4592H7.97011L8.00484 14.4588C8.01338 14.4584 8.02185 14.4584 8.03048 14.4584H8.04399L8.05572 14.4581C8.06031 14.4579 8.06489 14.4577 8.06955 14.4577H8.08346L8.11073 14.457L8.15174 14.4555L8.19688 14.4533C8.20993 14.4528 8.22283 14.452 8.23572 14.4514L8.24963 14.4504L8.27029 14.4493L8.28241 14.4485L8.29158 14.4478L8.3333 14.4449L8.37494 14.4417L8.41277 14.4384L8.43934 14.436L8.46855 14.4331C8.51734 14.4284 8.56597 14.4229 8.6146 14.4166L8.64777 14.4124C8.29826 13.5628 8.47919 12.7695 9.19368 12.0005C9.66469 11.4936 9.97769 10.7461 10.0429 10.5819C10.1745 10.0962 10.5222 9.55624 11.1 9.55624C11.1489 9.55624 11.1978 9.56043 11.246 9.56863C11.4989 9.61147 11.7201 9.76846 11.8782 10.0046C12.0489 9.77616 12.2146 9.59432 12.3646 9.49173C12.5906 9.33742 12.8163 9.25909 13.036 9.25909C13.278 9.25909 13.4974 9.35365 13.6631 9.52712C13.6662 9.51298 13.6691 9.49884 13.672 9.48461L13.6805 9.44227C13.6835 9.42679 13.6865 9.41131 13.6894 9.39583C13.6945 9.36846 13.6996 9.3411 13.7045 9.31348C13.7097 9.28487 13.7146 9.25608 13.7192 9.22729L13.7216 9.21173C13.7231 9.20252 13.7245 9.19332 13.7261 9.18403C13.7288 9.16964 13.731 9.15524 13.7331 9.14068L13.734 9.13516L13.7395 9.09725L13.7449 9.05884V9.05851C13.7489 9.03014 13.7526 9.00177 13.7561 8.9734L13.757 8.96637L13.7619 8.92637L13.7658 8.89223L13.7728 8.82495L13.7755 8.79792L13.7762 8.79056C13.7777 8.776 13.7791 8.76144 13.7804 8.74688V8.74571C13.7814 8.73416 13.7825 8.72253 13.7834 8.7109C13.7889 8.64495 13.7936 8.57868 13.7973 8.51215C13.798 8.50127 13.7985 8.49031 13.7992 8.47935V8.47885L13.8012 8.43776L13.8016 8.42855C13.8029 8.40077 13.804 8.37299 13.8048 8.34521V8.3442L13.8052 8.33332C13.8056 8.3242 13.8059 8.315 13.8059 8.30579L13.8061 8.30211C13.8064 8.29349 13.8067 8.28462 13.8067 8.27583L13.8069 8.2683C13.8072 8.25952 13.8074 8.25081 13.8074 8.24203L13.8075 8.23458C13.8078 8.22345 13.808 8.21224 13.808 8.20111V8.16019ZM6.46105 14.4954C6.92733 13.7589 6.89423 13.2061 6.25456 12.5174C5.61475 11.8286 5.24239 10.8214 5.24239 10.8214C5.24239 10.8214 5.10341 10.2364 4.78645 10.2901C4.46949 10.3439 4.23698 11.2181 4.90065 11.7532C5.56425 12.2884 4.76859 12.6512 4.51315 12.149C4.25772 11.6468 3.56032 10.3558 3.19877 10.1089C2.83722 9.86193 2.58295 10.0003 2.66817 10.5093C2.71051 10.7619 3.10423 11.1931 3.47208 11.596C3.84528 12.0047 4.19183 12.3843 4.11772 12.5186C3.97066 12.7853 3.45273 12.2052 3.45273 12.2052C3.45273 12.2052 1.83094 10.6154 1.47794 11.0297C1.15243 11.4115 1.65436 11.7361 2.42782 12.2365C2.49354 12.279 2.56128 12.3228 2.63066 12.368C3.51558 12.9451 3.5844 13.0973 3.45879 13.3156C3.41241 13.3963 3.11619 13.2048 2.75184 12.9692C2.13074 12.5674 1.31177 12.0378 1.1961 12.5119C1.09604 12.9222 1.69857 13.1735 2.24501 13.4016C2.70026 13.5915 3.11666 13.7653 3.05537 14.0011C2.9919 14.2456 2.64782 14.0417 2.27174 13.8187C1.84952 13.5684 1.3869 13.2943 1.23549 13.6037C0.949366 14.1886 3.2095 14.8772 3.22814 14.8823C3.95839 15.0863 5.81292 15.5186 6.46105 14.4954ZM9.4648 14.4954C8.99853 13.7589 9.03162 13.2061 9.67137 12.5174C10.3111 11.8286 10.6835 10.8214 10.6835 10.8214C10.6835 10.8214 10.8224 10.2364 11.1394 10.2901C11.4564 10.3439 11.6889 11.2181 11.0253 11.7532C10.3616 12.2884 11.1573 12.6512 11.4127 12.149C11.6682 11.6468 12.3651 10.3558 12.7267 10.1089C13.0883 9.86193 13.3427 10.0003 13.2574 10.5093C13.2151 10.7619 12.8213 11.1931 12.4535 11.5961C12.0803 12.0048 11.7337 12.3843 11.8077 12.5186C11.9548 12.7853 12.4731 12.2048 12.4731 12.2048C12.4731 12.2048 14.0948 10.6152 14.448 11.0295C14.7734 11.4112 14.2715 11.7359 13.498 12.2362C13.4303 12.28 13.3627 12.3238 13.2952 12.3678C12.4103 12.9448 12.3415 13.0971 12.467 13.3153C12.5134 13.3961 12.8097 13.2044 13.1739 12.9689C13.7951 12.5672 14.6141 12.0375 14.7298 12.5116C14.8299 12.9219 14.2273 13.1733 13.6808 13.4013C13.2256 13.5913 12.8092 13.765 12.8704 14.0008C12.9338 14.2453 13.2778 14.0413 13.6538 13.8184C14.076 13.5681 14.5387 13.2938 14.6901 13.6034C14.9763 14.1887 12.7157 14.8766 12.6975 14.8816C11.9672 15.0863 10.1127 15.5186 9.4648 14.4954Z" fill="#FFD21E"/>
<path fill-rule="evenodd" clip-rule="evenodd" d="M9.83333 6.39304C9.92515 6.42802 9.99344 6.53447 10.0584 6.6358C10.1462 6.77271 10.2279 6.90015 10.3533 6.82835C10.5012 6.74358 10.6225 6.61354 10.7017 6.45455C10.781 6.29555 10.8148 6.11486 10.7988 5.93522C10.7869 5.8009 10.7474 5.67111 10.6832 5.55521C10.619 5.4393 10.5318 5.34016 10.4279 5.26495C10.3238 5.18974 10.2056 5.14032 10.0818 5.12024C9.95786 5.10016 9.83138 5.10995 9.71144 5.14887C9.59149 5.18777 9.4811 5.25483 9.38811 5.34523C9.29511 5.43562 9.22186 5.54709 9.17369 5.67163C9.12553 5.79616 9.10354 5.93066 9.10937 6.06543C9.11527 6.20024 9.14875 6.33187 9.20756 6.45103C9.26567 6.56877 9.39463 6.51321 9.53074 6.45455C9.6374 6.40861 9.74857 6.36074 9.83333 6.39304ZM5.84219 6.39304C5.75036 6.42802 5.68208 6.53455 5.61713 6.6358C5.52934 6.77279 5.44754 6.90015 5.32223 6.82835C5.13621 6.72225 4.99356 6.54526 4.92205 6.33204C4.85056 6.11878 4.85535 5.88448 4.93549 5.67481C5.01563 5.46515 5.16539 5.29515 5.35556 5.19795C5.54574 5.10074 5.7627 5.08331 5.96415 5.14903C6.12458 5.20107 6.26705 5.30315 6.37364 5.44238C6.48023 5.58162 6.54603 5.75175 6.56288 5.93129C6.57966 6.11083 6.54665 6.29171 6.46803 6.45103C6.40984 6.56877 6.28088 6.51321 6.14478 6.45463C6.03803 6.40861 5.92702 6.36074 5.84219 6.39304ZM9.21588 10.3052C9.84848 9.76842 10.0808 8.89194 10.0808 8.35203C10.0808 7.92525 9.81429 8.05956 9.38756 8.28717L9.36348 8.29998C8.97178 8.50893 8.45035 8.78717 7.87796 8.78717C7.30549 8.78717 6.78406 8.50893 6.39244 8.29989C5.95188 8.06483 5.67555 7.91738 5.67555 8.35211C5.67555 8.90909 5.92275 9.82365 6.60126 10.3549C6.69083 10.1592 6.81692 9.98549 6.97167 9.84457C7.12634 9.70365 7.30642 9.59863 7.50048 9.53604C7.56822 9.51428 7.63799 9.63988 7.70938 9.7685C7.77829 9.89252 7.84875 10.0194 7.92038 10.0194C7.99674 10.0194 8.07171 9.89436 8.14497 9.77235C8.22149 9.64474 8.29615 9.52047 8.36832 9.54532C8.7315 9.67093 9.03533 9.94331 9.21588 10.3052Z" fill="#32343D"/>
<path d="M9.21572 10.3051C8.88625 10.5848 8.44833 10.7723 7.87803 10.7723C7.34223 10.7723 6.92319 10.6068 6.60126 10.3548C6.69083 10.1591 6.81691 9.98529 6.97167 9.84445C7.12634 9.70353 7.30642 9.59851 7.50048 9.53592C7.63348 9.49316 7.77448 10.0193 7.92037 10.0193C8.07652 10.0193 8.227 9.49659 8.36831 9.54521C8.73142 9.6709 9.03517 9.94328 9.21572 10.3051Z" fill="#FF323D"/>
<path fill-rule="evenodd" clip-rule="evenodd" d="M4.32948 7.15229C4.25422 7.20651 4.16769 7.2399 4.07756 7.24944C3.98744 7.25906 3.89651 7.2445 3.81287 7.2071C3.746 7.17739 3.68525 7.13371 3.6341 7.07856C3.58294 7.0235 3.5424 6.95806 3.51479 6.88601C3.48014 6.79589 3.46666 6.69798 3.47557 6.60091C3.48447 6.50384 3.51548 6.41062 3.56583 6.32953C3.62633 6.23196 3.71233 6.15591 3.81296 6.11101C3.9136 6.06611 4.02433 6.05436 4.13116 6.07727C4.23799 6.10017 4.33611 6.1567 4.4131 6.23965C4.4901 6.32267 4.54251 6.42844 4.56371 6.5435C4.58494 6.65856 4.57402 6.77781 4.53235 6.88618C4.49067 6.99455 4.42002 7.0871 4.32948 7.15229ZM12.2079 7.15229C12.1326 7.20651 12.0461 7.2399 11.956 7.24944C11.8658 7.25906 11.7749 7.2445 11.6912 7.2071C11.6243 7.17731 11.5636 7.13371 11.5124 7.07856C11.4613 7.0235 11.4208 6.95806 11.3931 6.88601C11.3586 6.79589 11.3451 6.69798 11.354 6.60091C11.3629 6.50384 11.3939 6.41062 11.4442 6.32953C11.4894 6.25656 11.5491 6.19539 11.619 6.15027C11.6888 6.10517 11.767 6.07733 11.8481 6.06875C11.9292 6.06017 12.011 6.07106 12.0876 6.10064C12.1642 6.13023 12.2338 6.17776 12.2914 6.23982C12.3685 6.32275 12.4209 6.42844 12.4421 6.5435C12.4634 6.65856 12.4525 6.77781 12.4107 6.88618C12.369 6.99455 12.2985 7.0871 12.2079 7.15229Z" fill="#FFAD03"/>
</svg>
