<svg width="23" height="18" viewBox="0 0 23 18" fill="none" xmlns="http://www.w3.org/2000/svg">
    <g clip-path="url(#clip0_5537_9125)">
        <mask id="mask0_5537_9125" style="mask-type:luminance" maskUnits="userSpaceOnUse" x="0"
            y="0" width="23" height="18">
            <path d="M22.5 0H0V18H22.5V0Z" fill="white" />
        </mask>
        <g mask="url(#mask0_5537_9125)">
            <path
                d="M22.4999 15.9428C22.4999 17.0788 21.8861 18 21.1295 18H1.37049C0.613585 18 0 17.0788 0 15.9428V2.05744C0 0.920924 0.613585 0 1.37049 0H21.1295C21.8861 0 22.4999 0.920924 22.4999 2.05744V15.9428Z"
                fill="#98CBF9" />
            <path
                d="M21.1645 0.468262H1.92019C1.18267 0.468262 0.585205 1.36513 0.585205 2.4721V15.9961C0.585205 17.1025 1.18267 17.9997 1.92019 17.9997H21.129C21.8859 17.9997 22.4998 17.0785 22.4998 15.9425V2.4721C22.4998 1.36513 21.9021 0.468262 21.1645 0.468262Z"
                fill="#98CBF9" />
            <path
                d="M1.34985 2.02485C1.34985 1.65206 1.65206 1.34985 2.02485 1.34985H20.4749C20.8476 1.34985 21.1499 1.65206 21.1499 2.02485V15.9749C21.1499 16.3476 20.8476 16.6499 20.4749 16.6499H2.02485C1.65206 16.6499 1.34985 16.3476 1.34985 15.9749V2.02485Z"
                stroke="#202020" stroke-width="0.45" stroke-miterlimit="10" />
            <path d="M2.69995 2.69995H19.8V15.3H2.69995V2.69995Z" fill="#202020" />
            <path d="M7.2 8.10015H4.5V5.40015H7.2V8.10015Z" fill="white" />
            <path d="M5.40015 8.10005H7.20015V6.30005H5.40015V8.10005Z" fill="#98CBF9" />
            <path d="M7.2 8.10015H4.5V5.40015H7.2V8.10015Z" fill="white" />
            <path d="M5.40015 8.10005H7.20015V6.30005H5.40015V8.10005Z" fill="#98CBF9" />
            <path d="M18 8.10015H15.3V5.40015H18V8.10015Z" fill="white" />
            <path d="M16.2 8.10005H18V6.30005H16.2V8.10005Z" fill="#98CBF9" />
            <path d="M18 13.5H4.5V10.8H18V13.5Z" fill="white" />
            <path d="M18.0001 13.5H5.40015V11.7H18.0001V13.5Z" fill="#98CBF9" />
        </g>
    </g>
    <defs>
        <clipPath id="clip0_5537_9125">
            <rect width="22.5" height="18" fill="white" />
        </clipPath>
    </defs>
</svg>
    