<svg width="28" height="29" viewBox="0 0 28 29" fill="none" xmlns="http://www.w3.org/2000/svg">
<rect y="0.5" width="28" height="28" rx="4" fill="#E5E7EB"/>
<path d="M14 7.83336C12.9786 7.83151 11.9704 8.06439 11.0533 8.51401C10.1362 8.96363 9.33464 9.61797 8.71053 10.4265C8.08643 11.2351 7.65646 12.1763 7.45381 13.1774C7.25117 14.1785 7.28126 15.2127 7.54178 16.2004C7.80229 17.188 8.28626 18.1026 8.95632 18.8735C9.62638 19.6444 10.4646 20.251 11.4063 20.6465C12.3481 21.0421 13.3681 21.2159 14.3876 21.1547C15.4072 21.0935 16.3991 20.7988 17.2867 20.2934H17.3334H17.3667C18.6502 19.5627 19.6547 18.4265 20.2227 17.0632C20.7906 15.6998 20.8897 14.1865 20.5044 12.7607C20.1192 11.3349 19.2714 10.0774 18.0942 9.18564C16.9169 8.29382 15.4768 7.81818 14 7.83336ZM14.6667 9.21336C15.84 9.36216 16.9306 9.89676 17.767 10.7331C18.6033 11.5694 19.1379 12.66 19.2867 13.8334H14.6667V9.21336ZM14 19.8334C12.6497 19.8241 11.3531 19.3031 10.372 18.3753C9.39083 17.4474 8.79815 16.182 8.71355 14.8343C8.62895 13.4866 9.05872 12.157 9.91614 11.1137C10.7736 10.0705 11.9948 9.39137 13.3334 9.21336V14.5C13.336 14.5798 13.3517 14.6587 13.38 14.7334V14.7867V14.8334L16.0467 19.4134C15.3998 19.6902 14.7036 19.8331 14 19.8334ZM17.22 18.74L15.1534 15.1667H19.2867C19.1969 15.8698 18.9679 16.5479 18.6131 17.1614C18.2582 17.775 17.7847 18.3116 17.22 18.74Z" fill="#4B5563"/>
</svg>
