<svg width="16" height="16" viewBox="0 0 16 16" fill="none" xmlns="http://www.w3.org/2000/svg">
<path d="M7.98506 14.6668C6.7698 14.6668 5.57954 14.333 4.52537 13.6876L2.03545 14.3675C1.82662 14.423 1.60334 14.3552 1.46391 14.1892C1.32451 14.0231 1.29451 13.7909 1.3867 13.5954C1.91823 12.4668 2.00875 11.1888 1.64165 9.99633C1.55446 9.71863 1.48391 9.42925 1.43336 9.13987C1.12844 7.38586 1.52555 5.61797 2.54974 4.16221C3.57448 2.70537 5.10521 1.73615 6.85923 1.43122C6.87035 1.42956 6.88144 1.42789 6.89256 1.42677C8.56936 1.14466 10.2717 1.50734 11.6891 2.44878C13.1715 3.43464 14.1813 4.9387 14.5329 6.68383C14.8839 8.42951 14.5345 10.2069 13.5492 11.6893C12.5639 13.1716 11.0599 14.182 9.31417 14.533C8.87095 14.6224 8.42662 14.6668 7.98506 14.6668ZM4.61592 12.5318C4.72422 12.5318 4.83141 12.5635 4.92363 12.6246C6.15886 13.446 7.63962 13.736 9.0948 13.4449C10.5489 13.1522 11.8025 12.3102 12.6239 11.0744C13.4454 9.83917 13.737 8.35787 13.4443 6.90378C13.1515 5.44969 12.3101 4.19612 11.0743 3.37466C9.88738 2.58596 8.4605 2.28438 7.05475 2.52654C7.04475 2.5282 7.03475 2.52987 7.02475 2.53099C5.57344 2.78982 4.30821 3.59573 3.45896 4.80154C2.60474 6.01456 2.27425 7.48753 2.52865 8.94995C2.57032 9.19099 2.62917 9.43206 2.7025 9.66644C3.04076 10.7656 3.06185 11.922 2.77472 13.0145L4.4704 12.5518C4.51761 12.5385 4.56704 12.5318 4.61592 12.5318Z" fill="#111928"/>
<path d="M7.00001 12C7.11397 12 7.20637 11.9167 7.22485 11.7934C7.48975 9.73998 7.77926 9.44708 9.78439 9.22506C9.91068 9.21275 10 9.12025 10 9C10 8.87975 9.91068 8.78726 9.78439 8.77184C7.77926 8.55293 7.48975 8.26002 7.22485 6.20349C7.20637 6.08016 7.11397 6 7.00001 6C6.88604 6 6.79364 6.08016 6.77516 6.20349C6.51027 8.26002 6.22075 8.55293 4.21561 8.77184C4.08932 8.78726 4 8.87975 4 9C4 9.12025 4.08932 9.21275 4.21561 9.22506C6.22075 9.49024 6.49179 9.74307 6.77516 11.7934C6.79364 11.9167 6.88604 12 7.00001 12Z" fill="#111928"/>
<path d="M9.33326 7.3335C9.40923 7.3335 9.47083 7.27799 9.48315 7.19578C9.65975 5.82682 9.85276 5.63155 11.1895 5.48354C11.2737 5.47533 11.3333 5.41366 11.3333 5.3335C11.3333 5.25333 11.2737 5.19167 11.1895 5.18139C9.85276 5.03545 9.65975 4.84018 9.48315 3.46916C9.47083 3.38694 9.40923 3.3335 9.33326 3.3335C9.25728 3.3335 9.19568 3.38694 9.18336 3.46916C9.00677 4.84018 8.81375 5.03545 7.47699 5.18139C7.3928 5.19167 7.33325 5.25333 7.33325 5.3335C7.33325 5.41366 7.3928 5.47533 7.47699 5.48354C8.81375 5.66032 8.99445 5.82888 9.18336 7.19578C9.19568 7.27799 9.25728 7.3335 9.33326 7.3335Z" fill="#111928"/>
</svg>
