<svg width="26" height="24" viewBox="0 0 26 24" fill="none" xmlns="http://www.w3.org/2000/svg">
    <path
        d="M25.7636 17.6428C25.696 17.3883 25.5868 17.147 25.4404 16.9283C25.4717 16.8132 25.4957 16.6962 25.5117 16.578C25.6157 15.8278 25.3556 15.1411 24.8656 14.6098C24.6001 14.3196 24.3156 14.1279 24.0142 14.0103C24.212 13.1639 24.312 12.2977 24.3125 11.4285C24.3125 11.0315 24.2901 10.6427 24.2524 10.2596C24.2328 10.0683 24.2091 9.87747 24.1812 9.68718C24.095 9.12572 23.967 8.57141 23.7983 8.02903C23.6877 7.67263 23.5598 7.32184 23.4149 6.9779C23.1979 6.46856 22.9445 5.97548 22.6567 5.50252C22.4679 5.18783 22.2623 4.88354 22.0407 4.59097C21.9321 4.44323 21.819 4.29899 21.7013 4.15842C21.3526 3.73466 20.9737 3.33672 20.5675 2.96772C20.4325 2.84367 20.2938 2.72387 20.1514 2.60848C20.0111 2.49153 19.8678 2.37836 19.7216 2.26906C19.4272 2.04998 19.1231 1.84445 18.81 1.65313C17.0802 0.602506 15.0516 0 12.8835 0C6.57073 0 1.45445 5.11653 1.45445 11.4289C1.4542 12.3091 1.55612 13.1862 1.75821 14.0428C1.48708 14.1605 1.22725 14.344 0.986248 14.6095C0.496335 15.1406 0.236128 15.8248 0.340186 16.575C0.356001 16.6941 0.379725 16.8121 0.411357 16.928C0.26501 17.1468 0.155881 17.3883 0.0883879 17.6428C-0.0622387 18.2153 -0.0126575 18.7316 0.178764 19.1839C-0.029352 19.7751 0.0226143 20.4048 0.293617 20.9522C0.490687 21.352 0.772735 21.6612 1.12043 21.9376C1.53378 22.2663 2.05118 22.5454 2.67528 22.8133C3.41987 23.1309 4.32878 23.4292 4.74212 23.5387C5.80982 23.8151 6.83358 23.9903 7.87114 23.9988C9.34942 24.0125 10.6225 23.6649 11.5339 22.7754C11.9816 22.8302 12.4324 22.8577 12.8835 22.8575C13.3601 22.8565 13.8362 22.8265 14.3092 22.7677C15.2185 23.6629 16.4964 24.0137 17.9801 23.9996C19.0175 23.9913 20.0413 23.8161 21.1062 23.5393C21.5223 23.4298 22.4308 23.1315 23.1758 22.8139C23.7999 22.5457 24.3173 22.2665 24.7334 21.9384C25.0785 21.6619 25.3603 21.3527 25.5575 20.9529C25.8312 20.4054 25.8804 19.7758 25.6752 19.1846C25.8648 18.7322 25.9141 18.2148 25.7636 17.6428ZM24.7042 19.1456C24.9139 19.5437 24.9274 19.9934 24.7423 20.4123C24.4617 21.0471 23.7645 21.5471 22.4105 22.084C21.5685 22.4179 20.7975 22.6314 20.7908 22.6333C19.6771 22.9221 18.6699 23.0688 17.7981 23.0688C16.3543 23.0688 15.28 22.6704 14.5986 21.8837C13.4465 22.08 12.2701 22.0866 11.1158 21.9035C10.4336 22.6772 9.36536 23.0688 7.93378 23.0688C7.06177 23.0688 6.05471 22.9221 4.94095 22.6333C4.93417 22.6314 4.16347 22.4179 3.32121 22.084C1.96733 21.5471 1.26993 21.0474 0.989387 20.4123C0.804367 19.9934 0.817797 19.5437 1.02754 19.1456C1.04688 19.1086 1.06771 19.0726 1.08993 19.0377C0.964232 18.8489 0.879918 18.6357 0.842525 18.4118C0.805145 18.1882 0.815538 17.9591 0.873027 17.7397C0.956374 17.423 1.12846 17.1596 1.36219 16.9705C1.24959 16.7855 1.17572 16.5796 1.14503 16.3652C1.07775 15.899 1.23252 15.4336 1.5806 15.054C1.85172 14.7586 2.23494 14.5961 2.65921 14.5961H2.67051C2.35061 13.5707 2.18842 12.5026 2.1895 11.4285C2.1895 5.5703 6.93876 0.820664 12.7979 0.820664C18.6569 0.820664 23.4061 5.5698 23.4061 11.4285C23.407 12.5055 23.2437 13.5764 22.9218 14.6041C22.973 14.5991 23.0232 14.5966 23.0725 14.5965C23.4968 14.5965 23.8801 14.759 24.151 15.0544C24.4991 15.4336 24.654 15.8994 24.5866 16.3656C24.5559 16.58 24.482 16.7858 24.3695 16.9709C24.6033 17.16 24.7755 17.4234 24.8587 17.7401C24.9162 17.9595 24.9266 18.1885 24.8892 18.4123C24.8519 18.636 24.7676 18.8493 24.6418 19.0381C24.664 19.0726 24.6851 19.1086 24.7042 19.1456Z"
        fill="white" />
    <path
        d="M24.6418 19.0379C24.7676 18.8492 24.8519 18.6359 24.8893 18.4122C24.9266 18.1884 24.9162 17.9593 24.8587 17.7399C24.7754 17.4232 24.6031 17.1599 24.3696 16.9707C24.4821 16.7857 24.556 16.5798 24.5866 16.3655C24.654 15.8993 24.4992 15.4338 24.151 15.0543C23.8801 14.7589 23.4968 14.5963 23.0725 14.5963C23.0232 14.5963 22.973 14.599 22.9218 14.604C23.2434 13.5762 23.4064 12.5055 23.4053 11.4287C23.4053 5.57031 18.656 0.820801 12.7975 0.820801C6.93891 0.820801 2.18914 5.56981 2.18914 11.4287C2.18808 12.5028 2.35027 13.5708 2.67015 14.5962H2.65884C2.23457 14.5962 1.85137 14.7586 1.58037 15.054C1.23229 15.4332 1.07738 15.8991 1.14479 16.3652C1.17551 16.5796 1.24938 16.7856 1.36194 16.9706C1.12822 17.1596 0.956017 17.423 0.872671 17.7397C0.815207 17.9592 0.804851 18.1883 0.842282 18.4121C0.879713 18.6358 0.964063 18.8492 1.08981 19.0379C1.06747 19.0728 1.04688 19.1089 1.02743 19.1459C0.817805 19.5439 0.804261 19.9937 0.989406 20.4125C1.27007 21.0473 1.96721 21.5474 3.32122 22.0842C4.1631 22.4181 4.93419 22.6316 4.94097 22.6335C6.0546 22.9224 7.06179 23.0691 7.93367 23.0691C9.36538 23.0691 10.4336 22.6775 11.1158 21.9037C12.2701 22.0869 13.4465 22.0801 14.5986 21.8839C15.28 22.6707 16.3543 23.0691 17.7981 23.0691C18.67 23.0691 19.6772 22.9224 20.7907 22.6335C20.7976 22.6316 21.5683 22.4181 22.4105 22.0842C23.7645 21.5474 24.4618 21.0473 24.7424 20.4125C24.9274 19.9937 24.9139 19.5439 24.7042 19.1459C24.6851 19.1086 24.664 19.0725 24.6418 19.0379ZM10.6276 20.6925C10.5689 20.7951 10.506 20.8954 10.4391 20.993C10.2627 21.2512 10.0308 21.4485 9.76153 21.5951C9.24687 21.8758 8.59543 21.9738 7.93367 21.9738C6.8882 21.9738 5.81649 21.7291 5.21587 21.5734C5.18624 21.5657 1.5338 20.534 1.99622 19.6559C2.07404 19.5082 2.20206 19.4492 2.36336 19.4492C3.01444 19.4492 4.2 20.4187 4.7095 20.4187C4.82334 20.4187 4.90368 20.3702 4.93644 20.252C5.15359 19.4733 1.63608 19.1459 1.93232 18.0182C1.98453 17.8186 2.12639 17.7375 2.32572 17.7375C3.18655 17.7374 5.11859 19.2513 5.52264 19.2513C5.55365 19.2513 5.57585 19.2422 5.5879 19.2231C5.58966 19.2202 5.59143 19.2174 5.59306 19.2144C5.78272 18.9013 5.67388 18.6736 4.3746 17.8777L4.24983 17.8018C2.82001 16.9365 1.81646 16.4157 2.38721 15.7943C2.45286 15.7227 2.54599 15.6909 2.65909 15.6909C2.79315 15.6909 2.95545 15.7357 3.13419 15.811C3.88933 16.1295 4.93595 16.998 5.37314 17.3767C5.44192 17.4364 5.51025 17.4968 5.57811 17.5575C5.57811 17.5575 6.13167 18.1332 6.46632 18.1332C6.54339 18.1332 6.60877 18.1028 6.65308 18.0277C6.89046 17.6276 4.44853 15.7771 4.31084 15.0136C4.21745 14.4963 4.37636 14.2342 4.67008 14.2342C4.80979 14.2342 4.98025 14.2937 5.1684 14.4131C5.75208 14.7835 6.87902 16.7201 7.29161 17.4734C7.42994 17.7259 7.66605 17.8326 7.87881 17.8326C8.30094 17.8326 8.63093 17.4129 7.91747 16.8797C6.84513 16.0774 7.22146 14.7659 7.73321 14.6852C7.75505 14.6817 7.77713 14.6799 7.7991 14.6799C8.26454 14.6799 8.46976 15.4819 8.46976 15.4819C8.46976 15.4819 9.07152 16.9929 10.1052 18.0259C11.0431 18.9634 11.1742 19.7327 10.6276 20.6925ZM13.9702 20.8694L13.9166 20.8758L13.8252 20.8863C13.7771 20.8913 13.7289 20.8961 13.6806 20.9004L13.6335 20.9047L13.5905 20.9084L13.5295 20.9132L13.462 20.9181L13.3948 20.9225L13.3798 20.9235C13.3623 20.9245 13.3447 20.9257 13.3269 20.9266L13.3044 20.9278C13.2836 20.9289 13.2627 20.9299 13.2416 20.9308L13.1687 20.934L13.1026 20.9362L13.0584 20.9375H13.0359C13.0221 20.9375 13.0084 20.9382 12.9946 20.9384H12.9728C12.959 20.9384 12.9453 20.9384 12.9315 20.939L12.8752 20.9397H12.7968C12.7351 20.9397 12.6736 20.9391 12.6124 20.9379L12.5627 20.9367C12.5485 20.9367 12.5343 20.9361 12.5204 20.9356L12.4677 20.9341L12.4023 20.9316L12.3433 20.9289L12.3281 20.9283L12.272 20.9254C12.2563 20.9245 12.2408 20.9238 12.2253 20.9227L12.189 20.9205C12.1434 20.9176 12.0979 20.9145 12.0523 20.911L12.0046 20.9071C11.9845 20.9056 11.9644 20.9037 11.9445 20.902C11.921 20.8999 11.8975 20.8977 11.8741 20.8954C11.8348 20.8918 11.7955 20.8878 11.7562 20.8835H11.7543C12.328 19.6038 12.0379 18.4086 10.8787 17.2504C10.1184 16.4911 9.61266 15.3699 9.50772 15.1238C9.29532 14.3951 8.73325 13.5851 7.79974 13.5851C7.72079 13.5851 7.64196 13.5914 7.56401 13.6037C7.15506 13.6681 6.79757 13.9035 6.54251 14.2577C6.26686 13.9149 5.999 13.6424 5.75674 13.4885C5.39147 13.2569 5.02694 13.1394 4.67184 13.1394C4.22862 13.1394 3.83247 13.3214 3.55632 13.6515L3.54929 13.66C3.54402 13.6382 3.539 13.6165 3.53385 13.5947L3.53323 13.5918C3.48067 13.3671 3.43655 13.1405 3.40093 12.9125C3.40093 12.911 3.40093 12.9095 3.40017 12.9079C3.39741 12.8908 3.3949 12.8734 3.39227 12.8562C3.38455 12.8053 3.3773 12.7542 3.37055 12.7031C3.36754 12.6799 3.36427 12.6567 3.36139 12.6334L3.35285 12.5638C3.35009 12.5405 3.34783 12.5195 3.34532 12.4974L3.34458 12.4918C3.33455 12.4015 3.32576 12.3111 3.31821 12.2205L3.31545 12.1857L3.31105 12.1264C3.3098 12.1103 3.30854 12.0939 3.30766 12.0776C3.30766 12.0737 3.30704 12.07 3.30691 12.0663C3.30372 12.0209 3.301 11.9753 3.29875 11.9298C3.2975 11.906 3.29624 11.8824 3.29524 11.8586L3.29273 11.7963L3.2921 11.7775L3.29009 11.7201L3.28884 11.6713C3.28884 11.6518 3.28783 11.6324 3.28758 11.6129C3.2872 11.5935 3.2867 11.5721 3.28658 11.5516C3.28632 11.531 3.28658 11.5106 3.28595 11.4902C3.28545 11.4696 3.28595 11.4491 3.28595 11.4287C3.28595 6.1752 7.54504 1.91611 12.799 1.91611C18.0529 1.91611 22.3119 6.17508 22.3119 11.4287V11.5516C22.3119 11.572 22.3112 11.5926 22.3109 11.6129C22.3109 11.6299 22.3101 11.6466 22.3096 11.6638C22.3096 11.6788 22.309 11.694 22.3085 11.7086C22.3085 11.7278 22.3073 11.747 22.3067 11.7662V11.7677L22.3041 11.8344C22.3032 11.8538 22.3025 11.8734 22.3014 11.8928L22.3008 11.9067L22.2974 11.9689C22.29 12.1023 22.2799 12.2355 22.2672 12.3686V12.3702C22.265 12.3921 22.2629 12.4139 22.2605 12.4357L22.2549 12.4873L22.2437 12.5882L22.2373 12.6393L22.2294 12.6995C22.2265 12.7213 22.2236 12.7433 22.2204 12.765C22.2171 12.7895 22.2135 12.8138 22.2098 12.8382L22.2012 12.8958L22.1909 12.961C22.1873 12.9828 22.1836 13.0043 22.1796 13.0259C22.1754 13.0477 22.1722 13.0692 22.1684 13.0908C22.1609 13.134 22.153 13.1772 22.1447 13.2202C22.132 13.2846 22.1191 13.3489 22.1058 13.4132L22.0919 13.4768C22.0874 13.498 22.0825 13.5194 22.0778 13.5406C21.81 13.2804 21.4554 13.1387 21.0644 13.1387C20.7096 13.1387 20.3447 13.256 19.9795 13.4876C19.7373 13.6415 19.4695 13.9141 19.1938 14.2568C18.9383 13.9026 18.5808 13.6672 18.1721 13.6028C18.0942 13.5905 18.0154 13.5843 17.9364 13.5843C17.0027 13.5843 16.4409 14.3943 16.2284 15.1229C16.123 15.3691 15.6171 16.4902 14.8562 17.2506C13.6978 18.4052 13.4056 19.595 13.9702 20.8694ZM23.7911 18.3077L23.7874 18.3188C23.7778 18.3441 23.7668 18.3687 23.7544 18.3925C23.745 18.4101 23.7348 18.4272 23.7237 18.4437C23.7028 18.475 23.6798 18.5049 23.6548 18.533C23.6491 18.5395 23.6435 18.546 23.637 18.5524C23.628 18.5621 23.6188 18.5716 23.6094 18.5809C23.4404 18.7484 23.1829 18.8952 22.8917 19.0299C22.8586 19.0449 22.8251 19.0598 22.7914 19.0749L22.7577 19.0898C22.7353 19.0997 22.7128 19.1095 22.6892 19.1192C22.6667 19.129 22.6434 19.1387 22.62 19.1483L22.55 19.1772C22.3862 19.2446 22.2183 19.3088 22.0547 19.3722L21.9846 19.3995L21.9155 19.4266C21.8694 19.4445 21.824 19.4625 21.7793 19.4804L21.7126 19.5073L21.6471 19.534L21.615 19.5476C21.5935 19.5565 21.5725 19.5654 21.5516 19.5743C21.0699 19.781 20.7234 19.9913 20.7962 20.2521C20.7982 20.2595 20.8005 20.2666 20.803 20.2735C20.8095 20.2928 20.8184 20.311 20.8296 20.3282C20.8361 20.3384 20.8436 20.348 20.852 20.3568C20.9376 20.4458 21.0934 20.4317 21.2899 20.3611C21.3175 20.3509 21.345 20.3404 21.3722 20.3293L21.3893 20.3223C21.4342 20.3032 21.4818 20.2819 21.5304 20.2588C21.5425 20.253 21.5548 20.2475 21.5671 20.2411C21.8074 20.1236 22.0796 19.9654 22.3498 19.8215C22.4578 19.7631 22.5674 19.7077 22.6784 19.6551C22.9342 19.5348 23.1747 19.4494 23.368 19.4494C23.4588 19.4494 23.5388 19.468 23.6056 19.5107L23.6168 19.5181C23.6587 19.5476 23.6939 19.5855 23.7201 19.6294C23.7252 19.6378 23.7303 19.6467 23.7352 19.6559C23.8307 19.8373 23.7507 20.0251 23.5636 20.2092C23.3839 20.3861 23.1045 20.5594 22.787 20.7198C22.7634 20.7317 22.7398 20.7437 22.7158 20.7553C21.7706 21.2195 20.5328 21.5691 20.5156 21.5735C20.1858 21.659 19.7141 21.7712 19.1826 21.8552L19.104 21.8675L19.0911 21.8694C19.0316 21.8784 18.972 21.8868 18.9122 21.8946C18.8516 21.9027 18.7903 21.9101 18.7287 21.9171L18.7174 21.9183C18.494 21.944 18.2697 21.9611 18.0449 21.9693H18.0416C17.9603 21.9722 17.879 21.9737 17.7977 21.9737H17.7039C17.5799 21.972 17.4562 21.9664 17.3325 21.9568C17.3296 21.9568 17.3265 21.9568 17.3236 21.9561C17.2793 21.9527 17.2351 21.9486 17.1909 21.9437C17.1451 21.9388 17.0994 21.9332 17.0539 21.9271C17.0239 21.9231 16.994 21.9186 16.9641 21.9137C16.9337 21.9088 16.9034 21.9037 16.8731 21.8985L16.8318 21.8907L16.8287 21.8901C16.7851 21.8818 16.7418 21.8726 16.6986 21.8626C16.6735 21.8569 16.6486 21.8514 16.6238 21.8446L16.6089 21.8409C16.5966 21.8378 16.5847 21.8346 16.5725 21.8313L16.5658 21.8296L16.5272 21.8183C16.5131 21.8144 16.4991 21.8101 16.485 21.806L16.4801 21.8046L16.4436 21.7934C16.4298 21.7891 16.416 21.7846 16.4023 21.7801L16.3686 21.7689L16.3439 21.7603C16.3201 21.7519 16.2963 21.7432 16.2729 21.7342L16.2505 21.7254L16.2321 21.7181C16.1964 21.7038 16.161 21.6889 16.126 21.6732L16.1028 21.6619L16.0989 21.6601C16.0906 21.6562 16.0824 21.6523 16.0742 21.6489C16.058 21.6412 16.0419 21.6331 16.026 21.625L16.0211 21.6226L15.998 21.6104C15.9569 21.5889 15.9168 21.5661 15.8773 21.5419L15.8558 21.5286C15.845 21.5219 15.8342 21.515 15.8236 21.508L15.7955 21.4894L15.7653 21.4686L15.7472 21.4556C15.7281 21.4421 15.7094 21.428 15.6911 21.4136L15.6618 21.3911C15.6501 21.3817 15.6386 21.3722 15.6272 21.3625C15.6175 21.3546 15.6081 21.3463 15.5987 21.338L15.5979 21.3374C15.5878 21.3285 15.5778 21.3196 15.5679 21.3104C15.5581 21.3015 15.5484 21.2925 15.5388 21.2833L15.5377 21.2822C15.5276 21.2726 15.5178 21.263 15.5082 21.253C15.4985 21.2432 15.4886 21.2335 15.4792 21.2234C15.4698 21.2135 15.4601 21.2033 15.4508 21.1929C15.4415 21.1826 15.433 21.1732 15.4242 21.163L15.4213 21.1597C15.4128 21.1499 15.4044 21.1399 15.3961 21.1298C15.3781 21.1083 15.3607 21.0863 15.3439 21.0639C15.3269 21.0413 15.3104 21.0182 15.2942 20.9947L15.2787 20.9716C15.2581 20.9415 15.2381 20.9111 15.2186 20.8802C15.204 20.858 15.1899 20.8357 15.1761 20.813C15.1671 20.7988 15.1586 20.7845 15.1501 20.7704L15.1466 20.7646C15.1384 20.7508 15.1304 20.7373 15.1226 20.7236C15.1181 20.7162 15.1138 20.7088 15.1098 20.7011C15.1056 20.6933 15.1009 20.6854 15.0965 20.6775L15.0893 20.6651L15.0849 20.6571C15.0765 20.642 15.0682 20.6268 15.0602 20.6115C15.0564 20.6047 15.0528 20.5979 15.0489 20.5914L15.0377 20.5697L15.0264 20.5482C14.9982 20.4917 14.9715 20.4345 14.9463 20.3765L14.9374 20.3553C14.9317 20.3411 14.9263 20.3271 14.9205 20.3131C14.9177 20.3064 14.915 20.2997 14.9126 20.2929C14.8991 20.2582 14.8866 20.223 14.8751 20.1876C14.8709 20.1749 14.8669 20.1625 14.8631 20.15C14.8541 20.1215 14.8459 20.0927 14.8386 20.0637C14.8297 20.03 14.8218 19.9959 14.8152 19.9617C14.8138 19.9548 14.8124 19.9479 14.8113 19.9412C14.8048 19.9077 14.7995 19.8739 14.7953 19.84C14.7943 19.8334 14.7936 19.8267 14.7928 19.8201L14.7907 19.7997C14.7879 19.7731 14.7858 19.7464 14.7845 19.7197C14.7845 19.7129 14.7839 19.7061 14.7837 19.6996C14.783 19.6863 14.7828 19.673 14.7827 19.6597C14.7756 19.1233 15.047 18.6077 15.6273 18.0276C16.661 16.9949 17.2627 15.4838 17.2627 15.4838C17.2627 15.4838 17.2789 15.4204 17.3126 15.3291C17.3172 15.3165 17.3221 15.3034 17.3276 15.2897C17.3472 15.2386 17.3693 15.1884 17.3938 15.1395L17.3987 15.1301C17.4195 15.0884 17.4424 15.0477 17.467 15.0082C17.4727 14.999 17.4783 14.99 17.4847 14.9808C17.5031 14.9536 17.5226 14.927 17.543 14.9012C17.5542 14.8873 17.5664 14.8735 17.5785 14.8601C17.5834 14.8548 17.5882 14.8495 17.5934 14.8445C17.6532 14.7826 17.7216 14.7322 17.7991 14.7053L17.8089 14.702C17.8154 14.6999 17.8219 14.6979 17.8286 14.696C17.8362 14.694 17.8439 14.6922 17.8518 14.6906L17.8554 14.6899C17.8718 14.6866 17.8883 14.6845 17.905 14.6833H17.9064C17.9151 14.6833 17.9239 14.6825 17.9328 14.6825C17.9439 14.6825 17.9544 14.6825 17.9653 14.6836C17.9766 14.6846 17.9878 14.6858 17.999 14.6876C18.0922 14.7024 18.1808 14.7579 18.2571 14.8435C18.2861 14.8761 18.3122 14.9113 18.3351 14.9484C18.3501 14.9725 18.3643 14.998 18.3777 15.0249C18.3831 15.0361 18.3883 15.0463 18.3933 15.0574C18.4064 15.0858 18.4182 15.1146 18.4285 15.1441C18.4529 15.2132 18.4714 15.2842 18.4836 15.3565C18.4941 15.4199 18.5004 15.4839 18.5024 15.5481C18.5034 15.5823 18.5034 15.6171 18.5024 15.6521C18.4956 15.815 18.4622 15.9758 18.4036 16.1281C18.3983 16.142 18.3924 16.1561 18.3868 16.1701C18.3752 16.1985 18.3626 16.2264 18.3489 16.2536C18.3387 16.2743 18.328 16.2952 18.3165 16.3159C18.309 16.3297 18.3011 16.3435 18.2931 16.3573C18.2729 16.3917 18.2511 16.4258 18.2276 16.4598L18.2134 16.4802C18.158 16.5575 18.0962 16.6301 18.0287 16.6971C17.9621 16.7637 17.8908 16.8254 17.8154 16.8816C17.7398 16.9376 17.6689 16.9996 17.6034 17.067C17.4147 17.2649 17.3708 17.4397 17.4132 17.5721C17.42 17.5929 17.4289 17.6131 17.4397 17.6322C17.4524 17.6541 17.4675 17.6742 17.4845 17.6925L17.4912 17.6994L17.498 17.7062C17.5047 17.7127 17.5119 17.7191 17.5196 17.7254L17.5271 17.7314C17.5453 17.7454 17.5646 17.758 17.5848 17.769C17.5907 17.7722 17.596 17.7753 17.6026 17.7783C17.6245 17.789 17.647 17.7982 17.6701 17.8056C17.6765 17.8077 17.6829 17.8096 17.6894 17.8116L17.6975 17.8137L17.7088 17.8167L17.7185 17.8191L17.729 17.8214L17.7395 17.8235L17.7494 17.8252C17.7567 17.8264 17.7642 17.8277 17.7717 17.8285L17.7789 17.8297L17.7919 17.8309L17.8 17.8318L17.8131 17.8327H17.8209L17.8347 17.8334H17.8782L17.8906 17.8327L17.9049 17.8318L17.9224 17.8302L17.9387 17.8283C17.9424 17.8283 17.9462 17.8273 17.95 17.8265C18.0002 17.8193 18.0494 17.8059 18.0965 17.7869L18.1164 17.7785C18.1276 17.7736 18.1389 17.7684 18.1492 17.7629C18.1713 17.7519 18.1927 17.7393 18.2133 17.7256C18.2421 17.7068 18.2692 17.6857 18.2945 17.6625C18.3006 17.6571 18.3064 17.6513 18.3122 17.6458C18.3151 17.643 18.3179 17.6404 18.3206 17.6374C18.3262 17.6317 18.3318 17.6262 18.3373 17.6201C18.3775 17.5759 18.4123 17.5272 18.4409 17.4748C18.6865 17.0281 18.944 16.588 19.213 16.1551L19.2499 16.096L19.2872 16.0368C19.3057 16.0068 19.3246 15.9773 19.3433 15.948L19.3621 15.9186C19.4246 15.8207 19.4881 15.7234 19.5528 15.6269L19.591 15.5696C19.6679 15.4558 19.7444 15.3451 19.8204 15.2399L19.8582 15.1878C19.9407 15.074 20.0267 14.9625 20.116 14.8538L20.1514 14.8114C20.1573 14.8043 20.1627 14.7973 20.1691 14.7905C20.1807 14.7767 20.1924 14.7633 20.2038 14.7502C20.2096 14.7436 20.215 14.7371 20.2212 14.7305L20.2548 14.6926L20.2716 14.6742C20.2886 14.656 20.3051 14.6385 20.3215 14.6218C20.3328 14.6105 20.3432 14.5994 20.354 14.5888C20.4176 14.5238 20.4878 14.4654 20.5635 14.4148L20.581 14.4035C20.5979 14.3922 20.6153 14.3817 20.6331 14.3722C20.9299 14.2037 21.1755 14.1913 21.317 14.3327C21.4026 14.4184 21.45 14.5603 21.4474 14.7579C21.4474 14.7666 21.4474 14.7753 21.4468 14.7844V14.794C21.4468 14.8031 21.446 14.8121 21.4453 14.8213C21.4453 14.8326 21.444 14.8438 21.4429 14.855C21.4417 14.8662 21.4411 14.8748 21.44 14.8848C21.44 14.8876 21.4395 14.8904 21.439 14.8935C21.4382 14.9021 21.4371 14.911 21.4358 14.9199C21.4358 14.9226 21.4358 14.9253 21.4348 14.9281C21.4335 14.94 21.4317 14.9518 21.4297 14.9636C21.4283 14.9749 21.4264 14.9855 21.4244 14.9965L21.4212 15.0152C21.4179 15.033 21.4138 15.0506 21.4086 15.0679C21.3988 15.1004 21.387 15.1322 21.3731 15.1631C21.3536 15.2055 21.3322 15.2468 21.3086 15.287C21.2955 15.3093 21.2821 15.3313 21.2681 15.353C21.2538 15.3755 21.2388 15.3982 21.2232 15.4212C21.1835 15.4779 21.1424 15.5335 21.0996 15.5878L21.08 15.6126C21.0102 15.6996 20.9381 15.7848 20.8638 15.868L20.8404 15.8944C20.8087 15.9296 20.7766 15.9652 20.7437 16.0008L20.719 16.0277C20.7025 16.0456 20.6853 16.0636 20.6688 16.0817C20.6523 16.0996 20.6351 16.1178 20.6178 16.136L20.5662 16.1904L20.5139 16.2451L20.4612 16.2998C20.4258 16.3365 20.3902 16.3731 20.3545 16.4098C19.8455 16.9318 19.3092 17.4521 19.1277 17.7765C19.1156 17.7975 19.1046 17.8194 19.0949 17.8416C19.069 17.9006 19.0582 17.9511 19.0656 17.9918C19.068 18.0053 19.0726 18.0181 19.0795 18.0299C19.0897 18.0476 19.1021 18.0639 19.1166 18.0785C19.1232 18.085 19.1303 18.091 19.1377 18.0965C19.1751 18.1231 19.2201 18.1368 19.2661 18.1356H19.2804L19.2951 18.1344L19.3097 18.1328L19.3219 18.1311C19.3236 18.1308 19.3253 18.1305 19.3269 18.13L19.3381 18.1279L19.341 18.1273L19.3534 18.1246L19.3578 18.1235C19.3622 18.1224 19.3665 18.1213 19.3709 18.12C19.3753 18.1188 19.3813 18.1171 19.3866 18.1154C19.4087 18.1087 19.4303 18.1008 19.4515 18.0918C19.4626 18.0872 19.4736 18.0823 19.4844 18.0771C19.49 18.0746 19.4956 18.0719 19.5009 18.0692L19.5177 18.0609C19.5579 18.04 19.5971 18.0173 19.6352 17.993L19.6519 17.9817C19.6576 17.9782 19.6632 17.9745 19.6686 17.9705L19.6853 17.9593L19.6942 17.9532L19.7183 17.9362C19.7408 17.9208 19.7618 17.9049 19.783 17.8887L19.7849 17.8872L19.8186 17.8611C19.8647 17.8247 19.9084 17.788 19.948 17.7535L19.9744 17.7304L19.9768 17.7281L19.9906 17.716C20.023 17.6868 20.0518 17.6597 20.0758 17.6374L20.0857 17.6277C20.0944 17.6195 20.1023 17.6119 20.1095 17.6054L20.1235 17.5914L20.1285 17.5865L20.1299 17.5852L20.1446 17.5705L20.1539 17.5608L20.155 17.5599L20.1594 17.5559L20.1649 17.5509L20.1667 17.5493L20.1713 17.545L20.1969 17.5225L20.2113 17.5097C20.2189 17.5031 20.2263 17.4963 20.2337 17.4894L20.2508 17.4742C20.2539 17.4717 20.2569 17.4689 20.2601 17.4662L20.278 17.4505L20.3044 17.4272L20.3184 17.4151C20.373 17.3676 20.4394 17.3103 20.5158 17.2456L20.547 17.2191L20.5986 17.1758L20.6515 17.1318C20.7205 17.0744 20.7948 17.0135 20.8734 16.9504L20.925 16.909C20.9689 16.8739 21.014 16.8383 21.0597 16.8024C21.0781 16.788 21.0968 16.7735 21.1159 16.7592C21.1626 16.7229 21.2095 16.6869 21.2568 16.6514C21.3645 16.5701 21.4756 16.4886 21.5881 16.4093L21.6363 16.3756C21.6701 16.3524 21.7037 16.3291 21.7373 16.3063L21.7679 16.2857C21.828 16.245 21.889 16.2052 21.9505 16.1664L21.981 16.1472L22.0112 16.1283C22.0416 16.1095 22.0717 16.0911 22.1017 16.0731L22.1317 16.0552L22.1917 16.0203L22.2506 15.9865L22.2625 15.98L22.3091 15.9544C22.3286 15.9438 22.3479 15.9337 22.3672 15.9237L22.396 15.9089L22.424 15.8949C22.4337 15.8902 22.4434 15.8853 22.4529 15.8807C22.516 15.8496 22.5802 15.8209 22.6455 15.7948C22.6632 15.7873 22.6808 15.7805 22.6982 15.7746L22.7497 15.7565C22.7651 15.7514 22.7802 15.7465 22.7946 15.7421L22.7996 15.7406C22.8074 15.7381 22.8152 15.7358 22.8229 15.7338L22.8251 15.7332C22.8412 15.7286 22.8571 15.7245 22.8728 15.7208H22.874C22.9184 15.7101 22.9636 15.7024 23.0091 15.6978C23.0301 15.6957 23.0511 15.6945 23.0722 15.6947H23.0827C23.0968 15.6947 23.1103 15.6955 23.1237 15.6969C23.1299 15.6969 23.136 15.6982 23.1421 15.6989H23.1446C23.1506 15.6997 23.1566 15.7006 23.1627 15.7019C23.1686 15.7031 23.1746 15.7041 23.1804 15.7055H23.1822C23.1881 15.7067 23.1934 15.7082 23.1996 15.71C23.2314 15.7189 23.2618 15.7327 23.2897 15.7508C23.3034 15.7597 23.3162 15.7697 23.328 15.7809L23.3314 15.7842C23.3336 15.7862 23.3357 15.7883 23.3378 15.7904L23.3439 15.7971C23.3944 15.8499 23.436 15.9106 23.4674 15.9766L23.4722 15.9879C23.4829 16.013 23.4913 16.039 23.4973 16.0655C23.5151 16.1465 23.5082 16.2311 23.4775 16.3083C23.4658 16.3395 23.4516 16.3695 23.4349 16.3981C23.3959 16.4639 23.3496 16.525 23.297 16.5804L23.2858 16.5923C23.2691 16.6098 23.2518 16.6274 23.2336 16.645C23.2255 16.6529 23.2171 16.6607 23.2087 16.6686L23.183 16.6923L23.1696 16.7042C23.1372 16.7331 23.1039 16.7611 23.0701 16.7882C23.0497 16.8048 23.0291 16.821 23.0083 16.8369C22.9347 16.8932 22.8598 16.9474 22.7835 16.9997C22.7374 17.0314 22.6909 17.0624 22.6441 17.093C22.5288 17.1687 22.4122 17.2425 22.2944 17.3143C22.0474 17.4662 21.7736 17.6286 21.4818 17.8052L21.4062 17.851C21.3235 17.9015 21.2454 17.9497 21.1719 17.9956L21.1348 18.0188L21.0648 18.0638C21.0184 18.0935 20.972 18.1235 20.9257 18.1535L20.8884 18.1781C20.8702 18.1899 20.8522 18.202 20.8341 18.214L20.8164 18.2253L20.7622 18.2618L20.7334 18.2816L20.6998 18.3049L20.6685 18.3266C20.6162 18.3636 20.5675 18.3989 20.5227 18.4324L20.5058 18.4452C20.4795 18.4652 20.4534 18.4855 20.4277 18.5062C20.3889 18.5375 20.3535 18.5674 20.3217 18.5961L20.3061 18.6103C20.2972 18.6185 20.2884 18.6266 20.28 18.6346C20.2743 18.6403 20.2689 18.6459 20.2628 18.6513L20.2548 18.6594C20.2369 18.6775 20.2193 18.6959 20.2023 18.7149L20.1941 18.7244C20.1756 18.7457 20.1595 18.7662 20.1455 18.7862L20.1392 18.7951C20.1282 18.8111 20.118 18.8277 20.1088 18.8448C20.1064 18.849 20.1043 18.8533 20.1022 18.8576L20.096 18.8704L20.0919 18.8797L20.0892 18.8859L20.0871 18.8916L20.0842 18.8992C20.0764 18.9205 20.071 18.9426 20.0679 18.9649L20.0669 18.9727L20.0661 18.98V19.0195C20.0661 19.0228 20.0661 19.026 20.067 19.0295L20.0677 19.0356C20.0677 19.0388 20.0684 19.042 20.0689 19.0455C20.0694 19.0487 20.0703 19.0546 20.0713 19.0593V19.0599C20.0722 19.0643 20.073 19.0686 20.0742 19.073C20.0753 19.0774 20.0764 19.0824 20.0778 19.0869C20.0802 19.0958 20.0832 19.1046 20.0864 19.1134C20.0884 19.1187 20.0902 19.1238 20.0924 19.129C20.0924 19.13 20.0931 19.1311 20.0936 19.1321L20.0982 19.1423L20.1044 19.1562C20.1112 19.1706 20.1186 19.1847 20.1266 19.1984L20.1349 19.2127L20.1435 19.227C20.145 19.2294 20.1467 19.2316 20.1486 19.2338L20.1514 19.2367L20.1545 19.2395L20.1578 19.242C20.1625 19.2454 20.1677 19.2481 20.1731 19.25C20.176 19.251 20.179 19.2517 20.182 19.2525C20.2544 19.2688 20.4033 19.2089 20.6011 19.1045C20.6123 19.0984 20.6246 19.0922 20.6365 19.0856L20.6968 19.0528L20.7261 19.0364C20.7471 19.0253 20.7684 19.0126 20.7903 19.0002L20.8301 18.9777C21.0915 18.8272 21.4038 18.6339 21.7267 18.4451C21.7569 18.4274 21.7873 18.4097 21.8177 18.3923L21.8787 18.3532C21.9495 18.3127 22.0207 18.2726 22.0921 18.2331C22.1821 18.1836 22.2727 18.1354 22.3642 18.0888L22.424 18.0585C22.4636 18.0389 22.5029 18.0198 22.5417 18.0013C22.6168 17.9656 22.6927 17.9317 22.7695 17.8997L22.8116 17.8826L22.8166 17.8806C23.0394 17.7924 23.2414 17.7379 23.4048 17.7379C23.4401 17.7375 23.4755 17.7406 23.5102 17.7466H23.5114C23.5225 17.7486 23.5327 17.7508 23.5431 17.7534H23.545C23.5717 17.7601 23.5977 17.7698 23.6223 17.7822C23.6568 17.8 23.6878 17.8238 23.7141 17.8524C23.7261 17.8657 23.7368 17.8801 23.7462 17.8954C23.7638 17.9224 23.7776 17.9517 23.7875 17.9823C23.7915 17.9942 23.795 18.0059 23.7987 18.0183C23.8252 18.1134 23.8225 18.2141 23.7911 18.3077Z"
        fill="#FF9D00" />
    <path fill-rule="evenodd" clip-rule="evenodd"
        d="M22.3104 11.4903V11.4287C22.3104 6.1751 18.0529 1.91626 12.7989 1.91626C7.54507 1.91626 3.28596 6.17535 3.28596 11.4287V11.4493C3.28571 11.463 3.28559 11.4767 3.28596 11.4903C3.28658 11.5108 3.28679 11.5313 3.28659 11.5517L3.28723 11.5969L3.28759 11.6131C3.28759 11.6206 3.28786 11.628 3.28811 11.6356C3.28849 11.6475 3.28872 11.6595 3.28872 11.6715L3.2901 11.7203L3.29211 11.7777L3.29274 11.7965L3.29525 11.8559V11.8587C3.29626 11.882 3.29752 11.9051 3.29865 11.9282L3.29877 11.9299C3.30002 11.9535 3.30129 11.9772 3.3028 12.001C3.30405 12.0228 3.30529 12.0446 3.30692 12.0665L3.30719 12.0704C3.30828 12.0891 3.30954 12.1079 3.31094 12.1266L3.31132 12.1316L3.31546 12.1859L3.31585 12.1894C3.3166 12.1999 3.31734 12.2105 3.31835 12.2206C3.32585 12.3111 3.3346 12.4016 3.34459 12.4919L3.34521 12.4975L3.35287 12.5639L3.36141 12.6336L3.36768 12.6809L3.37056 12.7031C3.37725 12.7543 3.3845 12.8054 3.39228 12.8564L3.39279 12.8598L3.40019 12.908C3.43602 13.1376 3.48041 13.3658 3.53324 13.5921L3.53388 13.5948L3.53789 13.6118L3.54931 13.6601L3.55634 13.6517C3.83249 13.3216 4.22863 13.1396 4.67185 13.1396C5.02708 13.1396 5.39148 13.2571 5.75675 13.4887C5.99901 13.6425 6.26688 13.9151 6.54252 14.2579C6.79758 13.9036 7.15507 13.6681 7.56402 13.6039C7.642 13.5916 7.72081 13.5854 7.79975 13.5853C8.73314 13.5853 9.29534 14.3953 9.50772 15.124C9.61266 15.3701 10.1184 16.4913 10.8811 17.2497C12.0404 18.4079 12.3305 19.603 11.7567 20.8827H11.7587C11.7977 20.8871 11.837 20.8911 11.8766 20.8947C11.9 20.897 11.9234 20.8992 11.947 20.9012L11.9553 20.902L12.0071 20.9064L12.0548 20.9102C12.1003 20.9137 12.1458 20.9169 12.1915 20.9198L12.2278 20.922L12.2565 20.9237L12.2744 20.9247L12.3305 20.9276L12.3458 20.9282L12.4046 20.9309L12.4702 20.9334L12.5228 20.9349L12.5316 20.9351C12.5427 20.9356 12.5539 20.936 12.5651 20.936L12.5771 20.9364C12.6512 20.9381 12.7251 20.939 12.7992 20.9389H12.8777L12.9338 20.9383C12.9477 20.9376 12.9613 20.9376 12.9753 20.9376H12.9971L13.0161 20.9371C13.0235 20.9369 13.0309 20.9366 13.0384 20.9366H13.0609L13.1049 20.9355L13.1712 20.9333L13.2441 20.93C13.2652 20.9292 13.2861 20.9281 13.3069 20.9271L13.3294 20.9257L13.3628 20.924L13.3823 20.9228L13.3972 20.9218L13.4646 20.9174L13.5318 20.9125L13.593 20.9076L13.6359 20.904L13.6831 20.8997C13.7619 20.8927 13.8405 20.8844 13.9191 20.875L13.9727 20.8686C13.4079 19.5943 13.7003 18.4044 14.8547 17.2508C15.6158 16.4904 16.1215 15.3692 16.2269 15.123C16.4394 14.3944 17.0013 13.5844 17.9349 13.5844C18.0139 13.5844 18.0928 13.5907 18.1708 13.603C18.5793 13.6673 18.9368 13.9028 19.1923 14.257C19.468 13.9143 19.7358 13.6415 19.9782 13.4876C20.3433 13.2562 20.7081 13.1387 21.0629 13.1387C21.454 13.1387 21.8085 13.2805 22.0763 13.5407C22.0812 13.5195 22.0859 13.4983 22.0906 13.477L22.1042 13.4135C22.1091 13.3902 22.114 13.367 22.1187 13.3438C22.127 13.3028 22.1353 13.2617 22.1432 13.2203C22.1514 13.1774 22.1594 13.1342 22.1669 13.091L22.1708 13.0677C22.1732 13.0538 22.1754 13.04 22.1781 13.0261C22.1823 13.0045 22.1858 12.9829 22.1894 12.9611L22.1907 12.9528L22.1996 12.8959L22.2084 12.8383V12.8378C22.2148 12.7953 22.2209 12.7527 22.2265 12.7102L22.2279 12.6996L22.2358 12.6396L22.2422 12.5884L22.2535 12.4875L22.2579 12.4469L22.259 12.4359C22.2614 12.4141 22.2637 12.3922 22.2657 12.3704V12.3686C22.2673 12.3513 22.2691 12.3338 22.2706 12.3164C22.2795 12.2175 22.287 12.1181 22.293 12.0183C22.2942 12.002 22.295 11.9855 22.296 11.9691V11.9683L22.2993 11.9067L22.3001 11.8929C22.3021 11.8512 22.3038 11.8095 22.3052 11.7679V11.7664L22.3058 11.75C22.3065 11.7364 22.307 11.7226 22.307 11.7087L22.3072 11.7032C22.3077 11.6903 22.3082 11.677 22.3082 11.6638L22.3086 11.6525C22.309 11.6393 22.3094 11.6263 22.3094 11.6131L22.3096 11.6019C22.31 11.5852 22.3104 11.5684 22.3104 11.5517V11.4903ZM10.4395 20.9931C11.1929 19.8884 11.1394 19.0592 10.1058 18.0262C9.07205 16.993 8.47041 15.4822 8.47041 15.4822C8.47041 15.4822 8.24586 14.6047 7.73373 14.6853C7.2216 14.7658 6.84591 16.0772 7.91825 16.8799C8.99046 17.6826 7.70486 18.2269 7.29214 17.4736C6.87942 16.7202 5.7526 14.7838 5.16842 14.4134C4.58424 14.043 4.1734 14.2506 4.3111 15.014C4.37951 15.393 5.01567 16.0398 5.61002 16.644C6.21303 17.2571 6.77297 17.8265 6.65322 18.0279C6.41561 18.428 5.57876 17.5578 5.57876 17.5578C5.57876 17.5578 2.95835 15.1732 2.38798 15.7946C1.86204 16.3674 2.67304 16.8543 3.92275 17.6048C4.02894 17.6685 4.1384 17.7343 4.25049 17.8021C5.68031 18.6677 5.79151 18.896 5.58854 19.2235C5.5136 19.3445 5.03499 19.0572 4.44629 18.7038C3.44274 18.1012 2.1195 17.3068 1.93259 18.0179C1.77092 18.6333 2.74446 19.0104 3.62738 19.3524C4.36294 19.6374 5.03575 19.8979 4.93672 20.2517C4.83417 20.6184 4.27823 20.3125 3.67058 19.9781C2.98836 19.6027 2.24088 19.1915 1.99623 19.6556C1.53394 20.533 5.18575 21.5659 5.21588 21.5735C6.39579 21.8796 9.39224 22.528 10.4395 20.9931ZM15.2928 20.9931C14.5394 19.8884 14.5929 19.0592 15.6266 18.0262C16.6602 16.993 17.2619 15.4822 17.2619 15.4822C17.2619 15.4822 17.4864 14.6047 17.9985 14.6853C18.5107 14.7658 18.8864 16.0772 17.8142 16.8799C16.7418 17.6826 18.0274 18.2269 18.4401 17.4736C18.853 16.7202 19.979 14.7838 20.5632 14.4134C21.1474 14.043 21.5585 14.2506 21.4207 15.014C21.3524 15.393 20.7161 16.0398 20.1218 16.6442C19.5187 17.2572 18.9588 17.8265 19.0784 18.0279C19.316 18.428 20.1535 17.5573 20.1535 17.5573C20.1535 17.5573 22.7738 15.1728 23.3444 15.7942C23.8702 16.3669 23.0592 16.8539 21.8094 17.6044C21.7001 17.67 21.5909 17.7358 21.4818 17.8017C20.052 18.6673 19.9408 18.8956 20.1436 19.223C20.2187 19.3441 20.6973 19.0567 21.2858 18.7033C22.2895 18.1008 23.6128 17.3063 23.7997 18.0175C23.9615 18.6329 22.9878 19.01 22.1049 19.352C21.3693 19.637 20.6965 19.8976 20.7954 20.2513C20.8979 20.6179 21.4537 20.312 22.0612 19.9776C22.7434 19.6022 23.491 19.1908 23.7355 19.6552C24.198 20.5331 20.5455 21.565 20.516 21.5725C19.3361 21.8796 16.3396 22.528 15.2928 20.9931Z"
        fill="#FFD21E" />
    <path fill-rule="evenodd" clip-rule="evenodd"
        d="M15.8882 8.83956C16.0366 8.89203 16.1469 9.0517 16.2519 9.2037C16.3937 9.40906 16.5258 9.60023 16.7283 9.49253C16.9673 9.36538 17.1633 9.17032 17.2913 8.93182C17.4195 8.69333 17.4741 8.42229 17.4482 8.15283C17.4289 7.95134 17.3651 7.75666 17.2614 7.58281C17.1578 7.40895 17.0168 7.26024 16.8488 7.14742C16.6808 7.03461 16.4897 6.96047 16.2896 6.93036C16.0894 6.90025 15.8851 6.91492 15.6913 6.9733C15.4975 7.03166 15.3191 7.13225 15.1689 7.26784C15.0186 7.40343 14.9002 7.57064 14.8224 7.75744C14.7446 7.94424 14.7091 8.14599 14.7185 8.34815C14.728 8.55036 14.7821 8.74781 14.8771 8.92655C14.971 9.10316 15.1794 9.01981 15.3993 8.93182C15.5717 8.86291 15.7513 8.79111 15.8882 8.83956ZM9.43952 8.83956C9.29115 8.89203 9.18082 9.05182 9.07588 9.2037C8.93404 9.40918 8.80187 9.60023 8.5994 9.49253C8.29884 9.33337 8.06834 9.06789 7.95281 8.74806C7.83729 8.42817 7.84504 8.07672 7.97453 7.76222C8.10402 7.44772 8.34598 7.19273 8.65325 7.04692C8.96053 6.90111 9.31109 6.87497 9.63659 6.97355C9.8958 7.0516 10.126 7.20473 10.2982 7.41357C10.4704 7.62243 10.5768 7.87763 10.604 8.14693C10.6311 8.41624 10.5778 8.68756 10.4507 8.92655C10.3567 9.10316 10.1483 9.01981 9.92843 8.93195C9.75596 8.86291 9.57659 8.79111 9.43952 8.83956ZM14.8906 14.7079C15.9127 13.9026 16.2881 12.5879 16.2881 11.778C16.2881 11.1379 15.8575 11.3393 15.168 11.6808L15.1291 11.7C14.4962 12.0134 13.6537 12.4308 12.7288 12.4308C11.8039 12.4308 10.9614 12.0134 10.3286 11.6998C9.61676 11.3472 9.17028 11.1261 9.17028 11.7782C9.17028 12.6136 9.56969 13.9855 10.666 14.7824C10.8107 14.4888 11.0144 14.2282 11.2645 14.0169C11.5144 13.8055 11.8054 13.6479 12.1189 13.5541C12.2284 13.5214 12.3411 13.7098 12.4564 13.9028C12.5678 14.0888 12.6816 14.2791 12.7974 14.2791C12.9208 14.2791 13.0419 14.0915 13.1603 13.9085C13.2839 13.7171 13.4045 13.5307 13.5211 13.568C14.1079 13.7564 14.5989 14.165 14.8906 14.7079Z"
        fill="#32343D" />
    <path
        d="M14.8903 14.7078C14.358 15.1273 13.6504 15.4086 12.729 15.4086C11.8632 15.4086 11.1862 15.1603 10.666 14.7824C10.8107 14.4888 11.0145 14.2281 11.2645 14.0168C11.5144 13.8054 11.8054 13.6479 12.1189 13.554C12.3338 13.4899 12.5617 14.279 12.7974 14.279C13.0497 14.279 13.2928 13.495 13.5211 13.5679C14.1078 13.7565 14.5986 14.165 14.8903 14.7078Z"
        fill="#FF323D" />
    <path fill-rule="evenodd" clip-rule="evenodd"
        d="M6.99536 9.97852C6.87375 10.0599 6.73393 10.1099 6.58831 10.1243C6.44269 10.1387 6.29578 10.1168 6.16063 10.0607C6.0526 10.0162 5.95443 9.95065 5.87178 9.86793C5.78913 9.78534 5.72362 9.68718 5.679 9.57911C5.62302 9.44392 5.60124 9.29706 5.61564 9.15145C5.63003 9.00585 5.68012 8.86602 5.76147 8.74438C5.85923 8.59803 5.99818 8.48396 6.16078 8.41661C6.32339 8.34925 6.50231 8.33163 6.67491 8.366C6.84753 8.40035 7.00606 8.48514 7.13047 8.60957C7.25487 8.73409 7.33956 8.89275 7.37381 9.06534C7.40811 9.23794 7.39046 9.41681 7.32313 9.57936C7.25579 9.74191 7.14164 9.88074 6.99536 9.97852ZM19.7249 9.97852C19.6033 10.0599 19.4635 10.1099 19.3179 10.1243C19.1721 10.1387 19.0253 10.1168 18.8901 10.0607C18.782 10.0161 18.6839 9.95065 18.6013 9.86793C18.5187 9.78534 18.4531 9.68718 18.4085 9.57911C18.3526 9.44392 18.3309 9.29706 18.3452 9.15145C18.3596 9.00585 18.4097 8.86602 18.4909 8.74438C18.564 8.63493 18.6605 8.54317 18.7734 8.47549C18.8862 8.40785 19.0126 8.36609 19.1435 8.35322C19.2746 8.34034 19.4067 8.35668 19.5305 8.40106C19.6544 8.44544 19.7669 8.51674 19.8599 8.60982C19.9844 8.73422 20.0691 8.89275 20.1034 9.06534C20.1378 9.23794 20.1201 9.41681 20.0527 9.57936C19.9853 9.74191 19.8713 9.88074 19.7249 9.97852Z"
        fill="#FFAD03" />
</svg>
    