<svg width="28" height="29" viewBox="0 0 28 29" fill="none" xmlns="http://www.w3.org/2000/svg">
<rect y="0.5" width="28" height="28" rx="4" fill="#E5E7EB"/>
<path d="M14.1998 14.6463C14.5556 14.3384 14.8409 13.9576 15.0364 13.5297C15.232 13.1018 15.3332 12.6368 15.3332 12.1663C15.3332 11.2823 14.982 10.4344 14.3569 9.80932C13.7317 9.1842 12.8839 8.83301 11.9998 8.83301C11.1158 8.83301 10.2679 9.1842 9.64281 9.80932C9.01769 10.4344 8.6665 11.2823 8.6665 12.1663C8.6665 12.6368 8.76771 13.1018 8.96325 13.5297C9.1588 13.9576 9.44412 14.3384 9.79984 14.6463C8.8666 15.0689 8.07481 15.7514 7.51916 16.612C6.9635 17.4727 6.66749 18.4752 6.6665 19.4997C6.6665 19.6765 6.73674 19.8461 6.86177 19.9711C6.98679 20.0961 7.15636 20.1663 7.33317 20.1663C7.50998 20.1663 7.67955 20.0961 7.80458 19.9711C7.9296 19.8461 7.99984 19.6765 7.99984 19.4997C7.99984 18.4388 8.42126 17.4214 9.17141 16.6712C9.92156 15.9211 10.939 15.4997 11.9998 15.4997C13.0607 15.4997 14.0781 15.9211 14.8283 16.6712C15.5784 17.4214 15.9998 18.4388 15.9998 19.4997C15.9998 19.6765 16.0701 19.8461 16.1951 19.9711C16.3201 20.0961 16.4897 20.1663 16.6665 20.1663C16.8433 20.1663 17.0129 20.0961 17.1379 19.9711C17.2629 19.8461 17.3332 19.6765 17.3332 19.4997C17.3322 18.4752 17.0362 17.4727 16.4805 16.612C15.9249 15.7514 15.1331 15.0689 14.1998 14.6463ZM11.9998 14.1663C11.6043 14.1663 11.2176 14.049 10.8887 13.8293C10.5598 13.6095 10.3035 13.2972 10.1521 12.9317C10.0007 12.5663 9.9611 12.1641 10.0383 11.7762C10.1154 11.3882 10.3059 11.0318 10.5856 10.7521C10.8653 10.4724 11.2217 10.2819 11.6097 10.2048C11.9976 10.1276 12.3998 10.1672 12.7652 10.3186C13.1307 10.47 13.443 10.7263 13.6628 11.0552C13.8825 11.3841 13.9998 11.7708 13.9998 12.1663C13.9998 12.6968 13.7891 13.2055 13.4141 13.5806C13.039 13.9556 12.5303 14.1663 11.9998 14.1663ZM18.4932 14.3797C18.9198 13.8992 19.1985 13.3057 19.2957 12.6706C19.3929 12.0354 19.3045 11.3857 19.041 10.7997C18.7776 10.2136 18.3504 9.7162 17.8108 9.36729C17.2713 9.01837 16.6424 8.83284 15.9998 8.83301C15.823 8.83301 15.6535 8.90325 15.5284 9.02827C15.4034 9.15329 15.3332 9.32286 15.3332 9.49967C15.3332 9.67649 15.4034 9.84605 15.5284 9.97108C15.6535 10.0961 15.823 10.1663 15.9998 10.1663C16.5303 10.1663 17.039 10.3771 17.4141 10.7521C17.7891 11.1272 17.9998 11.6359 17.9998 12.1663C17.9989 12.5165 17.906 12.8603 17.7305 13.1633C17.5551 13.4663 17.3031 13.7179 16.9998 13.893C16.901 13.95 16.8184 14.0315 16.7601 14.1295C16.7017 14.2276 16.6695 14.3389 16.6665 14.453C16.6637 14.5662 16.6898 14.6782 16.7423 14.7785C16.7948 14.8788 16.8719 14.9641 16.9665 15.0263L17.2265 15.1997L17.3132 15.2463C18.1168 15.6275 18.7947 16.2303 19.2672 16.9839C19.7396 17.7374 19.9869 18.6103 19.9798 19.4997C19.9798 19.6765 20.0501 19.8461 20.1751 19.9711C20.3001 20.0961 20.4697 20.1663 20.6465 20.1663C20.8233 20.1663 20.9929 20.0961 21.1179 19.9711C21.2429 19.8461 21.3132 19.6765 21.3132 19.4997C21.3186 18.4766 21.0624 17.4692 20.5688 16.573C20.0752 15.6769 19.3607 14.9219 18.4932 14.3797Z" fill="#4B5563"/>
</svg>
