<svg width="16" height="16" viewBox="0 0 16 16" fill="none" xmlns="http://www.w3.org/2000/svg">
<path d="M5.80012 6.66663C5.92503 6.79079 6.094 6.86049 6.27012 6.86049C6.44625 6.86049 6.61521 6.79079 6.74012 6.66663C6.86429 6.54172 6.93398 6.37275 6.93398 6.19663C6.93398 6.0205 6.86429 5.85154 6.74012 5.72663L2.56012 1.52663C2.43459 1.40109 2.26432 1.33057 2.08679 1.33057C1.90925 1.33057 1.73899 1.40109 1.61346 1.52663C1.48792 1.65216 1.41739 1.82243 1.41739 1.99996C1.41739 2.1775 1.48792 2.34776 1.61346 2.47329L5.80012 6.66663ZM14.0001 9.33329C13.8233 9.33329 13.6537 9.40353 13.5287 9.52856C13.4037 9.65358 13.3335 9.82315 13.3335 9.99996V12.3933L10.2935 9.33329C10.1662 9.20599 9.99349 9.13447 9.81346 9.13447C9.63342 9.13447 9.46076 9.20599 9.33346 9.33329C9.20615 9.4606 9.13463 9.63326 9.13463 9.81329C9.13463 9.99333 9.20615 10.166 9.33346 10.2933L12.3935 13.3333H10.0001C9.82331 13.3333 9.65374 13.4035 9.52872 13.5286C9.40369 13.6536 9.33346 13.8231 9.33346 14C9.33346 14.1768 9.40369 14.3463 9.52872 14.4714C9.65374 14.5964 9.82331 14.6666 10.0001 14.6666H14.0001C14.0872 14.6656 14.1733 14.6475 14.2535 14.6133C14.4164 14.5456 14.5458 14.4162 14.6135 14.2533C14.6476 14.1731 14.6657 14.0871 14.6668 14V9.99996C14.6668 9.82315 14.5966 9.65358 14.4715 9.52856C14.3465 9.40353 14.1769 9.33329 14.0001 9.33329ZM14.6135 1.74663C14.5458 1.58373 14.4164 1.45428 14.2535 1.38663C14.1733 1.35247 14.0872 1.33435 14.0001 1.33329H10.0001C9.82331 1.33329 9.65374 1.40353 9.52872 1.52856C9.40369 1.65358 9.33346 1.82315 9.33346 1.99996C9.33346 2.17677 9.40369 2.34634 9.52872 2.47137C9.65374 2.59639 9.82331 2.66663 10.0001 2.66663H12.3935L1.52679 13.5266C1.4643 13.5886 1.41471 13.6623 1.38086 13.7436C1.34702 13.8248 1.32959 13.912 1.32959 14C1.32959 14.088 1.34702 14.1751 1.38086 14.2563C1.41471 14.3376 1.4643 14.4113 1.52679 14.4733C1.58876 14.5358 1.6625 14.5854 1.74374 14.6192C1.82498 14.6531 1.91211 14.6705 2.00012 14.6705C2.08813 14.6705 2.17527 14.6531 2.25651 14.6192C2.33775 14.5854 2.41148 14.5358 2.47346 14.4733L13.3335 3.60663V5.99996C13.3335 6.17677 13.4037 6.34634 13.5287 6.47137C13.6537 6.59639 13.8233 6.66663 14.0001 6.66663C14.1769 6.66663 14.3465 6.59639 14.4715 6.47137C14.5966 6.34634 14.6668 6.17677 14.6668 5.99996V1.99996C14.6657 1.91284 14.6476 1.82678 14.6135 1.74663Z" fill="black"/>
</svg>
