<svg width="22" height="22" viewBox="0 0 22 22" fill="none" xmlns="http://www.w3.org/2000/svg">
<path d="M19.8 2.63965H2.2C0.99 2.63965 0 3.62965 0 4.83965V17.1596C0 18.3696 0.99 19.3596 2.2 19.3596H19.8C21.01 19.3596 22 18.3696 22 17.1596V4.83965C22 3.62965 21.01 2.63965 19.8 2.63965ZM14.08 18.4796H2.2C1.474 18.4796 0.88 17.8856 0.88 17.1596V4.83965C0.88 4.11365 1.474 3.51965 2.2 3.51965H14.08V18.4796ZM21.12 17.1596C21.12 17.8856 20.526 18.4796 19.8 18.4796H14.96V3.51965H19.8C20.526 3.51965 21.12 4.11365 21.12 4.83965V17.1596Z" fill="#6B7280"/>
<path d="M2.6402 5.93957H3.0802C3.3222 5.93957 3.5202 5.74157 3.5202 5.49957C3.5202 5.25757 3.3222 5.05957 3.0802 5.05957H2.6402C2.3982 5.05957 2.2002 5.25757 2.2002 5.49957C2.2002 5.74157 2.3982 5.93957 2.6402 5.93957Z" fill="#6B7280"/>
<path d="M4.61969 5.93957H5.05969C5.30169 5.93957 5.49969 5.74157 5.49969 5.49957C5.49969 5.25757 5.30169 5.05957 5.05969 5.05957H4.61969C4.37769 5.05957 4.17969 5.25757 4.17969 5.49957C4.17969 5.74157 4.37769 5.93957 4.61969 5.93957Z" fill="#6B7280"/>
<path d="M6.60016 5.93957H7.04016C7.28216 5.93957 7.48016 5.74157 7.48016 5.49957C7.48016 5.25757 7.28216 5.05957 7.04016 5.05957H6.60016C6.35816 5.05957 6.16016 5.25757 6.16016 5.49957C6.16016 5.74157 6.35816 5.93957 6.60016 5.93957Z" fill="#6B7280"/>
<path d="M18.6997 6.37988H17.1597C16.9177 6.37988 16.7197 6.57788 16.7197 6.81988C16.7197 7.06188 16.9177 7.25988 17.1597 7.25988H18.6997C18.9417 7.25988 19.1397 7.06188 19.1397 6.81988C19.1397 6.57788 18.9417 6.37988 18.6997 6.37988Z" fill="#6B7280"/>
<path d="M18.6997 8.58008H17.1597C16.9177 8.58008 16.7197 8.77808 16.7197 9.02008C16.7197 9.26208 16.9177 9.46008 17.1597 9.46008H18.6997C18.9417 9.46008 19.1397 9.26208 19.1397 9.02008C19.1397 8.77808 18.9417 8.58008 18.6997 8.58008Z" fill="#6B7280"/>
<path d="M18.6997 10.7793H17.1597C16.9177 10.7793 16.7197 10.9773 16.7197 11.2193C16.7197 11.4613 16.9177 11.6593 17.1597 11.6593H18.6997C18.9417 11.6593 19.1397 11.4613 19.1397 11.2193C19.1397 10.9773 18.9417 10.7793 18.6997 10.7793Z" fill="#6B7280"/>
</svg>
