<svg width="68" height="28" viewBox="0 0 68 28" fill="none" xmlns="http://www.w3.org/2000/svg">
<path d="M27.0157 6.56975C26.0798 6.41763 25.3942 6.92314 24.8653 7.59949C23.7445 9.02943 23.3865 10.7426 23.1665 12.4978C23.3841 14.0448 22.6143 15.1845 21.6503 16.2657C21.0814 16.87 20.6438 17.5856 20.3651 18.3675C20.0864 19.1493 19.9727 19.9803 20.031 20.8083C20.0677 21.5222 20.1886 22.2292 20.3914 22.9146C20.4345 23.0209 20.4689 23.1304 20.4943 23.2423C20.513 23.3967 20.5973 23.6027 20.4241 23.6916C20.2135 23.7992 20.0802 23.5886 20.0029 23.4576C19.8119 23.133 19.6551 22.7895 19.535 22.4325C18.84 20.1296 18.9359 17.9086 20.4101 15.8936C20.7385 15.4661 21.0916 15.0582 21.4677 14.672C22.1697 13.9277 22.2844 13.3263 21.8024 12.4463C20.5832 10.2253 19.3361 8.01607 18.1006 5.80212C17.2886 4.34409 16.4626 2.89075 15.667 1.4257C15.4029 0.958785 15.0423 0.553496 14.6094 0.236816C13.547 0.637013 13.2873 1.14252 13.6126 2.20503C13.6809 2.44449 13.7653 2.67905 13.8653 2.90713C14.3496 3.98134 14.8457 5.05087 15.3324 6.12508C16.0016 7.60183 16.6849 9.07156 17.2395 10.5951C17.319 10.8151 17.5296 11.0889 17.1623 11.2738C16.7223 11.7629 16.3737 11.7887 15.9221 11.3487C15.2201 10.6677 14.7732 9.80642 14.2678 8.99199C12.9246 6.8108 11.6026 4.62727 10.3016 2.44141C9.988 1.91951 9.50598 1.70186 8.99587 1.49123C8.09967 1.90781 7.861 2.40396 8.11839 3.34243C8.25212 3.78059 8.43502 4.2022 8.6636 4.59919C10.1284 7.32801 11.6845 10.0054 13.2171 12.6944C13.3632 12.8779 13.4373 13.1084 13.4254 13.3427C13.1025 14.1243 12.3584 14.0588 11.9068 13.4971C10.9076 12.245 9.94121 10.9672 8.95375 9.70813C8.14413 8.68072 7.31579 7.66502 6.50384 6.64464C6.1758 6.23383 5.74227 5.91996 5.24963 5.73659C4.49851 6.10636 4.21772 6.71017 4.45171 7.49184C4.57736 7.88129 4.76631 8.24739 5.01096 8.57541C6.55999 10.8689 8.10747 13.1601 9.65339 15.449C9.80081 15.6643 10.0442 15.8772 9.86867 16.1955C9.5247 16.8298 8.87887 16.9561 8.33367 16.4296C7.63169 15.7579 6.99522 15.0464 6.35174 14.3233C5.5819 13.462 4.8378 12.575 4.082 11.6997C3.78483 11.3557 3.38002 11.2059 2.97287 11.0304C2.27089 11.3932 2.09773 11.7723 2.27089 12.4978C2.38042 12.8949 2.56467 13.2674 2.81375 13.5954C3.42682 14.466 4.03754 15.339 4.67166 16.1932C7.0116 19.355 9.35154 22.5121 12.0799 25.3649C13.9355 27.298 16.1701 28.1897 18.8447 27.9627C18.9428 27.9697 19.0413 27.9697 19.1395 27.9627C22.8109 27.628 26.1266 24.7026 26.9292 21.1009C27.223 19.6189 27.3439 18.1079 27.2895 16.5981C27.2684 14.6111 27.2895 12.6195 27.5984 10.6583C27.7796 9.74169 27.9108 8.81589 27.9915 7.88501C28.057 7.12675 27.7622 6.69144 27.0157 6.56975Z" fill="#FEC928"/>
<path d="M23.1712 12.4976C23.3888 14.0446 22.619 15.1843 21.6549 16.2655C21.0852 16.8694 20.6468 17.5849 20.3673 18.3667C20.0878 19.1485 19.9733 19.9798 20.031 20.8081C20.0676 21.522 20.1886 22.229 20.3914 22.9144C20.4345 23.0207 20.4689 23.1302 20.4943 23.242C20.513 23.3965 20.5973 23.6025 20.4241 23.6914C20.2135 23.799 20.0801 23.5884 20.0029 23.4574C19.8119 23.1328 19.6551 22.7892 19.5349 22.4323C18.84 20.1294 18.9359 17.9084 20.4101 15.8934C20.7384 15.4659 21.0916 15.0579 21.4677 14.6718C22.1697 13.9275 22.2844 13.3261 21.8023 12.4461C20.5832 10.2251 19.336 8.01587 18.1029 5.80191C17.2886 4.34389 16.4649 2.89054 15.667 1.4255C15.4029 0.95858 15.0423 0.553291 14.6094 0.236612C15.4962 0.0470449 15.9923 0.573619 16.3854 1.23593C17.2605 2.6963 18.1193 4.16836 18.9874 5.63107C20.2837 7.81538 21.5816 9.99968 22.8811 12.184C22.9583 12.2963 23.0074 12.4461 23.1712 12.4976Z" fill="#EDA703"/>
<path d="M18.8447 27.9625C18.8751 27.6395 19.1652 27.67 19.3618 27.6068C21.0231 27.0849 22.5464 26.3149 23.7749 25.0582C25.3317 23.4844 26.249 21.3886 26.3488 19.1769C26.4448 17.6838 26.3676 16.1953 26.4284 14.7069C26.4927 12.4986 26.9466 10.319 27.7692 8.26864C27.8338 8.1377 27.9081 8.01175 27.9915 7.89185C27.9108 8.82272 27.7796 9.74852 27.5984 10.6651C27.2848 12.6357 27.2684 14.618 27.2895 16.6049C27.3439 18.1147 27.223 19.6257 26.9292 21.1077C26.1266 24.7095 22.8109 27.6349 19.1395 27.9695C19.0412 27.9742 18.9427 27.9719 18.8447 27.9625Z" fill="#EDA807"/>
<path d="M17.1622 11.2502C16.7223 11.7393 16.3737 11.7651 15.9221 11.3251C15.2201 10.6441 14.7732 9.78282 14.2677 8.96838C12.9246 6.8028 11.6026 4.62707 10.3016 2.4412C9.988 1.91931 9.50597 1.70166 8.99586 1.49103C9.51065 1.16806 9.99502 1.29444 10.463 1.59634C10.8488 1.87602 11.1683 2.23716 11.399 2.65417C13.0073 5.19889 14.6133 7.74751 16.2169 10.3C16.4603 10.6745 16.7013 11.0747 17.1622 11.2502Z" fill="#EDA805"/>
<path d="M13.4254 13.3425C13.1025 14.1242 12.3584 14.0587 11.9068 13.497C10.9076 12.2449 9.94121 10.9671 8.95376 9.70801C8.14414 8.68061 7.3158 7.66491 6.50384 6.64452C6.17581 6.23372 5.74228 5.91984 5.24963 5.73647C5.95162 5.46266 6.62552 5.69201 7.25964 6.43857C7.85866 7.15471 8.42961 7.8849 9.03331 8.60572C10.1861 10.0099 11.3413 11.4141 12.4988 12.8183C12.7351 13.1085 12.9667 13.4268 13.4254 13.3425Z" fill="#EDA805"/>
<path d="M5.9984 21.6764C5.33928 21.4779 4.73152 21.1376 4.21771 20.6795C2.87982 19.4981 1.94672 17.9264 1.55018 16.186C1.47998 15.8865 1.57124 15.6875 1.84735 15.6103C2.12347 15.5331 2.21239 15.7437 2.29194 15.9567C3.05476 17.9974 4.28323 19.6731 6.12944 20.8714C6.24436 20.9207 6.33679 21.0111 6.38871 21.1249C6.44062 21.2387 6.44829 21.3677 6.41023 21.4869C6.35174 21.6811 6.18326 21.6881 5.9984 21.6764Z" fill="#B2BFC6"/>
<path d="M0.00582356 17.4405C-0.010556 17.2205 0.0479424 17.0333 0.284276 16.9725C0.586128 16.9069 0.682066 17.1456 0.752264 17.361C1.16328 18.4846 1.7675 19.5277 2.53764 20.4432C3.11893 21.1412 3.80393 21.7458 4.5687 22.2359C4.65483 22.2774 4.73085 22.3373 4.79147 22.4112C4.85209 22.4852 4.89585 22.5715 4.91969 22.6641C4.96415 22.952 4.6857 23.1322 4.33705 23.0058C3.33285 22.6399 2.45156 21.9993 1.79354 21.157C0.985591 20.1689 0.395516 19.0213 0.0619821 17.7892C0.0356685 17.6744 0.0169088 17.5579 0.00582356 17.4405Z" fill="#B2BFC6"/>
<path d="M20.0708 0.00268555C20.4263 0.100761 20.7588 0.268624 21.0489 0.496495C22.6588 1.62219 23.555 3.22298 24.0534 5.0812C24.1165 5.31523 24.154 5.56097 24.1984 5.80202C24.2163 5.85265 24.2232 5.90647 24.2189 5.95998C24.2145 6.01348 24.1989 6.06546 24.173 6.11251C24.1472 6.15956 24.1117 6.20062 24.0689 6.23302C24.0261 6.26542 23.977 6.28842 23.9247 6.30051C23.6579 6.37306 23.5386 6.20924 23.4707 5.97521C23.0923 4.66353 22.4559 3.44061 21.5988 2.37812C21.1094 1.7633 20.536 1.22047 19.8953 0.765633C19.8023 0.711974 19.7292 0.629582 19.687 0.530834C19.6448 0.432085 19.6358 0.32231 19.6613 0.217996C19.7011 0.0190678 19.8649 0.00268555 20.0708 0.00268555Z" fill="#B2BFC6"/>
<path d="M22.5769 7.10317C22.5963 7.20372 22.577 7.30792 22.5227 7.39478C22.4684 7.48163 22.3833 7.54469 22.2844 7.57124C22.0083 7.64613 21.8936 7.45422 21.8304 7.23891C21.5444 6.25071 21.113 5.31055 20.5505 4.44924C19.9752 3.55133 19.239 2.76743 18.379 2.13699C18.3254 2.09942 18.2753 2.05712 18.2293 2.01061C18.0842 1.85849 17.897 1.70169 18.0444 1.46532C18.1918 1.22894 18.4281 1.25469 18.6551 1.35298C19.4671 1.71487 20.1792 2.26815 20.7306 2.96547C21.674 4.12378 22.3041 5.50502 22.5605 6.97679C22.5675 7.0236 22.5745 7.07509 22.5769 7.10317Z" fill="#B2BFC6"/>
<path d="M9.86867 16.1931C9.5247 16.8273 8.87887 16.9537 8.33367 16.4271C7.63169 15.7554 6.99522 15.044 6.35174 14.3208C5.5819 13.4596 4.8378 12.5726 4.082 11.6973C3.78483 11.3533 3.38002 11.2035 2.97287 11.028C3.63039 10.6722 4.1639 10.7588 4.72548 11.3556C5.68252 12.3713 6.62083 13.4034 7.57553 14.4191C8.04104 14.9277 8.54144 15.4031 9.07309 15.842C9.29101 16.0456 9.57144 16.1693 9.86867 16.1931Z" fill="#EDA805"/>
<path d="M42.6705 8.36353H45.1023V16.4772C45.1023 17.2272 44.9337 17.8787 44.5966 18.4317C44.2633 18.9847 43.7992 19.4109 43.2045 19.7101C42.6099 20.0094 41.9186 20.159 41.1307 20.159C40.4299 20.159 39.7936 20.0359 39.2216 19.7897C38.6534 19.5397 38.2027 19.1609 37.8693 18.6533C37.536 18.1419 37.3712 17.4999 37.375 16.7272H39.8239C39.8314 17.034 39.8939 17.2972 40.0114 17.5169C40.1326 17.7328 40.2974 17.8995 40.5057 18.0169C40.7178 18.1306 40.9678 18.1874 41.2557 18.1874C41.5587 18.1874 41.8144 18.123 42.0227 17.9942C42.2349 17.8616 42.3958 17.6685 42.5057 17.4147C42.6155 17.1609 42.6705 16.8484 42.6705 16.4772V8.36353Z" fill="black"/>
<path d="M49.5795 20.1647C49.0227 20.1647 48.5265 20.0681 48.0909 19.8749C47.6553 19.6779 47.3106 19.3881 47.0568 19.0056C46.8068 18.6192 46.6818 18.1381 46.6818 17.5624C46.6818 17.0775 46.7708 16.6703 46.9489 16.3408C47.1269 16.0113 47.3693 15.7461 47.6761 15.5453C47.983 15.3446 48.3314 15.1931 48.7216 15.0908C49.1155 14.9885 49.5284 14.9166 49.9602 14.8749C50.4678 14.8219 50.8769 14.7726 51.1875 14.7272C51.4981 14.6779 51.7235 14.606 51.8636 14.5113C52.0038 14.4166 52.0739 14.2764 52.0739 14.0908V14.0567C52.0739 13.6969 51.9602 13.4184 51.733 13.2215C51.5095 13.0245 51.1913 12.926 50.7784 12.926C50.3428 12.926 49.9962 13.0226 49.7386 13.2158C49.4811 13.4052 49.3106 13.6438 49.2273 13.9317L46.9886 13.7499C47.1023 13.2196 47.3258 12.7613 47.6591 12.3749C47.9924 11.9847 48.4224 11.6855 48.9489 11.4772C49.4792 11.265 50.0928 11.159 50.7898 11.159C51.2746 11.159 51.7386 11.2158 52.1818 11.3294C52.6288 11.4431 53.0246 11.6192 53.3693 11.8578C53.7178 12.0965 53.9924 12.4033 54.1932 12.7783C54.3939 13.1495 54.4943 13.5946 54.4943 14.1135V19.9999H52.1989V18.7897H52.1307C51.9905 19.0624 51.803 19.3029 51.5682 19.5113C51.3333 19.7158 51.0511 19.8768 50.7216 19.9942C50.392 20.1078 50.0114 20.1647 49.5795 20.1647ZM50.2727 18.4942C50.6288 18.4942 50.9432 18.4241 51.2159 18.284C51.4886 18.14 51.7027 17.9469 51.858 17.7044C52.0133 17.462 52.0909 17.1874 52.0909 16.8806V15.9544C52.0152 16.0037 51.911 16.0491 51.7784 16.0908C51.6496 16.1287 51.5038 16.1647 51.3409 16.1988C51.178 16.2291 51.0152 16.2575 50.8523 16.284C50.6894 16.3067 50.5417 16.3275 50.4091 16.3465C50.125 16.3881 49.8769 16.4544 49.6648 16.5453C49.4527 16.6363 49.2879 16.7594 49.1705 16.9147C49.053 17.0662 48.9943 17.2556 48.9943 17.4828C48.9943 17.8124 49.1136 18.0643 49.3523 18.2385C49.5947 18.409 49.9015 18.4942 50.2727 18.4942Z" fill="black"/>
<path d="M58.7926 14.9544V19.9999H56.3722V11.2726H58.679V12.8124H58.7813C58.9744 12.3048 59.2983 11.9033 59.7528 11.6078C60.2074 11.3086 60.7585 11.159 61.4063 11.159C62.0123 11.159 62.5407 11.2916 62.9915 11.5567C63.4422 11.8219 63.7926 12.2006 64.0426 12.6931C64.2926 13.1817 64.4176 13.765 64.4176 14.4431V19.9999H61.9972V14.8749C62.0009 14.3408 61.8646 13.9241 61.5881 13.6249C61.3116 13.3219 60.9309 13.1703 60.446 13.1703C60.1203 13.1703 59.8324 13.2404 59.5824 13.3806C59.3362 13.5207 59.143 13.7253 59.0028 13.9942C58.8665 14.2594 58.7964 14.5794 58.7926 14.9544Z" fill="black"/>
</svg>
