<svg width="18" height="21" viewBox="0 0 18 21" fill="none" xmlns="http://www.w3.org/2000/svg">
<path d="M15 0.5H3C2.20435 0.5 1.44129 0.816071 0.87868 1.37868C0.316071 1.94129 0 2.70435 0 3.5V14.5C0 15.2956 0.316071 16.0587 0.87868 16.6213C1.44129 17.1839 2.20435 17.5 3 17.5H5.59L8.29 20.21C8.38344 20.3027 8.49426 20.376 8.61609 20.4258C8.73793 20.4755 8.86839 20.5008 9 20.5C9.23834 20.5 9.46886 20.4149 9.65 20.26L12.87 17.5H15C15.7956 17.5 16.5587 17.1839 17.1213 16.6213C17.6839 16.0587 18 15.2956 18 14.5V3.5C18 2.70435 17.6839 1.94129 17.1213 1.37868C16.5587 0.816071 15.7956 0.5 15 0.5ZM16 14.5C16 14.7652 15.8946 15.0196 15.7071 15.2071C15.5196 15.3946 15.2652 15.5 15 15.5H12.5C12.2617 15.5 12.0311 15.5851 11.85 15.74L9.05 18.14L6.71 15.79C6.61656 15.6973 6.50574 15.624 6.38391 15.5742C6.26207 15.5245 6.13161 15.4992 6 15.5H3C2.73478 15.5 2.48043 15.3946 2.29289 15.2071C2.10536 15.0196 2 14.7652 2 14.5V3.5C2 3.23478 2.10536 2.98043 2.29289 2.79289C2.48043 2.60536 2.73478 2.5 3 2.5H15C15.2652 2.5 15.5196 2.60536 15.7071 2.79289C15.8946 2.98043 16 3.23478 16 3.5V14.5Z" fill="#4B5563"/>
</svg>
