<svg width="16" height="18" viewBox="0 0 16 18" fill="none" xmlns="http://www.w3.org/2000/svg">
<path d="M6.33333 13.9998C6.55435 13.9998 6.76631 13.912 6.92259 13.7558C7.07887 13.5995 7.16667 13.3875 7.16667 13.1665V8.1665C7.16667 7.94549 7.07887 7.73353 6.92259 7.57725C6.76631 7.42097 6.55435 7.33317 6.33333 7.33317C6.11232 7.33317 5.90036 7.42097 5.74408 7.57725C5.5878 7.73353 5.5 7.94549 5.5 8.1665V13.1665C5.5 13.3875 5.5878 13.5995 5.74408 13.7558C5.90036 13.912 6.11232 13.9998 6.33333 13.9998ZM14.6667 3.99984H11.3333V3.1665C11.3333 2.50346 11.0699 1.86758 10.6011 1.39874C10.1323 0.929896 9.49637 0.666504 8.83333 0.666504H7.16667C6.50363 0.666504 5.86774 0.929896 5.3989 1.39874C4.93006 1.86758 4.66667 2.50346 4.66667 3.1665V3.99984H1.33333C1.11232 3.99984 0.900358 4.08764 0.744078 4.24392C0.587797 4.4002 0.5 4.61216 0.5 4.83317C0.5 5.05418 0.587797 5.26615 0.744078 5.42243C0.900358 5.57871 1.11232 5.6665 1.33333 5.6665H2.16667V14.8332C2.16667 15.4962 2.43006 16.1321 2.8989 16.6009C3.36774 17.0698 4.00363 17.3332 4.66667 17.3332H11.3333C11.9964 17.3332 12.6323 17.0698 13.1011 16.6009C13.5699 16.1321 13.8333 15.4962 13.8333 14.8332V5.6665H14.6667C14.8877 5.6665 15.0996 5.57871 15.2559 5.42243C15.4122 5.26615 15.5 5.05418 15.5 4.83317C15.5 4.61216 15.4122 4.4002 15.2559 4.24392C15.0996 4.08764 14.8877 3.99984 14.6667 3.99984ZM6.33333 3.1665C6.33333 2.94549 6.42113 2.73353 6.57741 2.57725C6.73369 2.42097 6.94565 2.33317 7.16667 2.33317H8.83333C9.05435 2.33317 9.26631 2.42097 9.42259 2.57725C9.57887 2.73353 9.66667 2.94549 9.66667 3.1665V3.99984H6.33333V3.1665ZM12.1667 14.8332C12.1667 15.0542 12.0789 15.2661 11.9226 15.4224C11.7663 15.5787 11.5543 15.6665 11.3333 15.6665H4.66667C4.44565 15.6665 4.23369 15.5787 4.07741 15.4224C3.92113 15.2661 3.83333 15.0542 3.83333 14.8332V5.6665H12.1667V14.8332ZM9.66667 13.9998C9.88768 13.9998 10.0996 13.912 10.2559 13.7558C10.4122 13.5995 10.5 13.3875 10.5 13.1665V8.1665C10.5 7.94549 10.4122 7.73353 10.2559 7.57725C10.0996 7.42097 9.88768 7.33317 9.66667 7.33317C9.44565 7.33317 9.23369 7.42097 9.07741 7.57725C8.92113 7.73353 8.83333 7.94549 8.83333 8.1665V13.1665C8.83333 13.3875 8.92113 13.5995 9.07741 13.7558C9.23369 13.912 9.44565 13.9998 9.66667 13.9998Z" fill="#6B7280"/>
</svg>
