<svg width="20" height="20" viewBox="0 0 20 20" fill="none" xmlns="http://www.w3.org/2000/svg">
<path d="M3.33337 9.99984C3.33337 10.2209 3.42117 10.4328 3.57745 10.5891C3.73373 10.7454 3.94569 10.8332 4.16671 10.8332H10.4917L8.57504 12.7415C8.49693 12.819 8.43494 12.9111 8.39263 13.0127C8.35032 13.1142 8.32854 13.2232 8.32854 13.3332C8.32854 13.4432 8.35032 13.5521 8.39263 13.6537C8.43494 13.7552 8.49693 13.8474 8.57504 13.9248C8.65251 14.0029 8.74468 14.0649 8.84623 14.1072C8.94778 14.1496 9.0567 14.1713 9.16671 14.1713C9.27672 14.1713 9.38564 14.1496 9.48719 14.1072C9.58874 14.0649 9.6809 14.0029 9.75837 13.9248L13.0917 10.5915C13.1676 10.5123 13.227 10.4188 13.2667 10.3165C13.3501 10.1136 13.3501 9.88605 13.2667 9.68317C13.227 9.58088 13.1676 9.48742 13.0917 9.40817L9.75837 6.07484C9.68068 5.99714 9.58843 5.9355 9.48692 5.89345C9.3854 5.8514 9.27659 5.82976 9.16671 5.82976C9.05682 5.82976 8.94802 5.8514 8.8465 5.89345C8.74498 5.9355 8.65274 5.99714 8.57504 6.07484C8.49734 6.15254 8.43571 6.24478 8.39366 6.3463C8.35161 6.44781 8.32996 6.55662 8.32996 6.6665C8.32996 6.77639 8.35161 6.88519 8.39366 6.98671C8.43571 7.08823 8.49734 7.18047 8.57504 7.25817L10.4917 9.1665H4.16671C3.94569 9.1665 3.73373 9.2543 3.57745 9.41058C3.42117 9.56686 3.33337 9.77882 3.33337 9.99984ZM14.1667 1.6665H5.83337C5.17033 1.6665 4.53445 1.9299 4.06561 2.39874C3.59677 2.86758 3.33337 3.50346 3.33337 4.1665V6.6665C3.33337 6.88752 3.42117 7.09948 3.57745 7.25576C3.73373 7.41204 3.94569 7.49984 4.16671 7.49984C4.38772 7.49984 4.59968 7.41204 4.75596 7.25576C4.91224 7.09948 5.00004 6.88752 5.00004 6.6665V4.1665C5.00004 3.94549 5.08784 3.73353 5.24412 3.57725C5.4004 3.42097 5.61236 3.33317 5.83337 3.33317H14.1667C14.3877 3.33317 14.5997 3.42097 14.756 3.57725C14.9122 3.73353 15 3.94549 15 4.1665V15.8332C15 16.0542 14.9122 16.2661 14.756 16.4224C14.5997 16.5787 14.3877 16.6665 14.1667 16.6665H5.83337C5.61236 16.6665 5.4004 16.5787 5.24412 16.4224C5.08784 16.2661 5.00004 16.0542 5.00004 15.8332V13.3332C5.00004 13.1122 4.91224 12.9002 4.75596 12.7439C4.59968 12.5876 4.38772 12.4998 4.16671 12.4998C3.94569 12.4998 3.73373 12.5876 3.57745 12.7439C3.42117 12.9002 3.33337 13.1122 3.33337 13.3332V15.8332C3.33337 16.4962 3.59677 17.1321 4.06561 17.6009C4.53445 18.0698 5.17033 18.3332 5.83337 18.3332H14.1667C14.8297 18.3332 15.4656 18.0698 15.9345 17.6009C16.4033 17.1321 16.6667 16.4962 16.6667 15.8332V4.1665C16.6667 3.50346 16.4033 2.86758 15.9345 2.39874C15.4656 1.9299 14.8297 1.6665 14.1667 1.6665Z" fill="#6B7280"/>
</svg>
