<svg width="25" height="24" viewBox="0 0 25 24" fill="none" xmlns="http://www.w3.org/2000/svg">
<path d="M22.25 5.79997C21.4983 6.12606 20.7034 6.34163 19.89 6.43997C20.7482 5.92729 21.3913 5.12075 21.7 4.16997C20.8936 4.65003 20.0108 4.98826 19.09 5.16997C18.4745 4.50254 17.655 4.05826 16.7598 3.90682C15.8647 3.75537 14.9445 3.90532 14.1438 4.33315C13.343 4.76099 12.7069 5.4425 12.3352 6.2708C11.9635 7.09911 11.8773 8.02736 12.09 8.90997C10.4594 8.82749 8.86444 8.40292 7.40865 7.66383C5.95287 6.92474 4.66885 5.88766 3.64 4.61997C3.27914 5.25013 3.08952 5.96379 3.09 6.68997C3.08872 7.36435 3.25422 8.02858 3.57176 8.62353C3.88929 9.21848 4.34902 9.72568 4.91 10.1C4.25798 10.0822 3.61989 9.90726 3.05 9.58997V9.63997C3.05489 10.5849 3.38599 11.4991 3.98731 12.2279C4.58864 12.9568 5.42326 13.4556 6.35 13.64C5.99326 13.7485 5.62287 13.8058 5.25 13.81C4.99189 13.807 4.73442 13.7835 4.48 13.74C4.74391 14.5528 5.25462 15.2631 5.94107 15.7721C6.62753 16.2811 7.45558 16.5635 8.31 16.58C6.8672 17.7152 5.08588 18.3348 3.25 18.34C2.91574 18.3411 2.58174 18.321 2.25 18.28C4.12443 19.4902 6.30881 20.1327 8.54 20.13C10.0797 20.146 11.6071 19.855 13.0331 19.274C14.4591 18.6931 15.755 17.8338 16.8452 16.7465C17.9354 15.6591 18.798 14.3654 19.3826 12.9409C19.9672 11.5164 20.262 9.98969 20.25 8.44997C20.25 8.27996 20.25 8.09997 20.25 7.91997C21.0347 7.33478 21.7115 6.61739 22.25 5.79997Z" fill="#6B7280"/>
</svg>
