<svg width="24" height="24" viewBox="0 0 24 24" fill="none" xmlns="http://www.w3.org/2000/svg">
<path d="M18 2H6C5.20435 2 4.44129 2.31607 3.87868 2.87868C3.31607 3.44129 3 4.20435 3 5V16C3 16.7956 3.31607 17.5587 3.87868 18.1213C4.44129 18.6839 5.20435 19 6 19H8.59L11.29 21.71C11.3834 21.8027 11.4943 21.876 11.6161 21.9258C11.7379 21.9755 11.8684 22.0008 12 22C12.2383 22 12.4689 21.9149 12.65 21.76L15.87 19H18C18.7956 19 19.5587 18.6839 20.1213 18.1213C20.6839 17.5587 21 16.7956 21 16V5C21 4.20435 20.6839 3.44129 20.1213 2.87868C19.5587 2.31607 18.7956 2 18 2ZM19 16C19 16.2652 18.8946 16.5196 18.7071 16.7071C18.5196 16.8946 18.2652 17 18 17H15.5C15.2617 17 15.0311 17.0851 14.85 17.24L12.05 19.64L9.71 17.29C9.61656 17.1973 9.50574 17.124 9.38391 17.0742C9.26207 17.0245 9.13161 16.9992 9 17H6C5.73478 17 5.48043 16.8946 5.29289 16.7071C5.10536 16.5196 5 16.2652 5 16V5C5 4.73478 5.10536 4.48043 5.29289 4.29289C5.48043 4.10536 5.73478 4 6 4H18C18.2652 4 18.5196 4.10536 18.7071 4.29289C18.8946 4.48043 19 4.73478 19 5V16Z" fill="black"/>
</svg>
