<svg width="77" height="77" viewBox="0 0 77 77" fill="none" xmlns="http://www.w3.org/2000/svg">
<g opacity="0.5">
<path d="M60.9582 6.41699H16.0415C13.4888 6.41699 11.0406 7.43105 9.2356 9.23609C7.43056 11.0411 6.4165 13.4893 6.4165 16.042V60.9587C6.4165 63.5114 7.43056 65.9595 9.2356 67.7646C11.0406 69.5696 13.4888 70.5837 16.0415 70.5837H60.9582C61.4859 70.5763 62.0119 70.5226 62.5303 70.4232L63.4928 70.1987H63.7173H63.8778L65.0648 69.7495L65.4819 69.5249C65.8028 69.3324 66.1557 69.172 66.4765 68.9474C66.9049 68.6322 67.3122 68.2893 67.6957 67.9207L67.9203 67.632C68.2352 67.3128 68.5249 66.9695 68.7865 66.6053L69.0753 66.1882C69.2994 65.831 69.4925 65.4554 69.6528 65.0653C69.7408 64.9114 69.8159 64.7504 69.8773 64.5841C70.0378 64.1991 70.134 63.782 70.2623 63.3649V62.8837C70.4442 62.2568 70.5519 61.6107 70.5832 60.9587V16.042C70.5832 13.4893 69.5691 11.0411 67.7641 9.23609C65.959 7.43105 63.5109 6.41699 60.9582 6.41699ZM16.0415 64.167C15.1906 64.167 14.3745 63.829 13.7729 63.2273C13.1712 62.6256 12.8332 61.8096 12.8332 60.9587V47.1307L23.3886 36.5432C23.6868 36.2425 24.0417 36.0038 24.4327 35.841C24.8236 35.6781 25.243 35.5942 25.6665 35.5942C26.09 35.5942 26.5094 35.6781 26.9004 35.841C27.2913 36.0038 27.6462 36.2425 27.9444 36.5432L55.5361 64.167H16.0415ZM64.1665 60.9587C64.1635 61.3542 64.0873 61.7458 63.9419 62.1137C63.8686 62.2701 63.7828 62.4203 63.6853 62.5628C63.5994 62.6987 63.5029 62.8274 63.3965 62.9478L46.2319 45.7832L49.0553 42.9599C49.3535 42.6592 49.7084 42.4205 50.0993 42.2576C50.4903 42.0947 50.9096 42.0109 51.3332 42.0109C51.7567 42.0109 52.1761 42.0947 52.567 42.2576C52.958 42.4205 53.3128 42.6592 53.6111 42.9599L64.1665 53.5474V60.9587ZM64.1665 44.4678L58.1348 38.5003C56.2988 36.7582 53.8642 35.787 51.3332 35.787C48.8021 35.787 46.3676 36.7582 44.5315 38.5003L41.7082 41.3237L32.4682 32.0837C30.6321 30.3415 28.1976 29.3703 25.6665 29.3703C23.1355 29.3703 20.7009 30.3415 18.8648 32.0837L12.8332 38.0512V16.042C12.8332 15.1911 13.1712 14.375 13.7729 13.7734C14.3745 13.1717 15.1906 12.8337 16.0415 12.8337H60.9582C61.8091 12.8337 62.6251 13.1717 63.2268 13.7734C63.8285 14.375 64.1665 15.1911 64.1665 16.042V44.4678Z" fill="black"/>
</g>
</svg>
