<svg width="21" height="20" viewBox="0 0 21 20" fill="none" xmlns="http://www.w3.org/2000/svg">
<path d="M10.4998 5.83342C10.2788 5.83342 10.0669 5.92121 9.91059 6.07749C9.75431 6.23377 9.66651 6.44573 9.66651 6.66675V10.0001C9.66651 10.2211 9.75431 10.4331 9.91059 10.5893C10.0669 10.7456 10.2788 10.8334 10.4998 10.8334C10.7209 10.8334 10.9328 10.7456 11.0891 10.5893C11.2454 10.4331 11.3332 10.2211 11.3332 10.0001V6.66675C11.3332 6.44573 11.2454 6.23377 11.0891 6.07749C10.9328 5.92121 10.7209 5.83342 10.4998 5.83342ZM11.2665 13.0167C11.2483 12.9636 11.223 12.9132 11.1915 12.8667L11.0915 12.7417C10.9743 12.6261 10.8255 12.5478 10.6639 12.5166C10.5022 12.4855 10.3349 12.5029 10.1832 12.5667C10.0822 12.6089 9.98918 12.6681 9.90817 12.7417C9.83094 12.8196 9.76984 12.912 9.72837 13.0135C9.68689 13.115 9.66587 13.2237 9.66651 13.3334C9.66782 13.4423 9.69047 13.5499 9.73317 13.6501C9.7706 13.7535 9.83031 13.8474 9.90808 13.9252C9.98584 14.0029 10.0798 14.0627 10.1832 14.1001C10.2829 14.1442 10.3908 14.1669 10.4998 14.1669C10.6089 14.1669 10.7168 14.1442 10.8165 14.1001C10.9199 14.0627 11.0138 14.0029 11.0916 13.9252C11.1694 13.8474 11.2291 13.7535 11.2665 13.6501C11.3092 13.5499 11.3319 13.4423 11.3332 13.3334C11.3373 13.2779 11.3373 13.2222 11.3332 13.1667C11.3188 13.1136 11.2963 13.063 11.2665 13.0167ZM10.4998 1.66675C8.85166 1.66675 7.2405 2.15549 5.87009 3.07117C4.49968 3.98685 3.43158 5.28834 2.80084 6.81105C2.17011 8.33377 2.00509 10.0093 2.32663 11.6258C2.64817 13.2423 3.44185 14.7272 4.60728 15.8926C5.77272 17.0581 7.25758 17.8517 8.87409 18.1733C10.4906 18.4948 12.1662 18.3298 13.6889 17.6991C15.2116 17.0683 16.5131 16.0002 17.4288 14.6298C18.3444 13.2594 18.8332 11.6483 18.8332 10.0001C18.8332 8.90573 18.6176 7.8221 18.1988 6.81105C17.78 5.80001 17.1662 4.88135 16.3924 4.10752C15.6186 3.3337 14.6999 2.71987 13.6889 2.30109C12.6778 1.8823 11.5942 1.66675 10.4998 1.66675ZM10.4998 16.6667C9.1813 16.6667 7.89237 16.2758 6.79604 15.5432C5.69971 14.8107 4.84523 13.7695 4.34064 12.5513C3.83606 11.3331 3.70404 9.99269 3.96127 8.69948C4.21851 7.40627 4.85345 6.21839 5.7858 5.28604C6.71815 4.35369 7.90603 3.71875 9.19924 3.46151C10.4924 3.20428 11.8329 3.3363 13.0511 3.84088C14.2692 4.34547 15.3104 5.19995 16.043 6.29628C16.7755 7.39261 17.1665 8.68154 17.1665 10.0001C17.1665 11.7682 16.4641 13.4639 15.2139 14.7141C13.9636 15.9644 12.268 16.6667 10.4998 16.6667Z" fill="black"/>
</svg>
