<svg width="72" height="32" viewBox="0 0 72 32" fill="none" xmlns="http://www.w3.org/2000/svg">
<path d="M29.4509 9.23066C28.6944 9.10231 28.1403 9.52884 27.7129 10.0995C26.807 11.306 26.5177 12.7515 26.3399 14.2325C26.5158 15.5377 25.8936 16.4994 25.1144 17.4117C24.6546 17.9215 24.301 18.5253 24.0757 19.185C23.8505 19.8446 23.7586 20.5459 23.8057 21.2445C23.8353 21.8468 23.9331 22.4433 24.097 23.0216C24.1318 23.1113 24.1597 23.2037 24.1802 23.2981C24.1953 23.4284 24.2634 23.6022 24.1235 23.6772C23.9533 23.7681 23.8455 23.5903 23.783 23.4798C23.6287 23.2059 23.5019 22.916 23.4048 22.6149C22.8431 20.6718 22.9207 18.7979 24.1121 17.0977C24.3775 16.7369 24.6629 16.3928 24.9669 16.0669C25.5343 15.439 25.6269 14.9315 25.2374 14.189C24.2521 12.3151 23.2441 10.451 22.2455 8.58298C21.5893 7.35277 20.9217 6.12651 20.2787 4.89038C20.0652 4.49641 19.7738 4.15445 19.4239 3.88725C18.5653 4.22492 18.3553 4.65144 18.6182 5.54794C18.6735 5.74997 18.7417 5.94789 18.8225 6.14033C19.2139 7.0467 19.6149 7.94911 20.0082 8.85548C20.5491 10.1015 21.1013 11.3416 21.5496 12.6271C21.6139 12.8127 21.7841 13.0437 21.4871 13.1997C21.1316 13.6124 20.8498 13.6341 20.4848 13.2629C19.9175 12.6883 19.5562 11.9616 19.1478 11.2744C18.0622 9.43405 16.9937 7.5917 15.9422 5.74738C15.6888 5.30703 15.2992 5.12339 14.8869 4.94567C14.1626 5.29716 13.9697 5.71578 14.1777 6.50762C14.2858 6.87731 14.4336 7.23304 14.6184 7.56801C15.8022 9.87045 17.0599 12.1295 18.2986 14.3983C18.4167 14.5531 18.4766 14.7477 18.4669 14.9453C18.2059 15.6048 17.6045 15.5496 17.2395 15.0756C16.432 14.0192 15.651 12.941 14.8529 11.8787C14.1985 11.0118 13.529 10.1548 12.8728 9.29385C12.6077 8.94724 12.2573 8.6824 11.8591 8.52769C11.2521 8.83968 11.0251 9.34914 11.2142 10.0087C11.3158 10.3373 11.4685 10.6462 11.6662 10.9229C12.9182 12.8581 14.1689 14.7913 15.4183 16.7225C15.5375 16.9042 15.7342 17.0839 15.5923 17.3524C15.3143 17.8875 14.7924 17.9942 14.3517 17.5499C13.7844 16.9832 13.27 16.3829 12.7499 15.7727C12.1277 15.046 11.5263 14.2976 10.9154 13.5591C10.6752 13.2688 10.3481 13.1425 10.019 12.9944C9.45165 13.3004 9.31171 13.6203 9.45165 14.2325C9.54018 14.5675 9.68909 14.8818 9.89041 15.1586C10.3859 15.8931 10.8795 16.6297 11.392 17.3504C13.2832 20.0182 15.1744 22.682 17.3795 25.0891C18.8792 26.7202 20.6853 27.4725 22.8469 27.281C22.9262 27.2869 23.0059 27.2869 23.0852 27.281C26.0525 26.9986 28.7323 24.5303 29.3809 21.4913C29.6185 20.2409 29.7162 18.966 29.6722 17.6921C29.6552 16.0156 29.6722 14.3351 29.9218 12.6804C30.0683 11.907 30.1744 11.1258 30.2395 10.3404C30.2925 9.70063 30.0542 9.33335 29.4509 9.23066Z" fill="#FEC928"/>
<path d="M26.3437 14.2325C26.5196 15.5377 25.8974 16.4994 25.1182 17.4117C24.6577 17.9212 24.3034 18.5248 24.0775 19.1845C23.8516 19.8442 23.7591 20.5456 23.8057 21.2445C23.8353 21.8468 23.9331 22.4433 24.097 23.0216C24.1318 23.1113 24.1597 23.2037 24.1802 23.2981C24.1953 23.4284 24.2634 23.6022 24.1235 23.6772C23.9532 23.7681 23.8455 23.5903 23.783 23.4798C23.6287 23.2059 23.5019 22.916 23.4048 22.6149C22.8431 20.6718 22.9207 18.7979 24.1121 17.0977C24.3775 16.7369 24.6629 16.3928 24.9669 16.0669C25.5343 15.439 25.6269 14.9315 25.2374 14.189C24.2521 12.3151 23.2441 10.451 22.2474 8.58299C21.5893 7.35278 20.9236 6.12652 20.2787 4.89039C20.0652 4.49643 19.7738 4.15447 19.4239 3.88727C20.1406 3.72732 20.5416 4.17162 20.8593 4.73045C21.5666 5.96263 22.2606 7.20468 22.9623 8.43884C24.01 10.2818 25.059 12.1249 26.1092 13.9679C26.1716 14.0626 26.2113 14.189 26.3437 14.2325Z" fill="#EDA703"/>
<path d="M22.8469 27.281C22.8715 27.0085 23.106 27.0341 23.2649 26.9808C24.6076 26.5405 25.8388 25.8908 26.8316 24.8304C28.0899 23.5025 28.8312 21.7342 28.9119 19.8681C28.9895 18.6083 28.9271 17.3524 28.9762 16.0965C29.0282 14.2333 29.395 12.3942 30.0599 10.6643C30.1121 10.5538 30.1722 10.4475 30.2395 10.3463C30.1744 11.1318 30.0683 11.9129 29.9218 12.6863C29.6684 14.349 29.6552 16.0215 29.6722 17.698C29.7162 18.9719 29.6185 20.2468 29.3809 21.4972C28.7323 24.5362 26.0525 27.0045 23.0852 27.2869C23.0057 27.2908 22.9261 27.2888 22.8469 27.281Z" fill="#EDA807"/>
<path d="M21.4871 13.18C21.1316 13.5927 20.8498 13.6144 20.4848 13.2432C19.9174 12.6685 19.5562 11.9419 19.1477 11.2547C18.0622 9.42749 16.9937 7.59172 15.9422 5.74739C15.6888 5.30705 15.2992 5.1234 14.8869 4.94569C15.303 4.67318 15.6944 4.77982 16.0727 5.03455C16.3845 5.27052 16.6427 5.57524 16.8292 5.92709C18.129 8.07419 19.427 10.2246 20.7231 12.3783C20.9198 12.6942 21.1146 13.0319 21.4871 13.18Z" fill="#EDA805"/>
<path d="M18.4669 14.9453C18.2059 15.6049 17.6045 15.5496 17.2395 15.0757C16.432 14.0192 15.6509 12.9411 14.8529 11.8787C14.1985 11.0118 13.529 10.1548 12.8728 9.29388C12.6077 8.94726 12.2573 8.68243 11.8591 8.52771C12.4265 8.29668 12.9711 8.49019 13.4837 9.12011C13.9678 9.72435 14.4292 10.3404 14.9172 10.9486C15.8489 12.1334 16.7825 13.3182 17.718 14.503C17.909 14.7479 18.0962 15.0164 18.4669 14.9453Z" fill="#EDA805"/>
<path d="M12.4643 21.9771C11.9316 21.8096 11.4404 21.5225 11.0251 21.1359C9.9438 20.1391 9.18966 18.8129 8.86917 17.3445C8.81243 17.0918 8.88619 16.9239 9.10935 16.8588C9.33251 16.7936 9.40437 16.9713 9.46867 17.151C10.0852 18.8729 11.0781 20.2868 12.5702 21.2978C12.6631 21.3394 12.7378 21.4157 12.7798 21.5117C12.8217 21.6077 12.8279 21.7166 12.7972 21.8171C12.7499 21.981 12.6137 21.987 12.4643 21.9771Z" fill="#B2BFC6"/>
<path d="M7.62099 18.403C7.60775 18.2173 7.65503 18.0594 7.84604 18.008C8.09 17.9527 8.16754 18.1542 8.22427 18.3358C8.55647 19.2839 9.04481 20.164 9.66724 20.9364C10.1371 21.5254 10.6907 22.0355 11.3088 22.449C11.3784 22.4841 11.4398 22.5346 11.4888 22.597C11.5378 22.6594 11.5732 22.7322 11.5925 22.8104C11.6284 23.0533 11.4033 23.2053 11.1216 23.0987C10.3099 22.7899 9.59767 22.2494 9.06585 21.5387C8.41285 20.705 7.93594 19.7367 7.66637 18.6972C7.64511 18.6002 7.62994 18.502 7.62099 18.403Z" fill="#B2BFC6"/>
<path d="M23.8379 3.68979C24.1252 3.77254 24.394 3.91417 24.6284 4.10644C25.9295 5.05625 26.6538 6.40691 27.0567 7.97478C27.1077 8.17225 27.138 8.37959 27.1739 8.58298C27.1883 8.62569 27.194 8.67111 27.1904 8.71625C27.1869 8.7614 27.1743 8.80525 27.1534 8.84495C27.1325 8.88465 27.1038 8.9193 27.0692 8.94663C27.0346 8.97397 26.9949 8.99337 26.9527 9.00358C26.7371 9.06479 26.6406 8.92657 26.5858 8.7291C26.2799 7.62238 25.7655 6.59054 25.0728 5.69406C24.6773 5.17531 24.2139 4.7173 23.696 4.33353C23.6209 4.28825 23.5618 4.21873 23.5277 4.13541C23.4936 4.05209 23.4863 3.95947 23.5069 3.87146C23.5391 3.70361 23.6715 3.68979 23.8379 3.68979Z" fill="#B2BFC6"/>
<path d="M25.8633 9.6809C25.8791 9.76574 25.8634 9.85366 25.8196 9.92695C25.7757 10.0002 25.7069 10.0534 25.6269 10.0758C25.4038 10.139 25.3111 9.9771 25.26 9.79543C25.0288 8.96164 24.6802 8.16837 24.2256 7.44164C23.7606 6.68403 23.1656 6.02262 22.4706 5.49069C22.4272 5.45898 22.3867 5.4233 22.3495 5.38405C22.2323 5.2557 22.081 5.1234 22.2001 4.92396C22.3193 4.72452 22.5103 4.74624 22.6937 4.82918C23.3499 5.13452 23.9255 5.60135 24.3712 6.18971C25.1336 7.16704 25.6429 8.33246 25.8501 9.57427C25.8558 9.61376 25.8614 9.65721 25.8633 9.6809Z" fill="#B2BFC6"/>
<path d="M15.5923 17.3504C15.3143 17.8856 14.7924 17.9922 14.3517 17.5479C13.7844 16.9812 13.27 16.3809 12.7499 15.7707C12.1277 15.044 11.5263 14.2956 10.9154 13.5571C10.6752 13.2669 10.3481 13.1405 10.019 12.9924C10.5504 12.6922 10.9816 12.7653 11.4355 13.2688C12.209 14.1258 12.9674 14.9966 13.739 15.8536C14.1152 16.2827 14.5196 16.6839 14.9493 17.0542C15.1255 17.226 15.3521 17.3304 15.5923 17.3504Z" fill="#EDA805"/>
<path d="M41.8005 10.4375H43.766V17.2834C43.766 17.9162 43.6297 18.4659 43.3572 18.9325C43.0878 19.3992 42.7128 19.7587 42.2322 20.0112C41.7515 20.2637 41.1928 20.3899 40.556 20.3899C39.9897 20.3899 39.4753 20.286 39.0131 20.0783C38.5539 19.8674 38.1895 19.5478 37.9201 19.1195C37.6507 18.688 37.5176 18.1463 37.5206 17.4943H39.4998C39.506 17.7532 39.5565 17.9753 39.6514 18.1607C39.7493 18.3429 39.8825 18.4835 40.0509 18.5826C40.2223 18.6784 40.4244 18.7264 40.6571 18.7264C40.902 18.7264 41.1086 18.6721 41.277 18.5634C41.4484 18.4515 41.5786 18.2885 41.6673 18.0744C41.7561 17.8603 41.8005 17.5966 41.8005 17.2834V10.4375Z" fill="black"/>
<path d="M47.3846 20.3947C46.9345 20.3947 46.5335 20.3132 46.1814 20.1502C45.8294 19.984 45.5508 19.7395 45.3457 19.4167C45.1436 19.0907 45.0426 18.6848 45.0426 18.199C45.0426 17.79 45.1145 17.4464 45.2584 17.1683C45.4023 16.8903 45.5982 16.6665 45.8462 16.4972C46.0942 16.3278 46.3758 16.1999 46.6912 16.1136C47.0095 16.0273 47.3432 15.9666 47.6922 15.9315C48.1025 15.8867 48.4331 15.8452 48.6842 15.8068C48.9352 15.7653 49.1173 15.7045 49.2306 15.6246C49.3439 15.5447 49.4005 15.4265 49.4005 15.2699V15.2411C49.4005 14.9375 49.3087 14.7026 49.125 14.5364C48.9444 14.3702 48.6872 14.2871 48.3535 14.2871C48.0015 14.2871 47.7213 14.3686 47.5132 14.5316C47.305 14.6914 47.1672 14.8928 47.0999 15.1357L45.2905 14.9822C45.3824 14.5348 45.563 14.1481 45.8324 13.8221C46.1018 13.4929 46.4493 13.2404 46.8748 13.0646C47.3034 12.8857 47.7994 12.7962 48.3627 12.7962C48.7546 12.7962 49.1296 12.8441 49.4878 12.94C49.849 13.0359 50.1689 13.1845 50.4475 13.3858C50.7292 13.5872 50.9511 13.8461 51.1134 14.1625C51.2757 14.4757 51.3568 14.8512 51.3568 15.2891V20.2557H49.5016V19.2346H49.4465C49.3332 19.4647 49.1816 19.6676 48.9918 19.8434C48.802 20.016 48.5739 20.1518 48.3076 20.2509C48.0412 20.3468 47.7336 20.3947 47.3846 20.3947ZM47.9448 18.9853C48.2326 18.9853 48.4867 18.9261 48.7071 18.8079C48.9275 18.6864 49.1005 18.5234 49.226 18.3189C49.3515 18.1143 49.4143 17.8826 49.4143 17.6238V16.8423C49.3531 16.8839 49.2689 16.9222 49.1617 16.9574C49.0576 16.9893 48.9398 17.0197 48.8081 17.0485C48.6765 17.074 48.5449 17.098 48.4132 17.1204C48.2816 17.1396 48.1622 17.1571 48.055 17.1731C47.8254 17.2083 47.6249 17.2642 47.4535 17.3409C47.282 17.4176 47.1488 17.5215 47.0539 17.6525C46.959 17.7804 46.9116 17.9402 46.9116 18.1319C46.9116 18.41 47.008 18.6225 47.2009 18.7695C47.3968 18.9134 47.6448 18.9853 47.9448 18.9853Z" fill="black"/>
<path d="M54.8308 15.9986V20.2557H52.8745V12.892H54.7389V14.1912H54.8216C54.9777 13.763 55.2395 13.4242 55.6068 13.1749C55.9742 12.9224 56.4196 12.7962 56.9431 12.7962C57.433 12.7962 57.86 12.908 58.2244 13.1317C58.5887 13.3555 58.8719 13.6751 59.0739 14.0906C59.276 14.5028 59.377 14.995 59.377 15.5671V20.2557H57.4207V15.9315C57.4238 15.4808 57.3136 15.1293 57.0901 14.8768C56.8666 14.6211 56.5589 14.4933 56.1671 14.4933C55.9038 14.4933 55.6711 14.5524 55.4691 14.6706C55.2701 14.7889 55.1139 14.9615 55.0007 15.1884C54.8905 15.4121 54.8338 15.6822 54.8308 15.9986Z" fill="black"/>
</svg>
