<svg width="21" height="20" viewBox="0 0 21 20" fill="none" xmlns="http://www.w3.org/2000/svg">
<path fill-rule="evenodd" clip-rule="evenodd" d="M7.85089 14.7074C7.66342 14.5199 7.55811 14.2656 7.55811 14.0004C7.55811 13.7352 7.66342 13.4809 7.85089 13.2934L11.1439 10.0004L7.85089 6.70741C7.66873 6.5188 7.56794 6.2662 7.57022 6.00401C7.5725 5.74181 7.67767 5.491 7.86307 5.30559C8.04848 5.12018 8.29929 5.01501 8.56149 5.01273C8.82369 5.01045 9.07629 5.11125 9.26489 5.29341L13.2649 9.29341C13.4524 9.48094 13.5577 9.73524 13.5577 10.0004C13.5577 10.2656 13.4524 10.5199 13.2649 10.7074L9.26489 14.7074C9.07736 14.8949 8.82306 15.0002 8.55789 15.0002C8.29273 15.0002 8.03842 14.8949 7.85089 14.7074Z" fill="#111928"/>
</svg>
