<svg width="16" height="16" viewBox="0 0 16 16" fill="none" xmlns="http://www.w3.org/2000/svg">
<rect width="16" height="16" rx="8" fill="#5865F2"/>
<path d="M11.8813 4.32957C11.1674 3.99193 10.402 3.74317 9.60158 3.6007C9.587 3.59795 9.57244 3.60482 9.56493 3.61856C9.46648 3.79906 9.35743 4.03453 9.28107 4.21961C8.42021 4.08676 7.56378 4.08676 6.72057 4.21961C6.64419 4.03042 6.53118 3.79906 6.43229 3.61856C6.42478 3.60528 6.41022 3.5984 6.39565 3.6007C5.59572 3.74271 4.83022 3.99147 4.11593 4.32957C4.10974 4.33232 4.10444 4.3369 4.10093 4.34285C2.64894 6.57895 2.25118 8.76009 2.44631 10.9142C2.44719 10.9247 2.45293 10.9348 2.46088 10.9412C3.41886 11.6664 4.34682 12.1067 5.25755 12.3985C5.27213 12.4031 5.28757 12.3976 5.29685 12.3852C5.51228 12.0819 5.70432 11.7622 5.86898 11.4259C5.8787 11.4062 5.86942 11.3828 5.84956 11.375C5.54495 11.2559 5.2549 11.1107 4.9759 10.9458C4.95383 10.9325 4.95206 10.9 4.97237 10.8844C5.03108 10.839 5.08981 10.7919 5.14587 10.7442C5.15601 10.7355 5.17015 10.7337 5.18207 10.7392C7.01502 11.6018 8.99941 11.6018 10.8107 10.7392C10.8227 10.7332 10.8368 10.7351 10.8474 10.7438C10.9035 10.7914 10.9622 10.839 11.0213 10.8844C11.0416 10.9 11.0403 10.9325 11.0182 10.9458C10.7392 11.1139 10.4492 11.2559 10.1441 11.3746C10.1243 11.3824 10.1154 11.4062 10.1252 11.4259C10.2933 11.7617 10.4854 12.0815 10.6968 12.3848C10.7057 12.3976 10.7216 12.4031 10.7361 12.3985C11.6513 12.1067 12.5792 11.6664 13.5372 10.9412C13.5456 10.9348 13.5509 10.9252 13.5518 10.9146C13.7853 8.42427 13.1607 6.26102 11.8959 4.34331C11.8928 4.3369 11.8875 4.33232 11.8813 4.32957ZM6.1427 9.60256C5.59086 9.60256 5.13615 9.08031 5.13615 8.43894C5.13615 7.79756 5.58204 7.27531 6.1427 7.27531C6.70777 7.27531 7.15807 7.80214 7.14923 8.43894C7.14923 9.08031 6.70335 9.60256 6.1427 9.60256ZM9.86424 9.60256C9.31241 9.60256 8.85771 9.08031 8.85771 8.43894C8.85771 7.79756 9.30358 7.27531 9.86424 7.27531C10.4293 7.27531 10.8796 7.80214 10.8708 8.43894C10.8708 9.08031 10.4293 9.60256 9.86424 9.60256Z" fill="white"/>
</svg>
