<svg width="32" height="32" viewBox="0 0 32 32" fill="none" xmlns="http://www.w3.org/2000/svg">
<g clip-path="url(#clip0_1933_43424)">
<path d="M26.5658 6.84247C24.6605 5.96933 22.649 5.3499 20.5829 5C20.3001 5.50591 20.0443 6.02642 19.8165 6.55936C17.6156 6.2274 15.3775 6.2274 13.1766 6.55936C12.9487 6.02648 12.6929 5.50597 12.4102 5C10.3428 5.35286 8.32999 5.97376 6.42274 6.84703C2.63636 12.4543 1.60994 17.9224 2.12315 23.3128C4.34055 24.9526 6.82245 26.1998 9.46097 27C10.0551 26.2002 10.5808 25.3517 11.0325 24.4635C10.1745 24.1427 9.34638 23.747 8.55771 23.2808C8.76528 23.1301 8.96828 22.9749 9.16444 22.8242C11.4593 23.9044 13.964 24.4645 16.5 24.4645C19.0359 24.4645 21.5407 23.9044 23.8355 22.8242C24.034 22.9863 24.237 23.1416 24.4422 23.2808C23.652 23.7477 22.8224 24.1442 21.9629 24.4658C22.414 25.3535 22.9398 26.2013 23.5344 27C26.1752 26.203 28.659 24.9564 30.8768 23.3151C31.479 17.0639 29.8481 11.6461 26.5658 6.84247ZM11.6826 19.9977C10.2525 19.9977 9.07092 18.6986 9.07092 17.1005C9.07092 15.5023 10.2114 14.1918 11.6781 14.1918C13.1447 14.1918 14.3171 15.5023 14.292 17.1005C14.2669 18.6986 13.1401 19.9977 11.6826 19.9977ZM21.3173 19.9977C19.8849 19.9977 18.7079 18.6986 18.7079 17.1005C18.7079 15.5023 19.8484 14.1918 21.3173 14.1918C22.7863 14.1918 23.9496 15.5023 23.9245 17.1005C23.8994 18.6986 22.7749 19.9977 21.3173 19.9977Z" fill="#5865F2"/>
</g>
<defs>
<clipPath id="clip0_1933_43424">
<rect width="29" height="22" fill="white" transform="translate(2 5)"/>
</clipPath>
</defs>
</svg>
