<svg width="28" height="29" viewBox="0 0 28 29" fill="none" xmlns="http://www.w3.org/2000/svg">
<rect y="0.5" width="28" height="28" rx="4" fill="#E5E7EB"/>
<path d="M15.3333 13.833H12.6667C12.313 13.833 11.9739 13.6925 11.7239 13.4425C11.4738 13.1924 11.3333 12.8533 11.3333 12.4997C11.3333 12.1461 11.4738 11.8069 11.7239 11.5569C11.9739 11.3068 12.313 11.1663 12.6667 11.1663H16C16.1768 11.1663 16.3464 11.2366 16.4714 11.3616C16.5964 11.4866 16.6667 11.6562 16.6667 11.833C16.6667 12.0098 16.7369 12.1794 16.8619 12.3044C16.987 12.4294 17.1565 12.4997 17.3333 12.4997C17.5101 12.4997 17.6797 12.4294 17.8047 12.3044C17.9298 12.1794 18 12.0098 18 11.833C18 11.3026 17.7893 10.7939 17.4142 10.4188C17.0391 10.0437 16.5304 9.83301 16 9.83301H14.6667V8.49967C14.6667 8.32286 14.5964 8.15329 14.4714 8.02827C14.3464 7.90325 14.1768 7.83301 14 7.83301C13.8232 7.83301 13.6536 7.90325 13.5286 8.02827C13.4036 8.15329 13.3333 8.32286 13.3333 8.49967V9.83301H12.6667C11.9594 9.83301 11.2811 10.114 10.781 10.6141C10.281 11.1142 10 11.7924 10 12.4997C10 13.2069 10.281 13.8852 10.781 14.3853C11.2811 14.8854 11.9594 15.1663 12.6667 15.1663H15.3333C15.687 15.1663 16.0261 15.3068 16.2761 15.5569C16.5262 15.8069 16.6667 16.1461 16.6667 16.4997C16.6667 16.8533 16.5262 17.1924 16.2761 17.4425C16.0261 17.6925 15.687 17.833 15.3333 17.833H12C11.8232 17.833 11.6536 17.7628 11.5286 17.6377C11.4036 17.5127 11.3333 17.3432 11.3333 17.1663C11.3333 16.9895 11.2631 16.82 11.1381 16.6949C11.013 16.5699 10.8435 16.4997 10.6667 16.4997C10.4899 16.4997 10.3203 16.5699 10.1953 16.6949C10.0702 16.82 10 16.9895 10 17.1663C10 17.6968 10.2107 18.2055 10.5858 18.5806C10.9609 18.9556 11.4696 19.1663 12 19.1663H13.3333V20.4997C13.3333 20.6765 13.4036 20.8461 13.5286 20.9711C13.6536 21.0961 13.8232 21.1663 14 21.1663C14.1768 21.1663 14.3464 21.0961 14.4714 20.9711C14.5964 20.8461 14.6667 20.6765 14.6667 20.4997V19.1663H15.3333C16.0406 19.1663 16.7189 18.8854 17.219 18.3853C17.719 17.8852 18 17.2069 18 16.4997C18 15.7924 17.719 15.1142 17.219 14.6141C16.7189 14.114 16.0406 13.833 15.3333 13.833Z" fill="#4B5563"/>
</svg>
