<svg width="20" height="20" viewBox="0 0 20 20" fill="none" xmlns="http://www.w3.org/2000/svg">
<g clip-path="url(#clip0_1588_8699)">
<path d="M18.0435 10.6614C17.8831 10.4789 17.7947 10.2443 17.7947 10.0014C17.7947 9.75845 17.8831 9.52385 18.0435 9.34136L19.3235 7.90136C19.4645 7.74403 19.5521 7.54606 19.5736 7.33587C19.5952 7.12567 19.5496 6.91405 19.4435 6.73136L17.4435 3.27136C17.3384 3.08888 17.1783 2.94424 16.9862 2.85805C16.7941 2.77186 16.5796 2.74852 16.3735 2.79136L14.4935 3.17136C14.2542 3.22079 14.0052 3.18095 13.7933 3.05936C13.5815 2.93777 13.4214 2.74284 13.3435 2.51136L12.7335 0.68136C12.6664 0.482739 12.5386 0.310225 12.3681 0.188202C12.1976 0.0661789 11.9931 0.000818796 11.7835 0.00135996H7.78345C7.56538 -0.0100221 7.34959 0.0502863 7.16902 0.173074C6.98845 0.295862 6.85303 0.474379 6.78345 0.68136L6.22345 2.51136C6.14545 2.74284 5.98542 2.93777 5.77356 3.05936C5.5617 3.18095 5.31267 3.22079 5.07345 3.17136L3.14345 2.79136C2.948 2.76374 2.74875 2.79458 2.5708 2.88C2.39285 2.96542 2.24415 3.10159 2.14345 3.27136L0.143451 6.73136C0.034611 6.91201 -0.0143269 7.12245 0.00363355 7.33258C0.021594 7.54272 0.105533 7.7418 0.243451 7.90136L1.51345 9.34136C1.67377 9.52385 1.76219 9.75845 1.76219 10.0014C1.76219 10.2443 1.67377 10.4789 1.51345 10.6614L0.243451 12.1014C0.105533 12.2609 0.021594 12.46 0.00363355 12.6701C-0.0143269 12.8803 0.034611 13.0907 0.143451 13.2714L2.14345 16.7314C2.24855 16.9138 2.40857 17.0585 2.6007 17.1447C2.79284 17.2309 3.00728 17.2542 3.21345 17.2114L5.09345 16.8314C5.33267 16.7819 5.5817 16.8218 5.79356 16.9434C6.00542 17.0649 6.16545 17.2599 6.24345 17.4914L6.85345 19.3214C6.92303 19.5283 7.05845 19.7069 7.23902 19.8296C7.41959 19.9524 7.63538 20.0127 7.85345 20.0014H11.8535C12.0631 20.0019 12.2676 19.9365 12.4381 19.8145C12.6086 19.6925 12.7364 19.52 12.8035 19.3214L13.4135 17.4914C13.4915 17.2599 13.6515 17.0649 13.8633 16.9434C14.0752 16.8218 14.3242 16.7819 14.5635 16.8314L16.4435 17.2114C16.6496 17.2542 16.8641 17.2309 17.0562 17.1447C17.2483 17.0585 17.4084 16.9138 17.5135 16.7314L19.5135 13.2714C19.6196 13.0887 19.6652 12.877 19.6436 12.6669C19.6221 12.4567 19.5345 12.2587 19.3935 12.1014L18.0435 10.6614ZM16.5535 12.0014L17.3535 12.9014L16.0735 15.1214L14.8935 14.8814C14.1732 14.7341 13.424 14.8565 12.788 15.2252C12.1521 15.5938 11.6736 16.1832 11.4435 16.8814L11.0635 18.0014H8.50345L8.14345 16.8614C7.91331 16.1632 7.43483 15.5738 6.79886 15.2052C6.16288 14.8365 5.41367 14.7141 4.69345 14.8614L3.51345 15.1014L2.21345 12.8914L3.01345 11.9914C3.50541 11.4413 3.77738 10.7293 3.77738 9.99136C3.77738 9.25343 3.50541 8.54138 3.01345 7.99136L2.21345 7.09136L3.49345 4.89136L4.67345 5.13136C5.39367 5.27858 6.14288 5.15624 6.77886 4.78756C7.41483 4.41888 7.89331 3.82952 8.12345 3.13136L8.50345 2.00136H11.0635L11.4435 3.14136C11.6736 3.83952 12.1521 4.42888 12.788 4.79756C13.424 5.16624 14.1732 5.28858 14.8935 5.14136L16.0735 4.90136L17.3535 7.12136L16.5535 8.02136C16.067 8.57012 15.7984 9.27804 15.7984 10.0114C15.7984 10.7447 16.067 11.4526 16.5535 12.0014ZM9.78345 6.00136C8.99233 6.00136 8.21897 6.23596 7.56117 6.67548C6.90337 7.11501 6.39068 7.73972 6.08793 8.47063C5.78518 9.20153 5.70597 10.0058 5.86031 10.7817C6.01465 11.5576 6.39561 12.2704 6.95502 12.8298C7.51443 13.3892 8.22717 13.7702 9.00309 13.9245C9.77901 14.0788 10.5833 13.9996 11.3142 13.6969C12.0451 13.3941 12.6698 12.8814 13.1093 12.2236C13.5489 11.5658 13.7835 10.7925 13.7835 10.0014C13.7835 8.94049 13.362 7.92308 12.6119 7.17293C11.8617 6.42279 10.8443 6.00136 9.78345 6.00136ZM9.78345 12.0014C9.38789 12.0014 9.00121 11.8841 8.67231 11.6643C8.34341 11.4445 8.08707 11.1322 7.93569 10.7667C7.78432 10.4013 7.74471 9.99914 7.82188 9.61118C7.89905 9.22322 8.08953 8.86685 8.36924 8.58715C8.64894 8.30744 9.00531 8.11696 9.39327 8.03979C9.78123 7.96262 10.1834 8.00223 10.5488 8.1536C10.9143 8.30498 11.2266 8.56132 11.4464 8.89022C11.6662 9.21912 11.7835 9.6058 11.7835 10.0014C11.7835 10.5318 11.5727 11.0405 11.1977 11.4156C10.8226 11.7906 10.3139 12.0014 9.78345 12.0014Z" fill="#4B5563"/>
</g>
<defs>
<clipPath id="clip0_1588_8699">
<rect width="20" height="20" fill="white"/>
</clipPath>
</defs>
</svg>
