<svg width="62" height="32" viewBox="0 0 62 32" fill="none" xmlns="http://www.w3.org/2000/svg">
<path d="M24.4509 9.23066C23.6944 9.10231 23.1403 9.52884 22.7129 10.0995C21.807 11.306 21.5177 12.7515 21.3399 14.2325C21.5158 15.5377 20.8936 16.4994 20.1144 17.4117C19.6546 17.9215 19.301 18.5253 19.0757 19.185C18.8505 19.8446 18.7586 20.5459 18.8057 21.2445C18.8353 21.8468 18.9331 22.4433 19.097 23.0216C19.1318 23.1113 19.1597 23.2037 19.1802 23.2981C19.1953 23.4284 19.2634 23.6022 19.1235 23.6772C18.9533 23.7681 18.8455 23.5903 18.783 23.4798C18.6287 23.2059 18.5019 22.916 18.4048 22.6149C17.8431 20.6718 17.9207 18.7979 19.1121 17.0977C19.3775 16.7369 19.6629 16.3928 19.9669 16.0669C20.5343 15.439 20.6269 14.9315 20.2374 14.189C19.2521 12.3151 18.2441 10.451 17.2455 8.58298C16.5893 7.35277 15.9217 6.12651 15.2787 4.89038C15.0652 4.49641 14.7738 4.15445 14.4239 3.88725C13.5653 4.22492 13.3553 4.65144 13.6182 5.54794C13.6735 5.74997 13.7417 5.94789 13.8225 6.14033C14.2139 7.0467 14.6149 7.94911 15.0082 8.85548C15.5491 10.1015 16.1013 11.3416 16.5496 12.6271C16.6139 12.8127 16.7841 13.0437 16.4871 13.1997C16.1316 13.6124 15.8498 13.6341 15.4848 13.2629C14.9175 12.6883 14.5562 11.9616 14.1478 11.2744C13.0622 9.43405 11.9937 7.5917 10.9422 5.74738C10.6888 5.30703 10.2992 5.12339 9.88691 4.94567C9.16259 5.29716 8.96969 5.71578 9.17772 6.50762C9.2858 6.87731 9.43362 7.23304 9.61837 7.56801C10.8022 9.87045 12.0599 12.1295 13.2986 14.3983C13.4167 14.5531 13.4766 14.7477 13.4669 14.9453C13.2059 15.6048 12.6045 15.5496 12.2395 15.0756C11.432 14.0192 10.651 12.941 9.85287 11.8787C9.19852 11.0118 8.52905 10.1548 7.8728 9.29385C7.60768 8.94724 7.25729 8.6824 6.85913 8.52769C6.25206 8.83968 6.02512 9.34914 6.21424 10.0087C6.31579 10.3373 6.4685 10.6462 6.66623 10.9229C7.91819 12.8581 9.1689 14.7913 10.4183 16.7225C10.5375 16.9042 10.7342 17.0839 10.5923 17.3524C10.3143 17.8875 9.79236 17.9942 9.35171 17.5499C8.78435 16.9832 8.26995 16.3829 7.74988 15.7727C7.12768 15.046 6.52628 14.2976 5.91543 13.5591C5.67525 13.2688 5.34807 13.1425 5.01901 12.9944C4.45165 13.3004 4.31171 13.6203 4.45165 14.2325C4.54018 14.5675 4.68909 14.8818 4.89041 15.1586C5.3859 15.8931 5.8795 16.6297 6.39201 17.3504C8.28319 20.0182 10.1744 22.682 12.3795 25.0891C13.8792 26.7202 15.6853 27.4725 17.8469 27.281C17.9262 27.2869 18.0059 27.2869 18.0852 27.281C21.0525 26.9986 23.7323 24.5303 24.3809 21.4913C24.6185 20.2409 24.7162 18.966 24.6722 17.6921C24.6552 16.0156 24.6722 14.3351 24.9218 12.6804C25.0683 11.907 25.1744 11.1258 25.2395 10.3404C25.2925 9.70063 25.0542 9.33335 24.4509 9.23066Z" fill="#FEC928"/>
<path d="M21.3437 14.2325C21.5196 15.5377 20.8974 16.4994 20.1182 17.4117C19.6577 17.9212 19.3034 18.5248 19.0775 19.1845C18.8516 19.8442 18.7591 20.5456 18.8057 21.2445C18.8353 21.8468 18.9331 22.4433 19.097 23.0216C19.1318 23.1113 19.1597 23.2037 19.1802 23.2981C19.1953 23.4284 19.2634 23.6022 19.1235 23.6772C18.9532 23.7681 18.8455 23.5903 18.783 23.4798C18.6287 23.2059 18.5019 22.916 18.4048 22.6149C17.8431 20.6718 17.9207 18.7979 19.1121 17.0977C19.3775 16.7369 19.6629 16.3928 19.9669 16.0669C20.5343 15.439 20.6269 14.9315 20.2374 14.189C19.2521 12.3151 18.2441 10.451 17.2474 8.58299C16.5893 7.35278 15.9236 6.12652 15.2787 4.89039C15.0652 4.49643 14.7738 4.15447 14.4239 3.88727C15.1406 3.72732 15.5416 4.17162 15.8593 4.73045C16.5666 5.96263 17.2606 7.20468 17.9623 8.43884C19.01 10.2818 20.059 12.1249 21.1092 13.9679C21.1716 14.0626 21.2113 14.189 21.3437 14.2325Z" fill="#EDA703"/>
<path d="M17.8469 27.281C17.8715 27.0085 18.106 27.0341 18.2649 26.9808C19.6076 26.5405 20.8388 25.8908 21.8316 24.8304C23.0899 23.5025 23.8312 21.7342 23.9119 19.8681C23.9895 18.6083 23.9271 17.3524 23.9762 16.0965C24.0282 14.2333 24.395 12.3942 25.0599 10.6643C25.1121 10.5538 25.1722 10.4475 25.2395 10.3463C25.1744 11.1318 25.0683 11.9129 24.9218 12.6863C24.6684 14.349 24.6552 16.0215 24.6722 17.698C24.7162 18.9719 24.6185 20.2468 24.3809 21.4972C23.7323 24.5362 21.0525 27.0045 18.0852 27.2869C18.0057 27.2908 17.9261 27.2888 17.8469 27.281Z" fill="#EDA807"/>
<path d="M16.4871 13.18C16.1316 13.5927 15.8498 13.6144 15.4848 13.2432C14.9174 12.6685 14.5562 11.9419 14.1477 11.2547C13.0622 9.42749 11.9937 7.59172 10.9422 5.74739C10.6888 5.30705 10.2992 5.1234 9.88691 4.94569C10.303 4.67318 10.6944 4.77982 11.0727 5.03455C11.3845 5.27052 11.6427 5.57524 11.8292 5.92709C13.129 8.07419 14.427 10.2246 15.7231 12.3783C15.9198 12.6942 16.1146 13.0319 16.4871 13.18Z" fill="#EDA805"/>
<path d="M13.4669 14.9453C13.2059 15.6049 12.6045 15.5496 12.2395 15.0757C11.432 14.0192 10.6509 12.9411 9.85287 11.8787C9.19852 11.0118 8.52904 10.1548 7.8728 9.29388C7.60768 8.94726 7.25729 8.68243 6.85913 8.52771C7.42648 8.29668 7.97114 8.49019 8.48365 9.12011C8.9678 9.72435 9.42925 10.3404 9.91717 10.9486C10.8489 12.1334 11.7825 13.3182 12.718 14.503C12.909 14.7479 13.0962 15.0164 13.4669 14.9453Z" fill="#EDA805"/>
<path d="M7.4643 21.9771C6.93159 21.8096 6.44039 21.5225 6.02511 21.1359C4.9438 20.1391 4.18966 18.8129 3.86917 17.3445C3.81243 17.0918 3.88619 16.9239 4.10935 16.8588C4.33251 16.7936 4.40437 16.9713 4.46867 17.151C5.0852 18.8729 6.07807 20.2868 7.57021 21.2978C7.66309 21.3394 7.73779 21.4157 7.77975 21.5117C7.82171 21.6077 7.82791 21.7166 7.79715 21.8171C7.74987 21.981 7.61371 21.987 7.4643 21.9771Z" fill="#B2BFC6"/>
<path d="M2.62099 18.403C2.60775 18.2173 2.65503 18.0594 2.84604 18.008C3.09 17.9527 3.16754 18.1542 3.22427 18.3358C3.55647 19.2839 4.04481 20.164 4.66724 20.9364C5.13706 21.5254 5.69069 22.0355 6.30879 22.449C6.3784 22.4841 6.43984 22.5346 6.48883 22.597C6.53783 22.6594 6.57319 22.7322 6.59247 22.8104C6.6284 23.0533 6.40335 23.2053 6.12156 23.0987C5.30995 22.7899 4.59767 22.2494 4.06585 21.5387C3.41285 20.705 2.93594 19.7367 2.66637 18.6972C2.64511 18.6002 2.62994 18.502 2.62099 18.403Z" fill="#B2BFC6"/>
<path d="M18.8379 3.68979C19.1252 3.77254 19.394 3.91417 19.6284 4.10644C20.9295 5.05625 21.6538 6.40691 22.0567 7.97478C22.1077 8.17225 22.138 8.37959 22.1739 8.58298C22.1883 8.62569 22.194 8.67111 22.1904 8.71625C22.1869 8.7614 22.1743 8.80525 22.1534 8.84495C22.1325 8.88465 22.1038 8.9193 22.0692 8.94663C22.0346 8.97397 21.9949 8.99337 21.9527 9.00358C21.7371 9.06479 21.6406 8.92657 21.5858 8.7291C21.2799 7.62238 20.7655 6.59054 20.0728 5.69406C19.6773 5.17531 19.2139 4.7173 18.696 4.33353C18.6209 4.28825 18.5618 4.21873 18.5277 4.13541C18.4936 4.05209 18.4863 3.95947 18.5069 3.87146C18.5391 3.70361 18.6715 3.68979 18.8379 3.68979Z" fill="#B2BFC6"/>
<path d="M20.8633 9.6809C20.8791 9.76574 20.8634 9.85366 20.8196 9.92695C20.7757 10.0002 20.7069 10.0534 20.6269 10.0758C20.4038 10.139 20.3111 9.9771 20.26 9.79543C20.0288 8.96164 19.6802 8.16837 19.2256 7.44164C18.7606 6.68403 18.1656 6.02262 17.4706 5.49069C17.4272 5.45898 17.3867 5.4233 17.3495 5.38405C17.2323 5.2557 17.081 5.1234 17.2001 4.92396C17.3193 4.72452 17.5103 4.74624 17.6937 4.82918C18.3499 5.13452 18.9255 5.60135 19.3712 6.18971C20.1336 7.16704 20.6429 8.33246 20.8501 9.57427C20.8558 9.61376 20.8614 9.65721 20.8633 9.6809Z" fill="#B2BFC6"/>
<path d="M10.5923 17.3504C10.3143 17.8856 9.79236 17.9922 9.35171 17.5479C8.78436 16.9812 8.26995 16.3809 7.74988 15.7707C7.12768 15.044 6.52628 14.2956 5.91543 13.5571C5.67525 13.2669 5.34807 13.1405 5.01901 12.9924C5.55043 12.6922 5.98162 12.7653 6.43551 13.2688C7.209 14.1258 7.96736 14.9966 8.73897 15.8536C9.11521 16.2827 9.51964 16.6839 9.94933 17.0542C10.1255 17.226 10.3521 17.3304 10.5923 17.3504Z" fill="#EDA805"/>
<path d="M36.8005 10.4375H38.766V17.2834C38.766 17.9162 38.6297 18.4659 38.3572 18.9325C38.0878 19.3992 37.7128 19.7587 37.2322 20.0112C36.7515 20.2637 36.1928 20.3899 35.556 20.3899C34.9897 20.3899 34.4753 20.286 34.0131 20.0783C33.5539 19.8674 33.1895 19.5478 32.9201 19.1195C32.6507 18.688 32.5176 18.1463 32.5206 17.4943H34.4998C34.506 17.7532 34.5565 17.9753 34.6514 18.1607C34.7493 18.3429 34.8825 18.4835 35.0509 18.5826C35.2223 18.6784 35.4244 18.7264 35.6571 18.7264C35.902 18.7264 36.1086 18.6721 36.277 18.5634C36.4484 18.4515 36.5786 18.2885 36.6673 18.0744C36.7561 17.8603 36.8005 17.5966 36.8005 17.2834V10.4375Z" fill="black"/>
<path d="M42.3846 20.3947C41.9345 20.3947 41.5335 20.3132 41.1814 20.1502C40.8294 19.984 40.5508 19.7395 40.3457 19.4167C40.1436 19.0907 40.0426 18.6848 40.0426 18.199C40.0426 17.79 40.1145 17.4464 40.2584 17.1683C40.4023 16.8903 40.5982 16.6665 40.8462 16.4972C41.0942 16.3278 41.3758 16.1999 41.6912 16.1136C42.0095 16.0273 42.3432 15.9666 42.6922 15.9315C43.1025 15.8867 43.4331 15.8452 43.6842 15.8068C43.9352 15.7653 44.1173 15.7045 44.2306 15.6246C44.3439 15.5447 44.4005 15.4265 44.4005 15.2699V15.2411C44.4005 14.9375 44.3087 14.7026 44.125 14.5364C43.9444 14.3702 43.6872 14.2871 43.3535 14.2871C43.0015 14.2871 42.7213 14.3686 42.5132 14.5316C42.305 14.6914 42.1672 14.8928 42.0999 15.1357L40.2905 14.9822C40.3824 14.5348 40.563 14.1481 40.8324 13.8221C41.1018 13.4929 41.4493 13.2404 41.8748 13.0646C42.3034 12.8857 42.7994 12.7962 43.3627 12.7962C43.7546 12.7962 44.1296 12.8441 44.4878 12.94C44.849 13.0359 45.1689 13.1845 45.4475 13.3858C45.7292 13.5872 45.9511 13.8461 46.1134 14.1625C46.2757 14.4757 46.3568 14.8512 46.3568 15.2891V20.2557H44.5016V19.2346H44.4465C44.3332 19.4647 44.1816 19.6676 43.9918 19.8434C43.802 20.016 43.5739 20.1518 43.3076 20.2509C43.0412 20.3468 42.7336 20.3947 42.3846 20.3947ZM42.9448 18.9853C43.2326 18.9853 43.4867 18.9261 43.7071 18.8079C43.9275 18.6864 44.1005 18.5234 44.226 18.3189C44.3515 18.1143 44.4143 17.8826 44.4143 17.6238V16.8423C44.3531 16.8839 44.2689 16.9222 44.1617 16.9574C44.0576 16.9893 43.9398 17.0197 43.8081 17.0485C43.6765 17.074 43.5449 17.098 43.4132 17.1204C43.2816 17.1396 43.1622 17.1571 43.055 17.1731C42.8254 17.2083 42.6249 17.2642 42.4535 17.3409C42.282 17.4176 42.1488 17.5215 42.0539 17.6525C41.959 17.7804 41.9116 17.9402 41.9116 18.1319C41.9116 18.41 42.008 18.6225 42.2009 18.7695C42.3968 18.9134 42.6448 18.9853 42.9448 18.9853Z" fill="black"/>
<path d="M49.8308 15.9986V20.2557H47.8745V12.892H49.7389V14.1912H49.8216C49.9777 13.763 50.2395 13.4242 50.6068 13.1749C50.9742 12.9224 51.4196 12.7962 51.9431 12.7962C52.433 12.7962 52.86 12.908 53.2244 13.1317C53.5887 13.3555 53.8719 13.6751 54.0739 14.0906C54.276 14.5028 54.377 14.995 54.377 15.5671V20.2557H52.4207V15.9315C52.4238 15.4808 52.3136 15.1293 52.0901 14.8768C51.8666 14.6211 51.5589 14.4933 51.1671 14.4933C50.9038 14.4933 50.6711 14.5524 50.4691 14.6706C50.2701 14.7889 50.1139 14.9615 50.0007 15.1884C49.8905 15.4121 49.8338 15.6822 49.8308 15.9986Z" fill="black"/>
</svg>
