<svg width="21" height="20" viewBox="0 0 21 20" fill="none" xmlns="http://www.w3.org/2000/svg">
<path d="M8.59162 5.24162C8.51415 5.16351 8.42198 5.10151 8.32043 5.05921C8.21888 5.0169 8.10996 4.99512 7.99995 4.99512C7.88994 4.99512 7.78102 5.0169 7.67947 5.05921C7.57792 5.10151 7.48575 5.16351 7.40828 5.24162L3.24162 9.40828C3.16351 9.48575 3.10151 9.57792 3.05921 9.67947C3.0169 9.78102 2.99512 9.88994 2.99512 9.99995C2.99512 10.11 3.0169 10.2189 3.05921 10.3204C3.10151 10.422 3.16351 10.5141 3.24162 10.5916L7.40828 14.7583C7.48575 14.8364 7.57792 14.8984 7.67947 14.9407C7.78102 14.983 7.88994 15.0048 7.99995 15.0048C8.10996 15.0048 8.21888 14.983 8.32043 14.9407C8.42198 14.8984 8.51415 14.8364 8.59162 14.7583C8.66972 14.6808 8.73172 14.5886 8.77402 14.4871C8.81633 14.3855 8.83811 14.2766 8.83811 14.1666C8.83811 14.0566 8.81633 13.9477 8.77402 13.8461C8.73172 13.7446 8.66972 13.6524 8.59162 13.575L5.00828 9.99995L8.59162 6.42495C8.66972 6.34748 8.73172 6.25531 8.77402 6.15376C8.81633 6.05221 8.83811 5.94329 8.83811 5.83328C8.83811 5.72327 8.81633 5.61435 8.77402 5.5128C8.73172 5.41125 8.66972 5.31908 8.59162 5.24162ZM17.7583 9.40828L13.5916 5.24162C13.5139 5.16392 13.4217 5.10228 13.3202 5.06023C13.2186 5.01818 13.1098 4.99654 12.9999 4.99654C12.778 4.99654 12.5652 5.0847 12.4083 5.24162C12.3306 5.31931 12.2689 5.41156 12.2269 5.51307C12.1848 5.61459 12.1632 5.7234 12.1632 5.83328C12.1632 6.0552 12.2514 6.26803 12.4083 6.42495L15.9916 9.99995L12.4083 13.575C12.3302 13.6524 12.2682 13.7446 12.2259 13.8461C12.1836 13.9477 12.1618 14.0566 12.1618 14.1666C12.1618 14.2766 12.1836 14.3855 12.2259 14.4871C12.2682 14.5886 12.3302 14.6808 12.4083 14.7583C12.4858 14.8364 12.5779 14.8984 12.6795 14.9407C12.781 14.983 12.8899 15.0048 12.9999 15.0048C13.11 15.0048 13.2189 14.983 13.3204 14.9407C13.422 14.8984 13.5141 14.8364 13.5916 14.7583L17.7583 10.5916C17.8364 10.5141 17.8984 10.422 17.9407 10.3204C17.983 10.2189 18.0048 10.11 18.0048 9.99995C18.0048 9.88994 17.983 9.78102 17.9407 9.67947C17.8984 9.57792 17.8364 9.48575 17.7583 9.40828Z" fill="#374151"/>
</svg>
