<svg width="16" height="16" viewBox="0 0 16 16" fill="none" xmlns="http://www.w3.org/2000/svg">
<path d="M16 13.3371C16 14.1449 15.5635 14.8 15.0254 14.8H0.974573C0.436327 14.8 0 14.1449 0 13.3371V3.46307C0 2.65488 0.436327 2 0.974573 2H15.0254C15.5635 2 16 2.65488 16 3.46307V13.3371Z" fill="#98CBF9"/>
<path d="M15.0505 2.33301H1.36558C0.841125 2.33301 0.41626 2.97078 0.41626 3.75796V13.3751C0.41626 14.1618 0.841125 14.7998 1.36558 14.7998H15.0252C15.5634 14.7998 16 14.1447 16 13.3369V3.75796C16 2.97078 15.5749 2.33301 15.0505 2.33301Z" fill="#98CBF9"/>
<path d="M0.959961 3.43996C0.959961 3.17486 1.17486 2.95996 1.43996 2.95996H14.56C14.8251 2.95996 15.04 3.17486 15.04 3.43996V13.36C15.04 13.6251 14.8251 13.84 14.56 13.84H1.43996C1.17486 13.84 0.959961 13.6251 0.959961 13.36V3.43996Z" stroke="#202020" stroke-width="0.32" stroke-miterlimit="10"/>
<path d="M1.92004 3.91992H14.08V12.8799H1.92004V3.91992Z" fill="#202020"/>
<path d="M5.11995 7.75984H3.19995V5.83984H5.11995V7.75984Z" fill="white"/>
<path d="M3.84009 7.75998H5.12009V6.47998H3.84009V7.75998Z" fill="#98CBF9"/>
<path d="M5.11995 7.75984H3.19995V5.83984H5.11995V7.75984Z" fill="white"/>
<path d="M3.84009 7.75998H5.12009V6.47998H3.84009V7.75998Z" fill="#98CBF9"/>
<path d="M12.8 7.75984H10.88V5.83984H12.8V7.75984Z" fill="white"/>
<path d="M11.5199 7.75998H12.7999V6.47998H11.5199V7.75998Z" fill="#98CBF9"/>
<path d="M12.8 11.5999H3.19995V9.67993H12.8V11.5999Z" fill="white"/>
<path d="M12.8001 11.5998H3.84009V10.3198H12.8001V11.5998Z" fill="#98CBF9"/>
</svg>
