<?xml version="1.0" encoding="utf-8"?>
<!-- Generator: Adobe Illustrator 25.4.1, SVG Export Plug-In . SVG Version: 6.00 Build 0)  -->
<svg version="1.1" id="Layer_1" xmlns="http://www.w3.org/2000/svg" xmlns:xlink="http://www.w3.org/1999/xlink" x="0px" y="0px"
	 viewBox="0 0 56.2 41.4" style="enable-background:new 0 0 56.2 41.4;" xml:space="preserve">
<style type="text/css">
	.st0{fill:#4D6BFE;}
</style>
<desc>Created with Pixso.</desc>
<path id="path_00000023980838171174838950000018388351879808150157_" class="st0" d="M55.6,3.5C55,3.2,54.8,3.7,54.4,4
	c-0.1,0.1-0.2,0.2-0.3,0.3c-0.9,0.9-1.9,1.5-3.2,1.5c-1.9-0.1-3.6,0.5-5.1,2c-0.3-1.8-1.3-2.9-2.9-3.6c-0.8-0.4-1.7-0.7-2.2-1.5
	c-0.4-0.6-0.5-1.2-0.7-1.8c-0.1-0.4-0.3-0.8-0.7-0.8c-0.5-0.1-0.7,0.3-0.8,0.6c-0.7,1.3-1,2.8-1,4.3c0.1,3.4,1.5,6,4.3,7.9
	c0.3,0.2,0.4,0.4,0.3,0.8c-0.2,0.7-0.4,1.3-0.6,1.9c-0.1,0.4-0.3,0.5-0.8,0.3c-1.5-0.6-2.9-1.6-4.1-2.8c-2-1.9-3.8-4.1-6.1-5.8
	C30,7,29.4,6.7,28.9,6.3c-2.3-2.2,0.3-4.1,0.9-4.3C30.4,1.8,30,1,28,1c-2,0-3.9,0.7-6.3,1.6c-0.3,0.1-0.7,0.2-1.1,0.3
	c-2.2-0.4-4.4-0.5-6.8-0.2C9.4,3.2,5.9,5.3,3.3,8.8C0.2,13.1-0.5,18,0.4,23.1c0.9,5.3,3.7,9.8,7.9,13.2c4.4,3.6,9.4,5.3,15.1,5
	c3.5-0.2,7.3-0.7,11.7-4.4c1.1,0.5,2.3,0.8,4.2,0.9c1.5,0.1,2.9-0.1,4-0.3c1.7-0.4,1.6-2,1-2.3c-5-2.4-3.9-1.4-4.9-2.2
	c2.6-3,6.4-6.2,7.9-16.4c0.1-0.8,0-1.3,0-2c0-0.4,0.1-0.6,0.5-0.6c1.3-0.1,2.5-0.5,3.6-1.1c3.3-1.8,4.6-4.7,4.9-8.2
	C56.2,4.3,56.2,3.8,55.6,3.5z M27.1,35.1c-4.9-3.8-7.3-5.1-8.2-5.1c-0.9,0.1-0.8,1.1-0.5,1.8c0.2,0.7,0.5,1.1,0.9,1.7
	c0.3,0.4,0.4,1-0.3,1.4c-1.6,1-4.3-0.3-4.4-0.4c-3.2-1.9-5.9-4.4-7.7-7.7c-1.8-3.3-2.9-6.8-3-10.5c0-0.9,0.2-1.2,1.1-1.4
	c1.2-0.2,2.4-0.3,3.6-0.1c5,0.7,9.2,3,12.8,6.5c2,2,3.6,4.4,5.2,6.8c1.7,2.5,3.5,4.9,5.8,6.8c0.8,0.7,1.5,1.2,2.1,1.6
	C32.4,36.8,29.3,36.8,27.1,35.1z M29.5,20c0-0.4,0.3-0.7,0.7-0.7c0.1,0,0.2,0,0.2,0c0.1,0,0.2,0.1,0.3,0.2c0.1,0.1,0.2,0.3,0.2,0.5
	c0,0.4-0.3,0.7-0.7,0.7C29.8,20.8,29.5,20.4,29.5,20z M36.7,23.8c-0.5,0.2-0.9,0.4-1.4,0.4c-0.7,0-1.5-0.2-1.9-0.6
	c-0.6-0.5-1.1-0.8-1.3-1.8c-0.1-0.4,0-1,0-1.4c0.2-0.8,0-1.3-0.6-1.7c-0.4-0.4-1-0.5-1.6-0.5c-0.2,0-0.4-0.1-0.6-0.2
	c-0.3-0.1-0.5-0.4-0.3-0.8c0.1-0.1,0.4-0.4,0.4-0.5c0.8-0.5,1.8-0.3,2.7,0c0.8,0.3,1.4,1,2.3,1.8c0.9,1.1,1.1,1.3,1.6,2.1
	c0.4,0.6,0.8,1.3,1,2C37.5,23.2,37.3,23.6,36.7,23.8z"/>
</svg>
