<?xml version="1.0" encoding="UTF-8" standalone="no"?>
<!-- Created with Inkscape (http://www.inkscape.org/) -->

<svg
   width="135.16718mm"
   height="116.30647mm"
   viewBox="0 0 135.16718 116.30647"
   version="1.1"
   id="svg1"
   xml:space="preserve"
   inkscape:version="1.4 (86a8ad7, 2024-10-11)"
   sodipodi:docname="featherless-icon.svg"
   xmlns:inkscape="http://www.inkscape.org/namespaces/inkscape"
   xmlns:sodipodi="http://sodipodi.sourceforge.net/DTD/sodipodi-0.dtd"
   xmlns="http://www.w3.org/2000/svg"
   xmlns:svg="http://www.w3.org/2000/svg"><sodipodi:namedview
     id="namedview1"
     pagecolor="#ffffff"
     bordercolor="#000000"
     borderopacity="0.25"
     inkscape:showpageshadow="2"
     inkscape:pageopacity="0.0"
     inkscape:pagecheckerboard="0"
     inkscape:deskcolor="#d1d1d1"
     inkscape:document-units="mm"
     inkscape:zoom="1.0267829"
     inkscape:cx="195.27009"
     inkscape:cy="163.13088"
     inkscape:window-width="1920"
     inkscape:window-height="1017"
     inkscape:window-x="1912"
     inkscape:window-y="-8"
     inkscape:window-maximized="1"
     inkscape:current-layer="layer1" /><defs
     id="defs1" /><g
     inkscape:label="Layer 1"
     inkscape:groupmode="layer"
     id="layer1"
     transform="translate(-41.878469,-93.885557)"><g
       style="fill:#ffff84;fill-opacity:1"
       id="g1"
       transform="matrix(3.7546438,0,0,3.7546438,19.350606,82.621626)"><path
         d="M 40.0866,4.68482 C 38.2902,3.5825 35.863,3 33.0672,3 28.7842,3 24.0653,4.35865 19.8276,6.72206 L 19.7979,6.71083 c 0,0 -0.0042,0.02261 -0.0065,0.0334 C 18.5086,7.4617 17.2656,8.2629 16.0981,9.15731 9.22112,14.4248 7.29519,20.6748 8.92004,24.0156 7.14142,27.0728 6.0457,30.2332 6,33.9767 9.41949,27.421 11.4719,22.108 22.6146,13.1637 c -3.1837,0.6864 -8.6865,3.942 -12.3875,8.8822 -0.34917,-2.8899 1.9206,-7.5564 6.9762,-11.4285 0.6402,-0.4904 1.3059,-0.94876 1.9853,-1.38366 -0.5309,1.65966 -0.3617,1.24686 -1.4632,3.57386 1.6289,-1.551 2.7014,-2.5081 4.3096,-5.16615 2.088,-1.03181 4.2598,-1.80301 6.4132,-2.2691 -0.3563,1.18836 -1.0345,3.20231 -1.9527,4.79455 0,0 2.3303,-0.50255 4.2563,-0.38902 -1.0523,1.16802 -1.9991,2.43152 -2.9592,3.72332 -1.3149,1.7684 -2.6742,3.5971 -4.4148,5.2993 -0.2095,0.2049 -0.4098,0.3907 -0.6129,0.5825 -2.6747,-0.2576 -4.4414,0.7485 -6.0966,2.5259 1.3054,-0.6123 3.059,-1.1165 4.1583,-0.813 -2.0258,1.662 -5.216,3.8529 -7.8373,3.6725 -0.4971,0.7611 -0.5285,0.7844 -1.0749,1.7038 4.252,1.0648 9.5926,-3.2817 12.7354,-6.3561 1.8428,-1.803 3.2466,-3.6904 4.6036,-5.5149 2.7947,-3.7585 5.2082,-7.0038 10.5619,-8.2388 L 42,5.85877 Z"
         class="logo-mark"
         fill="currentColor"
         id="path1"
         style="fill:#ffff84;fill-opacity:1" /></g></g></svg>
