<svg width="36" height="36" viewBox="0 0 36 36" fill="none" xmlns="http://www.w3.org/2000/svg">
<style> 
  path {
    fill: #FFD040;
  }
  @media (prefers-color-scheme: dark) {
    path { fill: #FFE184; }
  }
</style>
<path d="M34.0866 4.68482C32.2902 3.5825 29.863 3 27.0672 3C22.7842 3 18.0653 4.35865 13.8276 6.72206L13.7979 6.71083C13.7979 6.71083 13.7937 6.73344 13.7914 6.74423C12.5086 7.4617 11.2656 8.2629 10.0981 9.15731C3.22112 14.4248 1.29519 20.6748 2.92004 24.0156C1.14142 27.0728 0.045698 30.2332 0 33.9767C3.41949 27.421 5.47185 22.108 16.6146 13.1637C13.4309 13.8501 7.92808 17.1057 4.22713 22.0459C3.87793 19.156 6.1477 14.4895 11.2033 10.6174C11.8435 10.127 12.5092 9.66864 13.1886 9.23374C12.6577 10.8934 12.8269 10.4806 11.7254 12.8076C13.3543 11.2566 14.4268 10.2995 16.035 7.64145C18.123 6.60964 20.2948 5.83844 22.4482 5.37235C22.0919 6.56071 21.4137 8.57466 20.4955 10.1669C20.4955 10.1669 22.8258 9.66435 24.7518 9.77788C23.6995 10.9459 22.7527 12.2094 21.7926 13.5012C20.4777 15.2696 19.1184 17.0983 17.3778 18.8005C17.1683 19.0054 16.968 19.1912 16.7649 19.383C14.0902 19.1254 12.3235 20.1315 10.6683 21.9089C11.9737 21.2966 13.7273 20.7924 14.8266 21.0959C12.8008 22.7579 9.6106 24.9488 6.98929 24.7684C6.4922 25.5295 6.46075 25.5528 5.91436 26.4722C10.1664 27.537 15.507 23.1905 18.6498 20.1161C20.4926 18.3131 21.8964 16.4257 23.2534 14.6012C26.0481 10.8427 28.4616 7.5974 33.8153 6.3624L36 5.85877L34.0866 4.68482Z" />
</svg>
