<svg width="16" height="16" viewBox="0 0 16 16" fill="none" xmlns="http://www.w3.org/2000/svg">
<g clip-path="url(#clip0_3571_178)">
<path d="M9.36718 16C12.8752 16 15.719 13.0785 15.719 9.47471C15.719 5.87092 12.8752 2.94946 9.36718 2.94946C5.85918 2.94946 3.01538 5.87092 3.01538 9.47471C3.01538 13.0785 5.85918 16 9.36718 16Z" fill="#FF563F"/>
<path fill-rule="evenodd" clip-rule="evenodd" d="M2.97746 10.1876C4.96849 12.1786 8.1966 12.1786 10.1876 10.1876C12.1786 8.1966 12.1786 4.96849 10.1876 2.97746C8.1966 0.986425 4.96849 0.986425 2.97746 2.97746C0.986425 4.96849 0.986425 8.1966 2.97746 10.1876ZM11.2371 11.2371C8.66645 13.8077 4.49863 13.8077 1.92798 11.2371C-0.64266 8.66645 -0.64266 4.49863 1.92798 1.92798C4.49863 -0.64266 8.66645 -0.64266 11.2371 1.92798C13.8077 4.49863 13.8077 8.66645 11.2371 11.2371Z" fill="#0C0C0C"/>
</g>
<defs>
<clipPath id="clip0_3571_178">
<rect width="16" height="16" fill="white"/>
</clipPath>
</defs>
</svg>
