<svg width="32" height="32" viewBox="0 0 32 32" fill="none" xmlns="http://www.w3.org/2000/svg">
<g clip-path="url(#clip0_3656_85650)">
<path d="M18.7344 31.9999C25.7504 31.9999 31.438 26.157 31.438 18.9494C31.438 11.7418 25.7504 5.89893 18.7344 5.89893C11.7184 5.89893 6.03076 11.7418 6.03076 18.9494C6.03076 26.157 11.7184 31.9999 18.7344 31.9999Z" fill="#FF563F"/>
<path fill-rule="evenodd" clip-rule="evenodd" d="M5.95491 20.3753C9.93698 24.3573 16.3932 24.3573 20.3753 20.3753C24.3573 16.3932 24.3573 9.93698 20.3753 5.95491C16.3932 1.97285 9.93698 1.97285 5.95491 5.95491C1.97285 9.93698 1.97285 16.3932 5.95491 20.3753ZM22.4742 22.4742C17.3329 27.6155 8.99725 27.6155 3.85596 22.4742C-1.28532 17.3329 -1.28532 8.99725 3.85596 3.85596C8.99725 -1.28532 17.3329 -1.28532 22.4742 3.85596C27.6155 8.99725 27.6155 17.3329 22.4742 22.4742Z" fill="#0C0C0C"/>
</g>
<defs>
<clipPath id="clip0_3656_85650">
<rect width="32" height="32" fill="white"/>
</clipPath>
</defs>
</svg>
