<svg width="16" height="16" viewBox="0 0 16 16" fill="none" xmlns="http://www.w3.org/2000/svg">
<path d="M4.59752 3.00269C4.59223 3.00269 4.58695 3.00269 4.58167 3.00269L4.56055 4.73761C4.56583 4.73761 4.57111 4.73761 4.57375 4.73761C5.71716 4.73761 6.60443 5.63808 8.53477 8.88084L8.6536 9.07889L8.66152 9.09209L9.74156 7.47599L9.73363 7.46279C9.48013 7.05084 9.23455 6.67059 9.00217 6.32466C8.73018 5.92328 8.47139 5.56414 8.21789 5.24462C6.94244 3.6206 5.87296 3.00269 4.59752 3.00269Z" fill="url(#paint0_linear_3534_109)"/>
<path d="M4.5817 3.00264C3.29833 3.00792 2.16548 3.8371 1.34423 5.10462C1.34159 5.10726 1.33894 5.11254 1.3363 5.11518L2.83885 5.93115C2.84149 5.92851 2.84413 5.92323 2.84677 5.92059C3.32473 5.20233 3.92153 4.74285 4.55793 4.73493C4.56321 4.73493 4.56849 4.73493 4.57113 4.73493L4.59226 3C4.59226 3.00264 4.58698 3.00264 4.5817 3.00264Z" fill="url(#paint1_linear_3534_109)"/>
<path d="M1.34687 5.10449C1.34423 5.10713 1.34159 5.11241 1.33895 5.11505C0.800247 5.95215 0.398864 6.97673 0.182328 8.08582C0.182328 8.0911 0.179688 8.09638 0.179688 8.09902L1.86972 8.49776C1.86972 8.49248 1.87236 8.4872 1.87236 8.48456C2.05193 7.51015 2.39786 6.60968 2.84413 5.93366C2.84677 5.93102 2.84941 5.92574 2.85205 5.9231L1.34687 5.10449Z" fill="url(#paint2_linear_3534_109)"/>
<path d="M1.87249 8.48444L0.182451 8.08569C0.182451 8.09097 0.17981 8.09626 0.17981 8.0989C0.0609798 8.70889 0.000244141 9.32681 0.000244141 9.94737C0.000244141 9.95265 0.000244141 9.95793 0.000244141 9.96322L1.73253 10.119C1.73253 10.1137 1.73253 10.1085 1.73253 10.1032C1.73253 10.0662 1.73253 10.0319 1.73253 9.9949C1.73253 9.49317 1.78006 8.99145 1.86984 8.50028C1.86984 8.49236 1.86984 8.48972 1.87249 8.48444Z" fill="url(#paint3_linear_3534_109)"/>
<path d="M1.78525 10.6581C1.75356 10.4785 1.73772 10.299 1.73244 10.1194C1.73244 10.1141 1.73244 10.1088 1.73244 10.1036L0.000152346 9.94775C0.000152346 9.95304 0.000152346 9.95832 0.000152346 9.9636C-0.00248833 10.3254 0.0292 10.6871 0.0952169 11.0463C0.0952169 11.0516 0.0978575 11.0568 0.0978575 11.0595L1.78789 10.6713C1.78525 10.6687 1.78525 10.6634 1.78525 10.6581Z" fill="url(#paint4_linear_3534_109)"/>
<path d="M2.17871 11.5531C1.99122 11.3472 1.85655 11.0514 1.78789 10.6712C1.78789 10.6659 1.78525 10.6606 1.78525 10.658L0.0952148 11.0461C0.0952148 11.0514 0.0978555 11.0567 0.0978555 11.0593C0.224608 11.7301 0.475472 12.2873 0.834605 12.7098C0.837245 12.7124 0.839886 12.7177 0.845167 12.7203L2.18927 11.5637C2.18663 11.5611 2.18399 11.5558 2.17871 11.5531Z" fill="url(#paint5_linear_3534_109)"/>
<path d="M7.18547 6.75244C6.16617 8.31308 5.55089 9.29013 5.55089 9.29013C4.19358 11.4132 3.72618 11.8886 2.97095 11.8886C2.65671 11.8886 2.39264 11.7777 2.19195 11.5611C2.18931 11.5585 2.18403 11.5532 2.18139 11.5506L0.83728 12.7072C0.839921 12.7098 0.842562 12.7151 0.847843 12.7177C1.34429 13.2934 2.04143 13.6129 2.90757 13.6129C4.21735 13.6129 5.15743 12.9976 6.83162 10.0771C6.83162 10.0771 7.52876 8.8465 8.00936 7.99884C7.70568 7.52616 7.43634 7.11157 7.18547 6.75244Z" fill="#0082FB"/>
<path d="M9.00218 4.29126C8.99954 4.2939 8.99426 4.29918 8.99161 4.30182C8.71698 4.60022 8.4582 4.91446 8.2179 5.2419C8.46876 5.56143 8.73019 5.92056 9.00218 6.32458C9.3217 5.83077 9.6201 5.43203 9.91321 5.12571C9.91585 5.12307 9.92113 5.11779 9.92377 5.11515L9.00218 4.29126Z" fill="url(#paint6_linear_3534_109)"/>
<path d="M13.9456 4.13818C13.2353 3.42255 12.3876 3.00269 11.4845 3.00269C10.5312 3.00269 9.72581 3.52554 9.00226 4.29134C8.99962 4.29398 8.99434 4.29926 8.9917 4.3019L9.9133 5.12315C9.91594 5.12051 9.92122 5.11523 9.92386 5.11259C10.4018 4.61614 10.8639 4.37056 11.3736 4.37056C11.9255 4.37056 12.4404 4.62934 12.8867 5.08354C12.8893 5.08618 12.8946 5.09146 12.8973 5.0941L13.9562 4.14874C13.9535 4.1461 13.9483 4.14346 13.9456 4.13818Z" fill="#0082FB"/>
<path d="M15.9974 9.72058C15.9578 7.42055 15.1524 5.36346 13.9535 4.14875C13.9509 4.14611 13.9456 4.14082 13.9429 4.13818L12.884 5.08355C12.8867 5.08619 12.892 5.09147 12.8946 5.09411C13.7951 6.01835 14.413 7.73479 14.4684 9.72058C14.4684 9.72586 14.4684 9.73114 14.4684 9.73642H15.9974C16 9.73114 15.9974 9.72586 15.9974 9.72058Z" fill="url(#paint7_linear_3534_109)"/>
<path d="M16 9.7363C16 9.73102 16 9.72574 16 9.72046H14.4711C14.4711 9.72574 14.4711 9.73102 14.4711 9.7363C14.4737 9.82873 14.4737 9.92379 14.4737 10.0162C14.4737 10.5576 14.3919 10.9959 14.2281 11.3101C14.2255 11.3154 14.2229 11.3207 14.2202 11.3234L15.3583 12.5064C15.361 12.5011 15.3636 12.4985 15.3663 12.4932C15.7809 11.8568 15.9974 10.9721 15.9974 9.89738C16 9.84457 16 9.78912 16 9.7363Z" fill="url(#paint8_linear_3534_109)"/>
<path d="M14.2282 11.3101C14.2256 11.3153 14.2229 11.3206 14.2203 11.3233C14.0777 11.59 13.8744 11.7669 13.6077 11.8435L14.1279 13.4781C14.1965 13.4543 14.2626 13.4279 14.3286 13.3988C14.3471 13.3909 14.3682 13.3804 14.3867 13.3724C14.3972 13.3671 14.4078 13.3619 14.4184 13.3566C14.7643 13.1823 15.0627 12.9262 15.2871 12.6093C15.3003 12.5881 15.3162 12.5697 15.3294 12.5485C15.34 12.5353 15.3479 12.5195 15.3584 12.5063C15.3611 12.501 15.3637 12.4984 15.3664 12.4931L14.2282 11.3101Z" fill="url(#paint9_linear_3534_109)"/>
<path d="M13.2801 11.891C13.1164 11.8936 12.9527 11.862 12.8021 11.7986L12.2714 13.4728C12.5698 13.5758 12.8893 13.6207 13.2458 13.6207C13.5521 13.6233 13.8558 13.5758 14.1462 13.4781L13.626 11.8435C13.5125 11.8752 13.3963 11.891 13.2801 11.891Z" fill="url(#paint10_linear_3534_109)"/>
<path d="M12.216 11.3182C12.2133 11.3155 12.2107 11.3103 12.2054 11.3076L10.9828 12.5778C10.9854 12.5804 10.9907 12.5857 10.9934 12.5883C11.4185 13.0399 11.8252 13.3225 12.2846 13.4756L12.8154 11.8041C12.6226 11.7196 12.4325 11.569 12.216 11.3182Z" fill="url(#paint11_linear_3534_109)"/>
<path d="M12.2054 11.3074C11.8383 10.8823 11.3841 10.1719 10.6711 9.02588L9.73896 7.47316L9.73104 7.45996L8.651 9.07606L8.65892 9.08926L9.31909 10.1957C9.95814 11.2625 10.4784 12.0363 10.9827 12.575C10.9854 12.5776 10.9906 12.5829 10.9933 12.5855L12.2159 11.3154C12.2133 11.3154 12.208 11.3101 12.2054 11.3074Z" fill="url(#paint12_linear_3534_109)"/>
<defs>
<linearGradient id="paint0_linear_3534_109" x1="9.01739" y1="8.43763" x2="5.44023" y2="3.74298" gradientUnits="userSpaceOnUse">
<stop offset="0.0006" stop-color="#0867DF"/>
<stop offset="0.4539" stop-color="#0668E1"/>
<stop offset="0.8591" stop-color="#0064E0"/>
</linearGradient>
<linearGradient id="paint1_linear_3534_109" x1="2.04645" y1="5.39837" x2="4.50086" y2="3.5321" gradientUnits="userSpaceOnUse">
<stop offset="0.1323" stop-color="#0064DF"/>
<stop offset="0.9988" stop-color="#0064E0"/>
</linearGradient>
<linearGradient id="paint2_linear_3534_109" x1="1.0039" y1="8.12949" x2="1.98693" y2="5.65105" gradientUnits="userSpaceOnUse">
<stop offset="0.0147" stop-color="#0072EC"/>
<stop offset="0.6881" stop-color="#0064DF"/>
</linearGradient>
<linearGradient id="paint3_linear_3534_109" x1="0.869701" y1="9.91881" x2="0.983398" y2="8.40577" gradientUnits="userSpaceOnUse">
<stop offset="0.0731" stop-color="#007CF6"/>
<stop offset="0.9943" stop-color="#0072EC"/>
</linearGradient>
<linearGradient id="paint4_linear_3534_109" x1="0.932222" y1="10.741" x2="0.850892" y2="10.1348" gradientUnits="userSpaceOnUse">
<stop offset="0.0731" stop-color="#007FF9"/>
<stop offset="1" stop-color="#007CF6"/>
</linearGradient>
<linearGradient id="paint5_linear_3534_109" x1="0.884741" y1="10.8998" x2="1.39186" y2="11.9771" gradientUnits="userSpaceOnUse">
<stop offset="0.0731" stop-color="#007FF9"/>
<stop offset="1" stop-color="#0082FB"/>
</linearGradient>
<linearGradient id="paint6_linear_3534_109" x1="8.69922" y1="5.69107" x2="9.36998" y2="4.76191" gradientUnits="userSpaceOnUse">
<stop offset="0.2799" stop-color="#007FF8"/>
<stop offset="0.9141" stop-color="#0082FB"/>
</linearGradient>
<linearGradient id="paint7_linear_3534_109" x1="13.8102" y1="4.48732" x2="15.2122" y2="9.65292" gradientUnits="userSpaceOnUse">
<stop stop-color="#0082FB"/>
<stop offset="0.9995" stop-color="#0081FA"/>
</linearGradient>
<linearGradient id="paint8_linear_3534_109" x1="15.5531" y1="9.84896" x2="14.6655" y2="11.6455" gradientUnits="userSpaceOnUse">
<stop offset="0.0619" stop-color="#0081FA"/>
<stop offset="1" stop-color="#0080F9"/>
</linearGradient>
<linearGradient id="paint9_linear_3534_109" x1="13.9578" y1="12.5974" x2="14.7888" y2="12.0305" gradientUnits="userSpaceOnUse">
<stop stop-color="#027AF3"/>
<stop offset="1" stop-color="#0080F9"/>
</linearGradient>
<linearGradient id="paint10_linear_3534_109" x1="12.6527" y1="12.7075" x2="13.8086" y2="12.7075" gradientUnits="userSpaceOnUse">
<stop stop-color="#0377EF"/>
<stop offset="0.9994" stop-color="#0279F1"/>
</linearGradient>
<linearGradient id="paint11_linear_3534_109" x1="11.6481" y1="12.0716" x2="12.4784" y2="12.5608" gradientUnits="userSpaceOnUse">
<stop offset="0.0019" stop-color="#0471E9"/>
<stop offset="1" stop-color="#0377EF"/>
</linearGradient>
<linearGradient id="paint12_linear_3534_109" x1="9.11475" y1="8.47073" x2="11.7718" y2="11.8166" gradientUnits="userSpaceOnUse">
<stop offset="0.2765" stop-color="#0867DF"/>
<stop offset="1" stop-color="#0471E9"/>
</linearGradient>
</defs>
</svg>
