<?xml version="1.0" encoding="utf-8"?>
<!-- Generator: Adobe Illustrator 27.2.0, SVG Export Plug-In . SVG Version: 6.00 Build 0)  -->
<svg version="1.1" id="Layer_1" xmlns="http://www.w3.org/2000/svg" xmlns:xlink="http://www.w3.org/1999/xlink" x="0px" y="0px"
	 viewBox="0 0 512 512" style="enable-background:new 0 0 512 512;" xml:space="preserve">
<style type="text/css">
	.st0{fill:#0EA282;}
	.st1{fill:#FFFFFF;}
</style>
<g>
	<rect x="0" y="0" class="st0" width="512" height="512"/>
	<path class="st1" d="M235.6,63.6c-42.1,0-79.6,27.1-92.6,67.1c-27.1,5.6-50.5,22.5-64.2,46.5c-21.1,36.5-16.3,82.3,12,113.6
		c-8.7,26.2-5.7,54.8,8.2,78.6c21,36.6,63.3,55.4,104.6,46.6c18.3,20.6,44.6,32.4,72.3,32.3c42.1,0,79.6-27.1,92.6-67.1
		c27.1-5.6,50.5-22.5,64.1-46.5c21.3-36.5,16.4-82.3-11.9-113.6V221c8.7-26.2,5.7-54.9-8.2-78.7c-21-36.5-63.3-55.2-104.5-46.5
		C289.6,75.2,263.3,63.5,235.6,63.6z M235.6,88.7l-0.1,0.1c17,0,33.3,5.9,46.3,16.7c-0.5,0.3-1.6,0.9-2.3,1.3L202.8,151
		c-3.9,2.2-6.3,6.4-6.3,10.9v103.7l-33-19v-85.7C163.5,121,195.8,88.7,235.6,88.7z M328,118.8c25.9,0,49.8,13.7,62.7,36.1
		c8.3,14.6,11.5,31.7,8.6,48.2c-0.5-0.4-1.6-0.9-2.2-1.3l-76.7-44.3c-3.9-2.2-8.7-2.2-12.6,0l-89.9,51.9v-38l74.2-42.9
		C303,122.2,315.4,118.9,328,118.8z M138.3,158.2v91.1c0,4.6,2.3,8.6,6.3,10.9l89.7,51.7l-33.1,19.2l-74.1-42.7
		c-34.5-20-46.3-64-26.3-98.5C109.2,175.3,122.5,164.1,138.3,158.2z M310.2,180.8l74.2,42.7c34.6,19.9,46.3,64,26.3,98.5l0.1,0.1
		c-8.5,14.6-21.8,25.8-37.6,31.5v-91.1c0-4.6-2.3-8.7-6.3-10.9L277,199.7L310.2,180.8z M255.7,212.2l37.8,21.9v43.6l-37.8,21.9
		l-37.8-21.9V234L255.7,212.2z M315.2,246.6l33,19v85.6c0,39.9-32.3,72.2-72.1,72.2v-0.1c-16.8,0-33.3-5.9-46.2-16.7
		c0.5-0.3,1.7-0.9,2.3-1.3l76.7-44.2c3.9-2.2,6.4-6.4,6.3-10.9V246.6z M293.7,302.6v38l-74.2,42.7c-34.6,19.8-78.7,8.1-98.6-26.3
		h0.1c-8.5-14.5-11.5-31.7-8.6-48.2c0.5,0.4,1.6,0.9,2.2,1.3l76.7,44.3c3.9,2.2,8.7,2.2,12.6,0L293.7,302.6z"/>
</g>
</svg>
