<svg width="40" height="28" viewBox="0 0 40 28" fill="none" xmlns="http://www.w3.org/2000/svg">
<g clip-path="url(#clip0_12055_97342)">
<g clip-path="url(#clip1_12055_97342)">
<path d="M37.725 8.38206C36.4708 7.58043 35.6328 8.80899 35.7356 10.4771L35.7252 10.4897C35.7287 8.74774 35.5022 6.82384 34.7496 5.26743C34.4831 4.7162 33.9431 3.8101 32.8752 4.23703C32.4066 4.42437 31.9816 4.98821 32.2011 6.44375C32.2011 6.44375 32.445 7.97134 32.3997 9.89164V9.91866C32.0948 4.62253 30.9451 3.00667 29.3006 3.11115C28.7745 3.20843 28.0551 3.44441 28.2972 5.07288C28.2972 5.07288 28.5603 6.7716 28.6456 8.12446L28.6509 8.19291H28.6456C27.8722 5.27284 26.8305 5.23321 26.0762 5.34669C25.3916 5.44937 24.6442 6.18795 25.0223 7.64348C26.2086 12.21 25.9769 17.7097 25.888 18.4969C25.6459 17.9583 25.571 17.5314 25.2348 16.9405C23.883 14.5681 23.2402 14.3933 22.451 14.3573C21.6671 14.3213 20.8205 14.8239 20.8763 15.7804C20.9338 16.737 21.4024 16.8955 22.0678 18.2285C22.5869 19.2661 22.735 20.6262 23.7802 23.0977C24.646 25.1441 26.9089 27.3887 31.0305 27.1221C34.3699 27.0068 39.3573 25.7926 38.4897 17.8196C38.2737 16.4343 38.4357 15.2742 38.549 14.0853C38.7249 12.2407 38.9827 9.18368 37.7267 8.38026L37.725 8.38206Z" fill="#FFE165"/>
<path d="M16.8732 14.4132C16.084 14.4654 15.4465 14.651 14.1365 17.0486C13.8107 17.6449 13.7445 18.0736 13.5111 18.6159C13.4083 17.8304 13.0791 12.3362 14.1835 7.74798C14.5354 6.28704 13.7759 5.56288 13.0895 5.47281C12.3335 5.37373 11.29 5.43318 10.5688 8.38208H10.5601L10.5706 8.29741C10.6315 6.94276 10.865 5.24043 10.865 5.24043C11.0757 3.60655 10.3546 3.38498 9.82673 3.29671C8.18575 3.22466 7.06738 4.84772 6.85137 10.097H6.84789C6.77298 8.19653 6.98725 6.68335 6.98725 6.68335C7.18061 5.22241 6.74511 4.66758 6.27302 4.48924C5.1982 4.08213 4.67386 4.99904 4.41778 5.55567C3.6931 7.1265 3.49974 9.054 3.53458 10.796L3.52413 10.7833C3.59555 9.11345 2.73674 7.9011 1.49643 8.72614C0.256114 9.55299 0.567934 12.6046 0.776976 14.4456C0.912853 15.6327 1.09402 16.7892 0.9024 18.1781C0.177724 26.1655 5.18601 27.2842 8.52719 27.3365C12.6523 27.5256 14.8751 25.236 15.7043 23.1734C16.7042 20.6839 16.8296 19.3202 17.3296 18.2736C17.9706 16.9279 18.4375 16.7604 18.4776 15.8039C18.5176 14.8473 17.6623 14.3609 16.8784 14.4114L16.8732 14.4132Z" fill="#FFE165"/>
<path d="M18.5245 14.4258C18.1064 14.0025 17.4776 13.7773 16.8382 13.817C15.8139 13.8836 15.0875 14.2709 13.9709 16.1624C13.9413 13.9989 14.058 10.751 14.7443 7.89394C15.0022 6.8203 14.7426 6.11955 14.4778 5.72144C14.1695 5.25668 13.6904 4.95044 13.1609 4.88199C12.6783 4.81894 12.0477 4.81534 11.4328 5.33774C11.4328 5.33054 11.4345 5.32153 11.4345 5.32153C11.6331 3.78673 11.121 2.90765 9.91375 2.70949L9.84755 2.70229C9.10371 2.66806 8.46613 2.92026 7.95224 3.44987C7.677 3.73269 7.43835 4.09838 7.23105 4.55053C6.99936 4.19926 6.70148 4.02092 6.4663 3.93085C5.02914 3.38502 4.23479 4.55413 3.88987 5.29991C3.48921 6.16819 3.2401 7.14095 3.10074 8.13352C3.07112 8.11371 3.04325 8.09389 3.01364 8.07588C2.69659 7.88673 2.03637 7.65615 1.1793 8.22719C-0.273538 9.19635 -0.0888848 11.9813 0.200289 14.5177C0.215967 14.6528 0.231645 14.7861 0.247323 14.9212C0.371006 15.9606 0.487721 16.9424 0.327456 18.0971L0.323972 18.1259C0.033056 21.3306 0.61663 23.7967 2.05902 25.4594C3.44566 27.0591 5.61794 27.8913 8.49749 27.9364C8.70827 27.9454 8.91383 27.949 9.11416 27.9472C14.0336 27.9003 15.7983 24.4867 16.232 23.4058C16.7929 22.0079 17.0839 20.9649 17.3156 20.1255C17.495 19.477 17.6378 18.9654 17.8399 18.5402C18.0698 18.0575 18.2719 17.744 18.4496 17.4666C18.7527 16.9946 19.014 16.5875 19.0454 15.8309C19.068 15.2833 18.8868 14.7969 18.5193 14.4258H18.5245ZM8.76924 4.29653C9.04622 4.01191 9.36501 3.88581 9.76916 3.89482C10.1193 3.95426 10.4363 4.04253 10.2918 5.1594C10.2813 5.22966 10.0548 6.90677 9.99388 8.27223C9.99388 8.28124 9.99388 8.29024 9.99388 8.29925C9.67509 9.63229 9.40856 11.5526 9.26572 14.3592C8.6473 14.3988 8.03063 14.4673 7.43138 14.5573C7.23802 8.86309 7.68571 5.4098 8.7675 4.29653H8.76924ZM4.93508 5.81511C5.36884 4.87838 5.73292 4.92522 6.07087 5.05312C6.53947 5.23146 6.4663 6.19881 6.4123 6.60053C6.40359 6.66538 6.19455 8.17315 6.26772 10.0916C6.21371 11.4373 6.22068 12.9883 6.28514 14.7627C5.71201 14.8798 5.16851 15.0149 4.67203 15.1608C4.43686 14.343 3.39688 9.14771 4.93508 5.81692V5.81511ZM17.4915 16.8055C17.3034 17.0973 17.0699 17.4612 16.8069 18.0124C16.5578 18.533 16.4045 19.0915 16.2076 19.7958C15.9829 20.6046 15.7024 21.6116 15.1677 22.9465C14.7879 23.8904 13.1922 26.9564 8.53233 26.7402C5.93499 26.7006 4.09891 26.0197 2.91957 24.6596C1.70365 23.2581 1.21762 21.1 1.4737 18.2484C1.65138 16.9442 1.52073 15.8399 1.39357 14.7735C1.37789 14.6402 1.36221 14.5087 1.34653 14.3754C1.20717 13.145 0.834381 9.87548 1.80468 9.22878C2.06598 9.05404 2.28025 9.01441 2.43877 9.10808C2.70879 9.26841 2.98054 9.85206 2.94222 10.7564C2.94047 10.805 2.9457 10.8518 2.95441 10.8987C3.00319 13.0063 3.36727 14.8401 3.57457 15.5283C3.23487 15.6598 2.93525 15.7967 2.6844 15.9336C2.40219 16.0885 2.29593 16.4488 2.44574 16.7406C2.55026 16.9442 2.75234 17.0595 2.96138 17.0577C3.05022 17.0577 3.1408 17.0343 3.22616 16.9874C4.63545 16.2146 7.97837 15.4292 10.9241 15.5139C11.2446 15.5193 11.5077 15.2635 11.5164 14.9338C11.5251 14.6042 11.2743 14.3304 10.9555 14.3213C10.7795 14.3159 10.6018 14.3159 10.4242 14.3159C10.7186 8.65593 11.5286 6.80949 12.1592 6.26366C12.4205 6.03849 12.6696 6.02047 13.0145 6.06551C13.1103 6.07812 13.3507 6.13576 13.5232 6.39517C13.7096 6.67799 13.7444 7.09591 13.6225 7.60391C12.5564 12.0372 12.7968 17.2504 12.9187 18.515C12.8978 18.5582 12.8786 18.6015 12.856 18.6465C12.6069 19.1311 12.1435 19.6355 11.5913 19.6013C11.276 19.585 10.999 19.8336 10.9799 20.1615C10.9607 20.4912 11.2028 20.774 11.5216 20.7938C12.4553 20.8514 13.3351 20.2588 13.8751 19.2086C13.9326 19.0969 13.9813 18.9906 14.0249 18.8879C14.0284 18.8807 14.0319 18.8717 14.0353 18.8645C14.1364 18.6303 14.2095 18.4159 14.274 18.2232C14.375 17.9242 14.4621 17.6648 14.6363 17.3441C15.8732 15.0779 16.3749 15.0455 16.9062 15.0113C17.218 14.9915 17.5281 15.0941 17.711 15.2815C17.8416 15.413 17.8991 15.5769 17.8904 15.7823C17.873 16.2056 17.7598 16.3822 17.4863 16.8073L17.4915 16.8055Z" fill="black"/>
<path d="M39.0559 17.7256C38.8765 16.5745 38.9758 15.591 39.0803 14.5498C39.0943 14.4147 39.1082 14.2814 39.1204 14.1462C39.3643 11.6063 39.5001 8.81589 38.0281 7.87556C37.1606 7.32072 36.5039 7.56391 36.1903 7.75847C36.1607 7.77648 36.1328 7.7981 36.1032 7.81791C35.9447 6.82894 35.6799 5.86159 35.2636 5.00052C34.9065 4.26194 34.0929 3.10724 32.6645 3.68009C32.4311 3.77376 32.1384 3.9575 31.9119 4.31418C31.6959 3.86563 31.4503 3.50535 31.1698 3.22793C30.6472 2.70913 30.0044 2.46774 29.2623 2.51638L29.1961 2.52358C27.9924 2.74516 27.4959 3.63325 27.7224 5.16805C27.7224 5.16805 27.7224 5.17525 27.7241 5.18066C27.1005 4.66906 26.4699 4.68527 25.9891 4.75733C25.4613 4.83659 24.9874 5.15183 24.6878 5.622C24.4317 6.02551 24.1826 6.72986 24.4596 7.7981C25.1982 10.6425 25.3724 13.8886 25.3811 16.0521C24.2314 14.1823 23.498 13.8094 22.4737 13.7625C21.8361 13.7337 21.2073 13.9733 20.7979 14.4038C20.4373 14.7821 20.2649 15.2721 20.298 15.8179C20.3432 16.5727 20.6115 16.9763 20.9233 17.441C21.1062 17.7148 21.3135 18.0247 21.5522 18.502C21.763 18.9236 21.9145 19.4316 22.1062 20.0765C22.3535 20.9105 22.6619 21.9481 23.2489 23.3352C23.7018 24.407 25.5275 27.7883 30.433 27.7396C30.6316 27.7378 30.8371 27.7306 31.0462 27.7162C33.9414 27.6171 36.098 26.7417 37.4568 25.1168C38.8678 23.4271 39.4078 20.9501 39.0612 17.7509L39.0577 17.722L39.0559 17.7256ZM32.769 6.35337C32.708 5.94625 32.6157 4.9807 33.0826 4.79516C33.417 4.66005 33.7829 4.60781 34.2323 5.53553C35.8297 8.83751 34.8838 14.0526 34.6626 14.874C34.1626 14.7371 33.6174 14.6128 33.0425 14.5065C33.0739 12.7321 33.053 11.1793 32.9763 9.83548C33.0146 7.91699 32.7795 6.41282 32.769 6.35337ZM29.3634 3.70711C29.7693 3.68909 30.0898 3.80979 30.3703 4.09081C31.4712 5.18426 31.9816 8.62674 31.8893 14.3246C31.2883 14.2453 30.6716 14.1895 30.0515 14.1607C29.8599 11.3559 29.5585 9.44278 29.2153 8.11514C29.2153 8.10614 29.2153 8.09713 29.2153 8.08812C29.13 6.72266 28.8721 5.05095 28.8617 4.9861C28.6962 3.86743 29.0115 3.77376 29.3616 3.70711H29.3634ZM37.9149 17.9022C38.2215 20.7484 37.7738 22.9155 36.584 24.3404C35.4291 25.7221 33.6052 26.439 30.9922 26.5291C26.3584 26.8317 24.7035 23.7982 24.3081 22.8614C23.7471 21.5356 23.4493 20.5358 23.2106 19.7306C23.0016 19.0281 22.8378 18.475 22.58 17.958C22.3082 17.4122 22.0678 17.0537 21.8745 16.7655C21.594 16.3458 21.4773 16.171 21.4512 15.7477C21.439 15.5423 21.4947 15.3766 21.6219 15.2433C21.8031 15.0524 22.1096 14.9425 22.4232 14.9587C22.9545 14.9839 23.4562 15.0055 24.7349 17.2483C24.916 17.5653 25.0066 17.8229 25.1129 18.1201C25.1826 18.3129 25.2592 18.5273 25.3655 18.7596C25.3689 18.7668 25.3707 18.7741 25.3742 18.7795C25.4212 18.8821 25.4717 18.9866 25.531 19.0983C26.0901 20.1377 26.9803 20.7142 27.9123 20.6385C28.2293 20.6133 28.468 20.3251 28.4436 19.9972C28.4192 19.6694 28.1422 19.4262 27.8234 19.4478C27.2712 19.491 26.7991 18.9956 26.5413 18.5165C26.5169 18.4714 26.4978 18.43 26.4769 18.3868C26.5762 17.1222 26.7242 11.9035 25.578 7.49186C25.4456 6.98566 25.4735 6.56774 25.6546 6.28131C25.8236 6.01831 26.0623 5.95526 26.1581 5.94085C26.5013 5.88861 26.7521 5.90302 27.0169 6.12279C27.6579 6.65781 28.5011 8.48803 28.8948 14.1408C28.7171 14.1426 28.5394 14.148 28.3652 14.1571C28.0464 14.1715 27.8008 14.4507 27.8147 14.7803C27.8287 15.11 28.0935 15.3586 28.4175 15.3496C31.3597 15.2091 34.7183 15.9296 36.1398 16.6772C36.2252 16.7223 36.3157 16.7421 36.4063 16.7421C36.6154 16.7403 36.8157 16.6214 36.9167 16.4142C37.0613 16.1206 36.9481 15.7603 36.6624 15.6108C36.4098 15.4775 36.1067 15.3478 35.7653 15.2217C35.9604 14.5299 36.2931 12.6889 36.3036 10.5813C36.3123 10.5344 36.3157 10.4876 36.3123 10.439C36.2565 9.53645 36.5196 8.94739 36.7861 8.78166C36.9429 8.68439 37.1571 8.72041 37.4219 8.88975C38.4044 9.51844 38.0909 12.7934 37.9724 14.0274C37.9602 14.1607 37.9463 14.2922 37.9323 14.4255C37.8243 15.4955 37.7128 16.5998 37.9149 17.9022Z" fill="black"/>
<path d="M21.7629 6.38429C21.6706 6.38429 21.5765 6.36628 21.4877 6.32304C21.1619 6.16812 21.0191 5.77001 21.1689 5.43315C21.6532 4.3397 22.3622 3.33091 23.2175 2.51668C23.4805 2.26628 23.8916 2.28249 24.1338 2.55631C24.3759 2.82832 24.3602 3.25345 24.0955 3.50385C23.3656 4.19919 22.7611 5.06026 22.3465 5.99339C22.2385 6.23658 22.0068 6.38249 21.7629 6.38429Z" fill="black"/>
<path d="M19.5784 5.9969C19.2422 6.0005 18.9548 5.7339 18.9269 5.38082C18.8032 3.80099 18.798 2.19954 18.9147 0.61971C18.9426 0.250422 19.2544 -0.0251926 19.6098 0.00182848C19.9669 0.0306509 20.2334 0.351301 20.2073 0.720589C20.0958 2.23017 20.101 3.76136 20.2195 5.27094C20.2491 5.64022 19.9826 5.96448 19.6255 5.9933C19.6098 5.9933 19.5941 5.9951 19.5784 5.9951V5.9969Z" fill="black"/>
<path d="M17.3452 6.41273C17.0543 6.41634 16.786 6.21278 16.7111 5.90834C16.4358 4.79147 15.915 3.73044 15.206 2.84235C14.9778 2.55593 15.0178 2.1344 15.2931 1.89841C15.5701 1.66243 15.9777 1.70386 16.2059 1.98848C17.0351 3.0297 17.6448 4.27086 17.9653 5.57688C18.0542 5.93536 17.8434 6.30105 17.4967 6.39292C17.4445 6.40733 17.3939 6.41273 17.3417 6.41454L17.3452 6.41273Z" fill="black"/>
</g>
</g>
<defs>
<clipPath id="clip0_12055_97342">
<rect width="39.2719" height="27.947" fill="white"/>
</clipPath>
<clipPath id="clip1_12055_97342">
<rect width="39.2719" height="27.947" fill="white"/>
</clipPath>
</defs>
</svg>
