<svg width="1440" height="900" viewBox="0 0 1440 900" fill="none" xmlns="http://www.w3.org/2000/svg">
<rect x="-1.50195" y="-3.47998" width="1491.69" height="872.683" fill="#9535E1"/>
<g filter="url(#filter0_f_2_1567)">
<path d="M5.8584 407.846L767.131 -16.7519L1113.17 -16.752L1536.64 96.4744L51.9959 729.328L5.8584 407.846Z" fill="url(#paint0_linear_2_1567)"/>
</g>
<g filter="url(#filter1_f_2_1567)">
<path d="M-35.2168 394.84L820.132 -3.7452L1113.17 -16.752L1536.64 96.4744L51.9959 729.328L-35.2168 394.84Z" fill="url(#paint1_linear_2_1567)"/>
</g>
<g filter="url(#filter2_f_2_1567)">
<ellipse cx="317.98" cy="110.585" rx="317.98" ry="110.585" transform="matrix(0.900676 -0.434491 0.305122 0.952313 607.015 273.158)" fill="#9D70FF"/>
</g>
<g filter="url(#filter3_f_2_1567)">
<ellipse cx="317.98" cy="110.585" rx="317.98" ry="110.585" transform="matrix(0.900676 -0.434491 0.305122 0.952313 373 356.521)" fill="#9D70FF"/>
</g>
<g opacity="0.4" filter="url(#filter4_f_2_1567)">
<path d="M699.922 27.4613C533.882 53.7501 326.778 104.137 123.246 27.4613C112.534 21.6194 104.321 27.8994 157.168 99.7555C223.227 189.576 439.257 152.333 699.922 27.4613Z" fill="#FDFF89"/>
</g>
<g opacity="0.3" filter="url(#filter5_f_2_1567)">
<path d="M639.454 39.8894C507.763 60.7398 343.504 100.703 182.077 39.8894C173.581 35.256 167.067 40.2369 208.981 97.2278C261.374 168.466 432.714 138.928 639.454 39.8894Z" fill="#FDFF89"/>
</g>
<path d="M709.192 336.955C1027.21 167.115 1159.03 159.028 1463.87 223.728L1564.39 442.093L94.5687 937.458C67.655 932.066 145.649 795.925 358.213 589.691C398.281 550.817 391.171 506.794 709.192 336.955Z" fill="url(#paint2_linear_2_1567)"/>
<g filter="url(#filter6_f_2_1567)">
<path d="M921.752 286.407C1258.49 184.451 1159.03 159.028 1463.87 223.729L1564.39 442.093L106.102 933.414C79.1886 928.022 48.4301 813.717 140.706 650.348C256.05 446.137 667.995 363.239 921.752 286.407Z" fill="#81F7FF"/>
</g>
<g filter="url(#filter7_f_2_1567)">
<path d="M826.182 355.152C1198.54 253.196 1179.76 159.029 1516.84 223.729L1564.39 442.094L-48.144 933.414C-77.9044 928.023 -111.916 813.718 -9.88045 650.349C117.664 446.137 545.583 431.983 826.182 355.152Z" fill="#81F7FF"/>
</g>
<g filter="url(#filter8_f_2_1567)">
<ellipse cx="317.98" cy="110.585" rx="317.98" ry="110.585" transform="matrix(0.900676 -0.434491 0.305122 0.952313 -3.0918 518.704)" fill="#707EFF"/>
</g>
<g opacity="0.8" filter="url(#filter9_f_2_1567)">
<ellipse cx="380.177" cy="161.796" rx="380.177" ry="161.796" transform="matrix(0.933505 -0.358564 0.247194 0.968966 476.48 543.488)" fill="#8026F1"/>
</g>
<g filter="url(#filter10_f_2_1567)">
<ellipse cx="317.98" cy="110.585" rx="317.98" ry="110.585" transform="matrix(0.900676 -0.434491 0.305122 0.952313 991.594 444.731)" fill="#FFBAF4"/>
</g>
<g filter="url(#filter11_f_2_1567)">
<ellipse cx="285.734" cy="170.346" rx="285.734" ry="170.346" transform="matrix(0.900676 -0.434491 0.305122 0.952313 -291 524.239)" fill="url(#paint3_linear_2_1567)"/>
</g>
<g filter="url(#filter12_f_2_1567)">
<path d="M-5 784.943V1160H1577V397.063L-5 784.943Z" fill="white"/>
</g>
<g filter="url(#filter13_f_2_1567)">
<path d="M1170.11 198.758L1628.29 -56L1514.59 250.723L1170.11 198.758Z" fill="#9651ED"/>
</g>
<defs>
<filter id="filter0_f_2_1567" x="-1.1416" y="-23.752" width="1544.79" height="760.08" filterUnits="userSpaceOnUse" color-interpolation-filters="sRGB">
<feFlood flood-opacity="0" result="BackgroundImageFix"/>
<feBlend mode="normal" in="SourceGraphic" in2="BackgroundImageFix" result="shape"/>
<feGaussianBlur stdDeviation="3.5" result="effect1_foregroundBlur_2_1567"/>
</filter>
<filter id="filter1_f_2_1567" x="-59.2168" y="-40.752" width="1619.86" height="794.08" filterUnits="userSpaceOnUse" color-interpolation-filters="sRGB">
<feFlood flood-opacity="0" result="BackgroundImageFix"/>
<feBlend mode="normal" in="SourceGraphic" in2="BackgroundImageFix" result="shape"/>
<feGaussianBlur stdDeviation="12" result="effect1_foregroundBlur_2_1567"/>
</filter>
<filter id="filter2_f_2_1567" x="474.748" y="-97.4189" width="904.811" height="675.458" filterUnits="userSpaceOnUse" color-interpolation-filters="sRGB">
<feFlood flood-opacity="0" result="BackgroundImageFix"/>
<feBlend mode="normal" in="SourceGraphic" in2="BackgroundImageFix" result="shape"/>
<feGaussianBlur stdDeviation="82" result="effect1_foregroundBlur_2_1567"/>
</filter>
<filter id="filter3_f_2_1567" x="240.733" y="-14.0562" width="904.811" height="675.458" filterUnits="userSpaceOnUse" color-interpolation-filters="sRGB">
<feFlood flood-opacity="0" result="BackgroundImageFix"/>
<feBlend mode="normal" in="SourceGraphic" in2="BackgroundImageFix" result="shape"/>
<feGaussianBlur stdDeviation="82" result="effect1_foregroundBlur_2_1567"/>
</filter>
<filter id="filter4_f_2_1567" x="47.3262" y="-42.2056" width="720.596" height="259.483" filterUnits="userSpaceOnUse" color-interpolation-filters="sRGB">
<feFlood flood-opacity="0" result="BackgroundImageFix"/>
<feBlend mode="normal" in="SourceGraphic" in2="BackgroundImageFix" result="shape"/>
<feGaussianBlur stdDeviation="34" result="effect1_foregroundBlur_2_1567"/>
</filter>
<filter id="filter5_f_2_1567" x="139.795" y="2.56738" width="535.658" height="169.938" filterUnits="userSpaceOnUse" color-interpolation-filters="sRGB">
<feFlood flood-opacity="0" result="BackgroundImageFix"/>
<feBlend mode="normal" in="SourceGraphic" in2="BackgroundImageFix" result="shape"/>
<feGaussianBlur stdDeviation="18" result="effect1_foregroundBlur_2_1567"/>
</filter>
<filter id="filter6_f_2_1567" x="64.6963" y="174.236" width="1513.69" height="773.177" filterUnits="userSpaceOnUse" color-interpolation-filters="sRGB">
<feFlood flood-opacity="0" result="BackgroundImageFix"/>
<feBlend mode="normal" in="SourceGraphic" in2="BackgroundImageFix" result="shape"/>
<feGaussianBlur stdDeviation="7" result="effect1_foregroundBlur_2_1567"/>
</filter>
<filter id="filter7_f_2_1567" x="-124.449" y="156.459" width="1734.83" height="822.956" filterUnits="userSpaceOnUse" color-interpolation-filters="sRGB">
<feFlood flood-opacity="0" result="BackgroundImageFix"/>
<feBlend mode="normal" in="SourceGraphic" in2="BackgroundImageFix" result="shape"/>
<feGaussianBlur stdDeviation="23" result="effect1_foregroundBlur_2_1567"/>
</filter>
<filter id="filter8_f_2_1567" x="-135.358" y="148.127" width="904.811" height="675.458" filterUnits="userSpaceOnUse" color-interpolation-filters="sRGB">
<feFlood flood-opacity="0" result="BackgroundImageFix"/>
<feBlend mode="normal" in="SourceGraphic" in2="BackgroundImageFix" result="shape"/>
<feGaussianBlur stdDeviation="82" result="effect1_foregroundBlur_2_1567"/>
</filter>
<filter id="filter9_f_2_1567" x="350.197" y="192.19" width="1042.35" height="743.511" filterUnits="userSpaceOnUse" color-interpolation-filters="sRGB">
<feFlood flood-opacity="0" result="BackgroundImageFix"/>
<feBlend mode="normal" in="SourceGraphic" in2="BackgroundImageFix" result="shape"/>
<feGaussianBlur stdDeviation="82" result="effect1_foregroundBlur_2_1567"/>
</filter>
<filter id="filter10_f_2_1567" x="859.328" y="74.1538" width="904.811" height="675.458" filterUnits="userSpaceOnUse" color-interpolation-filters="sRGB">
<feFlood flood-opacity="0" result="BackgroundImageFix"/>
<feBlend mode="normal" in="SourceGraphic" in2="BackgroundImageFix" result="shape"/>
<feGaussianBlur stdDeviation="82" result="effect1_foregroundBlur_2_1567"/>
</filter>
<filter id="filter11_f_2_1567" x="-408.271" y="194.025" width="853.202" height="736.576" filterUnits="userSpaceOnUse" color-interpolation-filters="sRGB">
<feFlood flood-opacity="0" result="BackgroundImageFix"/>
<feBlend mode="normal" in="SourceGraphic" in2="BackgroundImageFix" result="shape"/>
<feGaussianBlur stdDeviation="82" result="effect1_foregroundBlur_2_1567"/>
</filter>
<filter id="filter12_f_2_1567" x="-137" y="265.063" width="1846" height="1026.94" filterUnits="userSpaceOnUse" color-interpolation-filters="sRGB">
<feFlood flood-opacity="0" result="BackgroundImageFix"/>
<feBlend mode="normal" in="SourceGraphic" in2="BackgroundImageFix" result="shape"/>
<feGaussianBlur stdDeviation="66" result="effect1_foregroundBlur_2_1567"/>
</filter>
<filter id="filter13_f_2_1567" x="1102.11" y="-124" width="594.182" height="442.723" filterUnits="userSpaceOnUse" color-interpolation-filters="sRGB">
<feFlood flood-opacity="0" result="BackgroundImageFix"/>
<feBlend mode="normal" in="SourceGraphic" in2="BackgroundImageFix" result="shape"/>
<feGaussianBlur stdDeviation="34" result="effect1_foregroundBlur_2_1567"/>
</filter>
<linearGradient id="paint0_linear_2_1567" x1="771.251" y1="-16.752" x2="92.1733" y2="508.724" gradientUnits="userSpaceOnUse">
<stop stop-color="#FED237"/>
<stop offset="1" stop-color="#FF0000" stop-opacity="0"/>
</linearGradient>
<linearGradient id="paint1_linear_2_1567" x1="803.5" y1="-0.783345" x2="870.787" y2="283.645" gradientUnits="userSpaceOnUse">
<stop stop-color="#FFC700"/>
<stop offset="0.53125" stop-color="#FF18BE" stop-opacity="0.484375"/>
<stop offset="1" stop-color="#6100FF" stop-opacity="0"/>
</linearGradient>
<linearGradient id="paint2_linear_2_1567" x1="1165.62" y1="276.298" x2="441.526" y2="512.908" gradientUnits="userSpaceOnUse">
<stop stop-color="#9281FF"/>
<stop offset="0.65537" stop-color="#81F7FF"/>
<stop offset="1" stop-color="#81D1FF"/>
</linearGradient>
<linearGradient id="paint3_linear_2_1567" x1="373.961" y1="100.557" x2="261.156" y2="328.531" gradientUnits="userSpaceOnUse">
<stop stop-color="#9651EE"/>
<stop offset="1" stop-color="#51C8EE"/>
</linearGradient>
</defs>
</svg>
