<svg width="1440" height="900" viewBox="0 0 1440 900" fill="none" xmlns="http://www.w3.org/2000/svg">
<mask id="mask0_68_822" style="mask-type:alpha" maskUnits="userSpaceOnUse" x="0" y="0" width="1440" height="900">
<rect width="1440" height="900" fill="#C4C4C4"/>
</mask>
<g mask="url(#mask0_68_822)">
<rect x="-66" y="-0.478027" width="1572" height="950.938" fill="#2F307D"/>
<g filter="url(#filter0_f_68_822)">
<path d="M-57.8301 396.173L744.277 -13.1623L1108.87 -13.1624L1555.07 95.9939L-9.21778 706.098L-57.8301 396.173Z" fill="url(#paint0_linear_68_822)"/>
</g>
<g filter="url(#filter1_f_68_822)">
<path d="M-101.107 383.634L800.122 -0.623145L1108.87 -13.1624L1555.07 95.9939L-9.21663 706.098L-101.107 383.634Z" fill="url(#paint1_linear_68_822)"/>
</g>
<g filter="url(#filter2_f_68_822)">
<ellipse cx="329.847" cy="107.571" rx="329.847" ry="107.571" transform="matrix(0.914846 -0.403803 0.330497 0.943807 508.14 342.034)" fill="#E73800"/>
</g>
<g filter="url(#filter3_f_68_822)">
<path d="M673.463 29.4612C498.517 54.805 280.304 103.381 65.8544 29.4612C54.5674 23.8293 45.914 29.8836 101.596 99.1566C171.198 185.748 398.816 149.844 673.463 29.4612Z" fill="#4463B1"/>
</g>
<g opacity="0.4" filter="url(#filter4_f_68_822)">
<path d="M609.751 41.4427C470.997 61.5436 297.927 100.07 127.841 41.4427C118.889 36.9759 112.026 41.7777 156.188 96.72C211.392 165.398 391.922 136.922 609.751 41.4427Z" fill="#4463B1"/>
</g>
<path d="M683.23 327.829C1018.31 164.095 1157.2 156.298 1478.39 218.673L1584.3 429.188L35.639 906.746C7.28175 901.548 89.4594 770.301 313.426 571.481C355.643 534.003 348.151 491.563 683.23 327.829Z" fill="url(#paint2_linear_68_822)"/>
<g opacity="0.7" filter="url(#filter5_f_68_822)">
<path d="M898.979 256.588C1242.14 115.511 1157.2 156.298 1478.39 218.673L1584.3 429.189L47.792 902.848C19.4347 897.65 -12.9736 787.454 84.2516 629.958C205.783 433.087 499.515 420.813 898.979 256.588Z" fill="#4463B1"/>
</g>
<g filter="url(#filter6_f_68_822)">
<path d="M806.495 345.372C1198.82 247.081 1179.04 156.299 1534.2 218.674L1584.3 429.189L-114.729 902.848C-146.086 897.65 -181.922 787.454 -74.4129 629.958C59.9733 433.087 510.846 419.442 806.495 345.372Z" fill="#4463B1"/>
</g>
<g filter="url(#filter7_f_68_822)">
<ellipse cx="329.847" cy="107.571" rx="329.847" ry="107.571" transform="matrix(0.914846 -0.403803 0.330497 0.943807 -67.2598 503.045)" fill="#4463B1"/>
</g>
<g opacity="0.4" filter="url(#filter8_f_68_822)">
<ellipse cx="329.847" cy="156.166" rx="329.847" ry="156.166" transform="matrix(0.914846 -0.403803 0.330497 0.943807 437.842 560.226)" fill="#4463B1"/>
</g>
<g filter="url(#filter9_f_68_822)">
<ellipse cx="329.847" cy="107.571" rx="329.847" ry="107.571" transform="matrix(0.914846 -0.403803 0.330497 0.943807 980.781 431.732)" fill="#3A78F0"/>
</g>
<g filter="url(#filter10_f_68_822)">
<ellipse cx="296.397" cy="165.703" rx="296.397" ry="165.703" transform="matrix(0.914846 -0.403803 0.330497 0.943807 -370.611 508.381)" fill="#2A4EAB"/>
</g>
<g filter="url(#filter11_f_68_822)">
<path d="M-431 798.106V1422H1785V340.827L-431 798.106Z" fill="white"/>
</g>
<g filter="url(#filter12_f_68_822)">
<path d="M1168.87 194.6L1651.63 -51L1531.83 244.697L1168.87 194.6Z" fill="#2A4EAB"/>
</g>
<g opacity="0.4" filter="url(#filter13_f_68_822)">
<path d="M303.606 802.698L1065.95 450.301L1427.09 399.795L1877.64 402.328L376.107 978.65L303.606 802.698Z" fill="url(#paint3_linear_68_822)"/>
</g>
<g opacity="0.4" filter="url(#filter14_f_68_822)">
<path d="M888 621.314L1690.16 377.877L2054.78 377.877L2501 442.793L936.615 805.63L888 621.314Z" fill="url(#paint4_linear_68_822)"/>
</g>
<g opacity="0.4" filter="url(#filter15_f_68_822)">
<path d="M839.773 675.305L1706.82 339.905L2012.39 295.317L2463.11 306.023L954.084 854.616L839.773 675.305Z" fill="url(#paint5_linear_68_822)"/>
</g>
</g>
<defs>
<filter id="filter0_f_68_822" x="-64.8301" y="-20.1624" width="1626.9" height="733.26" filterUnits="userSpaceOnUse" color-interpolation-filters="sRGB">
<feFlood flood-opacity="0" result="BackgroundImageFix"/>
<feBlend mode="normal" in="SourceGraphic" in2="BackgroundImageFix" result="shape"/>
<feGaussianBlur stdDeviation="3.5" result="effect1_foregroundBlur_68_822"/>
</filter>
<filter id="filter1_f_68_822" x="-125.107" y="-37.1624" width="1704.18" height="767.26" filterUnits="userSpaceOnUse" color-interpolation-filters="sRGB">
<feFlood flood-opacity="0" result="BackgroundImageFix"/>
<feBlend mode="normal" in="SourceGraphic" in2="BackgroundImageFix" result="shape"/>
<feGaussianBlur stdDeviation="12" result="effect1_foregroundBlur_68_822"/>
</filter>
<filter id="filter2_f_68_822" x="377.575" y="-21.1177" width="935.751" height="662.969" filterUnits="userSpaceOnUse" color-interpolation-filters="sRGB">
<feFlood flood-opacity="0" result="BackgroundImageFix"/>
<feBlend mode="normal" in="SourceGraphic" in2="BackgroundImageFix" result="shape"/>
<feGaussianBlur stdDeviation="82" result="effect1_foregroundBlur_68_822"/>
</filter>
<filter id="filter3_f_68_822" x="-10.4902" y="-40.1458" width="751.953" height="255.045" filterUnits="userSpaceOnUse" color-interpolation-filters="sRGB">
<feFlood flood-opacity="0" result="BackgroundImageFix"/>
<feBlend mode="normal" in="SourceGraphic" in2="BackgroundImageFix" result="shape"/>
<feGaussianBlur stdDeviation="34" result="effect1_foregroundBlur_68_822"/>
</filter>
<filter id="filter4_f_68_822" x="85.2227" y="4.16821" width="560.528" height="166.417" filterUnits="userSpaceOnUse" color-interpolation-filters="sRGB">
<feFlood flood-opacity="0" result="BackgroundImageFix"/>
<feBlend mode="normal" in="SourceGraphic" in2="BackgroundImageFix" result="shape"/>
<feGaussianBlur stdDeviation="18" result="effect1_foregroundBlur_68_822"/>
</filter>
<filter id="filter5_f_68_822" x="7.91602" y="150.332" width="1587.38" height="763.516" filterUnits="userSpaceOnUse" color-interpolation-filters="sRGB">
<feFlood flood-opacity="0" result="BackgroundImageFix"/>
<feBlend mode="normal" in="SourceGraphic" in2="BackgroundImageFix" result="shape"/>
<feGaussianBlur stdDeviation="5.5" result="effect1_foregroundBlur_68_822"/>
</filter>
<filter id="filter6_f_68_822" x="-192.659" y="152.168" width="1822.96" height="796.68" filterUnits="userSpaceOnUse" color-interpolation-filters="sRGB">
<feFlood flood-opacity="0" result="BackgroundImageFix"/>
<feBlend mode="normal" in="SourceGraphic" in2="BackgroundImageFix" result="shape"/>
<feGaussianBlur stdDeviation="23" result="effect1_foregroundBlur_68_822"/>
</filter>
<filter id="filter7_f_68_822" x="-197.824" y="139.894" width="935.751" height="662.969" filterUnits="userSpaceOnUse" color-interpolation-filters="sRGB">
<feFlood flood-opacity="0" result="BackgroundImageFix"/>
<feBlend mode="normal" in="SourceGraphic" in2="BackgroundImageFix" result="shape"/>
<feGaussianBlur stdDeviation="82" result="effect1_foregroundBlur_68_822"/>
</filter>
<filter id="filter8_f_68_822" x="321.022" y="211.765" width="940.382" height="725.316" filterUnits="userSpaceOnUse" color-interpolation-filters="sRGB">
<feFlood flood-opacity="0" result="BackgroundImageFix"/>
<feBlend mode="normal" in="SourceGraphic" in2="BackgroundImageFix" result="shape"/>
<feGaussianBlur stdDeviation="82" result="effect1_foregroundBlur_68_822"/>
</filter>
<filter id="filter9_f_68_822" x="850.217" y="68.5803" width="935.751" height="662.969" filterUnits="userSpaceOnUse" color-interpolation-filters="sRGB">
<feFlood flood-opacity="0" result="BackgroundImageFix"/>
<feBlend mode="normal" in="SourceGraphic" in2="BackgroundImageFix" result="shape"/>
<feGaussianBlur stdDeviation="82" result="effect1_foregroundBlur_68_822"/>
</filter>
<filter id="filter10_f_68_822" x="-485.376" y="184.142" width="881.373" height="721.889" filterUnits="userSpaceOnUse" color-interpolation-filters="sRGB">
<feFlood flood-opacity="0" result="BackgroundImageFix"/>
<feBlend mode="normal" in="SourceGraphic" in2="BackgroundImageFix" result="shape"/>
<feGaussianBlur stdDeviation="82" result="effect1_foregroundBlur_68_822"/>
</filter>
<filter id="filter11_f_68_822" x="-587" y="184.827" width="2528" height="1393.17" filterUnits="userSpaceOnUse" color-interpolation-filters="sRGB">
<feFlood flood-opacity="0" result="BackgroundImageFix"/>
<feBlend mode="normal" in="SourceGraphic" in2="BackgroundImageFix" result="shape"/>
<feGaussianBlur stdDeviation="78" result="effect1_foregroundBlur_68_822"/>
</filter>
<filter id="filter12_f_68_822" x="1100.87" y="-119" width="618.759" height="431.697" filterUnits="userSpaceOnUse" color-interpolation-filters="sRGB">
<feFlood flood-opacity="0" result="BackgroundImageFix"/>
<feBlend mode="normal" in="SourceGraphic" in2="BackgroundImageFix" result="shape"/>
<feGaussianBlur stdDeviation="34" result="effect1_foregroundBlur_68_822"/>
</filter>
<filter id="filter13_f_68_822" x="296.605" y="392.795" width="1588.03" height="592.855" filterUnits="userSpaceOnUse" color-interpolation-filters="sRGB">
<feFlood flood-opacity="0" result="BackgroundImageFix"/>
<feBlend mode="normal" in="SourceGraphic" in2="BackgroundImageFix" result="shape"/>
<feGaussianBlur stdDeviation="3.5" result="effect1_foregroundBlur_68_822"/>
</filter>
<filter id="filter14_f_68_822" x="881" y="370.877" width="1627" height="441.754" filterUnits="userSpaceOnUse" color-interpolation-filters="sRGB">
<feFlood flood-opacity="0" result="BackgroundImageFix"/>
<feBlend mode="normal" in="SourceGraphic" in2="BackgroundImageFix" result="shape"/>
<feGaussianBlur stdDeviation="3.5" result="effect1_foregroundBlur_68_822"/>
</filter>
<filter id="filter15_f_68_822" x="815.773" y="271.317" width="1671.34" height="607.299" filterUnits="userSpaceOnUse" color-interpolation-filters="sRGB">
<feFlood flood-opacity="0" result="BackgroundImageFix"/>
<feBlend mode="normal" in="SourceGraphic" in2="BackgroundImageFix" result="shape"/>
<feGaussianBlur stdDeviation="12" result="effect1_foregroundBlur_68_822"/>
</filter>
<linearGradient id="paint0_linear_68_822" x1="748.618" y1="-13.1624" x2="81.6937" y2="550.866" gradientUnits="userSpaceOnUse">
<stop stop-color="#FF7D54"/>
<stop offset="1" stop-color="white" stop-opacity="0"/>
</linearGradient>
<linearGradient id="paint1_linear_68_822" x1="501.216" y1="242.185" x2="29.7383" y2="626.281" gradientUnits="userSpaceOnUse">
<stop offset="0.0104167" stop-color="#91B0ED"/>
<stop offset="0.458333" stop-color="#437DD5"/>
<stop offset="1" stop-color="#8A3AF0"/>
</linearGradient>
<linearGradient id="paint2_linear_68_822" x1="1164.15" y1="269.352" x2="415.258" y2="536.803" gradientUnits="userSpaceOnUse">
<stop stop-color="#819CFF"/>
<stop offset="0.65537" stop-color="#E73800"/>
<stop offset="1" stop-color="#819CFF"/>
</linearGradient>
<linearGradient id="paint3_linear_68_822" x1="1070.25" y1="449.7" x2="767.856" y2="1036.35" gradientUnits="userSpaceOnUse">
<stop stop-color="#3A4CF0"/>
<stop offset="1" stop-color="white" stop-opacity="0"/>
</linearGradient>
<linearGradient id="paint4_linear_68_822" x1="1694.5" y1="377.877" x2="1316" y2="916.154" gradientUnits="userSpaceOnUse">
<stop stop-color="#D73AF0"/>
<stop offset="1" stop-color="white" stop-opacity="0"/>
</linearGradient>
<linearGradient id="paint5_linear_68_822" x1="1427.52" y1="519.254" x2="1201.79" y2="922.897" gradientUnits="userSpaceOnUse">
<stop offset="0.166667" stop-color="#FF9471"/>
<stop offset="0.541667" stop-color="#DBC0C6" stop-opacity="0.69"/>
<stop offset="0.791667" stop-color="#C2DEFF" stop-opacity="0.62"/>
<stop offset="1" stop-color="#9492FF" stop-opacity="0"/>
</linearGradient>
</defs>
</svg>
