<svg width="36" height="37" viewBox="0 0 36 37" fill="none" xmlns="http://www.w3.org/2000/svg">
<path d="M23.31 8.41986L20.655 11.0599L18 8.41986L15.345 11.0599L12.69 8.41986L18 3.10986L23.31 8.41986ZM27.69 23.4199L25.05 20.7649L27.69 18.1099L25.05 15.4549L27.69 12.7999L33 18.1099L27.69 23.4199ZM12.69 27.7999L15.345 25.1599L18 27.7999L20.655 25.1599L23.31 27.7999L18 33.1099L12.69 27.7999ZM8.31 12.7999L10.95 15.4549L8.31 18.1099L10.95 20.7649L8.31 23.4199L3 18.1099L8.31 12.7999Z" fill="#3B82F6"/>
<path d="M18 22.6099C20.4853 22.6099 22.5 20.5951 22.5 18.1099C22.5 15.6246 20.4853 13.6099 18 13.6099C15.5147 13.6099 13.5 15.6246 13.5 18.1099C13.5 20.5951 15.5147 22.6099 18 22.6099Z" fill="#3B82F6"/>
</svg>
