<svg xmlns="http://www.w3.org/2000/svg" viewBox="0 0 131.85 131.85"><defs><style>.cls-1{fill:#fefefd;}.cls-2{fill:#fec928;}.cls-3{fill:#eda703;}.cls-4{fill:#eda807;}.cls-5{fill:#eda805;}.cls-6{fill:#b2bfc6;}</style></defs><g id="Layer_2" data-name="Layer 2"><g id="Layer_1-2" data-name="Layer 1"><path class="cls-1" d="M131.81,65.92q0,32.1,0,64.2c0,1.44-.29,1.73-1.73,1.73q-64.2-.07-128.4,0c-1.44,0-1.72-.29-1.72-1.73Q.08,65.92,0,1.72C0,.28.28,0,1.72,0q64.2.08,128.4,0c1.44,0,1.73.28,1.73,1.72Q131.76,33.82,131.81,65.92Zm-63.12-59c-4.55,1.7-5.65,3.86-4.27,8.4a22.34,22.34,0,0,0,1.09,3C67.58,22.83,69.7,27.4,71.78,32c2.86,6.31,5.78,12.59,8.14,19.11.34.94,1.25,2.1-.33,2.9-2-.76-3-2.47-4-4.12Q65.23,33.58,55,17.25a13.78,13.78,0,0,0-4-4.51c-2-1.29-4.07-1.84-6.27-.45-3.82,1.77-4.84,3.89-3.75,7.9a26.47,26.47,0,0,0,2.36,5.37c6.26,11.66,12.91,23.1,19.46,34.59a4.12,4.12,0,0,1,.87,2.74c-1.95.4-2.95-1-3.95-2.22-5-6-9.89-12-14.82-18-2.53-3.08-5-6.2-7.57-9.25-2.72-3.24-5.57-4.21-8.59-3C25.47,32,24.3,34.58,25.24,38a15.89,15.89,0,0,0,2.4,4.62q9.95,14.65,19.87,29.32c.62.93,1.67,1.83.92,3.19A5.56,5.56,0,0,1,45,73.61a64.52,64.52,0,0,1-6.41-6.07c-4.08-4.34-8.09-8.76-12.17-13.09C24.05,51.9,21.77,51.52,19,53c-3,1.55-3.74,3.17-3,6.28A14,14,0,0,0,18.27,64c2.62,3.73,5.24,7.45,7.94,11.11,10,13.51,20,27,31.67,39.18,7.92,8.26,17.48,12.07,28.9,11.11a10.63,10.63,0,0,0,1.26,0C103.73,124,117.9,111.5,121.33,96.1a83.36,83.36,0,0,0,1.54-19.24c-.09-8.49,0-17,1.32-25.38a112.84,112.84,0,0,0,1.69-11.84c.27-3.28-1-5.14-4.17-5.66-4-.64-6.94,1.52-9.2,4.4-4.79,6.11-6.32,13.44-7.25,20.93-.68-.22-.89-.86-1.21-1.38Q95.73,44,87.41,30C83.7,23.72,80,17.44,76.29,11.2,74.59,8.36,72.47,6.12,68.69,6.88ZM31.88,98.53c.79,0,1.52,0,1.79-.82a2.18,2.18,0,0,0-1.2-2.64c-7.9-5.1-13.15-12.26-16.41-21-.34-.91-.75-1.8-1.9-1.48s-1.57,1.18-1.27,2.46a36.53,36.53,0,0,0,11.4,19.2A20.19,20.19,0,0,0,31.88,98.53ZM6.28,80.44a13.5,13.5,0,0,0,.23,1.44,38.71,38.71,0,0,0,7.43,14.43,24.37,24.37,0,0,0,10.87,7.9c1.48.52,2.68-.23,2.5-1.46a2.82,2.82,0,0,0-1.53-1.87,38,38,0,0,1-8.64-7.57A43.75,43.75,0,0,1,9.51,80.14c-.33-.92-.75-1.94-2-1.66C6.47,78.7,6.21,79.49,6.28,80.44ZM92,5.94c-.87-.06-1.58.06-1.79.9a2.11,2.11,0,0,0,1,2.34,36.31,36.31,0,0,1,7.32,6.9,43.8,43.8,0,0,1,8,15.38c.3,1,.8,1.69,1.94,1.38a1.62,1.62,0,0,0,1.17-2.13c-.19-1-.35-2.07-.62-3.08-2.13-7.93-6-14.78-12.84-19.59A11.69,11.69,0,0,0,92,5.94Zm10.72,30.32c0-.12,0-.33-.08-.53a37,37,0,0,0-7.82-17.18A23.44,23.44,0,0,0,86,11.65c-1-.42-2-.57-2.61.48s.17,1.68.79,2.34a4.18,4.18,0,0,0,.65.53,37.47,37.47,0,0,1,9.28,9.88,44.63,44.63,0,0,1,5.46,12c.27.92.77,1.75,1.95,1.42A1.74,1.74,0,0,0,102.74,36.26Z"/><path class="cls-2" d="M105.26,59.31c.93-7.49,2.46-14.82,7.25-20.93,2.26-2.88,5.19-5,9.2-4.4,3.19.52,4.44,2.38,4.17,5.66a10.93,10.93,0,0,0-1,1.6,80.41,80.41,0,0,0-5.73,27.51c-.26,6.36.07,12.72-.34,19.1a38.17,38.17,0,0,1-11,25.13c-5.26,5.37-11.76,8.66-18.86,10.9-.85.26-2.09.13-2.22,1.52-11.42,1-21-2.85-28.9-11.11C46.2,102.13,36.21,88.62,26.21,75.11c-2.7-3.66-5.32-7.38-7.94-11.11A14,14,0,0,1,16,59.32c-.77-3.11,0-4.73,3-6.28,1.7.76,3.47,1.4,4.74,2.87,3.23,3.74,6.41,7.52,9.71,11.2,2.74,3.07,5.52,6.12,8.47,9,2.32,2.26,5.08,1.72,6.56-1,.75-1.36-.3-2.26-.92-3.19q-9.9-14.69-19.87-29.32A15.89,15.89,0,0,1,25.24,38c-.94-3.39.23-6,3.45-7.57a12.43,12.43,0,0,1,5.36,3.88c3.5,4.35,7,8.7,10.46,13.09,4.23,5.38,8.35,10.84,12.63,16.18,1.92,2.4,5.1,2.68,6.48-.66a4.12,4.12,0,0,0-.87-2.74C56.2,48.66,49.55,37.22,43.29,25.56a26.47,26.47,0,0,1-2.36-5.37c-1.09-4-.07-6.13,3.75-7.9,2.19.9,4.25,1.82,5.58,4.06q8.35,14,17,27.88c2.16,3.48,4.09,7.17,7.07,10.08,1.93,1.88,3.43,1.76,5.3-.32,1.58-.8.67-2,.33-2.9-2.36-6.52-5.28-12.8-8.14-19.11-2.08-4.58-4.2-9.15-6.27-13.74a22.34,22.34,0,0,1-1.09-3c-1.38-4.54-.28-6.7,4.27-8.4A16.35,16.35,0,0,1,73.21,12c3.42,6.26,6.92,12.47,10.4,18.7,5.28,9.46,10.6,18.9,15.81,28.4,2.06,3.75,1.53,6.32-1.43,9.5a57.19,57.19,0,0,0-4.51,5.22c-6.3,8.62-6.72,18.08-3.73,27.94a23.92,23.92,0,0,0,2,4.38c.33.6.9,1.5,1.8,1,.74-.37.39-1.25.3-1.92a9.36,9.36,0,0,0-.43-1.4,38.12,38.12,0,0,1-1.54-9,25.69,25.69,0,0,1,6.91-19.4C102.9,70.79,106.19,65.93,105.26,59.31Z"/><path class="cls-3" d="M105.26,59.31c.93,6.62-2.36,11.48-6.49,16.11a25.69,25.69,0,0,0-6.91,19.4,38.12,38.12,0,0,0,1.54,9,9.36,9.36,0,0,1,.43,1.4c.09.67.44,1.55-.3,1.92-.9.46-1.47-.44-1.8-1a23.92,23.92,0,0,1-2-4.38c-3-9.86-2.57-19.32,3.73-27.94A57.19,57.19,0,0,1,98,68.6c3-3.18,3.49-5.75,1.43-9.5-5.21-9.5-10.53-18.94-15.81-28.4-3.48-6.23-7-12.44-10.4-18.7a16.35,16.35,0,0,0-4.52-5.12c3.78-.76,5.9,1.48,7.6,4.32C80,17.44,83.7,23.72,87.41,30q8.31,14,16.64,28C104.37,58.45,104.58,59.09,105.26,59.31Z"/><path class="cls-4" d="M86.78,125.4c.13-1.39,1.37-1.26,2.22-1.52,7.1-2.24,13.6-5.53,18.86-10.9a38.17,38.17,0,0,0,11-25.13c.41-6.38.08-12.74.34-19.1a80.41,80.41,0,0,1,5.73-27.51,10.93,10.93,0,0,1,1-1.6,112.84,112.84,0,0,1-1.69,11.84c-1.34,8.42-1.41,16.89-1.32,25.38a83.36,83.36,0,0,1-1.54,19.24C117.9,111.5,103.73,124,88,125.42A10.63,10.63,0,0,1,86.78,125.4Z"/><path class="cls-5" d="M79.59,54c-1.87,2.08-3.37,2.2-5.3.32-3-2.91-4.91-6.6-7.07-10.08q-8.61-13.86-17-27.88c-1.33-2.24-3.39-3.16-5.58-4.06,2.2-1.39,4.28-.84,6.27.45a13.78,13.78,0,0,1,4,4.51Q65.27,33.56,75.55,49.87C76.6,51.52,77.62,53.23,79.59,54Z"/><path class="cls-5" d="M63.62,62.89c-1.38,3.34-4.56,3.06-6.48.66-4.28-5.34-8.4-10.8-12.63-16.18-3.45-4.39-7-8.74-10.46-13.09a12.43,12.43,0,0,0-5.36-3.88c3-1.17,5.87-.2,8.59,3,2.56,3.05,5,6.17,7.57,9.25,4.93,6,9.85,12,14.82,18C60.67,61.88,61.67,63.29,63.62,62.89Z"/><path class="cls-6" d="M31.88,98.53a20.19,20.19,0,0,1-7.59-4.26,36.53,36.53,0,0,1-11.4-19.2c-.3-1.28.09-2.13,1.27-2.46s1.56.57,1.9,1.48c3.26,8.72,8.51,15.88,16.41,21a2.18,2.18,0,0,1,1.2,2.64C33.4,98.56,32.67,98.58,31.88,98.53Z"/><path class="cls-6" d="M6.28,80.44c-.07-1,.19-1.74,1.19-2,1.29-.28,1.71.74,2,1.66a43.75,43.75,0,0,0,7.63,13.17,38,38,0,0,0,8.64,7.57,2.82,2.82,0,0,1,1.53,1.87c.18,1.23-1,2-2.5,1.46a24.37,24.37,0,0,1-10.87-7.9A38.71,38.71,0,0,1,6.51,81.88,13.5,13.5,0,0,1,6.28,80.44Z"/><path class="cls-6" d="M92,5.94A11.69,11.69,0,0,1,96.2,8c6.89,4.81,10.71,11.66,12.84,19.59.27,1,.43,2.05.62,3.08a1.62,1.62,0,0,1-1.17,2.13c-1.14.31-1.64-.39-1.94-1.38a43.8,43.8,0,0,0-8-15.38,36.31,36.31,0,0,0-7.32-6.9,2.11,2.11,0,0,1-1-2.34C90.44,6,91.15,5.88,92,5.94Z"/><path class="cls-6" d="M102.74,36.26a1.74,1.74,0,0,1-1.25,2c-1.18.33-1.68-.5-1.95-1.42a44.63,44.63,0,0,0-5.46-12A37.47,37.47,0,0,0,84.8,15a4.18,4.18,0,0,1-.65-.53c-.62-.66-1.41-1.32-.79-2.34s1.64-.9,2.61-.48a23.44,23.44,0,0,1,8.87,6.9,37,37,0,0,1,7.82,17.18C102.7,35.93,102.72,36.14,102.74,36.26Z"/><path class="cls-5" d="M48.43,75.1c-1.48,2.71-4.24,3.25-6.56,1-2.95-2.86-5.73-5.91-8.47-9-3.3-3.68-6.48-7.46-9.71-11.2-1.27-1.47-3-2.11-4.74-2.87,2.82-1.52,5.1-1.14,7.5,1.41,4.08,4.33,8.09,8.75,12.17,13.09A64.52,64.52,0,0,0,45,73.61,5.56,5.56,0,0,0,48.43,75.1Z"/></g></g></svg>