<svg width="32" height="32" viewBox="0 0 32 32" fill="none" xmlns="http://www.w3.org/2000/svg">
<path d="M29.0155 8.56969C28.0796 8.41757 27.394 8.92308 26.8651 9.59944C25.7443 11.0294 25.3863 12.7425 25.1663 14.4977C25.384 16.0447 24.6141 17.1844 23.6501 18.2657C23.0812 18.87 22.6436 19.5856 22.3649 20.3674C22.0862 21.1492 21.9725 21.9803 22.0308 22.8083C22.0675 23.5221 22.1884 24.2291 22.3912 24.9146C22.4343 25.0208 22.4687 25.1304 22.4941 25.2422C22.5128 25.3967 22.5971 25.6026 22.4239 25.6915C22.2133 25.7992 22.08 25.5886 22.0027 25.4575C21.8117 25.1329 21.6549 24.7894 21.5348 24.4324C20.8398 22.1296 20.9357 19.9086 22.4099 17.8936C22.7383 17.466 23.0914 17.0581 23.4675 16.6719C24.1695 15.9277 24.2842 15.3262 23.8022 14.4463C22.583 12.2253 21.3359 10.016 20.1004 7.80206C19.2884 6.34404 18.4624 4.89069 17.6668 3.42565C17.4027 2.95873 17.0421 2.55344 16.6092 2.23676C15.5469 2.63696 15.2871 3.14247 15.6124 4.20498C15.6807 4.44443 15.7651 4.679 15.8651 4.90708C16.3494 5.98129 16.8455 7.05082 17.3322 8.12503C18.0014 9.60178 18.6847 11.0715 19.2393 12.5951C19.3188 12.815 19.5294 13.0889 19.1621 13.2738C18.7221 13.7629 18.3735 13.7886 17.9219 13.3486C17.2199 12.6676 16.773 11.8064 16.2676 10.9919C14.9244 8.81075 13.6024 6.62722 12.3014 4.44135C11.9878 3.91946 11.5058 3.70181 10.9957 3.49118C10.0995 3.90776 9.8608 4.40391 10.1182 5.34238C10.2519 5.78054 10.4348 6.20214 10.6634 6.59913C12.1282 9.32796 13.6843 12.0053 15.2169 14.6943C15.363 14.8778 15.4371 15.1083 15.4252 15.3426C15.1023 16.1243 14.3582 16.0587 13.9066 15.4971C12.9074 14.245 11.941 12.9672 10.9536 11.7081C10.1439 10.6807 9.3156 9.66497 8.50364 8.64458C8.1756 8.23378 7.74207 7.9199 7.24943 7.73653C6.49831 8.10631 6.21752 8.71011 6.45151 9.49178C6.57716 9.88124 6.76611 10.2473 7.01076 10.5754C8.5598 12.8689 10.1073 15.1601 11.6532 17.4489C11.8006 17.6642 12.044 17.8772 11.8685 18.1955C11.5245 18.8297 10.8787 18.9561 10.3335 18.4295C9.63149 17.7578 8.99502 17.0464 8.35154 16.3232C7.5817 15.462 6.8376 14.575 6.0818 13.6997C5.78463 13.3557 5.37982 13.2059 4.97267 13.0304C4.27069 13.3931 4.09753 13.7722 4.27069 14.4977C4.38022 14.8948 4.56447 15.2673 4.81356 15.5954C5.42662 16.466 6.03734 17.3389 6.67147 18.1931C9.0114 21.3549 11.3513 24.512 14.0797 27.3649C15.9353 29.298 18.1699 30.1897 20.8445 29.9626C20.9426 29.9697 21.0411 29.9697 21.1393 29.9626C24.8107 29.628 28.1264 26.7026 28.929 23.1008C29.2228 21.6189 29.3437 20.1078 29.2893 18.598C29.2682 16.6111 29.2893 14.6194 29.5982 12.6582C29.7794 11.7416 29.9106 10.8158 29.9913 9.88496C30.0568 9.12669 29.762 8.69139 29.0155 8.56969Z" fill="#FEC928"/>
<path d="M25.171 14.4977C25.3886 16.0447 24.6188 17.1844 23.6547 18.2657C23.085 18.8696 22.6466 19.585 22.3671 20.3668C22.0876 21.1487 21.9731 21.98 22.0308 22.8083C22.0675 23.5221 22.1884 24.2291 22.3912 24.9145C22.4343 25.0208 22.4687 25.1304 22.4941 25.2422C22.5128 25.3967 22.5971 25.6026 22.4239 25.6915C22.2133 25.7992 22.08 25.5886 22.0027 25.4575C21.8117 25.1329 21.6549 24.7894 21.5347 24.4324C20.8398 22.1296 20.9357 19.9086 22.4099 17.8936C22.7382 17.466 23.0914 17.0581 23.4675 16.6719C24.1695 15.9277 24.2842 15.3262 23.8021 14.4463C22.583 12.2253 21.3359 10.016 20.1027 7.80206C19.2884 6.34404 18.4647 4.89069 17.6668 3.42565C17.4027 2.95873 17.0421 2.55344 16.6092 2.23676C17.496 2.04719 17.9921 2.57377 18.3852 3.23608C19.2603 4.69645 20.1191 6.16851 20.9872 7.63122C22.2835 9.81553 23.5814 11.9998 24.8809 14.1841C24.9581 14.2965 25.0072 14.4463 25.171 14.4977Z" fill="#EDA703"/>
<path d="M20.8445 29.9626C20.8749 29.6397 21.165 29.6701 21.3616 29.6069C23.0229 29.085 24.5462 28.315 25.7747 27.0583C27.3315 25.4845 28.2488 23.3887 28.3486 21.177C28.4446 19.6839 28.3674 18.1955 28.4282 16.707C28.4925 14.4987 28.9464 12.3191 29.769 10.2688C29.8336 10.1378 29.9079 10.0119 29.9913 9.89198C29.9106 10.8229 29.7794 11.7487 29.5982 12.6653C29.2846 14.6358 29.2682 16.6181 29.2893 18.605C29.3437 20.1148 29.2228 21.6259 28.929 23.1078C28.1264 26.7096 24.8107 29.635 21.1393 29.9697C21.041 29.9743 20.9425 29.972 20.8445 29.9626Z" fill="#EDA807"/>
<path d="M19.162 13.2503C18.7221 13.7395 18.3735 13.7652 17.9219 13.3252C17.2199 12.6442 16.773 11.783 16.2675 10.9685C14.9244 8.80294 13.6024 6.62722 12.3014 4.44135C11.9878 3.91946 11.5058 3.70181 10.9957 3.49118C11.5105 3.16821 11.9948 3.29459 12.4628 3.59649C12.8486 3.87617 13.1681 4.23731 13.3988 4.65432C15.0071 7.19904 16.6131 9.74766 18.2167 12.3002C18.4601 12.6746 18.7011 13.0748 19.162 13.2503Z" fill="#EDA805"/>
<path d="M15.4252 15.3426C15.1023 16.1243 14.3582 16.0587 13.9066 15.4971C12.9074 14.245 11.941 12.9672 10.9536 11.7081C10.1439 10.6807 9.3156 9.66497 8.50364 8.64458C8.17561 8.23378 7.74208 7.9199 7.24944 7.73653C7.95142 7.46272 8.62532 7.69207 9.25944 8.43863C9.85847 9.15477 10.4294 9.88496 11.0331 10.6058C12.1859 12.01 13.3411 13.4142 14.4986 14.8184C14.7349 15.1086 14.9666 15.4269 15.4252 15.3426Z" fill="#EDA805"/>
<path d="M7.99821 23.6765C7.33909 23.478 6.73133 23.1377 6.21752 22.6795C4.87963 21.4982 3.94653 19.9264 3.54999 18.1861C3.47979 17.8865 3.57105 17.6876 3.84716 17.6104C4.12328 17.5332 4.21219 17.7438 4.29175 17.9568C5.05457 19.9975 6.28304 21.6732 8.12925 22.8714C8.24417 22.9208 8.3366 23.0112 8.38851 23.125C8.44043 23.2387 8.4481 23.3678 8.41004 23.487C8.35154 23.6812 8.18307 23.6882 7.99821 23.6765Z" fill="#B2BFC6"/>
<path d="M2.00563 19.4405C1.98925 19.2205 2.04775 19.0333 2.28409 18.9725C2.58594 18.9069 2.68187 19.1456 2.75207 19.3609C3.16309 20.4846 3.76731 21.5277 4.53745 22.4432C5.11874 23.1412 5.80374 23.7458 6.56851 24.2359C6.65463 24.2774 6.73066 24.3373 6.79128 24.4112C6.8519 24.4852 6.89566 24.5715 6.9195 24.6641C6.96396 24.952 6.68551 25.1322 6.33686 25.0058C5.33266 24.6399 4.45137 23.9993 3.79335 23.157C2.9854 22.1689 2.39533 21.0213 2.06179 19.7892C2.03548 19.6743 2.01672 19.5579 2.00563 19.4405Z" fill="#B2BFC6"/>
<path d="M22.0706 2.00273C22.4262 2.1008 22.7586 2.26867 23.0487 2.49654C24.6586 3.62224 25.5548 5.22302 26.0532 7.08124C26.1163 7.31528 26.1538 7.56101 26.1982 7.80206C26.2161 7.85269 26.223 7.90652 26.2187 7.96002C26.2143 8.01352 26.1987 8.0655 26.1728 8.11255C26.147 8.1596 26.1115 8.20067 26.0687 8.23306C26.0259 8.26546 25.9768 8.28846 25.9245 8.30055C25.6577 8.3731 25.5384 8.20928 25.4705 7.97525C25.0921 6.66358 24.4557 5.44065 23.5986 4.37816C23.1093 3.76334 22.5358 3.22052 21.8951 2.76568C21.8021 2.71202 21.729 2.62963 21.6868 2.53088C21.6446 2.43213 21.6356 2.32235 21.6611 2.21804C21.7009 2.01911 21.8647 2.00273 22.0706 2.00273Z" fill="#B2BFC6"/>
<path d="M24.5767 9.10329C24.5961 9.20384 24.5768 9.30804 24.5225 9.3949C24.4683 9.48175 24.3831 9.54481 24.2842 9.57135C24.0081 9.64624 23.8934 9.45434 23.8302 9.23903C23.5442 8.25083 23.1128 7.31066 22.5503 6.44935C21.975 5.55144 21.2388 4.76754 20.3788 4.13711C20.3252 4.09953 20.2751 4.05724 20.2291 4.01073C20.084 3.85861 19.8968 3.70181 20.0442 3.46543C20.1916 3.22906 20.428 3.2548 20.6549 3.3531C21.4669 3.71499 22.179 4.26827 22.7305 4.96559C23.6738 6.1239 24.3039 7.50514 24.5603 8.97691C24.5673 9.02372 24.5743 9.0752 24.5767 9.10329Z" fill="#B2BFC6"/>
<path d="M11.8685 18.1931C11.5245 18.8274 10.8787 18.9537 10.3335 18.4272C9.63149 17.7555 8.99503 17.044 8.35154 16.3209C7.5817 15.4596 6.8376 14.5726 6.0818 13.6974C5.78463 13.3533 5.37982 13.2035 4.97267 13.028C5.63019 12.6723 6.1637 12.7589 6.72529 13.3557C7.68232 14.3714 8.62063 15.4035 9.57533 16.4192C10.0408 16.9277 10.5412 17.4032 11.0729 17.8421C11.2908 18.0456 11.5712 18.1694 11.8685 18.1931Z" fill="#EDA805"/>
</svg>
