<?xml version="1.0" encoding="UTF-8"?>
<svg version="1.1" xmlns="http://www.w3.org/2000/svg" width="4395" height="1024">
<path d="M0 0 C58.41 0 116.82 0 177 0 C183.6 18.48 190.2 36.96 197 56 C203.84480575 74.83983838 203.84480575 74.83983838 210.70248413 93.67492676 C216.74888088 110.26486052 222.72240743 126.88071247 228.6875 143.5 C230.63137939 148.91541162 232.57533745 154.33079499 234.51953125 159.74609375 C234.75495321 160.40185835 234.99037518 161.05762295 235.23293114 161.7332592 C239.76256464 174.34942082 244.31241281 186.95821869 248.875 199.5625 C249.21692383 200.50712097 249.55884766 201.45174194 249.91113281 202.42498779 C251.60483697 207.10364486 253.29906979 211.78211024 254.99365234 216.46044922 C258.39386381 225.84781412 261.7909606 235.23630596 265.1875 244.625 C265.53061218 245.57335724 265.87372437 246.52171448 266.22723389 247.49880981 C272.97291058 266.14521208 279.6996257 284.79844093 286.42489624 303.45220947 C292.77765719 321.0725607 299.13907405 338.68974644 305.51425171 356.30200195 C309.76369191 368.04217265 314.00577585 379.78496255 318.23828125 391.53125 C318.69602743 392.80153991 319.15377585 394.07182901 319.61152649 395.34211731 C319.83998481 395.97611041 320.06844313 396.61010351 320.30382442 397.26330853 C321.47336223 400.50887982 322.64291561 403.7544455 323.8125 407 C324.04551441 407.64662472 324.27852882 408.29324944 324.51860428 408.95946884 C331.29224727 427.75576034 338.09868589 446.53980065 344.9375 465.3125 C353.36353678 488.4444012 361.70202828 511.60704433 370.01976013 534.7780304 C370.5058325 536.13209422 370.99190886 537.48615662 371.4779892 538.84021759 C371.96419109 540.19461933 372.45038187 541.54902505 372.93656158 542.90343475 C378.29730492 557.83671365 383.67753994 572.76293936 389.0625 587.6875 C389.51718152 588.94771317 389.97186292 590.20792639 390.42654419 591.46813965 C392.24357304 596.50418903 394.06070608 601.5402008 395.8780365 606.57614136 C399.14419222 615.62702779 402.40845615 624.67859517 405.671875 633.73046875 C414.27247984 657.58563202 422.87701032 681.43934375 431.50756836 705.28369141 C435.85242626 717.2879761 440.18999566 729.29486884 444.51953125 741.3046875 C444.7572802 741.96416382 444.99502914 742.62364014 445.2399826 743.30310059 C447.40729927 749.31495478 449.57443965 755.32687249 451.74102783 761.33898926 C458.38157644 779.76735274 458.38157644 779.76735274 465.06640625 798.1796875 C465.35987442 798.98501923 465.65334259 799.79035095 465.95570374 800.62008667 C467.25193049 804.1753272 468.55051198 807.72968402 469.8527832 811.28271484 C470.28034912 812.4527002 470.70791504 813.62268555 471.1484375 814.828125 C471.51114746 815.8171582 471.87385742 816.80619141 472.24755859 817.82519531 C473 820 473 820 473 821 C404.36 821 335.72 821 265 821 C234 723.77272727 234 723.77272727 234 721 C137.97 721 41.94 721 -57 721 C-57.99 724.96 -58.98 728.92 -60 733 C-60.61928735 735.11444458 -61.26054675 737.22284486 -61.94189453 739.31811523 C-62.293013 740.40483017 -62.64413147 741.4915451 -63.00588989 742.6111908 C-63.56371658 744.31765526 -63.56371658 744.31765526 -64.1328125 746.05859375 C-64.7389865 747.93129154 -65.3451585 749.80398998 -65.951231 751.67672062 C-66.79475682 754.27985829 -67.64189259 756.88181503 -68.48907471 759.48376465 C-69.94712239 763.96328343 -71.40087382 768.44419568 -72.85250854 772.92579651 C-73.61979548 775.29342614 -74.38885432 777.66048297 -75.16043091 780.02671814 C-79.57910246 793.64344928 -83.75559214 807.32357467 -88 821 C-155.32 821 -222.64 821 -292 821 C-288.62512803 808.62546944 -288.62512803 808.62546944 -287.14086914 804.49926758 C-286.80442886 803.55743118 -286.46798859 802.61559479 -286.12135315 801.6452179 C-285.76290817 800.6549913 -285.4044632 799.66476471 -285.03515625 798.64453125 C-284.65016464 797.57023361 -284.26517303 796.49593597 -283.86851501 795.38908386 C-282.6036562 791.86217393 -281.33304415 788.33736536 -280.0625 784.8125 C-279.16427194 782.31070403 -278.26640875 779.80878068 -277.36914062 777.30664062 C-275.74065417 772.76650962 -274.1108722 768.22684807 -272.47936058 763.68780327 C-268.38038774 752.28338006 -264.30614809 740.87015124 -260.23342896 729.45632935 C-258.15401899 723.62938191 -256.07308487 717.80297889 -253.9921875 711.9765625 C-253.37268974 710.24186455 -253.37268974 710.24186455 -252.74067688 708.47212219 C-250.26216145 701.53230925 -247.78229274 694.59298153 -245.30134583 687.65403748 C-236.14756008 662.05164407 -227.02127371 636.43979995 -217.9375 610.8125 C-209.9632417 588.31538417 -201.93836801 565.83686644 -193.8739624 543.37188721 C-193.48887512 542.29912537 -193.10378784 541.22636353 -192.70703125 540.12109375 C-192.3221051 539.04881531 -191.93717896 537.97653687 -191.54058838 536.87176514 C-187.03436588 524.31517673 -182.54789872 511.75153895 -178.0625 499.1875 C-177.64804626 498.02663879 -177.23359253 496.86577759 -176.80657959 495.66973877 C-174.70956774 489.79600685 -172.61277941 483.92219518 -170.51611328 478.04833984 C-166.76193454 467.53128848 -163.00565428 457.01498771 -159.24954224 446.49862671 C-157.99820434 442.99497229 -156.74700589 439.49126811 -155.49584961 435.98754883 C-151.7659029 425.54248886 -148.03534957 415.0976479 -144.30134583 404.65403748 C-135.14756008 379.05164407 -126.02127371 353.43979995 -116.9375 327.8125 C-108.96735886 305.32699957 -100.9465359 282.86012015 -92.88659668 260.40663147 C-92.50249634 259.33658371 -92.118396 258.26653595 -91.72265625 257.1640625 C-91.33855591 256.09405502 -90.95445557 255.02404755 -90.55871582 253.9216156 C-85.96413084 241.11888378 -81.38707212 228.30989399 -76.8125 215.5 C-76.39160095 214.32141418 -75.9707019 213.14282837 -75.53704834 211.92852783 C-69.68971083 195.55288674 -63.85723313 179.17201241 -58.03616333 162.78701782 C-52.45620868 147.08165862 -46.85706382 131.38320025 -41.25 115.6875 C-40.83340118 114.52131134 -40.41680237 113.35512268 -39.98757935 112.15359497 C-36.99217331 103.76890117 -33.99613817 95.38443221 -31 87 C-27.90219422 78.33098748 -24.80465185 69.66188098 -21.7076416 60.99258423 C-20.49254075 57.59155723 -19.27704686 54.19067091 -18.06152344 50.78979492 C-12.01633021 33.86848064 -6.00896301 16.9343503 0 0 Z M88 238 C87.70956818 238.97952385 87.70956818 238.97952385 87.41326904 239.97883606 C77.88967112 272.09650058 68.34950706 304.20910582 58.76040268 336.30727768 C53.56457722 353.69964566 48.37422121 371.09361072 43.19921875 388.4921875 C42.95101442 389.32662825 42.7028101 390.16106899 42.44708443 391.02079582 C40.39398757 397.92321358 38.34104422 404.82567701 36.28834915 411.72821426 C29.6007761 434.21610995 22.89785385 456.69934001 16.171875 479.17578125 C15.50918892 481.39060407 14.84650479 483.60542747 14.18382263 485.82025146 C11.28644264 495.50319671 8.38820321 505.18588223 5.48677635 514.8676157 C4.28943068 518.8639021 3.09313636 522.86050276 1.89705658 526.8571682 C1.34659206 528.6956325 0.79566769 530.5339592 0.24420929 532.37212563 C-0.01360573 533.2315344 -0.27142075 534.09094318 -0.53704834 534.97639465 C-0.75923412 535.71649686 -0.98141991 536.45659906 -1.21033859 537.21912861 C-4.56398804 548.45810891 -7.77685331 559.71898658 -11 571 C54.01 571 119.02 571 186 571 C185.27342208 565.91395456 184.36796042 561.32692754 182.92480469 556.45336914 C182.71408136 555.72758132 182.50335804 555.0017935 182.28624916 554.25401211 C181.58598704 551.84638064 180.8789457 549.44079615 180.171875 547.03515625 C179.67028754 545.31567353 179.1691278 543.59606598 178.66836548 541.87634277 C177.31645061 537.23792672 175.95869666 532.60123832 174.59990692 527.96483231 C173.16936915 523.07971384 171.7443654 518.1929817 170.31884766 513.30639648 C167.99235589 505.33366049 165.66290514 497.36179528 163.33105469 489.390625 C160.37424976 479.28279479 157.42357677 469.17318861 154.4765625 459.0625 C153.83079709 456.84716882 153.18502148 454.63184062 152.53924561 452.41651249 C152.11553084 450.9629596 151.69182473 449.5094042 151.26812744 448.05584621 C149.78538375 442.96935924 148.30165191 437.88316119 146.81738281 432.79711914 C140.61175107 411.53247382 134.41685406 390.26471749 128.22637939 368.99565506 C120.51051289 342.48589802 112.78976931 315.97757029 105.05947876 289.47201538 C104.38472962 287.15836197 103.71005499 284.84468684 103.03540039 282.53100586 C96.54171678 260.25846706 96.54171678 260.25846706 90 238 C89.34 238 88.68 238 88 238 Z " fill="#FFFFFF" transform="translate(377,103)"/>
<path d="M0 0 C59.4 0 118.8 0 180 0 C180.33 109.56 180.66 219.12 181 332 C186.94 323.585 186.94 323.585 193 315 C199 308.25 199 308.25 201.625 305.515625 C204.02626617 303.04165799 204.02626617 303.04165799 206.10546875 300.36328125 C209.00808173 296.74249598 212.44065626 293.96072684 216 291 C216.52529297 290.5570459 217.05058594 290.1140918 217.59179688 289.65771484 C226.57299946 282.1136057 235.74944533 275.68932766 246 270 C246.65693848 269.6277832 247.31387695 269.25556641 247.99072266 268.87207031 C267.82535377 257.67302228 289.41637692 249.54538178 311.6875 244.75 C312.38625244 244.59885742 313.08500488 244.44771484 313.80493164 244.29199219 C327.47095744 241.53482519 340.97504409 240.62137961 354.875 240.6875 C356.07822403 240.69023422 356.07822403 240.69023422 357.30575562 240.69302368 C409.54060896 240.8914387 465.5267967 255.52960424 508 287 C508.60038086 287.43634766 509.20076172 287.87269531 509.81933594 288.32226562 C530.98750679 303.71161955 551.31170122 321.03780439 566.77441406 342.32568359 C568.04979995 344.06803348 569.360719 345.77873522 570.6796875 347.48828125 C621.37447581 413.85695101 636.54084009 504.44854674 626.03515625 585.83984375 C618.46505734 640.89507006 599.11691626 693.46617206 564 737 C563.20851563 737.99644531 562.41703125 738.99289062 561.6015625 740.01953125 C549.96964069 754.38636654 536.65844293 767.83960726 521.71240234 778.74511719 C519.90204692 780.07178198 518.11663048 781.42798314 516.33203125 782.7890625 C507.90322427 789.16770807 499.229201 794.85109884 490 800 C489.18063965 800.46019531 488.3612793 800.92039062 487.51708984 801.39453125 C430.92116283 832.87478271 360.78005956 845.14785266 297.67431641 827.77294922 C263.20919639 817.81160451 232.01479162 801.81138629 206 777 C205.14535156 776.20980469 204.29070313 775.41960938 203.41015625 774.60546875 C194.29402387 765.92138056 187.22463495 755.89311117 181 745 C180.67 770.08 180.34 795.16 180 821 C120.6 821 61.2 821 0 821 C0 550.07 0 279.14 0 0 Z M269 402 C268.34725098 402.24733887 267.69450195 402.49467773 267.02197266 402.74951172 C250.91245778 409.00712137 237.23160807 417.80585474 225 430 C224.15953125 430.83660156 223.3190625 431.67320312 222.453125 432.53515625 C221.23882813 433.75525391 221.23882813 433.75525391 220 435 C219.25621094 435.73476563 218.51242188 436.46953125 217.74609375 437.2265625 C191.13230368 464.87608382 179.37911586 504.34489029 179.84765625 542.02734375 C180.74956593 580.30260147 195.84067319 616.81725928 222.1875 644.625 C245.29175432 666.62905174 276.04798586 680.40239929 308 682 C309.05703125 682.05285156 310.1140625 682.10570312 311.203125 682.16015625 C327.86443189 682.57488575 344.42119711 679.92478003 360 674 C360.65274902 673.75266113 361.30549805 673.50532227 361.97802734 673.25048828 C394.12883465 660.76176942 420.81698333 635.50055768 435 604 C452.1091997 564.41337824 453.61399801 520.81179459 437.90625 480.6328125 C430.40737847 462.1084485 419.93702669 446.29331158 406 432 C404.94619141 430.83597656 404.94619141 430.83597656 403.87109375 429.6484375 C393.18022458 418.16640344 379.19175986 410.34825487 365 404 C363.92363281 403.51789063 362.84726563 403.03578125 361.73828125 402.5390625 C350.02578457 397.68947165 336.70879513 394.44013143 324 394 C322.72511719 393.9484375 321.45023438 393.896875 320.13671875 393.84375 C302.63310779 393.36966928 285.39422365 395.76510701 269 402 Z " fill="#E91D62" transform="translate(3163,103)"/>
<path d="M0 0 C1.13397217 0.00182281 2.26794434 0.00364563 3.4362793 0.00552368 C56.30000859 0.14801477 109.83616762 8.73902267 157.625 32.3125 C158.71748047 32.84544678 158.71748047 32.84544678 159.83203125 33.38916016 C171.39796617 39.08616459 182.083172 45.9078462 192.625 53.3125 C193.20652832 53.72000488 193.78805664 54.12750977 194.38720703 54.54736328 C202.36658905 60.19390272 209.57745166 66.56355825 216.625 73.3125 C217.17945801 73.83440918 217.73391602 74.35631836 218.30517578 74.89404297 C252.98049398 107.63153645 273.67963568 152.66844093 281.625 199.3125 C281.78581055 200.20952637 281.94662109 201.10655273 282.11230469 202.03076172 C286.9073169 229.83688922 287.41654579 261.660149 281.625 289.3125 C281.37556641 290.58746338 281.37556641 290.58746338 281.12109375 291.88818359 C277.38665553 310.68831379 270.73132096 328.43120832 261.69335938 345.31591797 C260.96308195 346.68068232 260.24077245 348.04973234 259.52539062 349.42236328 C248.69269404 370.18813922 234.78533621 389.62709662 218.890625 406.8359375 C217.01640723 408.8846514 215.19884751 410.96340693 213.38671875 413.06640625 C209.49938437 417.52036199 205.37776183 421.70736785 201.1875 425.875 C200.47529297 426.59107422 199.76308594 427.30714844 199.02929688 428.04492188 C194.39152766 432.67426644 189.59472076 437.04409603 184.625 441.3125 C183.57685787 442.2381505 182.52990653 443.16515181 181.484375 444.09375 C160.64094819 462.40948501 137.52783377 478.23558137 113.97949219 492.84472656 C111.61577029 494.31825373 109.2633507 495.80826978 106.9140625 497.3046875 C98.8023414 502.46935954 90.64197779 507.52470164 82.375 512.4375 C73.93188015 517.46632507 65.73397977 522.76456934 57.625 528.3125 C56.14340825 529.31927401 54.66162836 530.32577119 53.1796875 531.33203125 C35.07677796 543.64811502 17.15086887 556.18540835 -0.375 569.3125 C-0.99487793 569.77640137 -1.61475586 570.24030273 -2.25341797 570.71826172 C-35.14305829 595.42465726 -64.1206473 621.80759243 -70.5625 664.4375 C-71.46374916 671.05789101 -71.86022629 677.62044176 -72.375 684.3125 C43.455 684.3125 159.285 684.3125 278.625 684.3125 C278.625 735.4625 278.625 786.6125 278.625 839.3125 C90.525 839.3125 -97.575 839.3125 -291.375 839.3125 C-291.375 784.41608883 -287.65245441 732.06025958 -277.375 678.3125 C-277.18420868 677.31310394 -277.18420868 677.31310394 -276.98956299 676.29351807 C-265.09882047 614.50465217 -237.66267525 555.18445863 -195.375 508.3125 C-194.83939453 507.71518066 -194.30378906 507.11786133 -193.75195312 506.50244141 C-181.27226975 492.65028411 -167.95736933 479.9517428 -153.11816406 468.65722656 C-150.72191205 466.80868929 -148.37660787 464.9002048 -146.02783203 462.99194336 C-129.21318047 449.36043159 -111.507062 437.11826564 -93.375 425.3125 C-92.5396875 424.76851563 -91.704375 424.22453125 -90.84375 423.6640625 C-80.6383979 417.05072578 -70.22693095 410.83241047 -59.70581055 404.73608398 C-3.11864649 372.03097262 -3.11864649 372.03097262 48.625 332.3125 C49.49253906 331.56742187 50.36007812 330.82234375 51.25390625 330.0546875 C75.9136199 308.52085304 93.75776551 279.38388963 96.625 246.3125 C97.9681271 221.39800503 95.2896502 193.51213062 78.1875 174 C76.68473917 172.42011071 75.16544118 170.85567246 73.625 169.3125 C73.08359375 168.75949219 72.5421875 168.20648438 71.984375 167.63671875 C50.81057197 147.79964571 20.49932667 144.60768604 -6.95410156 145.18066406 C-32.04934704 146.14779456 -57.16112216 158.9842583 -74.35546875 176.953125 C-94.9239253 200.98281119 -97.36643239 233.18398578 -99.375 263.3125 C-162.075 263.3125 -224.775 263.3125 -289.375 263.3125 C-286.62202409 188.98215054 -264.42216014 123.02087437 -209.375 71.3125 C-196.41765169 59.9275488 -182.1994619 50.08705135 -167.375 41.3125 C-166.64249023 40.87437988 -165.90998047 40.43625977 -165.15527344 39.98486328 C-133.04109581 20.95347803 -96.37194361 10.07874875 -59.6875 4.0625 C-58.77629395 3.91143799 -57.86508789 3.76037598 -56.92626953 3.60473633 C-38.01252603 0.69429828 -19.10944655 -0.06411269 0 0 Z " fill="#FFFFFF" transform="translate(1390.375,84.6875)"/>
<path d="M0 0 C2.96155715 0.00315912 5.9221102 -0.02040156 8.88354492 -0.0456543 C25.39095345 -0.10118805 41.44506615 1.61350504 57.4128418 5.94067383 C58.83016602 6.3213501 58.83016602 6.3213501 60.27612305 6.7097168 C91.97655254 15.52757342 124.83594874 30.63695773 147.79174805 54.90942383 C149.2721108 56.49259394 149.2721108 56.49259394 151.6628418 58.25317383 C157.53277953 63.09587246 162.07241843 69.38060787 166.7878418 75.31567383 C167.24304199 75.88463379 167.69824219 76.45359375 168.16723633 77.03979492 C171.54551904 81.33642197 174.22616179 85.61698582 177.1628418 90.31567383 C177.4928418 65.23567383 177.8228418 40.15567383 178.1628418 14.31567383 C237.5628418 14.31567383 296.9628418 14.31567383 358.1628418 14.31567383 C358.1628418 200.76567383 358.1628418 387.21567383 358.1628418 579.31567383 C298.7628418 579.31567383 239.3628418 579.31567383 178.1628418 579.31567383 C177.6678418 542.68567383 177.6678418 542.68567383 177.1628418 505.31567383 C171.7178418 513.23567383 171.7178418 513.23567383 166.1628418 521.31567383 C162.55754801 525.45356783 158.98933642 529.4074165 155.1628418 533.31567383 C154.27854492 534.25024414 153.39424805 535.18481445 152.4831543 536.14770508 C125.66248827 563.94013437 88.11919783 580.20431416 51.1628418 589.31567383 C50.25598633 589.54158203 49.34913086 589.76749023 48.41479492 590.00024414 C19.97800233 596.6834037 -14.30268181 596.08162739 -42.8371582 590.31567383 C-43.87678711 590.11699707 -44.91641602 589.91832031 -45.98754883 589.71362305 C-68.93396444 585.26883709 -90.75866085 578.41995351 -111.8371582 568.31567383 C-112.50618164 568.00162598 -113.17520508 567.68757812 -113.86450195 567.36401367 C-148.65880037 550.99271975 -181.2428174 525.79829534 -204.8371582 495.31567383 C-205.27995117 494.75460937 -205.72274414 494.19354492 -206.17895508 493.61547852 C-214.99954241 482.41732547 -222.60982807 470.59441727 -229.8371582 458.31567383 C-230.22887207 457.65245117 -230.62058594 456.98922852 -231.02416992 456.3059082 C-274.16950792 382.22880414 -278.34456876 284.61799332 -257.1496582 203.25317383 C-246.05059297 162.2616154 -227.43584441 123.85663788 -199.22241211 91.88964844 C-198.21774019 90.74810458 -197.2210292 89.59953846 -196.22924805 88.44677734 C-186.4557564 77.12611469 -175.80965148 66.30669018 -163.8371582 57.31567383 C-162.88317139 56.59565186 -162.88317139 56.59565186 -161.90991211 55.86108398 C-150.96022898 47.64060874 -139.67640266 40.18836082 -127.8371582 33.31567383 C-126.9409375 32.78514404 -126.9409375 32.78514404 -126.02661133 32.24389648 C-88.49927829 10.18100567 -43.24633302 -0.09604763 0 0 Z M-45.8371582 189.31567383 C-46.57579102 189.98985352 -47.31442383 190.6640332 -48.07543945 191.35864258 C-72.668392 214.64113585 -88.56742479 251.62060673 -89.96313477 285.36108398 C-90.84859365 324.51742086 -82.65544206 364.28478305 -55.8371582 394.31567383 C-55.0946582 395.17805664 -54.3521582 396.04043945 -53.5871582 396.92895508 C-32.15484313 421.44960722 -3.00750995 436.17154588 29.1628418 440.31567383 C70.48859021 442.34657435 104.9311281 431.89689947 135.90893555 403.82739258 C161.97643561 378.86914784 177.45841429 342.04347955 178.40112305 306.08911133 C178.66184998 289.80542875 178.38301626 274.16204529 174.1628418 258.31567383 C173.93741699 257.46183105 173.71199219 256.60798828 173.47973633 255.72827148 C168.19579068 236.54033851 159.19519716 217.46846727 146.1628418 202.31567383 C145.44741211 201.47520508 144.73198242 200.63473633 143.99487305 199.76879883 C141.76859539 197.23123633 139.48377448 194.76682386 137.1628418 192.31567383 C136.31979492 191.40817383 135.47674805 190.50067383 134.6081543 189.56567383 C128.06903273 182.74224263 121.1452514 177.35573013 113.1628418 172.31567383 C112.09549805 171.62602539 111.0281543 170.93637695 109.9284668 170.22583008 C60.32903131 139.89565885 -4.61260111 150.37763377 -45.8371582 189.31567383 Z " fill="#E91D62" transform="translate(2766.837158203125,343.684326171875)"/>
<path d="M0 0 C3.97762359 -0.00649114 7.95487022 -0.04070401 11.93237305 -0.07226562 C34.52417647 -0.16651822 56.86989844 1.46497578 79.03198242 5.99023438 C80.31032959 6.24554932 81.58867676 6.50086426 82.90576172 6.76391602 C101.57597309 10.56427028 119.85148893 15.64111879 137.34448242 23.24023438 C138.06039551 23.5507373 138.77630859 23.86124023 139.51391602 24.18115234 C183.30134467 43.43901409 219.06600693 76.76322237 236.59838867 121.75390625 C245.20213275 144.55208642 249.34448242 167.84671859 249.34448242 192.24023438 C190.60448242 192.24023438 131.86448242 192.24023438 71.34448242 192.24023438 C70.68448242 185.64023437 70.02448242 179.04023437 69.34448242 172.24023438 C65.60909315 155.43098263 58.38617651 140.24773511 43.71948242 130.55273438 C24.28198879 118.27737934 0.3398377 115.88658614 -22.0456543 120.36962891 C-37.69415145 124.15766244 -53.31693752 130.76606682 -62.28833008 144.71679688 C-67.91213555 155.09673498 -69.40181541 167.53311557 -66.47192383 178.98632812 C-61.30585888 193.24862225 -49.40549766 201.9557177 -36.24780273 208.42382812 C-18.65644603 216.57013869 -0.07600431 222.32331027 18.34069824 228.269104 C21.62914521 229.33226651 24.9161104 230.39992779 28.20288086 231.46826172 C63.11511202 242.84859006 63.11511202 242.84859006 98.21948242 253.61523438 C122.69543593 260.89955521 147.46405707 268.78883869 170.34448242 280.24023438 C170.99352539 280.55734375 171.64256836 280.87445312 172.3112793 281.20117188 C206.62127482 298.06009353 237.33421775 324.8710129 249.99682617 361.81445312 C264.53286788 407.51576826 259.10632707 458.3346149 237.31713867 500.76367188 C231.84620014 510.40552393 225.09890794 518.8502234 217.52026367 526.91210938 C215.82514431 528.72591752 214.25201707 530.54253148 212.71948242 532.49023438 C173.20309637 578.24604981 100.7388537 590.38147441 44.34448242 595.24023438 C43.27480225 595.33667236 42.20512207 595.43311035 41.10302734 595.5324707 C29.74472157 596.4320671 18.38494425 596.42634094 6.99707031 596.42553711 C3.57693692 596.42770587 0.15713646 596.44587207 -3.26293945 596.46484375 C-23.44879602 596.51693488 -43.61037801 595.46982274 -63.59301758 592.49023438 C-65.30714844 592.23862549 -65.30714844 592.23862549 -67.0559082 591.98193359 C-120.02812327 583.86194611 -182.32875621 563.23458701 -215.97094727 518.49072266 C-243.62650855 480.78123269 -249.65551758 437.076958 -249.65551758 391.24023438 C-194.54551758 391.24023438 -139.43551758 391.24023438 -82.65551758 391.24023438 C-81.66551758 399.16023438 -80.67551758 407.08023437 -79.65551758 415.24023438 C-75.82623817 431.9249518 -69.17049127 447.16926432 -54.46801758 456.92773438 C-52.54689575 458.06015709 -50.60827881 459.16328783 -48.65551758 460.24023438 C-47.59461914 460.83707031 -46.5337207 461.43390625 -45.44067383 462.04882812 C-18.79831214 476.23977679 13.75161491 477.82930032 42.57104492 469.56445312 C56.08969834 464.82032941 67.56523238 458.66360837 75.02026367 446.06054688 C78.50829437 438.63176174 79.8771112 432.07177716 79.78198242 423.86523438 C79.76953491 422.47933105 79.76953491 422.47933105 79.75683594 421.06542969 C79.4789488 409.84314057 76.3029347 401.31423587 68.34448242 393.24023438 C59.96440067 385.78132192 50.52306157 380.76381409 40.34448242 376.24023438 C39.5360791 375.87881348 38.72767578 375.51739258 37.89477539 375.14501953 C17.41445808 366.15224564 -4.06534793 359.89458966 -25.38800049 353.25830078 C-157.73752743 312.02191133 -157.73752743 312.02191133 -188.65551758 289.24023438 C-190.1946582 288.14195312 -190.1946582 288.14195312 -191.76489258 287.02148438 C-221.9804352 265.01762554 -238.11851818 234.44706781 -244.19042969 198.03222656 C-244.7043411 193.84216252 -244.83467001 189.76096 -244.85864258 185.54492188 C-244.86909607 184.31251266 -244.86909607 184.31251266 -244.87976074 183.0552063 C-244.89711069 180.40849668 -244.90348345 177.76199854 -244.90551758 175.11523438 C-244.90652466 174.21417969 -244.90753174 173.313125 -244.90856934 172.38476562 C-244.89851055 159.11190227 -244.44982685 146.26007365 -241.65551758 133.24023438 C-241.52161621 132.5528418 -241.38771484 131.86544922 -241.24975586 131.15722656 C-236.15513692 105.23333527 -222.61132047 82.29741551 -204.65551758 63.24023438 C-204.10637695 62.63824219 -203.55723633 62.03625 -202.99145508 61.41601562 C-163.14476624 19.31200205 -95.62132081 6.23123811 -40.65551758 1.24023438 C-39.64851807 1.14452148 -38.64151855 1.04880859 -37.60400391 0.95019531 C-25.09393499 -0.06583241 -12.54316548 0.01744806 0 0 Z " fill="#E91D62" transform="translate(4052.655517578125,342.759765625)"/>
<path d="M0 0 C55.44 0 110.88 0 168 0 C168 270.93 168 541.86 168 821 C103.98 821 39.96 821 -26 821 C-26 641.81 -26 462.62 -26 278 C-81.44 278 -136.88 278 -194 278 C-194 233.78 -194 189.56 -194 144 C-173.21 143.01 -173.21 143.01 -152 142 C-83.16594115 135.62633856 -83.16594115 135.62633856 -27 98 C-4.4717348 68.81565644 -2.5001574 36.25228225 0 0 Z " fill="#FFFFFF" transform="translate(1899,103)"/>
<path d="M0 0 C63.69 0 127.38 0 193 0 C193 270.93 193 541.86 193 821 C129.31 821 65.62 821 0 821 C0 550.07 0 279.14 0 0 Z " fill="#FFFFFF" transform="translate(871,103)"/>
<path d="M0 0 C59.4 0 118.8 0 180 0 C180 270.93 180 541.86 180 821 C120.6 821 61.2 821 0 821 C0 550.07 0 279.14 0 0 Z " fill="#E81D62" transform="translate(2284,103)"/>
</svg>
