<?xml version="1.0" encoding="UTF-8"?>
<svg version="1.1" xmlns="http://www.w3.org/2000/svg" width="1080" height="1080">
<path d="M0 0 C356.4 0 712.8 0 1080 0 C1080 356.4 1080 712.8 1080 1080 C723.6 1080 367.2 1080 0 1080 C0 723.6 0 367.2 0 0 Z " fill="#FEFEFE" transform="translate(0,0)"/>
<path d="M0 0 C2.64185966 1.25650301 4.98660698 2.61196634 7.328125 4.36328125 C8.26857666 5.06553833 8.26857666 5.06553833 9.22802734 5.78198242 C10.22890381 6.53958862 10.22890381 6.53958862 11.25 7.3125 C11.94947754 7.84012939 12.64895508 8.36775879 13.36962891 8.91137695 C23.86408968 16.87895918 34.13705354 25.12359394 43.8515625 34.03125 C45.83255268 35.84655737 47.84326567 37.61692784 49.875 39.375 C60.37410713 48.55290845 70.34965115 58.18959471 80.19262695 68.06225586 C82.32324634 70.19827357 84.45921223 72.32884118 86.59570312 74.45898438 C87.9768835 75.84082507 89.35775389 77.22297567 90.73828125 78.60546875 C91.36446854 79.22963181 91.99065582 79.85379486 92.63581848 80.49687195 C96.41101338 84.29185395 99.99951332 88.20430129 103.4959259 92.2578125 C105.41480633 94.48047527 107.3938243 96.64535186 109.375 98.8125 C118.07269158 108.46517461 126.04060378 118.73718847 134 129 C134.62390625 129.80324707 135.2478125 130.60649414 135.890625 131.43408203 C143.86752103 141.72791079 151.6728166 152.04717126 158.71337891 163.00683594 C160.15223489 165.23583409 161.61222572 167.45017449 163.07421875 169.6640625 C174.7382911 187.3762369 185.51623182 205.49246229 195.50439453 224.20117188 C196.49302278 226.05125908 197.48611487 227.8989686 198.48388672 229.74414062 C222.32218307 273.85245553 240.43080648 321.48745608 253 370 C253.42442383 371.62010986 253.42442383 371.62010986 253.85742188 373.27294922 C267.82717659 427.10628574 273.49205961 481.93266183 274.55636597 537.43966675 C275.54209525 588.28832874 282.38984209 637.51457397 297.42053223 686.12481689 C297.95727622 687.86174398 298.48816977 689.60047605 299.01855469 691.33935547 C314.728701 742.40140098 339.59031693 791.0608064 371.43408203 833.89160156 C372.98552253 835.98050711 374.52291993 838.0791738 376.05859375 840.1796875 C382.16038338 848.47642234 388.59894226 856.36778089 395.39233398 864.10498047 C396.54618218 865.46506699 397.66720414 866.8532612 398.76586914 868.25830078 C405.47531815 876.78645486 413.07029904 884.33957311 420.76586914 891.97167969 C423.0665319 894.25399976 425.35900504 896.54430719 427.65039062 898.8359375 C429.13234073 900.31297349 430.61474703 901.78955194 432.09765625 903.265625 C433.10893333 904.27523285 433.10893333 904.27523285 434.14064026 905.30523682 C438.60588927 909.72672953 443.23106563 913.90917833 448 918 C448.51570557 918.44862396 449.03141113 918.89724792 449.56274414 919.35946655 C454.79236085 923.90617762 460.0705263 928.33619434 465.6171875 932.4921875 C466.39586182 933.07597168 467.17453613 933.65975586 467.97680664 934.26123047 C469.51623768 935.40723526 471.06219888 936.54452734 472.61499023 937.67236328 C473.31567627 938.1929834 474.0163623 938.71360352 474.73828125 939.25 C475.36774658 939.70890625 475.99721191 940.1678125 476.64575195 940.640625 C478 942 478 942 478 945 C476.68654739 947.0821553 475.33979843 949.02833835 473.875 951 C473.43196533 951.60811523 472.98893066 952.21623047 472.5324707 952.84277344 C471.02942456 954.90100805 469.51541456 956.95085746 468 959 C466.89170025 960.50504132 465.78363384 962.0102545 464.67578125 963.515625 C462.91483573 965.90663588 461.15287281 968.29687288 459.38842773 970.68530273 C453.19235908 979.07569051 447.09250556 987.53427256 441 996 C433.79877656 1006.0063257 426.55744101 1015.97939506 419.23071289 1025.89428711 C415.28592924 1031.23835664 411.38040617 1036.60903669 407.5 1042 C399.76845634 1052.74024181 391.94924708 1063.41964337 384 1074 C379.47924705 1073.09142031 376.40348185 1070.57100517 372.8125 1067.8125 C372.1119751 1067.28003662 371.4114502 1066.74757324 370.68969727 1066.19897461 C362.6164927 1060.01469003 354.7714369 1053.55761247 347 1047 C346.35675781 1046.45730469 345.71351563 1045.91460938 345.05078125 1045.35546875 C329.46760103 1032.1499284 314.89075684 1017.982401 300.4375 1003.5625 C299.4465181 1002.57553635 299.4465181 1002.57553635 298.43551636 1001.56863403 C291.73849552 994.89220629 285.08587432 988.24704232 279 981 C277.93181364 979.77288556 276.86147865 978.54763836 275.7890625 977.32421875 C264.68941855 964.58312683 254.17289241 951.4904508 244 938 C243.42556152 937.24122559 242.85112305 936.48245117 242.25927734 935.70068359 C233.27748154 923.80777208 224.95088562 911.60317924 217 899 C216.4652002 898.15711426 215.93040039 897.31422852 215.37939453 896.44580078 C169.12026269 823.39555864 136.35014779 741.45112128 121.38818359 656.17333984 C121.02666813 654.14930798 120.63370621 652.13096247 120.23828125 650.11328125 C118.39015969 640.44242295 117.13882805 630.70586886 115.9375 620.9375 C115.77507812 619.63135742 115.61265625 618.32521484 115.4453125 616.97949219 C112.81649391 595.3282848 111.67939091 573.71339582 111.16629028 551.92123413 C110.59422972 527.87223403 109.89771789 503.90339701 107 480 C106.88543457 479.02240723 106.77086914 478.04481445 106.65283203 477.03759766 C104.18763442 456.52529299 100.21747818 435.99103271 95 416 C94.80889648 415.2673291 94.61779297 414.5346582 94.42089844 413.77978516 C77.99001291 351.84498132 50.95608028 290.5926298 11.43554688 239.86376953 C9.93546096 237.91620901 8.47196719 235.94529869 7.015625 233.96484375 C0.3867294 224.95920729 -6.58350406 216.36814667 -14 208 C-15.17175781 206.67742187 -15.17175781 206.67742187 -16.3671875 205.328125 C-18.56453106 202.87273042 -20.78008519 200.43499306 -23 198 C-23.82757813 197.07960937 -24.65515625 196.15921875 -25.5078125 195.2109375 C-34.51529136 185.25806727 -43.77367716 175.36528359 -54.03515625 166.6875 C-56.4595773 164.60529345 -58.78350032 162.42497793 -61.125 160.25 C-72.38592848 149.99589456 -84.79432696 141.08292292 -97 132 C-92.92421921 125.63671161 -88.49400684 119.59086127 -83.94384766 113.5637207 C-79.96863245 108.29743575 -76.03471107 103.00258779 -72.125 97.6875 C-71.54186035 96.89512939 -70.9587207 96.10275879 -70.35791016 95.28637695 C-68.57136884 92.85800413 -66.78555662 90.42909693 -65 88 C-57.88455013 78.32003957 -50.75595805 68.65224136 -43.53417969 59.05126953 C-37.90130619 51.55378478 -32.35007597 43.99641722 -26.79541016 36.44091797 C-24.39608582 33.17895921 -21.99293099 29.9198316 -19.58984375 26.66064453 C-13.04543479 17.78434041 -6.51640144 8.89688278 0 0 Z " fill="#B4B4B4" transform="translate(363,5)"/>
<path d="M0 0 C4.57945381 0.57007251 8.15087665 1.80090311 12.296875 3.80859375 C12.88308121 4.09049057 13.46928741 4.37238739 14.07325745 4.66282654 C15.96999205 5.57879958 17.86036454 6.50697849 19.75 7.4375 C20.40060394 7.75567688 21.05120789 8.07385376 21.7215271 8.40167236 C55.37928307 24.87036556 85.88693792 45.58341668 113.59375 70.81640625 C115.24780206 72.31740479 116.9153167 73.80365909 118.59375 75.27734375 C123.19008282 79.32682372 127.41553892 83.4293632 131.36328125 88.11328125 C132.95615725 89.9494605 134.62512156 91.62669033 136.375 93.3125 C140.1072447 96.98655826 143.353701 100.99263919 146.62890625 105.07421875 C148.17002264 106.97585989 149.73920744 108.85520994 151.33984375 110.70703125 C159.01973021 119.6067376 165.51074784 129.21441877 172 139 C172.43231934 139.64791504 172.86463867 140.29583008 173.31005859 140.96337891 C179.35516639 150.04946332 184.77564339 159.4242804 190 169 C190.556875 170.01102783 190.556875 170.01102783 191.125 171.04248047 C202.23563002 191.26247686 210.61379768 212.1524607 218 234 C218.30035156 234.8755957 218.60070312 235.75119141 218.91015625 236.65332031 C227.31674187 261.45680906 231.7430284 287.97650027 234 314 C234.0928125 314.95575928 234.185625 315.91151855 234.28125 316.89624023 C238.6160463 365.35694064 232.42633026 413.70313982 218 460 C217.74782715 460.83063965 217.4956543 461.6612793 217.23583984 462.51708984 C206.00404728 499.41024356 188.5739175 534.76892608 166 566 C165.48550293 566.71269043 164.97100586 567.42538086 164.44091797 568.15966797 C155.70404214 580.18500294 146.28176279 591.50601993 136.265625 602.48828125 C134.98192524 603.91141737 133.70685019 605.34277552 132.46118164 606.79931641 C128.21154062 611.755324 123.71587914 616.30466275 118.9375 620.75 C118.19290527 621.44464355 117.44831055 622.13928711 116.68115234 622.85498047 C104.0992667 634.52875649 91.00190068 645.0621845 77 655 C76.36513672 655.45084961 75.73027344 655.90169922 75.07617188 656.36621094 C59.00269542 667.66704702 41.72632602 677.6473931 23.97558594 686.06152344 C21.76095272 687.11355632 19.55653422 688.18568692 17.3515625 689.2578125 C15.79734808 690.00619161 14.24267075 690.75361023 12.6875 691.5 C11.96312744 691.8511084 11.23875488 692.2022168 10.49243164 692.56396484 C5.34675314 695 5.34675314 695 2 695 C-5.69790119 676.82583026 -13.23820512 658.5899192 -20.6875 640.3125 C-21.11049377 639.2746637 -21.53348755 638.23682739 -21.96929932 637.1675415 C-23.69481398 632.93321234 -25.41992261 628.69871804 -27.14453125 624.46401978 C-31.24800229 614.38842219 -35.35940047 604.316078 -39.47677612 594.24615479 C-40.23775144 592.38474344 -40.99843611 590.52321325 -41.75881958 588.66156006 C-45.2541853 580.10418806 -48.75248255 571.54890971 -52.34375 563.03125 C-53.06377197 561.32110718 -53.06377197 561.32110718 -53.79833984 559.57641602 C-54.64766077 557.56689832 -55.50171331 555.55936981 -56.36181641 553.55444336 C-56.71937012 552.71018799 -57.07692383 551.86593262 -57.4453125 550.99609375 C-57.74969238 550.28638428 -58.05407227 549.5766748 -58.36767578 548.84545898 C-59 547 -59 547 -59 544 C-58.47905762 543.77038574 -57.95811523 543.54077148 -57.42138672 543.30419922 C-38.59682539 534.91084765 -20.40163234 524.84830531 -5 511 C-4.21496094 510.32195312 -3.42992187 509.64390625 -2.62109375 508.9453125 C30.00938441 480.34781479 52.3911018 444.6080457 63.875 402.6875 C64.14924805 401.6876709 64.42349609 400.6878418 64.70605469 399.65771484 C68.90808397 383.5099166 70.47327715 368.05657867 70.33618164 351.38549805 C70.31244653 348.30556206 70.31566718 345.2264898 70.32226562 342.14648438 C70.30238499 327.03325974 69.04857332 312.81265125 65.25 298.125 C64.85421753 296.5795752 64.85421753 296.5795752 64.45043945 295.00292969 C54.56741709 257.28003541 35.41746099 223.71135071 8 196 C7.42467529 195.40856201 6.84935059 194.81712402 6.2565918 194.20776367 C-12.44265706 175.1581776 -36.71066204 161.54529146 -61 151 C-59.09692606 145.07156745 -56.98267197 139.28784021 -54.59375 133.5390625 C-54.11266281 132.37077156 -54.11266281 132.37077156 -53.62185669 131.17887878 C-52.5839236 128.65980189 -51.54192993 126.142426 -50.5 123.625 C-49.76966788 121.85390473 -49.03969111 120.08266289 -48.31005859 118.3112793 C-47.21594951 115.65514056 -46.12164407 112.9990851 -45.0262146 110.3434906 C-42.20645764 103.50761919 -39.40878183 96.66311002 -36.625 89.8125 C-31.76667146 77.86816747 -26.88406834 65.93382519 -22 54 C-16.82602404 41.35714154 -11.65387646 28.71356762 -6.5 16.0625 C-6.06171875 14.98677734 -5.6234375 13.91105469 -5.171875 12.80273438 C-3.43623524 8.5397101 -1.70633237 4.27485662 0 0 Z " fill="#B4B4B4" transform="translate(106,194)"/>
<path d="M0 0 C3.04864837 1.63835461 3.68110348 4.08823736 5.04394531 7.2121582 C5.33021286 7.85571762 5.61648041 8.49927704 5.91142273 9.16233826 C6.53171323 10.56111003 7.14528174 11.96287743 7.75292969 13.3671875 C9.05805992 16.38314146 10.3948499 19.38470944 11.72982788 22.38754272 C12.42324803 23.94818368 13.11497778 25.50957671 13.80508423 27.07168579 C16.92247372 34.11906571 20.17744316 41.0967597 23.47299194 48.06222534 C28.88452876 59.50262454 34.18391301 70.98976069 39.39941406 82.52075195 C45.38561069 95.7551991 51.49936832 108.92573611 57.69064331 122.06542969 C58.54222276 123.87452383 59.39101378 125.68492971 60.23974609 127.49536133 C61.37096632 129.89824748 62.51127392 132.29460882 63.66455078 134.68676758 C64.2151416 135.84370117 64.76573242 137.00063477 65.33300781 138.19262695 C65.82728271 139.2196875 66.32155762 140.24674805 66.83081055 141.30493164 C67.89941406 144.02075195 67.89941406 144.02075195 67.89941406 148.02075195 C66.73667969 148.6034082 65.57394531 149.18606445 64.37597656 149.78637695 C48.3342227 157.95084583 33.5894945 167.2952601 19.89941406 179.02075195 C18.34269157 180.27992369 16.78595622 181.53907987 15.22851562 182.79736328 C10.62135575 186.54905021 6.43667084 190.33638505 2.65722656 194.91918945 C0.58125052 197.40113415 -1.63322915 199.72687593 -3.85058594 202.08325195 C-45.46802551 247.91910068 -59.54384239 306.63978105 -57.10058594 367.02075195 C-54.82374873 404.53095137 -38.99604345 442.77377876 -17.10058594 473.02075195 C-16.49996338 473.85461426 -16.49996338 473.85461426 -15.88720703 474.70532227 C-9.98276973 482.82362631 -3.46999138 490.28354569 3.47070312 497.52905273 C4.78606625 498.90240692 6.08942256 500.28723435 7.39160156 501.6730957 C13.48854571 507.99992463 20.11165038 513.41382685 27.12011719 518.68139648 C28.26452679 519.54284422 29.40427907 520.41053301 30.53808594 521.28588867 C43.07377164 530.95616519 57.22624037 539.06671311 71.89941406 545.02075195 C70.04403702 550.94059504 67.88279045 556.55953545 65.23144531 562.1652832 C64.70420868 563.2967981 64.70420868 563.2967981 64.1663208 564.45117188 C63.41183011 566.06997087 62.65533731 567.687838 61.89700317 569.30484009 C59.84943875 573.67336067 57.81953513 578.05006447 55.79003906 582.42700195 C55.37597305 583.31958206 54.96190704 584.21216217 54.53529358 585.13179016 C50.58770905 593.65954364 46.75855629 602.23745686 42.96191406 610.83325195 C37.04608235 624.21641571 31.06145303 637.56679555 25.02441406 650.89575195 C24.61912476 651.79063324 24.21383545 652.68551453 23.79626465 653.60751343 C21.1663569 659.41300495 18.53366867 665.2172317 15.89941406 671.02075195 C15.59098572 671.70032959 15.28255737 672.37990723 14.96478271 673.08007812 C11.94704293 679.72881521 8.92608697 686.37607673 5.89941406 693.02075195 C0.96638697 692.46928032 -2.94035542 690.85925246 -7.28808594 688.58325195 C-7.97733154 688.22908203 -8.66657715 687.87491211 -9.37670898 687.51000977 C-10.85659698 686.74732752 -12.33449171 685.9807673 -13.81054688 685.21069336 C-16.1000724 684.0210188 -18.39986379 682.85348026 -20.70214844 681.6887207 C-48.09990711 667.70700736 -73.32153566 649.67134227 -96.10058594 629.02075195 C-96.98617187 628.22668945 -97.87175781 627.43262695 -98.78417969 626.61450195 C-109.10866146 617.30045054 -119.11280631 607.64267334 -128.10058594 597.02075195 C-129.40189453 595.5531543 -129.40189453 595.5531543 -130.72949219 594.0559082 C-138.86255036 584.8424138 -146.09373058 575.11036677 -153.10058594 565.02075195 C-153.61121582 564.28840332 -154.1218457 563.55605469 -154.64794922 562.80151367 C-166.24273731 546.0783333 -176.46281948 528.44930783 -185.10058594 510.02075195 C-185.50599609 509.16690918 -185.91140625 508.31306641 -186.32910156 507.43334961 C-194.79973954 489.44736164 -201.18016696 470.96195254 -207.10058594 452.02075195 C-207.53757812 450.63436523 -207.53757812 450.63436523 -207.98339844 449.2199707 C-216.80452065 420.85309875 -221.12973368 390.10887489 -221.33886719 360.44262695 C-221.34866104 359.28476181 -221.3584549 358.12689667 -221.36854553 356.9339447 C-221.53594784 332.02391859 -221.57553199 307.59549374 -217.10058594 283.02075195 C-216.77912598 281.23411133 -216.77912598 281.23411133 -216.45117188 279.41137695 C-203.30114332 208.6653718 -170.66913732 142.60527922 -122.26855469 89.4074707 C-120.82273317 87.8157645 -119.38777843 86.21411969 -117.96386719 84.6027832 C-109.5869456 75.14302794 -100.91941227 66.16088362 -90.96386719 58.34887695 C-88.52521415 56.36601582 -86.20091496 54.3222377 -83.87011719 52.21606445 C-79.25749792 48.09384398 -74.43961559 44.33306613 -69.47558594 40.64575195 C-68.60168213 39.99509766 -67.72777832 39.34444336 -66.82739258 38.67407227 C-49.64611411 25.9653656 -31.50409888 15.33450887 -12.66308594 5.27075195 C-11.17905273 4.46371826 -11.17905273 4.46371826 -9.66503906 3.64038086 C-8.73755859 3.15230957 -7.81007813 2.66423828 -6.85449219 2.16137695 C-6.03279541 1.72341797 -5.21109863 1.28545898 -4.36450195 0.83422852 C-2.10058594 0.02075195 -2.10058594 0.02075195 0 0 Z " fill="#B4B4B4" transform="translate(996.1005859375,195.979248046875)"/>
<path d="M0 0 C4.15501454 3.71448287 6.99105828 8.21284206 10.0625 12.8125 C14.08550922 18.76772742 18.15052892 24.66903742 22.4375 30.4375 C28.55890008 38.68822943 34.4134118 47.1207244 40.28759766 55.54833984 C42.88733214 59.27040054 45.50466412 62.97992544 48.125 66.6875 C48.85577759 67.72173096 48.85577759 67.72173096 49.60131836 68.77685547 C50.57817403 70.15909731 51.55514286 71.54125919 52.53222656 72.92333984 C54.52118961 75.73739834 56.50835324 78.55272496 58.49536133 81.36816406 C59.49762388 82.78821219 60.50006501 84.2081343 61.50268555 85.62792969 C63.99310561 89.15477599 66.48128462 92.68316208 68.96484375 96.21484375 C69.95557596 97.62250367 70.94646134 99.03005581 71.9375 100.4375 C72.42412109 101.1289209 72.91074219 101.8203418 73.41210938 102.53271484 C76.08231716 106.31667574 78.77756598 110.08046434 81.50390625 113.82421875 C82.0872876 114.62609619 82.67066895 115.42797363 83.27172852 116.25415039 C84.39005125 117.7882699 85.51143533 119.32016445 86.63647461 120.84936523 C89.73575 125.09995338 92.47869411 129.38164642 95 134 C94.07960938 134.66644531 93.15921875 135.33289063 92.2109375 136.01953125 C70.48053647 151.81424646 49.82850388 168.79988091 31 188 C28.2422291 190.76718309 25.47303856 193.52241265 22.6953125 196.26953125 C16.57560718 202.33310809 10.50526322 208.36385878 5 215 C4.12136177 216.04970357 3.24242973 217.09916124 2.36328125 218.1484375 C-0.09923261 221.09229989 -2.55170156 224.04430772 -5 227 C-8.27378106 226.40046093 -10.12887087 225.338012 -12.65234375 223.19140625 C-13.33949463 222.61447021 -14.02664551 222.03753418 -14.73461914 221.44311523 C-15.46156982 220.82251221 -16.18852051 220.20190918 -16.9375 219.5625 C-18.47516756 218.27177385 -20.01424138 216.98272124 -21.5546875 215.6953125 C-22.31233398 215.06141602 -23.06998047 214.42751953 -23.85058594 213.77441406 C-26.70221792 211.42029534 -29.61748269 209.17394171 -32.5625 206.9375 C-37.37289683 203.28040328 -42.07669853 199.51790782 -46.75 195.6875 C-52.23049578 191.19842419 -57.78765746 186.83626544 -63.4375 182.5625 C-70.06731462 177.54447915 -76.51044841 172.33696967 -82.90380859 167.02197266 C-88.07459372 162.7327483 -93.34772527 158.62205435 -98.6953125 154.5546875 C-103.19367879 151.10639577 -107.56501881 147.5014007 -111.95336914 143.91503906 C-118.56492146 138.51922916 -125.27019169 133.24714742 -132 128 C-131.50232669 123.69719947 -128.75381499 121.04820573 -126 117.9375 C-124.98344584 116.76643092 -123.96783254 115.5945445 -122.953125 114.421875 C-122.19612305 113.55079102 -122.19612305 113.55079102 -121.42382812 112.66210938 C-119.47262364 110.38436587 -117.61476596 108.03625102 -115.75 105.6875 C-110.16908295 98.8354844 -104.05403682 92.49270102 -97.97167969 86.08935547 C-96.04104283 84.04349238 -94.13070495 81.98067525 -92.2265625 79.91015625 C-84.42742635 71.44841513 -76.34803051 63.4450159 -67.84521484 55.69238281 C-65.99357543 53.99410755 -64.16039594 52.27797376 -62.33203125 50.5546875 C-56.30652298 44.88251687 -50.2184491 39.4019607 -43.75390625 34.2265625 C-41.28792314 32.23278892 -38.87372197 30.18945719 -36.47045898 28.12084961 C-24.82111822 18.11150785 -12.49017748 8.92926295 0 0 Z " fill="#B4B4B4" transform="translate(752,0)"/>
<path d="M0 0 C3.12151233 0.59428956 4.97084717 1.52087369 7.3984375 3.5546875 C8.03539551 4.08143066 8.67235352 4.60817383 9.32861328 5.15087891 C10.34157471 6.00431885 10.34157471 6.00431885 11.375 6.875 C12.81691859 8.06866297 14.25964118 9.26135533 15.703125 10.453125 C16.42564453 11.05189453 17.14816406 11.65066406 17.89257812 12.26757812 C20.93345346 14.76735238 24.02283313 17.20198483 27.125 19.625 C27.69541016 20.07166016 28.26582031 20.51832031 28.85351562 20.97851562 C30.56805193 22.32024223 32.28380919 23.66039049 34 25 C41.3301223 30.72168404 48.61594588 36.48579206 55.8125 42.375 C61.27299073 46.84159287 66.81205566 51.18079105 72.4375 55.4375 C78.97175482 60.38318927 85.31741578 65.5164455 91.61376953 70.76049805 C97.27243854 75.45255935 103.07661251 79.92503261 108.93920898 84.3581543 C115.12403907 89.05077141 121.0952651 93.95992763 127 99 C126.41096527 102.86442484 124.61765921 104.98800111 122.125 107.9375 C121.3103125 108.906875 120.495625 109.87625 119.65625 110.875 C119.22183594 111.38546875 118.78742188 111.8959375 118.33984375 112.421875 C116.99794869 114.00241612 115.66954268 115.59343841 114.34375 117.1875 C108.59343391 124.07706889 102.64867291 130.74723964 96.5378418 137.31860352 C95.4094069 138.55237573 94.29572608 139.79968493 93.19067383 141.05444336 C86.71805365 148.37886369 79.86386402 155.28855578 72.94311523 162.18725586 C70.93422136 164.19076986 68.93075611 166.19960152 66.92773438 168.20898438 C60.78614384 174.35371721 54.63297609 180.38178177 48 186 C46.28732679 187.57863792 44.57852976 189.16149958 42.875 190.75 C37.1598791 195.95554221 31.15814242 200.70798093 25.03613281 205.42285156 C22.75053663 207.19322942 20.48030394 208.98230733 18.2109375 210.7734375 C16.57818433 212.05736712 14.94537249 213.34122213 13.3125 214.625 C12.53382568 215.24149414 11.75515137 215.85798828 10.95288086 216.49316406 C10.22206299 217.06518555 9.49124512 217.63720703 8.73828125 218.2265625 C8.08899658 218.73783691 7.43971191 219.24911133 6.77075195 219.77587891 C5 221 5 221 2 222 C1.23558594 220.93265625 0.47117187 219.8653125 -0.31640625 218.765625 C-6.88979652 209.6123949 -13.55993504 200.54106425 -20.33789062 191.53833008 C-26.37152286 183.52056108 -32.32492103 175.44527674 -38.26611328 167.35888672 C-41.17371619 163.40320391 -44.08709487 159.45177906 -47 155.5 C-50.49111479 150.76379551 -53.98109802 146.02678478 -57.46484375 141.28515625 C-65.30890547 130.61409734 -73.22548925 119.99969464 -81.18505859 109.41455078 C-84.10582877 105.5288342 -87.02150974 101.63930408 -89.9375 97.75 C-90.92575649 96.4322731 -91.91403504 95.11456274 -92.90234375 93.796875 C-93.59457031 92.87390625 -94.28679687 91.9509375 -95 91 C-91.51135101 87.36974533 -87.91188757 84.28510466 -83.875 81.25 C-77.79898144 76.63693345 -71.85363865 71.89402576 -66 67 C-65.47857422 66.56494141 -64.95714844 66.12988281 -64.41992188 65.68164062 C-49.90434253 53.53105531 -35.45420061 40.77404566 -23.109375 26.390625 C-20.87977896 23.86374949 -18.58594971 21.40798544 -16.27880859 18.95214844 C-10.5420794 12.84493915 -5.08571878 6.66828383 0 0 Z " fill="#B4B4B4" transform="translate(361,858)"/>
</svg>
