<svg xmlns="http://www.w3.org/2000/svg" viewBox="0 0 64 64" fill="none">
  <defs>
    <linearGradient id="bg" x1="0" y1="0" x2="64" y2="64" gradientUnits="userSpaceOnUse">
      <stop offset="0%" stop-color="#5AC8FA"/>
      <stop offset="33%" stop-color="#AF52DE"/>
      <stop offset="66%" stop-color="#FF6482"/>
      <stop offset="100%" stop-color="#FFD60A"/>
    </linearGradient>
  </defs>
  <rect width="64" height="64" rx="14" fill="url(#bg)"/>
  <g transform="translate(16, 10)" fill="white">
    <path d="M26.2 11.6c-1.5 1.7-3.9 3-6.3 2.8-.3-2.4.9-5 2.3-6.6C23.7 6 26.3 4.8 28.4 4.7c.3 2.5-.7 5-2.2 6.9zM28.3 14.7c-3.5-.2-6.5 2-8.2 2s-4.3-1.9-7.1-1.8c-3.6.1-7 2.1-8.8 5.4-3.8 6.6-1 16.3 2.7 21.6 1.8 2.6 3.9 5.5 6.7 5.4 2.7-.1 3.7-1.7 7-1.7 3.2 0 4.1 1.7 6.9 1.6 2.9-.1 4.7-2.6 6.5-5.3 2-2.9 2.8-5.8 2.9-5.9-.1 0-5.5-2.1-5.6-8.4-.1-5.3 4.3-7.8 4.5-8-2.5-3.6-6.3-4-7.5-4z"/>
  </g>
</svg>
