<svg width="512" height="512" viewBox="0 0 512 512" fill="none" xmlns="http://www.w3.org/2000/svg">
<rect width="512" height="512" rx="64" fill="#1a1a2e"/>
<path d="M256 96c-88.4 0-160 71.6-160 160s71.6 160 160 160 160-71.6 160-160S344.4 96 256 96zm0 288c-70.7 0-128-57.3-128-128s57.3-128 128-128 128 57.3 128 128-57.3 128-128 128z" fill="#e94560"/>
<path d="M320 224c0-35.3-28.7-64-64-64s-64 28.7-64 64c0 23.6 12.8 44.2 31.8 55.3L176 368h160l-47.8-88.7C307.2 268.2 320 247.6 320 224z" fill="#e94560"/>
<circle cx="240" cy="216" r="12" fill="#1a1a2e"/>
<path d="M288 208l48-32c8-5.3 8-5.3 16 0l-48 48-16-16z" fill="#e94560"/>
</svg>
