<svg width="512" height="512" viewBox="0 0 512 512" fill="none" xmlns="http://www.w3.org/2000/svg">
<path fill-rule="evenodd" clip-rule="evenodd" d="M199.677 286.538C208.288 286.538 225.424 286.058 249.105 276.312C276.699 264.951 331.611 244.311 371.22 223.132C398.931 208.324 411.077 188.716 411.077 162.33C411.077 153.618 409.361 144.991 406.026 136.943C402.692 128.895 397.805 121.582 391.644 115.422C385.483 109.263 378.169 104.377 370.12 101.045C362.07 97.7123 353.444 95.9981 344.732 96H191.255C165.988 96.0039 141.758 106.044 123.893 123.911C106.028 141.778 95.9917 166.01 95.9917 191.276C95.9917 243.889 135.921 286.538 199.677 286.538Z" fill="#39594D"/>
<path fill-rule="evenodd" clip-rule="evenodd" d="M225.628 352.159C225.627 339.545 229.364 327.215 236.367 316.724C243.371 306.234 253.326 298.054 264.975 293.218L313.312 273.145C362.202 252.868 416.008 288.796 416.008 341.729C416.008 351.48 414.087 361.135 410.355 370.144C406.623 379.152 401.153 387.338 394.258 394.232C387.362 401.126 379.176 406.594 370.166 410.325C361.157 414.055 351.501 415.974 341.75 415.972L289.427 415.957C281.048 415.957 272.75 414.307 265.009 411.1C257.267 407.892 250.234 403.192 244.309 397.266C238.384 391.34 233.685 384.305 230.48 376.563C227.275 368.821 225.626 360.523 225.628 352.144V352.159Z" fill="#D18EE2"/>
<path d="M150.918 299.094C143.705 299.092 136.561 300.512 129.896 303.271C123.232 306.031 117.176 310.077 112.075 315.177C106.974 320.278 102.928 326.334 100.169 332.998C97.4092 339.663 95.9898 346.806 95.9917 354.02V361.133C96.2262 375.543 102.115 389.284 112.389 399.392C122.663 409.5 136.498 415.165 150.911 415.165C165.323 415.165 179.159 409.5 189.432 399.392C199.706 389.284 205.595 375.543 205.83 361.133V354.005C205.83 346.794 204.41 339.654 201.65 332.992C198.891 326.33 194.846 320.276 189.747 315.177C184.648 310.078 178.594 306.034 171.932 303.274C165.27 300.514 158.129 299.094 150.918 299.094Z" fill="#FF7759"/>
</svg>
