<?xml version="1.0" encoding="UTF-8"?>
<!-- Generated by Pixelmator Pro 3.5.5 -->
<svg width="207" height="232" viewBox="0 0 207 232" xmlns="http://www.w3.org/2000/svg">
    <path id="path1" fill="#00ace2" stroke="none" d="M 172.676132 23.81517 C 173.305786 24.25174 173.935455 24.688293 174.584183 25.138092 C 188.875229 36.188934 197.384201 54.617493 199.657776 72.19603 C 201.410202 92.32843 196.472839 111.50235 183.913635 127.50766 C 175.958618 136.793488 166.164444 144.531433 156.586731 152.076065 C 153.316956 154.666412 150.089554 157.307343 146.857498 159.944489 C 141.61644 164.213379 136.337646 168.42807 131.012512 172.591461 C 127.045525 175.694809 123.106667 178.831604 119.17807 181.983368 C 112.014297 187.727692 104.794464 193.398743 97.565323 199.06041 C 95.949699 200.326126 94.334671 201.59259 92.719788 202.859253 C 91.923378 203.482941 91.923378 203.482941 91.110893 204.119247 C 88.218468 206.389511 85.344269 208.679749 82.489006 210.996628 C 81.876663 211.492035 81.264328 211.987427 80.63343 212.497849 C 79.468285 213.442093 78.305809 214.389648 77.146698 215.341293 C 66.913651 223.626007 66.913651 223.626007 61.958397 224.142181 C 61.344326 224.046234 60.730267 223.950287 60.097595 223.851425 C 60.314285 215.59906 63.636395 208.962982 67.0756 201.638092 C 67.924942 199.799591 68.770943 197.959579 69.616371 196.119263 C 70.37957 194.462692 71.150604 192.809738 71.92205 191.156998 C 73.171104 188.510849 73.171104 188.510849 74.053612 185.704987 C 68.64537 188.186478 64.445831 190.92009 60.039444 194.892685 C 59.446068 195.415833 58.852692 195.938965 58.241333 196.477966 C 54.499352 199.798721 50.847046 203.208344 47.214855 206.648315 C 34.310322 218.867661 34.310322 218.867661 28.463953 221.990631 C 27.542852 221.683594 26.621763 221.376556 25.67275 221.060226 C 26.148457 215.917709 27.077707 211.858459 29.143583 207.071503 C 29.397493 206.47493 29.651402 205.878387 29.913006 205.263748 C 30.719852 203.372849 31.539349 201.487778 32.360008 199.602844 C 34.48402 194.664902 36.598221 189.722717 38.698368 184.774582 C 38.969879 184.135864 39.241409 183.497162 39.521156 182.839096 C 40.318932 180.950073 41.104115 179.056305 41.885719 177.160553 C 42.346645 176.05304 42.80756 174.945511 43.282455 173.804428 C 44.214191 171.017715 44.505962 169.069382 44.280773 166.166565 C 35.963737 172.93457 28.911509 180.89212 22.241896 189.252136 C 18.854584 193.448273 15.316018 197.588684 10.786331 200.5914 C 9.86523 200.5914 8.944141 200.5914 7.995128 200.5914 C 7.618643 194.909241 8.913604 190.61438 10.866288 185.308838 C 11.171448 184.454285 11.476594 183.599716 11.790997 182.719284 C 12.803185 179.892365 13.82994 177.070999 14.856836 174.24942 C 15.57819 172.244247 16.298607 170.238739 17.018156 168.232925 C 18.522421 164.045166 20.032761 159.85965 21.548183 155.675919 C 23.689997 149.761688 25.815754 143.841797 27.936968 137.920166 C 31.023607 129.307251 34.12907 120.701286 37.242371 112.097992 C 39.592239 105.596886 41.919506 99.088028 44.235558 92.574814 C 45.89262 87.917053 47.562008 83.263733 49.231792 78.610519 C 50.029354 76.380905 50.822701 74.149796 51.611458 71.917068 C 57.317783 55.77446 62.771263 41.78894 74.984009 29.397583 C 75.496132 28.818298 76.008255 28.239014 76.535896 27.642181 C 101.713165 -0.021744 144.756042 4.140182 172.676132 23.81517 Z"/>
    <path id="path2" fill="#0274c3" stroke="none" d="M 159.650513 31.258377 C 162.99411 33.834106 165.987396 36.634689 168.954529 39.631989 C 169.604568 40.250854 170.254623 40.86972 170.924362 41.507339 C 175.039474 45.702499 177.822342 50.250519 180.468246 55.448822 C 180.779022 56.055756 181.089813 56.662704 181.410004 57.28804 C 187.366852 69.598755 187.938889 86.343475 183.924545 99.34848 C 176.853455 117.621803 165.484314 129.33992 147.555298 137.324127 C 132.47789 143.263 116.934052 142.057892 102.045601 136.270142 C 86.636047 129.066299 75.279984 115.734894 69.214432 100.01062 C 65.021637 87.250626 65.597115 70.453049 71.262405 58.240021 C 71.65699 57.371689 72.051582 56.503372 72.458122 55.608734 C 80.301575 39.965515 92.808426 29.703247 109.118103 23.847885 C 126.161858 18.71109 144.680328 21.902008 159.650513 31.258377 Z"/>
    <path id="path3" fill="#fafdfe" stroke="none" d="M 159.650513 31.258377 C 162.99411 33.834106 165.987396 36.634689 168.954529 39.631989 C 169.604568 40.250854 170.254623 40.86972 170.924362 41.507339 C 175.039474 45.702499 177.822342 50.250519 180.468246 55.448822 C 180.779022 56.055756 181.089813 56.662704 181.410004 57.28804 C 187.366852 69.598755 187.938889 86.343475 183.924545 99.34848 C 176.853455 117.621803 165.484314 129.33992 147.555298 137.324127 C 132.47789 143.263 116.934052 142.057892 102.045601 136.270142 C 86.636047 129.066299 75.279984 115.734894 69.214432 100.01062 C 65.021637 87.250626 65.597115 70.453049 71.262405 58.240021 C 71.65699 57.371689 72.051582 56.503372 72.458122 55.608734 C 80.301575 39.965515 92.808426 29.703247 109.118103 23.847885 C 126.161858 18.71109 144.680328 21.902008 159.650513 31.258377 Z M 91.865707 52.010696 C 83.800644 62.147125 80.260071 74.238358 81.496819 87.082458 C 84.104073 100.846283 90.752655 111.152824 101.965645 119.646492 C 113.062378 126.624504 125.605484 127.880402 138.367599 125.170753 C 150.727997 121.643921 160.545029 113.843178 166.795715 102.67395 C 172.316055 91.14328 173.426147 79.770142 169.91037 67.456802 C 166.011871 56.428329 158.713577 47.32756 148.500244 41.45282 C 145.189835 39.881027 141.762573 38.796188 138.251297 37.771194 C 137.330185 37.464157 136.409103 37.15712 135.460083 36.84079 C 117.786926 35.278214 104.401039 39.058243 91.865707 52.010696 Z"/>
    <path id="path4" fill="#fcfdfe" stroke="none" d="M 146.857498 52.308716 C 152.666016 57.023727 157.19664 63.906693 158.167694 71.385574 C 158.392334 79.612976 157.045456 85.885162 152.207306 92.664856 C 148.15007 96.237198 145.785507 97.628723 140.291992 97.549469 C 136.831467 97.155045 134.074509 95.699219 131.04068 94.060471 C 130.399109 93.725327 129.757538 93.390182 129.096512 93.044876 C 107.918068 81.768173 107.918068 81.768173 103.826447 72.19603 C 102.928505 66.583862 104.791039 63.165741 107.75885 58.58165 C 112.279152 52.547943 117.527527 49.355011 124.760475 47.365952 C 132.801361 46.360855 140.123291 47.673309 146.857498 52.308716 Z"/>
</svg>
