<svg width="64" height="64" viewBox="0 0 64 64" fill="none" xmlns="http://www.w3.org/2000/svg">
<path d="M61.8781 13.5771C61.2527 13.2647 60.9836 13.86 60.618 14.1622C60.4928 14.2596 60.3868 14.3863 60.2813 14.5032C59.3672 15.4981 58.2992 16.1517 56.9041 16.0737C54.8647 15.9568 53.1229 16.6102 51.5836 18.1999C51.2565 16.2395 50.1694 15.0685 48.5146 14.3179C47.6487 13.9278 46.7733 13.5374 46.167 12.6888C45.7437 12.0843 45.6282 11.4112 45.4166 10.7479C45.282 10.3482 45.147 9.93833 44.6948 9.86983C44.2042 9.79178 44.0114 10.211 43.8193 10.5626C43.0496 11.9966 42.7513 13.5766 42.7804 15.1761C42.8479 18.7756 44.339 21.6429 47.3025 23.6818C47.6392 23.916 47.7256 24.15 47.6201 24.4914C47.418 25.1939 47.1775 25.8764 46.9658 26.5789C46.8311 27.0276 46.6287 27.1251 46.1574 26.9302C44.5316 26.2379 43.1266 25.2133 41.8854 23.9748C39.7783 21.897 37.8735 19.6047 35.4969 17.8098C34.9469 17.3953 34.3821 17.0016 33.8036 16.6296C31.379 14.2302 34.1212 12.2596 34.7561 12.0257C35.4199 11.7817 34.9871 10.943 32.8412 10.9527C30.6957 10.9624 28.7328 11.6939 26.2315 12.6694C25.8658 12.816 25.4811 12.9232 25.0865 13.0106C22.8159 12.5716 20.4587 12.4741 17.9956 12.7569C13.358 13.2833 9.65408 15.5173 6.93131 19.3312C3.66024 23.9165 2.8903 29.1249 3.83327 34.5581C4.82422 40.2836 7.69125 45.0243 12.0978 48.7311C16.6679 52.5737 21.9309 54.4565 27.9343 54.0956C31.5806 53.8812 35.641 53.3839 40.2207 49.4331C41.3753 50.0181 42.5874 50.2525 44.5983 50.428C46.1474 50.5746 47.6387 50.35 48.7933 50.1064C50.6022 49.7163 50.4771 48.0091 49.8227 47.6972C44.5218 45.1809 45.6854 46.205 44.6273 45.3759C46.9715 42.5494 50.3507 39.6267 52.2343 31.7096C52.686 29.8112 52.9689 27.6901 52.9689 25.7017C52.9689 25.3034 53.0553 25.1069 53.5366 25.058C54.8642 24.9017 56.1534 24.5315 57.3369 23.8679C60.7716 21.9561 62.1572 18.8153 62.4844 15.0502C62.5323 14.4748 62.4748 13.8792 61.8781 13.5771ZM31.9467 47.4624C26.8088 43.3466 24.317 41.9904 23.2876 42.049C22.3256 42.1076 22.4986 43.2294 22.7102 43.9609C22.9314 44.6828 23.2204 45.1801 23.6243 45.8141C23.9033 46.2337 24.0958 46.8576 23.3454 47.3263C21.6907 48.3696 18.8138 46.975 18.6789 46.9065C15.3308 44.8972 12.531 42.2442 10.5584 38.6158C8.6536 35.1234 7.54698 31.3783 7.36442 27.3789C7.31628 26.4134 7.59544 26.0716 8.53809 25.8963C9.77912 25.662 11.0588 25.6131 12.2999 25.7984C17.5434 26.5789 22.0075 28.9686 25.7503 32.7531C27.8863 34.9085 29.5026 37.484 31.1674 40.0003C32.9376 42.673 34.8426 45.219 37.2672 47.3063C38.1236 48.0378 38.8064 48.5939 39.4609 49.0038C37.4884 49.2279 34.1977 49.2768 31.9467 47.4624ZM34.4317 31.1318C34.5132 30.7956 34.8101 30.5491 35.1698 30.5491C35.2585 30.5494 35.3464 30.5658 35.4294 30.5977C35.5354 30.6369 35.6315 30.6955 35.7085 30.783C35.8431 30.9198 35.9202 31.1148 35.9202 31.3195C35.9202 31.7488 35.5835 32.09 35.1602 32.09C34.9816 32.0917 34.8083 32.0276 34.6723 31.9096C34.5362 31.7915 34.4466 31.6274 34.4197 31.4474C34.403 31.3425 34.4071 31.2352 34.4317 31.1318ZM41.8104 35.4192C41.4031 35.5779 40.9976 35.7024 40.6058 35.7187C39.8744 35.7576 39.0761 35.4552 38.6433 35.0846C37.9699 34.5092 37.4888 34.1876 37.2867 33.1824C37.2001 32.7531 37.2481 32.09 37.3252 31.7096C37.4984 30.8902 37.3058 30.3634 36.7384 29.8855C36.2767 29.4954 35.6895 29.3882 35.0451 29.3882C34.8045 29.3882 34.5833 29.281 34.4197 29.1932C34.1502 29.0569 33.9291 28.7154 34.1407 28.2958C34.2082 28.1594 34.5354 27.8276 34.6124 27.7693C35.4877 27.262 36.4982 27.4278 37.4311 27.8082C38.2971 28.1691 38.9515 28.8323 39.8943 29.7686C40.8563 30.8999 41.0295 31.2123 41.5781 32.0608C42.0112 32.724 42.4056 33.407 42.6751 34.1871C42.8121 34.595 42.6862 34.9421 42.3092 35.187C42.1558 35.2865 41.9795 35.3533 41.8104 35.4192Z" fill="#4D6BFE" style="fill:#4D6BFE;fill:color(display-p3 0.3020 0.4196 0.9961);fill-opacity:1;"/>
</svg>
