<svg width="512" height="512" viewBox="0 0 80 80" fill="none" xmlns="http://www.w3.org/2000/svg">
<circle cx="40" cy="40" r="40" fill="#3B82F6"/>
<path d="M59.9998 20.2666V47.615L46.672 61.0532C38.4853 60.8131 30.2726 60.8186 22.0803 60.6399C26.8312 56.1728 30.9709 50.238 37.3627 48.0296C41.5243 46.592 46.1223 46.416 50.3139 47.8196C50.1571 46.431 49.5515 45.1202 49.2855 43.7344C48.7235 40.8127 48.6608 37.6359 49.1273 34.6965C49.3919 33.0324 49.9798 31.4583 50.3139 29.8147C48.6921 30.2143 47.114 30.7586 45.454 31.0232C41.0237 31.7297 36.6889 31.1705 32.4468 29.8147C34.5105 37.1367 32.6964 44.9729 27.3509 50.3635L19.4901 58.0497L19.25 33.4688L32.3786 20.2666H59.9998Z" fill="#050812"/>
</svg>
