<svg width="512" height="512" viewBox="0 0 512 512" fill="none" xmlns="http://www.w3.org/2000/svg">
<rect width="512" height="512" fill="#F55036"/>
<path fill-rule="evenodd" clip-rule="evenodd" d="M256.516 114.004C201.475 113.504 156.518 156.904 156.004 210.971C155.504 265.053 199.646 309.239 254.688 309.74H289.259V273.046H256.516C222.131 273.447 193.946 246.363 193.546 212.558C193.132 178.782 220.703 151.098 255.088 150.698H256.516C290.901 150.698 318.772 178.082 318.872 211.872V302.032C318.872 335.522 291.101 362.806 257.116 363.221C240.9 363.106 225.364 356.686 213.789 345.318L187.346 371.315C205.797 389.458 230.553 399.739 256.416 400H257.731C312.058 399.199 355.7 355.914 356 302.533V209.584C354.671 156.375 310.53 114.004 256.516 114.004Z" fill="white"/>
</svg>
