<svg width="512" height="512" viewBox="0 0 512 512" fill="none" xmlns="http://www.w3.org/2000/svg">
<path d="M60.2144 246.574C60.2144 178.124 97.3226 114.897 157.536 80.662C187.21 63.8415 220.737 55 254.847 55C288.957 55 322.484 63.8415 352.158 80.662C412.371 114.897 449.479 178.124 449.479 246.574C449.479 352.374 362.344 438.143 254.857 438.143C147.369 438.143 60.2144 352.354 60.2144 246.574Z" fill="#FF9D0B"/>
<path d="M254.858 418.375C351.234 418.375 429.389 341.446 429.389 246.576C429.389 151.705 351.234 74.7968 254.858 74.7968C158.46 74.7968 80.3062 151.705 80.3062 246.576C80.3062 341.446 158.46 418.354 254.858 418.354V418.375Z" fill="#FFD21E"/>
<path d="M253.59 318.457C302.954 318.457 318.886 275.141 318.886 252.9C318.886 241.328 310.991 244.984 298.333 251.112C286.64 256.798 270.909 264.674 253.651 264.674C217.527 264.674 188.354 230.659 188.354 252.9C188.354 275.141 204.226 318.457 253.651 318.457H253.59Z" fill="#FF323D"/>
<path d="M311.551 199.859C317.98 202.029 320.491 214.988 326.961 211.613C335.941 206.931 341.165 197.388 340.201 187.423C339.7 182.524 337.754 177.886 334.609 174.097C331.464 170.308 327.263 167.54 322.541 166.146C317.8 164.712 312.744 164.697 307.995 166.104C303.246 167.511 299.014 170.277 295.82 174.062C289.35 181.777 288.245 192.546 293.007 201.386C296.081 207.072 305.825 197.83 311.591 199.799L311.551 199.859ZM193.275 199.859C186.845 202.029 184.274 214.988 177.845 211.613C173.48 209.358 169.89 205.851 167.534 201.54C165.178 197.23 164.165 192.313 164.625 187.423C165.589 177.478 172.561 169.08 182.265 166.146C187.005 164.712 192.062 164.697 196.81 166.104C201.559 167.511 205.792 170.277 208.986 174.062C215.455 181.777 216.56 192.546 211.799 201.386C208.745 207.072 198.94 197.83 193.214 199.799L193.275 199.859ZM215.777 307.146C218.454 301.815 222.199 297.092 226.778 293.269C231.358 289.447 236.674 286.606 242.397 284.925C243.804 284.523 245.29 286.13 246.797 288.361L250.655 294.508C252.041 296.517 253.447 298.024 254.854 298.024C256.341 298.024 257.867 296.538 259.334 294.569L263.453 288.501C265.06 286.291 266.607 284.724 268.154 285.186C278.943 288.561 287.964 295.955 293.268 305.8C311.993 291.254 318.884 267.526 318.884 252.9C318.884 242.693 312.736 244.341 302.61 249.082L290.234 255.029C279.787 259.851 267.17 264.673 253.588 264.673C240.006 264.673 227.429 259.851 216.962 255.029L205.128 249.344C194.681 244.361 188.292 242.472 188.292 252.9C188.292 267.024 194.721 289.687 212.14 304.333L215.757 307.146H215.777Z" fill="#3A3B45"/>
<path d="M372.867 223.085C374.995 223.104 377.106 222.702 379.079 221.904C381.052 221.106 382.848 219.927 384.366 218.435C385.883 216.942 387.09 215.165 387.92 213.205C388.75 211.245 389.185 209.14 389.201 207.012C389.201 198.152 381.888 190.939 372.867 190.939C370.74 190.923 368.631 191.326 366.66 192.126C364.69 192.925 362.896 194.104 361.381 195.597C359.866 197.089 358.66 198.866 357.831 200.824C357.003 202.783 356.568 204.886 356.553 207.012C356.553 215.892 363.866 223.085 372.867 223.085ZM139.328 223.085C141.454 223.101 143.563 222.698 145.534 221.899C147.505 221.099 149.299 219.92 150.814 218.427C152.329 216.935 153.535 215.159 154.363 213.2C155.191 211.241 155.626 209.139 155.642 207.012C155.642 198.152 148.329 190.939 139.328 190.939C137.2 190.921 135.089 191.322 133.115 192.12C131.142 192.918 129.346 194.097 127.829 195.59C126.312 197.082 125.104 198.86 124.274 200.82C123.445 202.78 123.009 204.884 122.994 207.012C122.994 215.892 130.307 223.085 139.328 223.085ZM105.715 277.472C97.5785 277.472 90.3457 280.726 85.2827 286.713C80.964 291.944 78.5987 298.514 78.5924 305.298C75.4274 304.36 72.1489 303.86 68.8482 303.811C61.073 303.811 54.0411 306.744 49.0585 312.028C44.6316 316.524 41.8322 322.369 41.1043 328.636C40.3764 334.903 41.7616 341.234 45.0403 346.625C40.6136 350.176 37.4615 355.069 36.0596 360.568C34.8541 365.029 33.6486 374.431 40.0778 383.995C37.6655 387.627 36.2268 391.818 35.8996 396.167C35.5724 400.515 36.3677 404.874 38.2093 408.827C42.991 419.536 54.4831 428.074 76.1815 437.055L81.0033 438.984C96.4333 445.011 110.598 448.869 110.698 448.909C128.579 453.791 147.023 456.443 165.587 456.825C195.02 456.825 216.076 447.924 228.171 430.425C246.855 403.463 245.087 378.69 222.666 354.822L219.632 351.728C205.729 337.986 196.427 317.774 194.518 313.314C190.6 300.154 180.253 285.528 163.136 285.528C153.894 285.669 145.275 290.209 140.031 297.683C135.008 291.455 130.086 286.573 125.666 283.74C119.743 279.805 112.825 277.631 105.715 277.472ZM406.479 277.472C414.616 277.472 421.889 280.726 426.912 286.713C431.251 291.977 433.602 298.527 433.602 305.298C436.776 304.353 440.071 303.871 443.386 303.811C451.182 303.811 458.214 306.744 463.176 312.028C467.603 316.524 470.402 322.369 471.13 328.636C471.858 334.903 470.473 341.234 467.194 346.625C471.614 350.201 474.769 355.104 476.135 360.568C477.34 365.029 478.546 374.431 472.117 383.995C477.019 391.428 477.722 400.791 473.985 408.827C469.203 419.536 457.711 428.074 436.033 437.055L431.231 438.984C415.761 445.011 401.597 448.869 401.496 448.909C383.615 453.791 365.172 456.443 346.608 456.825C317.174 456.825 296.119 447.924 284.024 430.425C265.339 403.463 267.107 378.69 289.529 354.822L292.563 351.728C306.526 337.986 315.808 317.774 317.717 313.314C321.634 300.154 331.941 285.528 349.059 285.528C358.301 285.669 366.92 290.209 372.163 297.683C377.186 291.455 382.109 286.573 386.589 283.74C391.491 280.485 397.096 278.416 402.943 277.713L406.479 277.472Z" fill="#FF9D0B"/>
<path d="M211.605 419.296C225.428 399.326 224.423 384.338 205.477 365.713C186.491 347.069 175.441 319.745 175.441 319.745C175.441 319.745 171.322 303.913 161.94 305.4C152.537 306.886 145.666 330.514 165.355 344.999C184.984 359.485 161.438 369.309 153.843 355.728C146.309 342.126 125.615 307.188 114.866 300.457C104.178 293.787 96.6438 297.484 99.1552 311.327C101.667 325.129 146.51 358.541 142.15 365.713C137.77 372.986 122.401 357.275 122.401 357.275C122.401 357.275 74.3427 314.179 63.8351 325.43C53.3877 336.641 71.8313 346.044 97.9899 361.655C124.269 377.286 126.318 381.444 122.602 387.371C118.844 393.298 60.9219 345.18 55.4973 365.613C50.0727 385.925 114.625 391.811 110.647 405.915C106.629 419.979 65.141 379.315 56.7028 395.126C48.164 410.998 115.228 429.643 115.771 429.784C137.368 435.329 192.378 447.042 211.605 419.296ZM300.649 419.296C286.846 399.326 287.79 384.338 306.777 365.713C325.722 347.069 336.773 319.745 336.773 319.745C336.773 319.745 340.891 303.913 350.334 305.4C359.676 306.886 366.548 330.514 346.919 344.999C327.229 359.485 350.836 369.309 358.37 355.728C365.945 342.126 386.639 307.188 397.347 300.457C408.036 293.787 415.63 297.484 413.058 311.327C410.547 325.129 365.744 358.541 370.124 365.713C374.443 372.986 389.813 357.275 389.813 357.275C389.813 357.275 437.931 314.179 448.379 325.43C458.826 336.641 440.443 346.044 414.224 361.655C387.945 377.286 385.935 381.444 389.612 387.371C393.369 393.298 451.292 345.18 456.716 365.613C462.141 385.925 397.649 391.811 401.606 405.915C405.625 419.979 447.073 379.315 455.551 395.126C464.05 410.998 397.046 429.643 396.483 429.784C374.845 435.329 319.836 447.042 300.649 419.296Z" fill="#FFD21E"/>
</svg>
