<svg width="16" height="15" viewBox="0 0 16 15" fill="none" xmlns="http://www.w3.org/2000/svg">
<path d="M15.9452 10.9192C15.9034 10.7617 15.8358 10.6124 15.7452 10.477C15.7646 10.4058 15.7794 10.3334 15.7893 10.2602C15.8537 9.79595 15.6927 9.37092 15.3895 9.04208C15.2252 8.86247 15.049 8.74384 14.8625 8.67105C14.9849 8.14721 15.0469 7.61109 15.0472 7.07319C15.0472 6.82747 15.0333 6.5868 15.01 6.3497C14.9978 6.23131 14.9832 6.11322 14.9659 5.99545C14.9125 5.64796 14.8333 5.30489 14.7289 4.96921C14.6604 4.74864 14.5813 4.53153 14.4916 4.31867C14.3573 4.00343 14.2005 3.69826 14.0223 3.40554C13.9055 3.21078 13.7782 3.02245 13.6411 2.84138C13.5739 2.74994 13.5039 2.66067 13.4311 2.57367C13.2153 2.3114 12.9807 2.06511 12.7293 1.83674C12.6458 1.75996 12.56 1.68582 12.4718 1.6144C12.385 1.54202 12.2963 1.47198 12.2058 1.40434C12.0236 1.26874 11.8354 1.14154 11.6416 1.02313C10.571 0.372895 9.31555 0 7.97367 0C4.06666 0 0.900165 3.16665 0.900165 7.07343C0.90001 7.61816 0.963091 8.16104 1.08817 8.69117C0.920364 8.76404 0.759553 8.87762 0.610395 9.04192C0.307185 9.37061 0.146141 9.79408 0.210543 10.2583C0.220331 10.3321 0.235014 10.4051 0.254591 10.4769C0.164016 10.6123 0.0964758 10.7617 0.0547038 10.9192C-0.0385199 11.2735 -0.00783382 11.5931 0.110638 11.873C-0.0181661 12.239 0.0139961 12.6286 0.181721 12.9674C0.303689 13.2148 0.47825 13.4063 0.693442 13.5773C0.949263 13.7807 1.26949 13.9535 1.65574 14.1193C2.11658 14.3158 2.67911 14.5005 2.93493 14.5682C3.59573 14.7393 4.22934 14.8477 4.8715 14.853C5.78641 14.8615 6.5743 14.6464 7.13838 14.0958C7.41549 14.1298 7.69446 14.1468 7.97367 14.1466C8.26864 14.146 8.56331 14.1274 8.85603 14.0911C9.41879 14.6451 10.2097 14.8622 11.128 14.8535C11.7701 14.8484 12.4037 14.7399 13.0628 14.5686C13.3203 14.5009 13.8826 14.3162 14.3436 14.1197C14.7299 13.9536 15.0501 13.7809 15.3077 13.5778C15.5212 13.4067 15.6956 13.2153 15.8177 12.9679C15.9871 12.629 16.0176 12.2393 15.8905 11.8734C16.0078 11.5935 16.0384 11.2732 15.9452 10.9192ZM15.2896 11.8494C15.4194 12.0957 15.4277 12.374 15.3132 12.6333C15.1395 13.0261 14.708 13.3357 13.87 13.6679C13.3489 13.8746 12.8717 14.0067 12.8675 14.0079C12.1783 14.1866 11.5549 14.2774 11.0153 14.2774C10.1218 14.2774 9.45686 14.0309 9.03518 13.5439C8.32209 13.6654 7.59402 13.6695 6.87961 13.5562C6.45739 14.0351 5.79627 14.2774 4.91026 14.2774C4.37057 14.2774 3.74729 14.1866 3.05798 14.0079C3.05379 14.0067 2.57679 13.8746 2.05552 13.6679C1.21759 13.3357 0.785966 13.0264 0.612337 12.6333C0.497827 12.374 0.506139 12.0957 0.635953 11.8494C0.647917 11.8264 0.660813 11.8041 0.674564 11.7825C0.596769 11.6657 0.544587 11.5337 0.521444 11.3952C0.498309 11.2568 0.504741 11.115 0.540322 10.9792C0.591905 10.7832 0.698413 10.6202 0.843066 10.5031C0.773381 10.3886 0.727662 10.2612 0.708668 10.1285C0.667028 9.84 0.762816 9.55193 0.97824 9.31701C1.14604 9.13421 1.38322 9.03361 1.6458 9.03361H1.65279C1.45481 8.39899 1.35443 7.73796 1.3551 7.07319C1.3551 3.44749 4.29444 0.507914 7.92069 0.507914C11.5469 0.507914 14.4862 3.44718 14.4862 7.07319C14.4867 7.73974 14.3857 8.40249 14.1864 9.03858C14.2181 9.03547 14.2492 9.03392 14.2797 9.03384C14.5423 9.03384 14.7795 9.13445 14.9472 9.31724C15.1626 9.55193 15.2585 9.84023 15.2168 10.1288C15.1978 10.2614 15.1521 10.3888 15.0824 10.5034C15.2271 10.6204 15.3337 10.7834 15.3852 10.9794C15.4208 11.1152 15.4272 11.257 15.4041 11.3955C15.381 11.5339 15.3288 11.6659 15.2509 11.7828C15.2647 11.8041 15.2777 11.8264 15.2896 11.8494Z" fill="white"/>
<path d="M15.251 11.7828C15.3288 11.6659 15.381 11.5339 15.4042 11.3955C15.4273 11.257 15.4208 11.1152 15.3852 10.9794C15.3336 10.7834 15.2271 10.6204 15.0825 10.5033C15.1522 10.3888 15.1979 10.2614 15.2168 10.1287C15.2585 9.84021 15.1627 9.55215 14.9472 9.31722C14.7796 9.13443 14.5423 9.03382 14.2798 9.03382C14.2492 9.03382 14.2181 9.03545 14.1865 9.03856C14.3855 8.40247 14.4864 7.7398 14.4857 7.07333C14.4857 3.44756 11.5464 0.508057 7.9205 0.508057C4.29456 0.508057 1.3549 3.44724 1.3549 7.07333C1.35425 7.73809 1.45463 8.39912 1.6526 9.03374H1.6456C1.38302 9.03374 1.14585 9.13427 0.978129 9.31707C0.762705 9.55176 0.666832 9.84013 0.708549 10.1286C0.727559 10.2613 0.773278 10.3888 0.842947 10.5033C0.698295 10.6203 0.591717 10.7832 0.540133 10.9792C0.504568 11.1151 0.498159 11.2569 0.521325 11.3954C0.544491 11.5338 0.596697 11.6659 0.674523 11.7828C0.660695 11.8044 0.647954 11.8266 0.635913 11.8496C0.506176 12.0959 0.497794 12.3743 0.612381 12.6335C0.786088 13.0264 1.21755 13.3359 2.05555 13.6681C2.5766 13.8748 3.05383 14.0069 3.05803 14.0081C3.74726 14.1868 4.37062 14.2777 4.91023 14.2777C5.79632 14.2777 6.45743 14.0353 6.87966 13.5564C7.59406 13.6698 8.32214 13.6656 9.03522 13.5441C9.4569 14.0311 10.1218 14.2777 11.0154 14.2777C11.555 14.2777 12.1783 14.1868 12.8675 14.0081C12.8718 14.0069 13.3488 13.8748 13.87 13.6681C14.708 13.3359 15.1396 13.0264 15.3132 12.6335C15.4277 12.3743 15.4194 12.0959 15.2896 11.8496C15.2778 11.8265 15.2647 11.8041 15.251 11.7828ZM6.57753 12.8067C6.54118 12.8703 6.50226 12.9324 6.46085 12.9927C6.3517 13.1525 6.20813 13.2746 6.0415 13.3654C5.72297 13.5391 5.31979 13.5998 4.91023 13.5998C4.26318 13.5998 3.59989 13.4484 3.22816 13.3519C3.20983 13.3472 0.949307 12.7087 1.2355 12.1652C1.28367 12.0738 1.3629 12.0373 1.46273 12.0373C1.86569 12.0373 2.59944 12.6373 2.91477 12.6373C2.98523 12.6373 3.03495 12.6073 3.05522 12.5341C3.18962 12.0522 1.01261 11.8496 1.19595 11.1516C1.22827 11.0281 1.31607 10.9779 1.43943 10.9779C1.9722 10.9778 3.16795 11.9148 3.41803 11.9148C3.43722 11.9148 3.45096 11.9092 3.45842 11.8973C3.4595 11.8956 3.4606 11.8938 3.46161 11.892C3.57899 11.6982 3.51163 11.5572 2.7075 11.0647L2.63028 11.0177C1.74535 10.4821 1.12425 10.1598 1.47749 9.77526C1.51812 9.7309 1.57576 9.71125 1.64576 9.71125C1.72873 9.71125 1.82918 9.73898 1.9398 9.78559C2.40716 9.98269 3.05492 10.5202 3.3255 10.7546C3.36807 10.7916 3.41036 10.8289 3.45236 10.8665C3.45236 10.8665 3.79496 11.2228 4.00207 11.2228C4.04977 11.2228 4.09024 11.204 4.11766 11.1575C4.26458 10.9099 2.75326 9.76462 2.66803 9.29205C2.61024 8.97191 2.70859 8.8097 2.89037 8.8097C2.97684 8.8097 3.08234 8.84652 3.19879 8.9204C3.56003 9.14965 4.2575 10.3482 4.51285 10.8145C4.59846 10.9707 4.74459 11.0367 4.87627 11.0367C5.13753 11.0367 5.34177 10.777 4.9002 10.447C4.23652 9.95044 4.46944 9.13878 4.78616 9.08883C4.79968 9.08665 4.81334 9.08556 4.82694 9.08556C5.115 9.08556 5.24202 9.5819 5.24202 9.5819C5.24202 9.5819 5.61445 10.5171 6.2542 11.1564C6.83468 11.7366 6.91578 12.2128 6.57753 12.8067ZM8.64625 12.9163L8.61307 12.9202L8.55652 12.9267C8.52676 12.9298 8.49693 12.9327 8.46702 12.9355L8.43789 12.9381L8.41124 12.9404L8.37349 12.9434L8.33177 12.9464L8.29013 12.9491L8.28089 12.9498C8.27001 12.9504 8.25913 12.9511 8.2481 12.9516L8.2342 12.9524C8.2213 12.9531 8.20841 12.9537 8.19535 12.9543L8.15022 12.9562L8.10928 12.9576L8.08193 12.9584H8.06803C8.05948 12.9584 8.05101 12.9589 8.04247 12.9589H8.02895C8.0204 12.9589 8.01194 12.9589 8.00339 12.9593L7.96859 12.9598H7.92003C7.88189 12.9598 7.84382 12.9594 7.80591 12.9586L7.77515 12.9579C7.76637 12.9579 7.75759 12.9575 7.74897 12.9572L7.71634 12.9563L7.67586 12.9547L7.63935 12.9531L7.62995 12.9527L7.59523 12.9509C7.58552 12.9504 7.57596 12.9499 7.56633 12.9492L7.54387 12.9479C7.51567 12.9461 7.48747 12.9442 7.45927 12.942L7.42975 12.9396C7.41732 12.9387 7.40489 12.9375 7.39254 12.9364C7.37801 12.9352 7.36349 12.9338 7.34896 12.9324C7.32464 12.9301 7.30033 12.9276 7.27601 12.925H7.27485C7.62987 12.133 7.45034 11.3932 6.73291 10.6764C6.26236 10.2065 5.94936 9.5126 5.88442 9.36026C5.75296 8.90929 5.40509 8.40798 4.82734 8.40798C4.77847 8.40798 4.72968 8.41186 4.68144 8.41948C4.42834 8.45933 4.20709 8.60499 4.04923 8.82422C3.87863 8.61206 3.71285 8.44341 3.56291 8.34816C3.33684 8.20483 3.11124 8.13212 2.89146 8.13212C2.61715 8.13212 2.37197 8.24476 2.20106 8.44908L2.19671 8.45428C2.19345 8.44084 2.19034 8.4274 2.18716 8.41389L2.18677 8.4121C2.15424 8.27304 2.12693 8.13282 2.10489 7.99166C2.10489 7.99073 2.10489 7.98979 2.10442 7.98886C2.10271 7.97822 2.10116 7.9675 2.09952 7.95686C2.09475 7.92531 2.09026 7.8937 2.08609 7.86208C2.08422 7.84771 2.0822 7.83333 2.08041 7.81896L2.07513 7.77585C2.07342 7.76148 2.07202 7.74842 2.07047 7.73475L2.07001 7.73133C2.0638 7.6754 2.05837 7.61946 2.05369 7.56337L2.05198 7.54185L2.04926 7.50519C2.04848 7.49517 2.04771 7.48507 2.04716 7.47497C2.04716 7.47256 2.04678 7.47023 2.0467 7.46797C2.04472 7.43985 2.04304 7.41165 2.04165 7.38345C2.04087 7.36877 2.04009 7.35417 2.03947 7.3394L2.03792 7.30087L2.03753 7.28922L2.03629 7.25372L2.03551 7.2235C2.03551 7.21145 2.03489 7.19941 2.03473 7.18737C2.0345 7.17533 2.03419 7.16212 2.03411 7.14938C2.03396 7.13664 2.03411 7.12406 2.03372 7.11139C2.03341 7.09865 2.03372 7.08599 2.03372 7.07333C2.03372 3.82193 4.6697 1.18595 7.92143 1.18595C11.1731 1.18595 13.809 3.82185 13.809 7.07333V7.14938C13.809 7.16205 13.8086 7.17479 13.8084 7.18737C13.8084 7.19786 13.8079 7.20819 13.8076 7.21884C13.8076 7.22816 13.8072 7.23756 13.8069 7.24657C13.8069 7.25845 13.8062 7.27034 13.8058 7.28223V7.28316L13.8042 7.32441C13.8036 7.33645 13.8031 7.34857 13.8025 7.36061L13.8021 7.36916L13.8 7.40769C13.7955 7.49027 13.7892 7.5727 13.7813 7.65504V7.65605C13.78 7.66957 13.7787 7.68309 13.7772 7.69661L13.7737 7.72854L13.7668 7.791L13.7628 7.82261L13.7579 7.85983C13.7561 7.87334 13.7544 7.88694 13.7523 7.90038C13.7503 7.91553 13.7481 7.9306 13.7458 7.94567L13.7405 7.98133L13.7341 8.02172C13.7319 8.03516 13.7296 8.04853 13.7271 8.06189C13.7245 8.07533 13.7225 8.08869 13.7202 8.10205C13.7155 8.12878 13.7106 8.1555 13.7055 8.18215C13.6976 8.222 13.6896 8.26178 13.6814 8.30155L13.6729 8.34094C13.6701 8.35407 13.667 8.36727 13.6641 8.3804C13.4984 8.21936 13.2789 8.13165 13.0369 8.13165C12.8173 8.13165 12.5915 8.20429 12.3655 8.34762C12.2155 8.44286 12.0498 8.6116 11.8792 8.82368C11.7211 8.60445 11.4998 8.45879 11.2469 8.41893C11.1986 8.41132 11.1498 8.40744 11.101 8.40744C10.5231 8.40744 10.1754 8.90875 10.0439 9.35972C9.97865 9.51206 9.66557 10.206 9.19463 10.6766C8.47767 11.3911 8.29681 12.1275 8.64625 12.9163ZM14.7245 11.3308L14.7222 11.3377C14.7163 11.3533 14.7094 11.3685 14.7017 11.3833C14.6959 11.3942 14.6896 11.4047 14.6828 11.415C14.6698 11.4343 14.6556 11.4528 14.6401 11.4702C14.6366 11.4743 14.6332 11.4783 14.6291 11.4823C14.6235 11.4882 14.6178 11.4942 14.612 11.4999C14.5075 11.6035 14.348 11.6944 14.1678 11.7778C14.1474 11.787 14.1266 11.7963 14.1057 11.8056L14.0849 11.8148C14.071 11.821 14.0571 11.827 14.0425 11.833C14.0286 11.8391 14.0141 11.8451 13.9997 11.851L13.9563 11.8689C13.855 11.9106 13.7511 11.9504 13.6498 11.9896L13.6064 12.0065L13.5636 12.0233C13.5351 12.0344 13.507 12.0455 13.4794 12.0566L13.4381 12.0732L13.3975 12.0898L13.3777 12.0982C13.3644 12.1037 13.3514 12.1092 13.3384 12.1147C13.0403 12.2427 12.8259 12.3728 12.8709 12.5342C12.8722 12.5388 12.8736 12.5432 12.8751 12.5474C12.8791 12.5594 12.8847 12.5707 12.8916 12.5813C12.8956 12.5876 12.9003 12.5936 12.9055 12.599C12.9585 12.6541 13.0549 12.6454 13.1765 12.6016C13.1935 12.5954 13.2106 12.5888 13.2274 12.582L13.238 12.5776C13.2658 12.5658 13.2952 12.5526 13.3253 12.5383C13.3328 12.5348 13.3404 12.5313 13.3481 12.5274C13.4968 12.4547 13.6653 12.3568 13.8324 12.2677C13.8993 12.2316 13.9671 12.1973 14.0358 12.1647C14.1941 12.0902 14.343 12.0374 14.4626 12.0374C14.5188 12.0374 14.5684 12.0489 14.6097 12.0753L14.6166 12.0799C14.6425 12.0982 14.6643 12.1216 14.6805 12.1488C14.6837 12.154 14.6868 12.1595 14.6899 12.1652C14.749 12.2775 14.6995 12.3937 14.5837 12.5076C14.4725 12.6171 14.2996 12.7244 14.103 12.8237C14.0884 12.8311 14.0738 12.8384 14.059 12.8457C13.474 13.1329 12.7079 13.3493 12.6973 13.352C12.4931 13.4049 12.2012 13.4744 11.8723 13.5264L11.8236 13.534L11.8156 13.5351C11.7788 13.5407 11.7419 13.5459 11.7049 13.5507C11.6674 13.5558 11.6295 13.5604 11.5913 13.5647L11.5843 13.5654C11.4461 13.5814 11.3072 13.5919 11.1681 13.597H11.1661C11.1157 13.5988 11.0655 13.5997 11.0151 13.5997H10.9571C10.8804 13.5987 10.8038 13.5952 10.7272 13.5893C10.7254 13.5893 10.7235 13.5893 10.7217 13.5888C10.6943 13.5867 10.6669 13.5841 10.6396 13.5811C10.6112 13.5781 10.583 13.5747 10.5548 13.5709C10.5362 13.5684 10.5177 13.5656 10.4992 13.5626C10.4804 13.5595 10.4616 13.5564 10.4429 13.5532L10.4173 13.5483L10.4154 13.5479C10.3884 13.5428 10.3616 13.5371 10.3349 13.5309C10.3194 13.5274 10.3039 13.524 10.2886 13.5198L10.2794 13.5175C10.2718 13.5156 10.2644 13.5136 10.2568 13.5116L10.2527 13.5105L10.2288 13.5035C10.2201 13.5011 10.2114 13.4985 10.2027 13.4959L10.1997 13.495L10.1771 13.4881C10.1685 13.4855 10.16 13.4827 10.1515 13.4799L10.1307 13.473L10.1154 13.4676C10.1006 13.4624 10.0859 13.4571 10.0714 13.4515L10.0576 13.446L10.0462 13.4415C10.0241 13.4327 10.0022 13.4234 9.98051 13.4137L9.96614 13.4067L9.96373 13.4056C9.9586 13.4032 9.95355 13.4008 9.94843 13.3987C9.9384 13.3939 9.92846 13.3889 9.91859 13.3839L9.91556 13.3824L9.90127 13.3749C9.87587 13.3616 9.85101 13.3474 9.82661 13.3324L9.81325 13.3242C9.80657 13.3201 9.79989 13.3158 9.79336 13.3115L9.77596 13.3L9.75724 13.2871L9.74605 13.2791C9.73424 13.2707 9.72267 13.262 9.71133 13.253L9.69322 13.2391C9.686 13.2333 9.67885 13.2274 9.67178 13.2214C9.6658 13.2165 9.65998 13.2114 9.65415 13.2063L9.65368 13.2059C9.64739 13.2004 9.64125 13.1949 9.63512 13.1892C9.62906 13.1837 9.623 13.1781 9.61709 13.1724L9.61639 13.1717C9.61018 13.1658 9.60412 13.1598 9.59814 13.1537C9.59216 13.1476 9.58602 13.1416 9.58019 13.1354C9.57436 13.1292 9.56838 13.1229 9.56263 13.1165C9.55689 13.1101 9.5516 13.1043 9.54617 13.098L9.54438 13.0959C9.53909 13.0898 9.53389 13.0837 9.52876 13.0774C9.51765 13.0641 9.50686 13.0505 9.49645 13.0366C9.48596 13.0226 9.4757 13.0083 9.46568 12.9938L9.45613 12.9795C9.44339 12.9609 9.43096 12.9421 9.41891 12.923C9.4099 12.9092 9.40112 12.8954 9.39258 12.8813C9.38706 12.8725 9.38178 12.8637 9.3765 12.855L9.37432 12.8514C9.36927 12.8429 9.3643 12.8345 9.35948 12.826C9.35669 12.8214 9.35405 12.8168 9.35156 12.8121C9.349 12.8073 9.34604 12.8024 9.34333 12.7975L9.3389 12.7898L9.33618 12.7848C9.33097 12.7755 9.32585 12.7661 9.32087 12.7566C9.31854 12.7524 9.31629 12.7482 9.31388 12.7442L9.30697 12.7308L9.29998 12.7175C9.2825 12.6825 9.26595 12.6471 9.25041 12.6112L9.2449 12.5981C9.24132 12.5893 9.23798 12.5806 9.23441 12.572C9.2327 12.5678 9.23099 12.5637 9.22952 12.5595C9.2212 12.5379 9.21343 12.5162 9.20629 12.4943C9.20372 12.4864 9.20124 12.4787 9.19891 12.471C9.19331 12.4533 9.18826 12.4356 9.18376 12.4176C9.17824 12.3967 9.17335 12.3757 9.16923 12.3545C9.16838 12.3502 9.16752 12.3459 9.16682 12.3418C9.16278 12.321 9.15952 12.3001 9.15696 12.2792C9.15633 12.2751 9.15587 12.2709 9.1554 12.2668L9.15408 12.2542C9.15237 12.2378 9.15105 12.2212 9.15028 12.2047C9.15028 12.2005 9.14989 12.1963 9.14973 12.1922C9.14934 12.184 9.14919 12.1758 9.14911 12.1675C9.14476 11.8356 9.31272 11.5164 9.67186 11.1575C10.3116 10.5183 10.684 9.58307 10.684 9.58307C10.684 9.58307 10.6941 9.54383 10.7149 9.48736C10.7178 9.47951 10.7208 9.47143 10.7242 9.46296C10.7363 9.43134 10.75 9.40027 10.7651 9.36997L10.7682 9.36415C10.7811 9.33835 10.7952 9.31318 10.8104 9.28871C10.814 9.28304 10.8174 9.27745 10.8214 9.27178C10.8328 9.25492 10.8448 9.23845 10.8575 9.22252C10.8644 9.2139 10.872 9.20535 10.8795 9.19704C10.8825 9.19378 10.8855 9.19052 10.8887 9.18741C10.9257 9.14911 10.9681 9.11788 11.016 9.10125L11.0221 9.09923C11.0261 9.09791 11.0301 9.09667 11.0342 9.09551C11.039 9.09426 11.0437 9.09318 11.0486 9.09217L11.0509 9.0917C11.061 9.08968 11.0712 9.08836 11.0816 9.08766H11.0824C11.0878 9.08766 11.0932 9.08712 11.0987 9.08712C11.1056 9.08712 11.1121 9.08712 11.1188 9.08782C11.1258 9.08844 11.1328 9.08921 11.1397 9.0903C11.1974 9.09947 11.2522 9.1338 11.2995 9.18679C11.3174 9.20699 11.3336 9.22874 11.3477 9.25173C11.357 9.26665 11.3658 9.28242 11.3741 9.29904C11.3775 9.30596 11.3807 9.31233 11.3838 9.31917C11.3918 9.33672 11.3991 9.35459 11.4055 9.37285C11.4207 9.41557 11.4321 9.45954 11.4396 9.50429C11.4461 9.54352 11.45 9.58314 11.4513 9.62284C11.4519 9.64405 11.4519 9.66557 11.4513 9.68724C11.4471 9.78808 11.4264 9.8876 11.3901 9.98183C11.3869 9.99045 11.3832 9.99915 11.3797 10.0079C11.3726 10.0254 11.3647 10.0427 11.3563 10.0595C11.35 10.0723 11.3434 10.0852 11.3362 10.098C11.3316 10.1066 11.3267 10.1151 11.3218 10.1237C11.3093 10.145 11.2957 10.1661 11.2812 10.1872L11.2724 10.1997C11.2381 10.2476 11.1999 10.2925 11.1581 10.334C11.1169 10.3752 11.0728 10.4134 11.0261 10.4482C10.9793 10.4828 10.9354 10.5212 10.8949 10.5629C10.7781 10.6854 10.7509 10.7936 10.7772 10.8755C10.7814 10.8884 10.7869 10.9009 10.7936 10.9127C10.8014 10.9263 10.8107 10.9387 10.8213 10.95L10.8254 10.9543L10.8296 10.9585C10.8338 10.9625 10.8382 10.9665 10.843 10.9704L10.8476 10.9741C10.8589 10.9828 10.8709 10.9906 10.8834 10.9974C10.887 10.9994 10.8903 11.0013 10.8944 11.0032C10.9079 11.0098 10.9218 11.0154 10.9361 11.02C10.9401 11.0214 10.9441 11.0225 10.9481 11.0238L10.9531 11.0251L10.9601 11.0269L10.9661 11.0284L10.9726 11.0298L10.9791 11.0311L10.9852 11.0322C10.9897 11.0329 10.9944 11.0337 10.9991 11.0342L11.0035 11.0349L11.0116 11.0357L11.0165 11.0363L11.0247 11.0368H11.0295L11.0381 11.0373H11.0649L11.0726 11.0368L11.0815 11.0363L11.0923 11.0353L11.1024 11.0341C11.1047 11.0341 11.107 11.0335 11.1094 11.033C11.1404 11.0285 11.1709 11.0203 11.2 11.0085L11.2124 11.0033C11.2193 11.0002 11.2263 10.997 11.2327 10.9936C11.2463 10.9868 11.2596 10.979 11.2724 10.9705C11.2901 10.9589 11.3069 10.9458 11.3226 10.9315C11.3263 10.9281 11.33 10.9246 11.3336 10.9211C11.3354 10.9194 11.3371 10.9178 11.3388 10.9159C11.3422 10.9124 11.3457 10.909 11.3491 10.9052C11.374 10.8779 11.3955 10.8477 11.4132 10.8153C11.5652 10.5388 11.7246 10.2665 11.8911 9.99853L11.9139 9.96194L11.937 9.92535C11.9485 9.90679 11.9601 9.88853 11.9717 9.87035L11.9833 9.85217C12.022 9.79158 12.0613 9.73137 12.1013 9.67163L12.125 9.6362C12.1726 9.56574 12.22 9.49722 12.267 9.43212L12.2904 9.39988C12.3415 9.32942 12.3947 9.26043 12.4499 9.19316L12.4718 9.1669C12.4755 9.16255 12.4788 9.1582 12.4828 9.154C12.49 9.14546 12.4972 9.13715 12.5043 9.12907C12.5079 9.12495 12.5112 9.12091 12.515 9.11687L12.5358 9.09341L12.5463 9.08199C12.5567 9.07072 12.567 9.05993 12.5771 9.04959C12.5841 9.0426 12.5905 9.03569 12.5972 9.02916C12.6366 8.98892 12.68 8.9528 12.7269 8.92149L12.7378 8.9145C12.7482 8.90751 12.759 8.90098 12.77 8.89507C12.9536 8.79082 13.1057 8.78313 13.1932 8.87068C13.2462 8.92366 13.2756 9.01153 13.2739 9.13381C13.2739 9.13917 13.2739 9.1446 13.2736 9.1502V9.15618C13.2736 9.16177 13.2731 9.16737 13.2726 9.17304C13.2726 9.18003 13.2719 9.18694 13.2712 9.19393C13.2705 9.20085 13.2701 9.20613 13.2694 9.21235C13.2694 9.21406 13.2691 9.21584 13.2687 9.21771C13.2683 9.22307 13.2676 9.22858 13.2668 9.2341C13.2668 9.23573 13.2668 9.23744 13.2662 9.23915C13.2653 9.24653 13.2642 9.25383 13.263 9.26113C13.2621 9.26812 13.261 9.27465 13.2597 9.28149L13.2577 9.29306C13.2557 9.30409 13.2531 9.31497 13.2499 9.32569C13.2439 9.34581 13.2366 9.36547 13.228 9.38458C13.2159 9.41083 13.2026 9.43639 13.188 9.46125C13.1799 9.47508 13.1716 9.48868 13.163 9.50212C13.1542 9.51602 13.1448 9.53008 13.1352 9.5443C13.1107 9.57941 13.0852 9.61383 13.0587 9.64747L13.0466 9.66277C13.0034 9.71661 12.9588 9.76936 12.9128 9.82086L12.8983 9.83718C12.8787 9.85901 12.8588 9.88099 12.8384 9.90306L12.8231 9.91968C12.813 9.93079 12.8023 9.9419 12.7921 9.95309C12.7819 9.9642 12.7712 9.97546 12.7605 9.98672L12.7286 10.0204L12.6962 10.0542L12.6636 10.0881C12.6417 10.1108 12.6197 10.1335 12.5975 10.1562C12.2825 10.4793 11.9506 10.8013 11.8383 11.002C11.8308 11.0151 11.824 11.0286 11.8179 11.0423C11.8019 11.0788 11.7953 11.1101 11.7998 11.1353C11.8013 11.1436 11.8042 11.1516 11.8085 11.1589C11.8148 11.1698 11.8225 11.1799 11.8314 11.1889C11.8355 11.193 11.8399 11.1967 11.8444 11.2001C11.8676 11.2166 11.8955 11.225 11.9239 11.2243H11.9328L11.9419 11.2236L11.9509 11.2226L11.9585 11.2215C11.9595 11.2213 11.9606 11.2212 11.9616 11.2208L11.9685 11.2195L11.9703 11.2191L11.978 11.2175L11.9807 11.2168C11.9834 11.2161 11.9861 11.2154 11.9888 11.2146C11.9915 11.2139 11.9952 11.2128 11.9985 11.2118C12.0122 11.2076 12.0255 11.2028 12.0387 11.1972C12.0456 11.1944 12.0523 11.1913 12.059 11.1881C12.0625 11.1865 12.066 11.1849 12.0693 11.1832L12.0797 11.178C12.1045 11.1651 12.1288 11.1511 12.1524 11.136L12.1627 11.129C12.1662 11.1269 12.1697 11.1246 12.1731 11.1221L12.1834 11.1152L12.1889 11.1114L12.2038 11.1009C12.2177 11.0913 12.2307 11.0815 12.2438 11.0715L12.245 11.0705L12.2659 11.0544C12.2944 11.0318 12.3214 11.0092 12.346 10.9878L12.3623 10.9735L12.3638 10.9721L12.3723 10.9646C12.3924 10.9465 12.4102 10.9298 12.4251 10.9159L12.4312 10.9099C12.4366 10.9049 12.4415 10.9002 12.4459 10.8961L12.4546 10.8875L12.4577 10.8845L12.4586 10.8836L12.4676 10.8745L12.4734 10.8685L12.4741 10.868L12.4768 10.8655L12.4802 10.8624L12.4813 10.8614L12.4842 10.8588L12.5 10.8448L12.5089 10.8369C12.5136 10.8328 12.5182 10.8286 12.5228 10.8243L12.5334 10.8149C12.5353 10.8134 12.5372 10.8117 12.5391 10.81L12.5502 10.8003L12.5665 10.7859L12.5752 10.7783C12.609 10.749 12.6501 10.7135 12.6974 10.6735L12.7167 10.6571L12.7486 10.6303L12.7813 10.603C12.8241 10.5675 12.8701 10.5298 12.9187 10.4908L12.9506 10.4651C12.9778 10.4434 13.0057 10.4214 13.034 10.3992C13.0454 10.3902 13.057 10.3813 13.0688 10.3724C13.0977 10.35 13.1267 10.3277 13.156 10.3057C13.2227 10.2554 13.2914 10.2049 13.361 10.1558L13.3909 10.135C13.4118 10.1207 13.4326 10.1062 13.4534 10.0921L13.4723 10.0794C13.5095 10.0542 13.5472 10.0295 13.5853 10.0055L13.6042 9.99364L13.6229 9.98199C13.6417 9.97033 13.6604 9.95891 13.6789 9.9478L13.6975 9.93669L13.7346 9.9151L13.7711 9.8942L13.7784 9.89016L13.8073 9.87431C13.8193 9.86779 13.8313 9.86149 13.8432 9.85536L13.861 9.84619L13.8783 9.83749C13.8844 9.83461 13.8904 9.83158 13.8963 9.82871C13.9353 9.80944 13.9751 9.79173 14.0155 9.77557C14.0264 9.77091 14.0373 9.76672 14.0481 9.76306L14.0799 9.75188C14.0895 9.74869 14.0988 9.74566 14.1078 9.74294L14.1109 9.74201C14.1157 9.74046 14.1205 9.73906 14.1252 9.73782L14.1266 9.73743C14.1366 9.73455 14.1464 9.73207 14.1562 9.72974H14.1569C14.1844 9.72313 14.2123 9.7184 14.2405 9.71552C14.2535 9.7142 14.2665 9.7135 14.2795 9.71358H14.286C14.2947 9.71358 14.3031 9.71412 14.3115 9.71498C14.3153 9.71498 14.3191 9.71575 14.3228 9.71622H14.3243C14.3281 9.71669 14.3318 9.71723 14.3355 9.71808C14.3392 9.71878 14.3429 9.71941 14.3465 9.72026H14.3477C14.3513 9.72104 14.3546 9.72197 14.3584 9.72306C14.3781 9.72857 14.3969 9.73712 14.4142 9.74831C14.4226 9.75382 14.4305 9.76003 14.4378 9.76695L14.4399 9.76897C14.4413 9.77021 14.4427 9.77153 14.4439 9.77285L14.4477 9.77697C14.4789 9.80968 14.5047 9.8472 14.5242 9.88806L14.5271 9.89505C14.5337 9.91059 14.5389 9.92667 14.5426 9.94306C14.5537 9.99325 14.5494 10.0456 14.5304 10.0934C14.5231 10.1127 14.5144 10.1312 14.504 10.1489C14.4799 10.1896 14.4512 10.2275 14.4187 10.2617L14.4117 10.2691C14.4014 10.28 14.3907 10.2909 14.3794 10.3017C14.3745 10.3066 14.3692 10.3115 14.364 10.3163L14.3481 10.331L14.3398 10.3384C14.3198 10.3563 14.2992 10.3736 14.2783 10.3904C14.2656 10.4006 14.2529 10.4107 14.24 10.4205C14.1945 10.4553 14.1481 10.4889 14.1008 10.5213C14.0723 10.5409 14.0436 10.5601 14.0146 10.579C13.9432 10.6259 13.871 10.6715 13.7982 10.716C13.6453 10.81 13.4759 10.9105 13.2952 11.0198L13.2485 11.0482C13.1973 11.0794 13.149 11.1092 13.1034 11.1376L13.0805 11.152L13.0372 11.1798C13.0084 11.1982 12.9797 11.2168 12.9511 11.2354L12.928 11.2506C12.9167 11.2579 12.9056 11.2654 12.8944 11.2728L12.8834 11.2798L12.8499 11.3024L12.8321 11.3146L12.8112 11.3291L12.7919 11.3425C12.7595 11.3654 12.7294 11.3873 12.7016 11.408L12.6912 11.4159C12.6749 11.4283 12.6587 11.4409 12.6428 11.4537C12.6188 11.473 12.5969 11.4915 12.5773 11.5093L12.5676 11.5181C12.5621 11.5231 12.5567 11.5282 12.5515 11.5331C12.5479 11.5366 12.5445 11.5401 12.5408 11.5435L12.5358 11.5485C12.5247 11.5596 12.5139 11.5711 12.5034 11.5828L12.4983 11.5887C12.4868 11.6019 12.4769 11.6146 12.4682 11.6269L12.4643 11.6324C12.4575 11.6424 12.4512 11.6526 12.4455 11.6632C12.444 11.6658 12.4427 11.6685 12.4414 11.6711L12.4376 11.679L12.435 11.6848L12.4334 11.6887L12.4321 11.6922L12.4303 11.6969C12.4255 11.71 12.4221 11.7237 12.4202 11.7375L12.4196 11.7424L12.4191 11.7469V11.7713C12.4191 11.7734 12.4191 11.7754 12.4196 11.7776L12.42 11.7813C12.42 11.7833 12.4205 11.7852 12.4208 11.7874C12.4211 11.7894 12.4216 11.7931 12.4223 11.796V11.7964C12.4228 11.7991 12.4234 11.8017 12.4241 11.8044C12.4248 11.8071 12.4255 11.8103 12.4263 11.8131C12.4278 11.8186 12.4297 11.824 12.4316 11.8294C12.4328 11.8327 12.434 11.8359 12.4353 11.8391C12.4353 11.8397 12.4358 11.8404 12.4361 11.841L12.4389 11.8473L12.4428 11.8559C12.447 11.8649 12.4516 11.8736 12.4565 11.882L12.4617 11.8909L12.4669 11.8998C12.4679 11.9012 12.469 11.9026 12.4701 11.9039L12.4718 11.9057L12.4738 11.9075L12.4758 11.9091C12.4788 11.9112 12.4819 11.9128 12.4853 11.914C12.4871 11.9146 12.4889 11.9151 12.4908 11.9155C12.5356 11.9256 12.6278 11.8886 12.7502 11.8239C12.7571 11.8202 12.7647 11.8163 12.7721 11.8123L12.8094 11.7919L12.8276 11.7818C12.8405 11.7749 12.8537 11.7671 12.8673 11.7594L12.8919 11.7455C13.0537 11.6523 13.247 11.5327 13.4468 11.4158C13.4655 11.4049 13.4843 11.3939 13.5031 11.3831L13.5409 11.359C13.5847 11.3339 13.6287 11.3091 13.6729 11.2846C13.7286 11.254 13.7847 11.2242 13.8414 11.1953L13.8783 11.1766C13.9029 11.1645 13.9272 11.1526 13.9512 11.1411C13.9977 11.1191 14.0447 11.0981 14.0922 11.0783L14.1182 11.0677L14.1214 11.0665C14.2592 11.0119 14.3842 10.9782 14.4854 10.9782C14.5072 10.9779 14.5291 10.9798 14.5506 10.9835H14.5513C14.5583 10.9848 14.5646 10.9862 14.571 10.9877H14.5722C14.5887 10.9919 14.6048 10.9979 14.62 11.0056C14.6414 11.0166 14.6606 11.0313 14.6768 11.049C14.6843 11.0572 14.6909 11.0662 14.6967 11.0757C14.7076 11.0924 14.7161 11.1105 14.7223 11.1294C14.7247 11.1368 14.7269 11.144 14.7292 11.1517C14.7456 11.2105 14.7439 11.2729 14.7245 11.3308Z" fill="#FF9D00"/>
<path fill-rule="evenodd" clip-rule="evenodd" d="M13.808 7.11149V7.07335C13.808 3.82186 11.173 1.18604 7.92127 1.18604C4.66963 1.18604 2.03364 3.82201 2.03364 7.07335V7.08609C2.03349 7.09455 2.03341 7.10302 2.03364 7.11149C2.03403 7.12415 2.03416 7.13682 2.03403 7.14948L2.03443 7.17745L2.03465 7.18747C2.03465 7.19213 2.03482 7.19671 2.03497 7.20137C2.03521 7.20875 2.03535 7.21621 2.03535 7.22359L2.03621 7.25381L2.03745 7.28931L2.03784 7.30097L2.03939 7.33771V7.3395C2.04001 7.35387 2.0408 7.36817 2.0415 7.38246L2.04157 7.38355C2.04235 7.39815 2.04313 7.41284 2.04406 7.42752C2.04484 7.44104 2.04561 7.45455 2.04662 7.46807L2.04678 7.47048C2.04746 7.48205 2.04823 7.49371 2.0491 7.50528L2.04934 7.50839L2.0519 7.54195L2.05214 7.54413C2.05261 7.55065 2.05307 7.55718 2.05369 7.56347C2.05833 7.61948 2.06375 7.67549 2.06993 7.73135L2.07031 7.73485L2.07505 7.77594L2.08034 7.81906L2.08422 7.84835L2.08601 7.8621C2.09015 7.89379 2.09463 7.92541 2.09944 7.95695L2.09976 7.95905L2.10434 7.98888C2.12652 8.13097 2.15399 8.2722 2.18669 8.41227L2.18708 8.41398L2.18956 8.42447L2.19663 8.45438L2.20098 8.44917C2.37189 8.24486 2.61707 8.13221 2.89138 8.13221C3.11123 8.13221 3.33676 8.20493 3.56283 8.34826C3.71277 8.4435 3.87855 8.61216 4.04915 8.82432C4.20701 8.60509 4.42826 8.45935 4.68136 8.41957C4.72962 8.41196 4.7784 8.40815 4.82726 8.40808C5.40493 8.40808 5.75288 8.90939 5.88433 9.36036C5.94927 9.5127 6.26227 10.2066 6.73429 10.676C7.45181 11.3928 7.63134 12.1324 7.27624 12.9245H7.27748C7.30164 12.9272 7.32595 12.9297 7.35043 12.9319C7.36495 12.9333 7.3794 12.9347 7.39401 12.936L7.39913 12.9364L7.43122 12.9391L7.46074 12.9415C7.48886 12.9436 7.51706 12.9457 7.54534 12.9475L7.56779 12.9488L7.58558 12.9499L7.59661 12.9505L7.63134 12.9523L7.64082 12.9527L7.67725 12.9543L7.7178 12.9558L7.75036 12.9568L7.75579 12.9569C7.76271 12.9572 7.76962 12.9575 7.77654 12.9575L7.78399 12.9577C7.82983 12.9588 7.87559 12.9593 7.92142 12.9593H7.97005L8.00478 12.9589C8.01332 12.9585 8.02179 12.9585 8.03041 12.9585H8.04393L8.05566 12.9582C8.06025 12.958 8.06483 12.9579 8.06949 12.9579H8.0834L8.11067 12.9572L8.15168 12.9558L8.19682 12.9537C8.20987 12.9533 8.22277 12.9526 8.23566 12.952L8.24957 12.9511L8.27023 12.95L8.28235 12.9493L8.29152 12.9487L8.33324 12.946L8.37488 12.9429L8.41271 12.9399L8.43928 12.9377L8.46849 12.935C8.51728 12.9307 8.56591 12.9255 8.61454 12.9197L8.64771 12.9158C8.2982 12.1271 8.47913 11.3906 9.19361 10.6767C9.66463 10.2061 9.97762 9.51216 10.0429 9.35974C10.1744 8.90884 10.5221 8.40753 11.1 8.40753C11.1488 8.40753 11.1977 8.41142 11.2459 8.41903C11.4988 8.45881 11.7201 8.60455 11.8781 8.82378C12.0488 8.61169 12.2145 8.44288 12.3645 8.34764C12.5905 8.20438 12.8163 8.13167 13.0359 8.13167C13.278 8.13167 13.4974 8.21945 13.6631 8.3805C13.6661 8.36737 13.6691 8.35424 13.6719 8.34103L13.6804 8.30172C13.6834 8.28735 13.6865 8.27298 13.6893 8.25861C13.6945 8.2332 13.6996 8.2078 13.7045 8.18216C13.7096 8.1556 13.7145 8.12887 13.7192 8.10215L13.7216 8.0877C13.723 8.07915 13.7244 8.07061 13.7261 8.06198C13.7287 8.04862 13.7309 8.03526 13.7331 8.02174L13.7339 8.01661L13.7394 7.98142L13.7449 7.94576V7.94545C13.7488 7.91912 13.7526 7.89278 13.7561 7.86645L13.7569 7.85992L13.7618 7.82279L13.7658 7.79109L13.7728 7.72863L13.7755 7.70354L13.7762 7.6967C13.7777 7.68318 13.7791 7.66967 13.7803 7.65615V7.65506C13.7813 7.64434 13.7824 7.63354 13.7833 7.62275C13.7888 7.56153 13.7935 7.5 13.7972 7.43824C13.7979 7.42814 13.7985 7.41796 13.7991 7.40779V7.40732L13.8011 7.36918L13.8016 7.36063C13.8028 7.33484 13.8039 7.30905 13.8048 7.28325V7.28232L13.8052 7.27222C13.8055 7.26376 13.8059 7.25521 13.8059 7.24667L13.806 7.24325C13.8063 7.23524 13.8066 7.22701 13.8066 7.21885L13.8069 7.21186C13.8071 7.2037 13.8073 7.19562 13.8073 7.18747L13.8075 7.18055C13.8077 7.17022 13.808 7.15981 13.808 7.14948V7.11149ZM6.46099 12.9928C6.92727 12.3091 6.89417 11.7959 6.2545 11.1565C5.61469 10.5171 5.24233 9.58207 5.24233 9.58207C5.24233 9.58207 5.10335 9.03897 4.78639 9.08884C4.46943 9.13872 4.23692 9.95031 4.90059 10.4471C5.56419 10.9439 4.76853 11.2808 4.51309 10.8146C4.25766 10.3483 3.56026 9.14983 3.19871 8.92057C2.83715 8.69132 2.58289 8.81982 2.66811 9.2923C2.71045 9.52684 3.10417 9.92716 3.47202 10.3011C3.84522 10.6806 4.19177 11.0329 4.11766 11.1576C3.9706 11.4052 3.45267 10.8667 3.45267 10.8667C3.45267 10.8667 1.83088 9.39081 1.47788 9.77544C1.15237 10.1299 1.6543 10.4313 2.42776 10.8958C2.49348 10.9352 2.56122 10.9759 2.63059 11.0179C3.51552 11.5536 3.58434 11.6949 3.45872 11.8976C3.41235 11.9725 3.11613 11.7947 2.75178 11.576C2.13067 11.203 1.31171 10.7113 1.19604 11.1514C1.09598 11.5323 1.69851 11.7657 2.24495 11.9774C2.70019 12.1537 3.1166 12.315 3.05531 12.5339C2.99184 12.7609 2.64776 12.5716 2.27168 12.3646C1.84946 12.1323 1.38684 11.8778 1.23542 12.165C0.949305 12.708 3.20944 13.3473 3.22808 13.352C3.95833 13.5414 5.81286 13.9428 6.46099 12.9928ZM9.46474 12.9928C8.99847 12.3091 9.03156 11.7959 9.67131 11.1565C10.3111 10.5171 10.6834 9.58207 10.6834 9.58207C10.6834 9.58207 10.8224 9.03897 11.1393 9.08884C11.4563 9.13872 11.6888 9.95031 11.0252 10.4471C10.3616 10.9439 11.1572 11.2808 11.4126 10.8146C11.6682 10.3483 12.3651 9.14983 12.7266 8.92057C13.0882 8.69132 13.3426 8.81982 13.2573 9.2923C13.2151 9.52684 12.8213 9.92716 12.4534 10.3012C12.0802 10.6806 11.7336 11.0329 11.8077 11.1576C11.9547 11.4052 12.4731 10.8664 12.4731 10.8664C12.4731 10.8664 14.0948 9.39058 14.4479 9.7752C14.7734 10.1296 14.2714 10.431 13.4979 10.8955C13.4302 10.9361 13.3627 10.9769 13.2951 11.0176C12.4102 11.5534 12.3414 11.6947 12.4669 11.8973C12.5134 11.9723 12.8096 11.7944 13.1739 11.5757C13.7951 11.2028 14.614 10.711 14.7297 11.1512C14.8298 11.5321 14.2272 11.7655 13.6808 11.9771C13.2255 12.1535 12.8091 12.3148 12.8704 12.5337C12.9337 12.7606 13.2777 12.5713 13.6537 12.3643C14.076 12.132 14.5387 11.8773 14.69 12.1648C14.9762 12.7081 12.7157 13.3468 12.6974 13.3514C11.9672 13.5414 10.1126 13.9428 9.46474 12.9928Z" fill="#FFD21E"/>
<path fill-rule="evenodd" clip-rule="evenodd" d="M9.83333 5.47079C9.92515 5.50327 9.99344 5.60208 10.0584 5.69616C10.1462 5.82326 10.2279 5.94157 10.3533 5.87492C10.5012 5.79622 10.6225 5.6755 10.7017 5.52789C10.781 5.38029 10.8148 5.21254 10.7988 5.04577C10.7869 4.92107 10.7474 4.80058 10.6832 4.69298C10.619 4.58538 10.5318 4.49334 10.4279 4.42352C10.3238 4.35369 10.2056 4.30781 10.0818 4.28917C9.95786 4.27054 9.83138 4.27962 9.71144 4.31575C9.59149 4.35187 9.4811 4.41413 9.38811 4.49804C9.29511 4.58196 9.22186 4.68544 9.17369 4.80106C9.12553 4.91667 9.10354 5.04154 9.10937 5.16665C9.11527 5.2918 9.14875 5.414 9.20756 5.52463C9.26567 5.63393 9.39463 5.58235 9.53074 5.52789C9.6374 5.48524 9.74857 5.44081 9.83333 5.47079ZM5.84219 5.47079C5.75036 5.50327 5.68208 5.60216 5.61713 5.69616C5.52934 5.82333 5.44754 5.94157 5.32223 5.87492C5.13621 5.77641 4.99356 5.6121 4.92205 5.41416C4.85056 5.21617 4.85535 4.99866 4.93549 4.80402C5.01563 4.60937 5.16539 4.45155 5.35556 4.36131C5.54574 4.27107 5.7627 4.25489 5.96415 4.31591C6.12458 4.36421 6.26705 4.45898 6.37364 4.58824C6.48023 4.7175 6.54603 4.87544 6.56288 5.04212C6.57966 5.2088 6.54665 5.37671 6.46803 5.52463C6.40984 5.63393 6.28088 5.58235 6.14478 5.52797C6.03803 5.48524 5.92702 5.44081 5.84219 5.47079ZM9.21588 9.10271C9.84848 8.60435 10.0808 7.79066 10.0808 7.28943C10.0808 6.89323 9.81429 7.01792 9.38756 7.22922L9.36348 7.24111C8.97178 7.43509 8.45035 7.6934 7.87796 7.6934C7.30549 7.6934 6.78406 7.43509 6.39244 7.24103C5.95188 7.02281 5.67555 6.88593 5.67555 7.28951C5.67555 7.80659 5.92275 8.65563 6.60126 9.14886C6.69083 8.96715 6.81692 8.80587 6.97167 8.67505C7.12634 8.54422 7.30642 8.44673 7.50048 8.38862C7.56822 8.36842 7.63799 8.48503 7.70938 8.60443C7.77829 8.71956 7.84875 8.83733 7.92038 8.83733C7.99674 8.83733 8.07171 8.72127 8.14497 8.608C8.22149 8.48953 8.29615 8.37417 8.36832 8.39724C8.7315 8.51385 9.03533 8.76672 9.21588 9.10271Z" fill="#32343D"/>
<path d="M9.21578 9.10262C8.88631 9.36225 8.44839 9.53634 7.87809 9.53634C7.34229 9.53634 6.92325 9.38268 6.60132 9.14876C6.69089 8.96706 6.81698 8.8057 6.97173 8.67496C7.1264 8.54413 7.30648 8.44664 7.50054 8.38853C7.63354 8.34883 7.77454 8.83724 7.92043 8.83724C8.07658 8.83724 8.22706 8.35201 8.36837 8.39715C8.73148 8.51383 9.03523 8.7667 9.21578 9.10262Z" fill="#FF323D"/>
<path fill-rule="evenodd" clip-rule="evenodd" d="M4.32948 6.17559C4.25422 6.22593 4.16769 6.25692 4.07756 6.26578C3.98744 6.27472 3.89651 6.2612 3.81287 6.22647C3.746 6.19889 3.68525 6.15834 3.6341 6.10715C3.58294 6.05603 3.5424 5.99528 3.51479 5.92839C3.48014 5.84472 3.46666 5.75383 3.47557 5.66371C3.48447 5.5736 3.51548 5.48705 3.56583 5.41177C3.62633 5.32119 3.71233 5.2506 3.81296 5.20891C3.9136 5.16723 4.02433 5.15632 4.13116 5.17759C4.23799 5.19885 4.33611 5.25133 4.41311 5.32834C4.4901 5.4054 4.54252 5.5036 4.56371 5.61042C4.58494 5.71724 4.57402 5.82794 4.53235 5.92854C4.49067 6.02915 4.42002 6.11507 4.32948 6.17559ZM12.2079 6.17559C12.1326 6.22593 12.0461 6.25692 11.956 6.26578C11.8658 6.27472 11.7749 6.2612 11.6912 6.22647C11.6243 6.19882 11.5636 6.15834 11.5124 6.10715C11.4613 6.05603 11.4208 5.99528 11.3931 5.92839C11.3586 5.84472 11.3451 5.75383 11.354 5.66371C11.3629 5.5736 11.3939 5.48705 11.4442 5.41177C11.4894 5.34403 11.5491 5.28724 11.619 5.24535C11.6888 5.20349 11.767 5.17764 11.8481 5.16968C11.9292 5.16171 12.011 5.17182 12.0876 5.19929C12.1642 5.22676 12.2338 5.27088 12.2914 5.32849C12.3685 5.40548 12.4209 5.5036 12.4421 5.61042C12.4634 5.71724 12.4525 5.82794 12.4107 5.92854C12.369 6.02915 12.2985 6.11507 12.2079 6.17559Z" fill="#FFAD03"/>
</svg>
