<?xml version="1.0" encoding="UTF-8"?>
<svg version="1.1" xmlns="http://www.w3.org/2000/svg" width="512" height="512">
<path d="M0 0 C6.69304305 6.74119444 10.90653919 14.8872041 15.47265625 23.12890625 C19.32950685 30.05663582 23.46721359 36.80338816 27.609375 43.5625 C36.50669379 58.11079245 36.50669379 58.11079245 40.546875 65.4375 C44.74578653 73.04847249 49.22469132 80.48237925 53.71142578 87.92651367 C58.98565013 96.67902601 64.21144768 105.45937773 69.421875 114.25 C75.6497885 124.75400269 81.90601392 135.24010875 88.19897461 145.70532227 C94.30523238 155.86926028 100.35545772 166.06629658 106.40234375 176.265625 C110.55655763 183.27186252 114.72028966 190.27201857 118.921875 197.25 C119.08623047 196.32610474 119.08623047 196.32610474 119.25390625 195.38354492 C124.04234688 168.94249599 129.40271465 139.52326613 146.921875 118.25 C147.54835938 117.44949219 148.17484375 116.64898437 148.8203125 115.82421875 C156.45558978 106.55281062 166.24668975 100.57992237 178.1953125 98.9375 C184.97467036 98.55690447 191.72371356 100.40143516 196.8515625 104.96875 C202.12075888 110.91865596 202.45435149 116.13037469 202.10015869 123.92907715 C201.47144485 132.1137648 199.96903939 140.24038921 198.67337036 148.33969116 C197.72343119 154.29422301 196.81152691 160.254568 195.8984375 166.21484375 C195.63236443 167.94729088 195.63236443 167.94729088 195.36091614 169.71473694 C192.89346104 185.86453651 190.96588281 201.95294355 190.35546875 218.2890625 C190.31329224 219.40634232 190.27111572 220.52362213 190.22766113 221.67475891 C189.7944303 234.26275918 189.84632004 246.84410721 189.921875 259.4375 C190.1760168 301.99717475 190.1760168 301.99717475 187.671875 321.875 C187.54401611 322.90294678 187.41615723 323.93089355 187.28442383 324.98999023 C183.48053934 353.6238685 173.86943278 381.0703862 154.921875 403.25 C154.10847656 404.21421875 153.29507812 405.1784375 152.45703125 406.171875 C146.81910248 412.6203117 140.74507345 418.08552916 133.921875 423.25 C133.38546387 423.65605469 132.84905273 424.06210937 132.29638672 424.48046875 C123.89788586 430.78601372 115.23172044 436.37701102 105.921875 441.25 C105.27911621 441.58773438 104.63635742 441.92546875 103.97412109 442.2734375 C69.27550948 460.21721527 29.47393113 463.14242677 -7.78759766 451.79443359 C-16.01137998 449.12328179 -23.53593013 445.44386621 -31.078125 441.25 C-32.02171875 440.734375 -32.9653125 440.21875 -33.9375 439.6875 C-51.83934212 429.45787593 -68.10582838 412.86362755 -81.4140625 397.1953125 C-83.37951514 394.89767068 -85.41542371 392.67126877 -87.453125 390.4375 C-91.32846243 386.14391368 -95.0003381 381.71911998 -98.63671875 377.22265625 C-101.35532232 373.91248454 -104.14900995 370.67508413 -106.953125 367.4375 C-111.40639309 362.2802692 -115.68672412 357.01873898 -119.86499023 351.63696289 C-123.34610165 347.15787908 -126.91773571 342.76059286 -130.515625 338.375 C-135.33054386 332.48820874 -139.96127768 326.491729 -144.49243164 320.38452148 C-148.23846206 315.34232908 -152.07817712 310.38110304 -155.953125 305.4375 C-162.58073334 296.96295799 -168.97561883 288.33053245 -175.32373047 279.64550781 C-177.66611502 276.44713915 -180.02297747 273.25956939 -182.37939453 270.0715332 C-189.68469707 260.18294445 -196.91793596 250.24415378 -204.078125 240.25 C-204.60180664 239.52006836 -205.12548828 238.79013672 -205.66503906 238.03808594 C-209.17583329 233.13601722 -212.65093958 228.21091166 -216.078125 223.25 C-216.51705078 222.61545898 -216.95597656 221.98091797 -217.40820312 221.32714844 C-224.83303116 210.495968 -231.19830301 199.90700249 -229.078125 186.25 C-226.87746855 179.6701478 -222.25422834 176.6536929 -216.3828125 173.37890625 C-209.9510154 170.22841581 -202.32328947 169.91617189 -195.4921875 172.0625 C-186.82733093 176.66840382 -180.49021702 185.00933501 -174.078125 192.25 C-172.5162544 193.9797352 -170.95384952 195.7089883 -169.390625 197.4375 C-168.689375 198.22125 -167.988125 199.005 -167.265625 199.8125 C-163.40817046 204.11080649 -159.50302397 208.36512404 -155.58789062 212.61083984 C-154.57195374 213.71384765 -153.55765839 214.81836943 -152.54492188 215.92431641 C-145.14864873 223.9965191 -137.57994089 231.89393439 -129.890625 239.6875 C-128.68031616 240.92983398 -128.68031616 240.92983398 -127.44555664 242.19726562 C-121.01548718 248.66315538 -113.66691337 255.7790468 -105.078125 259.25 C-103.758125 259.25 -102.438125 259.25 -101.078125 259.25 C-102.40928086 253.11545645 -105.00389673 249.07392748 -108.703125 244.0625 C-115.57608198 234.4996051 -122.13133559 224.74986076 -128.640625 214.9375 C-130.72296224 211.80272267 -132.80647696 208.66872993 -134.890625 205.53515625 C-135.40846054 204.75651718 -135.92629608 203.97787811 -136.45982361 203.17564392 C-141.64756542 195.38218055 -146.88504224 187.62283083 -152.140625 179.875 C-152.5744751 179.23530273 -153.0083252 178.59560547 -153.45532227 177.93652344 C-158.37823207 170.68015253 -163.31424885 163.43278995 -168.26025391 156.19213867 C-170.07492019 153.53375388 -171.88548223 150.87261612 -173.6953125 148.2109375 C-175.95331509 144.89080374 -178.23184427 141.5860841 -180.5234375 138.2890625 C-188.41686753 126.84888695 -195.0016026 116.7653155 -193.078125 102.25 C-191.30607506 95.4134523 -187.82004782 91.21345115 -182.078125 87.25 C-181.211875 86.63125 -180.345625 86.0125 -179.453125 85.375 C-171.65934428 82.77707309 -164.19294388 83.29521416 -156.765625 86.75 C-148.42725942 91.43964582 -142.96306048 98.17993592 -137.140625 105.6171875 C-135.00933526 108.33781115 -132.83282115 111.01576095 -130.640625 113.6875 C-129.88265625 114.61175781 -129.1246875 115.53601563 -128.34375 116.48828125 C-127.59609375 117.39964844 -126.8484375 118.31101562 -126.078125 119.25 C-124.68215735 120.95822358 -123.28632602 122.66655857 -121.890625 124.375 C-117.96366989 129.17537595 -114.02205532 133.96356475 -110.078125 138.75 C-104.04275881 146.074645 -98.02718271 153.415032 -92.0234375 160.765625 C-89.71042352 163.59546628 -87.39529959 166.42356545 -85.078125 169.25 C-84.55557129 169.88744141 -84.03301758 170.52488281 -83.49462891 171.18164062 C-77.00519128 179.09278595 -70.50165578 186.98798895 -63.85351562 194.76660156 C-60.40516229 198.8154529 -57.13157655 202.98088582 -53.9296875 207.2265625 C-50.45214756 211.02691206 -47.04958948 212.35827146 -42.078125 213.25 C-44.98590078 205.11509657 -48.98196803 197.81689197 -53.328125 190.375 C-54.03831016 189.14714034 -54.74776766 187.91885957 -55.45654297 186.69018555 C-56.92682161 184.14285955 -58.40017411 181.5973522 -59.87597656 179.05322266 C-63.34359908 173.07078251 -66.77305145 167.0665187 -70.203125 161.0625 C-70.534263 160.48345917 -70.865401 159.90441833 -71.20657349 159.30783081 C-76.52233898 150.01191522 -81.7788915 140.68384772 -86.99829102 131.33349609 C-90.31564897 125.39109837 -93.6550996 119.46214398 -97.01757812 113.54516602 C-103.68483286 101.80626459 -110.17974397 89.98162478 -116.55566406 78.08203125 C-118.01839603 75.36110584 -119.49595514 72.64872886 -120.9765625 69.9375 C-127.93430869 57.11495825 -134.10712393 45.34867671 -132.078125 30.25 C-128.81737327 22.23562225 -122.58901457 17.61261281 -114.9375 13.9765625 C-107.51741861 11.07711893 -101.04570094 12.06607344 -93.7734375 14.94921875 C-77.80427375 22.65607604 -68.06723293 44.9100634 -59.078125 59.25 C-58.47307129 60.21260742 -57.86801758 61.17521484 -57.24462891 62.16699219 C-49.37173291 74.69405427 -41.59227989 87.27692826 -33.8503418 99.88525391 C-29.47739054 106.99884434 -25.06052748 114.08192499 -20.58300781 121.13012695 C-17.85053252 125.43354553 -15.14275735 129.75072845 -12.4609375 134.0859375 C-6.4505437 143.7948568 -0.3958271 153.46608952 5.984375 162.9375 C6.49605225 163.70900391 7.00772949 164.48050781 7.53491211 165.27539062 C10.56379914 169.71038653 13.47476351 173.1907252 17.921875 176.25 C19.241875 176.25 20.561875 176.25 21.921875 176.25 C21.41920796 169.11894381 19.26064591 163.16978199 16.609375 156.5625 C16.135 155.36971436 15.660625 154.17692871 15.171875 152.94799805 C3.97675179 125.09161624 -8.80778372 97.85310171 -21.47827148 70.64611816 C-30.44246493 51.39449805 -30.44246493 51.39449805 -34.578125 41.8125 C-34.90965576 41.05130859 -35.24118652 40.29011719 -35.58276367 39.50585938 C-39.89322699 29.33722779 -43.8220531 17.96861026 -40.3515625 6.94140625 C-36.54912175 -0.24613418 -29.08733569 -4.0802631 -21.640625 -6.5625 C-13.28076359 -7.17419718 -6.44317908 -5.42583502 0 0 Z " fill="#FEC927" transform="translate(288.078125,31.75)"/>
<path d="M0 0 C8.01737232 6.75147143 12.55352249 15.85900647 17.55078125 24.87890625 C21.40763185 31.80663582 25.54533859 38.55338816 29.6875 45.3125 C38.58481879 59.86079245 38.58481879 59.86079245 42.625 67.1875 C46.82391153 74.79847249 51.30281632 82.23237925 55.78955078 89.67651367 C61.06377513 98.42902601 66.28957268 107.20937773 71.5 116 C77.72842285 126.50486176 83.98354164 136.99281332 90.27929688 147.45751953 C93.84144392 153.38452577 97.38265161 159.32346463 100.90625 165.2734375 C101.32861938 165.98634949 101.75098877 166.69926147 102.18615723 167.43377686 C104.2573832 170.93034034 106.32659416 174.42807111 108.39257812 177.92773438 C109.15733139 179.22018269 109.92230054 180.5125033 110.6875 181.8046875 C111.05411743 182.42563293 111.42073486 183.04657837 111.79846191 183.68634033 C114.6047757 188.41111507 117.5863184 193.00173963 120.6875 197.53955078 C124.9662656 205.56064447 124.0520307 217.36591113 121.51489258 225.77880859 C117.15895755 238.77182655 110.33126895 248.99114761 101.20703125 259.10546875 C80.20155498 282.58359358 69.4334723 309.3100991 71 341 C71.91833073 353.74569091 73.26022405 366.08392526 78.01171875 378.01171875 C79.06068745 381.18350158 79.18402636 383.68255176 79 387 C76.8125 387.8125 76.8125 387.8125 74 388 C61.31887873 377.17028262 57.36811777 354.74591874 56 339 C55.65070412 333.37837337 55.60870777 327.7558142 55.625 322.125 C55.62587616 321.37953918 55.62675232 320.63407837 55.62765503 319.86602783 C55.67059596 308.77656845 56.14165903 298.51340838 60 288 C60.24137695 287.33983887 60.48275391 286.67967773 60.73144531 285.99951172 C67.34376539 268.40408639 78.37134753 254.01886964 91.05395508 240.33300781 C98.72798837 232.00945666 103.76955812 225.04027125 104.1237793 213.27758789 C103.57115532 201.91948106 95.76124348 191.83528479 90.01757812 182.35400391 C87.09794228 177.50042727 84.33120561 172.56565088 81.5625 167.625 C80.49892742 165.74726582 79.43512076 163.86966421 78.37109375 161.9921875 C73.53757136 153.42699644 68.80677997 144.80493897 64.0635376 136.1895752 C63.72674988 135.57787476 63.38996216 134.96617432 63.04296875 134.3359375 C62.7060199 133.72391479 62.36907104 133.11189209 62.02191162 132.48132324 C56.66640677 122.75813168 51.26350573 113.06119877 45.86767578 103.36035156 C43.97067513 99.94723823 42.0767217 96.53245022 40.18359375 93.1171875 C33.81072416 81.62400465 27.40813292 70.14961585 20.92236328 58.71972656 C17.64584435 52.93739821 14.40544635 47.13603803 11.19119263 41.31892395 C8.35720321 36.19005415 5.50816105 31.06971054 2.64941406 25.95458984 C1.63173543 24.13162555 0.6173557 22.30680965 -0.39160156 20.47900391 C-7.47818445 7.42079629 -7.47818445 7.42079629 -19.34375 -0.91796875 C-21.74417601 -1.59187226 -21.74417601 -1.59187226 -25 -2 C-17.29402542 -7.13731639 -7.26997398 -5.18478765 0 0 Z " fill="#EDA600" transform="translate(286,30)"/>
<path d="M0 0 C0.66 0 1.32 0 2 0 C0.7538806 11.32521373 -0.79416392 22.57604537 -2.54434204 33.8336792 C-5.74292605 54.50890118 -8.80811045 75.15532006 -9.57421875 96.08984375 C-9.6158313 97.20345779 -9.65744385 98.31707184 -9.70031738 99.46443176 C-10.1283059 112.03901386 -10.07547359 124.60766939 -10 137.1875 C-9.7458582 179.74717475 -9.7458582 179.74717475 -12.25 199.625 C-12.37785889 200.65294678 -12.50571777 201.68089355 -12.63745117 202.73999023 C-16.44133566 231.3738685 -26.05244222 258.8203862 -45 281 C-46.22009766 282.44632812 -46.22009766 282.44632812 -47.46484375 283.921875 C-53.10277252 290.3703117 -59.17680155 295.83552916 -66 301 C-66.8046167 301.60908203 -66.8046167 301.60908203 -67.62548828 302.23046875 C-76.02398914 308.53601372 -84.69015456 314.12701102 -94 319 C-94.64275879 319.33773438 -95.28551758 319.67546875 -95.94775391 320.0234375 C-110.8355429 327.72239618 -129.55894239 335.61260165 -146.625 335.125 C-147.46289062 335.10695313 -148.30078125 335.08890625 -149.1640625 335.0703125 C-150.07285156 335.03550781 -150.07285156 335.03550781 -151 335 C-151.495 333.515 -151.495 333.515 -152 332 C-140.31169773 327.40598902 -140.31169773 327.40598902 -135.125 325.71875 C-96.31392316 312.98667361 -61.96487071 286.61678883 -43 250 C-33.89273566 231.3313355 -29.49058044 212.51782591 -27 192 C-26.74780197 190.17833565 -26.74780197 190.17833565 -26.49050903 188.31987 C-25.99148138 184.31344615 -25.86259523 180.37199583 -25.84228516 176.33178711 C-25.83720444 175.6098819 -25.83212372 174.88797668 -25.82688904 174.14419556 C-25.8162565 172.58654391 -25.80760895 171.02887768 -25.80076981 169.47120476 C-25.78879263 166.97100849 -25.76928279 164.47097092 -25.74765015 161.97084045 C-25.68675381 154.86448843 -25.63274497 147.75814646 -25.59863281 140.65161133 C-25.35471235 92.54206969 -21.51991046 43.93936702 0 0 Z " fill="#EDA600" transform="translate(488,154)"/>
<path d="M0 0 C14.27276703 8.91394424 23.34456454 29.19235672 32 43 C32.60505371 43.96260742 33.21010742 44.92521484 33.83349609 45.91699219 C41.70639209 58.44405427 49.48584511 71.02692826 57.2277832 83.63525391 C61.60073446 90.74884434 66.01759752 97.83192499 70.49511719 104.88012695 C73.22759248 109.18354553 75.93536765 113.50072845 78.6171875 117.8359375 C84.6275813 127.5448568 90.6822979 137.21608952 97.0625 146.6875 C97.57417725 147.45900391 98.08585449 148.23050781 98.61303711 149.02539062 C102.45551156 154.65166796 106.56948537 159.27939766 113 162 C108.99610894 166.22031761 106.52857575 168.12082394 100.6875 168.3125 C95.95242987 168.21321627 93.61285875 167.22851208 90 164 C84.3947724 157.51183046 79.5600692 150.58255025 74.9375 143.375 C74.29538574 142.38137451 73.65327148 141.38774902 72.99169922 140.36401367 C56.57682562 114.88155269 40.87491184 88.95797356 25.4375 62.875 C19.46717749 52.78895612 13.44770778 42.73673466 7.3125 32.75 C6.68980225 31.73405762 6.06710449 30.71811523 5.42553711 29.67138672 C-5.36047176 10.78709504 -5.36047176 10.78709504 -23.83984375 1.48046875 C-24.55269531 1.32191406 -25.26554688 1.16335937 -26 1 C-26 0.34 -26 -0.32 -26 -1 C-16.37604626 -5.05219105 -9.44711092 -4.55925788 0 0 Z " fill="#EDA500" transform="translate(197,48)"/>
<path d="M0 0 C11.70303776 3.85395574 18.58090831 11.97029109 25.9375 21.3671875 C28.06878974 24.08781115 30.24530385 26.76576095 32.4375 29.4375 C33.19546875 30.36175781 33.9534375 31.28601563 34.734375 32.23828125 C35.48203125 33.14964844 36.2296875 34.06101563 37 35 C38.39596765 36.70822358 39.79179898 38.41655857 41.1875 40.125 C45.11445511 44.92537595 49.05606968 49.71356475 53 54.5 C59.03536619 61.824645 65.05094229 69.165032 71.0546875 76.515625 C73.36770148 79.34546628 75.68282541 82.17356545 78 85 C78.52255371 85.63744141 79.04510742 86.27488281 79.58349609 86.93164062 C86.07293372 94.84278595 92.57646922 102.73798895 99.22460938 110.51660156 C102.67296271 114.5654529 105.94654845 118.73088582 109.1484375 122.9765625 C112.53896147 126.68181865 116.07695762 128.29670823 121 129 C119.82191948 132.3529984 118.80593388 134.7552529 116 137 C111.31488285 138.56170572 106.67633617 139.14549299 102.01953125 137.15234375 C95.54750268 132.78872861 91.11753743 126.07879072 86.47070312 119.92626953 C84.03707813 116.73880254 81.51610757 113.62246225 79 110.5 C73.74190428 103.94579343 68.54056081 97.34859131 63.35888672 90.73388672 C61.07546705 87.82033183 58.78754555 84.91031584 56.5 82 C53.75951792 78.51343843 51.01990378 75.02621854 48.28515625 71.53515625 C43.05383103 64.86070683 37.78524021 58.21818773 32.47851562 51.60351562 C29.14533133 47.44456181 25.84561405 43.26104036 22.5625 39.0625 C18.45600604 33.82232521 14.30811234 28.61673264 10.125 23.4375 C9.5894751 22.77049072 9.0539502 22.10348145 8.50219727 21.41625977 C1.67926616 13.00127574 -5.75641743 4.65346803 -17 3 C-12.00087893 -1.50641924 -6.36732807 -0.85510177 0 0 Z " fill="#EDA600" transform="translate(125,116)"/>
<path d="M0 0 C4.34224172 1.76227342 4.60984713 2.70545284 6.53125 6.8359375 C7.49676354 9.18215054 8.43809804 11.53841042 9.359375 13.90234375 C10.38620118 16.39216898 11.43855601 18.87074079 12.49609375 21.34765625 C12.88757851 22.27083397 12.88757851 22.27083397 13.28697205 23.21266174 C24.77286521 49.95695198 46.04951167 72.93562787 70.33496094 88.57617188 C74.51541905 91.27693184 74.51541905 91.27693184 75.609375 93.46484375 C75.99264536 96.99093104 75.98716111 98.85094131 74.109375 101.90234375 C70.54658257 104.12908902 67.53056662 103.34616397 63.609375 102.46484375 C60.92744128 101.52869708 58.441418 100.33428593 55.921875 99.02734375 C55.23125977 98.67317383 54.54064453 98.31900391 53.82910156 97.95410156 C46.78641135 94.21723004 40.59293875 89.71479049 34.609375 84.46484375 C34.10986328 84.02720703 33.61035156 83.58957031 33.09570312 83.13867188 C13.52740584 65.60608823 -4.49725393 37.2846893 -7.7265625 10.69921875 C-7.73945312 9.879375 -7.75234375 9.05953125 -7.765625 8.21484375 C-7.79398438 7.3846875 -7.82234375 6.55453125 -7.8515625 5.69921875 C-7.390625 3.46484375 -7.390625 3.46484375 -5.8046875 1.60546875 C-3.390625 0.46484375 -3.390625 0.46484375 0 0 Z " fill="#AFBDC4" transform="translate(55.390625,281.53515625)"/>
<path d="M0 0 C2.30050611 2.5845636 3.6630498 5.22946898 4.9453125 8.421875 C5.29537354 9.27475098 5.64543457 10.12762695 6.00610352 11.00634766 C6.55995728 12.36445557 6.55995728 12.36445557 7.125 13.75 C20.44451641 45.5382598 41.62168416 70.46874292 70.171875 89.625 C72 91 72 91 73 93 C73.57003257 99.27035831 73.57003257 99.27035831 71.4375 102 C67.56364285 103.58927473 63.96493986 102.74562562 60.09301758 101.27636719 C58.09181315 100.3637063 56.13854211 99.39043947 54.1875 98.375 C53.13320801 97.8332312 53.13320801 97.8332312 52.05761719 97.28051758 C30.30230648 85.88523587 14.49968959 67.41379882 3 46 C2.68192383 45.40783691 2.36384766 44.81567383 2.03613281 44.20556641 C-1.97089074 36.57463598 -4.90818966 28.73477104 -7.4375 20.5 C-7.82651489 19.24473511 -7.82651489 19.24473511 -8.22338867 17.96411133 C-9.6129925 13.20391809 -10.42870967 9.01014439 -10 4 C-7.27637465 -0.08543802 -4.79455483 -0.81609444 0 0 Z " fill="#AFBEC5" transform="translate(32,305)"/>
<path d="M0 0 C1.21426752 0.62161707 2.41982982 1.2604663 3.6171875 1.9140625 C4.26316895 2.2642041 4.90915039 2.6143457 5.57470703 2.97509766 C32.86004498 18.37692654 50.6355728 48.53405093 59.17675781 77.89208984 C63.46262386 93.49830408 63.46262386 93.49830408 62.4921875 101.5390625 C61.18359375 103.23828125 61.18359375 103.23828125 59.4921875 104.5390625 C55.9921875 104.9765625 55.9921875 104.9765625 52.4921875 104.5390625 C49.18226666 101.27879047 48.27917763 97.05428004 46.9921875 92.7265625 C41.50785097 75.44232199 33.30240741 59.09469523 22.4921875 44.5390625 C21.79996094 43.60578125 21.10773438 42.6725 20.39453125 41.7109375 C11.33799211 30.13210989 0.73215733 19.60704138 -11.3125 11.17578125 C-13.5078125 9.5390625 -13.5078125 9.5390625 -14.5078125 7.5390625 C-15.07784507 1.26870419 -15.07784507 1.26870419 -12.9453125 -1.4609375 C-8.44231024 -3.30832304 -4.34280113 -1.80869446 0 0 Z " fill="#AFBDC4" transform="translate(336.5078125,45.4609375)"/>
<path d="M0 0 C20.82722282 5.06908509 37.58247713 26.69449973 48.26464844 43.95751953 C57.71791011 59.94974255 66.92319597 79.26899364 67.41699219 98.13720703 C67.454375 99.07822266 67.49175781 100.01923828 67.53027344 100.98876953 C67.10449219 103.51220703 67.10449219 103.51220703 65.31933594 105.36767578 C62.06197729 107.05093166 59.59706793 106.25102113 56.10449219 105.51220703 C54.07798668 100.52383458 52.08974341 95.52807611 50.24511719 90.46923828 C43.06151281 70.83317265 33.72679566 53.54423205 20.10449219 37.51220703 C19.32847656 36.58923828 18.55246094 35.66626953 17.75292969 34.71533203 C11.6593971 27.75655464 5.0118522 21.89402345 -2.2331543 16.14404297 C-2.93770752 15.58362305 -3.64226074 15.02320313 -4.36816406 14.44580078 C-4.99988525 13.95136475 -5.63160645 13.45692871 -6.2824707 12.94750977 C-7.89550781 11.51220703 -7.89550781 11.51220703 -9.89550781 8.51220703 C-9.70800781 4.94970703 -9.70800781 4.94970703 -8.89550781 1.51220703 C-5.47875914 -0.76562542 -3.95975795 -0.62136905 0 0 Z " fill="#AFBDC4" transform="translate(358.8955078125,22.48779296875)"/>
<path d="M0 0 C8.66485657 4.60590382 15.00197048 12.94683501 21.4140625 20.1875 C22.9759331 21.9172352 24.53833798 23.6464883 26.1015625 25.375 C27.1534375 26.550625 27.1534375 26.550625 28.2265625 27.75 C32.08401704 32.04830649 35.98916353 36.30262404 39.90429688 40.54833984 C40.92023376 41.65134765 41.93452911 42.75586943 42.94726562 43.86181641 C50.34353877 51.9340191 57.91224661 59.83143439 65.6015625 67.625 C66.40843506 68.45322266 67.21530762 69.28144531 68.04663086 70.13476562 C75.75401202 77.88508267 83.80623451 84.98513683 94.4140625 88.1875 C93.85568822 91.4609692 93.09365574 92.9087244 90.4140625 94.875 C86.26764872 97.59687898 82.37822795 98.74672141 77.4140625 98.1875 C68.51529161 94.75438494 61.11110732 86.23377648 55.09375 79.12109375 C53.44056675 77.2180107 51.71401972 75.45145808 49.9140625 73.6875 C46.89992668 70.72014677 44.11488917 67.61404708 41.35546875 64.41015625 C39.12602189 61.85773117 36.83404868 59.36862486 34.5390625 56.875 C31.23069336 53.25226095 28.05393892 49.57057109 24.9765625 45.75 C21.32070783 41.21725602 17.47313268 36.93437148 13.50683594 32.67700195 C10.44126948 29.36599683 7.55236581 25.95881084 4.7265625 22.4375 C-2.90271362 13.04970278 -10.14987833 5.28594693 -22.5859375 3.1875 C-16.12136501 -1.93957474 -7.84267082 -2.46416243 0 0 Z " fill="#EDA600" transform="translate(92.5859375,203.8125)"/>
</svg>
