<?xml version="1.0" encoding="UTF-8" standalone="no"?>
<!DOCTYPE svg PUBLIC "-//W3C//DTD SVG 1.1//EN" "http://www.w3.org/Graphics/SVG/1.1/DTD/svg11.dtd">
<!-- Created with Vectornator (http://vectornator.io/) -->
<svg height="100%" stroke-miterlimit="10" style="fill-rule:nonzero;clip-rule:evenodd;stroke-linecap:round;stroke-linejoin:round;" version="1.1" viewBox="0 0 1024 1024" width="100%" xml:space="preserve" xmlns="http://www.w3.org/2000/svg" xmlns:vectornator="http://vectornator.io" xmlns:xlink="http://www.w3.org/1999/xlink">
<defs>
<linearGradient gradientTransform="matrix(5.06127 0 0 5.06127 -1547.77 -899.134)" gradientUnits="userSpaceOnUse" id="LinearGradient" x1="326.274" x2="486.743" y1="360.503" y2="198.574">
<stop offset="0" stop-color="#32bdd9"/>
<stop offset="1" stop-color="#0087a6"/>
</linearGradient>
</defs>
<g id="Calque-1" vectornator:layerName="Calque 1">
<g opacity="1" vectornator:layerName="Grouper 1">
<path d="M101.142 512C101.142 285.089 285.089 101.142 512 101.142C738.911 101.142 922.858 285.089 922.858 512C922.858 738.911 738.911 922.858 512 922.858C285.089 922.858 101.142 738.911 101.142 512Z" fill="url(#LinearGradient)" fill-rule="nonzero" opacity="1" stroke="#64b1d6" stroke-linecap="butt" stroke-linejoin="miter" stroke-width="0.1" vectornator:layerName="Ovale 1"/>
<path d="M402.392 126.948C406.515 152.511 410.606 178.095 414.729 203.658C422.975 254.784 427.789 290.554 429.438 310.894C431.087 331.234 431.569 349.119 431.02 364.512C430.47 379.904 428.384 390.09 424.535 395.037C420.687 399.985 415.873 402.713 409.826 403.262C403.779 403.811 390.707 398.681 370.917 388.236C351.127 377.791 334.123 368.005 319.83 358.659C312.683 353.987 305.466 349.256 298.32 344.583C312.063 359.975 325.858 375.374 339.601 390.767C367.088 421.552 382.727 440.559 386.576 447.706C390.424 454.853 392.428 460.947 392.428 465.895C392.428 470.843 388.819 474.933 381.672 478.232C374.526 481.53 359.851 485.139 337.861 488.987C315.871 492.835 278.414 496.926 225.09 501.324C198.427 503.523 171.721 505.61 145.058 507.809C159.076 508.908 172.953 510.031 186.972 511.13C215.008 513.329 248.209 517.337 286.141 522.834C324.073 528.332 349.741 532.663 363.483 535.962C377.227 539.26 385.807 541.746 389.106 543.396C392.405 545.045 396.495 548.895 401.443 554.942C406.391 560.989 408.636 568.206 408.086 576.452C407.536 584.698 401.924 599.456 391.479 620.896C381.033 642.336 357.212 683.801 319.83 745.372C301.139 776.157 282.531 806.955 263.84 837.74C265.764 836.365 267.61 835.002 269.534 833.628C273.382 830.879 282.204 820.934 295.947 803.893C309.691 786.851 333.029 761.184 366.014 726.55C398.998 691.917 420.333 671.546 430.229 665.499C440.124 659.452 451.831 655.444 465.025 653.795C478.219 652.145 488.646 653.026 496.342 656.325C504.038 659.624 510.615 664.837 516.112 671.983C521.61 679.13 531.155 697.897 544.898 728.132C558.642 758.367 573.317 793.979 588.71 835.209C596.406 855.824 603.948 876.436 611.644 897.052C608.346 876.712 605.136 856.34 601.837 836C595.241 795.319 590.667 761.071 587.919 733.035C585.17 704.998 583.407 684.627 582.858 671.983C582.308 659.339 583.19 649.312 585.388 641.616C587.587 633.919 590.314 628.548 593.613 625.799C596.911 623.051 601.725 621.929 608.322 622.478C614.919 623.028 635.93 633.454 671.114 653.795C688.705 663.964 706.349 674.151 723.94 684.32C709.098 668.653 694.182 653.171 679.338 637.504C649.652 606.168 632.408 586.28 627.46 578.034C622.513 569.788 620.268 563.934 620.817 560.636C621.367 557.338 629.465 553.246 644.858 548.299C660.251 543.351 676.373 539.501 693.415 536.753C710.456 534.004 745.586 530.395 798.91 525.998C825.573 523.799 852.281 521.712 878.942 519.513C863.548 518.413 848.15 517.291 832.758 516.191C801.972 513.992 768.929 510.384 733.747 505.436C698.564 500.488 669.769 495.276 647.231 489.778C624.692 484.28 611.621 479.549 608.322 475.701C605.024 471.853 603.419 466.398 603.419 459.252C603.419 452.106 608.308 438.553 617.654 418.762C627 398.971 644.727 366.328 671.114 320.7C697.5 275.072 718.353 240.824 733.747 217.735C741.444 206.19 749.143 194.641 756.839 183.097C755.739 183.646 754.618 184.129 753.517 184.678C751.318 185.778 743.862 194.201 731.216 210.143C718.572 226.085 692.664 255.037 653.083 296.817C613.502 338.597 591.127 361.695 586.179 366.093C581.232 370.491 575.137 374.582 567.99 378.43C560.843 382.278 552.422 384.764 542.526 385.864C532.63 386.963 525.655 386.722 521.806 385.073C517.958 383.424 514.35 380.938 511.051 377.639C507.753 374.341 502.456 365.278 494.76 350.435C487.064 335.592 477.119 314.34 465.025 286.853C452.931 259.366 439.379 225.999 424.535 186.418C417.113 166.628 409.813 146.739 402.392 126.948Z" fill="#ffffff" fill-rule="nonzero" opacity="1" stroke="#64b1d6" stroke-linecap="butt" stroke-linejoin="miter" stroke-width="0.1"/>
</g>
</g>
</svg>
