<svg width="512" height="512" viewBox="0 0 512 512" fill="none" xmlns="http://www.w3.org/2000/svg">
<path d="M331.497 215.574L306.986 259.215C274.669 234.303 226.737 230.667 194.42 257.397C142.312 300.493 145.944 400.142 227.1 400.687C249.795 400.687 269.041 389.959 289.738 382.867L300.632 426.327C282.294 434.873 263.594 443.602 243.441 446.329C59.7029 471.423 70.2333 205.754 236.36 191.935C271.219 189.025 301.903 198.117 331.678 215.574H331.497Z" fill="#FF8236"/>
<path d="M204.587 173.751C176.627 182.115 150.664 197.572 131.056 219.211C127.424 175.205 137.228 86.2853 186.068 68.8286C193.33 66.2829 218.204 59.9184 217.478 72.8291C216.751 85.7398 199.503 107.924 195.328 119.926C188.065 141.019 194.783 155.566 204.769 173.932L204.587 173.751Z" fill="#FF8236"/>
<path d="M273.579 273.763V306.494H302.629V331.952H273.579V362.864H246.346V331.952H215.481V306.494H243.622L246.346 303.766V273.763H273.579Z" fill="#FF8236"/>
<path d="M373.437 273.763V303.766L376.16 306.494H404.302V331.952H373.437V362.864H346.203V331.952H317.154V306.494H346.203V273.763H373.437Z" fill="#FF8236"/>
<path d="M293.369 88.4674C297.001 93.9226 276.484 117.38 273.216 123.381C263.775 141.201 270.13 151.384 277.211 168.295C256.694 165.204 237.631 167.75 217.296 170.114C221.835 131.018 243.804 74.102 293.369 88.4674Z" fill="#FF8236"/>
</svg>
