<svg width="512" height="512" viewBox="0 0 512 512" fill="none" xmlns="http://www.w3.org/2000/svg">
<path d="M112.567 113H169.945V170.361H112.567V113ZM342.046 113H399.441V170.361H342.046V113Z" fill="#FFD700"/>
<path d="M112.567 170.361H227.306V227.739H112.584L112.567 170.361ZM284.685 170.361H399.424V227.739H284.685V170.361Z" fill="#FFAF00"/>
<path d="M112.567 227.759H399.441V285.12H112.567V227.759Z" fill="#FF8205"/>
<path d="M112.567 285.12H169.945V342.481H112.567V285.12ZM227.323 285.12H284.701V342.481H227.323V285.12ZM342.046 285.12H399.441V342.481H342.046V285.12Z" fill="#FA500F"/>
<path d="M55.2014 342.481H227.319V399.859H55.2014V342.481ZM284.681 342.481H456.798V399.859H284.681V342.481Z" fill="#E10500"/>
</svg>
