<svg width="16" height="16" viewBox="0 0 16 16" fill="none" xmlns="http://www.w3.org/2000/svg">
<path d="M12.909 2H10.7272V4.39719H12.909V2Z" fill="black"/>
<path d="M14.0001 2H11.8182V4.39719H14.0001V2Z" fill="#F7D046"/>
<path d="M4.18182 2H2V4.39719H4.18182V2Z" fill="black"/>
<path d="M4.18182 4.39722H2V6.79441H4.18182V4.39722Z" fill="black"/>
<path d="M4.18182 6.79419H2V9.19138H4.18182V6.79419Z" fill="black"/>
<path d="M4.18182 9.19165H2V11.5888H4.18182V9.19165Z" fill="black"/>
<path d="M4.18182 11.5889H2V13.9861H4.18182V11.5889Z" fill="black"/>
<path d="M5.27276 2H3.09094V4.39719H5.27276V2Z" fill="#F7D046"/>
<path d="M14.0001 4.39722H11.8182V6.79441H14.0001V4.39722Z" fill="#F2A73B"/>
<path d="M5.27276 4.39722H3.09094V6.79441H5.27276V4.39722Z" fill="#F2A73B"/>
<path d="M10.7272 4.39722H8.54541V6.79441H10.7272V4.39722Z" fill="black"/>
<path d="M11.8182 4.39722H9.63635V6.79441H11.8182V4.39722Z" fill="#F2A73B"/>
<path d="M7.45465 4.39722H5.27283V6.79441H7.45465V4.39722Z" fill="#F2A73B"/>
<path d="M9.63641 6.79419H7.45459V9.19138H9.63641V6.79419Z" fill="#EE792F"/>
<path d="M11.8182 6.79419H9.63635V9.19138H11.8182V6.79419Z" fill="#EE792F"/>
<path d="M7.45465 6.79419H5.27283V9.19138H7.45465V6.79419Z" fill="#EE792F"/>
<path d="M8.54547 9.19165H6.36365V11.5888H8.54547V9.19165Z" fill="black"/>
<path d="M9.63641 9.19165H7.45459V11.5888H9.63641V9.19165Z" fill="#EB5829"/>
<path d="M14.0001 6.79419H11.8182V9.19138H14.0001V6.79419Z" fill="#EE792F"/>
<path d="M5.27276 6.79419H3.09094V9.19138H5.27276V6.79419Z" fill="#EE792F"/>
<path d="M12.909 9.19165H10.7272V11.5888H12.909V9.19165Z" fill="black"/>
<path d="M14.0001 9.19165H11.8182V11.5888H14.0001V9.19165Z" fill="#EB5829"/>
<path d="M12.909 11.5889H10.7272V13.9861H12.909V11.5889Z" fill="black"/>
<path d="M5.27276 9.19165H3.09094V11.5888H5.27276V9.19165Z" fill="#EB5829"/>
<path d="M14.0001 11.5889H11.8182V13.9861H14.0001V11.5889Z" fill="#EA3326"/>
<path d="M5.27276 11.5889H3.09094V13.9861H5.27276V11.5889Z" fill="#EA3326"/>
</svg>
