<svg width="20" height="20" viewBox="0 0 20 20" fill="none" xmlns="http://www.w3.org/2000/svg">
<rect width="20" height="20" rx="10" fill="white"/>
<path fill-rule="evenodd" clip-rule="evenodd" d="M2.70138 13.2775L9.06072 14.9788C9.05216 15.431 9.06551 15.8833 9.10072 16.3342L13.0714 17.3962C11.8937 17.8823 10.6169 18.08 9.34738 17.9728L9.22738 17.9622L9.19805 17.9595L9.14205 17.9535L9.07938 17.9468C9.04446 17.9426 9.00957 17.9382 8.97472 17.9335L8.90338 17.9242L8.83005 17.9135C8.75879 17.9031 8.68767 17.8918 8.61672 17.8795L8.58872 17.8742L8.53872 17.8655L8.46738 17.8522L8.42072 17.8422L8.35872 17.8295L8.30872 17.8188L8.24538 17.8055L8.18072 17.7902L8.11805 17.7755L8.07272 17.7642L8.01405 17.7495L7.95405 17.7335L7.89072 17.7168L7.83605 17.7015L7.76338 17.6815L7.72205 17.6682L7.66605 17.6515L7.60405 17.6328L7.53405 17.6102L7.49538 17.5975L7.44205 17.5802L7.38205 17.5595L7.33805 17.5435C7.32826 17.5402 7.31848 17.5369 7.30872 17.5335L7.26338 17.5168L7.19605 17.4922L7.15805 17.4775L7.10472 17.4575L7.04672 17.4342L6.98805 17.4108L6.93538 17.3895L6.87205 17.3628L6.83005 17.3442L6.78805 17.3262C6.77892 17.3222 6.76981 17.3182 6.76072 17.3142L6.71672 17.2942L6.64805 17.2628L6.61338 17.2468L6.54938 17.2162L6.50805 17.1962L6.45205 17.1695L6.39472 17.1402L6.33272 17.1088L6.29805 17.0908L6.22938 17.0542L6.19138 17.0342L6.15272 17.0128C6.14247 17.0071 6.13225 17.0013 6.12205 16.9955L6.05938 16.9602L6.01938 16.9375L5.98538 16.9175L5.93738 16.8902L5.88272 16.8568L5.82072 16.8195L5.78605 16.7982L5.73005 16.7628L5.68938 16.7368L5.63672 16.7035L5.59005 16.6722L5.55472 16.6488C5.54268 16.6409 5.53068 16.6329 5.51872 16.6248L5.48938 16.6048L5.46005 16.5848C5.45114 16.5787 5.44225 16.5724 5.43338 16.5662L5.39538 16.5395L5.34472 16.5035L5.29872 16.4702L5.24938 16.4342L5.21205 16.4062L5.16138 16.3682L5.11072 16.3288L5.05338 16.2842L5.02338 16.2608L4.98072 16.2262L4.93138 16.1862L4.87205 16.1375L4.84138 16.1115L4.81072 16.0855C4.80113 16.0773 4.79157 16.0691 4.78205 16.0608L4.75205 16.0342L4.71138 15.9988L4.66472 15.9575L4.61938 15.9175L4.57805 15.8788L4.53338 15.8375L4.49805 15.8042L4.43938 15.7482C4.41727 15.7267 4.39527 15.7052 4.37338 15.6835L4.35405 15.6648L4.32672 15.6368L4.28072 15.5902L4.24738 15.5562L4.21405 15.5208C4.17596 15.4818 4.13862 15.442 4.10205 15.4015L4.04872 15.3428L4.00738 15.2962L3.96005 15.2428L3.93205 15.2102L3.89672 15.1688L3.85805 15.1235L3.82738 15.0862C3.82136 15.0789 3.81536 15.0715 3.80938 15.0642L3.77938 15.0275L3.73538 14.9728L3.70805 14.9382L3.67472 14.8955L3.66138 14.8788C3.27993 14.3844 2.95773 13.847 2.70138 13.2775ZM2.02138 9.41485L9.59005 11.4395C9.46334 11.8809 9.35898 12.3283 9.27738 12.7802L16.4887 14.7095C16.1305 15.2 15.7178 15.6485 15.2587 16.0462L2.43805 12.6155L2.42738 12.5848L2.40405 12.5155C2.39271 12.4816 2.3816 12.4476 2.37072 12.4135L2.36605 12.3982C2.31474 12.235 2.26871 12.0703 2.22805 11.9042L2.20805 11.8202L2.19605 11.7668L2.18205 11.7022L2.17005 11.6482L2.15805 11.5882L2.14672 11.5322L2.13472 11.4695C2.11738 11.3755 2.10138 11.2808 2.08738 11.1855L2.07605 11.1068L2.06872 11.0515L2.06005 10.9835C2.05559 10.9478 2.05136 10.912 2.04738 10.8762L2.04405 10.8448C1.99424 10.3698 1.98666 9.89125 2.02138 9.41485ZM3.08338 5.98151L11.0487 8.11218C10.8034 8.51551 10.5787 8.93285 10.3754 9.36218L17.9054 11.3768C17.8107 11.9235 17.6601 12.4515 17.4601 12.9535L9.76005 10.8935L2.08272 8.84018L2.09272 8.77351L2.09805 8.74085L2.10472 8.69618L2.11472 8.63818L2.12672 8.57285C2.14405 8.47418 2.16405 8.37618 2.18538 8.27818L2.20405 8.19551L2.21738 8.13885L2.23338 8.07418C2.24805 8.01418 2.26338 7.95418 2.28005 7.89551L2.29872 7.82751L2.31405 7.77218L2.33405 7.70551L2.35072 7.65085L2.37072 7.58685L2.38805 7.53218L2.40872 7.46885C2.58135 6.95099 2.80699 6.45235 3.08205 5.98085L3.08338 5.98151ZM6.04472 3.04818L13.568 5.06018C13.171 5.42051 12.7953 5.8036 12.4427 6.20751L17.658 7.60285C17.836 8.17085 17.9527 8.76551 18.0001 9.37951L3.40405 5.47551L3.43405 5.43218L3.45205 5.40551L3.47872 5.36885L3.50938 5.32551L3.54605 5.27485L3.58205 5.22685L3.62472 5.16951L3.65805 5.12618L3.69605 5.07751L3.73272 5.03085L3.77272 4.98151L3.80938 4.93551L3.85272 4.88418L3.88872 4.84018L3.93272 4.78885L3.96805 4.74885L4.01605 4.69418L4.05138 4.65418L4.09605 4.60485L4.13205 4.56618L4.18072 4.51418L4.21938 4.47418L4.26138 4.42951L4.37338 4.31618L4.44005 4.25085L4.47938 4.21351L4.53005 4.16618C4.98951 3.7356 5.49787 3.36037 6.04472 3.04818ZM10.0114 2.00018H10.0761L10.1307 2.00085L10.1767 2.00151L10.2127 2.00285L10.258 2.00418L10.2887 2.00485L10.3394 2.00685L10.3707 2.00818L10.4107 2.01018L10.4467 2.01151L10.5047 2.01485L10.5747 2.01951L10.6707 2.02685L10.7294 2.03151L10.7587 2.03418L10.81 2.03951L10.8647 2.04485L10.896 2.04818L10.964 2.05618L10.9974 2.06018L11.0694 2.06951L11.1234 2.07618L11.1514 2.08018L11.1947 2.08685L11.3327 2.10818L11.3794 2.11618L11.4227 2.12351L11.516 2.14085L11.5774 2.15285L11.6507 2.16751L11.6814 2.17418L11.7314 2.18485L11.7587 2.19151L11.8 2.20018L11.828 2.20685L11.8714 2.21685L11.904 2.22485L11.9514 2.23618L12.0154 2.25218L12.0901 2.27218L12.1654 2.29218L12.2407 2.31351L12.2741 2.32351L12.3207 2.33685L12.3727 2.35285L12.4214 2.36818L12.4547 2.37885L12.4881 2.38951L12.5387 2.40618L12.6047 2.42818L12.6727 2.45218L12.7047 2.46351L12.7474 2.47885L12.8094 2.50151L12.8827 2.52885L12.9601 2.55885L13.0267 2.58551L13.058 2.59885L13.098 2.61485L13.1254 2.62685L13.1674 2.64418L13.1941 2.65618L13.232 2.67285L13.3054 2.70485L13.3721 2.73551L13.4214 2.75885L13.4714 2.78285L13.5114 2.80151L13.5727 2.83218L13.6334 2.86218L13.7014 2.89685L13.7367 2.91551L13.7694 2.93285L13.8001 2.94885L13.8401 2.97085L13.8674 2.98551L13.9021 3.00485L13.9607 3.03818L14.0314 3.07818L14.0894 3.11218L14.1274 3.13485L14.1627 3.15618L14.2267 3.19551L14.2854 3.23218L14.3507 3.27351L14.3747 3.28951L14.4174 3.31685L14.4734 3.35418L14.5 3.37218L14.5414 3.40018L14.5827 3.42884L14.598 3.44018C14.634 3.46485 14.6701 3.49018 14.7054 3.51618L14.7607 3.55618L14.804 3.58818L14.8414 3.61685L14.8987 3.66018L14.9534 3.70284L14.98 3.72285L15.0134 3.75018L15.0707 3.79618L15.1234 3.83951L15.1801 3.88685C15.6547 4.28685 16.0821 4.74218 16.4527 5.24085L6.81472 2.66285L6.85605 2.64485L6.89938 2.62618L6.95338 2.60351L7.01072 2.58018C7.08605 2.55018 7.16205 2.52018 7.23805 2.49285L7.30205 2.46951L7.36405 2.44751L7.42005 2.42751L7.48405 2.40685C7.54205 2.38685 7.60138 2.36818 7.66005 2.35018L7.72072 2.33218L7.77805 2.31551L7.84605 2.29551L7.90272 2.28018L7.96938 2.26285L8.02672 2.24685L8.08672 2.23151L8.14738 2.21685L8.21072 2.20218L8.27072 2.18885L8.33605 2.17485L8.39672 2.16151L8.46005 2.14951L8.52138 2.13751L8.58805 2.12551L8.64872 2.11485L8.71405 2.10351L8.77538 2.09418L8.84005 2.08418L8.90138 2.07551L8.96938 2.06685L9.03005 2.05885L9.10005 2.05085L9.16005 2.04418L9.23005 2.03751C9.29205 2.03085 9.35405 2.02551 9.41672 2.02151L9.48738 2.01618L9.54738 2.01285L9.62072 2.00885L9.68272 2.00618L9.74938 2.00351L9.81405 2.00218L9.88005 2.00085L10.0114 1.99951V2.00018Z" fill="black"/>
</svg>
