<?xml version="1.0" encoding="UTF-8"?>
<svg version="1.1" xmlns="http://www.w3.org/2000/svg" width="200" height="200">
<path d="M0 0 C66 0 132 0 200 0 C200 66 200 132 200 200 C134 200 68 200 0 200 C0 134 0 68 0 0 Z " fill="#FDFCFC" transform="translate(0,0)"/>
<path d="M0 0 C3.125 2.375 3.125 2.375 5 5 C5 5.66 5 6.32 5 7 C4.360625 7.268125 3.72125 7.53625 3.0625 7.8125 C0.66868314 8.88667752 0.66868314 8.88667752 0 12 C-0.66 12 -1.32 12 -2 12 C-4.71387804 22.75058031 -7.34068649 33.51821899 -9.875 44.3125 C-10.04741211 45.04499969 -10.21982422 45.77749939 -10.39746094 46.53219604 C-12.92007612 57.25576955 -15.34994647 67.99628816 -17.69726562 78.75976562 C-19.09904457 85.12697406 -20.58689252 91.46734656 -22.1484375 97.796875 C-22.33287415 98.54641953 -22.51731079 99.29596405 -22.70733643 100.06822205 C-23.6152648 103.75256801 -24.53164894 107.43450963 -25.4609375 111.11352539 C-25.79448384 112.45714115 -26.12782703 113.80080736 -26.4609375 115.14453125 C-26.75790527 116.32378174 -27.05487305 117.50303223 -27.36083984 118.71801758 C-28.56794843 124.8433821 -28.56794843 124.8433821 -26.4375 130.4375 C-23.98132689 132.34623259 -23.98132689 132.34623259 -20.4375 131.8125 C-17.04557934 131.06493016 -17.04557934 131.06493016 -14 130 C-13.88785156 128.74960938 -13.77570312 127.49921875 -13.66015625 126.2109375 C-13.02876364 120.56903276 -11.76015528 115.13937533 -10.4375 109.625 C-9.89648259 107.32827868 -9.35615685 105.03139436 -8.81640625 102.734375 C-8.37965576 100.88295898 -8.37965576 100.88295898 -7.93408203 98.99414062 C-6.92431335 94.69333858 -5.94299993 90.38621056 -4.96484375 86.078125 C-4.70497932 84.93463089 -4.70497932 84.93463089 -4.43986511 83.76803589 C-3.75190554 80.73971948 -3.064243 77.71133836 -2.37887573 74.68243408 C-0.50400252 66.40232227 1.44366725 58.14869525 3.52774048 49.9186554 C4.67720984 45.3560246 5.74837973 40.78194077 6.78125 36.19140625 C7.06613281 34.93005859 7.35101563 33.66871094 7.64453125 32.36914062 C8.2206948 29.80534436 8.79089251 27.24020094 9.35546875 24.67382812 C13.84747469 4.92729521 13.84747469 4.92729521 21 0 C24.9576981 -0.96892797 28.30736697 -0.82147356 31.99609375 0.96875 C40.91014729 7.56323262 42.28992574 21.45546811 44.71972656 31.65429688 C45.2545913 33.89422765 45.80244141 36.13071386 46.3515625 38.3671875 C46.69868727 39.80450161 47.04506876 41.24199548 47.390625 42.6796875 C47.63428802 43.67196854 47.63428802 43.67196854 47.88287354 44.68429565 C48.70952989 48.19179032 49.17748956 51.39592799 49 55 C49.66 55 50.32 55 51 55 C51.09539062 53.8140625 51.19078125 52.628125 51.2890625 51.40625 C52.04346652 44.64043711 53.75021228 38.09986087 55.375 31.5 C55.67921875 30.23285156 55.9834375 28.96570313 56.296875 27.66015625 C61.29539063 7.1320643 61.29539063 7.1320643 66.625 1.1875 C70.352173 -0.6760865 73.92163309 -0.66763302 78 0 C81.0625 1.8125 81.0625 1.8125 83 4 C83 4.99 83 5.98 83 7 C82.22527344 7.74894531 81.45054687 8.49789062 80.65234375 9.26953125 C77.61909652 12.39212302 76.78766027 14.53631592 75.5625 18.6875 C75.26291382 19.69780273 75.26291382 19.69780273 74.95727539 20.72851562 C72.39609045 29.65781351 70.43884012 38.75287861 68.40234375 47.8125 C67.33429531 52.5612845 66.20397922 57.2839984 65 62 C63.30356899 68.68798726 61.73289725 75.40056895 60.1875 82.125 C59.93629395 83.2171582 59.68508789 84.30931641 59.42626953 85.43457031 C58.31968697 90.24934492 57.21440942 95.06441669 56.11083984 99.87988281 C55.35126742 103.19219369 54.58757503 106.50353646 53.82168579 109.81439209 C53.39043724 111.68310636 52.96309018 113.55271967 52.53588867 115.42236328 C46.09274953 143.24284274 46.09274953 143.24284274 39 148 C35.43983941 148.93163081 32.40971346 148.54852075 28.95263672 147.20336914 C23.45816145 143.81723903 20.84068197 137.28001067 19.2421875 131.28515625 C18.76754312 129.21518398 18.31238197 127.14066494 17.875 125.0625 C17.62983643 123.97453125 17.38467285 122.8865625 17.13208008 121.765625 C16.4030257 118.5141332 15.69898598 115.25807089 15 112 C14.40630859 109.29022605 13.80914435 106.58125888 13.20947266 103.87280273 C12.86850985 102.32284133 12.53329138 100.77160204 12.20458984 99.21899414 C11.70362039 95.82317445 11.70362039 95.82317445 10 93 C8.2940107 99.34113003 6.71923485 105.49224243 6.30859375 112.0625 C6 114 6 114 5.08203125 115.76953125 C3.85077535 118.3076075 3.29909878 120.83691278 2.70849609 123.5847168 C0.89127912 131.91894991 -1.0576609 139.33450421 -8.22265625 144.6484375 C-14.34796404 148.16248096 -20.04084168 148.95433758 -27 148 C-33.05851935 146.28341952 -37.25371116 142.98537145 -41 138 C-47.08524593 126.4100793 -43.09943386 113.95887443 -40.125 102.0625 C-39.71830261 100.3991721 -39.31297847 98.7355079 -38.90893555 97.0715332 C-38.27164319 94.44701819 -37.63364551 91.82270288 -36.99168396 89.19932556 C-34.73497298 79.96856667 -32.59061029 70.71259548 -30.4524231 61.45379639 C-29.40384751 56.9209535 -28.34560665 52.39036572 -27.2890625 47.859375 C-25.90847376 41.9368888 -24.54695053 36.01082414 -23.2109375 30.078125 C-22.70327376 27.86454921 -22.19547544 25.65100428 -21.6875 23.4375 C-21.48165283 22.49414795 -21.27580566 21.5507959 -21.0637207 20.57885742 C-18.27278388 8.56463396 -14.21097998 -2.52537609 0 0 Z " fill="#EA3A34" transform="translate(48,28)"/>
<path d="M0 0 C0.76183594 -0.00515625 1.52367187 -0.0103125 2.30859375 -0.015625 C5.50394168 0.3609498 7.73753523 1.34689622 9.92602539 3.74267578 C13.82638586 9.82688051 15.39115616 16.13258722 17 23.125 C17.29366455 24.35009277 17.5873291 25.57518555 17.88989258 26.83740234 C18.79628154 30.63813645 19.68131329 34.44335227 20.5625 38.25 C21.10903307 40.57820529 21.65589604 42.90633317 22.203125 45.234375 C24.26091356 54.04037706 26.26416545 62.85748933 28.19628906 71.69189453 C29.5039276 77.66985638 30.88708142 83.59453315 32.5 89.5 C42.25695993 125.61241344 42.25695993 125.61241344 38.0625 135.5625 C34.99346924 140.79405066 30.3236925 144.57875191 25.1875 147.6875 C17.07957922 149.42491159 9.72066862 148.51364341 2.5625 144.25 C-3.79737437 138.20737964 -5.93688836 131.58757438 -7.625 123.1875 C-8.1114764 120.97775384 -8.59845623 118.76811845 -9.0859375 116.55859375 C-9.3137793 115.48722168 -9.54162109 114.41584961 -9.77636719 113.31201172 C-10.68510335 109.1032344 -11.70176761 104.92584146 -12.75 100.75 C-13.05550781 99.5021875 -13.36101562 98.254375 -13.67578125 96.96875 C-14.168343 94.35578304 -14.168343 94.35578304 -15.4375 93.25 C-15.6641333 94.18682617 -15.8907666 95.12365234 -16.12426758 96.08886719 C-16.97927967 99.62266922 -17.83489379 103.15632528 -18.69067383 106.68994141 C-19.05834664 108.20845741 -19.42586426 109.72701101 -19.79321289 111.24560547 C-20.84273617 115.58401684 -21.89648186 119.92136795 -22.95410156 124.2578125 C-23.40876518 126.13157771 -23.85600177 128.00714061 -24.30273438 129.8828125 C-24.55990234 130.94757813 -24.81707031 132.01234375 -25.08203125 133.109375 C-25.30093018 134.02686523 -25.5198291 134.94435547 -25.74536133 135.88964844 C-27.33445922 141.30883661 -30.61071044 145.39780617 -35.4375 148.25 C-38.24634546 148.8608668 -40.6384854 148.93282413 -43.4375 148.25 C-46.4375 145.75 -46.4375 145.75 -48.4375 143.25 C-48.1075 142.26 -47.7775 141.27 -47.4375 140.25 C-46.7775 140.25 -46.1175 140.25 -45.4375 140.25 C-41.38995394 132.46625757 -39.18733656 124.8379985 -37.1875 116.3125 C-36.73733521 114.42301636 -36.73733521 114.42301636 -36.27807617 112.49536133 C-33.68387243 101.55022917 -31.27222473 90.56472871 -28.92285156 79.56469727 C-27.40907165 72.51210804 -25.77596225 65.50340175 -23.9974823 58.51353455 C-22.67712562 53.29258607 -21.46891391 48.05118318 -20.2890625 42.796875 C-19.7336515 40.35330888 -19.17698791 37.91003071 -18.62011719 35.46679688 C-18.24700465 33.81621497 -17.87887351 32.16449947 -17.515625 30.51171875 C-10.77261122 -0.07266517 -10.77261122 -0.07266517 0 0 Z " fill="#EC3832" transform="translate(152.4375,27.75)"/>
<path d="M0 0 C3.0625 1.8125 3.0625 1.8125 5 4 C5 4.99 5 5.98 5 7 C4.22527344 7.74894531 3.45054687 8.49789062 2.65234375 9.26953125 C-0.38090348 12.39212302 -1.21233973 14.53631592 -2.4375 18.6875 C-2.73708618 19.69780273 -2.73708618 19.69780273 -3.04272461 20.72851562 C-5.60390955 29.65781351 -7.56115988 38.75287861 -9.59765625 47.8125 C-10.66570469 52.5612845 -11.79602078 57.2839984 -13 62 C-14.69643101 68.68798726 -16.26710275 75.40056895 -17.8125 82.125 C-18.06370605 83.2171582 -18.31491211 84.30931641 -18.57373047 85.43457031 C-19.68031303 90.24934492 -20.78559058 95.06441669 -21.88916016 99.87988281 C-22.64873258 103.19219369 -23.41242497 106.50353646 -24.17831421 109.81439209 C-24.60956276 111.68310636 -25.03690982 113.55271967 -25.46411133 115.42236328 C-31.90725047 143.24284274 -31.90725047 143.24284274 -39 148 C-42.56016059 148.93163081 -45.59028654 148.54852075 -49.04736328 147.20336914 C-54.54183855 143.81723903 -57.15931803 137.28001067 -58.7578125 131.28515625 C-59.23320433 129.21535551 -59.68831151 127.14081077 -60.125 125.0625 C-60.36871338 123.96583008 -60.61242676 122.86916016 -60.86352539 121.73925781 C-61.35381412 119.5290059 -61.8374202 117.31725982 -62.31396484 115.10400391 C-62.92738152 112.32856633 -63.59498237 109.57732339 -64.30078125 106.82421875 C-68.19519022 91.42498954 -65.80355056 78.70660593 -62.25390625 63.453125 C-62.06127197 62.61942383 -61.8686377 61.78572266 -61.67016602 60.92675781 C-61 59 -61 59 -59 58 C-53.33402854 78.49748498 -48.65067149 99.25301114 -44 120 C-42.52219003 117.26117181 -41.59838199 114.77779655 -40.96484375 111.734375 C-40.79533203 110.92613281 -40.62582031 110.11789063 -40.45117188 109.28515625 C-40.28166016 108.44855469 -40.11214844 107.61195313 -39.9375 106.75 C-39.67743164 105.51830078 -39.67743164 105.51830078 -39.41210938 104.26171875 C-38.91190107 101.84308702 -38.42206102 99.43367867 -38 97 C-37.77022461 95.81011475 -37.54044922 94.62022949 -37.30371094 93.39428711 C-36.66260359 88.00820094 -37.97995383 83.11157794 -39.23828125 77.89453125 C-39.47910934 76.85229904 -39.71993744 75.81006683 -39.96806335 74.73625183 C-40.4772162 72.54380669 -40.99278465 70.35284264 -41.5144043 68.16333008 C-42.31173317 64.81571956 -43.09018223 61.46415902 -43.86523438 58.11132812 C-44.36349352 55.97630787 -44.86280651 53.84153323 -45.36328125 51.70703125 C-45.71342033 50.20847343 -45.71342033 50.20847343 -46.07063293 48.67964172 C-46.29393784 47.74484482 -46.51724274 46.81004791 -46.74731445 45.84692383 C-46.94130325 45.02944168 -47.13529205 44.21195953 -47.3351593 43.3697052 C-48.04918766 40.82467941 -49.00298776 38.44614375 -50 36 C-51.99122927 27.83595997 -52.34607046 19.06483817 -48.16796875 11.62109375 C-46.86721449 9.81569904 -45.78164326 8.35025264 -44 7 C-42.02734375 7.09838867 -42.02734375 7.09838867 -40 8 C-36.00574687 15.75350048 -34.63867379 25.27845093 -32.8125 33.75 C-32.55275391 34.91660156 -32.29300781 36.08320312 -32.02539062 37.28515625 C-30.73336185 43.18108082 -29.61387717 48.99435825 -29 55 C-28.34 55 -27.68 55 -27 55 C-26.90460938 53.8140625 -26.80921875 52.628125 -26.7109375 51.40625 C-25.95653348 44.64043711 -24.24978772 38.09986087 -22.625 31.5 C-22.32078125 30.23285156 -22.0165625 28.96570313 -21.703125 27.66015625 C-16.70460937 7.1320643 -16.70460937 7.1320643 -11.375 1.1875 C-7.647827 -0.6760865 -4.07836691 -0.66763302 0 0 Z " fill="#EB3933" transform="translate(126,28)"/>
<path d="M0 0 C2.10083008 0.42407227 2.10083008 0.42407227 4 1 C7.19718521 11.73639924 10.24034841 22.37910727 12.29296875 33.3984375 C13.05521902 37.28128142 13.96499425 41.10310174 14.9375 44.9375 C15.10652832 45.60394531 15.27555664 46.27039063 15.44970703 46.95703125 C16.13012582 49.62453088 16.81700584 52.29034404 17.50439453 54.95605469 C19.72550761 63.59299294 21.70539156 72.24442818 23.49560547 80.98120117 C24.55415813 86.07568102 25.75587692 91.10530854 27.125 96.125 C27.61613281 97.93291016 27.61613281 97.93291016 28.1171875 99.77734375 C28.64031704 101.68699805 29.16552818 103.59608743 29.6953125 105.50390625 C31.75190302 113.59992104 32.77927804 122.72255629 28.40234375 130.18359375 C24.80030657 134.84918509 19.8955514 139.73666756 14 141 C6.64910198 141.83143012 0.38792324 140.80485963 -6 137 C-12.3591726 130.9580464 -14.5011056 124.33736241 -16.1875 115.9375 C-16.672245 113.71724421 -17.15792234 111.49719177 -17.64453125 109.27734375 C-17.87221191 108.20468262 -18.09989258 107.13202148 -18.33447266 106.02685547 C-19.48317889 100.80247545 -20.92003121 95.6571221 -22.3359375 90.5 C-24.0350733 81.54455485 -22.30683326 73.75777721 -20.125 65 C-19.85558594 63.85660156 -19.58617187 62.71320313 -19.30859375 61.53515625 C-17.78651102 55.29090468 -17.78651102 55.29090468 -17 53 C-16.01 52.505 -16.01 52.505 -15 52 C-13.64543404 56.99448901 -12.31481061 61.99492566 -11 67 C-10.81276367 67.7120459 -10.62552734 68.4240918 -10.43261719 69.15771484 C-8.17892117 77.79299052 -6.09349835 86.44820835 -4.265625 95.18359375 C-4.1147493 95.89815231 -3.9638736 96.61271088 -3.8084259 97.34892273 C-3.05182472 100.93266044 -2.30802825 104.51813117 -1.58666992 108.10913086 C-1.30705651 109.44527096 -1.02688833 110.78129512 -0.74609375 112.1171875 C-0.50560303 113.29909668 -0.2651123 114.48100586 -0.01733398 115.69873047 C1.14430764 119.46828123 2.67666766 121.84242786 5 125 C9.84535007 124.69586256 9.84535007 124.69586256 14 122.4375 C16.89288951 115.38608183 12.45643651 104.7505297 10.8125 97.625 C10.49734137 96.24673166 10.18248553 94.86839405 9.86791992 93.48999023 C9.06929031 89.99488931 8.26589328 86.5009022 7.46142578 83.00714111 C6.75193431 79.92094706 6.04816148 76.83345063 5.34375 73.74609375 C3.26177486 64.64505632 1.17253821 55.54934706 -1.125 46.5 C-9.28212245 14.07715193 -9.28212245 14.07715193 -4.16796875 4.69140625 C-2.88310199 2.83071291 -1.81422162 1.3661572 0 0 Z " fill="#182C4D" transform="translate(161,35)"/>
<path d="M0 0 C3.99849373 1.00132637 6.55089245 3.61171831 9.29296875 6.57421875 C8.55046875 7.06921875 7.80796875 7.56421875 7.04296875 8.07421875 C2.78735402 11.94295941 0.61316003 15.66877939 -0.0234375 21.4453125 C-0.16708773 28.96300802 1.18113857 35.48648502 3.13842773 42.68261719 C5.60938469 51.82484476 7.91833568 60.996712 10.06762695 70.2199707 C10.42944561 71.76168278 10.79706521 73.30204377 11.17016602 74.84106445 C11.72040358 77.11249674 12.25264036 79.38751237 12.78125 81.6640625 C12.9488533 82.34129868 13.1164566 83.01853485 13.28913879 83.71629333 C15.2344076 92.32104452 12.77702624 100.46659948 10.85546875 108.88671875 C10.63826172 109.87478516 10.42105469 110.86285156 10.19726562 111.88085938 C9.98263672 112.82767578 9.76800781 113.77449219 9.546875 114.75 C9.35424072 115.60505127 9.16160645 116.46010254 8.96313477 117.34106445 C8.29296875 119.57421875 8.29296875 119.57421875 6.29296875 122.57421875 C3.87083155 115.06471346 2.05655962 107.46923876 0.35992432 99.7666626 C-0.39370465 96.3478036 -1.16065787 92.93192641 -1.92578125 89.515625 C-2.07707489 88.8387262 -2.22836853 88.16182739 -2.38424683 87.4644165 C-3.74847117 81.3676674 -5.14768588 75.27983014 -6.58203125 69.19921875 C-6.78489746 68.32676514 -6.98776367 67.45431152 -7.19677734 66.55541992 C-7.82241279 62.75551285 -7.82241279 62.75551285 -9.70703125 59.57421875 C-9.91384521 60.53312012 -10.12065918 61.49202148 -10.33374023 62.47998047 C-11.10071745 66.03265524 -11.87123052 69.58455531 -12.64282227 73.13623047 C-12.97647274 74.67443224 -13.30915995 76.21284327 -13.64086914 77.75146484 C-14.11742985 79.96116786 -14.59743336 82.17009869 -15.078125 84.37890625 C-15.22608017 85.06854462 -15.37403534 85.75818298 -15.526474 86.46871948 C-16.59315954 91.34647534 -16.59315954 91.34647534 -17.70703125 93.57421875 C-18.36703125 93.57421875 -19.02703125 93.57421875 -19.70703125 93.57421875 C-19.82820313 94.27546875 -19.949375 94.97671875 -20.07421875 95.69921875 C-21.08007627 101.3939198 -22.23014753 106.98315894 -23.70703125 112.57421875 C-25.70703125 111.57421875 -25.70703125 111.57421875 -27.70703125 108.57421875 C-29.76628264 107.85039408 -29.76628264 107.85039408 -31.70703125 107.57421875 C-31.37703125 106.58421875 -31.04703125 105.59421875 -30.70703125 104.57421875 C-30.57546598 100.89039106 -30.53720987 98.0836829 -31.70703125 94.57421875 C-31.51364033 92.3992716 -31.23221036 90.23147811 -30.89453125 88.07421875 C-30.72308594 86.92953125 -30.55164062 85.78484375 -30.375 84.60546875 C-29.70703125 81.57421875 -29.70703125 81.57421875 -27.70703125 78.57421875 C-27.28659631 76.20000467 -27.28659631 76.20000467 -27.14453125 73.63671875 C-26.79412868 68.89555744 -26.79412868 68.89555744 -26.21337891 66.75292969 C-25.62670076 64.22857298 -25.49833012 61.83014292 -25.359375 59.2421875 C-24.78885936 51.91445346 -23.08038965 44.99369256 -21.26953125 37.88671875 C-20.64520305 35.38296958 -20.02149042 32.87906682 -19.3984375 30.375 C-18.95624878 28.61712158 -18.95624878 28.61712158 -18.50512695 26.82373047 C-17.82347762 24.04833964 -17.19332229 21.27132265 -16.59765625 18.4765625 C-14.58017124 9.22877198 -10.88060458 -0.52853858 0 0 Z " fill="#EC3932" transform="translate(75.70703125,27.42578125)"/>
<path d="M0 0 C0.66 0 1.32 0 2 0 C4.47569654 8.80979247 6.6466595 17.6207023 8.42871094 26.59692383 C9.71626209 32.97762728 11.29586952 39.27739711 12.88964844 45.58666992 C14.64841006 52.55410926 16.33922671 59.53828047 18.03710938 66.52075195 C18.63048522 68.96004907 19.22537185 71.39897475 19.8203125 73.83789062 C20.20582033 75.42185281 20.5912402 77.00583642 20.9765625 78.58984375 C21.15055573 79.30252914 21.32454895 80.01521454 21.5038147 80.74949646 C22.00922819 82.83146806 22.50646548 84.91518196 23 87 C23.18898865 87.78891632 23.37797729 88.57783264 23.57269287 89.39065552 C23.75672668 90.18156586 23.9407605 90.9724762 24.13037109 91.78735352 C24.29846283 92.50254654 24.46655457 93.21773956 24.63973999 93.9546051 C25.22223033 97.26172423 24.94276351 99.79460408 24 103 C21.55645427 105.64717455 19.95340919 106.79071506 16.4375 107.5625 C12.90159325 106.74652152 12.02321772 104.95422029 10 102 C8.98046875 99.1015625 8.98046875 99.1015625 8.1875 95.625 C7.9543811 94.62968262 7.9543811 94.62968262 7.71655273 93.61425781 C7.12859048 91.07954839 6.56436394 88.54006984 6 86 C5.3093628 82.93329356 4.61755476 79.86685353 3.92532349 76.80050659 C3.16327824 73.42252532 2.40466548 70.04384408 1.65283203 66.66357422 C0.32943936 60.73280125 -1.01535655 54.81505011 -2.5625 48.9375 C-2.91356812 47.60187012 -2.91356812 47.60187012 -3.27172852 46.23925781 C-3.69487362 44.65715752 -4.12902974 43.07792994 -4.57788086 41.50292969 C-7.39581901 30.98805636 -5.8145395 21.66417342 -3 11.3125 C-2.71382812 10.21744141 -2.42765625 9.12238281 -2.1328125 7.99414062 C-1.43374573 5.3260358 -0.72270719 2.66177929 0 0 Z " fill="#F4F7F8" transform="translate(152,54)"/>
<path d="M0 0 C2.31 0 4.62 0 7 0 C7 0.66 7 1.32 7 2 C7.66 2 8.32 2 9 2 C9 2.99 9 3.98 9 5 C8.01 5 7.02 5 6 5 C5.87625 5.721875 5.7525 6.44375 5.625 7.1875 C5 10 5 10 4 12.3125 C2.67401455 15.87608589 2.38448147 19.21926552 2 23 C1.34 23 0.68 23 0 23 C-0.04898438 23.72445312 -0.09796875 24.44890625 -0.1484375 25.1953125 C-0.22320312 26.16210938 -0.29796875 27.12890625 -0.375 28.125 C-0.44460937 29.07632813 -0.51421875 30.02765625 -0.5859375 31.0078125 C-1.02881011 34.20819379 -1.9790382 36.93711459 -3 40 C-3.63238542 42.94347934 -4.13174827 45.90542324 -4.625 48.875 C-4.7590625 49.65875 -4.893125 50.4425 -5.03125 51.25 C-5.35836422 53.16595474 -5.67976884 55.08288282 -6 57 C-6.33 57 -6.66 57 -7 57 C-7.09796875 57.680625 -7.1959375 58.36125 -7.296875 59.0625 C-8.25217136 65.25545572 -9.46208023 71.35033958 -10.9375 77.4375 C-11.09508789 78.11103516 -11.25267578 78.78457031 -11.41503906 79.47851562 C-12.40758254 83.46062393 -13.79192426 86.5597936 -16 90 C-16.70670728 92.69254991 -16.70670728 92.69254991 -17 95 C-17.66 95 -18.32 95 -19 95 C-19.268125 94.360625 -19.53625 93.72125 -19.8125 93.0625 C-20.88667752 90.66868314 -20.88667752 90.66868314 -24 90 C-24.19401633 88.18818595 -24.38004375 86.37551468 -24.5625 84.5625 C-24.66691406 83.55316406 -24.77132812 82.54382813 -24.87890625 81.50390625 C-24.91886719 80.67761719 -24.95882812 79.85132812 -25 79 C-24.505 78.505 -24.505 78.505 -24 78 C-23.74045198 76.67181219 -23.53370182 75.33318463 -23.3515625 73.9921875 C-23.23296875 73.16976562 -23.114375 72.34734375 -22.9921875 71.5 C-22.75076051 69.77405383 -22.513654 68.04749679 -22.28125 66.3203125 C-21.51157839 61.04724316 -20.22629954 56.832699 -18 52 C-17.5945897 49.67810464 -17.23927006 47.34484656 -17 45 C-16.34 45 -15.68 45 -15 45 C-15.03480469 44.3709375 -15.06960937 43.741875 -15.10546875 43.09375 C-15.27042233 37.87807475 -14.95292709 33.78142952 -12.8515625 28.984375 C-10.76080607 24.11233708 -9.6235792 19.36505441 -8.875 14.125 C-8.70742187 12.97257812 -8.53984375 11.82015625 -8.3671875 10.6328125 C-8.24601562 9.76398437 -8.12484375 8.89515625 -8 8 C-7.34 8 -6.68 8 -6 8 C-5.67 6.35 -5.34 4.7 -5 3 C-4.360625 2.87625 -3.72125 2.7525 -3.0625 2.625 C-2.381875 2.41875 -1.70125 2.2125 -1 2 C-0.67 1.34 -0.34 0.68 0 0 Z " fill="#EB3932" transform="translate(150,30)"/>
<path d="M0 0 C3.0625 1.8125 3.0625 1.8125 5 4 C5 4.99 5 5.98 5 7 C4.22527344 7.74894531 3.45054687 8.49789062 2.65234375 9.26953125 C-0.38090348 12.39212302 -1.21233973 14.53631592 -2.4375 18.6875 C-2.63722412 19.36103516 -2.83694824 20.03457031 -3.04272461 20.72851562 C-5.60243334 29.65266687 -7.55886845 38.74237461 -9.59375 47.796875 C-10.68175313 52.63470709 -11.83663127 57.44538545 -13.0625 62.25 C-15.57246698 72.12041866 -17.77393184 82.06239203 -20 92 C-20.33 92 -20.66 92 -21 92 C-20.67 85.73 -20.34 79.46 -20 73 C-18.515 72.505 -18.515 72.505 -17 72 C-17.99 68.7 -18.98 65.4 -20 62 C-20.99 62 -21.98 62 -23 62 C-23.99 64.97 -23.99 64.97 -25 68 C-25.66 68 -26.32 68 -27 68 C-27.14357809 48.08366841 -25.3912717 16.82103382 -11.375 1.1875 C-7.647827 -0.6760865 -4.07836691 -0.66763302 0 0 Z " fill="#EB3932" transform="translate(126,28)"/>
<path d="M0 0 C0.66 0 1.32 0 2 0 C2.25523438 1.14662109 2.25523438 1.14662109 2.515625 2.31640625 C3.84574661 8.19582677 5.2535726 14.02783202 6.83984375 19.84375 C8.96665769 27.74299679 10.91813776 35.67886142 12.7746582 43.64575195 C13.13647686 45.18746403 13.50409646 46.72782502 13.87719727 48.2668457 C14.42743483 50.53827799 14.95967161 52.81329362 15.48828125 55.08984375 C15.65588455 55.76707993 15.82348785 56.4443161 15.99617004 57.14207458 C17.94143885 65.74682577 15.48405749 73.89238073 13.5625 82.3125 C13.34529297 83.30056641 13.12808594 84.28863281 12.90429688 85.30664062 C12.58235352 86.72686523 12.58235352 86.72686523 12.25390625 88.17578125 C12.06127197 89.03083252 11.8686377 89.88588379 11.67016602 90.7668457 C11 93 11 93 9 96 C6.17297317 87.23634469 4.19746709 78.31376402 2.24130249 69.32458496 C0.69991063 62.25611187 -0.86632258 55.24356708 -2.9296875 48.3046875 C-6.62641567 35.73620965 -7.57741382 26.64444039 -3.63134766 14.04638672 C-2.69254021 11.00343078 -1.98376351 7.91021099 -1.25 4.8125 C-0.83718151 3.20733873 -0.42226857 1.60270118 0 0 Z " fill="#F6F7F8" transform="translate(73,54)"/>
<path d="M0 0 C2.3544473 2.3544473 2.54652798 3.58209382 3.26171875 6.79296875 C3.49028564 7.80093506 3.71885254 8.80890137 3.9543457 9.84741211 C4.19628662 10.94964111 4.43822754 12.05187012 4.6875 13.1875 C5.21612253 15.54688022 5.74476944 17.90625498 6.2734375 20.265625 C6.55155273 21.51794922 6.82966797 22.77027344 7.11621094 24.06054688 C7.86823766 27.43085785 8.64454663 30.79508589 9.4294281 34.15788269 C10.07209487 36.91148955 10.70884689 39.66644974 11.34512329 42.42153931 C11.80170981 44.39095808 12.26442896 46.35895189 12.72729492 48.3269043 C17.42640499 68.84272759 17.42640499 68.84272759 13.875 76.0625 C13.45992187 76.96097656 13.04484375 77.85945313 12.6171875 78.78515625 C10.68024644 81.43792335 9.10449663 82.07492272 6 83 C3.48523233 80.01226943 2.40937447 77.56584908 1.53515625 73.7734375 C1.29418213 72.75024414 1.05320801 71.72705078 0.80493164 70.67285156 C0.5599292 69.58456055 0.31492676 68.49626953 0.0625 67.375 C-0.3233728 65.69615723 -0.3233728 65.69615723 -0.71704102 63.98339844 C-1.23673908 61.71792322 -1.75296579 59.45164873 -2.265625 57.18457031 C-2.91225502 54.38050052 -3.59880933 51.59226632 -4.3125 48.8046875 C-8.48386418 32.22690129 -5.69818288 17.2623067 -1 1 C-0.67 0.67 -0.34 0.34 0 0 Z " fill="#1A2E4E" transform="translate(66,86)"/>
<path d="M0 0 C2.02758789 0.90283203 2.02758789 0.90283203 3.18334961 3.15307617 C3.47999512 4.13397217 3.77664062 5.11486816 4.08227539 6.12548828 C4.41195312 7.21490723 4.74163086 8.30432617 5.08129883 9.42675781 C6.60707833 15.0315175 7.92698319 20.66299385 9.15258789 26.34033203 C9.40395508 27.46503906 9.65532227 28.58974609 9.91430664 29.74853516 C10.65552437 33.12670289 11.3450583 36.51237617 12.02758789 39.90283203 C12.39303711 41.51617432 12.39303711 41.51617432 12.76586914 43.16210938 C14.48092952 51.75430201 13.29897258 58.33701989 10.77758789 66.65283203 C10.45145508 67.82587891 10.12532227 68.99892578 9.78930664 70.20751953 C8.02529567 76.36370356 8.02529567 76.36370356 7.02758789 78.90283203 C6.03758789 79.39783203 6.03758789 79.39783203 5.02758789 79.90283203 C1.73545214 66.95592425 -1.48910691 54.00542879 -4.32275391 40.94921875 C-5.24867131 36.75431058 -6.23869888 32.85268303 -7.97241211 28.90283203 C-9.96364138 20.73879201 -10.31848257 11.9676702 -6.14038086 4.52392578 C-2.78222331 -0.13706212 -2.78222331 -0.13706212 0 0 Z " fill="#182B4B" transform="translate(83.972412109375,35.09716796875)"/>
<path d="M0 0 C1.59467671 2.43891732 2.07289171 3.58347594 1.5625 6.5 C0.88104711 10.74015131 1.32620755 14.48639262 1.7421875 18.7421875 C2.14530835 23.83616918 2.06080681 28.89222761 2 34 C6.95 34 11.9 34 17 34 C17.66 32.02 18.32 30.04 19 28 C19.66 27.67 20.32 27.34 21 27 C21 28.65 21 30.3 21 32 C23.97 32.495 23.97 32.495 27 33 C26.01 36.3 25.02 39.6 24 43 C21.36 43.33 18.72 43.66 16 44 C15.608125 43.34 15.21625 42.68 14.8125 42 C13.14583333 39.70833333 13.14583333 39.70833333 10.3125 39.75 C9.549375 39.8325 8.78625 39.915 8 40 C8 40.66 8 41.32 8 42 C9.32 42 10.64 42 12 42 C12 43.32 12 44.64 12 46 C10.58344207 46.0272415 9.16672955 46.04650467 7.75 46.0625 C6.96109375 46.07410156 6.1721875 46.08570313 5.359375 46.09765625 C1.71921474 45.94698736 -0.33433435 45.60515059 -3.0625 43.125 C-4.0215625 42.073125 -4.0215625 42.073125 -5 41 C-5.515625 40.525625 -6.03125 40.05125 -6.5625 39.5625 C-11.60694657 34.0794059 -11.51853856 29.02161316 -11.5 21.875 C-11.52835938 20.87339844 -11.55671875 19.87179688 -11.5859375 18.83984375 C-11.59321262 16.12986293 -11.5423416 13.65580553 -11 11 C-8.60546875 9.046875 -8.60546875 9.046875 -6 8 C-4.66879718 6.26579168 -4.66879718 6.26579168 -3.8125 4.375 C-2 1 -2 1 0 0 Z " fill="#EC3932" transform="translate(17,127)"/>
<path d="M0 0 C1.515625 1.10546875 1.515625 1.10546875 3 3 C3.109375 5.86328125 3.109375 5.86328125 2.75 9.3125 C2.27125778 14.21582818 1.90438132 19.07846239 1.6875 24 C0.93616346 33.98044065 -0.75970974 44.34928851 -8.06640625 51.703125 C-11.54825324 54.0384244 -13.90959177 53.67055873 -18 53 C-21.2103425 52.04557385 -21.8622668 51.2065998 -23.75 48.375 C-24.1625 47.59125 -24.575 46.8075 -25 46 C-23.948125 45.62875 -22.89625 45.2575 -21.8125 44.875 C-15.81194743 41.45650338 -14.75280465 34.22570244 -13 28 C-12.1908932 24.88384545 -11.42207997 21.76339239 -10.6875 18.62890625 C-9.79424689 15.21322816 -8.4690264 12.20514852 -7 9 C-6.62691369 7.67723944 -6.26953585 6.34767923 -6 5 C-5.01 5 -4.02 5 -3 5 C-2.690625 4.360625 -2.38125 3.72125 -2.0625 3.0625 C-1 1 -1 1 0 0 Z " fill="#EB3932" transform="translate(97,123)"/>
<path d="M0 0 C1.00849549 3.20884927 1.25168427 4.50861642 -0.3125 7.5625 C-0.869375 8.366875 -1.42625 9.17125 -2 10 C-3.69632189 12.73296305 -4.14382939 14.9069805 -4.4375 18.0625 C-5 22 -5 22 -6.4921875 23.453125 C-8.48197488 25.49446128 -8.48427536 26.88299993 -8.6875 29.6875 C-8.75324219 30.49574219 -8.81898437 31.30398437 -8.88671875 32.13671875 C-8.92410156 32.75160156 -8.96148437 33.36648437 -9 34 C-10.66666667 34 -12.33333333 34 -14 34 C-14.33 34.66 -14.66 35.32 -15 36 C-16.65 35.34 -18.3 34.68 -20 34 C-20.25181347 28.46010363 -20.25181347 28.46010363 -19.05078125 26.265625 C-17.07565715 22.00699311 -17.1292541 17.15846765 -16.66015625 12.53125 C-16.00512094 9.0273925 -15.33633772 7.58644176 -13 5 C-12.67 4.34 -12.34 3.68 -12 3 C-7.97444744 -0.07836372 -4.99184736 -0.29363808 0 0 Z " fill="#EB3932" transform="translate(79,30)"/>
<path d="M0 0 C0.76183594 -0.00515625 1.52367187 -0.0103125 2.30859375 -0.015625 C4.83433914 0.2820365 6.4152773 0.89821526 8.5625 2.25 C10.3125 4.875 10.3125 4.875 11.5625 7.25 C10.82 7.58 10.0775 7.91 9.3125 8.25 C5.04983719 11.35011841 3.13992223 15.41581923 2.09375 20.55078125 C1.85171726 22.44334278 1.6984376 24.34687364 1.5625 26.25 C0.9025 26.25 0.2425 26.25 -0.4375 26.25 C-0.60185547 27.34054688 -0.60185547 27.34054688 -0.76953125 28.453125 C-1.62176611 33.85754122 -2.61011377 39.14366861 -4 44.4375 C-4.9222438 47.96129721 -5.62882168 51.30895481 -5.9375 54.9375 C-6.34263015 59.64390553 -7.78257173 63.8472663 -9.4375 68.25 C-9.7675 68.25 -10.0975 68.25 -10.4375 68.25 C-10.4375 63.96 -10.4375 59.67 -10.4375 55.25 C-9.7775 55.25 -9.1175 55.25 -8.4375 55.25 C-8.23253906 53.96222656 -8.02757812 52.67445312 -7.81640625 51.34765625 C-7.54448348 49.66923637 -7.27233649 47.9908528 -7 46.3125 C-6.86529297 45.46236328 -6.73058594 44.61222656 -6.59179688 43.73632812 C-6.45966797 42.92744141 -6.32753906 42.11855469 -6.19140625 41.28515625 C-6.07095947 40.5362915 -5.9505127 39.78742676 -5.82641602 39.01586914 C-5.4375 37.25 -5.4375 37.25 -4.4375 36.25 C-4.04295777 34.40400312 -3.69573134 32.54774178 -3.375 30.6875 C-3.19839844 29.67558594 -3.02179688 28.66367187 -2.83984375 27.62109375 C-2.70707031 26.83863281 -2.57429688 26.05617188 -2.4375 25.25 C-1.7775 25.25 -1.1175 25.25 -0.4375 25.25 C-0.52 24.13625 -0.6025 23.0225 -0.6875 21.875 C-0.72606681 16.49492994 1.35105221 12.06779697 3.5625 7.25 C4.5525 7.25 5.5425 7.25 6.5625 7.25 C6.5625 6.26 6.5625 5.27 6.5625 4.25 C5.9025 4.25 5.2425 4.25 4.5625 4.25 C4.5625 3.59 4.5625 2.93 4.5625 2.25 C2.2525 2.25 -0.0575 2.25 -2.4375 2.25 C-2.7675 3.24 -3.0975 4.23 -3.4375 5.25 C-5.5 5.9375 -5.5 5.9375 -7.4375 6.25 C-7.7675 7.57 -8.0975 8.89 -8.4375 10.25 C-9.0975 10.25 -9.7575 10.25 -10.4375 10.25 C-10.48648438 11.11882813 -10.53546875 11.98765625 -10.5859375 12.8828125 C-10.66070312 14.03523438 -10.73546875 15.18765625 -10.8125 16.375 C-10.88210937 17.51195313 -10.95171875 18.64890625 -11.0234375 19.8203125 C-11.59435863 24.54926303 -13.15926612 28.64391774 -15 33 C-16.78319979 37.64712671 -17.14410904 42.31293837 -17.4375 47.25 C-18.0975 47.25 -18.7575 47.25 -19.4375 47.25 C-19.375625 48.260625 -19.31375 49.27125 -19.25 50.3125 C-19.42661576 54.02143102 -20.1967636 55.94863596 -21.68237305 59.24487305 C-23.06379196 62.91302485 -23.43678743 66.75529543 -23.9375 70.625 C-24.6925516 76.40440732 -25.74231262 81.69342188 -27.7668457 87.17407227 C-28.83996833 90.49579113 -29.12218975 93.78158725 -29.4375 97.25 C-30.9225 97.745 -30.9225 97.745 -32.4375 98.25 C-31.76841803 91.95621796 -30.56049254 85.91083729 -29.125 79.75 C-28.92455078 78.87085937 -28.72410156 77.99171875 -28.51757812 77.0859375 C-27.25963705 71.6179831 -25.91892088 66.17364723 -24.54296875 60.734375 C-23.03697518 54.77377892 -21.63705824 48.7950644 -20.2890625 42.796875 C-19.73360177 40.35332028 -19.17698789 37.91003063 -18.62011719 35.46679688 C-18.24700465 33.81621497 -17.87887351 32.16449947 -17.515625 30.51171875 C-10.77261122 -0.07266517 -10.77261122 -0.07266517 0 0 Z " fill="#CA4D4C" transform="translate(152.4375,27.75)"/>
<path d="M0 0 C4.75 -0.125 4.75 -0.125 7 1 C7.42520457 8.93715204 5.95668785 16.32206191 4.38916016 24.05371094 C3.82750296 26.86270165 3.31882947 29.68058269 2.8125 32.5 C2.65394531 33.3765625 2.49539062 34.253125 2.33203125 35.15625 C2.22246094 35.7646875 2.11289062 36.373125 2 37 C-0.73962659 37.76100739 -2.49787174 38.14594731 -5.2578125 37.34375 C-7 36 -7 36 -7.6796875 33.90625 C-7.74414062 33.1121875 -7.80859375 32.318125 -7.875 31.5 C-7.95492188 30.7059375 -8.03484375 29.911875 -8.1171875 29.09375 C-8 27 -8 27 -6 25 C-5.64997176 21.75226959 -5.55677761 18.52561186 -5.44140625 15.26171875 C-4.96467054 11.73893717 -3.94183347 9.92753574 -2 7 C-1.27833809 4.68308546 -0.59940471 2.35151077 0 0 Z " fill="#EE3831" transform="translate(27,66)"/>
<path d="M0 0 C3.99849373 1.00132637 6.55089245 3.61171831 9.29296875 6.57421875 C8.55046875 7.06921875 7.80796875 7.56421875 7.04296875 8.07421875 C1.383265 13.21940398 -0.17542008 19.13166233 -0.70703125 26.57421875 C-1.36703125 26.57421875 -2.02703125 26.57421875 -2.70703125 26.57421875 C-2.81917969 27.84136719 -2.93132812 29.10851562 -3.046875 30.4140625 C-3.6441993 35.78998122 -4.90109507 40.91212907 -6.26953125 46.13671875 C-6.50349609 47.05001953 -6.73746094 47.96332031 -6.97851562 48.90429688 C-7.5492675 51.12906439 -8.12550603 53.35224772 -8.70703125 55.57421875 C-9.03703125 55.57421875 -9.36703125 55.57421875 -9.70703125 55.57421875 C-10.0164967 49.33906298 -9.96783911 44.2981875 -7.43359375 38.5546875 C-6.35160659 35.60539993 -6.19777471 32.67331129 -6.015625 29.5546875 C-5.70703125 27.57421875 -5.70703125 27.57421875 -3.70703125 24.57421875 C-3.04703125 24.57421875 -2.38703125 24.57421875 -1.70703125 24.57421875 C-1.78953125 23.41921875 -1.87203125 22.26421875 -1.95703125 21.07421875 C-1.97968068 16.80857554 -0.71414278 14.07900867 1.3359375 10.40625 C2.49840912 8.18094718 2.98259375 6.05721877 3.29296875 3.57421875 C-0.12359149 3.40744593 -0.12359149 3.40744593 -3.70703125 3.57421875 C-4.36703125 4.23421875 -5.02703125 4.89421875 -5.70703125 5.57421875 C-6.69703125 5.57421875 -7.68703125 5.57421875 -8.70703125 5.57421875 C-8.70703125 6.89421875 -8.70703125 8.21421875 -8.70703125 9.57421875 C-9.69703125 9.57421875 -10.68703125 9.57421875 -11.70703125 9.57421875 C-11.75601563 10.35925781 -11.805 11.14429688 -11.85546875 11.953125 C-12.26988051 17.77632467 -12.91333562 22.99383235 -14.70703125 28.57421875 C-15.15406414 30.34266964 -15.59026456 32.11387159 -16.01953125 33.88671875 C-17.37280688 39.34840039 -18.83301561 44.77613486 -20.33203125 50.19921875 C-20.65941284 51.39091675 -20.65941284 51.39091675 -20.9934082 52.60668945 C-22.58596322 58.33208269 -22.58596322 58.33208269 -23.70703125 60.57421875 C-24.36703125 60.57421875 -25.02703125 60.57421875 -25.70703125 60.57421875 C-24.04948281 50.69207279 -21.95992918 40.90946347 -19.72683716 31.1428833 C-19.42472793 29.81755423 -19.12573768 28.49150987 -18.83004761 27.16473389 C-12.62055985 -0.61305902 -12.62055985 -0.61305902 0 0 Z " fill="#DA4644" transform="translate(75.70703125,27.42578125)"/>
<path d="M0 0 C2.2725031 4.02628266 1.96340737 6.47837559 1.25 11.0625 C1.06953125 12.29097656 0.8890625 13.51945312 0.703125 14.78515625 C0 18 0 18 -2 21 C-2.44703234 23.21584546 -2.81463242 25.44841961 -3.125 27.6875 C-3.29257812 28.86699219 -3.46015625 30.04648438 -3.6328125 31.26171875 C-3.75398438 32.16535156 -3.87515625 33.06898437 -4 34 C-4.66 34 -5.32 34 -6 34 C-5.979375 34.969375 -5.95875 35.93875 -5.9375 36.9375 C-6 40 -6 40 -7 41 C-7.24492203 43.74403381 -7.38385297 46.4869967 -7.5234375 49.23828125 C-8 52 -8 52 -9.47265625 53.953125 C-11.53366545 56.7151936 -11.65777811 59.03862201 -12.0625 62.4375 C-12.57256037 66.62971043 -13.26126131 70.14014439 -15 74 C-16.74991334 74.02715383 -18.49994945 74.04646551 -20.25 74.0625 C-21.22453125 74.07410156 -22.1990625 74.08570313 -23.203125 74.09765625 C-25.65758678 74.01195577 -27.66168914 73.70706066 -30 73 C-32.18408281 66.44775157 -30.94418934 59.30856472 -29.6875 52.6875 C-29.51057617 51.6346582 -29.51057617 51.6346582 -29.33007812 50.56054688 C-28.64349594 46.86708681 -28.12169681 44.28224893 -25 42 C-25.93123515 47.30011497 -26.87425627 52.57724411 -28.125 57.8125 C-28.89757579 61.30155195 -29.50005309 64.41628617 -29 68 C-27.58333333 70.58333333 -27.58333333 70.58333333 -25 72 C-21.37542227 71.80923275 -18.43470709 71.14490236 -15 70 C-14.88785156 68.74960938 -14.77570312 67.49921875 -14.66015625 66.2109375 C-14.02876261 60.56902356 -12.76009163 55.13940263 -11.4375 49.625 C-10.90173717 47.34910104 -10.36661864 45.07305034 -9.83203125 42.796875 C-9.54150879 41.56517578 -9.25098633 40.33347656 -8.95166016 39.06445312 C-7.32491558 32.14004281 -5.75170783 25.20320936 -4.17068481 18.26824951 C-3.45744115 15.14012499 -2.74290321 12.01229669 -2.02839661 8.88446045 C-1.35195526 5.92304417 -0.67596119 2.96152591 0 0 Z " fill="#D35552" transform="translate(49,88)"/>
<path d="M0 0 C4.61178476 4.61178476 5.16864956 13.85254152 5.375 20.1875 C5.25125 21.445625 5.1275 22.70375 5 24 C4.01 24.66 3.02 25.32 2 26 C2 25.01 2 24.02 2 23 C1.34 23 0.68 23 0 23 C-0.33 24.32 -0.66 25.64 -1 27 C-1.66 27 -2.32 27 -3 27 C-2.67 27.99 -2.34 28.98 -2 30 C-2.66 30 -3.32 30 -4 30 C-4.33 31.32 -4.66 32.64 -5 34 C-5.66 34 -6.32 34 -7 34 C-6.49306223 26.26163274 -5.28572863 18.91587689 -3.5 11.375 C-3.27441406 10.38371094 -3.04882812 9.39242187 -2.81640625 8.37109375 C-1.14008092 1.14008092 -1.14008092 1.14008092 0 0 Z " fill="#22273E" transform="translate(66,86)"/>
<path d="M0 0 C2.58926331 2.58926331 2.37398043 4.02705279 2.625 7.625 C2.69976562 8.62789062 2.77453125 9.63078125 2.8515625 10.6640625 C2.92503906 11.82035156 2.92503906 11.82035156 3 13 C2.01 13.33 1.02 13.66 0 14 C-0.94977103 21.77950388 -0.94977103 21.77950388 -0.4375 29.5625 C-0.293125 30.696875 -0.14875 31.83125 0 33 C-0.66 33.66 -1.32 34.32 -2 35 C-2 35.66 -2 36.32 -2 37 C-5 36 -5 36 -6.20117188 34.22241211 C-8.71706132 27.22298006 -5.216476 17.88677567 -3.5 10.9375 C-3.27441406 9.98939453 -3.04882812 9.04128906 -2.81640625 8.06445312 C-1.13822286 1.13822286 -1.13822286 1.13822286 0 0 Z " fill="#0E213B" transform="translate(145,87)"/>
<path d="M0 0 C3.0625 1.8125 3.0625 1.8125 5 4 C5 4.99 5 5.98 5 7 C4.236875 7.721875 3.47375 8.44375 2.6875 9.1875 C-0.64207372 12.67193761 -1.53507149 15.45101148 -3 20 C-4.09907991 17.22268429 -4.04864084 16.13314237 -3.00390625 13.2734375 C-2.52824219 12.31695312 -2.05257812 11.36046875 -1.5625 10.375 C0.35108105 6.84031226 0.35108105 6.84031226 1 3 C-1.64 3 -4.28 3 -7 3 C-7.33 4.65 -7.66 6.3 -8 8 C-8.99 8.33 -9.98 8.66 -11 9 C-11.020625 10.2375 -11.04125 11.475 -11.0625 12.75 C-11.36984203 15.4584516 -11.54758015 16.60413263 -13.625 18.421875 C-15.5625 19.5 -15.5625 19.5 -19 21 C-18.63498977 13.33478511 -16.9669411 6.63089857 -11.109375 1.26953125 C-7.53809112 -0.87985257 -4.03345653 -0.66028114 0 0 Z " fill="#E2403D" transform="translate(126,28)"/>
<path d="M0 0 C1.65 0.99 3.3 1.98 5 3 C5.33 2.01 5.66 1.02 6 0 C7.32 0 8.64 0 10 0 C10 0.66 10 1.32 10 2 C9.01 2 8.02 2 7 2 C7.04125 3.2375 7.0825 4.475 7.125 5.75 C7.13658291 9.01637962 6.8568702 11.2146947 5 14 C2.23723823 13.47731534 -0.3260876 12.89130413 -3 12 C-3 12.66 -3 13.32 -3 14 C-5.375 14.625 -5.375 14.625 -8 15 C-8.66 14.34 -9.32 13.68 -10 13 C-9.67 12.01 -9.34 11.02 -9 10 C-8.01 10 -7.02 10 -6 10 C-6 9.34 -6 8.68 -6 8 C-5.34 8 -4.68 8 -4 8 C-3.8453125 6.576875 -3.8453125 6.576875 -3.6875 5.125 C-3 2 -3 2 0 0 Z " fill="#ED3831" transform="translate(117,157)"/>
<path d="M0 0 C1.28583984 -0.02900391 1.28583984 -0.02900391 2.59765625 -0.05859375 C4.9375 0.4375 4.9375 0.4375 6.74609375 2.46484375 C7.13925781 3.11582031 7.53242187 3.76679688 7.9375 4.4375 C6.9475 4.4375 5.9575 4.4375 4.9375 4.4375 C4.9375 3.7775 4.9375 3.1175 4.9375 2.4375 C2.2975 2.7675 -0.3425 3.0975 -3.0625 3.4375 C-3.3925 5.4175 -3.7225 7.3975 -4.0625 9.4375 C-4.7225 9.4375 -5.3825 9.4375 -6.0625 9.4375 C-6.3925 10.4275 -6.7225 11.4175 -7.0625 12.4375 C-10.125 13.625 -10.125 13.625 -13.0625 14.4375 C-12.7325 17.0775 -12.4025 19.7175 -12.0625 22.4375 C-12.7225 22.4375 -13.3825 22.4375 -14.0625 22.4375 C-14.0625 25.0775 -14.0625 27.7175 -14.0625 30.4375 C-14.7225 30.4375 -15.3825 30.4375 -16.0625 30.4375 C-16.35253906 31.91863281 -16.35253906 31.91863281 -16.6484375 33.4296875 C-17.03902344 35.35167969 -17.03902344 35.35167969 -17.4375 37.3125 C-17.69273438 38.58867188 -17.94796875 39.86484375 -18.2109375 41.1796875 C-19.0625 44.4375 -19.0625 44.4375 -21.0625 46.4375 C-20.35747665 39.50477038 -18.91377198 32.8396006 -17.3125 26.0625 C-17.07273437 24.99 -16.83296875 23.9175 -16.5859375 22.8125 C-11.20595449 0.01690189 -11.20595449 0.01690189 0 0 Z " fill="#EB393A" transform="translate(43.0625,27.5625)"/>
<path d="M0 0 C0.33 0 0.66 0 1 0 C1.19498157 5.55697486 0.57419104 9.62923057 -1 15 C-1.44437615 18.32549622 -1.74425494 21.6551238 -2 25 C-2.66 25 -3.32 25 -4 25 C-3.938125 26.010625 -3.87625 27.02125 -3.8125 28.0625 C-3.98911576 31.77143102 -4.7592636 33.69863596 -6.24487305 36.99487305 C-7.62629196 40.66302485 -7.99928743 44.50529543 -8.5 48.375 C-9.2550516 54.15440732 -10.30481262 59.44342188 -12.3293457 64.92407227 C-13.40246833 68.24579113 -13.68468975 71.53158725 -14 75 C-15.485 75.495 -15.485 75.495 -17 76 C-16.33094233 69.70644651 -15.12412204 63.66033879 -13.6875 57.5 C-13.46239746 56.52224609 -13.23729492 55.54449219 -13.00537109 54.53710938 C-11.47517667 47.93048683 -9.85040046 41.35364148 -8.1796875 34.78125 C-5.29152794 23.22861177 -2.68717248 11.6006097 0 0 Z " fill="#D55754" transform="translate(137,50)"/>
<path d="M0 0 C1.22313941 4.16803387 0.74585555 7.87845915 0.1875 12.125 C0.10435547 12.85332031 0.02121094 13.58164063 -0.06445312 14.33203125 C-0.7505291 19.7505291 -0.7505291 19.7505291 -3 22 C-3.40047444 24.32275177 -3.7397104 26.65739357 -4 29 C-4.66 29 -5.32 29 -6 29 C-6 29.66 -6 30.32 -6 31 C-6.99 31 -7.98 31 -9 31 C-8.67 32.32 -8.34 33.64 -8 35 C-6.35 35 -4.7 35 -3 35 C-3 34.34 -3 33.68 -3 33 C-0.07120629 33.62759865 2.36095629 34.58622659 5 36 C2.15695013 38.84304987 -0.00266064 40.32780773 -4 40.5625 C-7.54719287 40.40798213 -8.05603716 39.95330237 -11 37.5 C-11.66 36.675 -12.32 35.85 -13 35 C-12.67 34.01 -12.34 33.02 -12 32 C-11.34 32 -10.68 32 -10 32 C-6.2733196 24.83330693 -4.09009547 17.91936458 -2.3125 10.0625 C-1.97508789 8.6074707 -1.97508789 8.6074707 -1.63085938 7.12304688 C-1.08142797 4.74997081 -0.53797158 2.37569528 0 0 Z " fill="#D2514F" transform="translate(117,136)"/>
<path d="M0 0 C2.1875 0.3125 2.1875 0.3125 4 1 C3.67 3.31 3.34 5.62 3 8 C2.34 8 1.68 8 1 8 C1 8.66 1 9.32 1 10 C1.66 10 2.32 10 3 10 C2 13 2 13 -0.0625 14.1875 C-0.701875 14.455625 -1.34125 14.72375 -2 15 C-2 14.34 -2 13.68 -2 13 C-2.66 13 -3.32 13 -4 13 C-4 15.64 -4 18.28 -4 21 C-3.34 21.33 -2.68 21.66 -2 22 C-2.99 24.475 -2.99 24.475 -4 27 C-7.71852067 22.85735098 -7.49044812 19.41822559 -7.359375 14.05078125 C-6.69550921 8.41513793 -4.36876632 3.68614659 0 0 Z " fill="#17202F" transform="translate(82,35)"/>
<path d="M0 0 C1.00542732 3.16513393 0.95362602 5.34973049 0.29296875 8.58984375 C0.11830078 9.45673828 -0.05636719 10.32363281 -0.23632812 11.21679688 C-0.42646484 12.11462891 -0.61660156 13.01246094 -0.8125 13.9375 C-0.99103516 14.83146484 -1.16957031 15.72542969 -1.35351562 16.64648438 C-2.72532326 23.31733235 -2.72532326 23.31733235 -3.97485352 26.42285156 C-5.09545657 29.23997131 -5.81185737 32.00678669 -6.5078125 34.95703125 C-6.77207031 36.06884766 -7.03632813 37.18066406 -7.30859375 38.32617188 C-7.71271484 40.0519043 -7.71271484 40.0519043 -8.125 41.8125 C-8.54072266 43.56723633 -8.54072266 43.56723633 -8.96484375 45.35742188 C-9.64665593 48.23749058 -10.32491553 51.11834827 -11 54 C-11.33 54 -11.66 54 -12 54 C-12 47.07 -12 40.14 -12 33 C-11.67 33.99 -11.34 34.98 -11 36 C-9.30456957 33.28731131 -8.95030431 31.50304314 -8.625 28.25 C-8.30732867 25.15837721 -7.6372487 23.02194559 -6.125 20.3125 C-3.61446303 15.72962887 -2.67985998 10.93810372 -1.61328125 5.85546875 C-1 3 -1 3 0 0 Z " fill="#CB4448" transform="translate(141,96)"/>
<path d="M0 0 C1.36176066 6.65749656 1.36176066 6.65749656 0 10 C-0.99 10.495 -0.99 10.495 -2 11 C-2.26140296 12.99319761 -2.51730424 14.98774473 -2.71484375 16.98828125 C-3.04185546 19.29528168 -3.76711723 21.02738757 -5 23 C-7 21.5 -7 21.5 -9 19 C-9.83849216 12.71130878 -8.49395085 8.27013991 -5 3 C-2.37923251 0 -2.37923251 0 0 0 Z " fill="#0D1C36" transform="translate(163,35)"/>
<path d="M0 0 C0.66 0 1.32 0 2 0 C1.47632052 7.11361786 0.2723871 13.8387563 -1.43359375 20.7578125 C-1.67159195 21.7457077 -1.90959015 22.73360291 -2.15480042 23.75143433 C-2.90948163 26.87750082 -3.67334961 30.00123631 -4.4375 33.125 C-4.94656728 35.22771851 -5.45503601 37.33058202 -5.96289062 39.43359375 C-7.94557107 47.62989396 -9.94661932 55.82110832 -12 64 C-12.85099076 60.88337324 -12.99995482 58.72676101 -12.4765625 55.5234375 C-12.3425 54.688125 -12.2084375 53.8528125 -12.0703125 52.9921875 C-11.92335938 52.12851563 -11.77640625 51.26484375 -11.625 50.375 C-11.48578125 49.50359375 -11.3465625 48.6321875 -11.203125 47.734375 C-10.14602535 41.29205069 -10.14602535 41.29205069 -9 39 C-8.34 39 -7.68 39 -7 39 C-6.9175 37.72125 -6.835 36.4425 -6.75 35.125 C-6.17425029 29.18969788 -4.84830019 23.47412946 -3.45996094 17.68603516 C-2.37570362 13.07642158 -1.65368125 8.56986236 -1.24609375 3.84985352 C-1 2 -1 2 0 0 Z " fill="#CE5451" transform="translate(37,64)"/>
<path d="M0 0 C0.33 0 0.66 0 1 0 C1.03738281 1.09699219 1.07476562 2.19398438 1.11328125 3.32421875 C1.17896653 4.77867857 1.24541299 6.23310416 1.3125 7.6875 C1.33505859 8.40873047 1.35761719 9.12996094 1.38085938 9.87304688 C1.60935395 14.42216612 2.34596963 17.16481939 5 21 C5 21.66 5 22.32 5 23 C5.804375 23.268125 6.60875 23.53625 7.4375 23.8125 C8.283125 24.204375 9.12875 24.59625 10 25 C10.33 25.99 10.66 26.98 11 28 C17.67035373 29.13537936 24.40924767 29.87457064 31 28 C31.495 28.99 31.495 28.99 32 30 C25.49129641 32.94888917 19.07552261 32.87139807 12.25 30.9375 C5.7921573 27.08763224 1.48024115 22.75831651 -0.57421875 15.41015625 C-1.49653428 10.18934267 -1.68325112 5.04975335 0 0 Z " fill="#D25450" transform="translate(5,144)"/>
<path d="M0 0 C0.99 0 1.98 0 3 0 C1.98696659 9.11730066 0.54827641 17.78115537 -6.03125 24.59765625 C-9.50945508 27.07518725 -11.84238888 26.68157559 -16 26 C-19.2103425 25.04557385 -19.8622668 24.2065998 -21.75 21.375 C-22.36875 20.199375 -22.36875 20.199375 -23 19 C-21.35 18.34 -19.7 17.68 -18 17 C-18 18.65 -18 20.3 -18 22 C-13.94643239 22.97285623 -11.68934429 23.29736421 -7.8125 21.625 C-1.49233786 15.72618201 -0.34859198 8.34877795 0 0 Z " fill="#D74F49" transform="translate(95,150)"/>
<path d="M0 0 C0.66 0 1.32 0 2 0 C2.33591896 2.27045229 2.66865065 4.54137633 3 6.8125 C3.185625 8.07707031 3.37125 9.34164062 3.5625 10.64453125 C4 14 4 14 4 17 C3.34 17 2.68 17 2 17 C2 17.66 2 18.32 2 19 C1.01 19 0.02 19 -1 19 C-1.99 21.475 -1.99 21.475 -3 24 C-3.66 24 -4.32 24 -5 24 C-4.39496146 18.3444819 -3.37814297 12.99786009 -1.9375 7.5 C-1.75123047 6.77296875 -1.56496094 6.0459375 -1.37304688 5.296875 C-0.91973545 3.53012276 -0.4604998 1.76489225 0 0 Z " fill="#FAF8F7" transform="translate(73,54)"/>
<path d="M0 0 C0.7734375 -0.01675781 1.546875 -0.03351562 2.34375 -0.05078125 C5.00173692 0.39703176 5.90962905 1.16783038 7.5 3.3125 C7.1875 5.5 7.1875 5.5 6.5 7.3125 C6.5 6.3225 6.5 5.3325 6.5 4.3125 C5.84 4.3125 5.18 4.3125 4.5 4.3125 C4.5 3.6525 4.5 2.9925 4.5 2.3125 C2.19 2.3125 -0.12 2.3125 -2.5 2.3125 C-2.83 3.3025 -3.16 4.2925 -3.5 5.3125 C-5.5625 6 -5.5625 6 -7.5 6.3125 C-7.83 7.6325 -8.16 8.9525 -8.5 10.3125 C-9.16 10.3125 -9.82 10.3125 -10.5 10.3125 C-10.54898438 11.18132813 -10.59796875 12.05015625 -10.6484375 12.9453125 C-10.72320312 14.09773438 -10.79796875 15.25015625 -10.875 16.4375 C-10.94460937 17.57445313 -11.01421875 18.71140625 -11.0859375 19.8828125 C-11.49443876 23.26643616 -12.30967569 26.12862441 -13.5 29.3125 C-13.83 29.3125 -14.16 29.3125 -14.5 29.3125 C-15.20153967 19.23761081 -13.18108248 10.75541854 -7.5 2.3125 C-4.40219052 0.24729368 -3.5459519 0.01772976 0 0 Z " fill="#D14F4B" transform="translate(152.5,27.6875)"/>
<path d="M0 0 C0.33 0 0.66 0 1 0 C1.05441656 1.89551022 1.09298035 3.7914792 1.125 5.6875 C1.14820312 6.74324219 1.17140625 7.79898438 1.1953125 8.88671875 C0.99232112 12.12240129 0.22188275 14.02219483 -1 17 C-1.77182898 20.27117316 -2.38097725 23.57193327 -3 26.875 C-4.0969881 32.67703863 -5.27552748 38.3492731 -7 44 C-7.66 44 -8.32 44 -9 44 C-10.09600318 39.11780403 -9.90697101 36.55025348 -7.84838867 32.05395508 C-6.22663339 28.12767387 -5.31922222 23.99313257 -4.3125 19.875 C-4.08755859 18.99457031 -3.86261719 18.11414063 -3.63085938 17.20703125 C-3.41880859 16.35238281 -3.20675781 15.49773437 -2.98828125 14.6171875 C-2.79790283 13.85003418 -2.60752441 13.08288086 -2.41137695 12.29248047 C-1.9674663 9.81869942 -1.92994642 7.50808447 -2 5 C-1.34 5 -0.68 5 0 5 C0 3.35 0 1.7 0 0 Z " fill="#B53F49" transform="translate(99,78)"/>
<path d="M0 0 C1.23846444 3.71539331 0.61752662 5.40089851 -0.328125 9.1796875 C-0.63363281 10.41976562 -0.93914063 11.65984375 -1.25390625 12.9375 C-1.58563822 14.25007567 -1.91767071 15.56257543 -2.25 16.875 C-2.88083282 19.41390742 -3.51104513 21.9529691 -4.140625 24.4921875 C-4.45064453 25.73452148 -4.76066406 26.97685547 -5.08007812 28.25683594 C-6.44823052 33.82385095 -7.73194277 39.40944972 -9 45 C-9.33 45 -9.66 45 -10 45 C-10.26800338 37.03434384 -9.98346843 29.73828569 -6.875 22.3125 C-5.82474689 19.9877437 -5.82474689 19.9877437 -6.09765625 17.28125 C-5.98359068 13.44864682 -4.99339593 10.73433836 -3.5625 7.1875 C-3.11003906 6.04667969 -2.65757813 4.90585937 -2.19140625 3.73046875 C-1 1 -1 1 0 0 Z " fill="#FCDBD3" transform="translate(58,48)"/>
<path d="M0 0 C0.33 0 0.66 0 1 0 C0.88608368 2.60508636 0.75934452 5.20845546 0.625 7.8125 C0.57859375 8.91948242 0.57859375 8.91948242 0.53125 10.04882812 C0.32653852 13.81893115 0.13566173 15.79650741 -2 19 C-2.67972786 21.72747943 -3.29719294 24.43894881 -3.875 27.1875 C-5.23140605 33.29197005 -6.65066156 38.6410585 -10 44 C-10.99 44.495 -10.99 44.495 -12 45 C-11.79503906 44.41992188 -11.59007813 43.83984375 -11.37890625 43.2421875 C-9.85669391 38.82850003 -8.64744864 34.64004856 -8 30 C-7.55043808 27.81641352 -7.07072983 26.13407529 -6.02954102 24.16040039 C-4.96900444 21.93495856 -4.44595316 19.97134071 -3.96484375 17.55859375 C-3.79533203 16.72779297 -3.62582031 15.89699219 -3.45117188 15.04101562 C-3.28166016 14.18185547 -3.11214844 13.32269531 -2.9375 12.4375 C-2.59397883 10.72755632 -2.24898772 9.01790711 -1.90234375 7.30859375 C-1.75273193 6.55376709 -1.60312012 5.79894043 -1.44897461 5.02124023 C-1 3 -1 3 0 0 Z " fill="#BF4D52" transform="translate(89,122)"/>
<path d="M0 0 C0.66 0 1.32 0 2 0 C3.28066379 3.84199138 2.3487824 5.23826875 1 9 C0.49104692 11.13373917 0.01312121 13.27505954 -0.4375 15.421875 C-0.69273438 16.61167969 -0.94796875 17.80148438 -1.2109375 19.02734375 C-1.7401491 21.52406978 -2.26615385 24.02147754 -2.7890625 26.51953125 C-3.04429688 27.70417969 -3.29953125 28.88882813 -3.5625 30.109375 C-3.79066406 31.19186523 -4.01882812 32.27435547 -4.25390625 33.38964844 C-5 36 -5 36 -7 38 C-7.05472088 36.60461746 -7.09311538 35.20859103 -7.125 33.8125 C-7.14820313 33.03519531 -7.17140625 32.25789063 -7.1953125 31.45703125 C-6.97200719 28.64785045 -6.05232672 26.60248491 -5 24 C-4.69510343 21.54622308 -4.69510343 21.54622308 -4.625 19 C-4.14312676 12.33560219 -2.15113295 6.29331454 0 0 Z " fill="#BA424B" transform="translate(64,83)"/>
<path d="M0 0 C1.32 0 2.64 0 4 0 C2.60485497 4.43909781 0.52304189 6.98024981 -3 10 C-5.0625 10.75 -5.0625 10.75 -7 11 C-7.90298828 11.25330078 -7.90298828 11.25330078 -8.82421875 11.51171875 C-11.20302354 12.04556184 -13.31541893 12.09830266 -15.75 12.0625 C-16.54921875 12.05347656 -17.3484375 12.04445312 -18.171875 12.03515625 C-18.77515625 12.02355469 -19.3784375 12.01195312 -20 12 C-20 11.67 -20 11.34 -20 11 C-18.02 11 -16.04 11 -14 11 C-14 9.68 -14 8.36 -14 7 C-15.32 7 -16.64 7 -18 7 C-18 6.34 -18 5.68 -18 5 C-16.02 4.67 -14.04 4.34 -12 4 C-11.34 5.65 -10.68 7.3 -10 9 C-7.36 8.67 -4.72 8.34 -2 8 C-1.7834375 6.576875 -1.7834375 6.576875 -1.5625 5.125 C-1 2 -1 2 0 0 Z " fill="#E63B36" transform="translate(43,162)"/>
<path d="M0 0 C0.66 0.66 1.32 1.32 2 2 C2.99 2 3.98 2 5 2 C5.66 2.66 6.32 3.32 7 4 C7.99 4.33 8.98 4.66 10 5 C10.33 6.98 10.66 8.96 11 11 C11.66 11 12.32 11 13 11 C12.67 9.68 12.34 8.36 12 7 C12.66 6.67 13.32 6.34 14 6 C14.125 11.75 14.125 11.75 13 14 C11.68 14 10.36 14 9 14 C8.67 13.01 8.34 12.02 8 11 C8.66 11 9.32 11 10 11 C10 10.01 10 9.02 10 8 C9.34 8 8.68 8 8 8 C7.67 8.66 7.34 9.32 7 10 C6.01 9.67 5.02 9.34 4 9 C3.67 8.34 3.34 7.68 3 7 C3 7.99 3 8.98 3 10 C2.34 10 1.68 10 1 10 C0.67 10.66 0.34 11.32 0 12 C0 8.04 0 4.08 0 0 Z " fill="#102546" transform="translate(177,147)"/>
<path d="M0 0 C0.98120464 3.05263664 0.98120464 4.94736336 0 8 C-0.66 8 -1.32 8 -2 8 C-1.67 10.64 -1.34 13.28 -1 16 C-1.66 16 -2.32 16 -3 16 C-3 18.64 -3 21.28 -3 24 C-3.66 24 -4.32 24 -5 24 C-5.29003906 25.48113281 -5.29003906 25.48113281 -5.5859375 26.9921875 C-5.84632812 28.27351563 -6.10671875 29.55484375 -6.375 30.875 C-6.63023438 32.15117188 -6.88546875 33.42734375 -7.1484375 34.7421875 C-8 38 -8 38 -10 40 C-9.30155687 32.99001586 -7.77796016 26.27914242 -6.125 19.4375 C-5.74021484 17.79104492 -5.74021484 17.79104492 -5.34765625 16.11132812 C-3.99362816 10.46727634 -2.51037274 5.23871197 0 0 Z " fill="#D35A59" transform="translate(32,34)"/>
<path d="M0 0 C0.99 0.33 1.98 0.66 3 1 C1.96690972 8.00034307 0.35246892 14.80353175 -1.5 21.625 C-1.71358154 22.43114746 -1.92716309 23.23729492 -2.1472168 24.06787109 C-2.70139808 26.06394799 -3.34364709 28.03514867 -4 30 C-4.66 30.33 -5.32 30.66 -6 31 C-4.36872844 17.3357018 -4.36872844 17.3357018 -2.4375 12.6875 C-0.77448583 8.42150713 -0.30442073 4.53481913 0 0 Z " fill="#3A2138" transform="translate(95,84)"/>
<path d="M0 0 C0.33 0.66 0.66 1.32 1 2 C0.360625 2.268125 -0.27875 2.53625 -0.9375 2.8125 C-3.33131686 3.88667752 -3.33131686 3.88667752 -4 7 C-4.66 7 -5.32 7 -6 7 C-6.26554687 8.0621875 -6.53109375 9.124375 -6.8046875 10.21875 C-8.53645833 17.14583333 -10.26822917 24.07291667 -12 31 C-12.33 31 -12.66 31 -13 31 C-13 27.7 -13 24.4 -13 21 C-12.34 21 -11.68 21 -11 21 C-10.896875 20.0925 -10.79375 19.185 -10.6875 18.25 C-9.91456832 12.73717848 -8.40432909 7.37884538 -7 2 C-4.69 1.34 -2.38 0.68 0 0 Z " fill="#D24D4E" transform="translate(52,33)"/>
<path d="M0 0 C0.33 0 0.66 0 1 0 C1.2968369 6.59637555 1.38224622 12.0457304 -1.3359375 18.1171875 C-2.48888081 21.38612089 -2.11843105 24.56549954 -2 28 C-2.33 28.66 -2.66 29.32 -3 30 C-3.99 30 -4.98 30 -6 30 C-5.31261551 23.36318424 -3.95828166 16.99207631 -2.4375 10.5 C-2.20353516 9.48679687 -1.96957031 8.47359375 -1.72851562 7.4296875 C-1.15590618 4.95227521 -0.57965985 2.47577035 0 0 Z " fill="#FCDCD9" transform="translate(112,90)"/>
<path d="M0 0 C0.66 0.33 1.32 0.66 2 1 C1.67 3.31 1.34 5.62 1 8 C0.34 8 -0.32 8 -1 8 C-1 8.66 -1 9.32 -1 10 C-0.34 10 0.32 10 1 10 C0 13 0 13 -2.0625 14.1875 C-2.701875 14.455625 -3.34125 14.72375 -4 15 C-4 14.34 -4 13.68 -4 13 C-4.66 13 -5.32 13 -6 13 C-5.11375604 7.83024354 -4.07944772 3.5231594 0 0 Z " fill="#111A34" transform="translate(84,35)"/>
<path d="M0 0 C2.64 0.33 5.28 0.66 8 1 C8.33 1.99 8.66 2.98 9 4 C8.37609375 4.22429688 7.7521875 4.44859375 7.109375 4.6796875 C4.27668841 6.45273948 4.06744557 7.93696227 3.25 11.125 C3.00765625 12.03507812 2.7653125 12.94515625 2.515625 13.8828125 C2.34546875 14.58148438 2.1753125 15.28015625 2 16 C1.01 15.67 0.02 15.34 -1 15 C-0.71640113 13.5608866 -0.42278601 12.12374482 -0.125 10.6875 C0.03742188 9.88699219 0.19984375 9.08648437 0.3671875 8.26171875 C1 6 1 6 3 3 C1.68 3.33 0.36 3.66 -1 4 C-0.67 2.68 -0.34 1.36 0 0 Z " fill="#F1372F" transform="translate(119,30)"/>
<path d="M0 0 C3.125 1.75 3.125 1.75 5 4 C5.3125 7.25 5.3125 7.25 5 10 C3.02 10.33 1.04 10.66 -1 11 C0.375 9.5 0.375 9.5 2 8 C2.66 8 3.32 8 4 8 C1.24713716 3.48783222 1.24713716 3.48783222 -3.3828125 1.42578125 C-8.03136836 1.2245751 -10.27531155 1.42628831 -14 4.375 C-14.66 5.24125 -15.32 6.1075 -16 7 C-16.66 7.66 -17.32 8.32 -18 9 C-17.67 7.02 -17.34 5.04 -17 3 C-16.01 2.67 -15.02 2.34 -14 2 C-14 1.34 -14 0.68 -14 0 C-9.1957999 -2.95130999 -5.14005118 -1.61093688 0 0 Z " fill="#F8CDC9" transform="translate(49,27)"/>
<path d="M0 0 C0.66 0 1.32 0 2 0 C0.49783517 8.98578442 -1.52587615 17.82771313 -3.625 26.6875 C-3.95337867 28.08262261 -4.2815053 29.47780456 -4.609375 30.87304688 C-5.4033528 34.24938538 -6.20071315 37.62491385 -7 41 C-7.33 41 -7.66 41 -8 41 C-6.97032698 30.70326978 -5.27583739 20.72676178 -2.66015625 10.7109375 C-2.09806163 8.40269097 -1.67755013 6.16566764 -1.375 3.8125 C-1 1 -1 1 0 0 Z " fill="#FEDCD9" transform="translate(26,47)"/>
<path d="M0 0 C2.92879371 0.62759865 5.36095629 1.58622659 8 3 C5.78631706 5.21368294 4.06983375 6.86552921 0.88671875 7.265625 C-1.07746787 7.25166986 -3.0402625 7.13286356 -5 7 C-5.66 5.35 -6.32 3.7 -7 2 C-4.69 2 -2.38 2 0 2 C0 1.34 0 0.68 0 0 Z " fill="#E13C35" transform="translate(114,169)"/>
<path d="M0 0 C0.99 0.33 1.98 0.66 3 1 C2.01 1.495 2.01 1.495 1 2 C0.7475189 4.11956819 0.50464643 6.24076809 0.31298828 8.36669922 C-0.22157178 12.8641757 -1.41672841 17.1880275 -2.5625 21.5625 C-2.79646484 22.47580078 -3.03042969 23.38910156 -3.27148438 24.33007812 C-3.84223625 26.55484564 -4.41847478 28.77802897 -5 31 C-5.33 31 -5.66 31 -6 31 C-6.30946545 24.76484423 -6.26080786 19.72396875 -3.7265625 13.98046875 C-2.64457534 11.03118118 -2.49074346 8.09909254 -2.30859375 4.98046875 C-2 3 -2 3 0 0 Z " fill="#D4514E" transform="translate(72,52)"/>
<path d="M0 0 C1.21420247 3.64260741 0.67142794 5.2725974 -0.21484375 8.98046875 C-0.48876953 10.14384766 -0.76269531 11.30722656 -1.04492188 12.50585938 C-1.33947266 13.72080078 -1.63402344 14.93574219 -1.9375 16.1875 C-2.22818359 17.41404297 -2.51886719 18.64058594 -2.81835938 19.90429688 C-3.53841675 22.93798124 -4.26590585 25.96968719 -5 29 C-5.66 29 -6.32 29 -7 29 C-7.33 26.36 -7.66 23.72 -8 21 C-7.34 21 -6.68 21 -6 21 C-4.10042665 17.2008533 -3.94322397 14.20782276 -4.0546875 9.99609375 C-3.94355877 5.93989524 -2.84754481 2.84754481 0 0 Z " fill="#FBE4E0" transform="translate(104,54)"/>
<path d="M0 0 C3.1076683 6.21533659 -1.58476265 17.79504842 -3.31640625 24.24609375 C-4.03690532 27.1486757 -4.54311569 30.04548148 -5 33 C-5.66 32.67 -6.32 32.34 -7 32 C-6.47505866 24.7849947 -5.2331971 17.95447227 -3.5 10.9375 C-3.27441406 9.98939453 -3.04882812 9.04128906 -2.81640625 8.06445312 C-1.13822286 1.13822286 -1.13822286 1.13822286 0 0 Z " fill="#3A1622" transform="translate(145,87)"/>
<path d="M0 0 C0.33 0 0.66 0 1 0 C1.1395859 6.34481349 0.70087028 12.25167643 -0.375 18.5 C-0.56449219 19.71429688 -0.56449219 19.71429688 -0.7578125 20.953125 C-1.09830721 22.98247348 -1.54068912 24.99420205 -2 27 C-2.66 27.33 -3.32 27.66 -4 28 C-4.76251512 18.19320833 -2.46733541 9.39570135 0 0 Z " fill="#F8D6D3" transform="translate(150,61)"/>
<path d="M0 0 C0.33 0 0.66 0 1 0 C1.08333357 4.8333472 0.95261487 9.23692563 0 14 C-0.66 14 -1.32 14 -2 14 C-1.98839844 14.60328125 -1.97679688 15.2065625 -1.96484375 15.828125 C-1.95130859 17.02695313 -1.95130859 17.02695313 -1.9375 18.25 C-1.92589844 19.03890625 -1.91429688 19.8278125 -1.90234375 20.640625 C-1.99846239 22.96285143 -2.15987305 24.8300721 -3 27 C-3.99 27.33 -4.98 27.66 -6 28 C-5.26409139 21.90126313 -3.89274619 16.02615597 -2.4375 10.0625 C-2.08655273 8.6074707 -2.08655273 8.6074707 -1.72851562 7.12304688 C-1.15522471 4.74798449 -0.57898512 2.37367947 0 0 Z " fill="#D45754" transform="translate(106,50)"/>
<path d="M0 0 C0.33 0 0.66 0 1 0 C1.21824777 6.0018137 0.5056904 11.19233704 -1 17 C-1.66 17 -2.32 17 -3 17 C-2.938125 18.7325 -2.938125 18.7325 -2.875 20.5 C-2.85912567 24.94481301 -3.78206895 28.73724131 -5 33 C-5.66 33 -6.32 33 -7 33 C-6.30564279 25.8279053 -4.66237462 18.98754312 -2.9375 12 C-2.65583984 10.84371094 -2.37417969 9.68742188 -2.08398438 8.49609375 C-1.39328783 5.66306724 -0.6985301 2.83110327 0 0 Z " fill="#F9C8C3" transform="translate(135,125)"/>
<path d="M0 0 C0.33 0 0.66 0 1 0 C1.20845593 4.70822885 0.47876973 8.54063783 -0.8125 13.0625 C-1.18024815 14.3770845 -1.54609601 15.6922019 -1.91015625 17.0078125 C-2.09336426 17.66813477 -2.27657227 18.32845703 -2.46533203 19.00878906 C-3.79684594 23.96761439 -4.88457143 28.98902167 -6 34 C-6.33 34 -6.66 34 -7 34 C-6.24984418 26.62346781 -5.16558465 19.32168224 -4 12 C-3.34 12 -2.68 12 -2 12 C-2.04125 10.7625 -2.0825 9.525 -2.125 8.25 C-2.13658291 4.98362038 -1.8568702 2.7853053 0 0 Z " fill="#FDDDD8" transform="translate(127,88)"/>
<path d="M0 0 C1.65 1.65 3.3 3.3 5 5 C4.2575 5.495 3.515 5.99 2.75 6.5 C-2.54484507 11.31349551 -4.41694816 17.00337795 -5 24 C-5.66 23.67 -6.32 23.34 -7 23 C-7.56131481 16.54487966 -5.63463787 11.84560277 -3 6 C-1.68 6 -0.36 6 1 6 C0.67 4.02 0.34 2.04 0 0 Z " fill="#C14C51" transform="translate(159,29)"/>
<path d="M0 0 C0.33 0 0.66 0 1 0 C1.30671959 6.17983165 1.30834302 11.30784189 -1.20703125 17.01171875 C-2.3952844 19.99113181 -2.90568355 23.06679534 -3.47265625 26.21484375 C-3.64667969 26.80394531 -3.82070313 27.39304688 -4 28 C-4.66 28.33 -5.32 28.66 -6 29 C-5.40390686 22.26483263 -4.14905977 15.97211055 -2.4375 9.4375 C-2.20353516 8.52419922 -1.96957031 7.61089844 -1.72851562 6.66992188 C-1.15776375 4.44515436 -0.58152522 2.22197103 0 0 Z " fill="#FAD5CD" transform="translate(29,108)"/>
<path d="M0 0 C0.33 0 0.66 0 1 0 C0.85795259 1.58367747 0.71119847 3.16693318 0.5625 4.75 C0.48128906 5.63171875 0.40007813 6.5134375 0.31640625 7.421875 C0.03416149 9.7216471 -0.2546583 11.8072528 -1 14 C-3.59477385 16.01815744 -5.42657708 16.9199875 -8.6875 17.375 C-9.450625 17.25125 -10.21375 17.1275 -11 17 C-11.66 16.01 -12.32 15.02 -13 14 C-10.36 14.33 -7.72 14.66 -5 15 C-4.87753906 14.28457031 -4.75507813 13.56914062 -4.62890625 12.83203125 C-3.98864625 9.94887287 -3.06448444 7.41407527 -1.9375 4.6875 C-1.39416016 3.36298828 -1.39416016 3.36298828 -0.83984375 2.01171875 C-0.56269531 1.34785156 -0.28554688 0.68398437 0 0 Z " fill="#FBD1CD" transform="translate(35,144)"/>
<path d="M0 0 C1.42248537 2.84497074 0.57296822 4.39053138 -0.21484375 7.4453125 C-0.48876953 8.52167969 -0.76269531 9.59804687 -1.04492188 10.70703125 C-1.33947266 11.83496094 -1.63402344 12.96289062 -1.9375 14.125 C-2.22818359 15.26066406 -2.51886719 16.39632812 -2.81835938 17.56640625 C-3.53930622 20.37928082 -4.26677524 23.19030546 -5 26 C-5.33 26 -5.66 26 -6 26 C-6.54050279 12.50744879 -6.54050279 12.50744879 -3 7 C-2.41662502 5.71762616 -1.85435866 4.42546077 -1.3125 3.125 C-0.6628125 1.578125 -0.6628125 1.578125 0 0 Z " fill="#FDDED9" transform="translate(42,117)"/>
<path d="M0 0 C0.99 0.66 1.98 1.32 3 2 C2.34034961 8.86036401 0.7637236 15.34443923 -1 22 C-1.33 22 -1.66 22 -2 22 C-2 15.07 -2 8.14 -2 1 C-1.67 1.99 -1.34 2.98 -1 4 C-0.67 2.68 -0.34 1.36 0 0 Z " fill="#D94644" transform="translate(131,128)"/>
<path d="M0 0 C1.60685189 4.01712972 0.43257376 7.06042217 -1 11 C-2.95803078 13.55395319 -3.86671878 13.95557293 -7 15 C-8.89470816 15.0685495 -10.7916834 15.08480372 -12.6875 15.0625 C-13.68136719 15.05347656 -14.67523438 15.04445312 -15.69921875 15.03515625 C-16.83810547 15.01775391 -16.83810547 15.01775391 -18 15 C-18 14.01 -18 13.02 -18 12 C-17.34 12.33 -16.68 12.66 -16 13 C-10.76557479 13.80608482 -10.76557479 13.80608482 -6.2109375 11.6484375 C-3.0294211 8.09078123 -1.14308012 4.6866285 0 0 Z " fill="#FDDBD8" transform="translate(95,162)"/>
<path d="M0 0 C1.31112918 3.68828032 0.68722513 6.32257294 -0.21484375 10.078125 C-0.48876953 11.23828125 -0.76269531 12.3984375 -1.04492188 13.59375 C-1.33947266 14.8003125 -1.63402344 16.006875 -1.9375 17.25 C-2.22818359 18.47203125 -2.51886719 19.6940625 -2.81835938 20.953125 C-3.53741594 23.970805 -4.26491695 26.98619115 -5 30 C-5.33 30 -5.66 30 -6 30 C-6.05416188 28.39620659 -6.09286638 26.79188594 -6.125 25.1875 C-6.14820312 24.29417969 -6.17140625 23.40085938 -6.1953125 22.48046875 C-6 20 -6 20 -4 17 C-3.41057118 14.28693527 -2.89173201 11.61000543 -2.4375 8.875 C-1.12303665 1.12303665 -1.12303665 1.12303665 0 0 Z " fill="#D15050" transform="translate(104,120)"/>
<path d="M0 0 C2.65000521 9.89257106 -1.09593078 18.93852568 -5 28 C-6.25414522 24.41247479 -5.73271684 21.99491358 -4.78515625 18.359375 C-4.37426758 16.75449219 -4.37426758 16.75449219 -3.95507812 15.1171875 C-3.66052734 14.00601563 -3.36597656 12.89484375 -3.0625 11.75 C-2.77181641 10.62335938 -2.48113281 9.49671875 -2.18164062 8.3359375 C-1.46283595 5.55498826 -0.73534019 2.77661416 0 0 Z " fill="#D55A56" transform="translate(17,93)"/>
<path d="M0 0 C1.14806133 3.41975716 0.83383098 5.72148953 0.00390625 9.203125 C-0.22490234 10.1828125 -0.45371094 11.1625 -0.68945312 12.171875 C-0.93630859 13.18765625 -1.18316406 14.2034375 -1.4375 15.25 C-1.80198242 16.796875 -1.80198242 16.796875 -2.17382812 18.375 C-2.77442781 20.91871633 -3.38341641 23.46011941 -4 26 C-4.33 26 -4.66 26 -5 26 C-5.0814222 23.77144426 -5.13938079 21.54202345 -5.1875 19.3125 C-5.22230469 18.07113281 -5.25710937 16.82976563 -5.29296875 15.55078125 C-4.97906046 11.74621283 -4.12079191 10.09635619 -2 7 C-1.27833809 4.68308546 -0.59940471 2.35151077 0 0 Z " fill="#FDDDD8" transform="translate(137,46)"/>
<path d="M0 0 C0.66 0 1.32 0 2 0 C2.33 3.63 2.66 7.26 3 11 C2.01 11.33 1.02 11.66 0 12 C-0.33 14.31 -0.66 16.62 -1 19 C-1.66 19 -2.32 19 -3 19 C-2.85691406 18.15179688 -2.71382812 17.30359375 -2.56640625 16.4296875 C-1.99968273 12.99807888 -1.4637299 9.56303536 -0.9375 6.125 C-0.67259766 4.39636719 -0.67259766 4.39636719 -0.40234375 2.6328125 C-0.26957031 1.76398438 -0.13679687 0.89515625 0 0 Z " fill="#192138" transform="translate(145,89)"/>
<path d="M0 0 C0.66 0 1.32 0 2 0 C1.48443158 4.9838281 0.72096198 9.26735454 -1 14 C-1.144375 14.7425 -1.28875 15.485 -1.4375 16.25 C-2 18 -2 18 -5 20 C-4.35346673 13.04976736 -2.13972752 6.61822697 0 0 Z " fill="#FBD6D2" transform="translate(46,40)"/>
<path d="M0 0 C0.33 0 0.66 0 1 0 C0.51298949 7.59064664 -0.99763587 14.67059167 -3 22 C-3.33 22 -3.66 22 -4 22 C-3.67 15.73 -3.34 9.46 -3 3 C-2.01 2.67 -1.02 2.34 0 2 C0 1.34 0 0.68 0 0 Z " fill="#D84C4D" transform="translate(109,98)"/>
<path d="M0 0 C0 0.99 0 1.98 0 3 C-0.66 3.66 -1.32 4.32 -2 5 C-2.69748583 6.31747324 -3.36959957 7.64914193 -4 9 C-4.66 9 -5.32 9 -6 9 C-6.144375 9.721875 -6.28875 10.44375 -6.4375 11.1875 C-6.95833333 13.79166667 -7.47916667 16.39583333 -8 19 C-8.33 19 -8.66 19 -9 19 C-9.45490918 12.63127145 -8.55349016 8.35994669 -5 3 C-2.37923251 0 -2.37923251 0 0 0 Z " fill="#3D1119" transform="translate(163,35)"/>
<path d="M0 0 C3.3 0.66 6.6 1.32 10 2 C9.67 3.32 9.34 4.64 9 6 C2.47692308 6.36923077 2.47692308 6.36923077 0.0625 4.5 C-0.4634375 3.7575 -0.4634375 3.7575 -1 3 C-0.67 2.01 -0.34 1.02 0 0 Z M-1 6 C2 7 2 7 2 7 Z " fill="#142849" transform="translate(163,159)"/>
<path d="M0 0 C0.66 0 1.32 0 2 0 C1.71743908 1.93884889 1.4236207 3.87605961 1.125 5.8125 C0.96257812 6.89144531 0.80015625 7.97039062 0.6328125 9.08203125 C0 12 0 12 -2 15 C-2.39387788 17.32387947 -2.73486085 19.65793749 -3 22 C-3.99 22 -4.98 22 -6 22 C-5.25 14.375 -5.25 14.375 -3 11 C-2.34 11 -1.68 11 -1 11 C-1.020625 9.741875 -1.04125 8.48375 -1.0625 7.1875 C-1.10886083 4.35948913 -0.91692961 2.75078884 0 0 Z " fill="#DF4142" transform="translate(124,114)"/>
<path d="M0 0 C0.33 0 0.66 0 1 0 C1.21221057 5.8888434 0.55320433 10.83290313 -1 16.5 C-1.28617188 17.59054688 -1.28617188 17.59054688 -1.578125 18.703125 C-2.04337245 20.47106531 -2.52043593 22.23588933 -3 24 C-3.66 24 -4.32 24 -5 24 C-1.92482916 7.1070615 -1.92482916 7.1070615 0 0 Z " fill="#CF5754" transform="translate(55,64)"/>
<path d="M0 0 C0.33 0.66 0.66 1.32 1 2 C1.66 2 2.32 2 3 2 C3.33 1.34 3.66 0.68 4 0 C3.48118887 4.1724106 2.28848726 6.25416821 -0.5625 9.3125 C-1.20316406 10.00988281 -1.84382812 10.70726562 -2.50390625 11.42578125 C-2.99761719 11.94527344 -3.49132812 12.46476563 -4 13 C-4.33 12.01 -4.66 11.02 -5 10 C-4.34 9.34 -3.68 8.68 -3 8 C-2.30643577 5.67451993 -1.63850788 3.34119555 -1 1 C-0.67 0.67 -0.34 0.34 0 0 Z " fill="#21324A" transform="translate(187,159)"/>
<path d="M0 0 C0.33 0 0.66 0 1 0 C1.44503164 9.11490719 0.65890498 14.66085993 -5 22 C-3.60695059 14.59225491 -1.88100377 7.29829463 0 0 Z " fill="#FBD3CE" transform="translate(101,138)"/>
<path d="M0 0 C0.33 0 0.66 0 1 0 C1 3.96 1 7.92 1 12 C0.67 12 0.34 12 0 12 C-2.21538462 4.61538462 -2.21538462 4.61538462 -1.125 1.5 C-0.75375 1.005 -0.3825 0.51 0 0 Z M-9 1 C-6 1 -6 1 -3 2 C-3 3.32 -3 4.64 -3 6 C-2.34 6.33 -1.68 6.66 -1 7 C-1 8.32 -1 9.64 -1 11 C-1.66 11 -2.32 11 -3 11 C-3.66 9.02 -4.32 7.04 -5 5 C-6.32 5 -7.64 5 -9 5 C-9 3.68 -9 2.36 -9 1 Z " fill="#172D52" transform="translate(191,147)"/>
<path d="M0 0 C-0.33 1.32 -0.66 2.64 -1 4 C-1.639375 4.144375 -2.27875 4.28875 -2.9375 4.4375 C-4.97545146 4.81007181 -4.97545146 4.81007181 -6 6 C-7.34267413 6.08631874 -8.68974322 6.10706473 -10.03515625 6.09765625 C-10.84404297 6.09443359 -11.65292969 6.09121094 -12.48632812 6.08789062 C-13.33646484 6.07951172 -14.18660156 6.07113281 -15.0625 6.0625 C-15.91650391 6.05798828 -16.77050781 6.05347656 -17.65039062 6.04882812 C-19.76695663 6.03700373 -21.88348685 6.01906769 -24 6 C-24 5.34 -24 4.68 -24 4 C-22.62328125 4.06960937 -22.62328125 4.06960937 -21.21875 4.140625 C-13.30138768 4.3734886 -6.73243418 0 0 0 Z " fill="#FFE9E8" transform="translate(42,171)"/>
<path d="M0 0 C1.07072588 3.21217765 0.94578406 3.98803079 0.125 7.125 C-0.85047722 11.08504991 -1.32888448 14.88895424 -1.55859375 18.95703125 C-2.11514467 21.53292619 -3.31905719 23.0052812 -5 25 C-4.68035855 16.12994977 -2.90409903 8.37461115 0 0 Z " fill="#D35757" transform="translate(56,121)"/>
<path d="M0 0 C0.33 0 0.66 0 1 0 C1.18112779 5.07157813 0.81451828 9.16579766 -0.5546875 14.03515625 C-1.24232929 17.06922487 -1.12913859 19.90067379 -1 23 C-1.99 23.33 -2.98 23.66 -4 24 C-3.52087184 15.75569133 -2.02214499 7.99955473 0 0 Z " fill="#421626" transform="translate(63,96)"/>
<path d="M0 0 C0.66 0 1.32 0 2 0 C1.69381465 7.19535561 0.4291374 13.59463014 -3 20 C-3.66 20.33 -4.32 20.66 -5 21 C-4.34 17.04 -3.68 13.08 -3 9 C-2.01 9 -1.02 9 0 9 C0 6.03 0 3.06 0 0 Z " fill="#D24C49" transform="translate(127,150)"/>
<path d="M0 0 C0.33 0.66 0.66 1.32 1 2 C0.07421875 3.91015625 0.07421875 3.91015625 -1.3125 6.0625 C-1.76238281 6.77535156 -2.21226563 7.48820313 -2.67578125 8.22265625 C-4 10 -4 10 -6 11 C-5.67 12.32 -5.34 13.64 -5 15 C-6.32 14.67 -7.64 14.34 -9 14 C-9 12.68 -9 11.36 -9 10 C-8.34 10 -7.68 10 -7 10 C-6.67 9.01 -6.34 8.02 -6 7 C-5.02280065 5.73586677 -3.99761701 4.50795109 -2.9375 3.3125 C-2.38964844 2.68988281 -1.84179688 2.06726563 -1.27734375 1.42578125 C-0.85582031 0.95527344 -0.43429688 0.48476562 0 0 Z " fill="#FBDBD5" transform="translate(111,158)"/>
<path d="M0 0 C0.33 0 0.66 0 1 0 C1 4.62 1 9.24 1 14 C0.34 14 -0.32 14 -1 14 C-2.63676257 15.9600281 -2.63676257 15.9600281 -4 18 C-3.31195504 11.80759538 -1.71951285 5.98044406 0 0 Z " fill="#FBDAD3" transform="translate(124,42)"/>
<path d="M0 0 C2.475 0.99 2.475 0.99 5 2 C4.2575 2.495 3.515 2.99 2.75 3.5 C-2.54484507 8.31349551 -4.41694816 14.00337795 -5 21 C-5.33 21 -5.66 21 -6 21 C-6.56899977 14.17200277 -5.44005177 9.86315393 -2 4 C-1.32496678 2.67088286 -0.65600749 1.33860987 0 0 Z " fill="#B14043" transform="translate(80,32)"/>
<path d="M0 0 C2.98639634 0.73394486 3.74104668 1.99610778 5.3046875 4.56640625 C4.3146875 4.56640625 3.3246875 4.56640625 2.3046875 4.56640625 C2.3046875 3.90640625 2.3046875 3.24640625 2.3046875 2.56640625 C-1.9853125 3.22640625 -6.2753125 3.88640625 -10.6953125 4.56640625 C-10.6953125 5.22640625 -10.6953125 5.88640625 -10.6953125 6.56640625 C-11.3553125 6.23640625 -12.0153125 5.90640625 -12.6953125 5.56640625 C-8.92558738 0.54010609 -6.18754178 0.00940356 0 0 Z " fill="#CE5554" transform="translate(45.6953125,27.43359375)"/>
<path d="M0 0 C0.33 1.32 0.66 2.64 1 4 C0.43410156 3.83757813 -0.13179687 3.67515625 -0.71484375 3.5078125 C-3.07174255 2.98405721 -5.15162662 2.86684138 -7.5625 2.875 C-8.32691406 2.87242188 -9.09132812 2.86984375 -9.87890625 2.8671875 C-12.18998495 2.92092616 -12.18998495 2.92092616 -15 4 C-15.33 4.66 -15.66 5.32 -16 6 C-16 4.68 -16 3.36 -16 2 C-10.20377279 -0.32637691 -6.13909603 -1.43680971 0 0 Z " fill="#FAD7D1" transform="translate(160,26)"/>
<path d="M0 0 C0.66 0 1.32 0 2 0 C1.88652381 1.97986082 1.7589065 3.95891598 1.625 5.9375 C1.55539063 7.03964844 1.48578125 8.14179688 1.4140625 9.27734375 C1.27742188 10.17582031 1.14078125 11.07429687 1 12 C0.01 12.495 0.01 12.495 -1 13 C-1.66 12.67 -2.32 12.34 -3 12 C-2.69106068 10.3743193 -2.3777305 8.74947252 -2.0625 7.125 C-1.88847656 6.22007812 -1.71445313 5.31515625 -1.53515625 4.3828125 C-1 2 -1 2 0 0 Z " fill="#F6352F" transform="translate(85,153)"/>
<path d="M0 0 C0.66 0 1.32 0 2 0 C3.27116208 3.81348624 2.3614221 5.2939065 1 9 C0.65023242 10.32911682 0.30903983 11.66082739 0 13 C-0.66 13 -1.32 13 -2 13 C-2.33 14.65 -2.66 16.3 -3 18 C-3.33 18 -3.66 18 -4 18 C-3.41632611 11.69632197 -1.95928381 6.01339937 0 0 Z " fill="#CD4141" transform="translate(64,83)"/>
<path d="M0 0 C0.66 0.33 1.32 0.66 2 1 C1.80664062 1.73863281 1.61328125 2.47726563 1.4140625 3.23828125 C-0.35251943 10.12095442 -1.82739579 16.99196542 -3 24 C-3.66 24 -4.32 24 -5 24 C-4.39496146 18.3444819 -3.37814297 12.99786009 -1.9375 7.5 C-1.75123047 6.77296875 -1.56496094 6.0459375 -1.37304688 5.296875 C-0.91973545 3.53012276 -0.4604998 1.76489225 0 0 Z " fill="#FBD0CB" transform="translate(73,54)"/>
<path d="M0 0 C0.33 0 0.66 0 1 0 C0.34034961 6.86036401 -1.2362764 13.34443923 -3 20 C-4.13005694 16.4908758 -3.98574145 13.46707065 -3.6875 9.8125 C-3.60886719 8.74644531 -3.53023438 7.68039063 -3.44921875 6.58203125 C-3.30097656 5.72996094 -3.15273437 4.87789062 -3 4 C-2.34 3.67 -1.68 3.34 -1 3 C-0.67 2.01 -0.34 1.02 0 0 Z " fill="#D05451" transform="translate(121,48)"/>
<path d="M0 0 C0.79921875 0.01804687 1.5984375 0.03609375 2.421875 0.0546875 C3.02515625 0.07789062 3.6284375 0.10109375 4.25 0.125 C4.25 0.455 4.25 0.785 4.25 1.125 C3.05375 1.145625 1.8575 1.16625 0.625 1.1875 C-3.0070792 1.63828997 -4.69364609 2.58023595 -7.125 5.3125 C-9.46491509 8.38999702 -10.82726749 11.3417967 -11.75 15.125 C-12.84658936 11.83523192 -12.54953138 10.41196233 -11.75 7.125 C-11.09 7.125 -10.43 7.125 -9.75 7.125 C-9.6675 6.34125 -9.585 5.5575 -9.5 4.75 C-8.75 2.125 -8.75 2.125 -7 0.96875 C-4.49591445 0.02971792 -2.66296639 -0.07832254 0 0 Z " fill="#FAD0CA" transform="translate(72.75,26.875)"/>
<path d="M0 0 C0.33 0 0.66 0 1 0 C1.40133016 6.95638946 0.3003038 13.40509232 -2 20 C-2.66 20.33 -3.32 20.66 -4 21 C-3.39700836 13.76410027 -1.8849413 7.00629124 0 0 Z " fill="#D85E5D" transform="translate(60,42)"/>
<path d="M0 0 C2 1.3125 2 1.3125 4 3 C4 3.99 4 4.98 4 6 C2.8553125 7.0828125 2.8553125 7.0828125 1.6875 8.1875 C-1.64207372 11.67193761 -2.53507149 14.45101148 -4 19 C-5.0846469 16.24616595 -5.06267213 15.16712569 -4.00390625 12.34375 C-3.29041016 10.93609375 -3.29041016 10.93609375 -2.5625 9.5 C-0.70799634 5.82131154 0 4.21611956 0 0 Z " fill="#CA514E" transform="translate(127,29)"/>
<path d="M0 0 C0.66 0.99 1.32 1.98 2 3 C0.87851563 2.96519531 0.87851563 2.96519531 -0.265625 2.9296875 C-1.25046875 2.91164063 -2.2353125 2.89359375 -3.25 2.875 C-4.22453125 2.85179687 -5.1990625 2.82859375 -6.203125 2.8046875 C-9.06627213 3.00462794 -10.65155238 3.37332298 -13 5 C-13.33 5.99 -13.66 6.98 -14 8 C-14.66 7.34 -15.32 6.68 -16 6 C-15.34 6 -14.68 6 -14 6 C-14 4.68 -14 3.36 -14 2 C-3.58037056 -0.54248039 -3.58037056 -0.54248039 0 0 Z " fill="#FAD0CA" transform="translate(126,26)"/>
<path d="M0 0 C3 0 3 0 5 1 C4.67 2.65 4.34 4.3 4 6 C3.01 5.67 2.02 5.34 1 5 C0.67 5.33 0.34 5.66 0 6 C-1.99958364 6.04080783 -4.00045254 6.04254356 -6 6 C-4 4 -2 2 0 0 Z " fill="#FBE5E2" transform="translate(123,170)"/>
<path d="M0 0 C0.33 0 0.66 0 1 0 C1.88220026 4.58744135 2.21572084 6.93784513 0 11 C-0.47388934 13.66305206 -0.73050862 16.3050862 -1 19 C-1.66 18.67 -2.32 18.34 -3 18 C-2.51679152 11.7945858 -1.66681876 6.00054754 0 0 Z " fill="#FCC7C2" transform="translate(22,138)"/>
<path d="M0 0 C1.67110042 2.96178773 2.32682752 5.37071192 2.625 8.75 C2.69976562 9.54921875 2.77453125 10.3484375 2.8515625 11.171875 C2.92503906 12.07679687 2.92503906 12.07679687 3 13 C2.01 13 1.02 13 0 13 C-0.66 12.34 -1.32 11.68 -2 11 C-1.7578125 8.3984375 -1.7578125 8.3984375 -1.125 5.375 C-0.92132813 4.37210938 -0.71765625 3.36921875 -0.5078125 2.3359375 C-0.34023437 1.56507812 -0.17265625 0.79421875 0 0 Z " fill="#293751" transform="translate(91,58)"/>
<path d="M0 0 C1.32 0.33 2.64 0.66 4 1 C4 1.99 4 2.98 4 4 C3.34 4 2.68 4 2 4 C2 4.66 2 5.32 2 6 C0.02 6.33 -1.96 6.66 -4 7 C-4.33 7.99 -4.66 8.98 -5 10 C-5.33 9.34 -5.66 8.68 -6 8 C-4.71937515 6.2925002 -3.38232443 4.62626404 -2 3 C-1.34 3 -0.68 3 0 3 C0 2.01 0 1.02 0 0 Z " fill="#FADBD4" transform="translate(131,32)"/>
<path d="M0 0 C0 0.66 0 1.32 0 2 C1.32 2 2.64 2 4 2 C4 2.66 4 3.32 4 4 C2.56274129 4.16873478 1.12518162 4.33490737 -0.3125 4.5 C-1.11300781 4.5928125 -1.91351563 4.685625 -2.73828125 4.78125 C-5 5 -5 5 -8 5 C-8 4.01 -8 3.02 -8 2 C-4.91190305 0.23537317 -3.76687864 0 0 0 Z " fill="#E33C35" transform="translate(48,30)"/>
<path d="M0 0 C1.32 0 2.64 0 4 0 C2.60466338 4.43970742 0.43871468 6.90515679 -3 10 C-3.99 10.495 -3.99 10.495 -5 11 C-5 10.01 -5 9.02 -5 8 C-4.01 8 -3.02 8 -2 8 C-1.7834375 6.576875 -1.7834375 6.576875 -1.5625 5.125 C-1 2 -1 2 0 0 Z " fill="#D44E49" transform="translate(43,162)"/>
<path d="M0 0 C0.99 0 1.98 0 3 0 C2.39891424 5.65020618 0.92471317 10.66164461 -1 16 C-1.66 16 -2.32 16 -3 16 C-2.5359375 14.824375 -2.5359375 14.824375 -2.0625 13.625 C-0.73664193 9.10148422 -0.35188915 4.68568186 0 0 Z " fill="#D14843" transform="translate(95,150)"/>
<path d="M0 0 C2.32590854 3.63423209 2.16265833 6.77088331 2 11 C1.01 10.67 0.02 10.34 -1 10 C-1 8.68 -1 7.36 -1 6 C-1.99 6.33 -2.98 6.66 -4 7 C-3.43628586 3.73045798 -2.50037734 2.17424117 0 0 Z " fill="#1C2942" transform="translate(148,98)"/>
<path d="M0 0 C0.66 0 1.32 0 2 0 C1.21085905 6.78661213 -0.41274811 13.36149367 -2 20 C-2.33 20 -2.66 20 -3 20 C-3 16.7 -3 13.4 -3 10 C-2.34 10 -1.68 10 -1 10 C-0.67 6.7 -0.34 3.4 0 0 Z " fill="#D24D4D" transform="translate(115,70)"/>
<path d="M0 0 C1.41687119 4.25061356 0.19320039 6.71851625 -1 11 C-1.66 11 -2.32 11 -3 11 C-3.33 12.98 -3.66 14.96 -4 17 C-4.66 16.67 -5.32 16.34 -6 16 C-4.43551329 10.3856009 -2.83604813 5.13189662 0 0 Z " fill="#FEE9E3" transform="translate(58,48)"/>
<path d="M0 0 C0.33 0 0.66 0 1 0 C0.22095672 11.52164009 0.22095672 11.52164009 -2 17 C-2.33 17 -2.66 17 -3 17 C-3 13.37 -3 9.74 -3 6 C-2.34 6 -1.68 6 -1 6 C-0.67 4.02 -0.34 2.04 0 0 Z " fill="#DE4443" transform="translate(141,40)"/>
<path d="M0 0 C0.625 1.8125 0.625 1.8125 1 4 C0.01 5.485 0.01 5.485 -1 7 C-1.2165625 8.7634375 -1.2165625 8.7634375 -1.4375 10.5625 C-1.623125 11.696875 -1.80875 12.83125 -2 14 C-2.99 14.66 -3.98 15.32 -5 16 C-4.70887831 9.58076669 -3.54784971 5.37899794 0 0 Z " fill="#D25A57" transform="translate(112,33)"/>
<path d="M0 0 C0 0.33 0 0.66 0 1 C-1.051875 1.226875 -2.10375 1.45375 -3.1875 1.6875 C-7.1772866 2.81013226 -9.26806474 4.87778828 -12 8 C-12.66 8.66 -13.32 9.32 -14 10 C-13.67 8.02 -13.34 6.04 -13 4 C-12.01 3.67 -11.02 3.34 -10 3 C-10 2.34 -10 1.68 -10 1 C-6.42181037 -1.33958553 -4.07775191 -0.9267618 0 0 Z " fill="#FEE2DD" transform="translate(45,26)"/>
<path d="M0 0 C-2.21368294 2.21368294 -3.93016625 3.86552921 -7.11328125 4.265625 C-9.07746787 4.25166986 -11.0402625 4.13286356 -13 4 C-13.33 3.34 -13.66 2.68 -14 2 C-11.69 2.33 -9.38 2.66 -7 3 C-6.67 2.01 -6.34 1.02 -6 0 C-3.50907189 -1.24546405 -2.58919267 -0.7767578 0 0 Z " fill="#D35250" transform="translate(122,172)"/>
<path d="M0 0 C0.33 0 0.66 0 1 0 C1.05441656 1.89551022 1.09298035 3.7914792 1.125 5.6875 C1.14820312 6.74324219 1.17140625 7.79898438 1.1953125 8.88671875 C0.99858729 12.02251859 0.33057654 14.17645373 -1 17 C-1.33 17 -1.66 17 -2 17 C-2 13.04 -2 9.08 -2 5 C-1.34 5 -0.68 5 0 5 C0 3.35 0 1.7 0 0 Z " fill="#CB5253" transform="translate(99,78)"/>
<path d="M0 0 C0.66 0 1.32 0 2 0 C1.57910004 5.60461531 1.08386889 10.72086547 -1 16 C-1.33 16 -1.66 16 -2 16 C-1.85936865 13.70800823 -1.71234057 11.41640814 -1.5625 9.125 C-1.48128906 7.84882812 -1.40007813 6.57265625 -1.31640625 5.2578125 C-1 2 -1 2 0 0 Z " fill="#D3484A" transform="translate(37,64)"/>
<path d="M0 0 C0.33 0 0.66 0 1 0 C0.7242265 6.2049038 -0.10640794 10.10160999 -4 15 C-4.99 14.67 -5.98 14.34 -7 14 C-6.66226563 13.49210938 -6.32453125 12.98421875 -5.9765625 12.4609375 C-3.34589186 8.40088512 -1.29585335 4.712194 0 0 Z " fill="#F9CAC9" transform="translate(49,156)"/>
<path d="M0 0 C1.0326802 2.78823655 1.04509293 3.8677274 0.0625 6.75 C-0.288125 7.4925 -0.63875 8.235 -1 9 C-4.3 9 -7.6 9 -11 9 C-11 8.67 -11 8.34 -11 8 C-9.906875 7.690625 -8.81375 7.38125 -7.6875 7.0625 C-5.44592006 6.41662103 -3.2130649 5.7376883 -1 5 C-0.67 3.35 -0.34 1.7 0 0 Z " fill="#D64945" transform="translate(35,153)"/>
<path d="M0 0 C0.66 0 1.32 0 2 0 C1.71682074 1.60568666 1.42312209 3.20952047 1.125 4.8125 C0.96257813 5.70582031 0.80015625 6.59914062 0.6328125 7.51953125 C0 10 0 10 -2 13 C-2.05391993 11.20866022 -2.09275571 9.41686101 -2.125 7.625 C-2.14820313 6.62726563 -2.17140625 5.62953125 -2.1953125 4.6015625 C-2 2 -2 2 0 0 Z " fill="#D34D4D" transform="translate(49,149)"/>
<path d="M0 0 C0.33 0 0.66 0 1 0 C0.40984815 5.50808397 -0.56663769 10.64878069 -2 16 C-2.33 16 -2.66 16 -3 16 C-3.37952295 9.80112515 -2.8352113 5.5522888 0 0 Z " fill="#FBDFD9" transform="translate(89,117)"/>
<path d="M0 0 C0.33 0 0.66 0 1 0 C2.25 7.625 2.25 7.625 0 11 C-0.39013716 12.9896995 -0.73202649 14.99019869 -1 17 C-1.66 16.67 -2.32 16.34 -3 16 C-2.30834212 10.58201328 -1.24200752 5.3177215 0 0 Z " fill="#FBD0CA" transform="translate(118,65)"/>
<path d="M0 0 C1.20220203 3.53094302 0.79532349 6.12898982 0.0625 9.75 C-0.13214844 10.73484375 -0.32679687 11.7196875 -0.52734375 12.734375 C-0.68332031 13.48203125 -0.83929688 14.2296875 -1 15 C-1.99 15.33 -2.98 15.66 -4 16 C-3.47606294 10.13190493 -2.23891142 5.45126259 0 0 Z " fill="#DA5152" transform="translate(124,110)"/>
<path d="M0 0 C0.33 0 0.66 0 1 0 C1.22084624 6.09781001 1.01167675 11.21642935 -1 17 C-1.33 17 -1.66 17 -2 17 C-2.3690205 5.47835991 -2.3690205 5.47835991 0 0 Z " fill="#FDE2DD" transform="translate(50,76)"/>
<path d="M0 0 C0.66 0.33 1.32 0.66 2 1 C1.5359375 1.40992188 1.071875 1.81984375 0.59375 2.2421875 C-1.60414896 4.66634077 -2.20790032 7.17567604 -3.15625 10.2578125 C-3.4346875 10.83273438 -3.713125 11.40765625 -4 12 C-4.99 12.33 -5.98 12.66 -7 13 C-5.74875245 7.31251115 -3.95897432 4.27152492 0 0 Z " fill="#3E1019" transform="translate(82,35)"/>
<path d="M0 0 C0.33 0 0.66 0 1 0 C1.17786056 5.15795631 1.11596899 9.18029285 -1 14 C-1.99 14.495 -1.99 14.495 -3 15 C-2.35812082 9.86496656 -1.31727753 5.0056546 0 0 Z " fill="#D65F5C" transform="translate(89,122)"/>
<path d="M0 0 C0.33 0 0.66 0 1 0 C1.05389087 1.95803507 1.09274217 3.91648909 1.125 5.875 C1.14820312 6.96554688 1.17140625 8.05609375 1.1953125 9.1796875 C1 12 1 12 -1 14 C-2.33500455 8.65998179 -1.512545 5.16044765 0 0 Z " fill="#F9CEC8" transform="translate(112,90)"/>
<path d="M0 0 C0.33 0.66 0.66 1.32 1 2 C0.360625 2.268125 -0.27875 2.53625 -0.9375 2.8125 C-3.33131686 3.88667752 -3.33131686 3.88667752 -4 7 C-4.99 7 -5.98 7 -7 7 C-7 5.35 -7 3.7 -7 2 C-4.69 1.34 -2.38 0.68 0 0 Z " fill="#DB5653" transform="translate(52,33)"/>
<path d="M0 0 C0.99 0 1.98 0 3 0 C2.5206753 4.31392226 1.2542015 6.16569547 -2 9 C-2.99 8.67 -3.98 8.34 -5 8 C-5 7.34 -5 6.68 -5 6 C-3.35 6 -1.7 6 0 6 C0 4.02 0 2.04 0 0 Z " fill="#452235" transform="translate(76,160)"/>
<path d="M0 0 C0.33 0 0.66 0 1 0 C0.88570603 1.77155654 0.75816963 3.54226229 0.625 5.3125 C0.52058594 6.79169922 0.52058594 6.79169922 0.4140625 8.30078125 C0 11 0 11 -2 14 C-2 10.04 -2 6.08 -2 2 C-1.34 2 -0.68 2 0 2 C0 1.34 0 0.68 0 0 Z " fill="#FDDFD6" transform="translate(85,133)"/>
<path d="M0 0 C0.33 1.98 0.66 3.96 1 6 C0.34 6 -0.32 6 -1 6 C-1.33 7.32 -1.66 8.64 -2 10 C-2.33 9.34 -2.66 8.68 -3 8 C-3.66 8 -4.32 8 -5 8 C-4.40138258 5.64828869 -3.73075648 3.3140622 -3 1 C-1 0 -1 0 0 0 Z " fill="#0F2746" transform="translate(71,136)"/>
<path d="M0 0 C0.99 0.495 0.99 0.495 2 1 C2.99 0.67 3.98 0.34 5 0 C4.67 2.64 4.34 5.28 4 8 C3.34 8 2.68 8 2 8 C-0.1519437 4.77208445 -0.20086443 3.71599191 0 0 Z " fill="#DA403A" transform="translate(107,90)"/>
<path d="M0 0 C0.99020864 3.20142644 1.0200144 5.79985601 0.6875 9.125 C0.60886719 9.99382812 0.53023438 10.86265625 0.44921875 11.7578125 C0 14 0 14 -2 16 C-3.26977059 12.19068824 -2.52074507 10.18381007 -1.5625 6.3125 C-1.27503906 5.13300781 -0.98757812 3.95351562 -0.69140625 2.73828125 C-0.46324219 1.83464844 -0.23507813 0.93101562 0 0 Z " fill="#D25957" transform="translate(117,136)"/>
<path d="M0 0 C0.90550946 3.01150495 1.06723758 5.43770987 0.75 8.5625 C0.68296875 9.32691406 0.6159375 10.09132812 0.546875 10.87890625 C-0.09694852 13.37602176 -1.05228884 14.36120002 -3 16 C-2.40984815 10.49191603 -1.43336231 5.35121931 0 0 Z " fill="#DB6360" transform="translate(10,122)"/>
<path d="M0 0 C0.66 0 1.32 0 2 0 C2.66 3.3 3.32 6.6 4 10 C3.01 10 2.02 10 1 10 C1 8.35 1 6.7 1 5 C0.34 5.66 -0.32 6.32 -1 7 C-0.67 4.69 -0.34 2.38 0 0 Z " fill="#DDCBD0" transform="translate(152,54)"/>
<path d="M0 0 C1.73745313 2.65728125 2.00831972 3.89600355 1.75 7.125 C1 10 1 10 -1 12 C-1.02698189 10.37509046 -1.04638757 8.75005367 -1.0625 7.125 C-1.07410156 6.22007812 -1.08570312 5.31515625 -1.09765625 4.3828125 C-1 2 -1 2 0 0 Z " fill="#382038" transform="translate(80,148)"/>
<path d="M0 0 C3.00617269 3.00617269 2.59585316 5.82381598 3 10 C2.01 10 1.02 10 0 10 C-0.19412181 8.52168779 -0.38012131 7.04230684 -0.5625 5.5625 C-0.66691406 4.73878906 -0.77132812 3.91507812 -0.87890625 3.06640625 C-0.91886719 2.38449219 -0.95882812 1.70257813 -1 1 C-0.67 0.67 -0.34 0.34 0 0 Z " fill="#E9DEE0" transform="translate(137,120)"/>
<path d="M0 0 C0.99 0.66 1.98 1.32 3 2 C3 2.66 3 3.32 3 4 C3.66 4 4.32 4 5 4 C5 4.66 5 5.32 5 6 C4.01 6.33 3.02 6.66 2 7 C-0.2636564 5.59554165 -2.0208685 3.8032087 -4 2 C-2.68 1.34 -1.36 0.68 0 0 Z " fill="#FAD6D6" transform="translate(82,27)"/>
<path d="M0 0 C0 0.33 0 0.66 0 1 C-4.29 1.66 -8.58 2.32 -13 3 C-12.67 1.68 -12.34 0.36 -12 -1 C-7.31034294 -2.11658501 -4.46236469 -1.80619523 0 0 Z " fill="#FCF4F4" transform="translate(77,26)"/>
<path d="M0 0 C0.99 0 1.98 0 3 0 C4.35439668 2.70879335 4.06501451 5.00933268 4 8 C3.01 8.495 3.01 8.495 2 9 C1.34 6.03 0.68 3.06 0 0 Z " fill="#17253C" transform="translate(154,54)"/>
<path d="M0 0 C0 3.37465686 -0.81493079 5.53965992 -2 8.6875 C-2.556875 10.17830078 -2.556875 10.17830078 -3.125 11.69921875 C-3.558125 12.83810547 -3.558125 12.83810547 -4 14 C-4.33 14 -4.66 14 -5 14 C-5.383042 8.76509271 -4.3382052 5.58647943 -2 1 C-1.34 0.67 -0.68 0.34 0 0 Z " fill="#E43E39" transform="translate(126,34)"/>
<path d="M0 0 C0.66 0.99 1.32 1.98 2 3 C0.35 4.32 -1.3 5.64 -3 7 C-3.99 6.34 -4.98 5.68 -6 5 C-4.02 3.35 -2.04 1.7 0 0 Z " fill="#DAE3E7" transform="translate(186,168)"/>
<path d="M0 0 C-0.04125 0.78375 -0.0825 1.5675 -0.125 2.375 C-0.28728734 5.16116119 -0.28728734 5.16116119 2 7 C1.01 7.495 1.01 7.495 0 8 C-1.65 6.35 -3.3 4.7 -5 3 C-2.25 0 -2.25 0 0 0 Z " fill="#C24E54" transform="translate(77,167)"/>
<path d="M0 0 C0.99 0 1.98 0 3 0 C3.66 2.64 4.32 5.28 5 8 C4.01 8.66 3.02 9.32 2 10 C1.34 6.7 0.68 3.4 0 0 Z " fill="#29314A" transform="translate(59,120)"/>
<path d="M0 0 C0.33 0 0.66 0 1 0 C0.49202991 4.3177458 -0.19682779 8.03302114 -2 12 C-2.33 12 -2.66 12 -3 12 C-3.34833144 7.12335991 -2.41685712 4.22949995 0 0 Z " fill="#FFF0EB" transform="translate(99,154)"/>
<path d="M0 0 C0.33 0 0.66 0 1 0 C0.48041715 4.37934119 -0.05675742 8.68803391 -1 13 C-1.33 13 -1.66 13 -2 13 C-2.05416188 11.39620659 -2.09286638 9.79188594 -2.125 8.1875 C-2.14820312 7.29417969 -2.17140625 6.40085938 -2.1953125 5.48046875 C-2 3 -2 3 0 0 Z " fill="#FDD8D0" transform="translate(114,144)"/>
<path d="M0 0 C0.99 0 1.98 0 3 0 C3.33 2.31 3.66 4.62 4 7 C3.01 7 2.02 7 1 7 C0.67 4.69 0.34 2.38 0 0 Z " fill="#263450" transform="translate(153,128)"/>
<path d="M0 0 C0.66 0.33 1.32 0.66 2 1 C1.34 4.3 0.68 7.6 0 11 C-0.66 10.67 -1.32 10.34 -2 10 C-2.25 3.375 -2.25 3.375 0 0 Z " fill="#B13F3F" transform="translate(154,42)"/>
<path d="M0 0 C-0.33 1.32 -0.66 2.64 -1 4 C-5.455 4.495 -5.455 4.495 -10 5 C-7.30495181 2.30495181 -3.91639523 0 0 0 Z " fill="#FCD5D0" transform="translate(42,171)"/>
<path d="M0 0 C0.33 0 0.66 0 1 0 C2.35384615 7.26153846 2.35384615 7.26153846 0.5625 11 C0.046875 11.66 -0.46875 12.32 -1 13 C-2.12758089 9.61725734 -1.81750262 8.23221777 -1.0625 4.8125 C-0.86785156 3.91144531 -0.67320312 3.01039063 -0.47265625 2.08203125 C-0.23869141 1.05142578 -0.23869141 1.05142578 0 0 Z " fill="#FEF6EF" transform="translate(132,142)"/>
<path d="M0 0 C0.99 0 1.98 0 3 0 C3.33 2.64 3.66 5.28 4 8 C3.34 8 2.68 8 2 8 C-0.1519437 4.77208445 -0.20086443 3.71599191 0 0 Z " fill="#122648" transform="translate(186,145)"/>
<path d="M0 0 C1.5 1.1875 1.5 1.1875 3 3 C3.1875 5.6875 3.1875 5.6875 3 8 C1.68 8 0.36 8 -1 8 C-0.67 5.36 -0.34 2.72 0 0 Z " fill="#252E44" transform="translate(163,35)"/>
<path d="M0 0 C0.66 0.33 1.32 0.66 2 1 C1.67 3.31 1.34 5.62 1 8 C0.34 8 -0.32 8 -1 8 C-1.93065133 5.39417629 -2.14917407 4.35801776 -1.0625 1.75 C-0.711875 1.1725 -0.36125 0.595 0 0 Z " fill="#16253A" transform="translate(84,35)"/>
<path d="M0 0 C-1.26941497 3.91402949 -2.51167694 5.79072873 -6 8 C-5.62403791 5.21788056 -5.32681541 3.4120716 -3.5625 1.1875 C-2 0 -2 0 0 0 Z " fill="#CF5552" transform="translate(94,166)"/>
<path d="M0 0 C2.56616632 3.84924948 2.55097676 6.4349304 3 11 C1.5 10 1.5 10 0 8 C-0.27345479 5.28153765 -0.13491285 2.74322801 0 0 Z " fill="#E3DBE1" transform="translate(58,119)"/>
<path d="M0 0 C0.66 0 1.32 0 2 0 C2.33 2.64 2.66 5.28 3 8 C2.01 8.495 2.01 8.495 1 9 C-0.4783226 6.04335481 -0.06032783 3.25770263 0 0 Z " fill="#121E47" transform="translate(142,112)"/>
<path d="M0 0 C3.875 4.75 3.875 4.75 5 7 C2.03 6.505 2.03 6.505 -1 6 C-0.67 4.02 -0.34 2.04 0 0 Z " fill="#EED3D8" transform="translate(70,166)"/>
<path d="M0 0 C1.98 1.65 3.96 3.3 6 5 C5.67 5.66 5.34 6.32 5 7 C3.68 6.67 2.36 6.34 1 6 C0.67 4.02 0.34 2.04 0 0 Z " fill="#D35656" transform="translate(18,155)"/>
<path d="M0 0 C0.33 0 0.66 0 1 0 C1.33 2.97 1.66 5.94 2 9 C0.68 9.33 -0.64 9.66 -2 10 C-1.34 6.7 -0.68 3.4 0 0 Z " fill="#30405B" transform="translate(157,135)"/>
<path d="M0 0 C0.33 0.66 0.66 1.32 1 2 C1.99 1.67 2.98 1.34 4 1 C4 2.32 4 3.64 4 5 C2.35 5 0.7 5 -1 5 C-0.67 3.35 -0.34 1.7 0 0 Z " fill="#243452" transform="translate(173,82)"/>
<path d="M0 0 C0.66 0.66 1.32 1.32 2 2 C1.34 4.31 0.68 6.62 0 9 C-2 6 -2 6 -2 2 C-1.34 2 -0.68 2 0 2 C0 1.34 0 0.68 0 0 Z " fill="#E7EEF6" transform="translate(171,48)"/>
<path d="M0 0 C0.66 0 1.32 0 2 0 C2 0.99 2 1.98 2 3 C1.34 3.66 0.68 4.32 0 5 C-1.01241685 6.32392972 -2.01439389 7.65599167 -3 9 C-2.25 2.25 -2.25 2.25 0 0 Z " fill="#23131F" transform="translate(161,35)"/>
<path d="M0 0 C0.33 0 0.66 0 1 0 C1 3.96 1 7.92 1 12 C0.67 12 0.34 12 0 12 C-2.21538462 4.61538462 -2.21538462 4.61538462 -1.125 1.5 C-0.75375 1.005 -0.3825 0.51 0 0 Z " fill="#36435D" transform="translate(191,147)"/>
<path d="M0 0 C0.33 0 0.66 0 1 0 C2.35384615 6.4 2.35384615 6.4 0.5625 9.4375 C0.046875 9.953125 -0.46875 10.46875 -1 11 C-1.125 3.375 -1.125 3.375 0 0 Z " fill="#FBD5CD" transform="translate(22,138)"/>
<path d="M0 0 C2 3 2 3 1.8125 5.4375 C1 8 1 8 -2 12 C-1.34 8.04 -0.68 4.08 0 0 Z " fill="#FEF4EB" transform="translate(57,125)"/>
<path d="M0 0 C0.33 0 0.66 0 1 0 C1.21278058 4.46839215 0.59138085 7.82262526 -1 12 C-1.33 12 -1.66 12 -2 12 C-2 9.36 -2 6.72 -2 4 C-1.34 4 -0.68 4 0 4 C0 2.68 0 1.36 0 0 Z " fill="#1C192E" transform="translate(66,92)"/>
<path d="M0 0 C1.42944945 2.35438733 2.08661261 3.48032433 1.625 6.25 C1.41875 6.8275 1.2125 7.405 1 8 C-0.32 7.34 -1.64 6.68 -3 6 C-2.01 4.02 -1.02 2.04 0 0 Z " fill="#41506B" transform="translate(174,74)"/>
<path d="M0 0 C2.12046792 3.53411321 2.53199289 6.94393835 3 11 C2.67 10.01 2.34 9.02 2 8 C1.34 8 0.68 8 0 8 C-0.98120464 4.94736336 -0.98120464 3.05263664 0 0 Z " fill="#424E6C" transform="translate(94,71)"/>
<path d="M0 0 C2.0625 0.4375 2.0625 0.4375 4 1 C3.01 1.495 3.01 1.495 2 2 C2.33 3.65 2.66 5.3 3 7 C2.34 7 1.68 7 1 7 C0.34 5.02 -0.32 3.04 -1 1 C-0.67 0.67 -0.34 0.34 0 0 Z " fill="#F5332C" transform="translate(152,30)"/>
</svg>
