<svg width="16" height="16" viewBox="0 0 16 16" fill="none" xmlns="http://www.w3.org/2000/svg">
<g clip-path="url(#clip0_3572_51)">
<path d="M5.966 6.15551V5.20179C6.06019 5.19591 6.15439 5.19002 6.24858 5.19002C8.86247 5.1076 10.5756 7.43891 10.5756 7.43891C10.5756 7.43891 8.72707 10.0057 6.7431 10.0057C6.47818 10.0057 6.21915 9.96449 5.97189 9.88207V6.9856C6.99036 7.10923 7.19641 7.55665 7.80279 8.57513L9.16272 7.43302C9.16272 7.43302 8.16779 6.13196 6.49584 6.13196C6.31923 6.12607 6.14261 6.13785 5.966 6.15551ZM5.966 3V4.42469L6.24858 4.40703C9.88095 4.2834 12.2535 7.38592 12.2535 7.38592C12.2535 7.38592 9.53361 10.6945 6.70189 10.6945C6.45463 10.6945 6.21326 10.671 5.97189 10.6297V11.5128C6.17205 11.5364 6.3781 11.554 6.57826 11.554C9.2157 11.554 11.1231 10.2059 12.9717 8.61634C13.2778 8.8636 14.5318 9.4582 14.7908 9.71723C13.0365 11.189 8.94489 12.3723 6.62536 12.3723C6.40165 12.3723 6.18971 12.3606 5.97777 12.337V13.5792H15.9977V3L5.966 3ZM5.966 9.88207V10.6356C3.52872 10.2 2.8517 7.66262 2.8517 7.66262C2.8517 7.66262 4.02324 6.36745 5.966 6.15551V6.97971H5.96011C4.94163 6.85608 4.14098 7.8098 4.14098 7.8098C4.14098 7.8098 4.59429 9.41699 5.966 9.88207ZM1.63895 7.55665C1.63895 7.55665 3.0813 5.4255 5.97189 5.20179V4.42469C2.76928 4.68372 0.00231934 7.39181 0.00231934 7.39181C0.00231934 7.39181 1.5683 11.9249 5.966 12.337V11.5128C2.73984 11.1125 1.63895 7.55665 1.63895 7.55665Z" fill="#76B900"/>
</g>
<defs>
<clipPath id="clip0_3572_51">
<rect width="16" height="10.5792" fill="white" transform="translate(0 3)"/>
</clipPath>
</defs>
</svg>
