<svg width="512" height="512" viewBox="0 0 512 512" fill="none" xmlns="http://www.w3.org/2000/svg">
<rect width="512" height="512" fill="#56A082"/>
<path fill-rule="evenodd" clip-rule="evenodd" d="M387.217 229.782C390.622 219.687 391.803 208.975 390.678 198.38C389.552 187.786 386.148 177.561 380.699 168.406C364.103 139.906 330.761 125.234 298.197 132.134C290.984 124.148 282.163 117.78 272.312 113.449C262.462 109.117 251.806 106.92 241.046 107.002C207.759 106.934 178.222 128.084 167.98 159.338C157.454 161.445 147.495 165.766 138.766 172.015C130.036 178.264 122.735 186.297 117.347 195.583C109.203 209.413 105.723 225.496 107.419 241.456C109.116 257.417 115.9 272.408 126.77 284.218C123.361 294.314 122.178 305.028 123.3 315.625C124.423 326.222 127.826 336.45 133.275 345.608C149.871 374.107 183.213 388.766 215.777 381.88C222.987 389.864 231.807 396.23 241.655 400.559C251.503 404.889 262.157 407.083 272.915 406.998C306.229 407.079 335.78 385.916 346.021 354.635C356.555 352.528 366.52 348.204 375.255 341.95C383.989 335.697 391.293 327.656 396.681 318.363C404.81 304.533 408.279 288.457 406.578 272.506C404.876 256.555 398.094 241.573 387.231 229.769L387.217 229.782ZM272.928 387.389C259.627 387.421 246.729 382.821 236.45 374.38C236.914 374.134 237.718 373.698 238.25 373.371L298.797 338.871C300.308 338.028 301.566 336.795 302.439 335.301C303.312 333.807 303.768 332.106 303.761 330.376V246.159L329.357 260.736C329.63 260.873 329.807 261.132 329.848 261.418V331.167C329.807 362.176 304.347 387.321 272.928 387.389ZM150.512 335.817C143.838 324.466 141.431 311.107 143.721 298.14C144.157 298.413 144.948 298.89 145.507 299.204L206.054 333.703C209.122 335.476 212.927 335.476 216.009 333.703L289.92 291.595V320.749C289.926 320.899 289.895 321.047 289.831 321.183C289.767 321.318 289.671 321.436 289.551 321.526L228.35 356.38C201.09 371.871 166.276 362.653 150.525 335.79L150.512 335.817ZM134.57 205.401C141.27 193.974 151.766 185.259 164.23 180.774L164.203 182.833V251.832C164.195 253.564 164.651 255.267 165.524 256.764C166.397 258.26 167.655 259.495 169.167 260.341L243.078 302.436L217.495 317.026C217.369 317.107 217.224 317.156 217.074 317.168C216.924 317.18 216.774 317.155 216.636 317.094L155.421 282.2C128.216 266.654 118.888 232.318 134.557 205.428L134.57 205.401ZM344.807 253.673L270.896 211.564L296.479 197.001C296.604 196.917 296.748 196.866 296.898 196.852C297.048 196.838 297.199 196.861 297.338 196.919L358.553 231.787C385.799 247.332 395.14 281.722 379.404 308.599C372.698 320.019 362.211 328.735 349.757 333.24V262.182C349.766 260.453 349.312 258.753 348.441 257.259C347.571 255.765 346.316 254.531 344.807 253.686V253.673ZM370.267 215.86C369.671 215.497 369.071 215.143 368.467 214.796L307.92 180.297C306.408 179.427 304.694 178.969 302.949 178.969C301.205 178.969 299.491 179.427 297.979 180.297L224.068 222.405V193.251C224.062 193.101 224.092 192.952 224.157 192.817C224.221 192.682 224.317 192.564 224.436 192.474L285.624 157.633C312.897 142.129 347.739 151.361 363.449 178.265C370.09 189.624 372.517 202.933 370.267 215.86ZM210.159 267.813L184.563 253.25C184.429 253.185 184.314 253.087 184.228 252.965C184.142 252.843 184.089 252.702 184.072 252.555V182.806C184.085 151.756 209.613 126.597 241.087 126.625C254.396 126.625 267.269 131.234 277.51 139.634C277.047 139.879 276.256 140.315 275.724 140.629L215.177 175.128C213.663 175.97 212.403 177.202 211.528 178.696C210.652 180.19 210.194 181.892 210.2 183.624L210.159 267.8V267.813ZM224.068 238.25L256.987 219.5L289.906 238.25V275.75L256.987 294.499L224.054 275.75V238.25H224.068Z" fill="#FCFCFC"/>
</svg>
