<svg width="512" height="512" viewBox="0 0 512 512" fill="none" xmlns="http://www.w3.org/2000/svg">
<rect width="512" height="512" fill="white"/>
<path fill-rule="evenodd" clip-rule="evenodd" d="M324.617 113L428 171.78V173.026L323.557 231.176L323.801 200.863L312.045 200.433C296.881 200.032 288.977 200.462 279.569 202.008C264.334 204.514 250.387 210.27 234.507 221.368L203.492 242.918C199.426 245.71 196.404 247.729 193.755 249.433L186.381 254.044L180.696 257.395L186.209 260.688L193.798 265.528C200.614 270.025 210.551 276.926 232.474 292.248C248.368 303.345 262.3 309.102 277.536 311.607L281.832 312.252C291.769 313.555 301.52 313.598 322.283 312.724L322.598 281.809L425.981 340.59V341.835L321.538 400L321.739 373.338L312.646 373.653C292.8 374.254 282.046 373.681 267.713 371.333C243.457 367.324 221.033 358.073 197.822 341.85L166.921 320.371C163.367 317.92 159.763 315.543 156.111 313.24L149.424 309.231C145.812 307.15 142.185 305.097 138.541 303.073C125.64 295.899 92.0616 287.107 84 287.107V226.566L86.0047 226.623C94.0806 226.523 127.673 217.716 140.546 210.528L155.094 202.223L161.366 198.3C167.494 194.29 176.716 187.904 199.827 171.766C223.038 155.542 245.447 146.278 269.718 142.283C286.213 139.562 297.983 139.233 324.33 140.307L324.617 113Z" fill="black"/>
</svg>
