<svg width="20" height="20" viewBox="0 0 20 20" fill="none" xmlns="http://www.w3.org/2000/svg">
<rect width="20" height="20" rx="10" fill="white"/>
<path d="M10.4028 2.89331C10.6648 3.35331 10.9255 3.81464 11.1855 4.27664C11.196 4.29512 11.2112 4.31047 11.2296 4.32113C11.248 4.33179 11.2689 4.33738 11.2902 4.33731H14.9915C15.1075 4.33731 15.2062 4.41064 15.2888 4.55531L16.2582 6.26864C16.3848 6.49331 16.4182 6.58731 16.2742 6.82664C16.1008 7.11331 15.9322 7.40264 15.7675 7.69331L15.5228 8.13198C15.4522 8.26264 15.3742 8.31864 15.4962 8.47331L17.2642 11.5646C17.3788 11.7653 17.3382 11.894 17.2355 12.078C16.9442 12.6013 16.6475 13.1206 16.3455 13.638C16.2395 13.8193 16.1108 13.888 15.8922 13.8846C15.3742 13.874 14.8575 13.878 14.3408 13.8953C14.3298 13.8959 14.319 13.8992 14.3096 13.9051C14.3001 13.9109 14.2923 13.919 14.2868 13.9286C13.6907 14.9848 13.0896 16.0382 12.4835 17.0886C12.3708 17.284 12.2302 17.3306 12.0002 17.3313C11.3355 17.3333 10.6655 17.334 9.98883 17.3326C9.92583 17.3325 9.86399 17.3157 9.80956 17.284C9.75513 17.2522 9.71004 17.2067 9.67883 17.152L8.78883 15.6033C8.78365 15.5932 8.7757 15.5847 8.7659 15.5789C8.75611 15.5732 8.74487 15.5703 8.7335 15.5706H5.3215C5.1315 15.5906 4.95283 15.57 4.78483 15.5093L3.71616 13.6626C3.68456 13.608 3.66781 13.546 3.66757 13.4828C3.66734 13.4197 3.68363 13.3576 3.71483 13.3026L4.5195 11.8893C4.53096 11.8693 4.53699 11.8467 4.53699 11.8236C4.53699 11.8006 4.53096 11.778 4.5195 11.758C4.10034 11.0323 3.68367 10.3052 3.2695 9.57664L2.74283 8.64664C2.63616 8.43998 2.6275 8.31598 2.80616 8.00331C3.11616 7.46131 3.42416 6.91998 3.73083 6.37931C3.81883 6.22331 3.9335 6.15664 4.12016 6.15598C4.69549 6.15355 5.27083 6.15333 5.84616 6.15531C5.8607 6.1552 5.87494 6.15126 5.88746 6.14388C5.89999 6.13651 5.91035 6.12596 5.9175 6.11331L7.78816 2.84998C7.81651 2.80033 7.85744 2.75904 7.90683 2.73024C7.95622 2.70145 8.01233 2.68619 8.0695 2.68598C8.41883 2.68531 8.7715 2.68598 9.12483 2.68198L9.80283 2.66664C10.0302 2.66464 10.2855 2.68798 10.4028 2.89331ZM8.11483 3.16198C8.1078 3.16197 8.1009 3.16382 8.09482 3.16733C8.08873 3.17084 8.08368 3.17589 8.08016 3.18198L6.1695 6.52531C6.16032 6.54107 6.14719 6.55415 6.13141 6.56327C6.11562 6.57239 6.09773 6.57723 6.0795 6.57731H4.16883C4.1315 6.57731 4.12216 6.59398 4.1415 6.62664L8.01483 13.3973C8.0315 13.4253 8.0235 13.4386 7.99216 13.4393L6.12883 13.4493C6.10159 13.4484 6.07464 13.4552 6.05107 13.4688C6.02749 13.4825 6.00823 13.5026 5.9955 13.5266L5.1155 15.0666C5.08616 15.1186 5.1015 15.1453 5.16083 15.1453L8.9715 15.1506C9.00216 15.1506 9.02483 15.164 9.04083 15.1913L9.97616 16.8273C10.0068 16.8813 10.0375 16.882 10.0688 16.8273L13.4062 10.9873L13.9282 10.066C13.9313 10.0603 13.936 10.0555 13.9416 10.0522C13.9472 10.049 13.9536 10.0472 13.9602 10.0472C13.9667 10.0472 13.9731 10.049 13.9787 10.0522C13.9843 10.0555 13.989 10.0603 13.9922 10.066L14.9415 11.7526C14.9486 11.7653 14.959 11.7758 14.9715 11.783C14.9841 11.7903 14.9983 11.7941 15.0128 11.794L16.8548 11.7806C16.8596 11.7807 16.8642 11.7795 16.8683 11.7771C16.8724 11.7748 16.8758 11.7714 16.8782 11.7673C16.8804 11.7632 16.8816 11.7586 16.8816 11.754C16.8816 11.7493 16.8804 11.7447 16.8782 11.7406L14.9448 8.34998C14.9379 8.33865 14.9342 8.32561 14.9342 8.31231C14.9342 8.29901 14.9379 8.28598 14.9448 8.27464L15.1402 7.93664L15.8868 6.61864C15.9028 6.59131 15.8948 6.57731 15.8635 6.57731H8.1335C8.09416 6.57731 8.08483 6.55998 8.10483 6.52598L9.06083 4.85598C9.06799 4.8446 9.07179 4.83143 9.07179 4.81798C9.07179 4.80453 9.06799 4.79136 9.06083 4.77998L8.15016 3.18264C8.14668 3.17634 8.14156 3.17109 8.13534 3.16745C8.12912 3.16381 8.12203 3.16192 8.11483 3.16198ZM12.3082 8.50864C12.3388 8.50864 12.3468 8.52198 12.3308 8.54864L11.7762 9.52531L10.0342 12.582C10.0309 12.5879 10.0261 12.5929 10.0202 12.5963C10.0143 12.5997 10.0076 12.6014 10.0008 12.6013C9.99407 12.6013 9.98743 12.5995 9.98158 12.5961C9.97573 12.5927 9.97088 12.5878 9.9675 12.582L7.6655 8.56064C7.65216 8.53798 7.65883 8.52598 7.68416 8.52464L7.82816 8.51664L12.3095 8.50864H12.3082Z" fill="url(#paint0_linear_5777_46)"/>
<defs>
<linearGradient id="paint0_linear_5777_46" x1="2.6665" y1="2.66653" x2="17.3334" y2="2.66653" gradientUnits="userSpaceOnUse">
<stop stop-color="#6336E7" stop-opacity="0.84"/>
<stop offset="1" stop-color="#6F69F7" stop-opacity="0.84"/>
</linearGradient>
</defs>
</svg>
