<?xml version="1.0" encoding="UTF-8"?>
<svg version="1.1" xmlns="http://www.w3.org/2000/svg" width="150" height="150">
<path d="M0 0 C49.5 0 99 0 150 0 C150 49.5 150 99 150 150 C100.5 150 51 150 0 150 C0 100.5 0 51 0 0 Z " fill="#F0EDE6" transform="translate(0,0)"/>
<path d="M0 0 C1.39120471 0.00015906 2.78241534 0.00585033 4.17358398 0.01586914 C4.90463852 0.01728409 5.63569305 0.01869904 6.38890076 0.02015686 C8.73253406 0.02577131 11.07607313 0.03832617 13.41967773 0.05102539 C15.00496282 0.05603853 16.59024939 0.06060176 18.17553711 0.06469727 C22.06945383 0.07574542 25.96329979 0.09301967 29.85717773 0.11352539 C30.35217773 4.56852539 30.35217773 4.56852539 30.85717773 9.11352539 C31.47592773 7.72133789 31.47592773 7.72133789 32.10717773 6.30102539 C33.87538437 3.08036331 34.76574533 1.93987016 37.85717773 0.11352539 C42.10223968 -0.56418104 46.37620038 -0.4419091 50.66967773 -0.44897461 C51.83305664 -0.48571289 52.99643555 -0.52245117 54.19506836 -0.56030273 C60.75981464 -0.59392978 64.92977895 -0.20692038 69.72851562 4.47290039 C71.75724312 7.42186183 71.47727007 9.70301754 70.85717773 13.11352539 C69.41853832 16.83706269 68.39860815 17.86190345 64.75561523 19.55493164 C63.45972556 20.08335267 62.15998299 20.60239204 60.85717773 21.11352539 C59.84844604 21.51015381 59.84844604 21.51015381 58.81933594 21.91479492 C56.73254355 22.72339322 54.63991226 23.51458426 52.54467773 24.30102539 C51.82989258 24.57366211 51.11510742 24.84629883 50.37866211 25.12719727 C45.09672191 27.11352539 45.09672191 27.11352539 42.85717773 27.11352539 C42.85717773 24.14352539 42.85717773 21.17352539 42.85717773 18.11352539 C45.64752819 17.10971623 48.43932628 16.11033089 51.23217773 15.11352539 C52.42327148 14.68426758 52.42327148 14.68426758 53.63842773 14.24633789 C54.77924805 13.8402832 54.77924805 13.8402832 55.94311523 13.42602539 C56.64484863 13.1746582 57.34658203 12.92329102 58.06958008 12.66430664 C59.85717773 12.11352539 59.85717773 12.11352539 61.85717773 12.11352539 C61.85717773 11.12352539 61.85717773 10.13352539 61.85717773 9.11352539 C54.92717773 9.11352539 47.99717773 9.11352539 40.85717773 9.11352539 C40.85717773 16.04352539 40.85717773 22.97352539 40.85717773 30.11352539 C50.42717773 30.11352539 59.99717773 30.11352539 69.85717773 30.11352539 C69.85717773 32.75352539 69.85717773 35.39352539 69.85717773 38.11352539 C65.23077621 38.21254287 60.60499386 38.28506188 55.9777832 38.33325195 C54.4044317 38.35334419 52.83115465 38.38062338 51.25805664 38.4152832 C48.99403501 38.46391033 46.73100201 38.48651674 44.46655273 38.50415039 C43.76536316 38.52479553 43.06417358 38.54544067 42.34173584 38.56671143 C38.80461192 38.56832965 37.16244494 38.3631581 34.3815918 36.08911133 C33.62700684 35.11119629 33.62700684 35.11119629 32.85717773 34.11352539 C31.74881351 35.99668698 31.74881351 35.99668698 30.85717773 38.11352539 C31.18717773 38.77352539 31.51717773 39.43352539 31.85717773 40.11352539 C30.86717773 40.77352539 29.87717773 41.43352539 28.85717773 42.11352539 C25.90068081 44.84221661 23.07799651 47.70755465 20.23217773 50.55102539 C19.44327148 51.32768555 18.65436523 52.1043457 17.84155273 52.90454102 C17.09131836 53.6528418 16.34108398 54.40114258 15.56811523 55.17211914 C14.88023926 55.85588623 14.19236328 56.53965332 13.48364258 57.24414062 C11.64182742 59.11935091 11.64182742 59.11935091 10.85717773 62.11352539 C12.34217773 62.60852539 12.34217773 62.60852539 13.85717773 63.11352539 C15.02783303 64.51831174 16.19372812 65.9275649 17.32592773 67.36352539 C19.64989553 70.01948859 22.35643674 72.17793139 25.08764648 74.40258789 C26.9358506 76.18959319 27.85658518 77.76341569 28.85717773 80.11352539 C24.5650234 81.10402254 21.14249786 81.21041861 16.85717773 80.11352539 C11.56113753 76.45502401 6.63160115 71.32734756 2.85717773 66.11352539 C2.85717773 65.45352539 2.85717773 64.79352539 2.85717773 64.11352539 C2.19717773 64.11352539 1.53717773 64.11352539 0.85717773 64.11352539 C0.85717773 69.39352539 0.85717773 74.67352539 0.85717773 80.11352539 C-2.44282227 80.11352539 -5.74282227 80.11352539 -9.14282227 80.11352539 C-9.14282227 67.24352539 -9.14282227 54.37352539 -9.14282227 41.11352539 C-6.17282227 41.11352539 -3.20282227 41.11352539 -0.14282227 41.11352539 C-0.14282227 40.45352539 -0.14282227 39.79352539 -0.14282227 39.11352539 C-3.11282227 39.11352539 -6.08282227 39.11352539 -9.14282227 39.11352539 C-9.26676648 34.50547018 -9.35731901 29.89839258 -9.41748047 25.2890625 C-9.44256773 23.72248425 -9.47664642 22.1560224 -9.52001953 20.58984375 C-9.58093453 18.3331223 -9.60908725 16.07795245 -9.63110352 13.82055664 C-9.65690994 13.12452835 -9.68271637 12.42850006 -9.70930481 11.71138 C-9.71156893 7.752699 -9.26948218 6.26333968 -6.67480469 3.19433594 C-5.83925049 2.50766846 -5.00369629 1.82100098 -4.14282227 1.11352539 C-3.14282227 0.11352539 -3.14282227 0.11352539 0 0 Z " fill="#EDEAE4" transform="translate(44.142822265625,34.886474609375)"/>
<path d="M0 0 C4.30491463 -0.12418758 8.6088635 -0.21461002 12.91503906 -0.2746582 C14.37778907 -0.29970529 15.84041512 -0.33375392 17.30273438 -0.37719727 C19.41307219 -0.43829356 21.52174752 -0.46630435 23.6328125 -0.48828125 C24.90012207 -0.51446533 26.16743164 -0.54064941 27.47314453 -0.56762695 C32.12737114 0.18144385 33.69364914 1.70326603 37 5 C39.03814534 9.07629068 38.27315243 14.26962308 38.3125 18.75 C38.34150391 19.83539063 38.37050781 20.92078125 38.40039062 22.0390625 C38.45041448 28.33437256 38.33944999 32.2774274 34 37 C29.25124742 40.16583506 24.20923392 39.36871145 18.625 39.375 C16.91957031 39.41173828 16.91957031 39.41173828 15.1796875 39.44921875 C6.82488516 39.47863707 6.82488516 39.47863707 2.8359375 37.1640625 C-0.27693488 33.49484698 -1.64989636 30.9841834 -1.49609375 26.0625 C-0.69783074 22.74373727 1.13162722 21.24427719 3.8046875 19.2421875 C6.93381987 17.47161082 10.09924861 16.54247908 13.5703125 15.65625 C15.81185977 15.05081601 17.77348101 14.28659464 19.875 13.3125 C23 12 23 12 27 12 C27 14.64 27 17.28 27 20 C26.45996338 20.19634033 25.91992676 20.39268066 25.36352539 20.5949707 C22.92531557 21.48897221 20.49401394 22.40045288 18.0625 23.3125 C16.78729492 23.7755957 16.78729492 23.7755957 15.48632812 24.24804688 C14.67744141 24.55419922 13.86855469 24.86035156 13.03515625 25.17578125 C12.2862915 25.45333252 11.53742676 25.73088379 10.76586914 26.0168457 C8.64603495 26.93681225 8.64603495 26.93681225 8 30 C14.93 30 21.86 30 29 30 C29 23.07 29 16.14 29 9 C19.43 9 9.86 9 0 9 C0 6.03 0 3.06 0 0 Z " fill="#3C3C3A" transform="translate(77,76)"/>
<path d="M0 0 C1.17691406 -0.04576172 2.35382813 -0.09152344 3.56640625 -0.13867188 C13.36069666 -0.26536967 13.36069666 -0.26536967 17.671875 3.2421875 C20.14040153 5.66268526 20.36793073 6.39720516 21 10 C20.33099474 13.6795289 19.81348609 15.6057097 17.375 18.4375 C15.05140093 19.51735901 12.75627551 20.5032473 10.375 21.4375 C9.70251221 21.70191895 9.03002441 21.96633789 8.3371582 22.23876953 C6.25036581 23.04736783 4.15773453 23.83855886 2.0625 24.625 C1.34771484 24.89763672 0.63292969 25.17027344 -0.10351562 25.45117188 C-5.38545583 27.4375 -5.38545583 27.4375 -7.625 27.4375 C-7.625 24.4675 -7.625 21.4975 -7.625 18.4375 C-4.83464954 17.43369084 -2.04285145 16.4343055 0.75 15.4375 C1.5440625 15.15132812 2.338125 14.86515625 3.15625 14.5703125 C3.91679688 14.29960938 4.67734375 14.02890625 5.4609375 13.75 C6.5135376 13.37294922 6.5135376 13.37294922 7.58740234 12.98828125 C9.375 12.4375 9.375 12.4375 11.375 12.4375 C11.375 11.4475 11.375 10.4575 11.375 9.4375 C4.445 9.4375 -2.485 9.4375 -9.625 9.4375 C-9.625 16.3675 -9.625 23.2975 -9.625 30.4375 C-0.055 30.4375 9.515 30.4375 19.375 30.4375 C19.375 33.0775 19.375 35.7175 19.375 38.4375 C14.7486342 38.5612709 10.12323539 38.65191516 5.49560547 38.7121582 C3.92219249 38.73727448 2.34889588 38.77137472 0.77587891 38.81469727 C-1.48824772 38.87548399 -3.75083022 38.90373582 -6.015625 38.92578125 C-7.06740936 38.96449089 -7.06740936 38.96449089 -8.14044189 39.00398254 C-11.91232977 39.00613958 -13.3214374 38.74011051 -16.03808594 36.03198242 C-19.41659427 30.50838119 -18.92148048 25.51006452 -19 19.125 C-19.03738281 17.98353516 -19.07476562 16.84207031 -19.11328125 15.66601562 C-19.20010915 7.41254137 -19.20010915 7.41254137 -17.52050781 4.56494141 C-16.1640625 3.20703125 -16.1640625 3.20703125 -13.625 1.4375 C-10.96617526 -1.22132474 -3.56664678 0.05554928 0 0 Z " fill="#3A3937" transform="translate(94.625,34.5625)"/>
<path d="M0 0 C0.639375 0.804375 1.27875 1.60875 1.9375 2.4375 C3.40603502 4.2750504 3.40603502 4.2750504 5 6 C7.44608998 6.15980437 9.86731058 6.25929447 12.31640625 6.31640625 C13.04746078 6.33718735 13.77851532 6.35796844 14.53172302 6.37937927 C16.87521656 6.44495024 19.21882539 6.50379432 21.5625 6.5625 C23.14779855 6.60567808 24.73308529 6.64929213 26.31835938 6.69335938 C30.21212037 6.8006392 34.10599772 6.9018849 38 7 C38 7.33 38 7.66 38 8 C25.79 8.33 13.58 8.66 1 9 C1 12.3 1 15.6 1 19 C10.57 19 20.14 19 30 19 C30 25.93 30 32.86 30 40 C23.07 40 16.14 40 9 40 C9.33 38.68 9.66 37.36 10 36 C12.67418068 34.70881199 15.14550654 33.69594765 17.9375 32.75 C18.67935547 32.481875 19.42121094 32.21375 20.18554688 31.9375 C25.63723693 30 25.63723693 30 28 30 C28 27.36 28 24.72 28 22 C12.89770793 25.48661198 12.89770793 25.48661198 1 34 C0.46728405 38.64223901 0.37856586 41.57251326 3 45.5 C3.66 46.325 4.32 47.15 5 48 C-1.34823202 50.30844801 -7.29481414 50.19818283 -14 50 C-14 49.67 -14 49.34 -14 49 C-10.37 49 -6.74 49 -3 49 C-5.23099752 45.96584337 -7.54864832 43.45305631 -10.4375 41.0625 C-12.82424647 39.08549541 -14.86346778 37.09784162 -16.8125 34.6875 C-18.71869511 31.96924803 -18.71869511 31.96924803 -21 31 C-20.42619828 27.33622257 -19.02730342 25.67232775 -16.40234375 23.109375 C-15.68369141 22.40039062 -14.96503906 21.69140625 -14.22460938 20.9609375 C-13.46986328 20.23132813 -12.71511719 19.50171875 -11.9375 18.75 C-11.17888672 18.00492188 -10.42027344 17.25984375 -9.63867188 16.4921875 C-7.76578338 14.65463653 -5.88375275 12.82641191 -4 11 C-7.3 10.67 -10.6 10.34 -14 10 C-14 9.67 -14 9.34 -14 9 C-9.38 9 -4.76 9 0 9 C-0.66 8.67 -1.32 8.34 -2 8 C-1.649375 7.38125 -1.29875 6.7625 -0.9375 6.125 C-0.628125 5.42375 -0.31875 4.7225 0 4 C-0.33 3.34 -0.66 2.68 -1 2 C-0.67 1.34 -0.34 0.68 0 0 Z " fill="#EBE9E2" transform="translate(76,66)"/>
<path d="M0 0 C1.39120471 0.00015906 2.78241534 0.00585033 4.17358398 0.01586914 C4.90463852 0.01728409 5.63569305 0.01869904 6.38890076 0.02015686 C8.73253406 0.02577131 11.07607313 0.03832617 13.41967773 0.05102539 C15.00496282 0.05603853 16.59024939 0.06060176 18.17553711 0.06469727 C22.06945383 0.07574542 25.96329979 0.09301967 29.85717773 0.11352539 C29.85717773 3.08352539 29.85717773 6.05352539 29.85717773 9.11352539 C19.95717773 9.11352539 10.05717773 9.11352539 -0.14282227 9.11352539 C-0.14282227 19.01352539 -0.14282227 28.91352539 -0.14282227 39.11352539 C-3.11282227 39.11352539 -6.08282227 39.11352539 -9.14282227 39.11352539 C-9.26676648 34.50547018 -9.35731901 29.89839258 -9.41748047 25.2890625 C-9.44256773 23.72248425 -9.47664642 22.1560224 -9.52001953 20.58984375 C-9.58093453 18.3331223 -9.60908725 16.07795245 -9.63110352 13.82055664 C-9.65690994 13.12452835 -9.68271637 12.42850006 -9.70930481 11.71138 C-9.71156893 7.752699 -9.26948218 6.26333968 -6.67480469 3.19433594 C-5.83925049 2.50766846 -5.00369629 1.82100098 -4.14282227 1.11352539 C-3.14282227 0.11352539 -3.14282227 0.11352539 0 0 Z " fill="#3F3E3D" transform="translate(44.142822265625,34.886474609375)"/>
<path d="M0 0 C0.69222656 0.17402344 1.38445312 0.34804687 2.09765625 0.52734375 C-2.04715119 5.56832577 -6.49658852 10.19395074 -11.20629883 14.70629883 C-13.54073295 16.98224008 -14.85384664 18.38185241 -15.90234375 21.52734375 C-14.91234375 21.85734375 -13.92234375 22.18734375 -12.90234375 22.52734375 C-11.73168846 23.9321301 -10.56579337 25.34138326 -9.43359375 26.77734375 C-7.10962595 29.43330694 -4.40308475 31.59174975 -1.671875 33.81640625 C0.17632912 35.60341155 1.09706369 37.17723405 2.09765625 39.52734375 C-2.19387383 40.51769684 -5.6178524 40.62521558 -9.90234375 39.52734375 C-15.47733641 35.64392681 -21.83484852 29.66233421 -24.90234375 23.52734375 C-25.43396687 19.54874492 -25.75579758 16.97122871 -23.68554688 13.46875 C-21.94707557 11.34785635 -20.12161699 9.43579735 -18.15234375 7.52734375 C-17.47872803 6.85888428 -16.8051123 6.1904248 -16.11108398 5.50170898 C-10.95847079 0.73765152 -7.15886906 -0.99035738 0 0 Z " fill="#3D3C3B" transform="translate(70.90234375,75.47265625)"/>
<path d="M0 0 C0 2.64 0 5.28 0 8 C-0.54003662 8.19634033 -1.08007324 8.39268066 -1.63647461 8.5949707 C-4.07468443 9.48897221 -6.50598606 10.40045288 -8.9375 11.3125 C-9.78763672 11.62123047 -10.63777344 11.92996094 -11.51367188 12.24804688 C-12.32255859 12.55419922 -13.13144531 12.86035156 -13.96484375 13.17578125 C-14.7137085 13.45333252 -15.46257324 13.73088379 -16.23413086 14.0168457 C-18.35396505 14.93681225 -18.35396505 14.93681225 -19 18 C-12.4 18 -5.8 18 1 18 C1 18.33 1 18.66 1 19 C-4.28 19 -9.56 19 -15 19 C-15.33 20.32 -15.66 21.64 -16 23 C-16.66 23 -17.32 23 -18 23 C-18 23.66 -18 24.32 -18 25 C-10.74 25.33 -3.48 25.66 4 26 C4 26.33 4 26.66 4 27 C-0.06225821 27.11638426 -4.1240863 27.18731373 -8.1875 27.25 C-9.91323242 27.30027344 -9.91323242 27.30027344 -11.67382812 27.3515625 C-12.78564453 27.36445312 -13.89746094 27.37734375 -15.04296875 27.390625 C-16.06414795 27.41157227 -17.08532715 27.43251953 -18.13745117 27.45410156 C-21.77116004 26.87766672 -23.3715474 25.52390702 -26 23 C-28.09781675 19.85327488 -28.61389763 17.83222427 -28.49609375 14.0625 C-27.69783074 10.74373727 -25.86837278 9.24427719 -23.1953125 7.2421875 C-20.06618013 5.47161082 -16.90075139 4.54247908 -13.4296875 3.65625 C-11.18814023 3.05081601 -9.22651899 2.28659464 -7.125 1.3125 C-4 0 -4 0 0 0 Z " fill="#3F3F3D" transform="translate(104,88)"/>
<path d="M0 0 C2.97 0 5.94 0 9 0 C9 12.87 9 25.74 9 39 C6.03 39 3.06 39 0 39 C0 26.13 0 13.26 0 0 Z " fill="#3D3C3A" transform="translate(35,76)"/>
<path d="M0 0 C6.93 0 13.86 0 21 0 C21 0.99 21 1.98 21 3 C18.39802798 4.00605593 15.79370638 5.00502525 13.1875 6 C12.08051758 6.42925781 12.08051758 6.42925781 10.95117188 6.8671875 C10.23896484 7.13789062 9.52675781 7.40859375 8.79296875 7.6875 C8.1383667 7.93886719 7.48376465 8.19023438 6.80932617 8.44921875 C5 9 5 9 2 9 C2 11.97 2 14.94 2 18 C2.69867188 17.69964844 3.39734375 17.39929688 4.1171875 17.08984375 C5.02726562 16.70957031 5.93734375 16.32929687 6.875 15.9375 C7.77992187 15.55464844 8.68484375 15.17179687 9.6171875 14.77734375 C12 14 12 14 14 15 C13.01 15.33 12.02 15.66 11 16 C11.33 17.32 11.66 18.64 12 20 C17.61 20 23.22 20 29 20 C29 20.33 29 20.66 29 21 C19.43 21 9.86 21 0 21 C0 14.07 0 7.14 0 0 Z " fill="#EDEAE4" transform="translate(85,44)"/>
<path d="M0 0 C9.57 0 19.14 0 29 0 C29 6.93 29 13.86 29 21 C22.07 21 15.14 21 8 21 C8.33 19.68 8.66 18.36 9 17 C11.67418068 15.70881199 14.14550654 14.69594765 16.9375 13.75 C17.67935547 13.481875 18.42121094 13.21375 19.18554688 12.9375 C24.63723693 11 24.63723693 11 27 11 C27 8.36 27 5.72 27 3 C24.37276604 1.68638302 22.27389439 1.78746091 19.3359375 1.68359375 C18.21445313 1.64169922 17.09296875 1.59980469 15.9375 1.55664062 C14.761875 1.51732422 13.58625 1.47800781 12.375 1.4375 C10.59996094 1.37272461 10.59996094 1.37272461 8.7890625 1.30664062 C5.85949672 1.20032574 2.92984412 1.09829358 0 1 C0 0.67 0 0.34 0 0 Z " fill="#DDDCD6" transform="translate(77,85)"/>
<path d="M0 0 C1.125 1.75 1.125 1.75 2 4 C1.34 5.32 0.68 6.64 0 8 C-7.59 8 -15.18 8 -23 8 C-22.67 7.01 -22.34 6.02 -22 5 C-21.34 5 -20.68 5 -20 5 C-19.67 3.68 -19.34 2.36 -19 1 C-17.06833984 1.01740234 -17.06833984 1.01740234 -15.09765625 1.03515625 C-13.41927228 1.0445327 -11.74088674 1.05363305 -10.0625 1.0625 C-9.21236328 1.07087891 -8.36222656 1.07925781 -7.48632812 1.08789062 C-6.67744141 1.09111328 -5.86855469 1.09433594 -5.03515625 1.09765625 C-4.2862915 1.10289307 -3.53742676 1.10812988 -2.76586914 1.11352539 C-0.97332261 1.19341752 -0.97332261 1.19341752 0 0 Z " fill="#323231" transform="translate(108,106)"/>
<path d="M0 0 C0.33 0 0.66 0 1 0 C1.77040851 6.06696699 2.09706112 11.88514973 2 18 C2.69867188 17.69964844 3.39734375 17.39929688 4.1171875 17.08984375 C5.02726562 16.70957031 5.93734375 16.32929687 6.875 15.9375 C7.77992187 15.55464844 8.68484375 15.17179687 9.6171875 14.77734375 C12 14 12 14 14 15 C13.01 15.33 12.02 15.66 11 16 C11.33 17.32 11.66 18.64 12 20 C17.61 20 23.22 20 29 20 C29 20.33 29 20.66 29 21 C19.43 21 9.86 21 0 21 C0 14.07 0 7.14 0 0 Z " fill="#CFCEC9" transform="translate(85,44)"/>
<path d="M0 0 C0.639375 0.804375 1.27875 1.60875 1.9375 2.4375 C3.40603502 4.2750504 3.40603502 4.2750504 5 6 C7.44608998 6.15980437 9.86731058 6.25929447 12.31640625 6.31640625 C13.04746078 6.33718735 13.77851532 6.35796844 14.53172302 6.37937927 C16.87521656 6.44495024 19.21882539 6.50379432 21.5625 6.5625 C23.14779855 6.60567808 24.73308529 6.64929213 26.31835938 6.69335938 C30.21212037 6.8006392 34.10599772 6.9018849 38 7 C38 7.33 38 7.66 38 8 C25.79 8.33 13.58 8.66 1 9 C1 12.3 1 15.6 1 19 C0.67 19 0.34 19 0 19 C0 16.03 0 13.06 0 10 C-0.99 10.33 -1.98 10.66 -3 11 C-4.89952346 10.91478259 -6.79663573 10.76270916 -8.6875 10.5625 C-10.17830078 10.40974609 -10.17830078 10.40974609 -11.69921875 10.25390625 C-12.45847656 10.17011719 -13.21773437 10.08632812 -14 10 C-14 9.67 -14 9.34 -14 9 C-9.38 9 -4.76 9 0 9 C-0.66 8.67 -1.32 8.34 -2 8 C-1.4740625 7.071875 -1.4740625 7.071875 -0.9375 6.125 C-0.628125 5.42375 -0.31875 4.7225 0 4 C-0.33 3.34 -0.66 2.68 -1 2 C-0.67 1.34 -0.34 0.68 0 0 Z " fill="#BFBEB9" transform="translate(76,66)"/>
<path d="M0 0 C1.29228516 0.00322266 2.58457031 0.00644531 3.91601562 0.00976562 C5.27083401 0.0181196 6.62565172 0.02658453 7.98046875 0.03515625 C9.3548161 0.04017625 10.7291652 0.04473828 12.10351562 0.04882812 C15.45837799 0.06059957 18.81315096 0.07704342 22.16796875 0.09765625 C22.16796875 1.41765625 22.16796875 2.73765625 22.16796875 4.09765625 C21.17796875 3.76765625 20.18796875 3.43765625 19.16796875 3.09765625 C16.81242395 2.94586611 14.45321752 2.84866336 12.09375 2.78125 C11.40991745 2.7604689 10.7260849 2.73968781 10.02153015 2.71827698 C7.84127665 2.65299471 5.6609047 2.59399608 3.48046875 2.53515625 C2.00063889 2.49195072 0.52082092 2.44833578 -0.95898438 2.40429688 C-4.58320747 2.29733542 -8.20756314 2.19600802 -11.83203125 2.09765625 C-11.83203125 1.76765625 -11.83203125 1.43765625 -11.83203125 1.09765625 C-7.82882972 0.14388441 -4.10991378 -0.01810535 0 0 Z " fill="#E3E3DD" transform="translate(88.83203125,73.90234375)"/>
<path d="M0 0 C3.375 0.25 3.375 0.25 7 1 C7.66 2.32 8.32 3.64 9 5 C5.04 5 1.08 5 -3 5 C-2.67 3.68 -2.34 2.36 -2 1 C-1.34 1.33 -0.68 1.66 0 2 C0 1.34 0 0.68 0 0 Z " fill="#484643" transform="translate(64,110)"/>
<path d="M0 0 C0.33 0.66 0.66 1.32 1 2 C1.66 2.33 2.32 2.66 3 3 C2.01 3.495 2.01 3.495 1 4 C0.67 11.59 0.34 19.18 0 27 C-0.33 27 -0.66 27 -1 27 C-1.02892385 22.87501462 -1.04677267 18.75005515 -1.0625 14.625 C-1.07087891 13.449375 -1.07925781 12.27375 -1.08789062 11.0625 C-1.09111328 9.94101562 -1.09433594 8.81953125 -1.09765625 7.6640625 C-1.10289307 6.62717285 -1.10812988 5.5902832 -1.11352539 4.52197266 C-1 2 -1 2 0 0 Z " fill="#605F5D" transform="translate(77,39)"/>
<path d="M0 0 C0.66 0.33 1.32 0.66 2 1 C2.625 3.0625 2.625 3.0625 3 5 C1.7934375 4.9690625 1.7934375 4.9690625 0.5625 4.9375 C-1.93354885 4.70366379 -1.93354885 4.70366379 -3 6 C-3.36760731 8.32817964 -3.70241581 10.6618385 -4 13 C-4.33 13 -4.66 13 -5 13 C-5.61538462 5.73846154 -5.61538462 5.73846154 -2.5 2 C-1.675 1.34 -0.85 0.68 0 0 Z " fill="#575754" transform="translate(81,95)"/>
<path d="M0 0 C0 0.99 0 1.98 0 3 C-1.65 3.33 -3.3 3.66 -5 4 C-5 3.34 -5 2.68 -5 2 C-5.66 1.67 -6.32 1.34 -7 1 C-4 0 -4 0 0 0 Z " fill="#D6D4CF" transform="translate(106,44)"/>
</svg>
