<?xml version="1.0" encoding="UTF-8"?>
<svg version="1.1" xmlns="http://www.w3.org/2000/svg" width="2159" height="500">
<path d="M0 0 C5.20070734 4.46112113 9.19470975 9.17041026 12.89453125 14.93359375 C14.1249466 17.02889321 14.1249466 17.02889321 16.26953125 17.90234375 C16.34300781 16.44828125 16.34300781 16.44828125 16.41796875 14.96484375 C16.81800218 7.60219152 17.36875925 0.28466075 18.26953125 -7.03515625 C18.39400635 -8.0725293 18.39400635 -8.0725293 18.52099609 -9.13085938 C19.14388417 -13.97200917 19.14388417 -13.97200917 20.26953125 -15.09765625 C22.48808389 -15.18549167 24.70941621 -15.20460234 26.9296875 -15.1953125 C27.9263871 -15.19319008 27.9263871 -15.19319008 28.94322205 -15.19102478 C31.07287024 -15.18541143 33.20241464 -15.17285679 35.33203125 -15.16015625 C36.77278494 -15.15514296 38.21354028 -15.15057976 39.65429688 -15.14648438 C43.19274227 -15.1354377 46.73112664 -15.11816417 50.26953125 -15.09765625 C50.3163759 11.30287193 50.35158095 37.70339382 50.37315559 64.10395527 C50.38344199 76.36383267 50.39745158 88.62368416 50.42041016 100.88354492 C50.44042511 111.57666565 50.45326682 122.2697676 50.45770824 132.96290654 C50.46030196 138.61806419 50.46634262 144.27316815 50.48099136 149.92830849 C50.49470373 155.26589268 50.4987267 160.60340175 50.49574661 165.94100189 C50.49629073 167.88583219 50.50018598 169.83066536 50.5079422 171.77548027 C50.61808826 200.85357607 48.01688659 231.14489141 26.64453125 253.08984375 C8.65615662 270.77897675 -17.61493946 277.89041806 -42.33984375 278.140625 C-43.14066376 278.15037354 -43.94148376 278.16012207 -44.76657104 278.17016602 C-78.21007595 278.49403876 -78.21007595 278.49403876 -92.73046875 273.90234375 C-93.92285156 273.52851563 -95.11523438 273.1546875 -96.34375 272.76953125 C-116.13244098 265.74698757 -132.58345682 253.90836727 -142.54296875 235.15234375 C-146.82488876 226.11052196 -149.73046875 216.96417622 -149.73046875 206.90234375 C-138.18046875 206.90234375 -126.63046875 206.90234375 -114.73046875 206.90234375 C-113.08046875 211.19234375 -111.43046875 215.48234375 -109.73046875 219.90234375 C-100.60720349 234.20928246 -87.42653745 241.19718363 -71.26171875 245.15625 C-66.72441242 246.11490654 -62.36257556 246.73613711 -57.73046875 246.90234375 C-56.74949219 246.94230469 -55.76851562 246.98226563 -54.7578125 247.0234375 C-35.73138367 247.41645 -16.02512364 244.01893938 -1.48828125 230.875 C9.98319254 218.90570753 14.43462209 202.68923532 14.3671875 186.4375 C14.36577255 185.75932724 14.3643576 185.08115448 14.36289978 184.38243103 C14.3573587 182.24318797 14.34481778 180.1040545 14.33203125 177.96484375 C14.32700861 176.50325673 14.32244705 175.04166806 14.31835938 173.58007812 C14.3074087 170.02079849 14.2901857 166.46158184 14.26953125 162.90234375 C13.67712646 163.64057373 13.08472168 164.37880371 12.47436523 165.1394043 C11.68360596 166.1169165 10.89284668 167.09442871 10.078125 168.1015625 C9.30009521 169.06666748 8.52206543 170.03177246 7.72045898 171.02612305 C-5.46953249 186.50488483 -23.77956408 194.85321229 -43.921875 196.73828125 C-70.68625811 198.30170836 -99.84875269 194.19281171 -120.61254883 175.77490234 C-123.03867361 173.53651568 -125.3822875 171.22240307 -127.73046875 168.90234375 C-128.3853125 168.3196875 -129.04015625 167.73703125 -129.71484375 167.13671875 C-146.7855315 151.63214914 -154.68443703 125.2755697 -155.953125 102.99145508 C-156.09410122 98.77419685 -156.11709409 94.55913711 -156.10546875 90.33984375 C-156.10492493 89.5942218 -156.1043811 88.84859985 -156.1038208 88.0803833 C-156.06338731 75.99141661 -155.25044521 64.54119313 -151.73046875 52.90234375 C-151.41698486 51.84974365 -151.41698486 51.84974365 -151.09716797 50.77587891 C-146.10599595 34.66579633 -137.49836906 21.81485728 -125.73046875 9.90234375 C-125.14910156 9.24878906 -124.56773437 8.59523437 -123.96875 7.921875 C-94.22962858 -24.81363145 -33.58008641 -25.79757712 0 0 Z M-99.51953125 31.5078125 C-116.61669661 49.40560041 -121.42258155 71.37027282 -120.98046875 95.41015625 C-120.56878564 107.30368129 -117.9931049 118.17284975 -112.73046875 128.90234375 C-112.35019531 129.68996094 -111.96992188 130.47757812 -111.578125 131.2890625 C-103.63207403 146.61932245 -91.13920669 157.00557212 -74.9921875 162.90234375 C-56.99976679 168.58128686 -36.83431113 167.22744617 -19.91796875 158.83984375 C-2.77996906 148.80156608 8.33207242 132.86255532 13.41796875 113.80078125 C18.8241916 89.05119222 16.29389802 63.31475748 2.45703125 41.65234375 C-7.21512738 27.85291891 -20.99771464 17.66830413 -37.74609375 14.52392578 C-60.65554199 10.64559518 -82.14905183 15.280768 -99.51953125 31.5078125 Z " fill="#FFFFFF" transform="translate(615.73046875,159.09765625)"/>
<path d="M0 0 C2.15267145 -0.00960264 4.30434307 -0.04063747 6.45678711 -0.07226562 C29.65448492 -0.25091399 51.19621422 5.82214652 68.50170898 21.86523438 C85.7751752 39.97182597 87.54091759 63.12628918 87.52610397 86.87690544 C87.5251293 90.32841746 87.5381876 93.77962608 87.55508423 97.23109436 C87.60110036 107.0343299 87.62598937 116.83752904 87.63256836 126.64086914 C87.63757945 132.66007813 87.6617935 138.67896208 87.69789505 144.69806099 C87.70768719 146.98456434 87.71002822 149.27111238 87.70472336 151.55763054 C87.69766117 154.74767902 87.71491334 157.9367527 87.73754883 161.12670898 C87.72937637 162.06654129 87.72120392 163.0063736 87.71278381 163.97468567 C87.78264289 169.50730718 88.35569077 172.98109077 92.25170898 177.24023438 C98.52842763 180.04507428 98.52842763 180.04507428 111.25170898 180.24023438 C111.25170898 190.47023438 111.25170898 200.70023438 111.25170898 211.24023438 C103.98139648 211.36398437 103.98139648 211.36398437 96.56420898 211.49023438 C95.06414307 211.52665039 93.56407715 211.56306641 92.01855469 211.60058594 C82.32658723 211.6795429 71.86380667 211.00296889 63.75170898 205.05273438 C58.04742391 198.63541367 55.36532552 191.47131013 53.25170898 183.24023438 C52.48600586 184.16642578 52.48600586 184.16642578 51.70483398 185.11132812 C36.68537627 202.60739855 17.1189192 212.27189032 -5.74829102 214.24023438 C-28.47911377 215.37575252 -54.64830556 212.84839421 -72.54589844 197.30151367 C-85.67976348 185.34260205 -91.52965396 172.69358939 -92.93188477 154.91210938 C-93.47217946 137.74980729 -88.11411525 120.68798276 -76.48657227 107.88867188 C-57.13545601 89.53772567 -29.43427568 86.8716908 -4.09594727 87.04492188 C-2.45828934 87.04866409 -0.82062913 87.05150532 0.81703186 87.05349731 C5.07317574 87.06103884 9.32917742 87.08060263 13.58526611 87.10290527 C17.94997231 87.12357121 22.31470207 87.13254283 26.67944336 87.14257812 C35.20359628 87.16386011 43.72763482 87.19787741 52.25170898 87.24023438 C52.13198502 83.54053641 51.99600808 79.84160452 51.85717773 76.14257812 C51.82362183 75.09952515 51.79006592 74.05647217 51.75549316 72.98181152 C51.25384885 60.12494792 47.47523498 50.92341438 38.06420898 42.05273438 C25.84174339 32.15064856 9.02307074 30.35147502 -6.13452148 31.63427734 C-20.14229949 33.12085553 -33.30659408 37.7730522 -42.84594727 48.62695312 C-47.09365601 54.37173119 -48.96456746 59.28092549 -51.74829102 66.24023438 C-62.96829102 66.24023438 -74.18829102 66.24023438 -85.74829102 66.24023438 C-83.81500402 46.90736443 -76.55192707 30.98226801 -61.44360352 18.30664062 C-43.17020039 4.85621767 -22.34178575 0.05994442 0 0 Z M-50.81079102 129.11523438 C-56.43792673 136.2757988 -58.62716677 145.21606366 -57.74829102 154.24023438 C-55.54421443 164.72580459 -50.53476608 172.06938628 -41.74829102 178.24023438 C-23.77120642 186.9707324 -2.3386476 186.37862905 16.38061523 180.20898438 C30.86749649 174.73246222 41.78337736 164.89915518 48.22045898 150.76367188 C48.56077148 149.9309375 48.90108398 149.09820312 49.25170898 148.24023438 C49.57139648 147.469375 49.89108398 146.69851563 50.22045898 145.90429688 C52.43340389 139.40889376 52.39694192 133.13206414 52.32592773 126.35351562 C52.32057007 125.37983032 52.3152124 124.40614502 52.30969238 123.4029541 C52.29578082 121.01528983 52.27630139 118.62780853 52.25170898 116.24023438 C43.2708297 116.17017386 34.29004705 116.11714255 25.30895233 116.08479786 C21.13693974 116.06926012 16.96511654 116.04824461 12.79321289 116.01391602 C8.75367928 115.98089142 4.71432574 115.96329245 0.67466736 115.95560265 C-0.85281706 115.95013526 -2.38029363 115.9394638 -3.90769958 115.9230442 C-20.12987291 115.75587641 -38.95086658 116.53877284 -50.81079102 129.11523438 Z " fill="#FFFFFF" transform="translate(1908.748291015625,141.759765625)"/>
<path d="M0 0 C0.90878906 0.46148437 1.81757812 0.92296875 2.75390625 1.3984375 C24.17105053 13.29303128 37.63282581 33.23855762 44.48071289 56.35742188 C46.93356607 65.08344436 48.14170276 73.4740983 48.6875 82.5 C48.73616211 83.27126221 48.78482422 84.04252441 48.83496094 84.8371582 C49.14388561 91.10740484 48.58231634 96.59452031 48 103 C-5.46 103 -58.92 103 -114 103 C-110.312591 129.28195864 -110.312591 129.28195864 -97 151 C-96.38382813 151.72703125 -95.76765625 152.4540625 -95.1328125 153.203125 C-85.24289758 163.95481674 -70.58698956 170.18926943 -56.06689453 171.12451172 C-37.76204013 171.81035802 -20.95617111 168.99071359 -6.5625 156.6875 C1.63765887 148.72931303 5.51441633 140.76540081 10 130 C21.55 130 33.1 130 45 130 C41.62430483 146.87847584 35.39951341 161.03833105 24 174 C23.34515625 174.75023437 22.6903125 175.50046875 22.015625 176.2734375 C6.16227341 193.25917134 -16.26582997 201.98180415 -39.2421875 203.11010742 C-71.01725642 203.934395 -98.66670494 196.22152113 -122.1875 174.25 C-144.57978816 150.67668399 -150.73263429 120.29025519 -150.24609375 88.7109375 C-149.40936862 59.1633009 -138.85154744 32.99994986 -117.546875 12.30859375 C-86.3460903 -15.97309913 -36.57139212 -18.67650396 0 0 Z M-98.50390625 40.8203125 C-106.95457564 51.48458393 -109.75309395 60.5185637 -112 74 C-70.75 74 -29.5 74 13 74 C9.57417802 55.72894944 5.06342512 42.44639679 -9.62890625 30.94140625 C-37.64449412 11.97889044 -75.74553969 15.1860837 -98.50390625 40.8203125 Z " fill="#FFFFFF" transform="translate(857,153)"/>
<path d="M0 0 C4.29039754 3.37292225 8.1705337 7.11901621 12 11 C12.66644531 11.66773438 13.33289062 12.33546875 14.01953125 13.0234375 C31.58432936 31.81737498 38.21562581 58.33206775 38.125 83.375 C38.12886719 84.46683594 38.13273437 85.55867188 38.13671875 86.68359375 C38.13478516 88.24400391 38.13478516 88.24400391 38.1328125 89.8359375 C38.13168457 90.78001465 38.13055664 91.7240918 38.12939453 92.69677734 C38 95 38 95 37 97 C-16.13 97 -69.26 97 -124 97 C-121.62786096 118.34925139 -117.90277611 137.73004767 -100.65625 151.9296875 C-85.28413172 163.26419244 -66.67184988 167.37686508 -47.83203125 164.69091797 C-32.65178038 161.9445833 -18.95439882 155.56081746 -9.70703125 142.84765625 C-5.65013275 136.5147564 -3.44128953 131.32386858 -1 124 C10.55 124 22.1 124 34 124 C33.2961517 130.33463468 32.6100909 135.13264607 30.375 140.875 C30.10921143 141.56553467 29.84342285 142.25606934 29.56958008 142.9675293 C20.80063798 164.90136556 3.24717182 180.69389901 -17.9375 190.3125 C-43.84008707 200.93920239 -76.20862427 199.50179943 -102 189 C-111.21365449 184.91662435 -119.52214429 179.79360748 -127 173 C-127.89203125 172.20078125 -128.7840625 171.4015625 -129.703125 170.578125 C-147.99645794 153.30676597 -158.97005576 128.47256162 -160.17700195 103.30981445 C-160.73750917 67.21181 -156.45431667 35.71211914 -130.5234375 8.390625 C-96.77525738 -23.48876339 -37.78105135 -26.82711204 0 0 Z M-109 35 C-116.3189089 44.59120553 -122 55.76350312 -122 68 C-81.08 68 -40.16 68 2 68 C0.34308674 49.77395417 -6.09517711 36.8959108 -20 25 C-48.00642889 4.67400451 -86.2191423 10.21496128 -109 35 Z " fill="#FFFFFF" transform="translate(1476,159)"/>
<path d="M0 0 C11.22 0 22.44 0 34 0 C34.33 35.64 34.66 71.28 35 108 C37.31 105.03 39.62 102.06 42 99 C54.85689647 84.93018877 72.1767082 76.02659355 91.25878906 74.78857422 C117.28325006 73.78431079 141.94051848 77.1456432 162.1875 95.0625 C178.42779879 110.20033791 185.30210493 132.34922693 187 154 C187.13491695 158.38014217 187.12663271 162.75699561 187.11352539 167.13891602 C187.11367142 168.42770157 187.11381744 169.71648712 187.1139679 171.04432678 C187.11425295 174.55196064 187.10840371 178.05955979 187.10139394 181.56718564 C187.0951115 185.24270018 187.09455275 188.91821566 187.09336853 192.59373474 C187.09026957 199.54205541 187.08207564 206.49036021 187.07201904 213.43867391 C187.06081319 221.35408653 187.05533621 229.26949994 187.05032361 237.18491852 C187.03989173 253.45662308 187.02156422 269.7283058 187 286 C175.78 286 164.56 286 153 286 C152.98018066 282.44863281 152.96036133 278.89726562 152.93994141 275.23828125 C152.87279473 263.45573361 152.79525515 251.67326964 152.71247292 239.89082336 C152.66257173 232.7527577 152.61612843 225.61470225 152.578125 218.4765625 C152.54495206 212.24743878 152.50498616 206.01839996 152.45720994 199.78937054 C152.43219323 196.49797778 152.4113566 193.20664888 152.39665604 189.91519165 C152.36408773 152.52464337 152.36408773 152.52464337 134.9375 120.25 C124.65082182 110.7193583 110.15660677 107.13080025 96.5 106.625 C81.03408974 107.21896406 65.98082667 111.95292988 54.5 122.625 C35.3049796 143.75565271 34.71145943 170.51245595 34.5859375 197.5234375 C34.56719999 200.08176276 34.54762471 202.64008201 34.5272522 205.19839478 C34.48139583 211.20799419 34.44389122 217.21758777 34.41057932 223.227265 C34.37212403 230.07878523 34.32277672 236.93021417 34.27259517 243.78165698 C34.16976314 257.85437666 34.08178414 271.92714306 34 286 C22.78 286 11.56 286 0 286 C0 191.62 0 97.24 0 0 Z " fill="#FFFFFF" transform="translate(1090,67)"/>
<path d="M0 0 C1.55459449 1.29716164 3.09756316 2.60846687 4.625 3.9375 C5.52605469 4.71287109 5.52605469 4.71287109 6.4453125 5.50390625 C24.09193694 21.87833219 34.73733377 47.76461239 35.78613281 71.59936523 C35.82389983 75.10401283 35.85612993 78.60820654 35.86523438 82.11303711 C35.87484079 84.33812302 35.90587503 86.56224334 35.9375 88.78710938 C36.03771545 102.13641819 34.31859038 114.96232227 29.5 127.5 C29.1999707 128.29027588 28.89994141 129.08055176 28.59082031 129.89477539 C23.32421261 143.22906375 15.77513855 153.90319756 5.625 163.9375 C4.43970703 165.13826172 4.43970703 165.13826172 3.23046875 166.36328125 C-17.04317402 185.83001287 -44.84499206 192.53221807 -72.26953125 192.1484375 C-96.80012856 191.39192565 -119.95208055 183.3778205 -138.375 166.9375 C-139.19484375 166.21175781 -140.0146875 165.48601562 -140.859375 164.73828125 C-159.28116166 147.43209969 -170.45473355 121.16321805 -171.49755859 95.97753906 C-172.24276356 65.32929129 -168.28553524 37.62955214 -148.375 12.9375 C-147.69824219 12.09574219 -147.02148438 11.25398438 -146.32421875 10.38671875 C-110.60072749 -31.60634319 -41.91536649 -32.68513495 0 0 Z M-114.51171875 25.94921875 C-130.70508216 43.22892939 -136.95834612 65.34656929 -136.58984375 88.578125 C-136.15419764 100.60304001 -133.37888257 111.99777966 -128.375 122.9375 C-127.74658203 124.33548828 -127.74658203 124.33548828 -127.10546875 125.76171875 C-119.60504123 140.91387925 -106.20240658 152.23712797 -90.375 157.9375 C-71.69988311 163.59456095 -52.45022136 162.15025607 -35.07421875 153.26367188 C-29.02900535 149.97436458 -24.13445104 145.90966394 -19.375 140.9375 C-18.75496094 140.34839844 -18.13492188 139.75929688 -17.49609375 139.15234375 C-2.93965685 124.33538897 0.90139955 101.90368811 0.9440918 82.0612793 C0.72421918 64.04732871 -4.15552717 47.22111457 -15.375 32.9375 C-15.94734375 32.17695313 -16.5196875 31.41640625 -17.109375 30.6328125 C-27.37660145 17.95234906 -43.21955074 10.49303036 -59.1875 8.5 C-79.25009325 6.46235974 -99.55761765 11.98586555 -114.51171875 25.94921875 Z " fill="#FFFFFF" transform="translate(389.375,164.0625)"/>
<path d="M0 0 C11.22 0 22.44 0 34 0 C34 19.14 34 38.28 34 58 C51.49 58 68.98 58 87 58 C87 68.56 87 79.12 87 90 C69.51 90 52.02 90 34 90 C34.06294415 106.66420195 34.13818203 123.32819564 34.23571491 139.99222469 C34.28061303 147.73023552 34.32004136 155.46820093 34.34643555 163.20629883 C34.36946425 169.95360302 34.40291633 176.70076279 34.44870156 183.44795233 C34.47256842 187.01804156 34.49133985 190.58798835 34.49761391 194.15815544 C34.50482683 198.15113437 34.53531812 202.1436198 34.56762695 206.13647461 C34.56619186 207.3103624 34.56475677 208.48425018 34.5632782 209.69371033 C34.64910643 217.20854091 35.11418178 224.3694545 39.9375 230.4375 C46.44492389 235.36736659 53.68996014 235.16460385 61.5546875 235.31640625 C62.45623566 235.33718735 63.35778381 235.35796844 64.28665161 235.37937927 C67.1493614 235.4444458 70.01215819 235.50355914 72.875 235.5625 C74.82292544 235.60572607 76.77084229 235.64934164 78.71875 235.69335938 C83.47907904 235.80081144 88.23947976 235.90020319 93 236 C93 246.23 93 256.46 93 267 C85.74429658 267.0924948 78.49068946 267.17193427 71.23486328 267.21972656 C68.77352923 267.23967724 66.31224155 267.26684764 63.85107422 267.30175781 C26.32436352 267.82020892 26.32436352 267.82020892 12.015625 255.2578125 C1.26100002 244.18146797 -0.31087638 228.97626021 -0.22705078 214.31030273 C-0.22648561 212.94938668 -0.22680529 211.58847002 -0.22793579 210.22755432 C-0.22850618 206.55872841 -0.21680309 202.89003509 -0.20278788 199.22123981 C-0.19022785 195.3775671 -0.18910588 191.53389087 -0.18673706 187.69020081 C-0.18053771 180.42311495 -0.16414795 173.15608975 -0.14403808 165.88903052 C-0.12163081 157.6108742 -0.11067354 149.33271488 -0.10064721 141.05453575 C-0.07978024 124.03631612 -0.04312347 107.01817999 0 90 C-12.54 90 -25.08 90 -38 90 C-38 79.44 -38 68.88 -38 58 C-25.46 58 -12.92 58 0 58 C0 38.86 0 19.72 0 0 Z " fill="#FFFFFF" transform="translate(101,86)"/>
<path d="M0 0 C11.22 0 22.44 0 34 0 C34 19.14 34 38.28 34 58 C51.49 58 68.98 58 87 58 C87 68.56 87 79.12 87 90 C69.51 90 52.02 90 34 90 C34.08555206 106.40339091 34.17920052 122.80666832 34.28752708 139.20992184 C34.33757121 146.82685797 34.38401481 154.44378378 34.421875 162.06079102 C34.45489719 168.70259104 34.4947843 175.344309 34.54279006 181.98601824 C34.56795379 185.50019069 34.58976446 189.0143094 34.60334396 192.52854729 C34.61866136 196.45915278 34.64931054 200.38956037 34.68115234 204.32006836 C34.68331253 205.47525467 34.68547272 206.63044098 34.68769836 207.82063293 C34.7410911 220.18219699 34.7410911 220.18219699 40 231 C47.1323603 234.69826089 53.60357558 235.16571964 61.45703125 235.31640625 C62.35999435 235.33718735 63.26295746 235.35796844 64.19328308 235.37937927 C67.06628097 235.4445528 69.93936714 235.50360955 72.8125 235.5625 C74.76498294 235.60571586 76.71745708 235.64933112 78.66992188 235.69335938 C83.44652556 235.80094968 88.2232001 235.90026229 93 236 C93 246.23 93 256.46 93 267 C85.74429658 267.0924948 78.49068946 267.17193427 71.23486328 267.21972656 C68.77352923 267.23967724 66.31224155 267.26684764 63.85107422 267.30175781 C26.98617282 267.81106567 26.98617282 267.81106567 13 256 C3.37736158 246.46746119 -0.00179836 232.85988671 -0.24050903 219.6343689 C-0.2462495 217.21637228 -0.24112039 214.79833359 -0.22705078 212.38037109 C-0.22648541 211.03901172 -0.22680569 209.69765174 -0.22793579 208.35629272 C-0.22850538 204.74537439 -0.21681546 201.13459121 -0.20278788 197.52370405 C-0.19021431 193.73876108 -0.18910483 189.9538144 -0.18673706 186.16885376 C-0.18054164 179.01513179 -0.1641573 171.86147155 -0.14403808 164.70777667 C-0.12161845 156.557769 -0.11067046 148.40775825 -0.10064721 140.25772738 C-0.07978916 123.50510984 -0.04313741 106.75257725 0 90 C-12.54 90 -25.08 90 -38 90 C-38 79.44 -38 68.88 -38 58 C-25.46 58 -12.92 58 0 58 C0 38.86 0 19.72 0 0 Z " fill="#FFFFFF" transform="translate(961,86)"/>
<path d="M0 0 C10.23 0 20.46 0 31 0 C32.32 9.24 33.64 18.48 35 28 C39.6556108 23.55429851 39.6556108 23.55429851 41.9609375 20.46875 C52.48498114 7.72699602 68.59486084 1.84433069 84.5402832 0.18310547 C88.88086629 -0.14001486 93.2126141 -0.10365692 97.5625 -0.0625 C100.676875 -0.041875 103.79125 -0.02125 107 0 C107 11.22 107 22.44 107 34 C94.25 34.3125 94.25 34.3125 90.30957031 34.38793945 C76.70925834 34.81025195 63.74330936 37.50760699 53.375 46.8125 C39.49962137 61.64564812 35.8990542 83.07296942 35.79467773 102.62670898 C35.78477814 103.7786525 35.77487854 104.93059601 35.76467896 106.1174469 C35.73318937 109.91030855 35.70835618 113.70318271 35.68359375 117.49609375 C35.6630134 120.1316815 35.64201664 122.76726603 35.62062073 125.40284729 C35.57083623 131.62163353 35.52584497 137.84044473 35.48259836 144.0592795 C35.43310374 151.14277061 35.37823121 158.22621691 35.32291877 165.30966461 C35.20931757 179.87306842 35.10314128 194.43651824 35 209 C23.45 209 11.9 209 0 209 C0 140.03 0 71.06 0 0 Z " fill="#FFFFFF" transform="translate(1555,144)"/>
<path d="M0 0 C11.22 0 22.44 0 34 0 C34 68.97 34 137.94 34 209 C22.78 209 11.56 209 0 209 C0 140.03 0 71.06 0 0 Z " fill="#FFFFFF" transform="translate(2057,144)"/>
<path d="M0 0 C8.3634326 4.82327351 13.28160398 11.63918142 15.9375 20.875 C18.01634 30.76827472 16.62534926 38.39042946 11.796875 47.265625 C6.72751114 54.97987435 -0.63132322 59.6092498 -9.59375 61.56640625 C-18.03980625 62.71924439 -25.95558279 61.20604575 -33.4375 57.125 C-40.40389783 51.34798717 -46.40266915 45.1483494 -48 36 C-48.87317863 24.98451573 -47.83673557 16.39591419 -40.75 7.6875 C-30.31898591 -3.36892821 -13.87868252 -7.08698682 0 0 Z " fill="#FFFFFF" transform="translate(1737,291)"/>
<path d="M0 0 C5.04885564 3.02931338 8.65629405 7.96888215 10.5 13.5 C10.64648082 15.76763574 10.7209626 18.04032366 10.75 20.3125 C10.77578125 21.51519531 10.8015625 22.71789062 10.828125 23.95703125 C10.23746631 30.33473874 7.31446315 34.43445334 2.5 38.5 C-3.54543815 42.72767542 -9.25587887 43.33667481 -16.5 42.5 C-22.68760017 41.38579927 -26.21825582 38.39939701 -30.08984375 33.53125 C-34.08699723 27.77357739 -34.38551063 21.307363 -33.5 14.5 C-31.23945815 7.37525649 -27.9374761 3.19558813 -21.5 -0.5 C-15.00873511 -2.66375496 -6.33310407 -2.79148471 0 0 Z " fill="#FFFFFF" transform="translate(2085.5,65.5)"/>
</svg>
