<svg width="64" height="64" viewBox="0 0 64 64" fill="none" xmlns="http://www.w3.org/2000/svg">
<g clip-path="url(#clip0_872_879)">
<path d="M48.9607 46.4453C29.9352 55.4999 18.1278 47.9242 10.5694 43.3229C10.1017 43.0329 9.30679 43.3907 9.99651 44.1829C12.5146 47.2361 20.7668 54.5952 31.5383 54.5952C42.3172 54.5952 48.7297 48.7137 49.5318 47.6877C50.3286 46.6704 49.7658 46.1092 48.9605 46.4453H48.9607ZM54.304 43.4945C53.7931 42.8292 51.1973 42.7051 49.5637 42.9058C47.9275 43.1007 45.4716 44.1007 45.6852 44.7011C45.7947 44.926 46.0184 44.8251 47.1423 44.724C48.2694 44.6116 51.4267 44.2131 52.0846 45.0731C52.7456 45.9391 51.0776 50.0644 50.773 50.7297C50.4786 51.395 50.8854 51.5666 51.4383 51.1235C51.9835 50.6805 52.9707 49.5334 53.6331 47.9101C54.291 46.2779 54.6923 44.001 54.304 43.4945Z" fill="#FF9900" style="fill:#FF9900;fill:color(display-p3 1.0000 0.6000 0.0000);fill-opacity:1;"/>
<path fill-rule="evenodd" clip-rule="evenodd" d="M36.168 27.9697C36.168 30.3455 36.228 32.3268 35.0272 34.4366C34.058 36.1521 32.5227 37.207 30.8074 37.207C28.4658 37.207 27.1021 35.423 27.1021 32.79C27.1021 27.5922 31.7592 26.6489 36.168 26.6489V27.9697ZM42.3176 42.8336C41.9144 43.1938 41.3312 43.2196 40.8767 42.9793C38.8526 41.2983 38.4923 40.5179 37.3773 38.9139C34.0323 42.3276 31.6651 43.3481 27.3252 43.3481C22.1961 43.3481 18.1992 40.1832 18.1992 33.8449C18.1992 28.8961 20.884 25.5252 24.7005 23.8786C28.0113 22.4203 32.6343 22.1631 36.168 21.7601V20.9709C36.168 19.5214 36.2794 17.806 35.4304 16.5539C34.6841 15.4303 33.2604 14.9671 32.008 14.9671C29.6838 14.9671 27.6081 16.1592 27.1021 18.6293C26.999 19.1784 26.596 19.7188 26.0472 19.7445L20.129 19.1099C19.6316 18.9982 19.0827 18.5952 19.22 17.8317C20.5837 10.6615 27.059 8.5 32.857 8.5C35.8247 8.5 39.7014 9.28915 42.043 11.5364C45.0107 14.3066 44.7276 18.0033 44.7276 22.0259V31.5291C44.7276 34.3853 45.9112 35.6374 47.0261 37.1814C47.4206 37.7303 47.5065 38.3909 47.0089 38.8023C45.7653 39.8401 43.5524 41.77 42.3346 42.8508L42.3174 42.8336" fill="black" style="fill:black;fill-opacity:1;"/>
<path d="M48.9607 46.4453C29.9352 55.4999 18.1278 47.9242 10.5694 43.3229C10.1017 43.0329 9.30679 43.3907 9.99651 44.1829C12.5146 47.2361 20.7668 54.5952 31.5383 54.5952C42.3172 54.5952 48.7297 48.7137 49.5318 47.6877C50.3286 46.6704 49.7658 46.1092 48.9605 46.4453H48.9607ZM54.304 43.4945C53.7931 42.8292 51.1973 42.7051 49.5637 42.9058C47.9275 43.1007 45.4716 44.1007 45.6852 44.7011C45.7947 44.926 46.0184 44.8251 47.1423 44.724C48.2694 44.6116 51.4267 44.2131 52.0846 45.0731C52.7456 45.9391 51.0776 50.0644 50.773 50.7297C50.4786 51.395 50.8854 51.5666 51.4383 51.1235C51.9835 50.6805 52.9707 49.5334 53.6331 47.9101C54.291 46.2779 54.6923 44.001 54.304 43.4945Z" fill="#FF9900" style="fill:#FF9900;fill:color(display-p3 1.0000 0.6000 0.0000);fill-opacity:1;"/>
<path fill-rule="evenodd" clip-rule="evenodd" d="M36.168 27.9697C36.168 30.3455 36.228 32.3268 35.0272 34.4366C34.058 36.1521 32.5227 37.207 30.8074 37.207C28.4658 37.207 27.1021 35.423 27.1021 32.79C27.1021 27.5922 31.7592 26.6489 36.168 26.6489V27.9697ZM42.3176 42.8336C41.9144 43.1938 41.3312 43.2196 40.8767 42.9793C38.8526 41.2983 38.4923 40.5179 37.3773 38.9139C34.0323 42.3276 31.6651 43.3481 27.3252 43.3481C22.1961 43.3481 18.1992 40.1832 18.1992 33.8449C18.1992 28.8961 20.884 25.5252 24.7005 23.8786C28.0113 22.4203 32.6343 22.1631 36.168 21.7601V20.9709C36.168 19.5214 36.2794 17.806 35.4304 16.5539C34.6841 15.4303 33.2604 14.9671 32.008 14.9671C29.6838 14.9671 27.6081 16.1592 27.1021 18.6293C26.999 19.1784 26.596 19.7188 26.0472 19.7445L20.129 19.1099C19.6316 18.9982 19.0827 18.5952 19.22 17.8317C20.5837 10.6615 27.059 8.5 32.857 8.5C35.8247 8.5 39.7014 9.28915 42.043 11.5364C45.0107 14.3066 44.7276 18.0033 44.7276 22.0259V31.5291C44.7276 34.3853 45.9112 35.6374 47.0261 37.1814C47.4206 37.7303 47.5065 38.3909 47.0089 38.8023C45.7653 39.8401 43.5524 41.77 42.3346 42.8508L42.3174 42.8336" fill="black" style="fill:black;fill-opacity:1;"/>
</g>
<defs>
<clipPath id="clip0_872_879">
<rect width="47" height="47" fill="white" style="fill:white;fill-opacity:1;" transform="translate(8.5 8.5)"/>
</clipPath>
</defs>
</svg>
