<svg width="40" height="40" viewBox="0 0 40 40" fill="none" xmlns="http://www.w3.org/2000/svg">
<path fill-rule="evenodd" clip-rule="evenodd" d="M5 11.6667C5 7.98477 7.98477 5 11.6667 5H28.3333C32.0152 5 35 7.98477 35 11.6667V28.3333C35 32.0152 32.0152 35 28.3333 35H11.6667C7.98477 35 5 32.0152 5 28.3333V11.6667ZM17.8452 14.6548C18.4961 15.3057 18.4961 16.361 17.8452 17.0118L14.857 20L17.8452 22.9882C18.4961 23.639 18.4961 24.6943 17.8452 25.3452C17.1943 25.9961 16.139 25.9961 15.4882 25.3452L12.5 22.357C11.1983 21.0553 11.1983 18.9447 12.5 17.643L15.4882 14.6548C16.139 14.0039 17.1943 14.0039 17.8452 14.6548ZM24.5118 14.6548C23.861 14.0039 22.8057 14.0039 22.1548 14.6548C21.5039 15.3057 21.5039 16.361 22.1548 17.0118L25.143 20L22.1548 22.9882C21.5039 23.639 21.5039 24.6943 22.1548 25.3452C22.8057 25.9961 23.861 25.9961 24.5118 25.3452L27.5 22.357C28.8017 21.0553 28.8017 18.9447 27.5 17.643L24.5118 14.6548Z" fill="black" style="fill:black;fill-opacity:1;"/>
</svg>
