<svg width="64" height="64" viewBox="0 0 64 64" fill="none" xmlns="http://www.w3.org/2000/svg">
<path d="M53.12 32.5C53.12 30.94 52.98 29.44 52.72 28H32V36.52H43.84C43.32 39.26 41.76 41.58 39.42 43.14V48.68H46.56C50.72 44.84 53.12 39.2 53.12 32.5Z" fill="#4285F4" style="fill:#4285F4;fill:color(display-p3 0.2588 0.5216 0.9569);fill-opacity:1;"/>
<path d="M31.9994 54.0002C37.9394 54.0002 42.9194 52.0402 46.5594 48.6802L39.4194 43.1402C37.4594 44.4602 34.9594 45.2602 31.9994 45.2602C26.2794 45.2602 21.4194 41.4002 19.6794 36.2002H12.3594V41.8802C15.9794 49.0602 23.3994 54.0002 31.9994 54.0002Z" fill="#34A853" style="fill:#34A853;fill:color(display-p3 0.2039 0.6588 0.3255);fill-opacity:1;"/>
<path d="M19.68 36.1801C19.24 34.8601 18.98 33.4601 18.98 32.0001C18.98 30.5401 19.24 29.1401 19.68 27.8201V22.1401H12.36C10.86 25.1001 10 28.4401 10 32.0001C10 35.5601 10.86 38.9001 12.36 41.8601L18.06 37.4201L19.68 36.1801Z" fill="#FBBC05" style="fill:#FBBC05;fill:color(display-p3 0.9843 0.7373 0.0196);fill-opacity:1;"/>
<path d="M31.9994 18.76C35.2394 18.76 38.1194 19.88 40.4194 22.04L46.7194 15.74C42.8994 12.18 37.9394 10 31.9994 10C23.3994 10 15.9794 14.94 12.3594 22.14L19.6794 27.82C21.4194 22.62 26.2794 18.76 31.9994 18.76Z" fill="#EA4335" style="fill:#EA4335;fill:color(display-p3 0.9176 0.2627 0.2078);fill-opacity:1;"/>
</svg>
