<svg width="64" height="64" viewBox="0 0 64 64" fill="none" xmlns="http://www.w3.org/2000/svg">
<g clip-path="url(#clip0_872_954)">
<path d="M10.7801 48.0675L12.9851 51.9041C13.4433 52.7118 14.1019 53.3464 14.8751 53.8079L22.7503 40.0771H7C7 40.9714 7.2291 41.8656 7.68729 42.6733L10.7801 48.0675Z" fill="#0066DA" style="fill:#0066DA;fill:color(display-p3 0.0000 0.4000 0.8549);fill-opacity:1;"/>
<path d="M32 23.9232L24.1249 10.1924C23.3517 10.6539 22.693 11.2885 22.2348 12.0962L7.68729 37.4808C7.23752 38.2711 7.0006 39.1661 7 40.077H22.7503L32 23.9232Z" fill="#00AC47" style="fill:#00AC47;fill:color(display-p3 0.0000 0.6745 0.2784);fill-opacity:1;"/>
<path d="M49.1243 53.8079C49.8975 53.3464 50.5562 52.7118 51.0144 51.9041L51.9307 50.3175L56.3122 42.6733C56.7704 41.8656 56.9995 40.9714 56.9995 40.0771H41.248L44.5997 46.7118L49.1243 53.8079Z" fill="#EA4335" style="fill:#EA4335;fill:color(display-p3 0.9176 0.2627 0.2078);fill-opacity:1;"/>
<path d="M32.0001 23.9231L39.8753 10.1923C39.1021 9.73077 38.2143 9.5 37.298 9.5H26.7023C25.7859 9.5 24.8982 9.75962 24.125 10.1923L32.0001 23.9231Z" fill="#00832D" style="fill:#00832D;fill:color(display-p3 0.0000 0.5137 0.1765);fill-opacity:1;"/>
<path d="M41.2496 40.0771H22.7501L14.875 53.8079C15.6482 54.2695 16.5359 54.5002 17.4523 54.5002H46.5474C47.4638 54.5002 48.3515 54.2406 49.1247 53.8079L41.2496 40.0771Z" fill="#2684FC" style="fill:#2684FC;fill:color(display-p3 0.1490 0.5176 0.9882);fill-opacity:1;"/>
<path d="M49.0389 24.7885L41.7652 12.0962C41.307 11.2885 40.6483 10.6539 39.8751 10.1924L32 23.9232L41.2497 40.077H56.9714C56.9714 39.1828 56.7423 38.2885 56.2841 37.4808L49.0389 24.7885Z" fill="#FFBA00" style="fill:#FFBA00;fill:color(display-p3 1.0000 0.7294 0.0000);fill-opacity:1;"/>
</g>
<defs>
<clipPath id="clip0_872_954">
<rect width="50" height="45" fill="white" style="fill:white;fill-opacity:1;" transform="translate(7 9.5)"/>
</clipPath>
</defs>
</svg>
