<svg width="46" height="42" viewBox="0 0 46 42" fill="none" xmlns="http://www.w3.org/2000/svg">
<g clip-path="url(#clip0_1251_1130)">
<path d="M45.346 30.8653C45.2284 30.4201 45.0383 29.9977 44.7833 29.615C44.838 29.4136 44.8797 29.2088 44.9074 29.0019C45.0886 27.6892 44.6359 26.4874 43.7829 25.5576C43.3207 25.0497 42.8254 24.7143 42.3008 24.5085C42.6452 23.0273 42.8193 21.5114 42.8202 19.9904C42.8202 19.2956 42.7811 18.6151 42.7155 17.9447C42.6814 17.6099 42.6401 17.276 42.5916 16.943C42.4415 15.9605 42.2187 14.9904 41.925 14.0413C41.7325 13.4176 41.5099 12.8037 41.2577 12.2018C40.88 11.3105 40.4388 10.4476 39.9378 9.61988C39.6092 9.06919 39.2513 8.53668 38.8657 8.02468C38.6767 7.76614 38.4798 7.5137 38.2749 7.26772C37.6679 6.52614 37.0083 5.82974 36.3012 5.18399C36.0663 4.9669 35.8249 4.75725 35.5769 4.55531C35.3329 4.35065 35.0833 4.1526 34.8288 3.96134C34.3164 3.57794 33.787 3.21826 33.2421 2.88345C30.231 1.04486 26.7 -0.00952148 22.9259 -0.00952148C11.9375 -0.00952148 3.03171 8.94442 3.03171 19.9911C3.03128 21.5314 3.20869 23.0664 3.56047 24.5654C3.08852 24.7714 2.63624 25.0926 2.21674 25.5572C1.36396 26.4866 0.911021 27.6839 1.09215 28.9966C1.11968 29.2051 1.16098 29.4116 1.21604 29.6146C0.961296 29.9974 0.771338 30.4201 0.653854 30.8653C0.391663 31.8672 0.477967 32.7707 0.811169 33.5624C0.448908 34.597 0.539364 35.6988 1.01109 36.6568C1.35413 37.3564 1.84508 37.8977 2.4503 38.3814C3.1698 38.9564 4.07043 39.445 5.15678 39.9137C6.45288 40.4695 8.03499 40.9916 8.75449 41.1832C10.613 41.6669 12.395 41.9735 14.2011 41.9885C16.7743 42.0124 18.9902 41.4041 20.5767 39.8474C21.3561 39.9434 22.1407 39.9915 22.9259 39.991C23.7556 39.9893 24.5843 39.9368 25.4076 39.834C26.9904 41.4006 29.2148 42.0144 31.7974 41.9898C33.6033 41.9753 35.3853 41.6686 37.239 41.1843C37.9633 40.9927 39.5447 40.4706 40.8415 39.9148C41.9278 39.4454 42.8285 38.9569 43.5528 38.3827C44.1534 37.8987 44.6439 37.3577 44.9872 36.6581C45.4637 35.6999 45.5494 34.5981 45.1921 33.5635C45.5221 32.7718 45.6079 31.8663 45.346 30.8653ZM43.5019 33.4954C43.867 34.1919 43.8904 34.979 43.5683 35.712C43.0797 36.8228 41.8662 37.698 39.5093 38.6375C38.0437 39.2218 36.7017 39.5954 36.6899 39.5987C34.7514 40.1042 32.9983 40.361 31.4806 40.361C28.9675 40.361 27.0974 39.6637 25.9114 38.2869C23.9059 38.6304 21.8582 38.6421 19.8489 38.3216C18.6614 39.6756 16.802 40.361 14.3101 40.361C12.7922 40.361 11.0393 40.1042 9.10058 39.5987C9.08878 39.5954 7.74723 39.2218 6.28114 38.6375C3.92448 37.698 2.71053 36.8235 2.2222 35.712C1.90014 34.979 1.92352 34.1919 2.28862 33.4954C2.32227 33.4306 2.35854 33.3675 2.39721 33.3065C2.17841 32.9761 2.03165 32.6029 1.96656 32.2112C1.90149 31.8198 1.91958 31.4189 2.01965 31.0349C2.16473 30.4807 2.46429 30.0198 2.87112 29.6888C2.67513 29.365 2.54655 29.0048 2.49313 28.6296C2.37602 27.8138 2.64542 26.9992 3.2513 26.335C3.72325 25.8181 4.3903 25.5336 5.12881 25.5336H5.14847C4.59165 23.7392 4.30933 21.8701 4.31121 19.9904C4.31121 9.7385 12.5781 1.42664 22.7769 1.42664C32.9755 1.42664 41.2424 9.73762 41.2424 19.9904C41.244 21.8752 40.9597 23.7491 40.3993 25.5477C40.4884 25.5389 40.5758 25.5345 40.6617 25.5343C41.4002 25.5343 42.0675 25.8188 42.539 26.3356C43.1449 26.9992 43.4145 27.8144 43.2971 28.6303C43.2438 29.0054 43.1151 29.3657 42.9194 29.6895C43.3262 30.0205 43.626 30.4814 43.7708 31.0356C43.8709 31.4195 43.889 31.8204 43.8239 32.2121C43.759 32.6035 43.6122 32.9767 43.3933 33.3071C43.432 33.3675 43.4687 33.4306 43.5019 33.4954Z" fill="white" style="fill:white;fill-opacity:1;"/>
<path d="M43.3952 33.3073C43.6142 32.9769 43.761 32.6037 43.8261 32.2122C43.891 31.8206 43.8729 31.4197 43.7728 31.0357C43.6277 30.4815 43.328 30.0206 42.9213 29.6896C43.1173 29.3658 43.2458 29.0056 43.2991 28.6304C43.4164 27.8146 43.147 27 42.5409 26.3358C42.0694 25.8189 41.4022 25.5345 40.6636 25.5345C40.5778 25.5345 40.4904 25.5391 40.4012 25.5479C40.961 23.7492 41.2448 21.8755 41.2429 19.991C41.2429 9.73889 32.976 1.42725 22.7782 1.42725C12.5803 1.42725 4.31246 9.73801 4.31246 19.991C4.31063 21.8707 4.59294 23.7398 5.14975 25.5342H5.13006C4.39156 25.5342 3.72452 25.8185 3.25279 26.3353C2.64691 26.999 2.37727 27.8143 2.4946 28.63C2.54806 29.0051 2.67665 29.3656 2.87259 29.6894C2.46576 30.0202 2.16601 30.4811 2.02093 31.0353C1.9209 31.4195 1.90288 31.8204 1.96803 32.212C2.03318 32.6035 2.18001 32.9769 2.3989 33.3073C2.36001 33.3683 2.32417 33.4314 2.29031 33.4962C1.92542 34.1927 1.90185 34.9798 2.22413 35.7128C2.71268 36.8236 3.92617 37.6988 6.28305 38.6383C7.74848 39.2226 9.09071 39.5962 9.10251 39.5995C11.041 40.105 12.7942 40.3618 14.3119 40.3618C16.804 40.3618 18.6634 39.6764 19.8509 38.3224C21.8601 38.6429 23.9079 38.631 25.9134 38.2877C27.0994 39.6646 28.9695 40.3618 31.4826 40.3618C33.0002 40.3618 34.7534 40.105 36.6917 39.5995C36.7037 39.5962 38.0452 39.2226 39.5113 38.6383C41.8682 37.6988 43.0819 36.8236 43.5703 35.7128C43.8923 34.9798 43.8689 34.1927 43.5038 33.4962C43.4706 33.4309 43.4339 33.3677 43.3952 33.3073ZM19.0012 36.2026C18.8989 36.3823 18.7894 36.5578 18.673 36.7285C18.366 37.1804 17.9622 37.5257 17.4936 37.7823C16.5977 38.2734 15.4638 38.445 14.3119 38.445C12.492 38.445 10.6265 38.0169 9.58101 37.7442C9.52944 37.7309 3.17173 35.9254 3.97666 34.3887C4.11212 34.1301 4.33497 34.0269 4.61573 34.0269C5.74905 34.0269 7.81272 35.7236 8.69958 35.7236C8.89776 35.7236 9.03759 35.6388 9.09462 35.4319C9.47261 34.0691 3.34978 33.4962 3.86542 31.5227C3.95632 31.1734 4.20324 31.0315 4.5502 31.0315C6.04863 31.0313 9.41167 33.6807 10.115 33.6807C10.169 33.6807 10.2076 33.6646 10.2286 33.6313C10.2317 33.6262 10.2347 33.6214 10.2376 33.6161C10.5678 33.068 10.3783 32.6696 8.11664 31.2769L7.89946 31.144C5.41061 29.6296 3.66375 28.7183 4.65724 27.6309C4.77151 27.5055 4.93364 27.4499 5.1305 27.4499C5.36385 27.4499 5.64636 27.5283 5.9575 27.6601C7.27195 28.2174 9.09377 29.7373 9.85478 30.4C9.97449 30.5046 10.0934 30.6102 10.2116 30.7165C10.2116 30.7165 11.1752 31.7239 11.7577 31.7239C11.8918 31.7239 12.0056 31.6708 12.0828 31.5394C12.496 30.8391 8.24534 27.6008 8.00565 26.2646C7.84309 25.3594 8.1197 24.9007 8.63098 24.9007C8.87416 24.9007 9.17087 25.0048 9.49839 25.2137C10.5144 25.862 12.4761 29.2509 13.1942 30.5694C13.435 31.0111 13.846 31.1978 14.2164 31.1978C14.9511 31.1978 15.5256 30.4635 14.2836 29.5304C12.4171 28.1263 13.0721 25.8312 13.9629 25.69C14.0009 25.6838 14.0394 25.6807 14.0776 25.6807C14.8878 25.6807 15.245 27.0842 15.245 27.0842C15.245 27.0842 16.2925 29.7285 18.0918 31.5361C19.7244 33.1768 19.9525 34.5231 19.0012 36.2026ZM24.8194 36.5124L24.7261 36.5236L24.567 36.5418C24.4834 36.5506 24.3995 36.5589 24.3153 36.5666L24.2334 36.5741L24.1585 36.5805L24.0523 36.589L23.9349 36.5976L23.8178 36.6053L23.7918 36.607C23.7612 36.6088 23.7307 36.6108 23.6996 36.6123L23.6605 36.6145C23.6243 36.6165 23.588 36.6183 23.5513 36.6198L23.4243 36.6253L23.3092 36.6292L23.2323 36.6314H23.1932C23.1691 36.6314 23.1453 36.6327 23.1213 36.633H23.0833C23.0592 36.633 23.0354 36.633 23.0114 36.6341L22.9135 36.6354H22.7769C22.6697 36.6354 22.5626 36.6343 22.456 36.6321L22.3694 36.6301C22.3448 36.6301 22.3201 36.629 22.2958 36.6281L22.204 36.6255L22.0902 36.6211L21.9875 36.6165L21.9611 36.6154L21.8634 36.6103C21.8361 36.6088 21.8092 36.6075 21.7821 36.6055L21.719 36.6018C21.6397 36.5967 21.5604 36.5912 21.4811 36.5851L21.398 36.5783C21.3631 36.5756 21.3281 36.5723 21.2934 36.5693C21.2525 36.5658 21.2116 36.5618 21.1708 36.5578C21.1024 36.5515 21.034 36.5444 20.9656 36.537H20.9623C21.9609 34.2975 21.4559 32.2059 19.4381 30.179C18.1147 28.8503 17.2344 26.8882 17.0518 26.4575C16.682 25.1823 15.7037 23.7648 14.0787 23.7648C13.9413 23.7648 13.8041 23.7758 13.6684 23.7973C12.9565 23.91 12.3343 24.3219 11.8903 24.9418C11.4105 24.3419 10.9442 23.865 10.5225 23.5957C9.88668 23.1904 9.25215 22.9848 8.63404 22.9848C7.86254 22.9848 7.17297 23.3033 6.69229 23.881L6.68005 23.8958C6.67087 23.8578 6.66213 23.8198 6.65318 23.7815L6.65208 23.7765C6.5606 23.3833 6.4838 22.9868 6.42179 22.5877C6.42179 22.585 6.42179 22.5824 6.42048 22.5798C6.41567 22.5497 6.4113 22.5193 6.40672 22.4893C6.39328 22.4001 6.38067 22.3107 6.36892 22.2213C6.36367 22.1806 6.35799 22.14 6.35297 22.0993L6.33811 21.9774C6.3333 21.9368 6.32937 21.8999 6.325 21.8612L6.32371 21.8516C6.30625 21.6934 6.29096 21.5353 6.27781 21.3767L6.273 21.3158L6.26535 21.2121C6.26317 21.1838 6.26098 21.1552 6.25945 21.1267C6.25945 21.1199 6.25836 21.1133 6.25814 21.1069C6.25259 21.0274 6.24785 20.9477 6.24394 20.8679C6.24175 20.8264 6.23957 20.7851 6.23782 20.7434L6.23345 20.6344L6.23236 20.6015L6.22886 20.5011L6.22668 20.4156C6.22668 20.3816 6.22493 20.3475 6.22449 20.3135C6.22384 20.2794 6.22296 20.2421 6.22275 20.2061C6.22231 20.17 6.22275 20.1345 6.22165 20.0986C6.22078 20.0626 6.22165 20.0268 6.22165 19.991C6.22165 10.7974 13.6354 3.34403 22.7809 3.34403C31.9261 3.34403 39.3396 10.7972 39.3396 19.991V20.2061C39.3396 20.2419 39.3385 20.2779 39.3378 20.3135C39.3378 20.3431 39.3365 20.3724 39.3356 20.4024C39.3356 20.4288 39.3346 20.4554 39.3337 20.4809C39.3337 20.5145 39.3317 20.5481 39.3306 20.5817V20.5843L39.326 20.701C39.3245 20.735 39.3232 20.7693 39.3214 20.8033L39.3204 20.8275L39.3145 20.9365C39.3016 21.17 39.2839 21.403 39.2618 21.6359V21.6387C39.2581 21.6769 39.2544 21.7152 39.2502 21.7534L39.2404 21.8437L39.2209 22.0203L39.2098 22.1097L39.196 22.2149C39.191 22.2531 39.186 22.2916 39.1803 22.3296C39.1746 22.3724 39.1683 22.415 39.1619 22.4576L39.1469 22.5584L39.129 22.6727C39.1228 22.7107 39.1163 22.7485 39.1093 22.7862C39.1021 22.8242 39.0964 22.862 39.0898 22.8998C39.0767 22.9754 39.063 23.0509 39.0485 23.1263C39.0265 23.239 39.004 23.3514 38.9808 23.4639L38.9568 23.5753C38.9489 23.6124 38.9404 23.6497 38.9321 23.6869C38.466 23.2315 37.8488 22.9835 37.1682 22.9835C36.5505 22.9835 35.9154 23.1889 35.2798 23.5942C34.8581 23.8635 34.392 24.3406 33.912 24.9403C33.4674 24.3204 32.8451 23.9085 32.1337 23.7958C31.998 23.7743 31.8608 23.7633 31.7233 23.7633C30.098 23.7633 29.1202 25.1808 28.7503 26.4559C28.5668 26.8867 27.6863 28.8487 26.3617 30.1795C24.3453 32.1999 23.8366 34.2821 24.8194 36.5124ZM41.9145 32.0293L41.908 32.0488C41.8914 32.093 41.8721 32.136 41.8505 32.1777C41.8341 32.2085 41.8164 32.2384 41.7972 32.2674C41.7607 32.3221 41.7207 32.3743 41.6772 32.4236C41.6672 32.435 41.6576 32.4464 41.6462 32.4576C41.6305 32.4745 41.6145 32.4912 41.5981 32.5075C41.3041 32.8005 40.8557 33.0575 40.3488 33.2932C40.2913 33.3193 40.233 33.3455 40.1742 33.3718L40.1157 33.398C40.0766 33.4153 40.0374 33.4325 39.9964 33.4494C39.9573 33.4665 39.9166 33.4837 39.876 33.5003L39.7541 33.5509C39.4689 33.6688 39.1768 33.7813 38.8919 33.8922L38.77 33.9399L38.6496 33.9873C38.5694 34.0187 38.4903 34.0502 38.4125 34.0816L38.2965 34.1286L38.1824 34.1754L38.1265 34.1991C38.0891 34.2147 38.0527 34.2303 38.0162 34.2459C37.1778 34.6077 36.5746 34.9756 36.7013 35.4321C36.7048 35.445 36.7087 35.4573 36.7131 35.4694C36.7244 35.5032 36.7399 35.5351 36.7594 35.5652C36.7708 35.583 36.7839 35.5999 36.7985 35.6153C36.9475 35.771 37.2187 35.7464 37.5606 35.6227C37.6087 35.6049 37.6565 35.5865 37.7039 35.5672L37.7337 35.5549C37.8119 35.5215 37.8947 35.4841 37.9792 35.4437C38.0004 35.4336 38.0219 35.4239 38.0433 35.4127C38.4615 35.2071 38.9354 34.9304 39.4056 34.6784C39.5937 34.5763 39.7844 34.4794 39.9776 34.3873C40.4229 34.1767 40.8415 34.0273 41.178 34.0273C41.336 34.0273 41.4754 34.0598 41.5916 34.1345L41.611 34.1475C41.684 34.1991 41.7452 34.2654 41.7909 34.3423C41.7998 34.357 41.8086 34.3726 41.8171 34.3887C41.9833 34.7061 41.8442 35.0347 41.5184 35.3569C41.2057 35.6665 40.7194 35.9698 40.1666 36.2505C40.1255 36.2714 40.0844 36.2923 40.0427 36.3127C38.3974 37.125 36.2429 37.7368 36.2129 37.7445C35.6387 37.8941 34.8177 38.0904 33.8926 38.2374L33.7558 38.2589L33.7333 38.2622C33.6297 38.278 33.5259 38.2928 33.4219 38.3064C33.3164 38.3206 33.2098 38.3336 33.1025 38.3457L33.0828 38.3479C32.6939 38.3929 32.3034 38.4228 31.9121 38.4371H31.9064C31.7649 38.4421 31.6235 38.4448 31.4819 38.4448H31.3187C31.1028 38.4419 30.8874 38.432 30.6722 38.4153C30.6672 38.4153 30.6617 38.4153 30.6567 38.414C30.5795 38.4081 30.5026 38.4008 30.4257 38.3923C30.346 38.3837 30.2664 38.374 30.1871 38.3633C30.1349 38.3562 30.0829 38.3483 30.0309 38.3398C29.978 38.3312 29.9252 38.3224 29.8725 38.3132L29.8006 38.2996L29.7951 38.2985C29.7193 38.284 29.644 38.2679 29.5688 38.2504C29.5251 38.2405 29.4816 38.2308 29.4386 38.2189L29.4126 38.2124C29.3912 38.2071 29.3704 38.2014 29.3492 38.1957L29.3376 38.1926L29.2703 38.1728C29.2459 38.166 29.2214 38.1585 29.1969 38.1513L29.1884 38.1489L29.1248 38.1293C29.1008 38.1219 29.0767 38.1139 29.0529 38.106L28.9944 38.0865L28.9513 38.0713C28.9098 38.0566 28.8685 38.0415 28.8277 38.0256L28.7888 38.0103L28.7566 37.9975C28.6946 37.9725 28.633 37.9463 28.572 37.9189L28.5316 37.8991L28.5248 37.896C28.5104 37.8892 28.4962 37.8824 28.4818 37.8765C28.4536 37.8629 28.4256 37.8488 28.3979 37.8345L28.3894 37.8304L28.3492 37.809C28.2777 37.7715 28.2078 37.7315 28.1392 37.6891L28.1016 37.6658C28.0828 37.6542 28.064 37.6421 28.0457 37.6298L27.9967 37.5973L27.9441 37.5608L27.9126 37.5382C27.8794 37.5145 27.8468 37.4899 27.8149 37.4646L27.764 37.4253C27.7437 37.4088 27.7236 37.3921 27.7037 37.3752C27.6869 37.3614 27.6705 37.3469 27.6541 37.3324L27.6528 37.3313C27.6351 37.3157 27.6179 37.3001 27.6006 37.2841C27.5836 37.2685 27.5665 37.2526 27.5499 37.2366L27.5479 37.2346C27.5305 37.2179 27.5134 37.201 27.4966 37.1837C27.4798 37.1665 27.4625 37.1494 27.4461 37.1318C27.4297 37.1145 27.4129 37.0967 27.3968 37.0784C27.3806 37.0604 27.3657 37.044 27.3504 37.0262L27.3454 37.0202C27.3305 37.0031 27.3159 36.9857 27.3015 36.968C27.2702 36.9304 27.2399 36.892 27.2106 36.8526C27.1811 36.8131 27.1523 36.7727 27.1241 36.7316L27.0972 36.6912C27.0614 36.6385 27.0264 36.5853 26.9925 36.5313C26.9672 36.4924 26.9425 36.4533 26.9185 36.4135C26.903 36.3887 26.8881 36.3637 26.8732 36.3391L26.8671 36.329C26.8529 36.3048 26.8389 36.2811 26.8254 36.2571C26.8175 36.2442 26.8101 36.2312 26.8031 36.2178C26.7959 36.2042 26.7876 36.1903 26.7799 36.1765L26.7675 36.1548L26.7598 36.1407C26.7452 36.1143 26.7308 36.0878 26.7168 36.061C26.7102 36.0491 26.7039 36.0372 26.6971 36.0258L26.6777 35.9878L26.658 35.9503C26.6089 35.8514 26.5623 35.7512 26.5186 35.6498L26.5031 35.6126C26.4931 35.5878 26.4837 35.5632 26.4736 35.5388C26.4688 35.527 26.464 35.5153 26.4599 35.5035C26.4365 35.4426 26.4146 35.3811 26.3945 35.3192C26.3873 35.297 26.3803 35.2752 26.3738 35.2533C26.358 35.2034 26.3438 35.1531 26.3312 35.1024C26.3156 35.0433 26.3019 34.9837 26.2903 34.9238C26.2879 34.9117 26.2855 34.8996 26.2835 34.888C26.2722 34.8293 26.263 34.7702 26.2558 34.7109C26.254 34.6993 26.2527 34.6876 26.2514 34.676L26.2477 34.6404C26.2429 34.5938 26.2392 34.547 26.237 34.5003C26.237 34.4884 26.2359 34.4765 26.2355 34.4651C26.2344 34.4418 26.2339 34.4185 26.2337 34.3953C26.2215 33.4566 26.6939 32.5543 27.704 31.5392C29.5032 29.732 30.5507 27.0875 30.5507 27.0875C30.5507 27.0875 30.5789 26.9765 30.6374 26.8169C30.6455 26.7947 30.654 26.7718 30.6637 26.7479C30.6977 26.6585 30.7362 26.5706 30.7788 26.4849L30.7873 26.4685C30.8236 26.3955 30.8634 26.3244 30.9062 26.2552C30.9162 26.2391 30.9259 26.2233 30.937 26.2073C30.9691 26.1596 31.003 26.113 31.0386 26.068C31.058 26.0436 31.0792 26.0195 31.1004 25.996C31.1089 25.9867 31.1172 25.9775 31.1262 25.9687C31.2304 25.8604 31.3495 25.7721 31.4843 25.7251L31.5014 25.7194C31.5127 25.7157 31.5241 25.7122 31.5357 25.7089C31.549 25.7054 31.5623 25.7023 31.5761 25.6994L31.5824 25.6981C31.6108 25.6924 31.6397 25.6887 31.6687 25.6867H31.6711C31.6862 25.6867 31.7015 25.6851 31.717 25.6851C31.7365 25.6851 31.7546 25.6851 31.7736 25.6871C31.7933 25.6889 31.8127 25.6911 31.8324 25.6941C31.9945 25.7201 32.1488 25.8172 32.2816 25.967C32.3321 26.0241 32.3775 26.0856 32.4173 26.1506C32.4435 26.1928 32.4682 26.2374 32.4916 26.2844C32.501 26.3039 32.5099 26.3219 32.5187 26.3413C32.5414 26.3909 32.5619 26.4414 32.5798 26.4931C32.6224 26.6139 32.6546 26.7382 32.6758 26.8647C32.6941 26.9757 32.705 27.0877 32.7085 27.1999C32.7103 27.2599 32.7103 27.3208 32.7085 27.382C32.6967 27.6672 32.6386 27.9486 32.5366 28.215C32.5274 28.2394 32.5171 28.264 32.5073 28.2886C32.4872 28.3382 32.4651 28.387 32.4413 28.4347C32.4236 28.4709 32.405 28.5074 32.3849 28.5436C32.3718 28.5678 32.3581 28.592 32.3443 28.6161C32.3091 28.6763 32.2711 28.7361 32.2303 28.7956L32.2056 28.8312C32.109 28.9665 32.0015 29.0934 31.8839 29.2107C31.7681 29.3274 31.644 29.4352 31.5127 29.5337C31.3812 29.6316 31.2577 29.7401 31.1437 29.8581C30.8153 30.2045 30.7388 30.5103 30.8127 30.742C30.8245 30.7785 30.84 30.8139 30.8588 30.8472C30.8808 30.8855 30.9071 30.9206 30.9368 30.9527L30.9484 30.9648L30.9602 30.9766C30.972 30.988 30.9844 30.9992 30.9977 31.0102L31.0108 31.0208C31.0425 31.0454 31.0762 31.0673 31.1114 31.0867C31.1216 31.0922 31.1308 31.0977 31.1424 31.1029C31.1804 31.1216 31.2195 31.1376 31.2597 31.1506C31.2709 31.1543 31.282 31.1576 31.2934 31.1611L31.3076 31.1649L31.3272 31.1702L31.344 31.1743L31.3624 31.1783L31.3805 31.182L31.3978 31.1849C31.4105 31.1871 31.4236 31.1893 31.4367 31.1908L31.4491 31.1928L31.4719 31.195L31.4858 31.1965L31.5088 31.198H31.5223L31.5464 31.1994H31.622L31.6436 31.198L31.6685 31.1965L31.6989 31.1937L31.7273 31.1904C31.7338 31.1904 31.7404 31.1886 31.7469 31.1873C31.8343 31.1745 31.92 31.1513 32.0019 31.1179L32.0367 31.1032C32.0561 31.0946 32.0758 31.0856 32.0937 31.0759C32.1322 31.0566 32.1695 31.0346 32.2053 31.0107C32.2554 30.9777 32.3026 30.9408 32.3467 30.9002C32.3572 30.8907 32.3675 30.8806 32.3775 30.871C32.3825 30.8661 32.3874 30.8615 32.3922 30.8563C32.4018 30.8464 32.4116 30.8367 32.4212 30.8259C32.4911 30.7486 32.5517 30.6634 32.6015 30.5718C33.0291 29.79 33.4772 29.0199 33.9454 28.2622L34.0097 28.1588L34.0746 28.0553C34.1069 28.0028 34.1397 27.9512 34.1722 27.8998L34.205 27.8484C34.3138 27.6771 34.4244 27.5068 34.5369 27.3379L34.6035 27.2377C34.7372 27.0385 34.8705 26.8447 35.0027 26.6607L35.0685 26.5695C35.2122 26.3703 35.3619 26.1752 35.5173 25.985L35.5789 25.9107C35.5891 25.8984 35.5985 25.8861 35.6097 25.8743C35.63 25.8501 35.6503 25.8266 35.6702 25.8038C35.6803 25.7921 35.6897 25.7807 35.7004 25.7693L35.7589 25.7029L35.7882 25.6706C35.8177 25.6388 35.8465 25.6083 35.8749 25.579C35.8946 25.5593 35.9127 25.5397 35.9315 25.5213C36.0423 25.4075 36.1644 25.3053 36.2962 25.2168L36.3268 25.1971C36.3561 25.1773 36.3864 25.1588 36.4175 25.1421C36.934 24.8473 37.3616 24.8256 37.6078 25.0732C37.7568 25.223 37.8394 25.4714 37.8348 25.8172C37.8348 25.8323 37.8348 25.8477 37.8337 25.8635V25.8804C37.8337 25.8962 37.8324 25.9121 37.8311 25.9281C37.8311 25.9479 37.8289 25.9674 37.827 25.9872C37.825 26.0067 37.8239 26.0217 37.8219 26.0392C37.8219 26.0441 37.8211 26.0491 37.8202 26.0544C37.8189 26.0696 37.8169 26.0852 37.8147 26.1007C37.8147 26.1054 37.8147 26.1102 37.813 26.115C37.8106 26.1359 37.8075 26.1565 37.804 26.1772C37.8016 26.197 37.7983 26.2154 37.7948 26.2347L37.7892 26.2675C37.7835 26.2987 37.7763 26.3294 37.7673 26.3597C37.7503 26.4166 37.7297 26.4722 37.7055 26.5262C37.6716 26.6005 37.6342 26.6728 37.5932 26.743C37.5704 26.7821 37.5471 26.8206 37.5228 26.8586C37.4979 26.8979 37.4717 26.9377 37.4446 26.9779C37.3755 27.0772 37.3039 27.1745 37.2294 27.2696L37.1953 27.3128C37.0738 27.4651 36.9484 27.6142 36.819 27.7599L36.7782 27.806C36.7231 27.8677 36.6672 27.9299 36.6099 27.9923L36.5669 28.0393C36.5383 28.0707 36.5083 28.1021 36.4795 28.1337C36.4509 28.1651 36.4209 28.197 36.3908 28.2289L36.301 28.324L36.2099 28.4197L36.1181 28.5155C36.0565 28.5797 35.9947 28.6438 35.9324 28.7079C35.0464 29.6215 34.113 30.532 33.7971 31.0996C33.7759 31.1365 33.7569 31.1748 33.7398 31.2136C33.6948 31.3169 33.676 31.4052 33.6889 31.4766C33.6931 31.5001 33.7011 31.5225 33.7132 31.5431C33.7309 31.5741 33.7525 31.6027 33.7776 31.6281C33.7892 31.6396 33.8014 31.6501 33.8143 31.6598C33.8794 31.7063 33.9579 31.7303 34.0378 31.7281H34.0628L34.0883 31.7261L34.1139 31.7233L34.1351 31.7202C34.1379 31.7197 34.141 31.7193 34.1438 31.7184L34.1633 31.7147L34.1683 31.7136L34.1899 31.709L34.1976 31.707C34.2052 31.705 34.2126 31.7031 34.2203 31.7009C34.2279 31.6987 34.2384 31.6958 34.2476 31.6927C34.2861 31.6811 34.3236 31.6672 34.3606 31.6514C34.38 31.6435 34.399 31.635 34.4178 31.6257C34.4276 31.6213 34.4375 31.6167 34.4466 31.6119L34.4759 31.5974C34.5458 31.5609 34.614 31.5212 34.6804 31.4786L34.7095 31.4588C34.7193 31.4526 34.7292 31.4463 34.7386 31.4392L34.7676 31.4197L34.7831 31.4089L34.8251 31.3793C34.8642 31.3523 34.9007 31.3244 34.9376 31.296L34.9409 31.2934L34.9997 31.2477C35.0798 31.184 35.1559 31.1198 35.2249 31.0594L35.2708 31.019L35.275 31.0151L35.299 30.9938C35.3554 30.9428 35.4056 30.8954 35.4473 30.8563L35.4646 30.8393C35.4797 30.8251 35.4934 30.8117 35.5059 30.8002L35.5304 30.7759L35.5391 30.7673L35.5415 30.7649L35.5671 30.7392L35.5832 30.7223L35.5852 30.7207L35.5929 30.7137L35.6025 30.7049L35.6055 30.702L35.6136 30.6946L35.6582 30.6553L35.6831 30.6329C35.6964 30.6212 35.7093 30.6093 35.7222 30.5973L35.7519 30.5707C35.7574 30.5663 35.7626 30.5615 35.7681 30.5566L35.7993 30.5292L35.8452 30.4885L35.8697 30.4672C35.9647 30.3842 36.0803 30.2838 36.2132 30.1707L36.2676 30.1243L36.3574 30.0485L36.4494 29.9714C36.5695 29.8711 36.6989 29.7645 36.8356 29.654L36.9255 29.5815C37.0019 29.5203 37.0804 29.4579 37.1599 29.395C37.192 29.3698 37.2246 29.3445 37.2578 29.3195C37.3391 29.256 37.4208 29.193 37.5031 29.1308C37.6906 28.9884 37.884 28.8459 38.0797 28.7071L38.1637 28.6482C38.2224 28.6076 38.281 28.5667 38.3395 28.5269L38.3926 28.4909C38.4973 28.4195 38.6035 28.3499 38.7105 28.282L38.7636 28.2484L38.8163 28.2155C38.8692 28.1825 38.9216 28.1502 38.9738 28.1188L39.026 28.0874L39.1305 28.0263L39.233 27.9672L39.2537 27.9558L39.3348 27.911C39.3686 27.8925 39.4023 27.8748 39.4359 27.8574L39.486 27.8315L39.5347 27.8069C39.5517 27.7987 39.5686 27.7902 39.5852 27.7821C39.6948 27.7276 39.8067 27.6775 39.9203 27.6318C39.9511 27.6186 39.9817 27.6068 40.0121 27.5964L40.1017 27.5648C40.1286 27.5558 40.1548 27.5472 40.1799 27.5395L40.1886 27.5369C40.2022 27.5325 40.2157 27.5286 40.2291 27.525L40.233 27.524C40.261 27.5158 40.2887 27.5088 40.316 27.5022H40.318C40.3953 27.4835 40.474 27.4701 40.5533 27.462C40.5898 27.4583 40.6263 27.4563 40.663 27.4565H40.6813C40.7058 27.4565 40.7294 27.458 40.7528 27.4605C40.7635 27.4605 40.7742 27.4627 40.7847 27.464H40.7891C40.7996 27.4653 40.81 27.4668 40.8205 27.4693C40.8308 27.4712 40.8413 27.473 40.8513 27.4754H40.8546C40.8649 27.4776 40.8741 27.4802 40.8848 27.4833C40.9403 27.4989 40.9931 27.5231 41.0416 27.5547C41.0655 27.5703 41.0877 27.5879 41.1083 27.6074L41.1142 27.6131C41.1181 27.6166 41.1218 27.6204 41.1253 27.6241L41.136 27.6358C41.2239 27.7282 41.2964 27.8343 41.351 27.9499L41.3593 27.9696C41.3779 28.0136 41.3925 28.059 41.403 28.1054C41.4341 28.2473 41.422 28.3954 41.3685 28.5305C41.3482 28.5849 41.3235 28.6374 41.2944 28.6875C41.2265 28.8026 41.1459 28.9096 41.0543 29.0065L41.0349 29.0273C41.0058 29.0581 40.9757 29.0888 40.944 29.1196C40.93 29.1334 40.9154 29.147 40.9007 29.1609L40.8559 29.2024L40.8325 29.2233C40.7762 29.2738 40.7183 29.3228 40.6595 29.3702C40.6239 29.3992 40.5881 29.4276 40.5518 29.4555C40.4237 29.5539 40.2933 29.6488 40.1605 29.7404C40.0803 29.7957 39.9994 29.85 39.9179 29.9036C39.7171 30.036 39.5142 30.1652 39.3092 30.2908C38.8792 30.5566 38.4027 30.8409 37.8947 31.1499L37.7632 31.2301C37.6192 31.3184 37.4833 31.4028 37.3552 31.4832L37.2908 31.5238L37.1689 31.6024C37.088 31.6545 37.0074 31.707 36.9268 31.7595L36.8619 31.8026C36.8302 31.8232 36.7987 31.8443 36.7673 31.8654L36.7365 31.8852L36.6421 31.9491L36.592 31.9836L36.5335 32.0244L36.4791 32.0624C36.388 32.1272 36.3032 32.189 36.2252 32.2476L36.1959 32.27C36.15 32.3049 36.1046 32.3405 36.0598 32.3768C35.9923 32.4315 35.9307 32.4837 35.8754 32.534L35.8483 32.5589C35.8328 32.5731 35.8175 32.5874 35.8028 32.6015C35.7928 32.6114 35.7834 32.6212 35.7729 32.6307L35.7589 32.6448C35.7277 32.6764 35.6971 32.7087 35.6676 32.7418L35.6532 32.7585C35.621 32.7959 35.5931 32.8317 35.5686 32.8666L35.5577 32.8822C35.5385 32.9103 35.5208 32.9393 35.5048 32.9692C35.5007 32.9767 35.4969 32.9841 35.4932 32.9916L35.4825 33.014L35.4753 33.0303L35.4707 33.0412L35.467 33.0511L35.462 33.0645C35.4484 33.1017 35.439 33.1403 35.4336 33.1794L35.4318 33.193L35.4305 33.2058V33.275C35.4305 33.2807 35.4305 33.2864 35.432 33.2925L35.4331 33.3031C35.4331 33.3088 35.4345 33.3143 35.4353 33.3204C35.4362 33.3262 35.4377 33.3365 35.4395 33.3446V33.3457C35.441 33.3534 35.4425 33.3609 35.4445 33.3685C35.4465 33.3762 35.4484 33.385 35.4508 33.3929C35.455 33.4085 35.4602 33.4239 35.4657 33.4393C35.4692 33.4485 35.4725 33.4575 35.4762 33.4665C35.4762 33.4665 35.4775 33.4702 35.4784 33.472L35.4862 33.4898L35.4972 33.5142C35.509 33.5394 35.5219 33.564 35.5358 33.588L35.5503 33.613L35.5651 33.6381C35.5677 33.6422 35.5708 33.6462 35.5741 33.6499L35.5789 33.655L35.5843 33.66L35.59 33.6644C35.5983 33.6704 35.6073 33.675 35.6167 33.6783C35.6217 33.68 35.6269 33.6813 35.6322 33.6827C35.7583 33.7112 36.0174 33.6064 36.3617 33.4237C36.3812 33.4131 36.4026 33.4022 36.4234 33.3907L36.5282 33.3332L36.5794 33.3046C36.6158 33.2851 36.653 33.2629 36.691 33.2411L36.7603 33.2018C37.2154 32.9384 37.759 32.6002 38.321 32.2698C38.3736 32.2388 38.4265 32.2078 38.4794 32.1773L38.5856 32.109C38.7088 32.038 38.8327 31.968 38.957 31.8988C39.1137 31.8122 39.2714 31.7279 39.4307 31.6462L39.5347 31.5932C39.6037 31.559 39.6721 31.5256 39.7396 31.4931C39.8703 31.4307 40.0025 31.3714 40.1362 31.3153L40.2094 31.2855L40.2181 31.282C40.606 31.1275 40.9575 31.0322 41.242 31.0322C41.3034 31.0315 41.365 31.0368 41.4255 31.0474H41.4275C41.4469 31.0509 41.4646 31.0548 41.4828 31.0592H41.4861C41.5326 31.0711 41.5778 31.088 41.6206 31.1097C41.6807 31.1409 41.7347 31.1825 41.7804 31.2325C41.8013 31.2558 41.8199 31.2811 41.8363 31.3079C41.8669 31.3551 41.8909 31.4063 41.9082 31.4599C41.9152 31.4808 41.9213 31.5012 41.9276 31.5229C41.9737 31.6892 41.9691 31.8656 41.9145 32.0293Z" fill="#FF9D00" style="fill:#FF9D00;fill:color(display-p3 1.0000 0.6157 0.0000);fill-opacity:1;"/>
<path fill-rule="evenodd" clip-rule="evenodd" d="M39.3339 20.0984V19.9906C39.3339 10.7967 31.923 3.34375 22.7776 3.34375C13.6324 3.34375 6.21868 10.7972 6.21868 19.9906V20.0266C6.21825 20.0505 6.21803 20.0745 6.21868 20.0984C6.21975 20.1342 6.22013 20.17 6.21978 20.2058L6.22089 20.2849L6.22152 20.3132C6.22152 20.3264 6.22198 20.3394 6.22242 20.3526C6.22308 20.3734 6.22349 20.3945 6.22349 20.4154L6.22589 20.5008L6.22939 20.6012L6.23048 20.6342L6.23485 20.7381V20.7431C6.2366 20.7838 6.23881 20.8242 6.24077 20.8646L6.24097 20.8677C6.24316 20.909 6.24536 20.9505 6.24798 20.992C6.25017 21.0302 6.25233 21.0684 6.25517 21.1067L6.25563 21.1135C6.25753 21.1462 6.25972 21.1792 6.26216 21.2119L6.26282 21.2207L6.27003 21.3156L6.27071 21.3217C6.27202 21.3402 6.27331 21.3586 6.27505 21.3764C6.28812 21.5348 6.30335 21.6932 6.32074 21.8511L6.32181 21.861L6.33514 21.9772L6.35002 22.0991L6.36092 22.1819L6.36595 22.2208C6.37759 22.3104 6.3902 22.3998 6.40375 22.489L6.40464 22.4949L6.41751 22.5793C6.47989 22.9811 6.55715 23.3804 6.64912 23.7765L6.65023 23.7813L6.6572 23.811L6.67708 23.8955L6.68932 23.8808C7.17 23.3031 7.85957 22.9846 8.63107 22.9846C9.2494 22.9846 9.88371 23.1902 10.5195 23.5955C10.9412 23.8648 11.4074 24.3417 11.8872 24.9416C12.3312 24.3217 12.9535 23.9096 13.6653 23.7971C13.8011 23.7756 13.9383 23.7648 14.0757 23.7646C15.7004 23.7646 16.679 25.1821 17.0487 26.4572C17.2313 26.888 18.1117 28.85 19.4392 30.1772C21.4572 32.2041 21.9622 34.2955 20.9634 36.535H20.9669C21.0349 36.5427 21.1033 36.5497 21.1721 36.5561C21.2129 36.56 21.2536 36.564 21.2947 36.5675L21.3091 36.5688L21.3993 36.5765L21.4824 36.5831C21.5614 36.5892 21.6408 36.595 21.7203 36.6L21.7834 36.6037L21.8335 36.6068L21.8645 36.6086L21.9622 36.6136L21.9888 36.6147L22.0913 36.6193L22.2053 36.6237L22.2969 36.6264L22.3122 36.6268C22.3316 36.6277 22.3511 36.6283 22.3705 36.6283L22.3915 36.629C22.5204 36.6321 22.6491 36.6336 22.778 36.6334H22.9148L23.0125 36.6323C23.0365 36.6312 23.0603 36.6312 23.0846 36.6312H23.1226L23.1556 36.6303C23.1685 36.6299 23.1814 36.6294 23.1945 36.6294H23.2336L23.3103 36.6275L23.4256 36.6235L23.5526 36.6178C23.5893 36.6165 23.6255 36.6145 23.6618 36.6127L23.7009 36.6103L23.759 36.6072L23.7931 36.6053L23.8189 36.6035L23.9362 36.5958L24.0534 36.5873L24.1598 36.5787L24.2345 36.5723L24.3166 36.5649C24.4539 36.5526 24.5906 36.5381 24.7274 36.5216L24.8207 36.5104C23.8377 34.2804 24.3466 32.1979 26.3561 30.1792C27.6808 28.8485 28.5611 26.8865 28.7446 26.4555C29.1145 25.1806 30.0925 23.7631 31.7177 23.7631C31.8551 23.7631 31.9925 23.7741 32.1282 23.7956C32.8394 23.908 33.4617 24.3201 33.9063 24.94C34.3863 24.3403 34.8524 23.863 35.2743 23.5937C35.9099 23.1886 36.5448 22.983 37.1625 22.983C37.8433 22.983 38.4604 23.2313 38.9264 23.6866C38.9349 23.6495 38.9432 23.6124 38.9513 23.575L38.9751 23.4639C38.9836 23.4232 38.9922 23.3826 39.0002 23.342C39.0147 23.2701 39.0291 23.1983 39.0429 23.1258C39.0573 23.0507 39.071 22.9751 39.0842 22.8996L39.0909 22.8587C39.0951 22.8345 39.099 22.8104 39.1036 22.786C39.111 22.7482 39.1171 22.7104 39.1233 22.6722L39.1257 22.6577L39.1412 22.5582L39.1565 22.4574C39.1676 22.3829 39.1781 22.3076 39.1879 22.2331L39.1903 22.2147L39.2041 22.1097L39.2152 22.02L39.2349 21.8434L39.2426 21.7725L39.2445 21.7531C39.2487 21.7149 39.2526 21.6767 39.2561 21.6385V21.6354C39.2589 21.6051 39.262 21.5746 39.2646 21.544C39.2801 21.3709 39.2933 21.197 39.3037 21.0223C39.3057 20.9938 39.3072 20.965 39.309 20.9362V20.9349L39.3147 20.827L39.316 20.8029C39.3195 20.7299 39.3225 20.657 39.3249 20.5841V20.5815L39.326 20.5529C39.3271 20.529 39.328 20.5048 39.328 20.4806L39.3284 20.471C39.3293 20.4483 39.3302 20.4251 39.3302 20.402L39.3308 20.3822C39.3315 20.3592 39.3321 20.3363 39.3321 20.3132L39.3326 20.2937C39.3332 20.2645 39.3339 20.235 39.3339 20.2058V20.0984ZM18.6706 36.7283C19.982 34.795 19.8889 33.3439 18.0898 31.5361C16.2903 29.728 15.2431 27.0842 15.2431 27.0842C15.2431 27.0842 14.8522 25.5485 13.9607 25.6895C13.0693 25.8305 12.4153 28.1254 14.2819 29.5301C16.1483 30.9349 13.9105 31.8873 13.1921 30.5691C12.4737 29.2507 10.5123 25.862 9.49542 25.2137C8.47856 24.5655 7.76343 24.9288 8.00312 26.2648C8.12219 26.928 9.22954 28.0599 10.2641 29.1174C11.3137 30.1902 12.2884 31.1866 12.0799 31.5392C11.6663 32.2392 10.2097 30.7165 10.2097 30.7165C10.2097 30.7165 5.64842 26.5434 4.65558 27.6309C3.7401 28.6332 5.15178 29.4853 7.32712 30.7987C7.51197 30.9103 7.70249 31.0254 7.89761 31.144C10.3865 32.6588 10.58 33.0584 10.2267 33.6315C10.0963 33.8432 9.26317 33.3404 8.23843 32.7221C6.49158 31.6675 4.18825 30.2772 3.86291 31.5216C3.58149 32.5986 5.2761 33.2585 6.81299 33.8571C8.09335 34.3557 9.2645 34.8117 9.09211 35.4307C8.9136 36.0726 7.94589 35.5373 6.88817 34.9521C5.70066 34.2951 4.39953 33.5755 3.97369 34.3875C3.16898 35.923 9.5256 37.7306 9.57804 37.744C11.6318 38.2796 16.8477 39.4143 18.6706 36.7283ZM27.1186 36.7283C25.8072 34.795 25.9003 33.3439 27.6996 31.5361C29.4989 29.728 30.5461 27.0842 30.5461 27.0842C30.5461 27.0842 30.937 25.5485 31.8284 25.6895C32.7199 25.8305 33.3738 28.1254 31.5075 29.5301C29.6409 30.9349 31.8787 31.8873 32.5971 30.5691C33.3157 29.2507 35.2758 25.862 36.2927 25.2137C37.3096 24.5655 38.0251 24.9288 37.7852 26.2648C37.6663 26.928 36.5588 28.0599 35.5242 29.1176C34.4746 30.1904 33.4999 31.1866 33.7081 31.5392C34.1217 32.2392 35.5795 30.7156 35.5795 30.7156C35.5795 30.7156 40.1406 26.5427 41.1338 27.6303C42.0491 28.6324 40.6374 29.4847 38.4619 30.798C38.2716 30.9129 38.0815 31.028 37.8916 31.1433C35.4028 32.6581 35.2092 33.0577 35.5623 33.6306C35.6929 33.8426 36.526 33.3395 37.5505 32.7212C39.2976 31.6668 41.601 30.2763 41.9263 31.5209C42.2079 32.5979 40.5131 33.2578 38.9762 33.8564C37.6958 34.355 36.5247 34.8111 36.6969 35.4301C36.8752 36.0717 37.8427 35.5364 38.9002 34.9512C40.0877 34.2942 41.389 33.5741 41.8147 34.3869C42.6196 35.9232 36.2619 37.7291 36.2105 37.7423C34.1567 38.2796 28.9408 39.4143 27.1186 36.7283Z" fill="#FFD21E" style="fill:#FFD21E;fill:color(display-p3 1.0000 0.8235 0.1176);fill-opacity:1;"/>
<path fill-rule="evenodd" clip-rule="evenodd" d="M28.1576 15.4597C28.4159 15.5515 28.6079 15.8309 28.7906 16.0969C29.0375 16.4563 29.2673 16.7908 29.62 16.6023C30.036 16.3798 30.3771 16.0385 30.5999 15.6211C30.823 15.2037 30.9181 14.7294 30.873 14.2579C30.8394 13.9053 30.7284 13.5646 30.5479 13.2603C30.3675 12.9561 30.1221 12.6958 29.8297 12.4984C29.5372 12.301 29.2046 12.1712 28.8564 12.1185C28.5079 12.0659 28.1521 12.0915 27.8148 12.1937C27.4774 12.2958 27.167 12.4719 26.9054 12.7091C26.6439 12.9464 26.4379 13.239 26.3024 13.5659C26.1669 13.8928 26.1051 14.2459 26.1215 14.5997C26.1381 14.9536 26.2323 15.2991 26.3977 15.6119C26.5611 15.921 26.9238 15.7751 27.3066 15.6211C27.6066 15.5005 27.9192 15.3749 28.1576 15.4597ZM16.9325 15.4597C16.6743 15.5515 16.4822 15.8311 16.2996 16.0969C16.0527 16.4565 15.8226 16.7908 15.4702 16.6023C14.947 16.3238 14.5458 15.8592 14.3447 15.2995C14.1436 14.7397 14.1571 14.1247 14.3825 13.5743C14.6079 13.0239 15.029 12.5777 15.5639 12.3225C16.0988 12.0674 16.709 12.0216 17.2756 12.1941C17.7268 12.3307 18.1275 12.5987 18.4272 12.9642C18.727 13.3297 18.9121 13.7763 18.9595 14.2476C19.0067 14.7188 18.9138 15.1936 18.6927 15.6119C18.5291 15.921 18.1664 15.7751 17.7836 15.6213C17.4834 15.5005 17.1711 15.3749 16.9325 15.4597ZM26.421 25.7292C28.2002 24.32 28.8537 22.0193 28.8537 20.602C28.8537 19.4817 28.1041 19.8343 26.9039 20.4317L26.8362 20.4654C25.7345 21.0139 24.268 21.7442 22.6581 21.7442C21.0481 21.7442 19.5815 21.0139 18.4801 20.4651C17.241 19.8481 16.4639 19.4611 16.4639 20.6022C16.4639 22.0643 17.1591 24.465 19.0674 25.8596C19.3193 25.3458 19.674 24.8898 20.1092 24.5199C20.5442 24.15 21.0507 23.8743 21.5965 23.71C21.787 23.6529 21.9832 23.9826 22.184 24.3202C22.3778 24.6458 22.576 24.9788 22.7774 24.9788C22.9922 24.9788 23.2031 24.6506 23.4091 24.3303C23.6243 23.9954 23.8343 23.6692 24.0373 23.7344C25.0587 24.0641 25.9133 24.7791 26.421 25.7292Z" fill="#32343D" style="fill:#32343D;fill:color(display-p3 0.1961 0.2039 0.2392);fill-opacity:1;"/>
<path d="M26.4196 25.7288C25.493 26.4629 24.2613 26.9552 22.6574 26.9552C21.1504 26.9552 19.9719 26.5207 19.0664 25.8593C19.3183 25.3455 19.673 24.8892 20.1082 24.5195C20.5432 24.1496 21.0497 23.8739 21.5955 23.7096C21.9695 23.5974 22.3661 24.9784 22.7764 24.9784C23.2156 24.9784 23.6388 23.6064 24.0363 23.734C25.0575 24.064 25.9118 24.779 26.4196 25.7288Z" fill="#FF323D" style="fill:#FF323D;fill:color(display-p3 1.0000 0.1961 0.2392);fill-opacity:1;"/>
<path fill-rule="evenodd" clip-rule="evenodd" d="M12.6747 17.4525C12.4631 17.5948 12.2197 17.6825 11.9662 17.7075C11.7127 17.7328 11.457 17.6946 11.2218 17.5964C11.0337 17.5184 10.8628 17.4037 10.719 17.259C10.5751 17.1144 10.4611 16.9426 10.3834 16.7535C10.286 16.5169 10.2481 16.2599 10.2731 16.0051C10.2982 15.7503 10.3854 15.5056 10.5269 15.2927C10.6971 15.0366 10.939 14.837 11.222 14.7191C11.505 14.6013 11.8165 14.5704 12.1169 14.6306C12.4174 14.6907 12.6934 14.8391 12.9099 15.0568C13.1265 15.2747 13.2739 15.5524 13.3335 15.8544C13.3932 16.1565 13.3625 16.4695 13.2453 16.754C13.1281 17.0384 12.9294 17.2814 12.6747 17.4525ZM34.8328 17.4525C34.621 17.5948 34.3776 17.6825 34.1242 17.7075C33.8705 17.7328 33.6149 17.6946 33.3796 17.5964C33.1914 17.5182 33.0206 17.4037 32.8768 17.259C32.733 17.1144 32.619 16.9426 32.5412 16.7535C32.444 16.5169 32.4062 16.2599 32.4311 16.0051C32.4562 15.7503 32.5434 15.5056 32.6848 15.2927C32.8119 15.1012 32.9799 14.9406 33.1764 14.8222C33.3728 14.7038 33.5928 14.6307 33.8207 14.6082C34.0488 14.5857 34.2789 14.6143 34.4943 14.6919C34.71 14.7696 34.9057 14.8944 35.0676 15.0573C35.2844 15.275 35.4319 15.5524 35.4915 15.8544C35.5514 16.1565 35.5206 16.4695 35.4033 16.754C35.2859 17.0384 35.0875 17.2814 34.8328 17.4525Z" fill="#FFAD03" style="fill:#FFAD03;fill:color(display-p3 1.0000 0.6784 0.0118);fill-opacity:1;"/>
</g>
<defs>
<clipPath id="clip0_1251_1130">
<rect width="45" height="42" fill="white" style="fill:white;fill-opacity:1;" transform="translate(0.5)"/>
</clipPath>
</defs>
</svg>
