<svg width="64" height="64" viewBox="0 0 64 64" fill="none" xmlns="http://www.w3.org/2000/svg">
<g clip-path="url(#clip0_872_849)">
<path d="M64 32C64 14.3269 49.6731 0 32 0C14.3269 0 0 14.3269 0 32C0 49.6731 14.3269 64 32 64C49.6731 64 64 49.6731 64 32Z" fill="#16191E" style="fill:#16191E;fill:color(display-p3 0.0863 0.0980 0.1176);fill-opacity:1;"/>
<path fill-rule="evenodd" clip-rule="evenodd" d="M10.1041 41.8305L29.1821 46.934C29.1564 48.2903 29.1964 49.6471 29.3021 50.9996L41.214 54.1852C37.6811 55.6433 33.8507 56.2364 30.0421 55.9151L29.6821 55.8831L29.5941 55.8751L29.4261 55.8571L29.2381 55.8371C29.1333 55.8244 29.0287 55.8111 28.9241 55.7971L28.7101 55.7691L28.4901 55.7371C28.2763 55.706 28.0629 55.672 27.8501 55.6351L27.7661 55.6191L27.6161 55.5931L27.4021 55.5531L27.2621 55.5231L27.0761 55.4851L26.9261 55.4531L26.7361 55.4131L26.5421 55.3671L26.3541 55.3231L26.2181 55.2891L26.0421 55.2451L25.8621 55.1971L25.6721 55.1471L25.5081 55.1011L25.2901 55.0411L25.1661 55.0011L24.9981 54.9511L24.8121 54.8951L24.6021 54.8272L24.4861 54.7892L24.3261 54.7372L24.1461 54.6752L24.0141 54.6272C23.9847 54.6173 23.9553 54.6073 23.9261 54.5972L23.7901 54.5472L23.5881 54.4732L23.4741 54.4292L23.3141 54.3692L23.1401 54.2992L22.9641 54.2292L22.8061 54.1652L22.6161 54.0852L22.4901 54.0292L22.3641 53.9752C22.3367 53.9633 22.3093 53.9513 22.2821 53.9392L22.1501 53.8792L21.9441 53.7852L21.8401 53.7372L21.6481 53.6452L21.5241 53.5853L21.3561 53.5053L21.1841 53.4173L20.9981 53.3233L20.8941 53.2693L20.6881 53.1593L20.5741 53.0993L20.4581 53.0353C20.4273 53.0181 20.3967 53.0008 20.3661 52.9833L20.1781 52.8773L20.0581 52.8093L19.9561 52.7493L19.8121 52.6673L19.6481 52.5673L19.4621 52.4553L19.3581 52.3913L19.1901 52.2855L19.0681 52.2075L18.9101 52.1075L18.7701 52.0135L18.6641 51.9435C18.628 51.9196 18.592 51.8956 18.5561 51.8715L18.4681 51.8115L18.3801 51.7515C18.3533 51.7329 18.3267 51.7143 18.3001 51.6955L18.1861 51.6155L18.0341 51.5075L17.8961 51.4075L17.7481 51.2995L17.6361 51.2155L17.4841 51.1015L17.3321 50.9836L17.1601 50.8496L17.0701 50.7796L16.9421 50.6756L16.7941 50.5556L16.6161 50.4096L16.5241 50.3316L16.4321 50.2536C16.4033 50.2291 16.3747 50.2044 16.3461 50.1796L16.2561 50.0996L16.1341 49.9936L15.9941 49.8696L15.8581 49.7496L15.7341 49.6337L15.6001 49.5097L15.4941 49.4097L15.3181 49.2417C15.2517 49.1775 15.1857 49.1128 15.1201 49.0477L15.0621 48.9917L14.9801 48.9077L14.8421 48.7677L14.7421 48.6657L14.6421 48.5597C14.5279 48.4427 14.4159 48.3232 14.3061 48.2019L14.1461 48.0259L14.0221 47.8859L13.8801 47.7259L13.7961 47.6279L13.6901 47.5039L13.5741 47.3679L13.4821 47.2559C13.464 47.234 13.446 47.212 13.4281 47.1899L13.3381 47.08L13.2061 46.916L13.1241 46.812L13.0241 46.684L12.9841 46.634C11.8398 45.1508 10.8732 43.5387 10.1041 41.8305ZM8.06415 30.2437L30.7701 36.3171C30.39 37.6409 30.0769 38.9832 29.8321 40.3387L51.466 46.126C50.3912 47.5975 49.1533 48.9425 47.776 50.1356L9.31415 39.8447L9.28215 39.7527L9.21215 39.5447C9.17812 39.4429 9.14479 39.3409 9.11215 39.2388L9.09815 39.1928C8.9442 38.7035 8.80614 38.2092 8.68415 37.7109L8.62415 37.4589L8.58815 37.2989L8.54615 37.1049L8.51015 36.9429L8.47415 36.7631L8.44015 36.5951L8.40415 36.4071C8.35215 36.1251 8.30415 35.8411 8.26215 35.5552L8.22815 35.3192L8.20615 35.1532L8.18015 34.9492C8.16676 34.842 8.1541 34.7347 8.14215 34.6272L8.13215 34.5332C7.98272 33.1083 7.95996 31.6728 8.06415 30.2437ZM11.2501 19.9448L35.146 26.3361C34.4101 27.546 33.7361 28.7979 33.1261 30.0857L55.716 36.1291C55.432 37.7689 54.98 39.3528 54.38 40.8585L31.2801 34.6792L8.24815 28.5199L8.27815 28.3199L8.29415 28.2219L8.31415 28.0879L8.34415 27.9139L8.38015 27.718C8.43215 27.422 8.49215 27.128 8.55615 26.834L8.61215 26.5861L8.65215 26.4161L8.70015 26.2221C8.74415 26.0421 8.79015 25.8621 8.84015 25.6861L8.89615 25.4821L8.94215 25.3163L9.00215 25.1163L9.05215 24.9523L9.11215 24.7603L9.16415 24.5963L9.22615 24.4063C9.74406 22.8529 10.421 21.3571 11.2461 19.9428L11.2501 19.9448ZM20.1341 11.1457L42.704 17.1811C41.5131 18.262 40.3857 19.4111 39.328 20.6227L54.974 24.8083C55.508 26.5121 55.858 28.2959 56 30.1377L12.2121 18.4269L12.3021 18.2969L12.3561 18.2169L12.4361 18.1069L12.5281 17.9769L12.6381 17.8249L12.7461 17.6809L12.8741 17.5091L12.9741 17.3791L13.0881 17.2331L13.1981 17.0931L13.3181 16.9451L13.4281 16.8071L13.5581 16.6531L13.6661 16.5211L13.7981 16.3671L13.9041 16.2472L14.0481 16.0832L14.1541 15.9632L14.2881 15.8152L14.3961 15.6992L14.5421 15.5432L14.6581 15.4232L14.7841 15.2892L15.1201 14.9493L15.3201 14.7533L15.4381 14.6413L15.5901 14.4993C16.9685 13.2077 18.4936 12.0821 20.1341 11.1457ZM32.0341 8.002H32.2281L32.3921 8.004L32.5301 8.006L32.6381 8.01L32.7741 8.014L32.8661 8.016L33.0181 8.022L33.1121 8.026L33.2321 8.032L33.3401 8.036L33.5141 8.046L33.7241 8.06L34.0121 8.08199L34.1881 8.09599L34.276 8.10399L34.4301 8.11999L34.594 8.13599L34.688 8.14599L34.892 8.16999L34.992 8.18199L35.208 8.20997L35.37 8.22997L35.454 8.24197L35.584 8.26197L35.998 8.32596L36.138 8.34996L36.268 8.37196L36.548 8.42396L36.732 8.45995L36.952 8.50395L37.044 8.52395L37.194 8.55595L37.276 8.57595L37.4 8.60193L37.484 8.62193L37.614 8.65193L37.712 8.67593L37.854 8.70992L38.046 8.75792L38.27 8.81792L38.496 8.87791L38.722 8.94191L38.822 8.97189L38.962 9.01189L39.118 9.05989L39.264 9.10588L39.364 9.13788L39.464 9.16988L39.616 9.21988L39.814 9.28587L40.018 9.35785L40.114 9.39185L40.242 9.43785L40.428 9.50584L40.648 9.58784L40.88 9.67783L41.08 9.75781L41.174 9.79781L41.294 9.84581L41.376 9.8818L41.502 9.9338L41.582 9.9698L41.696 10.0198L41.916 10.1158L42.116 10.2078L42.264 10.2778L42.414 10.3498L42.534 10.4057L42.718 10.4977L42.9 10.5877L43.104 10.6917L43.21 10.7477L43.308 10.7997L43.4 10.8477L43.52 10.9137L43.602 10.9577L43.706 11.0157L43.882 11.1157L44.094 11.2357L44.268 11.3377L44.382 11.4056L44.488 11.4696L44.68 11.5876L44.856 11.6976L45.052 11.8216L45.124 11.8696L45.252 11.9516L45.42 12.0636L45.5 12.1176L45.624 12.2016L45.748 12.2876L45.794 12.3215C45.902 12.3955 46.01 12.4715 46.116 12.5495L46.282 12.6695L46.412 12.7655L46.524 12.8515L46.696 12.9815L46.86 13.1095L46.94 13.1695L47.04 13.2515L47.212 13.3895L47.37 13.5195L47.54 13.6615C48.964 14.8613 50.246 16.2272 51.358 17.7229L22.4441 9.9898L22.5681 9.9358L22.6981 9.8798L22.8601 9.81181L23.0321 9.74181C23.2581 9.65183 23.4861 9.56184 23.7141 9.47984L23.9061 9.40985L24.0921 9.34387L24.2601 9.28387L24.4521 9.22187C24.6261 9.16188 24.8041 9.10588 24.9801 9.05189L25.1621 8.99789L25.3341 8.94791L25.5381 8.88791L25.7081 8.84191L25.9081 8.78992L26.0801 8.74192L26.2601 8.69593L26.4421 8.65193L26.6321 8.60793L26.8121 8.56795L27.0081 8.52595L27.1901 8.48595L27.3801 8.44995L27.5641 8.41396L27.7641 8.37796L27.9461 8.34596L28.1421 8.31197L28.3261 8.28397L28.5201 8.25397L28.7041 8.22797L28.9081 8.20197L29.0901 8.17799L29.3001 8.15399L29.4801 8.13399L29.6901 8.11399C29.8761 8.09399 30.0621 8.07799 30.2501 8.06599L30.4621 8.05L30.6421 8.04L30.8621 8.028L31.0481 8.02L31.2481 8.012L31.4421 8.008L31.6401 8.004L32.0341 8V8.002Z" fill="white" style="fill:white;fill-opacity:1;"/>
</g>
<defs>
<clipPath id="clip0_872_849">
<rect width="64" height="64" fill="white" style="fill:white;fill-opacity:1;"/>
</clipPath>
</defs>
</svg>
