<svg width="64" height="64" viewBox="0 0 64 64" fill="none" xmlns="http://www.w3.org/2000/svg">
<g clip-path="url(#clip0_872_905)">
<path d="M10.5583 8.70014L38.6674 6.61594C42.1193 6.31844 43.0064 6.51904 45.1759 8.10344L54.1497 14.4495C55.6315 15.5409 56.1249 15.8384 56.1249 17.0267V51.8308C56.1249 54.0119 55.3341 55.3022 52.5732 55.4994L19.9308 57.4833C17.8559 57.5819 16.8708 57.2844 15.7844 55.8955L9.17783 47.2697C7.99 45.6819 7.5 44.4936 7.5 43.1047V12.1681C7.5 10.3848 8.29076 8.89734 10.5583 8.70014Z" fill="white" style="fill:white;fill-opacity:1;"/>
<path fill-rule="evenodd" clip-rule="evenodd" d="M38.6691 6.61594L10.5549 8.70014C8.29076 8.89734 7.5 10.3848 7.5 12.1681V43.1047C7.5 44.4936 7.99169 45.6819 9.17614 47.2697L15.7844 55.8955C16.8708 57.2844 17.8559 57.5819 19.9291 57.4833L52.5749 55.4994C55.3358 55.3022 56.1266 54.0119 56.1266 51.8308V17.0267C56.1266 15.8996 55.6822 15.5749 54.3744 14.6127L54.1514 14.4495L45.1793 8.10344C43.0081 6.51904 42.121 6.31844 38.6674 6.61594H38.6691ZM20.6675 16.4572C18.0029 16.6374 17.3963 16.6782 15.8841 15.4423L12.0367 12.3687C11.643 11.9709 11.8407 11.4745 12.8258 11.3759L39.8518 9.39374C42.1193 9.19484 43.3038 9.98874 44.1909 10.6823L48.8273 14.0534C49.025 14.1537 49.5167 14.747 48.9253 14.747L21.0122 16.4334L20.6675 16.4572ZM17.5602 51.5333V21.9873C17.5602 20.697 17.9556 20.102 19.1383 20.0017L51.1928 18.1181C52.2792 18.0195 52.7726 18.7131 52.7726 20.0017V49.3505C52.7726 50.6408 52.5749 51.7322 50.7991 51.8308L20.1251 53.6158C18.351 53.7144 17.5602 53.1211 17.5602 51.5333ZM47.8422 23.5717C48.0382 24.4642 47.8422 25.3567 46.9518 25.4587L45.475 25.7528V47.5672C44.1909 48.2608 43.0081 48.6569 42.0213 48.6569C40.4432 48.6569 40.0478 48.1605 38.8651 46.6747L29.1986 31.4053V46.1783L32.2568 46.8736C32.2568 46.8736 32.2568 48.6586 29.7899 48.6586L22.9857 49.0547C22.788 48.6569 22.9857 47.6658 23.6751 47.4686L25.4509 46.9739V27.4409L22.9857 27.2403C22.788 26.3478 23.2797 25.0592 24.6618 24.9606L31.9611 24.4642L42.0213 39.9342V26.2492L39.4564 25.9534C39.2604 24.8603 40.0478 24.0681 41.0346 23.9695L47.8422 23.5717Z" fill="black" style="fill:black;fill-opacity:1;"/>
</g>
<defs>
<clipPath id="clip0_872_905">
<rect width="49" height="51" fill="white" style="fill:white;fill-opacity:1;" transform="translate(7.5 6.5)"/>
</clipPath>
</defs>
</svg>
