<svg width="40" height="40" viewBox="0 0 40 40" fill="none" xmlns="http://www.w3.org/2000/svg">
<path fill-rule="evenodd" clip-rule="evenodd" d="M21.6667 5.00016C21.6667 4.07969 20.9205 3.3335 20 3.3335C19.0795 3.3335 18.3333 4.07969 18.3333 5.00016V6.66683H10.8333C7.15143 6.66683 4.16667 9.6516 4.16667 13.3335V13.7794C3.17033 14.3558 2.5 15.433 2.5 16.6668C2.5 17.9006 3.17033 18.9779 4.16667 19.5542V26.6668C4.16667 30.3487 7.15143 33.3335 10.8333 33.3335H29.1667C32.8486 33.3335 35.8333 30.3487 35.8333 26.6668V19.5542C36.8297 18.9779 37.5 17.9006 37.5 16.6668C37.5 15.433 36.8297 14.3558 35.8333 13.7794V13.3335C35.8333 9.6516 32.8486 6.66683 29.1667 6.66683H21.6667V5.00016ZM14.1667 14.1668C12.786 14.1668 11.6667 15.2861 11.6667 16.6668C11.6667 18.0475 12.786 19.1668 14.1667 19.1668C15.5474 19.1668 16.6667 18.0475 16.6667 16.6668C16.6667 15.2861 15.5474 14.1668 14.1667 14.1668ZM25.8333 14.1668C24.4526 14.1668 23.3333 15.2861 23.3333 16.6668C23.3333 18.0475 24.4526 19.1668 25.8333 19.1668C27.214 19.1668 28.3333 18.0475 28.3333 16.6668C28.3333 15.2861 27.214 14.1668 25.8333 14.1668ZM16.6667 23.3335C15.7462 23.3335 15 24.0797 15 25.0002C15 25.9206 15.7462 26.6668 16.6667 26.6668H23.3333C24.2538 26.6668 25 25.9206 25 25.0002C25 24.0797 24.2538 23.3335 23.3333 23.3335H16.6667Z" fill="black" style="fill:black;fill-opacity:1;"/>
</svg>
