<svg width="40" height="40" viewBox="0 0 40 40" fill="none" xmlns="http://www.w3.org/2000/svg">
<path d="M28.334 3.3335C24.6521 3.3335 21.6673 6.31826 21.6673 10.0002C21.6673 10.5323 21.73 11.0509 21.8484 11.5485L14.9239 15.5054C13.706 14.1722 11.9521 13.3335 10.0007 13.3335C6.31875 13.3335 3.33398 16.3183 3.33398 20.0002C3.33398 23.6821 6.31875 26.6668 10.0007 26.6668C11.9521 26.6668 13.706 25.8281 14.9239 24.4949L21.8484 28.4518C21.73 28.9494 21.6673 29.4681 21.6673 30.0002C21.6673 33.6821 24.6521 36.6668 28.334 36.6668C32.0159 36.6668 35.0007 33.6821 35.0007 30.0002C35.0007 26.3183 32.0159 23.3335 28.334 23.3335C26.3826 23.3335 24.6286 24.1722 23.4107 25.5054L16.4862 21.5485C16.6047 21.0509 16.6673 20.5323 16.6673 20.0002C16.6673 19.4681 16.6047 18.9494 16.4862 18.4518L23.4107 14.4949C24.6286 15.8282 26.3826 16.6668 28.334 16.6668C32.0159 16.6668 35.0007 13.6821 35.0007 10.0002C35.0007 6.31826 32.0159 3.3335 28.334 3.3335Z" fill="black" style="fill:black;fill-opacity:1;"/>
</svg>
