<svg width="64" height="64" viewBox="0 0 64 64" fill="none" xmlns="http://www.w3.org/2000/svg">
<path d="M17.7684 38.4767C17.7684 41.3246 15.4583 43.6263 12.6 43.6263C9.74174 43.6263 7.43164 41.3246 7.43164 38.4767C7.43164 35.6288 9.74174 33.3271 12.6 33.3271H17.7684V38.4767ZM20.3526 38.4767C20.3526 35.6288 22.6627 33.3271 25.5209 33.3271C28.3792 33.3271 30.6893 35.6288 30.6893 38.4767V51.3506C30.6893 54.1985 28.3792 56.5002 25.5209 56.5002C22.6627 56.5002 20.3526 54.1985 20.3526 51.3506V38.4767Z" fill="#E01E5A" style="fill:#E01E5A;fill:color(display-p3 0.8784 0.1176 0.3529);fill-opacity:1;"/>
<path d="M25.5191 17.7991C22.6608 17.7991 20.3507 15.4974 20.3507 12.6496C20.3507 9.8017 22.6608 7.5 25.5191 7.5C28.3773 7.5 30.6874 9.8017 30.6874 12.6496V17.7991H25.5191ZM25.5191 20.4129C28.3773 20.4129 30.6874 22.7146 30.6874 25.5625C30.6874 28.4104 28.3773 30.7121 25.5191 30.7121H12.559C9.70073 30.7121 7.39062 28.4104 7.39062 25.5625C7.39062 22.7146 9.70073 20.4129 12.559 20.4129H25.5191Z" fill="#36C5F0" style="fill:#36C5F0;fill:color(display-p3 0.2118 0.7725 0.9412);fill-opacity:1;"/>
<path d="M46.2315 25.5625C46.2315 22.7146 48.5416 20.4129 51.3998 20.4129C54.2581 20.4129 56.5682 22.7146 56.5682 25.5625C56.5682 28.4104 54.2581 30.7121 51.3998 30.7121H46.2315V25.5625ZM43.6473 25.5625C43.6473 28.4104 41.3372 30.7121 38.4789 30.7121C35.6206 30.7121 33.3105 28.4104 33.3105 25.5625V12.6496C33.3105 9.8017 35.6206 7.5 38.4789 7.5C41.3372 7.5 43.6473 9.8017 43.6473 12.6496V25.5625Z" fill="#2EB67D" style="fill:#2EB67D;fill:color(display-p3 0.1804 0.7137 0.4902);fill-opacity:1;"/>
<path d="M38.4789 46.2011C41.3372 46.2011 43.6473 48.5028 43.6473 51.3506C43.6473 54.1985 41.3372 56.5002 38.4789 56.5002C35.6206 56.5002 33.3105 54.1985 33.3105 51.3506V46.2011H38.4789ZM38.4789 43.6263C35.6206 43.6263 33.3105 41.3246 33.3105 38.4767C33.3105 35.6288 35.6206 33.3271 38.4789 33.3271H51.439C54.2972 33.3271 56.6073 35.6288 56.6073 38.4767C56.6073 41.3246 54.2972 43.6263 51.439 43.6263H38.4789Z" fill="#ECB22E" style="fill:#ECB22E;fill:color(display-p3 0.9255 0.6980 0.1804);fill-opacity:1;"/>
</svg>
