<svg width="64" height="64" viewBox="0 0 64 64" fill="none" xmlns="http://www.w3.org/2000/svg">
<path d="M58.0259 18.9342C57.3999 16.5971 55.5618 14.7606 53.2231 14.135C48.9884 13 31.9997 13 31.9997 13C31.9997 13 15.0113 13 10.7765 14.135C8.43772 14.7606 6.59979 16.5971 5.97374 18.9342C4.83789 23.1658 4.83789 32 4.83789 32C4.83789 32 4.83789 40.8342 5.97374 45.0659C6.59979 47.4029 8.43772 49.2395 10.7765 49.8649C15.0113 51 31.9997 51 31.9997 51C31.9997 51 48.9884 51 53.2231 49.8649C55.5618 49.2395 57.3999 47.4029 58.0259 45.0659C59.1618 40.8342 59.1618 32 59.1618 32C59.1618 32 59.1572 23.1658 58.0259 18.9342Z" fill="#FF0000" style="fill:#FF0000;fill:color(display-p3 1.0000 0.0000 0.0000);fill-opacity:1;"/>
<path d="M26.5664 40.141L40.6795 31.9995L26.5664 23.8579V40.141Z" fill="white" style="fill:white;fill-opacity:1;"/>
</svg>
