<svg width="19" height="18" viewBox="0 0 19 18" fill="none"
    xmlns="http://www.w3.org/2000/svg">
    <path d="M9.78088 18C9.57895 17.9992 9.38536 17.9194 9.24156 17.7776C9.09776 17.6359 9.01517 17.4434 9.01149 17.2415V14.5044C9.01098 14.3409 8.94574 14.1842 8.83004 14.0686C8.71434 13.953 8.55759 13.8879 8.39405 13.8876H6.94566C6.28372 13.8893 5.63579 13.6969 5.08199 13.3343C4.52819 12.9717 4.09278 12.4548 3.82961 11.8474C1.87535 11.4185 -0.244978 9.81366 0.0230285 6.62836C0.044828 6.39562 0.393621 3.53796 3.85782 2.97758C4.16494 2.15369 4.79713 1.40673 5.65308 0.861743C6.51583 0.308884 7.51687 0.0102382 8.54152 2.01591e-05C8.83818 -0.000876215 9.13419 0.0281226 9.42504 0.0865771C10.7374 0.306536 11.9155 1.02134 12.7168 2.0838C13.8531 2.15782 14.9183 2.66303 15.6945 3.49616C16.4708 4.32929 16.8996 5.42744 16.8933 6.56617C17.7711 7.39968 18.5199 8.8782 18.2699 10.3958C18.1263 11.2691 17.587 12.4668 15.8335 13.2125C15.2979 13.4546 14.717 13.5798 14.1292 13.5798C13.2927 13.5853 12.4776 13.3149 11.8102 12.8105C11.1665 12.3133 10.7199 11.604 10.5496 10.8087C10.0629 10.7304 9.60663 10.5214 9.22946 10.204C8.8523 9.88653 8.56842 9.47262 8.40815 9.00643L8.40495 8.99553V8.98463C8.36063 8.79081 8.39307 8.58737 8.49545 8.41693C8.59784 8.2465 8.76222 8.12232 8.95415 8.07042C9.14608 8.01852 9.35064 8.04294 9.52497 8.13854C9.69929 8.23415 9.82984 8.39353 9.88924 8.58327C10.0566 9.03208 10.5304 9.32701 11.1036 9.32701C11.4313 9.33238 11.7507 9.22306 12.0064 9.01797L12.0121 9.01284C12.1956 8.86778 12.339 8.67829 12.4288 8.4623C12.5185 8.24631 12.5517 8.01098 12.5251 7.77861V7.76386V7.75809C12.5136 7.55605 12.5822 7.35763 12.716 7.20582C12.8498 7.05401 13.0381 6.96103 13.24 6.94702C13.2579 6.94702 13.2759 6.94702 13.2938 6.94702C13.489 6.94655 13.677 7.02027 13.8199 7.15324C13.9627 7.28621 14.0497 7.4685 14.0632 7.6632C14.1209 8.31185 13.9608 8.96124 13.6083 9.5088C13.2558 10.0564 12.731 10.4709 12.1166 10.6869C12.4321 11.6762 13.3509 12.0334 14.144 12.0334C14.5276 12.0352 14.9069 11.9519 15.2545 11.7897L15.2647 11.7852L15.2756 11.7814C16.0072 11.5102 16.5125 10.9895 16.6984 10.315C16.8541 9.70591 16.7677 9.06015 16.4573 8.51338C16.2464 8.96219 15.9341 9.49885 15.384 9.56232H15.3673H15.3513C15.2055 9.56043 15.0632 9.51731 14.9408 9.43794C14.8185 9.35857 14.7211 9.2462 14.66 9.11382C14.5988 8.98144 14.5764 8.83445 14.5952 8.68984C14.6141 8.54524 14.6735 8.40893 14.7666 8.29667C15.9534 6.90342 14.9942 5.11073 14.9531 5.03507C14.1837 3.61874 12.3321 3.60207 12.3135 3.60207C12.1815 3.60439 12.0511 3.57269 11.9349 3.51004C11.8186 3.44738 11.7205 3.35587 11.6499 3.2443C11.3213 2.72338 10.8654 2.29474 10.3253 1.99882C9.78517 1.70289 9.17855 1.54943 8.56267 1.55292C7.4727 1.55292 6.42632 2.01391 5.76336 2.78651C5.15682 3.49179 4.91638 4.38942 5.06834 5.38066C5.09985 5.57735 5.05384 5.77859 4.94 5.94206C4.82616 6.10552 4.65336 6.21847 4.45795 6.25713C4.40853 6.26683 4.35829 6.27176 4.30792 6.27187C4.12992 6.2717 3.95748 6.20982 3.82 6.09676C3.68251 5.98371 3.58847 5.82648 3.55391 5.65187V5.63969C3.50407 5.30619 3.48774 4.96853 3.50518 4.63178C1.68685 5.19344 1.56182 6.67709 1.55733 6.74377V6.75403V6.76429C1.44726 7.47423 1.58646 8.20039 1.95126 8.81931C2.31607 9.43823 2.88396 9.9117 3.5584 10.1592C3.64071 9.31984 4.03069 8.54057 4.65324 7.97153C5.27579 7.40248 6.08687 7.08391 6.93027 7.07717C6.98573 7.06959 7.04164 7.06573 7.09762 7.06563C7.66248 7.06563 7.95742 7.45867 7.95742 7.84721C7.95802 7.94845 7.93811 8.04877 7.89888 8.14211C7.85965 8.23544 7.80192 8.31986 7.72916 8.39028C7.64482 8.46978 7.54546 8.53165 7.43691 8.57227C7.32836 8.6129 7.21279 8.63146 7.09698 8.62686C7.04166 8.62666 6.98642 8.62302 6.93156 8.61597C6.68645 8.61706 6.44397 8.66642 6.21794 8.76123C5.99192 8.85604 5.78678 8.99443 5.61424 9.16852C5.26578 9.52011 5.07126 9.99572 5.07347 10.4907C5.07568 10.9857 5.27444 11.4596 5.62602 11.808C5.97761 12.1565 6.45322 12.351 6.94823 12.3488H8.39661C8.96795 12.3502 9.51552 12.5777 9.91958 12.9816C10.3236 13.3856 10.5513 13.9331 10.5528 14.5044V17.2377C10.551 17.4385 10.4707 17.6307 10.3291 17.7731C10.1875 17.9156 9.99582 17.997 9.79499 18H9.78088Z" fill="#9CA3AF" />
    <path d="M10.2005 6.89635C10.0392 6.89633 9.88203 6.84514 9.75165 6.75016C9.66975 6.69094 9.60032 6.61617 9.54732 6.53011C9.49433 6.44405 9.45881 6.34839 9.44279 6.2486C9.42677 6.14881 9.43058 6.04684 9.45398 5.94852C9.47738 5.85019 9.51992 5.75745 9.57918 5.67557L9.5888 5.66275L9.5997 5.65057C9.64162 5.60611 9.6784 5.55707 9.70934 5.50438C9.82471 5.31044 9.85832 5.07861 9.80277 4.8599C9.74722 4.64118 9.60706 4.45348 9.41312 4.33811C9.21918 4.22273 8.98735 4.18912 8.76863 4.24467C8.54992 4.30022 8.36222 4.44039 8.24685 4.63432L8.23787 4.64907L8.22697 4.66318C8.19178 4.70681 8.15225 4.74677 8.109 4.78243C7.98973 4.87936 7.8444 4.93875 7.69138 4.95309C7.53836 4.96743 7.38453 4.93607 7.24933 4.86298C7.11413 4.78989 7.00365 4.67836 6.93184 4.54247C6.86003 4.40659 6.83012 4.25247 6.84591 4.09959C6.86496 3.90606 6.95659 3.72692 7.10237 3.5982C7.12759 3.56615 7.15324 3.53473 7.17931 3.50395C7.59527 3.04048 8.176 2.75808 8.7974 2.71709C9.41881 2.6761 10.0316 2.87978 10.5048 3.28461C10.9781 3.68943 11.2742 4.26328 11.3299 4.88354C11.3857 5.5038 11.1966 6.12126 10.8032 6.60398C10.7314 6.6952 10.6399 6.76893 10.5355 6.81958C10.4311 6.87023 10.3165 6.89648 10.2005 6.89635Z" fill="#9CA3AF" />
</svg>