<svg width="28" height="29" viewBox="0 0 28 29" fill="none" xmlns="http://www.w3.org/2000/svg">
<rect y="0.5" width="28" height="28" rx="4" fill="#E5E7EB"/>
<path d="M9.99984 10.4997C9.99984 10.1461 10.1403 9.80691 10.3904 9.55687C10.6404 9.30682 10.9795 9.16634 11.3332 9.16634C11.51 9.16634 11.6796 9.0961 11.8046 8.97108C11.9296 8.84605 11.9998 8.67649 11.9998 8.49967C11.9998 8.32286 11.9296 8.15329 11.8046 8.02827C11.6796 7.90325 11.51 7.83301 11.3332 7.83301C10.6259 7.83301 9.94765 8.11396 9.44755 8.61406C8.94746 9.11415 8.6665 9.79243 8.6665 10.4997V12.4997C8.6665 12.8533 8.52603 13.1924 8.27598 13.4425C8.02593 13.6925 7.68679 13.833 7.33317 13.833C7.15636 13.833 6.98679 13.9032 6.86177 14.0283C6.73674 14.1533 6.6665 14.3229 6.6665 14.4997C6.6665 14.6765 6.73674 14.8461 6.86177 14.9711C6.98679 15.0961 7.15636 15.1663 7.33317 15.1663C7.68679 15.1663 8.02593 15.3068 8.27598 15.5569C8.52603 15.8069 8.6665 16.1461 8.6665 16.4997V18.4997C8.6665 19.2069 8.94746 19.8852 9.44755 20.3853C9.94765 20.8854 10.6259 21.1663 11.3332 21.1663C11.51 21.1663 11.6796 21.0961 11.8046 20.9711C11.9296 20.8461 11.9998 20.6765 11.9998 20.4997C11.9998 20.3229 11.9296 20.1533 11.8046 20.0283C11.6796 19.9032 11.51 19.833 11.3332 19.833C10.9795 19.833 10.6404 19.6925 10.3904 19.4425C10.1403 19.1924 9.99984 18.8533 9.99984 18.4997V16.4997C9.99769 16.12 9.91451 15.7452 9.75585 15.4003C9.5972 15.0554 9.36672 14.7483 9.07984 14.4997C9.36672 14.251 9.5972 13.944 9.75585 13.599C9.91451 13.2541 9.99769 12.8793 9.99984 12.4997V10.4997ZM20.6665 13.833C20.3129 13.833 19.9737 13.6925 19.7237 13.4425C19.4736 13.1924 19.3332 12.8533 19.3332 12.4997V10.4997C19.3332 9.79243 19.0522 9.11415 18.5521 8.61406C18.052 8.11396 17.3737 7.83301 16.6665 7.83301C16.4897 7.83301 16.3201 7.90325 16.1951 8.02827C16.0701 8.15329 15.9998 8.32286 15.9998 8.49967C15.9998 8.67649 16.0701 8.84605 16.1951 8.97108C16.3201 9.0961 16.4897 9.16634 16.6665 9.16634C17.0201 9.16634 17.3593 9.30682 17.6093 9.55687C17.8594 9.80691 17.9998 10.1461 17.9998 10.4997V12.4997C18.002 12.8793 18.0852 13.2541 18.2438 13.599C18.4025 13.944 18.633 14.251 18.9198 14.4997C18.633 14.7483 18.4025 15.0554 18.2438 15.4003C18.0852 15.7452 18.002 16.12 17.9998 16.4997V18.4997C17.9998 18.8533 17.8594 19.1924 17.6093 19.4425C17.3593 19.6925 17.0201 19.833 16.6665 19.833C16.4897 19.833 16.3201 19.9032 16.1951 20.0283C16.0701 20.1533 15.9998 20.3229 15.9998 20.4997C15.9998 20.6765 16.0701 20.8461 16.1951 20.9711C16.3201 21.0961 16.4897 21.1663 16.6665 21.1663C17.3737 21.1663 18.052 20.8854 18.5521 20.3853C19.0522 19.8852 19.3332 19.2069 19.3332 18.4997V16.4997C19.3332 16.1461 19.4736 15.8069 19.7237 15.5569C19.9737 15.3068 20.3129 15.1663 20.6665 15.1663C20.8433 15.1663 21.0129 15.0961 21.1379 14.9711C21.2629 14.8461 21.3332 14.6765 21.3332 14.4997C21.3332 14.3229 21.2629 14.1533 21.1379 14.0283C21.0129 13.9032 20.8433 13.833 20.6665 13.833Z" fill="#4B5563"/>
</svg>
