<svg width="20" height="20" viewBox="0 0 20 20" fill="none" xmlns="http://www.w3.org/2000/svg">
<path d="M17 0H3C2.20435 0 1.44129 0.316071 0.87868 0.87868C0.316071 1.44129 0 2.20435 0 3V17C0 17.7956 0.316071 18.5587 0.87868 19.1213C1.44129 19.6839 2.20435 20 3 20H17C17.1645 19.9977 17.3284 19.981 17.49 19.95L17.79 19.88H17.86H17.91L18.28 19.74L18.41 19.67C18.51 19.61 18.62 19.56 18.72 19.49C18.8535 19.3918 18.9805 19.2849 19.1 19.17L19.17 19.08C19.2682 18.9805 19.3585 18.8735 19.44 18.76L19.53 18.63C19.5998 18.5187 19.6601 18.4016 19.71 18.28C19.7374 18.232 19.7609 18.1818 19.78 18.13C19.83 18.01 19.86 17.88 19.9 17.75V17.6C19.9567 17.4046 19.9903 17.2032 20 17V3C20 2.20435 19.6839 1.44129 19.1213 0.87868C18.5587 0.316071 17.7956 0 17 0ZM3 18C2.73478 18 2.48043 17.8946 2.29289 17.7071C2.10536 17.5196 2 17.2652 2 17V12.69L5.29 9.39C5.38296 9.29627 5.49356 9.22188 5.61542 9.17111C5.73728 9.12034 5.86799 9.0942 6 9.0942C6.13201 9.0942 6.26272 9.12034 6.38458 9.17111C6.50644 9.22188 6.61704 9.29627 6.71 9.39L15.31 18H3ZM18 17C17.9991 17.1233 17.9753 17.2453 17.93 17.36C17.9071 17.4087 17.8804 17.4556 17.85 17.5C17.8232 17.5423 17.7931 17.5825 17.76 17.62L12.41 12.27L13.29 11.39C13.383 11.2963 13.4936 11.2219 13.6154 11.1711C13.7373 11.1203 13.868 11.0942 14 11.0942C14.132 11.0942 14.2627 11.1203 14.3846 11.1711C14.5064 11.2219 14.617 11.2963 14.71 11.39L18 14.69V17ZM18 11.86L16.12 10C15.5477 9.45699 14.7889 9.15428 14 9.15428C13.2111 9.15428 12.4523 9.45699 11.88 10L11 10.88L8.12 8C7.54772 7.45699 6.7889 7.15428 6 7.15428C5.2111 7.15428 4.45228 7.45699 3.88 8L2 9.86V3C2 2.73478 2.10536 2.48043 2.29289 2.29289C2.48043 2.10536 2.73478 2 3 2H17C17.2652 2 17.5196 2.10536 17.7071 2.29289C17.8946 2.48043 18 2.73478 18 3V11.86Z" fill="#4B5563"/>
</svg>
