<svg width="20" height="20" viewBox="0 0 20 20" fill="none" xmlns="http://www.w3.org/2000/svg">
<rect width="20" height="20" rx="10" fill="#6C2BD9"/>
<path d="M14.8516 5.41184C13.9593 4.98979 13.0024 4.67884 12.0019 4.50075C11.9837 4.49731 11.9655 4.5059 11.9561 4.52308C11.8331 4.7487 11.6968 5.04304 11.6013 5.27439C10.5252 5.10833 9.45469 5.10833 8.40069 5.27439C8.30521 5.0379 8.16395 4.7487 8.04034 4.52308C8.03095 4.50647 8.01275 4.49788 7.99453 4.50075C6.99461 4.67827 6.03774 4.98922 5.14488 5.41184C5.13715 5.41528 5.13052 5.42101 5.12613 5.42845C3.31115 8.22357 2.81395 10.95 3.05786 13.6426C3.05896 13.6558 3.06613 13.6684 3.07607 13.6764C4.27354 14.5829 5.4335 15.1332 6.57191 15.498C6.59013 15.5037 6.60944 15.4969 6.62103 15.4814C6.89032 15.1023 7.13037 14.7026 7.33619 14.2823C7.34834 14.2576 7.33675 14.2284 7.31192 14.2187C6.93116 14.0698 6.5686 13.8883 6.21984 13.6821C6.19226 13.6655 6.19005 13.6248 6.21543 13.6054C6.28882 13.5487 6.36223 13.4897 6.43231 13.4301C6.44499 13.4193 6.46265 13.417 6.47756 13.4238C8.76875 14.5022 11.2492 14.5022 13.5134 13.4238C13.5283 13.4164 13.546 13.4187 13.5592 13.4296C13.6293 13.4891 13.7027 13.5487 13.7766 13.6054C13.802 13.6248 13.8003 13.6655 13.7728 13.6821C13.424 13.8923 13.0614 14.0698 12.6801 14.2181C12.6553 14.2279 12.6443 14.2576 12.6564 14.2823C12.8666 14.702 13.1067 15.1017 13.371 15.4808C13.3821 15.4969 13.4019 15.5037 13.4201 15.498C14.5641 15.1332 15.724 14.5829 16.9215 13.6764C16.932 13.6684 16.9386 13.6563 16.9397 13.6432C17.2316 10.5302 16.4508 7.82615 14.8698 5.42902C14.8659 5.42101 14.8593 5.41528 14.8516 5.41184ZM7.67835 12.0031C6.98854 12.0031 6.42016 11.3503 6.42016 10.5485C6.42016 9.74683 6.97752 9.09401 7.67835 9.09401C8.38468 9.09401 8.94756 9.75256 8.93651 10.5485C8.93651 11.3503 8.37916 12.0031 7.67835 12.0031ZM12.3303 12.0031C11.6405 12.0031 11.0721 11.3503 11.0721 10.5485C11.0721 9.74683 11.6294 9.09401 12.3303 9.09401C13.0366 9.09401 13.5995 9.75256 13.5885 10.5485C13.5885 11.3503 13.0366 12.0031 12.3303 12.0031Z" fill="white"/>
</svg>
