<svg width="17" height="17" viewBox="0 0 17 17" fill="none" xmlns="http://www.w3.org/2000/svg">
<path d="M6.3 7.16712C6.42491 7.29128 6.59388 7.36098 6.77 7.36098C6.94612 7.36098 7.11509 7.29128 7.24 7.16712C7.36417 7.04221 7.43386 6.87324 7.43386 6.69712C7.43386 6.52099 7.36417 6.35202 7.24 6.22712L3.06 2.02712C2.93446 1.90158 2.7642 1.83105 2.58667 1.83105C2.40913 1.83105 2.23887 1.90158 2.11333 2.02712C1.9878 2.15265 1.91727 2.32291 1.91727 2.50045C1.91727 2.67798 1.9878 2.84825 2.11333 2.97378L6.3 7.16712ZM14.5 9.83378C14.3232 9.83378 14.1536 9.90402 14.0286 10.029C13.9036 10.1541 13.8333 10.3236 13.8333 10.5004V12.8938L10.7933 9.83378C10.666 9.70648 10.4934 9.63496 10.3133 9.63496C10.1333 9.63496 9.96064 9.70648 9.83333 9.83378C9.70603 9.96109 9.63451 10.1337 9.63451 10.3138C9.63451 10.4938 9.70603 10.6665 9.83333 10.7938L12.8933 13.8338H10.5C10.3232 13.8338 10.1536 13.904 10.0286 14.029C9.90357 14.1541 9.83333 14.3236 9.83333 14.5004C9.83333 14.6773 9.90357 14.8468 10.0286 14.9719C10.1536 15.0969 10.3232 15.1671 10.5 15.1671H14.5C14.5871 15.1661 14.6732 15.1479 14.7533 15.1138C14.9162 15.0461 15.0457 14.9167 15.1133 14.7538C15.1475 14.6736 15.1656 14.5876 15.1667 14.5004V10.5004C15.1667 10.3236 15.0964 10.1541 14.9714 10.029C14.8464 9.90402 14.6768 9.83378 14.5 9.83378ZM15.1133 2.24712C15.0457 2.08422 14.9162 1.95477 14.7533 1.88712C14.6732 1.85296 14.5871 1.83484 14.5 1.83378H10.5C10.3232 1.83378 10.1536 1.90402 10.0286 2.02904C9.90357 2.15407 9.83333 2.32364 9.83333 2.50045C9.83333 2.67726 9.90357 2.84683 10.0286 2.97185C10.1536 3.09688 10.3232 3.16712 10.5 3.16712H12.8933L2.02667 14.0271C1.96418 14.0891 1.91458 14.1628 1.88074 14.2441C1.84689 14.3253 1.82947 14.4124 1.82947 14.5004C1.82947 14.5885 1.84689 14.6756 1.88074 14.7568C1.91458 14.8381 1.96418 14.9118 2.02667 14.9738C2.08864 15.0363 2.16238 15.0859 2.24362 15.1197C2.32486 15.1536 2.41199 15.171 2.5 15.171C2.58801 15.171 2.67514 15.1536 2.75638 15.1197C2.83762 15.0859 2.91136 15.0363 2.97333 14.9738L13.8333 4.10712V6.50045C13.8333 6.67726 13.9036 6.84683 14.0286 6.97185C14.1536 7.09688 14.3232 7.16712 14.5 7.16712C14.6768 7.16712 14.8464 7.09688 14.9714 6.97185C15.0964 6.84683 15.1667 6.67726 15.1667 6.50045V2.50045C15.1656 2.41333 15.1475 2.32726 15.1133 2.24712Z" fill="black"/>
</svg>
