<svg width="120" height="100" viewBox="0 0 120 100" fill="none" xmlns="http://www.w3.org/2000/svg">
<g clip-path="url(#clip0_1358_115065)">
<path fill-rule="evenodd" clipRule="evenodd" d="M38.4359 0.25641V0.512821H37.9231H37.4103V0.769231V1.02564H37.1539H36.8974V3.33333V5.64103H36.641H36.3846V9.48718V13.3333H36.1282H35.8718V17.1795V21.0256H35.6154H35.359V24.8718V28.7179H35.1026H34.8462V32.5641V36.4103H34.5897H34.3333V39.2308V42.0513H34.5897H34.8462V42.3077V42.5641H35.359H35.8718V42.8205V43.0769H36.3846H36.8974V44.359V45.641H37.4103H37.9231V45.8974V46.1538H37.4103H36.8974V46.4103V46.6667H36.3846H35.8718V46.9231V47.1795H35.359H34.8462V47.4359V47.6923H34.3333H33.8205V47.9487V48.2051H33.0513H32.2821V48.4615V48.7179H31.7692H31.2564V48.9744V49.2308H30.7436H30.2308V49.4872V49.7436H29.718H29.2051V50V50.2564H28.4359H27.6667V50.5128V50.7692H27.1539H26.641V51.0256V51.2821H26.1282H25.6154V51.5385V51.7949H25.359H25.1026V54.1026V56.4103H24.8462H24.5897V56.6667V56.9231H24.8462H25.1026V57.1795V57.4359H24.5897H24.0769V57.6923V57.9487H24.5897H25.1026V59.4872V61.0256H25.359H25.6154V61.5385V62.0513H25.8718H26.1282V62.3077V62.5641H27.6667H29.2051V62.8205V63.0769H31H32.7949V63.3333V63.5897H34.3333H35.8718V63.8462V64.1026H37.6667H39.4615V64.359V64.6154H41H42.5385V64.8718V65.1282H44.3333H46.1282V65.3846V65.641H47.6667H49.2051V65.8974V66.1538H51H52.7949V66.4103V66.6667H54.5898H56.3846V66.9231V67.1795H57.9231H59.4615V67.4359V67.6923H61.2564H63.0513V67.9487V68.2051H64.5898H66.1282V68.4615V68.7179H67.9231H69.718V68.9744V69.2308H71.2564H72.7949V69.4872V69.7436H74.5898H76.3846V70V70.2564H78.1795H79.9744V70.5128V70.7692H81.5128H83.0513V70.5128V70.2564H83.3077H83.5641V70V69.7436H84.8462H86.1282V69.4872V69.2308H86.3846H86.641V68.9744V68.7179H87.1539H87.6667V68.2051V67.6923H87.9231H88.1795V66.9231V66.1538H88.4359H88.6923V65.8974V65.641H88.9487H89.2051V65.3846V65.1282H89.718H90.2308V64.8718V64.6154H90.4872H90.7436V64.359V64.1026H91H91.2564V63.8462V63.5897H91.5128H91.7692V63.3333V63.0769H92.2821H92.7949V62.8205V62.5641H93.0513H93.3077V62.3077V62.0513H93.5641H93.8205V61.7949V61.5385H94.0769H94.3333V61.2821V61.0256H94.8462H95.359V60.7692V60.5128H95.6154H95.8718V60.2564V60H96.1282H96.3846V59.7436V59.4872H96.641H96.8974V59.2308V58.9744H97.4103H97.9231V58.7179V58.4615H98.1795H98.4359V58.2051V57.9487H98.6923H98.9487V57.6923V57.4359H99.718H100.487V57.1795V56.9231H101H101.513V56.6667V56.4103H101.769H102.026V56.1538V55.8974H102.282H102.538V55.3846V54.8718H102.795H103.051V54.6154V54.359H103.308H103.564V49.2308V44.1026H101.513H99.4616V43.8462V43.5897H95.6154H91.7692V43.3333V43.0769H89.9744H88.1795V42.3077V41.5385H88.6923H89.2051V41.2821V41.0256H89.718H90.2308V40.7692V40.5128H90.4872H90.7436V40.2564V40H91.2564H91.7692V39.7436V39.4872H92.2821H92.7949V39.2308V38.9744H93.0513H93.3077V38.7179V38.4615H93.8205H94.3333V38.2051V37.9487H94.8462H95.359V37.6923V37.4359H95.8718H96.3846V37.1795V36.9231H96.641H96.8974V33.8462V30.7692H97.1539H97.4103V24.8718V18.9744H97.6667H97.9231V14.6154V10.2564H96.3846H94.8462V10V9.74359H92.5385H90.2308V8.46154V7.17949H90.4872H90.7436V5.12821V3.07692H89.9744H89.2051V2.82051V2.5641H85.359H81.5128V2.30769V2.05128H77.4103H73.3077V1.79487V1.53846H69.2051H65.1026V1.28205V1.02564H61.2564H57.4103V0.769231V0.512821H53.3077H49.2051V0.25641V0H43.8205H38.4359V0.25641ZM44.5898 0.769231V1.02564H46.641H48.6923V0.769231V0.512821H46.641H44.5898V0.769231ZM37.4103 3.33333V5.64103H37.1539H36.8974V9.48718V13.3333H36.641H36.3846V17.1795V21.0256H36.1282H35.8718V24.8718V28.7179H35.6154H35.359V32.5641V36.4103H35.1026H34.8462V39.2308V42.0513H35.359H35.8718V42.3077V42.5641H37.9231H39.9744V42.8205V43.0769H38.6923H37.4103V44.1026V45.1282H38.6923H39.9744V45.3846V45.641H41.7692H43.5641V45.8974V46.1538H41.7692H39.9744V46.4103V46.6667H39.4615H38.9487V46.9231V47.1795H38.4359H37.9231V47.4359V47.6923H38.9487H39.9744V47.9487V48.2051H38.4359H36.8974V48.9744V49.7436H38.1795H39.4615V50V50.2564H37.9231H36.3846V48.9744V47.6923H35.8718H35.359V47.9487V48.2051H34.8462H34.3333V48.4615V48.7179H33.5641H32.7949V48.9744V49.2308H32.2821H31.7692V49.4872V49.7436H31.2564H30.7436V50V50.2564H30.2308H29.718V50.5128V50.7692H28.9487H28.1795V51.0256V51.2821H28.4359H28.6923V51.5385V51.7949H29.9744H31.2564V52.0513V52.3077H32.7949H34.3333V52.5641V52.8205H35.8718H37.4103V53.0769V53.3333H38.6923H39.9744V53.5897V53.8462H41.5128H43.0513V54.1026V54.359H44.8462H46.641V54.6154V54.8718H48.4359H50.2308V55.1282V55.3846H52.0256H53.8205V55.641V55.8974H55.6154H57.4103V56.1538V56.4103H59.2051H61V56.6667V56.9231H62.7949H64.5898V57.1795V57.4359H67.1539H69.718V57.6923V57.9487H72.2821H74.8462V58.2051V58.4615H77.4103H79.9744V58.7179V58.9744H81.5128H83.0513V58.7179V58.4615H83.5641H84.0769V58.2051V57.9487H84.3333H84.5898V57.6923V57.4359H85.1026H85.6154V57.6923V57.9487H85.359H85.1026V58.2051V58.4615H84.8462H84.5898V58.7179V58.9744H84.3333H84.0769V59.2308V59.4872H83.8205H83.5641V64.359V69.2308H83.8205H84.0769V67.6923V66.1538H84.3333H84.5898V64.8718V63.5897H84.8462H85.1026V65.1282V66.6667H84.8462H84.5898V67.4359V68.2051H85.1026H85.6154V67.9487V67.6923H85.8718H86.1282V67.4359V67.1795H86.3846H86.641V66.9231V66.6667H87.1539H87.6667V65.3846V64.1026H87.4103H87.1539V63.0769V62.0513H86.8974H86.641V61.7949V61.5385H87.1539H87.6667V62.5641V63.5897H87.9231H88.1795V64.359V65.1282H88.4359H88.6923V64.8718V64.6154H89.2051H89.718V64.359V64.1026H89.9744H90.2308V63.8462V63.5897H90.4872H90.7436V63.3333V63.0769H91H91.2564V62.8205V62.5641H91.7692H92.2821V62.3077V62.0513H92.5385H92.7949V61.7949V61.5385H93.0513H93.3077V61.2821V61.0256H93.5641H93.8205V60.7692V60.5128H94.3333H94.8462V60.2564V60H95.1026H95.359V59.7436V59.4872H95.6154H95.8718V59.2308V58.9744H96.1282H96.3846V58.7179V58.4615H96.8974H97.4103V58.2051V57.9487H97.6667H97.9231V57.6923V57.4359H98.1795H98.4359V57.1795V56.9231H98.6923H98.9487V56.6667V56.4103H99.2051H99.4616V54.359V52.3077H99.718H99.9744V51.7949V51.2821H100.231H100.487V52.0513V52.8205H100.231H99.9744V54.359V55.8974H100.487H101V55.641V55.3846H101.256H101.513V55.1282V54.8718H101.769H102.026V54.6154V54.359H102.282H102.538V53.0769V51.7949H102.282H102.026V51.2821V50.7692H101.769H101.513V50.2564V49.7436H101.769H102.026V50V50.2564H102.282H102.538V50.7692V51.2821H102.795H103.051V48.4615V45.641H102.795H102.538V45.8974V46.1538H102.026H101.513V45.8974V45.641H101.769H102.026V45.1282V44.6154H100.744H99.4616V44.359V44.1026H95.6154H91.7692V43.8462V43.5897H89.9744H88.1795V44.1026V44.6154H88.4359H88.6923V44.8718V45.1282H90.4872H92.2821V45.3846V45.641H93.0513H93.8205V45.8974V46.1538H93.5641H93.3077V46.4103V46.6667H92.7949H92.2821V46.9231V47.1795H92.0257H91.7692V47.4359V47.6923H91.2564H90.7436V48.2051V48.7179H90.2308H89.718V48.4615V48.2051H88.1795H86.641V47.9487V47.6923H85.8718H85.1026V47.9487V48.2051H84.5898H84.0769V48.7179V49.2308H84.3333H84.5898V49.4872V49.7436H84.8462H85.1026V51.0256V52.3077H84.8462H84.5898V52.5641V52.8205H84.3333H84.0769V53.0769V53.3333H83.8205H83.5641V53.5897V53.8462H83.3077H83.0513V54.1026V54.359H82.7949H82.5385V54.6154V54.8718H82.0257H81.5128V55.1282V55.3846H78.6923H75.8718V55.1282V54.8718H78.1795H80.4872V54.1026V53.3333H78.9487H77.4103V53.0769V52.8205H79.4615H81.5128V53.0769V53.3333H81.2564H81V53.8462V54.359H81.5128H82.0257V54.1026V53.8462H82.2821H82.5385V53.5897V53.3333H82.7949H83.0513V53.0769V52.8205H83.3077H83.5641V52.5641V52.3077H83.8205H84.0769V52.0513V51.7949H84.3333H84.5898V51.2821V50.7692H84.3333H84.0769V50.2564V49.7436H83.8205H83.5641V49.4872V49.2308H82.7949H82.0257V49.4872V49.7436H81.7692H81.5128V50V50.2564H78.9487H76.3846V50V49.7436H74.0769H71.7692V49.4872V49.2308H69.4615H67.1539V48.9744V48.7179H69.718H72.2821V48.9744V49.2308H73.0513H73.8205V48.9744V48.7179H73.5641H73.3077V47.9487V47.1795H72.5385H71.7692V46.9231V46.6667H74.0769H76.3846V46.9231V47.1795H75.1026H73.8205V47.6923V48.2051H74.0769H74.3333V48.4615V48.7179H75.359H76.3846V47.9487V47.1795H78.6923H81V47.4359V47.6923H81.2564H81.5128V47.4359V47.1795H81.7692H82.0257V46.9231V46.6667H82.2821H82.5385V43.8462V41.0256H82.7949H83.0513V44.1026V47.1795H83.3077H83.5641V46.9231V46.6667H84.0769H84.5898V46.4103V46.1538H84.8462H85.1026V45.8974V45.641H85.6154H86.1282V45.3846V45.1282H86.641H87.1539V44.8718V44.6154H87.4103H87.6667V42.5641V40.5128H87.9231H88.1795V40.7692V41.0256H88.4359H88.6923V40.7692V40.5128H89.2051H89.718V40.2564V40H89.9744H90.2308V39.7436V39.4872H90.7436H91.2564V39.2308V38.9744H91.7692H92.2821V38.7179V38.4615H92.5385H92.7949V38.2051V37.9487H93.3077H93.8205V37.6923V37.4359H94.3333H94.8462V37.1795V36.9231H95.359H95.8718V36.6667V36.4103H96.1282H96.3846V36.1538V35.8974H95.8718H95.359V36.1538V36.4103H94.8462H94.3333V36.6667V36.9231H93.8205H93.3077V37.1795V37.4359H92.7949H92.2821V37.6923V37.9487H91.7692H91.2564V38.2051V38.4615H91H90.7436V38.7179V38.9744H90.2308H89.718V39.2308V39.4872H89.2051H88.6923V40V40.5128H88.4359H88.1795V36.4103V32.3077H88.4359H88.6923V32.5641V32.8205H88.9487H89.2051V32.5641V32.3077H89.718H90.2308V32.0513V31.7949H91H91.7692V31.5385V31.2821H92.2821H92.7949V31.0256V30.7692H93.3077H93.8205V30.5128V30.2564H94.3333H94.8462V30V29.7436H95.6154H96.3846V30V30.2564H95.8718H95.359V30.5128V30.7692H94.8462H94.3333V31.0256V31.2821H93.8205H93.3077V31.5385V31.7949H92.7949H92.2821V32.0513V32.3077H91.5128H90.7436V32.5641V32.8205H90.2308H89.718V33.0769V33.3333H89.2051H88.6923V33.8462V34.359H88.9487H89.2051V34.1026V33.8462H89.718H90.2308V33.5897V33.3333H90.7436H91.2564V33.0769V32.8205H91.7692H92.2821V32.5641V32.3077H93.0513H93.8205V32.0513V31.7949H94.3333H94.8462V31.5385V31.2821H95.359H95.8718V31.0256V30.7692H96.1282H96.3846V30.5128V30.2564H96.641H96.8974V28.2051V26.1538H96.1282H95.359V26.4103V26.6667H94.8462H94.3333V26.9231V27.1795H93.5641H92.7949V27.4359V27.6923H92.0257H91.2564V27.9487V28.2051H90.4872H89.718V28.4615V28.7179H89.4615H89.2051V28.9744V29.2308H89.9744H90.7436V28.9744V28.7179H91.2564H91.7692V28.4615V28.2051H92.5385H93.3077V27.9487V27.6923H94.0769H94.8462V27.4359V27.1795H95.359H95.8718V26.9231V26.6667H96.1282H96.3846V27.1795V27.6923H95.8718H95.359V27.9487V28.2051H94.5898H93.8205V28.4615V28.7179H93.0513H92.2821V28.9744V29.2308H91.7692H91.2564V29.4872V29.7436H90.4872H89.718V30V30.2564H89.4615H89.2051V30.5128V30.7692H89.9744H90.7436V30.5128V30.2564H91.2564H91.7692V30V29.7436H92.2821H92.7949V29.4872V29.2308H93.5641H94.3333V28.9744V28.7179H94.8462H95.359V28.4615V28.2051H95.8718H96.3846V28.4615V28.7179H96.1282H95.8718V28.9744V29.2308H95.359H94.8462V29.4872V29.7436H94.0769H93.3077V30V30.2564H92.7949H92.2821V30.5128V30.7692H91.7692H91.2564V31.0256V31.2821H90.4872H89.718V31.5385V31.7949H89.4615H89.2051V32.0513V32.3077H88.9487H88.6923V28.2051V24.1026H88.9487H89.2051V24.359V24.6154H90.2308H91.2564V24.359V24.1026H92.0257H92.7949V23.8462V23.5897H93.5641H94.3333V23.3333V23.0769H95.1026H95.8718V22.8205V22.5641H96.3846H96.8974V22.3077V22.0513H96.1282H95.359V22.3077V22.5641H94.3333H93.3077V22.8205V23.0769H92.5385H91.7692V23.3333V23.5897H90.7436H89.718V23.8462V24.1026H89.4615H89.2051V20V15.8974H89.4615H89.718V16.4103V16.9231H90.7436H91.7692V16.6667V16.4103H93.3077H94.8462V16.1538V15.8974H95.8718H96.8974V16.1538V16.4103H96.1282H95.359V16.6667V16.9231H93.8205H92.2821V17.1795V17.4359H91H89.718V17.9487V18.4615H90.7436H91.7692V18.2051V17.9487H93.0513H94.3333V17.6923V17.4359H95.6154H96.8974V17.6923V17.9487H95.8718H94.8462V18.2051V18.4615H93.5641H92.2821V18.7179V18.9744H91H89.718V19.4872V20H90.4872H91.2564V19.7436V19.4872H92.5385H93.8205V19.2308V18.9744H94.8462H95.8718V18.7179V18.4615H96.641H97.4103V16.6667V14.8718H96.8974H96.3846V15.1282V15.3846H94.5898H92.7949V15.641V15.8974H91.2564H89.718V11.5385V7.17949H89.9744H90.2308V5.64103V4.10256H87.9231H85.6154V6.66667V9.23077H85.359H85.1026V6.66667V4.10256H84.5898H84.0769V3.84615V3.58974H80.2308H76.3846V3.33333V3.07692H72.2821H68.1795V2.82051V2.5641H64.3333H60.4872V2.30769V2.05128H56.3846H52.2821V1.79487V1.53846H48.1795H44.0769V1.28205V1.02564H40.7436H37.4103V3.33333ZM52.7949 1.28205V1.53846H54.8462H56.8974V1.28205V1.02564H54.8462H52.7949V1.28205ZM61 1.79487V2.05128H62.7949H64.5898V1.79487V1.53846H62.7949H61V1.79487ZM68.6923 2.30769V2.5641H70.7436H72.7949V2.30769V2.05128H70.7436H68.6923V2.30769ZM76.8974 2.82051V3.07692H78.9487H81V2.82051V2.5641H78.9487H76.8974V2.82051ZM84.5898 3.33333V3.58974H86.641H88.6923V3.33333V3.07692H86.641H84.5898V3.33333ZM43.0513 7.94872V8.20513H42.5385H42.0256V8.71795V9.23077H42.2821H42.5385V10.5128V11.7949H42.2821H42.0256V15.1282V18.4615H41.7692H41.5128V21.7949V25.1282H41.2564H41V28.4615V31.7949H40.7436H40.4872V33.5897V35.3846H40.7436H41V35.8974V36.4103H41.2564H41.5128V36.1538V35.8974H41.7692H42.0256V36.1538V36.4103H44.5898H47.1539V36.6667V36.9231H49.718H52.2821V37.1795V37.4359H54.5898H56.8974V37.6923V37.9487H59.4615H62.0256V38.2051V38.4615H64.3333H66.641V38.7179V38.9744H69.2051H71.7692V39.2308V39.4872H73.8205H75.8718V39.2308V38.9744H76.1282H76.3846V38.7179V38.4615H76.641H76.8974V34.8718V31.2821H77.1539H77.4103V27.1795V23.0769H77.6667H77.9231V18.9744V14.8718H78.1795H78.4359V12.5641V10.2564H78.1795H77.9231V10V9.74359H75.359H72.7949V9.48718V9.23077H69.2051H65.6154V8.97436V8.71795H61.7692H57.9231V8.46154V8.20513H54.3333H50.7436V7.94872V7.69231H46.8974H43.0513V7.94872ZM44.0769 9.48718V10.7692H43.8205H43.5641V9.74359V8.71795H43.3077H43.0513V9.74359V10.7692H43.3077H43.5641V13.5897V16.4103H43.3077H43.0513V14.1026V11.7949H42.7949H42.5385V14.1026V16.4103H42.7949H43.0513V19.2308V22.0513H42.7949H42.5385V20.2564V18.4615H42.2821H42.0256V20.2564V22.0513H42.2821H42.5385V24.8718V27.6923H42.2821H42.0256V26.4103V25.1282H41.7692H41.5128V26.4103V27.6923H41.7692H42.0256V31.2821V34.8718H42.2821H42.5385V35.1282V35.3846H45.1026H47.6667V35.641V35.8974H49.9744H52.2821V36.1538V36.4103H54.5898H56.8974V36.6667V36.9231H59.4615H62.0256V37.1795V37.4359H64.3333H66.641V37.6923V37.9487H68.9487H71.2564V38.2051V38.4615H73.5641H75.8718V38.2051V37.9487H76.1282H76.3846V34.6154V31.2821H76.641H76.8974V27.1795V23.0769H77.1539H77.4103V18.9744V14.8718H77.6667H77.9231V12.8205V10.7692H77.6667H77.4103V10.5128V10.2564H74.8462H72.2821V10V9.74359H68.6923H65.1026V9.48718V9.23077H61.2564H57.4103V8.97436V8.71795H53.8205H50.2308V8.46154V8.20513H47.1539H44.0769V9.48718ZM84.5898 13.3333V17.4359H84.3333H84.0769V21.2821V25.1282H83.8205H83.5641V29.2308V33.3333H83.3077H83.0513V37.1795V41.0256H83.3077H83.5641V37.1795V33.3333H83.8205H84.0769V29.2308V25.1282H84.3333H84.5898V21.2821V17.4359H84.8462H85.1026V13.3333V9.23077H84.8462H84.5898V13.3333ZM90.2308 10.5128V10.7692H92.2821H94.3333V10.5128V10.2564H92.2821H90.2308V10.5128ZM90.2308 11.7949V12.3077H91.7692H93.3077V12.0513V11.7949H95.359H97.4103V11.5385V11.2821H93.8205H90.2308V11.7949ZM93.8205 12.5641V12.8205H92.0257H90.2308V13.3333V13.8462H91.2564H92.2821V13.5897V13.3333H94.8462H97.4103V12.8205V12.3077H95.6154H93.8205V12.5641ZM92.7949 14.1026V14.359H91.5128H90.2308V14.8718V15.3846H91.2564H92.2821V15.1282V14.8718H94.0769H95.8718V14.6154V14.359H96.641H97.4103V14.1026V13.8462H95.1026H92.7949V14.1026ZM96.3846 19.2308V19.4872H95.359H94.3333V19.7436V20H93.0513H91.7692V20.2564V20.5128H90.7436H89.718V21.0256V21.5385H90.4872H91.2564V21.2821V21.0256H92.2821H93.3077V20.7692V20.5128H94.3333H95.359V20.2564V20H96.1282H96.8974V19.4872V18.9744H96.641H96.3846V19.2308ZM95.8718 20.7692V21.0256H94.8462H93.8205V21.2821V21.5385H92.7949H91.7692V21.7949V22.0513H90.7436H89.718V22.5641V23.0769H90.4872H91.2564V22.8205V22.5641H92.0257H92.7949V22.3077V22.0513H93.8205H94.8462V21.7949V21.5385H95.8718H96.8974V21.0256V20.5128H96.3846H95.8718V20.7692ZM96.3846 23.3333V23.5897H95.6154H94.8462V23.8462V24.1026H94.0769H93.3077V24.359V24.6154H92.5385H91.7692V24.8718V25.1282H90.7436H89.718V25.3846V25.641H89.4615H89.2051V25.8974V26.1538H89.9744H90.7436V25.8974V25.641H91.5128H92.2821V25.3846V25.1282H93.0513H93.8205V24.8718V24.6154H94.5898H95.359V24.359V24.1026H96.1282H96.8974V23.5897V23.0769H96.641H96.3846V23.3333ZM95.8718 24.8718V25.1282H95.1026H94.3333V25.3846V25.641H93.5641H92.7949V25.8974V26.1538H92.0257H91.2564V26.4103V26.6667H90.4872H89.718V26.9231V27.1795H89.4615H89.2051V27.4359V27.6923H89.9744H90.7436V27.4359V27.1795H91.5128H92.2821V26.9231V26.6667H93.0513H93.8205V26.4103V26.1538H94.3333H94.8462V25.8974V25.641H95.8718H96.8974V25.1282V24.6154H96.3846H95.8718V24.8718ZM41 32.5641V33.3333H41.2564H41.5128V32.5641V31.7949H41.2564H41V32.5641ZM95.359 32.0513V32.3077H94.8462H94.3333V32.5641V32.8205H93.5641H92.7949V33.0769V33.3333H92.2821H91.7692V33.5897V33.8462H91.2564H90.7436V34.1026V34.359H90.2308H89.718V34.6154V34.8718H89.2051H88.6923V35.3846V35.8974H88.9487H89.2051V35.641V35.3846H89.718H90.2308V35.1282V34.8718H90.7436H91.2564V34.6154V34.359H91.7692H92.2821V34.1026V33.8462H92.7949H93.3077V33.5897V33.3333H93.8205H94.3333V33.0769V32.8205H94.8462H95.359V32.5641V32.3077H95.8718H96.3846V32.0513V31.7949H95.8718H95.359V32.0513ZM95.8718 33.0769V33.3333H95.359H94.8462V33.5897V33.8462H94.3333H93.8205V34.1026V34.359H93.3077H92.7949V34.6154V34.8718H92.2821H91.7692V35.1282V35.3846H91.2564H90.7436V35.641V35.8974H90.2308H89.718V36.1538V36.4103H89.2051H88.6923V36.9231V37.4359H88.9487H89.2051V37.1795V36.9231H89.718H90.2308V36.6667V36.4103H90.7436H91.2564V36.1538V35.8974H91.7692H92.2821V35.641V35.3846H92.7949H93.3077V35.1282V34.8718H93.5641H93.8205V34.6154V34.359H94.3333H94.8462V34.1026V33.8462H95.6154H96.3846V33.3333V32.8205H96.1282H95.8718V33.0769ZM95.359 34.6154V34.8718H94.8462H94.3333V35.1282V35.3846H94.0769H93.8205V35.641V35.8974H93.3077H92.7949V36.1538V36.4103H92.2821H91.7692V36.6667V36.9231H91.2564H90.7436V37.1795V37.4359H90.2308H89.718V37.6923V37.9487H89.2051H88.6923V38.4615V38.9744H88.9487H89.2051V38.7179V38.4615H89.718H90.2308V38.2051V37.9487H90.4872H90.7436V37.6923V37.4359H91.2564H91.7692V37.1795V36.9231H92.2821H92.7949V36.6667V36.4103H93.3077H93.8205V36.1538V35.8974H94.3333H94.8462V35.641V35.3846H95.359H95.8718V35.1282V34.8718H96.1282H96.3846V34.6154V34.359H95.8718H95.359V34.6154ZM41 38.2051V38.4615H40.4872H39.9744V39.4872V40.5128H41H42.0256V39.7436V38.9744H41.7692H41.5128V38.4615V37.9487H41.2564H41V38.2051ZM40.4872 39.4872V40H41H41.5128V39.7436V39.4872H41.2564H41V39.2308V38.9744H40.7436H40.4872V39.4872ZM39.9744 43.3333V43.5897H40.4872H41V43.8462V44.1026H41.5128H42.0256V44.359V44.6154H42.5385H43.0513V44.8718V45.1282H43.5641H44.0769V44.8718V44.6154H44.3333H44.5898V44.359V44.1026H45.359H46.1282V44.359V44.6154H46.641H47.1539V44.8718V45.1282H47.6667H48.1795V45.3846V45.641H48.6923H49.2051V45.3846V45.1282H49.718H50.2308V44.8718V44.6154H52.0256H53.8205V44.8718V45.1282H56.1282H58.4359V45.3846V45.641H60.4872H62.5385V45.8974V46.1538H64.8462H67.1539V46.4103V46.6667H69.4615H71.7692V46.4103V46.1538H69.4615H67.1539V45.8974V45.641H64.8462H62.5385V45.3846V45.1282H60.4872H58.4359V44.8718V44.6154H56.1282H53.8205V44.359V44.1026H51.5128H49.2051V43.8462V43.5897H46.8974H44.5898V43.3333V43.0769H42.2821H39.9744V43.3333ZM73.8205 43.5897V44.1026H74.8462H75.8718V43.5897V43.0769H74.8462H73.8205V43.5897ZM42.5385 43.8462V44.1026H43.0513H43.5641V43.8462V43.5897H43.0513H42.5385V43.8462ZM47.6667 44.359V44.6154H48.1795H48.6923V44.359V44.1026H48.1795H47.6667V44.359ZM43.5641 46.4103V46.6667H45.8718H48.1795V46.9231V47.1795H50.4872H52.7949V47.4359V47.6923H55.1026H57.4103V47.9487V48.2051H59.718H62.0256V48.4615V48.7179H64.5898H67.1539V48.4615V48.2051H64.5898H62.0256V47.9487V47.6923H59.718H57.4103V47.4359V47.1795H55.1026H52.7949V46.9231V46.6667H50.4872H48.1795V46.4103V46.1538H45.8718H43.5641V46.4103ZM100.487 46.4103V46.6667H100.231H99.9744V46.9231V47.1795H99.718H99.4616V47.4359V47.6923H98.9487H98.4359V47.9487V48.2051H98.1795H97.9231V48.4615V48.7179H97.4103H96.8974V48.9744V49.2308H96.641H96.3846V49.4872V49.7436H95.8718H95.359V50V50.2564H95.1026H94.8462V50.5128V50.7692H94.5898H94.3333V51.0256V51.2821H93.8205H93.3077V51.5385V51.7949H93.0513H92.7949V52.0513V52.3077H92.2821H91.7692V52.5641V52.8205H91.5128H91.2564V53.0769V53.3333H91H90.7436V53.5897V53.8462H90.2308H89.718V54.1026V54.359H89.4615H89.2051V54.6154V54.8718H88.6923H88.1795V55.1282V55.3846H87.9231H87.6667V55.641V55.8974H87.1539H86.641V56.1538V56.4103H86.3846H86.1282V56.6667V56.9231H85.8718H85.6154V57.1795V57.4359H86.1282H86.641V57.1795V56.9231H86.8974H87.1539V56.6667V56.4103H87.6667H88.1795V56.1538V55.8974H88.4359H88.6923V55.641V55.3846H88.9487H89.2051V55.1282V54.8718H89.718H90.2308V54.6154V54.359H90.4872H90.7436V54.1026V53.8462H91.2564H91.7692V53.5897V53.3333H92.0257H92.2821V53.0769V52.8205H92.5385H92.7949V52.5641V52.3077H93.3077H93.8205V52.0513V51.7949H94.0769H94.3333V51.5385V51.2821H94.5898H94.8462V51.0256V50.7692H95.359H95.8718V50.5128V50.2564H96.1282H96.3846V50V49.7436H96.8974H97.4103V49.4872V49.2308H97.6667H97.9231V48.9744V48.7179H98.1795H98.4359V48.4615V48.2051H98.9487H99.4616V47.9487V47.6923H99.718H99.9744V47.4359V47.1795H100.487H101V46.9231V46.6667H101.256H101.513V46.4103V46.1538H101H100.487V46.4103ZM84.0769 47.4359V47.6923H84.3333H84.5898V47.4359V47.1795H84.3333H84.0769V47.4359ZM77.4103 48.4615V49.2308H77.1539H76.8974V49.4872V49.7436H78.4359H79.9744V48.7179V47.6923H78.6923H77.4103V48.4615ZM82.5385 47.9487V48.2051H81.5128H80.4872V48.9744V49.7436H80.7436H81V49.4872V49.2308H81.2564H81.5128V48.9744V48.7179H82.0257H82.5385V48.4615V48.2051H83.0513H83.5641V47.9487V47.6923H83.0513H82.5385V47.9487ZM39.9744 48.4615V48.7179H41.5128H43.0513V48.9744V49.2308H44.8462H46.641V49.4872V49.7436H48.1795H49.718V50V50.2564H51.5128H53.3077V50.5128V50.7692H55.1026H56.8974V51.0256V51.2821H59.4615H62.0256V51.5385V51.7949H64.5898H67.1539V52.0513V52.3077H69.718H72.2821V52.5641V52.8205H74.8462H77.4103V52.5641V52.3077H74.8462H72.2821V52.0513V51.7949H69.718H67.1539V51.5385V51.2821H64.5898H62.0256V51.0256V50.7692H59.4615H56.8974V50.5128V50.2564H55.1026H53.3077V50V49.7436H51.5128H49.718V49.4872V49.2308H48.1795H46.641V48.9744V48.7179H44.8462H43.0513V48.4615V48.2051H41.5128H39.9744V48.4615ZM39.4615 50.5128V50.7692H41.2564H43.0513V51.0256V51.2821H44.5898H46.1282V51.5385V51.7949H47.6667H49.2051V52.0513V52.3077H50.7436H52.2821V52.5641V52.8205H54.0769H55.8718V53.0769V53.3333H58.4359H61V53.5897V53.8462H63.3077H65.6154V54.1026V54.359H68.1795H70.7436V54.6154V54.8718H73.3077H75.8718V54.6154V54.359H73.3077H70.7436V54.1026V53.8462H68.1795H65.6154V53.5897V53.3333H63.3077H61V53.0769V52.8205H58.4359H55.8718V52.5641V52.3077H54.0769H52.2821V52.0513V51.7949H50.7436H49.2051V51.5385V51.2821H47.6667H46.1282V51.0256V50.7692H44.5898H43.0513V50.5128V50.2564H41.2564H39.4615V50.5128ZM83.5641 51.0256V51.2821H83.3077H83.0513V51.5385V51.7949H82.7949H82.5385V52.0513V52.3077H82.0257H81.5128V52.5641V52.8205H82.0257H82.5385V52.5641V52.3077H82.7949H83.0513V52.0513V51.7949H83.3077H83.5641V51.5385V51.2821H83.8205H84.0769V51.0256V50.7692H83.8205H83.5641V51.0256ZM27.1539 52.0513V52.3077H27.6667H28.1795V52.0513V51.7949H27.6667H27.1539V52.0513ZM25.6154 56.4103V60.5128H26.1282H26.641V60.7692V61.0256H27.9231H29.2051V61.2821V61.5385H27.9231H26.641V61.7949V62.0513H27.9231H29.2051V61.7949V61.5385H30.7436H32.2821V61.7949V62.0513H31H29.718V62.3077V62.5641H31H32.2821V62.3077V62.0513H33.8205H35.359V62.3077V62.5641H34.0769H32.7949V62.8205V63.0769H34.0769H35.359V62.8205V62.5641H36.8974H38.4359V62.8205V63.0769H37.1539H35.8718V63.3333V63.5897H37.1539H38.4359V63.3333V63.0769H38.9487H39.4615V58.9744V54.8718H39.2051H38.9487V54.6154V54.359H37.4103H35.8718V54.1026V53.8462H34.3333H32.7949V53.5897V53.3333H31.2564H29.718V53.0769V52.8205H28.1795H26.641V52.5641V52.3077H26.1282H25.6154V56.4103ZM30.2308 52.5641V52.8205H30.4872H30.7436V52.5641V52.3077H30.4872H30.2308V52.5641ZM33.3077 53.0769V53.3333H33.5641H33.8205V53.0769V52.8205H33.5641H33.3077V53.0769ZM36.3846 53.5897V53.8462H36.641H36.8974V53.5897V53.3333H36.641H36.3846V53.5897ZM42.0256 54.6154V54.8718H42.2821H42.5385V54.6154V54.359H42.2821H42.0256V54.6154ZM39.9744 58.9744V63.0769H40.7436H41.5128V63.3333V63.5897H40.4872H39.4615V63.8462V64.1026H40.4872H41.5128V63.8462V63.5897H43.0513H44.5898V63.8462V64.1026H43.5641H42.5385V64.359V64.6154H43.5641H44.5898V64.359V64.1026H46.1282H47.6667V64.359V64.6154H46.8974H46.1282V64.8718V65.1282H46.8974H47.6667V64.8718V64.6154H48.9487H50.2308V64.8718V65.1282H49.718H49.2051V65.3846V65.641H49.718H50.2308V65.3846V65.1282H52.0256H53.8205V65.3846V65.641H55.359H56.8974V65.8974V66.1538H56.641H56.3846V66.4103V66.6667H56.641H56.8974V66.4103V66.1538H58.4359H59.9744V66.4103V66.6667H59.718H59.4615V66.9231V67.1795H59.718H59.9744V66.9231V66.6667H61.2564H62.5385V62.3077V57.9487H61H59.4615V57.6923V57.4359H57.1539H54.8462V57.1795V56.9231H52.7949H50.7436V56.6667V56.4103H49.2051H47.6667V56.1538V55.8974H46.1282H44.5898V55.641V55.3846H43.0513H41.5128V55.1282V54.8718H40.7436H39.9744V58.9744ZM45.1026 55.1282V55.3846H45.6154H46.1282V55.1282V54.8718H45.6154H45.1026V55.1282ZM48.1795 55.641V55.8974H48.9487H49.718V55.641V55.3846H48.9487H48.1795V55.641ZM51.2564 56.1538V56.4103H52.2821H53.3077V56.1538V55.8974H52.2821H51.2564V56.1538ZM31.7692 57.1795V57.9487H32.5385H33.3077V57.4359V56.9231H33.0513H32.7949V56.6667V56.4103H32.2821H31.7692V57.1795ZM55.359 56.6667V56.9231H56.1282H56.8974V56.6667V56.4103H56.1282H55.359V56.6667ZM22.0256 57.1795V57.4359H22.7949H23.5641V57.1795V56.9231H22.7949H22.0256V57.1795ZM59.9744 57.1795V57.4359H60.2308H60.4872V57.1795V56.9231H60.2308H59.9744V57.1795ZM19.4615 57.6923V57.9487H20.2308H21V57.6923V57.4359H20.2308H19.4615V57.6923ZM41 57.6923V57.9487H41.5128H42.0256V58.2051V58.4615H42.2821H42.5385V58.9744V59.4872H41.7692H41V59.7436V60H41.7692H42.5385V60.2564V60.5128H44.3333H46.1282V60.7692V61.0256H47.6667H49.2051V61.2821V61.5385H51H52.7949V61.7949V62.0513H54.5898H56.3846V62.3077V62.5641H57.9231H59.4615V62.8205V63.0769H60.7436H62.0256V62.8205V62.5641H61.7692H61.5128V62.3077V62.0513H61.2564H61V61.5385V61.0256H61.5128H62.0256V60.7692V60.5128H61H59.9744V60.2564V60H58.1795H56.3846V59.7436V59.4872H54.8462H53.3077V59.2308V58.9744H51.5128H49.718V58.7179V58.4615H47.9231H46.1282V58.2051V57.9487H44.3333H42.5385V57.6923V57.4359H41.7692H41V57.6923ZM17.4103 58.2051V58.4615H17.9231H18.4359V58.2051V57.9487H17.9231H17.4103V58.2051ZM21.5128 58.2051V58.4615H22.0256H22.5385V58.2051V57.9487H22.0256H21.5128V58.2051ZM63.0513 62.5641V67.1795H64.8462H66.641V67.4359V67.6923H66.3846H66.1282V67.9487V68.2051H66.3846H66.641V67.9487V67.6923H68.6923H70.7436V67.9487V68.2051H70.2308H69.718V68.4615V68.7179H70.2308H70.7436V68.4615V68.2051H72.0257H73.3077V68.4615V68.7179H73.0513H72.7949V68.9744V69.2308H73.0513H73.3077V68.9744V68.7179H74.0769H74.8462V67.6923V66.6667H75.359H75.8718V66.4103V66.1538H76.641H77.4103V66.4103V66.6667H77.6667H77.9231V66.9231V67.1795H78.1795H78.4359V68.2051V69.2308H78.9487H79.4615V68.9744V68.7179H79.718H79.9744V68.9744V69.2308H81H82.0257V64.8718V60.5128H81.5128H81V60.2564V60H78.9487H76.8974V59.7436V59.4872H74.5898H72.2821V59.2308V58.9744H70.2308H68.1795V58.7179V58.4615H65.8718H63.5641V58.2051V57.9487H63.3077H63.0513V62.5641ZM68.6923 58.2051V58.4615H68.9487H69.2051V58.2051V57.9487H68.9487H68.6923V58.2051ZM15.8718 58.7179V58.9744H16.1282H16.3846V58.7179V58.4615H16.1282H15.8718V58.7179ZM18.9487 58.7179V58.9744H19.4615H19.9744V58.7179V58.4615H19.4615H18.9487V58.7179ZM43.0513 58.7179V58.9744H43.3077H43.5641V59.2308V59.4872H45.1026H46.641V59.7436V60H48.4359H50.2308V60.2564V60.5128H51.7692H53.3077V60.7692V61.0256H55.1026H56.8974V61.2821V61.5385H58.6923H60.4872V61.2821V61.0256H59.9744H59.4615V60.7692V60.5128H57.6667H55.8718V60.2564V60H54.3333H52.7949V59.7436V59.4872H51H49.2051V59.2308V58.9744H47.4103H45.6154V58.7179V58.4615H44.3333H43.0513V58.7179ZM72.7949 58.7179V58.9744H73.5641H74.3333V58.7179V58.4615H73.5641H72.7949V58.7179ZM14.3333 59.2308V59.4872H14.5897H14.8462V59.2308V58.9744H14.5897H14.3333V59.2308ZM16.8974 59.2308V59.4872H17.4103H17.9231V59.2308V58.9744H17.4103H16.8974V59.2308ZM30.2308 59.7436V60.5128H30.4872H30.7436V60.7692V61.0256H32.2821H33.8205V61.2821V61.5385H34.0769H34.3333V60.5128V59.4872H32.7949H31.2564V59.2308V58.9744H30.7436H30.2308V59.7436ZM77.4103 59.2308V59.4872H78.4359H79.4615V59.2308V58.9744H78.4359H77.4103V59.2308ZM12.7949 59.7436V60H13.0513H13.3077V59.7436V59.4872H13.0513H12.7949V59.7436ZM15.359 59.7436V60H15.8718H16.3846V59.7436V59.4872H15.8718H15.359V59.7436ZM81.5128 59.7436V60H82.0257H82.5385V59.7436V59.4872H82.0257H81.5128V59.7436ZM11.2564 60.2564V60.5128H11.7692H12.2821V60.2564V60H11.7692H11.2564V60.2564ZM13.8205 60.2564V60.5128H14.3333H14.8462V60.2564V60H14.3333H13.8205V60.2564ZM31.2564 60.2564V60.5128H32.5385H33.8205V60.2564V60H32.5385H31.2564V60.2564ZM12.7949 60.7692V61.0256H13.0513H13.3077V60.7692V60.5128H13.0513H12.7949V60.7692ZM82.5385 64.359V68.2051H82.7949H83.0513V64.359V60.5128H82.7949H82.5385V64.359ZM9.71795 61.2821V61.5385H9.97436H10.2308V61.2821V61.0256H9.97436H9.71795V61.2821ZM11.2564 61.2821V61.5385H11H10.7436V61.7949V62.0513H10.4872H10.2308V62.3077V62.5641H10.4872H10.7436V62.8205V63.0769H11H11.2564V62.8205V62.5641H11H10.7436V62.3077V62.0513H11H11.2564V61.7949V61.5385H11.5128H11.7692V61.2821V61.0256H11.5128H11.2564V61.2821ZM63.5641 61.2821V61.5385H63.8205H64.0769V61.7949V62.0513H63.8205H63.5641V62.3077V62.5641H64.5898H65.6154V62.8205V63.0769H67.1539H68.6923V63.3333V63.5897H70.4872H72.2821V63.8462V64.1026H73.8205H75.359V64.359V64.6154H76.8974H78.4359V64.8718V65.1282H79.2051H79.9744V64.6154V64.1026H79.718H79.4615V63.8462V63.5897H79.2051H78.9487V63.3333V63.0769H79.4615H79.9744V62.8205V62.5641H78.1795H76.3846V62.3077V62.0513H74.3333H72.2821V61.7949V61.5385H69.9744H67.6667V61.2821V61.0256H65.6154H63.5641V61.2821ZM17.4103 62.3077V62.5641H17.1539H16.8974V62.8205V63.0769H16.641H16.3846V63.3333V63.5897H16.1282H15.8718V63.8462V64.1026H15.1026H14.3333V64.6154V65.1282H14.0769H13.8205V64.8718V64.6154H13.5641H13.3077V64.8718V65.1282H13.5641H13.8205V65.3846V65.641H13.5641H13.3077V65.8974V66.1538H12.7949H12.2821V66.4103V66.6667H12.0256H11.7692V66.9231V67.1795H11.5128H11.2564V67.4359V67.6923H11H10.7436V67.9487V68.2051H10.2308H9.71795V68.4615V68.7179H9.46154H9.20513V68.9744V69.2308H8.94872H8.69231V69.4872V69.7436H8.4359H8.17949V70V70.2564H7.66667H7.15385V70.5128V70.7692H6.89744H6.64103V71.0256V71.2821H6.12821H5.61539V71.5385V71.7949H5.10257H4.58975V72.0513V72.3077H4.07693H3.56411V72.5641V72.8205H3.05129H2.53846V73.0769V73.3333H2.02564H1.51282V73.5897V73.8462H1.25641H1V74.1026V74.359H0.743593H0.487183V75.8974V77.4359H0.743593H1V77.6923V77.9487H1.25641H1.51282V78.2051V78.4615H2.53846H3.56411V78.7179V78.9744H4.84616H6.12821V79.2308V79.4872H7.15385H8.17949V79.7436V80H9.46154H10.7436V80.2564V80.5128H12.0256H13.3077V80.7692V81.0256H14.5897H15.8718V81.2821V81.5385H16.8974H17.9231V81.7949V82.0513H19.2051H20.4872V82.3077V82.5641H21.7692H23.0513V82.8205V83.0769H24.3333H25.6154V83.3333V83.5897H26.641H27.6667V83.8462V84.1026H28.9487H30.2308V84.359V84.6154H31.5128H32.7949V84.8718V85.1282H34.0769H35.359V85.3846V85.641H36.3846H37.4103V85.8974V86.1538H38.6923H39.9744V86.4103V86.6667H41.2564H42.5385V86.9231V87.1795H43.8205H45.1026V87.4359V87.6923H46.1282H47.1539V87.9487V88.2051H48.4359H49.718V88.4615V88.7179H51H52.2821V88.9744V89.2308H53.3077H54.3333V89.4872V89.7436H55.6154H56.8974V90V90.2564H58.1795H59.4615V90.5128V90.7692H60.7436H62.0256V91.0256V91.2821H63.0513H64.0769V91.5385V91.7949H65.359H66.641V92.0513V92.3077H67.9231H69.2051V92.5641V92.8205H70.4872H71.7692V93.0769V93.3333H73.0513H74.3333V93.0769V92.8205H74.5898H74.8462V92.5641V92.3077H75.1026H75.359V92.0513V91.7949H75.6154H75.8718V91.2821V90.7692H76.1282H76.3846V90.5128V90.2564H76.641H76.8974V90V89.7436H77.1539H77.4103V89.4872V89.2308H77.6667H77.9231V88.9744V88.7179H78.1795H78.4359V88.2051V87.6923H78.6923H78.9487V87.4359V87.1795H79.2051H79.4615V86.9231V86.6667H79.718H79.9744V86.4103V86.1538H80.2308H80.4872V85.8974V85.641H80.7436H81V85.1282V84.6154H81.2564H81.5128V84.359V84.1026H81.7692H82.0257V83.8462V83.5897H82.2821H82.5385V83.3333V83.0769H83.0513H83.5641V82.8205V82.5641H85.1026H86.641V82.3077V82.0513H86.3846H86.1282V81.5385V81.0256H85.6154H85.1026V80.7692V80.5128H84.5898H84.0769V80.2564V80H84.3333H84.5898V79.7436V79.4872H84.8462H85.1026V79.2308V78.9744H85.359H85.6154V75.8974V72.8205H84.8462H84.0769V72.5641V72.3077H82.5385H81V72.0513V71.7949H79.2051H77.4103V71.5385V71.2821H75.8718H74.3333V71.0256V70.7692H72.7949H71.2564V70.5128V70.2564H69.718H68.1795V70V69.7436H66.3846H64.5898V69.4872V69.2308H63.0513H61.5128V68.9744V68.7179H59.9744H58.4359V68.4615V68.2051H56.8974H55.359V67.9487V67.6923H53.8205H52.2821V67.4359V67.1795H50.7436H49.2051V66.9231V66.6667H47.6667H46.1282V66.4103V66.1538H44.5898H43.0513V65.8974V65.641H41.5128H39.9744V65.3846V65.1282H38.1795H36.3846V64.8718V64.6154H34.8462H33.3077V64.359V64.1026H31.7692H30.2308V63.8462V63.5897H28.6923H27.1539V63.3333V63.0769H25.6154H24.0769V62.8205V62.5641H22.5385H21V62.3077V62.0513H19.2051H17.4103V62.3077ZM67.6667 62.3077V62.5641H68.1795H68.6923V62.3077V62.0513H68.1795H67.6667V62.3077ZM17.9231 62.8205V63.0769H17.6667H17.4103V63.3333V63.5897H17.1539H16.8974V63.8462V64.1026H16.641H16.3846V64.359V64.6154H15.8718H15.359V64.8718V65.1282H15.1026H14.8462V65.3846V65.641H14.5897H14.3333V65.8974V66.1538H14.0769H13.8205V66.4103V66.6667H13.3077H12.7949V66.9231V67.1795H12.5385H12.2821V67.4359V67.6923H12.0256H11.7692V67.9487V68.2051H11.5128H11.2564V68.4615V68.7179H10.7436H10.2308V68.9744V69.2308H9.97436H9.71795V69.4872V69.7436H9.46154H9.20513V70V70.2564H8.94872H8.69231V70.5128V70.7692H8.17949H7.66667V71.0256V71.2821H7.41026H7.15385V71.5385V71.7949H6.64103H6.12821V72.0513V72.3077H5.61539H5.10257V72.5641V72.8205H5.35898H5.61539V73.3333V73.8462H5.35898H5.10257V74.1026V74.359H4.33334H3.56411V73.8462V73.3333H3.3077H3.05129V73.5897V73.8462H2.53846H2.02564V74.1026V74.359H1.76923H1.51282V74.6154V74.8718H2.02564H2.53846V75.1282V75.3846H2.02564H1.51282V75.641V75.8974H1.76923H2.02564V76.1538V76.4103H1.51282H1V76.9231V77.4359H1.25641H1.51282V77.6923V77.9487H2.53846H3.56411V78.2051V78.4615H4.84616H6.12821V78.7179V78.9744H7.15385H8.17949V79.2308V79.4872H9.46154H10.7436V79.7436V80H12.0256H13.3077V80.2564V80.5128H14.5897H15.8718V80.7692V81.0256H16.8974H17.9231V81.2821V81.5385H19.2051H20.4872V81.7949V82.0513H21.7692H23.0513V82.3077V82.5641H24.3333H25.6154V82.8205V83.0769H26.641H27.6667V83.3333V83.5897H28.9487H30.2308V83.8462V84.1026H31.5128H32.7949V84.359V84.6154H34.0769H35.359V84.8718V85.1282H36.3846H37.4103V85.3846V85.641H38.6923H39.9744V85.8974V86.1538H41.2564H42.5385V86.4103V86.6667H43.8205H45.1026V86.9231V87.1795H46.1282H47.1539V87.4359V87.6923H48.4359H49.718V87.9487V88.2051H51H52.2821V88.4615V88.7179H53.3077H54.3333V88.9744V89.2308H55.6154H56.8974V89.4872V89.7436H58.1795H59.4615V90V90.2564H60.7436H62.0256V90.5128V90.7692H63.0513H64.0769V91.0256V91.2821H65.359H66.641V91.5385V91.7949H67.9231H69.2051V92.0513V92.3077H70.4872H71.7692V92.5641V92.8205H72.7949H73.8205V92.5641V92.3077H74.0769H74.3333V92.0513V91.7949H74.5898H74.8462V91.5385V91.2821H75.1026H75.359V90.7692V90.2564H75.6154H75.8718V90V89.7436H76.1282H76.3846V89.4872V89.2308H76.641H76.8974V88.9744V88.7179H77.1539H77.4103V88.4615V88.2051H77.6667H77.9231V87.6923V87.1795H78.1795H78.4359V86.9231V86.6667H78.6923H78.9487V86.4103V86.1538H79.2051H79.4615V85.8974V85.641H79.718H79.9744V85.3846V85.1282H80.2308H80.4872V84.6154V84.1026H80.7436H81V83.8462V83.5897H81.2564H81.5128V83.0769V82.5641H81.7692H82.0257V82.3077V82.0513H82.2821H82.5385V81.5385V81.0256H82.7949H83.0513V80.7692V80.5128H83.3077H83.5641V80V79.4872H83.8205H84.0769V79.2308V78.9744H84.3333H84.5898V78.7179V78.4615H84.8462H85.1026V77.9487V77.4359H84.8462H84.5898V77.6923V77.9487H84.3333H84.0769V78.4615V78.9744H83.8205H83.5641V79.2308V79.4872H83.3077H83.0513V80V80.5128H82.7949H82.5385V80.7692V81.0256H82.2821H82.0257V81.5385V82.0513H81.7692H81.5128V82.3077V82.5641H81.2564H81V83.0769V83.5897H80.7436H80.4872V83.8462V84.1026H80.2308H79.9744V84.6154V85.1282H79.718H79.4615V85.3846V85.641H79.2051H78.9487V85.8974V86.1538H78.6923H78.4359V86.4103V86.6667H78.1795H77.9231V86.9231V87.1795H77.6667H77.4103V87.4359V87.6923H77.1539H76.8974V88.2051V88.7179H76.641H76.3846V88.9744V89.2308H76.1282H75.8718V89.4872V89.7436H75.6154H75.359V90V90.2564H75.1026H74.8462V90.5128V90.7692H74.5898H74.3333V91.0256V91.2821H72.5385H70.7436V91.0256V90.7692H72.2821H73.8205V90.5128V90.2564H74.0769H74.3333V90V89.7436H74.5898H74.8462V89.4872V89.2308H75.1026H75.359V88.9744V88.7179H75.6154H75.8718V88.4615V88.2051H76.1282H76.3846V87.9487V87.6923H76.1282H75.8718V87.9487V88.2051H75.6154H75.359V88.4615V88.7179H75.1026H74.8462V88.9744V89.2308H74.5898H74.3333V89.4872V89.7436H74.0769H73.8205V90V90.2564H72.7949H71.7692V90V89.7436H72.5385H73.3077V89.4872V89.2308H73.5641H73.8205V88.9744V88.7179H74.0769H74.3333V88.4615V88.2051H74.5898H74.8462V87.9487V87.6923H75.1026H75.359V87.4359V87.1795H75.6154H75.8718V86.9231V86.6667H76.1282H76.3846V86.4103V86.1538H76.641H76.8974V85.641V85.1282H77.1539H77.4103V84.8718V84.6154H77.6667H77.9231V84.359V84.1026H78.1795H78.4359V83.8462V83.5897H78.6923H78.9487V83.3333V83.0769H79.2051H79.4615V82.5641V82.0513H79.718H79.9744V81.7949V81.5385H80.2308H80.4872V81.0256V80.5128H80.7436H81V80.2564V80H81.2564H81.5128V79.4872V78.9744H81.7692H82.0257V78.7179V78.4615H82.2821H82.5385V77.9487V77.4359H82.7949H83.0513V77.1795V76.9231H83.3077H83.5641V76.4103V75.8974H83.8205H84.0769V75.641V75.3846H84.3333H84.5898V74.8718V74.359H84.8462H85.1026V73.8462V73.3333H84.3333H83.5641V73.0769V72.8205H82.0257H80.4872V72.5641V72.3077H78.9487H77.4103V72.0513V71.7949H75.8718H74.3333V71.5385V71.2821H72.7949H71.2564V71.0256V70.7692H69.718H68.1795V70.5128V70.2564H66.3846H64.5898V70V69.7436H63.0513H61.5128V69.4872V69.2308H59.9744H58.4359V68.9744V68.7179H56.8974H55.359V68.4615V68.2051H53.8205H52.2821V67.9487V67.6923H50.7436H49.2051V67.4359V67.1795H47.6667H46.1282V66.9231V66.6667H44.5898H43.0513V66.4103V66.1538H41.5128H39.9744V65.8974V65.641H38.1795H36.3846V65.3846V65.1282H34.8462H33.3077V64.8718V64.6154H31.7692H30.2308V64.359V64.1026H28.6923H27.1539V63.8462V63.5897H25.6154H24.0769V63.3333V63.0769H22.5385H21V62.8205V62.5641H19.4615H17.9231V62.8205ZM9.71795 63.3333V63.5897H9.97436H10.2308V63.3333V63.0769H9.97436H9.71795V63.3333ZM11.7692 63.3333V63.5897H12.2821H12.7949V63.3333V63.0769H12.2821H11.7692V63.3333ZM10.7436 63.8462V64.1026H11H11.2564V63.8462V63.5897H11H10.7436V63.8462ZM13.3077 63.8462V64.1026H13.5641H13.8205V63.8462V63.5897H13.5641H13.3077V63.8462ZM11.7692 64.359V64.6154H12.2821H12.7949V64.359V64.1026H12.2821H11.7692V64.359ZM18.9487 64.359V64.6154H18.6923H18.4359V64.8718V65.1282H18.1795H17.9231V65.8974V66.6667H18.6923H19.4615V66.9231V67.1795H20.2308H21V66.9231V66.6667H21.2564H21.5128V66.4103V66.1538H21.7692H22.0256V66.9231V67.6923H23.5641H25.1026V67.9487V68.2051H26.3846H27.6667V68.4615V68.7179H25.6154H23.5641V68.4615V68.2051H22.0256H20.4872V67.9487V67.6923H19.2051H17.9231V67.4359V67.1795H16.641H15.359V67.4359V67.6923H15.1026H14.8462V67.9487V68.2051H14.5897H14.3333V68.4615V68.7179H13.8205H13.3077V68.9744V69.2308H13.0513H12.7949V69.4872V69.7436H12.5385H12.2821V70V70.2564H11.7692H11.2564V70.5128V70.7692H11H10.7436V71.0256V71.2821H10.4872H10.2308V71.5385V71.7949H9.71795H9.20513V72.0513V72.3077H8.94872H8.69231V72.5641V72.8205H7.92308H7.15385V73.0769V73.3333H6.89744H6.64103V73.5897V73.8462H6.38462H6.12821V74.1026V74.359H5.8718H5.61539V74.6154V74.8718H6.38462H7.15385V75.1282V75.3846H8.4359H9.71795V75.641V75.8974H11H12.2821V76.1538V76.4103H13.3077H14.3333V76.6667V76.9231H15.6154H16.8974V77.1795V77.4359H18.1795H19.4615V77.6923V77.9487H20.7436H22.0256V78.2051V78.4615H23.3077H24.5897V78.7179V78.9744H25.8718H27.1539V79.2308V79.4872H28.4359H29.718V79.7436V80H31H32.2821V80.2564V80.5128H33.5641H34.8462V80.7692V81.0256H36.1282H37.4103V81.2821V81.5385H38.6923H39.9744V81.7949V82.0513H41.2564H42.5385V82.3077V82.5641H43.8205H45.1026V82.8205V83.0769H46.3846H47.6667V83.3333V83.5897H48.6923H49.718V83.8462V84.1026H51H52.2821V84.359V84.6154H53.5641H54.8462V84.8718V85.1282H56.1282H57.4103V85.3846V85.641H58.6923H59.9744V85.8974V86.1538H61.2564H62.5385V86.4103V86.6667H63.8205H65.1026V86.9231V87.1795H66.3846H67.6667V87.4359V87.6923H68.9487H70.2308V87.9487V88.2051H70.4872H70.7436V87.9487V87.6923H71.5128H72.2821V87.4359V87.1795H72.5385H72.7949V86.9231V86.6667H73.0513H73.3077V86.4103V86.1538H73.5641H73.8205V85.8974V85.641H74.0769H74.3333V85.3846V85.1282H74.5898H74.8462V84.6154V84.1026H75.1026H75.359V83.8462V83.5897H75.6154H75.8718V83.3333V83.0769H76.1282H76.3846V82.5641V82.0513H76.641H76.8974V81.7949V81.5385H77.1539H77.4103V81.2821V81.0256H77.6667H77.9231V80.7692V80.5128H78.1795H78.4359V79.7436V78.9744H78.1795H77.9231V78.4615V77.9487H76.3846H74.8462V77.6923V77.4359H73.5641H72.2821V77.1795V76.9231H71H69.718V76.6667V76.4103H68.6923H67.6667V76.9231V77.4359H67.4103H67.1539V77.9487V78.4615H66.641H66.1282V78.7179V78.9744H65.8718H65.6154V79.2308V79.4872H65.359H65.1026V78.9744V78.4615H65.359H65.6154V78.2051V77.9487H65.8718H66.1282V76.9231V75.8974H65.6154H65.1026V75.641V75.3846H66.1282H67.1539V75.641V75.8974H67.4103H67.6667V75.641V75.3846H67.9231H68.1795V74.8718V74.359H68.4359H68.6923V73.5897V72.8205H68.4359H68.1795V72.5641V72.3077H66.641H65.1026V72.0513V71.7949H63.8205H62.5385V71.5385V71.2821H62.2821H62.0256V71.5385V71.7949H61.5128H61V72.0513V72.3077H60.7436H60.4872V72.5641V72.8205H60.2308H59.9744V73.5897V74.359H60.7436H61.5128V74.6154V74.8718H62.7949H64.0769V75.1282V75.3846H63.8205H63.5641V75.641V75.8974H63.3077H63.0513V75.641V75.3846H62.0256H61V75.1282V74.8718H59.718H58.4359V75.1282V75.3846H58.1795H57.9231V76.1538V76.9231H57.4103H56.8974V77.1795V77.4359H56.641H56.3846V77.6923V77.9487H56.1282H55.8718V78.7179V79.4872H56.3846H56.8974V80V80.5128H56.3846H55.8718V80.7692V81.0256H55.6154H55.359V81.5385V82.0513H54.8462H54.3333V81.7949V81.5385H53.3077H52.2821V81.2821V81.0256H52.5385H52.7949V80.7692V80.5128H53.0513H53.3077V80.2564V80H53.5641H53.8205V79.7436V79.4872H54.0769H54.3333V79.2308V78.9744H54.5898H54.8462V78.4615V77.9487H55.1026H55.359V77.6923V77.4359H55.6154H55.8718V77.1795V76.9231H56.1282H56.3846V76.6667V76.4103H56.641H56.8974V75.3846V74.359H56.641H56.3846V74.1026V73.8462H57.1539H57.9231V73.5897V73.3333H58.1795H58.4359V73.0769V72.8205H58.6923H58.9487V72.5641V72.3077H59.2051H59.4615V72.0513V71.7949H59.2051H58.9487V71.5385V71.2821H58.6923H58.4359V71.0256V70.7692H57.1539H55.8718V70.5128V70.2564H54.5898H53.3077V70V69.7436H51.5128H49.718V69.4872V69.2308H48.6923H47.6667V69.4872V69.7436H47.4103H47.1539V70.2564V70.7692H46.8974H46.641V71.2821V71.7949H47.1539H47.6667V72.0513V72.3077H46.3846H45.1026V72.0513V71.7949H43.8205H42.5385V71.5385V71.2821H44.0769H45.6154V71.0256V70.7692H45.8718H46.1282V69.7436V68.7179H45.6154H45.1026V68.4615V68.2051H43.5641H42.0256V67.9487V67.6923H41.5128H41V67.9487V68.2051H40.7436H40.4872V67.9487V67.6923H39.9744H39.4615V67.4359V67.1795H38.9487H38.4359V67.4359V67.6923H38.1795H37.9231V67.4359V67.1795H36.3846H34.8462V67.4359V67.6923H34.5897H34.3333V68.7179V69.7436H35.6154H36.8974V70V70.2564H35.359H33.8205V70V69.7436H33.3077H32.7949V70V70.2564H32.2821H31.7692V70V69.7436H31.2564H30.7436V69.4872V69.2308H32.0256H33.3077V68.7179V68.2051H33.5641H33.8205V67.4359V66.6667H33.5641H33.3077V66.4103V66.1538H31.7692H30.2308V65.8974V65.641H28.9487H27.6667V65.3846V65.1282H26.1282H24.5897V64.8718V64.6154H24.0769H23.5641V64.8718V65.1282H23.0513H22.5385V65.3846V65.641H22.2821H22.0256V65.1282V64.6154H21.7692H21.5128V64.359V64.1026H20.2308H18.9487V64.359ZM19.4615 64.8718V65.1282H19.2051H18.9487V65.3846V65.641H18.6923H18.4359V65.8974V66.1538H19.2051H19.9744V66.4103V66.6667H20.2308H20.4872V66.4103V66.1538H20.7436H21V65.8974V65.641H21.2564H21.5128V65.3846V65.1282H21.2564H21V65.3846V65.641H20.7436H20.4872V65.8974V66.1538H20.2308H19.9744V65.641V65.1282H20.2308H20.4872V64.8718V64.6154H19.9744H19.4615V64.8718ZM23.0513 65.8974V66.1538H22.7949H22.5385V66.6667V67.1795H23.5641H24.5897V66.6667V66.1538H24.8462H25.1026V65.8974V65.641H24.0769H23.0513V65.8974ZM26.1282 65.8974V66.1538H25.8718H25.6154V66.4103V66.6667H25.359H25.1026V66.9231V67.1795H25.359H25.6154V67.4359V67.6923H26.3846H27.1539V67.1795V66.6667H27.4103H27.6667V66.4103V66.1538H27.4103H27.1539V65.8974V65.641H26.641H26.1282V65.8974ZM52.7949 65.8974V66.1538H53.0513H53.3077V65.8974V65.641H53.0513H52.7949V65.8974ZM28.6923 66.4103V66.6667H28.4359H28.1795V66.9231V67.1795H27.9231H27.6667V67.4359V67.6923H27.9231H28.1795V67.9487V68.2051H28.9487H29.718V67.6923V67.1795H29.9744H30.2308V66.9231V66.6667H29.9744H29.718V66.4103V66.1538H29.2051H28.6923V66.4103ZM31.2564 66.9231V67.1795H31H30.7436V67.4359V67.6923H30.4872H30.2308V67.9487V68.2051H30.7436H31.2564V68.4615V68.7179H32.0256H32.7949V68.2051V67.6923H33.0513H33.3077V67.4359V67.1795H33.0513H32.7949V67.4359V67.6923H32.5385H32.2821V67.9487V68.2051H32.0256H31.7692V67.6923V67.1795H32.0256H32.2821V66.9231V66.6667H31.7692H31.2564V66.9231ZM75.359 67.6923V68.2051H75.6154H75.8718V67.6923V67.1795H75.6154H75.359V67.6923ZM15.359 67.9487V68.2051H15.1026H14.8462V68.4615V68.7179H15.1026H15.359V68.9744V69.2308H14.3333H13.3077V69.4872V69.7436H13.0513H12.7949V70V70.2564H13.5641H14.3333V70.5128V70.7692H15.359H16.3846V70.5128V70.2564H16.641H16.8974V70V69.7436H17.1539H17.4103V68.9744V68.2051H17.6667H17.9231V67.9487V67.6923H16.641H15.359V67.9487ZM35.359 67.9487V68.2051H35.1026H34.8462V68.7179V69.2308H35.8718H36.8974V68.7179V68.2051H37.1539H37.4103V67.9487V67.6923H36.3846H35.359V67.9487ZM76.3846 67.9487V68.2051H76.641H76.8974V67.9487V67.6923H76.641H76.3846V67.9487ZM86.641 67.9487V68.2051H86.8974H87.1539V67.9487V67.6923H86.8974H86.641V67.9487ZM18.4359 68.4615V68.7179H18.1795H17.9231V68.9744V69.2308H18.4359H18.9487V69.4872V69.7436H19.4615H19.9744V69.4872V69.2308H20.2308H20.4872V68.7179V68.2051H19.4615H18.4359V68.4615ZM37.9231 68.4615V68.7179H37.6667H37.4103V69.2308V69.7436H38.4359H39.4615V69.2308V68.7179H39.718H39.9744V68.4615V68.2051H38.9487H37.9231V68.4615ZM21 69.2308V69.7436H21.2564H21.5128V70V70.2564H21.2564H21V70.5128V70.7692H20.4872H19.9744V71.0256V71.2821H19.718H19.4615V71.5385V71.7949H20.7436H22.0256V71.5385V71.2821H22.2821H22.5385V71.0256V70.7692H22.0256H21.5128V70.5128V70.2564H22.0256H22.5385V70V69.7436H22.7949H23.0513V69.4872V69.2308H23.3077H23.5641V68.9744V68.7179H22.2821H21V69.2308ZM28.1795 68.9744V69.2308H29.4615H30.7436V68.9744V68.7179H29.4615H28.1795V68.9744ZM40.4872 68.9744V69.2308H40.2308H39.9744V69.7436V70.2564H41H42.0256V69.7436V69.2308H42.2821H42.5385V68.9744V68.7179H41.5128H40.4872V68.9744ZM43.5641 68.9744V69.2308H43.3077H43.0513V69.4872V69.7436H42.7949H42.5385V70V70.2564H42.7949H43.0513V70.5128V70.7692H44.0769H45.1026V70.5128V70.2564H45.359H45.6154V70V69.7436H45.359H45.1026V70V70.2564H44.5898H44.0769V70V69.7436H44.3333H44.5898V69.2308V68.7179H44.0769H43.5641V68.9744ZM76.3846 68.9744V69.2308H76.641H76.8974V68.9744V68.7179H76.641H76.3846V68.9744ZM85.1026 68.9744V69.2308H85.359H85.6154V68.9744V68.7179H85.359H85.1026V68.9744ZM15.359 69.4872V69.7436H16.1282H16.8974V69.4872V69.2308H16.1282H15.359V69.4872ZM24.0769 69.4872V69.7436H23.8205H23.5641V70V70.2564H23.3077H23.0513V70.5128V70.7692H23.3077H23.5641V70.5128V70.2564H24.0769H24.5897V70.5128V70.7692H25.1026H25.6154V70.2564V69.7436H25.8718H26.1282V69.4872V69.2308H25.1026H24.0769V69.4872ZM27.1539 69.4872V69.7436H26.8974H26.641V70V70.2564H26.3846H26.1282V70.5128V70.7692H26.641H27.1539V71.0256V71.2821H26.641H26.1282V71.5385V71.7949H25.8718H25.6154V72.3077V72.8205H26.641H27.6667V72.5641V72.3077H27.9231H28.1795V72.0513V71.7949H27.6667H27.1539V71.5385V71.2821H27.6667H28.1795V70.7692V70.2564H28.4359H28.6923V70V69.7436H28.1795H27.6667V69.4872V69.2308H27.4103H27.1539V69.4872ZM29.718 70V70.2564H29.4615H29.2051V70.5128V70.7692H28.9487H28.6923V71.0256V71.2821H29.4615H30.2308V71.5385V71.7949H29.718H29.2051V72.0513V72.3077H28.9487H28.6923V72.8205V73.3333H29.4615H30.2308V73.0769V72.8205H30.4872H30.7436V72.5641V72.3077H30.4872H30.2308V72.0513V71.7949H30.7436H31.2564V71.2821V70.7692H31.5128H31.7692V70.5128V70.2564H31H30.2308V70V69.7436H29.9744H29.718V70ZM48.1795 70V70.2564H47.9231H47.6667V70.7692V71.2821H47.9231H48.1795V71.5385V71.7949H48.6923H49.2051V71.5385V71.2821H49.4615H49.718V70.5128V69.7436H48.9487H48.1795V70ZM80.4872 70V70.2564H81.2564H82.0257V70V69.7436H81.2564H80.4872V70ZM17.4103 70.5128V70.7692H17.1539H16.8974V71.0256V71.2821H17.9231H18.9487V71.0256V70.7692H19.2051H19.4615V70.5128V70.2564H18.4359H17.4103V70.5128ZM37.4103 70.7692V71.2821H37.1539H36.8974V71.0256V70.7692H36.1282H35.359V71.0256V71.2821H35.1026H34.8462V71.7949V72.3077H35.359H35.8718V72.5641V72.8205H35.1026H34.3333V73.0769V73.3333H34.0769H33.8205V73.5897V73.8462H34.0769H34.3333V74.1026V74.359H33.3077H32.2821V74.6154V74.8718H31.7692H31.2564V75.1282V75.3846H32.0256H32.7949V75.641V75.8974H33.0513H33.3077V75.641V75.3846H33.5641H33.8205V75.1282V74.8718H34.0769H34.3333V74.6154V74.359H34.8462H35.359V74.1026V73.8462H35.6154H35.8718V73.3333V72.8205H36.3846H36.8974V72.3077V71.7949H37.1539H37.4103V71.5385V71.2821H37.6667H37.9231V71.0256V70.7692H38.6923H39.4615V70.5128V70.2564H38.4359H37.4103V70.7692ZM50.7436 70.5128V70.7692H50.4872H50.2308V71.5385V72.3077H49.4615H48.6923V72.5641V72.8205H47.4103H46.1282V73.0769V73.3333H45.8718H45.6154V73.8462V74.359H46.641H47.6667V74.1026V73.8462H47.9231H48.1795V73.5897V73.3333H48.4359H48.6923V73.0769V72.8205H49.4615H50.2308V72.5641V72.3077H51.2564H52.2821V71.7949V71.2821H52.5385H52.7949V71.0256V70.7692H53.0513H53.3077V70.5128V70.2564H52.0256H50.7436V70.5128ZM11.2564 71.0256V71.2821H11H10.7436V71.5385V71.7949H11.2564H11.7692V72.0513V72.3077H10.4872H9.20513V72.8205V73.3333H8.17949H7.15385V73.5897V73.8462H6.89744H6.64103V74.1026V74.359H6.89744H7.15385V74.6154V74.8718H8.17949H9.20513V74.6154V74.359H9.46154H9.71795V74.1026V73.8462H9.46154H9.20513V73.5897V73.3333H10.7436H12.2821V73.5897V73.8462H11.7692H11.2564V74.1026V74.359H10.7436H10.2308V74.8718V75.3846H11.2564H12.2821V75.1282V74.8718H12.5385H12.7949V74.6154V74.359H12.5385H12.2821V74.1026V73.8462H13.5641H14.8462V73.5897V73.3333H15.1026H15.359V73.0769V72.8205H13.5641H11.7692V72.5641V72.3077H13.8205H15.8718V72.0513V71.7949H16.1282H16.3846V71.5385V71.2821H15.1026H13.8205V71.0256V70.7692H12.5385H11.2564V71.0256ZM32.2821 71.0256V71.2821H32.0256H31.7692V71.5385V71.7949H32.2821H32.7949V72.0513V72.3077H32.2821H31.7692V72.5641V72.8205H31.5128H31.2564V73.3333V73.8462H32.0256H32.7949V73.5897V73.3333H33.0513H33.3077V73.0769V72.8205H33.0513H32.7949V72.5641V72.3077H33.3077H33.8205V72.0513V71.7949H34.0769H34.3333V71.2821V70.7692H33.3077H32.2821V71.0256ZM39.9744 71.0256V71.2821H41.2564H42.5385V71.0256V70.7692H41.2564H39.9744V71.0256ZM53.8205 71.0256V71.2821H53.5641H53.3077V71.5385V71.7949H53.0513H52.7949V72.3077V72.8205H52.0256H51.2564V73.0769V73.3333H52.0256H52.7949V73.0769V72.8205H53.8205H54.8462V72.3077V71.7949H55.1026H55.359V71.5385V71.2821H55.6154H55.8718V71.0256V70.7692H54.8462H53.8205V71.0256ZM23.0513 71.5385V71.7949H22.7949H22.5385V72.0513V72.3077H23.5641H24.5897V72.0513V71.7949H24.8462H25.1026V71.5385V71.2821H24.0769H23.0513V71.5385ZM38.4359 71.5385V71.7949H38.1795H37.9231V72.0513V72.3077H37.6667H37.4103V72.5641V72.8205H37.9231H38.4359V73.0769V73.3333H37.6667H36.8974V73.5897V73.8462H36.641H36.3846V74.1026V74.359H36.641H36.8974V74.6154V74.8718H35.8718H34.8462V75.1282V75.3846H34.5897H34.3333V75.641V75.8974H35.1026H35.8718V75.641V75.3846H36.3846H36.8974V75.1282V74.8718H37.6667H38.4359V74.1026V73.3333H38.9487H39.4615V72.8205V72.3077H39.718H39.9744V72.0513V71.7949H39.718H39.4615V71.5385V71.2821H38.9487H38.4359V71.5385ZM56.3846 71.5385V71.7949H56.1282H55.8718V72.0513V72.3077H55.6154H55.359V72.5641V72.8205H55.6154H55.8718V73.0769V73.3333H55.1026H54.3333V73.5897V73.8462H55.1026H55.8718V73.5897V73.3333H56.1282H56.3846V73.0769V72.8205H56.641H56.8974V73.0769V73.3333H57.4103H57.9231V73.0769V72.8205H58.1795H58.4359V72.3077V71.7949H58.1795H57.9231V72.0513V72.3077H57.6667H57.4103V71.7949V71.2821H56.8974H56.3846V71.5385ZM16.8974 72.0513V72.3077H16.641H16.3846V72.5641V72.8205H17.1539H17.9231V73.0769V73.3333H16.8974H15.8718V73.5897V73.8462H15.6154H15.359V74.1026V74.359H16.1282H16.8974V74.6154V74.8718H17.4103H17.9231V74.1026V73.3333H18.4359H18.9487V72.5641V71.7949H17.9231H16.8974V72.0513ZM41 72.0513V72.3077H40.7436H40.4872V72.5641V72.8205H40.2308H39.9744V73.0769V73.3333H41H42.0256V73.0769V72.8205H42.2821H42.5385V72.5641V72.3077H42.2821H42.0256V72.0513V71.7949H41.5128H41V72.0513ZM20.4872 72.5641V72.8205H19.9744H19.4615V73.0769V73.3333H20.7436H22.0256V72.8205V72.3077H21.2564H20.4872V72.5641ZM43.5641 72.5641V72.8205H43.3077H43.0513V73.0769V73.3333H42.7949H42.5385V73.5897V73.8462H43.8205H45.1026V73.0769V72.3077H44.3333H43.5641V72.5641ZM56.8974 72.5641V72.8205H57.1539H57.4103V72.5641V72.3077H57.1539H56.8974V72.5641ZM61.5128 72.5641V72.8205H61.2564H61V73.0769V73.3333H60.7436H60.4872V73.5897V73.8462H61.2564H62.0256V74.1026V74.359H62.2821H62.5385V73.5897V72.8205H62.7949H63.0513V72.5641V72.3077H62.2821H61.5128V72.5641ZM64.0769 72.5641V72.8205H63.8205H63.5641V73.0769V73.3333H63.3077H63.0513V73.8462V74.359H63.8205H64.5898V74.6154V74.8718H66.1282H67.6667V74.6154V74.359H67.1539H66.641V74.1026V73.8462H66.8974H67.1539V73.3333V72.8205H66.641H66.1282V73.0769V73.3333H65.8718H65.6154V73.5897V73.8462H65.359H65.1026V74.1026V74.359H64.8462H64.5898V73.8462V73.3333H64.8462H65.1026V73.0769V72.8205H64.8462H64.5898V72.5641V72.3077H64.3333H64.0769V72.5641ZM4.07693 73.0769V73.3333H4.33334H4.58975V73.0769V72.8205H4.33334H4.07693V73.0769ZM23.0513 73.0769V73.3333H22.7949H22.5385V73.5897V73.8462H23.0513H23.5641V74.1026V74.359H23.0513H22.5385V74.6154V74.8718H22.0256H21.5128V75.1282V75.3846H22.0256H22.5385V75.641V75.8974H21.2564H19.9744V75.641V75.3846H20.4872H21V74.8718V74.359H21.2564H21.5128V74.1026V73.8462H20.4872H19.4615V74.1026V74.359H18.9487H18.4359V74.6154V74.8718H19.2051H19.9744V75.1282V75.3846H18.1795H16.3846V75.641V75.8974H16.1282H15.8718V76.1538V76.4103H16.3846H16.8974V76.6667V76.9231H18.1795H19.4615V77.1795V77.4359H20.7436H22.0256V77.6923V77.9487H23.3077H24.5897V78.2051V78.4615H25.8718H27.1539V78.7179V78.9744H28.4359H29.718V79.2308V79.4872H31H32.2821V79.7436V80H33.5641H34.8462V80.2564V80.5128H36.1282H37.4103V80.7692V81.0256H38.9487H40.4872V80.7692V80.5128H40.7436H41V80.2564V80H41.2564H41.5128V79.7436V79.4872H42.5385H43.5641V79.2308V78.9744H43.8205H44.0769V78.7179V78.4615H43.5641H43.0513V78.2051V77.9487H42.7949H42.5385V78.2051V78.4615H42.0256H41.5128V78.2051V77.9487H40.2308H38.9487V77.6923V77.4359H39.9744H41V77.1795V76.9231H41.2564H41.5128V77.1795V77.4359H42.7949H44.0769V77.1795V76.9231H44.3333H44.5898V76.6667V76.4103H45.8718H47.1539V75.8974V75.3846H47.6667H48.1795V75.1282V74.8718H49.4615H50.7436V74.1026V73.3333H49.9744H49.2051V73.5897V73.8462H48.9487H48.6923V74.1026V74.359H48.4359H48.1795V74.6154V74.8718H46.641H45.1026V75.1282V75.3846H44.8462H44.5898V75.8974V76.4103H43.3077H42.0256V76.1538V75.8974H43.0513H44.0769V75.1282V74.359H43.3077H42.5385V74.6154V74.8718H42.2821H42.0256V75.3846V75.8974H41H39.9744V76.1538V76.4103H39.4615H38.9487V76.9231V77.4359H38.4359H37.9231V77.1795V76.9231H37.1539H36.3846V76.6667V76.4103H37.4103H38.4359V76.1538V75.8974H38.9487H39.4615V75.641V75.3846H40.2308H41V75.1282V74.8718H41.2564H41.5128V74.359V73.8462H40.7436H39.9744V74.1026V74.359H39.4615H38.9487V74.6154V74.8718H39.2051H39.4615V75.1282V75.3846H38.4359H37.4103V75.641V75.8974H36.8974H36.3846V76.1538V76.4103H35.1026H33.8205V76.6667V76.9231H33.5641H33.3077V77.4359V77.9487H32.0256H30.7436V77.6923V77.4359H31.5128H32.2821V77.1795V76.9231H32.5385H32.7949V76.6667V76.4103H32.5385H32.2821V76.1538V75.8974H31.7692H31.2564V76.1538V76.4103H30.7436H30.2308V76.6667V76.9231H30.4872H30.7436V77.1795V77.4359H29.2051H27.6667V77.1795V76.9231H28.6923H29.718V76.1538V75.3846H30.2308H30.7436V74.6154V73.8462H29.9744H29.2051V74.1026V74.359H28.6923H28.1795V74.6154V74.8718H28.9487H29.718V75.1282V75.3846H29.2051H28.6923V75.641V75.8974H28.1795H27.6667V76.4103V76.9231H26.3846H25.1026V76.6667V76.4103H25.8718H26.641V76.1538V75.8974H26.8974H27.1539V75.3846V74.8718H26.3846H25.6154V75.1282V75.3846H25.1026H24.5897V75.641V75.8974H24.8462H25.1026V76.1538V76.4103H23.8205H22.5385V76.1538V75.8974H23.3077H24.0769V75.3846V74.8718H23.8205H23.5641V74.6154V74.359H24.0769H24.5897V74.1026V73.8462H24.8462H25.1026V73.3333V72.8205H24.0769H23.0513V73.0769ZM26.1282 73.5897V73.8462H25.8718H25.6154V74.1026V74.359H26.641H27.6667V74.1026V73.8462H27.9231H28.1795V73.5897V73.3333H27.1539H26.1282V73.5897ZM67.6667 73.5897V73.8462H67.9231H68.1795V73.5897V73.3333H67.9231H67.6667V73.5897ZM51.7692 74.1026V74.359H51.5128H51.2564V74.8718V75.3846H52.2821H53.3077V75.641V75.8974H52.2821H51.2564V76.1538V76.4103H51H50.7436V76.9231V77.4359H49.2051H47.6667V77.6923V77.9487H47.4103H47.1539V78.2051V78.4615H47.9231H48.6923V78.7179V78.9744H47.4103H46.1282V78.7179V78.4615H45.6154H45.1026V78.7179V78.9744H44.8462H44.5898V79.4872V80H45.6154H46.641V80.2564V80.5128H45.6154H44.5898V80.7692V81.0256H44.3333H44.0769V81.2821V81.5385H43.8205H43.5641V81.7949V82.0513H44.3333H45.1026V82.3077V82.5641H45.6154H46.1282V81.7949V81.0256H46.3846H46.641V80.7692V80.5128H48.4359H50.2308V80.2564V80H50.4872H50.7436V79.7436V79.4872H49.718H48.6923V79.2308V78.9744H50.2308H51.7692V78.7179V78.4615H52.0256H52.2821V78.2051V77.9487H51.5128H50.7436V77.6923V77.4359H52.0256H53.3077V77.6923V77.9487H53.5641H53.8205V78.2051V78.4615H54.0769H54.3333V77.9487V77.4359H54.5898H54.8462V77.1795V76.9231H54.5898H54.3333V77.1795V77.4359H53.8205H53.3077V77.1795V76.9231H53.5641H53.8205V76.6667V76.4103H53.5641H53.3077V76.1538V75.8974H54.0769H54.8462V75.3846V74.8718H55.1026H55.359V74.6154V74.359H54.5898H53.8205V74.1026V73.8462H52.7949H51.7692V74.1026ZM13.8205 74.6154V74.8718H13.5641H13.3077V75.1282V75.3846H13.0513H12.7949V75.641V75.8974H13.5641H14.3333V76.1538V76.4103H14.8462H15.359V75.8974V75.3846H15.6154H15.8718V75.1282V74.8718H15.359H14.8462V74.6154V74.359H14.3333H13.8205V74.6154ZM77.4103 74.6154V74.8718H77.1539H76.8974V75.1282V75.3846H76.641H76.3846V76.4103V77.4359H77.6667H78.9487V77.6923V77.9487H79.2051H79.4615V77.4359V76.9231H79.718H79.9744V76.4103V75.8974H80.2308H80.4872V75.641V75.3846H80.2308H79.9744V74.8718V74.359H78.6923H77.4103V74.6154ZM55.8718 75.1282V75.3846H55.6154H55.359V75.8974V76.4103H55.6154H55.8718V76.1538V75.8974H56.1282H56.3846V75.3846V74.8718H56.1282H55.8718V75.1282ZM77.9231 75.1282V75.3846H77.6667H77.4103V75.641V75.8974H77.1539H76.8974V76.4103V76.9231H77.6667H78.4359V76.4103V75.8974H78.6923H78.9487V75.3846V74.8718H78.4359H77.9231V75.1282ZM2.53846 75.641V75.8974H3.82052H5.10257V76.1538V76.4103H6.38462H7.66667V76.6667V76.9231H8.94872H10.2308V77.1795V77.4359H11.5128H12.7949V77.6923V77.9487H13.8205H14.8462V78.2051V78.4615H16.1282H17.4103V78.7179V78.9744H18.6923H19.9744V79.2308V79.4872H21.2564H22.5385V79.7436V80H23.8205H25.1026V80.2564V80.5128H26.1282H27.1539V80.7692V81.0256H28.4359H29.718V81.2821V81.5385H31H32.2821V81.7949V82.0513H33.5641H34.8462V82.3077V82.5641H36.1282H37.4103V82.8205V83.0769H38.6923H39.9744V83.3333V83.5897H41H42.0256V83.8462V84.1026H43.3077H44.5898V84.359V84.6154H45.8718H47.1539V84.8718V85.1282H48.4359H49.718V85.3846V85.641H51H52.2821V85.8974V86.1538H53.5641H54.8462V86.4103V86.6667H55.8718H56.8974V86.9231V87.1795H58.1795H59.4615V87.4359V87.6923H60.7436H62.0256V87.9487V88.2051H63.3077H64.5898V88.4615V88.7179H65.8718H67.1539V88.9744V89.2308H68.4359H69.718V89.4872V89.7436H70.7436H71.7692V89.4872V89.2308H70.7436H69.718V88.9744V88.7179H68.4359H67.1539V88.4615V88.2051H65.8718H64.5898V87.9487V87.6923H63.3077H62.0256V87.4359V87.1795H60.7436H59.4615V86.9231V86.6667H58.1795H56.8974V86.4103V86.1538H55.8718H54.8462V85.8974V85.641H53.5641H52.2821V85.3846V85.1282H51H49.718V84.8718V84.6154H48.4359H47.1539V84.359V84.1026H45.8718H44.5898V83.8462V83.5897H43.3077H42.0256V83.3333V83.0769H41H39.9744V82.8205V82.5641H38.6923H37.4103V82.3077V82.0513H36.1282H34.8462V81.7949V81.5385H33.5641H32.2821V81.2821V81.0256H31H29.718V80.7692V80.5128H28.4359H27.1539V80.2564V80H26.3846H25.6154V79.7436V79.4872H24.0769H22.5385V79.2308V78.9744H21.2564H19.9744V78.7179V78.4615H18.6923H17.4103V78.2051V77.9487H16.1282H14.8462V77.6923V77.4359H13.8205H12.7949V77.1795V76.9231H11.5128H10.2308V76.6667V76.4103H8.94872H7.66667V76.1538V75.8974H6.38462H5.10257V75.641V75.3846H3.82052H2.53846V75.641ZM48.6923 75.641V75.8974H48.1795H47.6667V76.1538V76.4103H47.9231H48.1795V76.6667V76.9231H49.2051H50.2308V76.4103V75.8974H50.4872H50.7436V75.641V75.3846H49.718H48.6923V75.641ZM58.9487 75.641V75.8974H58.6923H58.4359V76.4103V76.9231H58.9487H59.4615V77.1795V77.4359H59.718H59.9744V76.6667V75.8974H60.2308H60.4872V75.641V75.3846H59.718H58.9487V75.641ZM101.513 75.641V75.8974H102.538H103.564V75.641V75.3846H102.538H101.513V75.641ZM112.795 75.641V75.8974H113.564H114.333V75.641V75.3846H113.564H112.795V75.641ZM61 76.1538V76.4103H60.7436H60.4872V76.9231V77.4359H61H61.5128V77.6923V77.9487H60.4872H59.4615V78.2051V78.4615H59.2051H58.9487V78.9744V79.4872H59.4615H59.9744V79.7436V80H58.6923H57.4103V80.2564V80.5128H58.1795H58.9487V80.7692V81.0256H59.2051H59.4615V81.5385V82.0513H59.2051H58.9487V81.7949V81.5385H58.6923H58.4359V81.7949V82.0513H57.9231H57.4103V81.7949V81.5385H57.6667H57.9231V81.2821V81.0256H57.1539H56.3846V81.2821V81.5385H56.1282H55.8718V81.7949V82.0513H56.641H57.4103V82.3077V82.5641H58.6923H59.9744V82.8205V83.0769H60.4872H61V82.8205V82.5641H61.2564H61.5128V82.3077V82.0513H61.7692H62.0256V81.7949V81.5385H62.2821H62.5385V81.0256V80.5128H61.2564H59.9744V80.2564V80H60.4872H61V79.2308V78.4615H61.2564H61.5128V78.2051V77.9487H62.0256H62.5385V77.1795V76.4103H62.7949H63.0513V76.1538V75.8974H62.0256H61V76.1538ZM64.0769 76.1538V76.4103H63.8205H63.5641V76.6667V76.9231H63.3077H63.0513V77.1795V77.4359H63.3077H63.5641V77.6923V77.9487H64.0769H64.5898V76.9231V75.8974H64.3333H64.0769V76.1538ZM99.9744 76.1538V76.4103H100.487H101V76.1538V75.8974H100.487H99.9744V76.1538ZM104.077 76.1538V76.4103H108.179H112.282V76.1538V75.8974H108.179H104.077V76.1538ZM116.385 76.1538V76.4103H116.897H117.41V76.1538V75.8974H116.897H116.385V76.1538ZM2.02564 76.6667V76.9231H3.3077H4.58975V77.1795V77.4359H5.8718H7.15385V77.6923V77.9487H8.17949H9.20513V78.2051V78.4615H10.4872H11.7692V78.7179V78.9744H13.0513H14.3333V79.2308V79.4872H15.6154H16.8974V79.7436V80H18.1795H19.4615V80.2564V80.5128H20.4872H21.5128V80.7692V81.0256H22.7949H24.0769V81.2821V81.5385H25.359H26.641V81.7949V82.0513H27.9231H29.2051V82.3077V82.5641H30.2308H31.2564V82.8205V83.0769H32.5385H33.8205V83.3333V83.5897H35.1026H36.3846V83.8462V84.1026H37.6667H38.9487V84.359V84.6154H40.2308H41.5128V84.8718V85.1282H42.5385H43.5641V85.3846V85.641H44.8462H46.1282V85.8974V86.1538H47.4103H48.6923V86.4103V86.6667H49.9744H51.2564V86.9231V87.1795H52.5385H53.8205V87.4359V87.6923H54.8462H55.8718V87.9487V88.2051H57.1539H58.4359V88.4615V88.7179H59.718H61V88.9744V89.2308H62.2821H63.5641V89.4872V89.7436H64.5898H65.6154V90V90.2564H66.8974H68.1795V90.5128V90.7692H69.4615H70.7436V90.5128V90.2564H69.4615H68.1795V90V89.7436H66.8974H65.6154V89.4872V89.2308H64.5898H63.5641V88.9744V88.7179H62.2821H61V88.4615V88.2051H59.718H58.4359V87.9487V87.6923H57.1539H55.8718V87.4359V87.1795H54.8462H53.8205V86.9231V86.6667H52.5385H51.2564V86.4103V86.1538H49.9744H48.6923V85.8974V85.641H47.4103H46.1282V85.3846V85.1282H44.8462H43.5641V84.8718V84.6154H42.5385H41.5128V84.359V84.1026H40.2308H38.9487V83.8462V83.5897H37.6667H36.3846V83.3333V83.0769H35.1026H33.8205V82.8205V82.5641H32.5385H31.2564V82.3077V82.0513H30.2308H29.2051V81.7949V81.5385H27.9231H26.641V81.2821V81.0256H25.359H24.0769V80.7692V80.5128H22.7949H21.5128V80.2564V80H20.4872H19.4615V79.7436V79.4872H18.1795H16.8974V79.2308V78.9744H15.6154H14.3333V78.7179V78.4615H13.0513H11.7692V78.2051V77.9487H10.4872H9.20513V77.6923V77.4359H8.17949H7.15385V77.1795V76.9231H5.8718H4.58975V76.6667V76.4103H3.3077H2.02564V76.6667ZM41.5128 76.6667V76.9231H41.7692H42.0256V76.6667V76.4103H41.7692H41.5128V76.6667ZM84.0769 76.6667V76.9231H84.3333H84.5898V76.6667V76.4103H84.3333H84.0769V76.6667ZM98.9487 76.9231V77.4359H99.2051H99.4616V76.9231V76.4103H99.2051H98.9487V76.9231ZM101.513 76.6667V76.9231H101.769H102.026V76.6667V76.4103H101.769H101.513V76.6667ZM113.821 76.6667V76.9231H114.846H115.872V76.6667V76.4103H114.846H113.821V76.6667ZM117.923 76.6667V76.9231H118.18H118.436V76.6667V76.4103H118.18H117.923V76.6667ZM35.8718 77.1795V77.4359H35.6154H35.359V77.6923V77.9487H34.3333H33.3077V78.2051V78.4615H34.5897H35.8718V78.7179V78.9744H37.1539H38.4359V79.2308V79.4872H39.9744H41.5128V78.9744V78.4615H41.2564H41V78.7179V78.9744H39.718H38.4359V78.7179V78.4615H38.6923H38.9487V78.2051V77.9487H38.6923H38.4359V78.2051V78.4615H37.1539H35.8718V77.9487V77.4359H36.1282H36.3846V77.1795V76.9231H36.1282H35.8718V77.1795ZM45.1026 77.1795V77.4359H44.8462H44.5898V77.6923V77.9487H45.6154H46.641V77.6923V77.4359H46.8974H47.1539V77.1795V76.9231H46.1282H45.1026V77.1795ZM65.1026 77.1795V77.4359H65.359H65.6154V77.1795V76.9231H65.359H65.1026V77.1795ZM68.1795 77.4359V77.9487H67.9231H67.6667V78.2051V78.4615H67.9231H68.1795V78.7179V78.9744H68.6923H69.2051V78.4615V77.9487H69.4615H69.718V77.6923V77.4359H69.4615H69.2051V77.1795V76.9231H68.6923H68.1795V77.4359ZM99.9744 77.1795V77.4359H100.487H101V77.1795V76.9231H100.487H99.9744V77.1795ZM116.897 77.1795V77.4359H117.154H117.41V77.1795V76.9231H117.154H116.897V77.1795ZM118.949 77.1795V77.4359H119.205H119.462V77.1795V76.9231H119.205H118.949V77.1795ZM57.4103 77.6923V77.9487H57.1539H56.8974V78.2051V78.4615H56.641H56.3846V78.7179V78.9744H56.8974H57.4103V79.2308V79.4872H57.9231H58.4359V78.7179V77.9487H58.6923H58.9487V77.6923V77.4359H58.1795H57.4103V77.6923ZM70.7436 77.6923V77.9487H70.4872H70.2308V78.2051V78.4615H69.9744H69.718V78.7179V78.9744H70.4872H71.2564V79.2308V79.4872H71.5128H71.7692V78.9744V78.4615H72.0257H72.2821V78.2051V77.9487H72.0257H71.7692V77.6923V77.4359H71.2564H70.7436V77.6923ZM117.923 77.6923V77.9487H118.18H118.436V78.2051V78.4615H118.692H118.949V79.2308V80H119.205H119.462V79.2308V78.4615H119.205H118.949V78.2051V77.9487H118.692H118.436V77.6923V77.4359H118.18H117.923V77.6923ZM73.3077 78.2051V78.4615H73.0513H72.7949V78.7179V78.9744H72.5385H72.2821V79.2308V79.4872H73.0513H73.8205V79.7436V80H74.0769H74.3333V79.4872V78.9744H74.5898H74.8462V78.4615V77.9487H74.0769H73.3077V78.2051ZM83.0513 78.2051V78.4615H83.3077H83.5641V78.2051V77.9487H83.3077H83.0513V78.2051ZM98.9487 78.2051V78.4615H99.2051H99.4616V78.2051V77.9487H99.2051H98.9487V78.2051ZM99.9744 78.2051V78.4615H100.231H100.487V78.7179V78.9744H100.744H101V79.2308V79.4872H101.256H101.513V79.2308V78.9744H101.256H101V78.7179V78.4615H100.744H100.487V78.2051V77.9487H100.231H99.9744V78.2051ZM52.7949 78.7179V78.9744H52.5385H52.2821V79.4872V80H52.5385H52.7949V79.7436V79.4872H53.0513H53.3077V78.9744V78.4615H53.0513H52.7949V78.7179ZM62.0256 78.7179V78.9744H61.7692H61.5128V79.4872V80H62.5385H63.5641V79.7436V79.4872H63.3077H63.0513V79.2308V78.9744H63.3077H63.5641V78.7179V78.4615H62.7949H62.0256V78.7179ZM75.359 78.9744V79.4872H75.1026H74.8462V79.7436V80H75.6154H76.3846V80.2564V80.5128H76.8974H77.4103V80.2564V80H77.6667H77.9231V79.7436V79.4872H77.4103H76.8974V79.7436V80H76.641H76.3846V79.4872V78.9744H76.641H76.8974V78.7179V78.4615H76.1282H75.359V78.9744ZM66.641 79.2308V79.4872H66.3846H66.1282V79.7436V80H65.8718H65.6154V80.2564V80.5128H66.3846H67.1539V80.7692V81.0256H66.1282H65.1026V81.2821V81.5385H64.8462H64.5898V81.7949V82.0513H65.359H66.1282V82.3077V82.5641H66.3846H66.641V82.0513V81.5385H66.8974H67.1539V81.2821V81.0256H67.4103H67.6667V80.7692V80.5128H67.9231H68.1795V80V79.4872H67.9231H67.6667V79.2308V78.9744H67.1539H66.641V79.2308ZM99.4616 79.2308V79.4872H99.718H99.9744V79.7436V80H100.231H100.487V80.2564V80.5128H100.744H101V80.7692V81.0256H101.256H101.513V81.2821V81.5385H101.769H102.026V81.2821V81.0256H101.769H101.513V80.7692V80.5128H101.256H101V80.2564V80H100.744H100.487V79.7436V79.4872H100.231H99.9744V79.2308V78.9744H99.718H99.4616V79.2308ZM64.5898 79.7436V80H64.3333H64.0769V80.2564V80.5128H63.8205H63.5641V81.0256V81.5385H63.3077H63.0513V81.7949V82.0513H62.7949H62.5385V82.3077V82.5641H62.2821H62.0256V82.8205V83.0769H61.7692H61.5128V83.3333V83.5897H62.0256H62.5385V83.0769V82.5641H62.7949H63.0513V82.3077V82.0513H63.5641H64.0769V81.5385V81.0256H64.3333H64.5898V80.7692V80.5128H64.8462H65.1026V80V79.4872H64.8462H64.5898V79.7436ZM69.2051 79.7436V80H68.9487H68.6923V80.5128V81.0256H69.2051H69.718V81.2821V81.5385H69.9744H70.2308V81.2821V81.0256H70.4872H70.7436V80.2564V79.4872H69.9744H69.2051V79.7436ZM82.0257 79.7436V80H82.2821H82.5385V79.7436V79.4872H82.2821H82.0257V79.7436ZM42.0256 80.2564V80.5128H41.7692H41.5128V80.7692V81.0256H41.2564H41V81.2821V81.5385H42.0256H43.0513V81.2821V81.0256H43.3077H43.5641V80.7692V80.5128H43.8205H44.0769V80.2564V80H43.0513H42.0256V80.2564ZM51.2564 80.2564V80.5128H51H50.7436V81.0256V81.5385H51H51.2564V81.2821V81.0256H51.5128H51.7692V80.5128V80H51.5128H51.2564V80.2564ZM71.7692 80.2564V80.5128H71.5128H71.2564V80.7692V81.0256H71.5128H71.7692V81.2821V81.5385H72.0257H72.2821V81.7949V82.0513H72.5385H72.7949V81.7949V81.5385H73.0513H73.3077V80.7692V80H72.5385H71.7692V80.2564ZM74.3333 80.7692V81.0256H74.0769H73.8205V81.2821V81.5385H74.3333H74.8462V81.7949V82.0513H75.1026H75.359V82.3077V82.5641H75.6154H75.8718V82.3077V82.0513H75.6154H75.359V81.5385V81.0256H75.6154H75.8718V80.7692V80.5128H75.1026H74.3333V80.7692ZM118.436 80.7692V81.0256H118.18H117.923V81.2821V81.5385H118.18H118.436V81.2821V81.0256H118.692H118.949V80.7692V80.5128H118.692H118.436V80.7692ZM119.462 80.7692C119.462 81.0199 119.465 81.0256 119.615 81.0256C119.766 81.0256 119.769 81.0199 119.769 80.7692C119.769 80.5185 119.766 80.5128 119.615 80.5128C119.465 80.5128 119.462 80.5185 119.462 80.7692ZM47.1539 81.2821V81.5385H46.8974H46.641V82.0513V82.5641H47.1539H47.6667V82.8205V83.0769H47.9231H48.1795V82.8205V82.5641H48.4359H48.6923V82.8205V83.0769H48.9487H49.2051V82.8205V82.5641H49.4615H49.718V82.3077V82.0513H49.9744H50.2308V81.7949V81.5385H49.9744H49.718V81.7949V82.0513H49.4615H49.2051V82.3077V82.5641H48.9487H48.6923V82.0513V81.5385H48.9487H49.2051V81.2821V81.0256H48.1795H47.1539V81.2821ZM81 81.2821V81.5385H81.2564H81.5128V81.2821V81.0256H81.2564H81V81.2821ZM102.538 81.2821V81.5385H102.795H103.051V81.2821V81.0256H102.795H102.538V81.2821ZM67.6667 82.0513V82.5641H68.4359H69.2051V82.0513V81.5385H68.4359H67.6667V82.0513ZM70.7436 81.7949V82.0513H70.2308H69.718V82.3077V82.5641H69.9744H70.2308V82.8205V83.0769H71H71.7692V82.5641V82.0513H71.5128H71.2564V81.7949V81.5385H71H70.7436V81.7949ZM83.0513 81.7949V82.0513H83.3077H83.5641V81.7949V81.5385H83.3077H83.0513V81.7949ZM84.5898 81.7949V82.0513H84.8462H85.1026V81.7949V81.5385H84.8462H84.5898V81.7949ZM87.1539 81.7949V82.0513H87.4103H87.6667V81.7949V81.5385H87.4103H87.1539V81.7949ZM118.949 81.7949V82.0513H118.692H118.436V82.3077V82.5641H118.692H118.949V82.3077V82.0513H119.205H119.462V81.7949V81.5385H119.205H118.949V81.7949ZM52.2821 82.3077V82.5641H52.0256H51.7692V83.0769V83.5897H52.0256H52.2821V83.8462V84.1026H53.5641H54.8462V84.359V84.6154H56.3846H57.9231V84.8718V85.1282H58.4359H58.9487V84.8718V84.6154H59.2051H59.4615V84.359V84.1026H59.718H59.9744V83.8462V83.5897H59.718H59.4615V83.8462V84.1026H58.9487H58.4359V83.8462V83.5897H58.6923H58.9487V83.3333V83.0769H57.9231H56.8974V83.5897V84.1026H56.3846H55.8718V83.8462V83.5897H56.1282H56.3846V83.0769V82.5641H55.6154H54.8462V82.8205V83.0769H54.5898H54.3333V83.3333V83.5897H53.8205H53.3077V83.3333V83.0769H53.5641H53.8205V82.8205V82.5641H54.0769H54.3333V82.3077V82.0513H53.3077H52.2821V82.3077ZM73.3077 82.3077V82.5641H72.7949H72.2821V82.8205V83.0769H72.5385H72.7949V83.3333V83.5897H73.3077H73.8205V83.8462V84.1026H74.0769H74.3333V83.8462V83.5897H74.5898H74.8462V83.3333V83.0769H74.5898H74.3333V83.3333V83.5897H74.0769H73.8205V83.0769V82.5641H74.0769H74.3333V82.3077V82.0513H73.8205H73.3077V82.3077ZM88.6923 82.3077V82.5641H89.2051H89.718V82.3077V82.0513H89.2051H88.6923V82.3077ZM102.026 82.5641V83.0769H101.769H101.513V83.3333V83.5897H101.769H102.026V83.3333V83.0769H102.282H102.538V82.5641V82.0513H102.282H102.026V82.5641ZM117.41 82.3077V82.5641H117.154H116.897V82.8205V83.0769H116.641H116.385V83.3333V83.5897H116.641H116.897V83.3333V83.0769H117.154H117.41V82.8205V82.5641H117.667H117.923V82.3077V82.0513H117.667H117.41V82.3077ZM50.2308 83.0769V83.5897H50.7436H51.2564V83.0769V82.5641H50.7436H50.2308V83.0769ZM63.5641 82.8205V83.0769H63.3077H63.0513V83.3333V83.5897H64.0769H65.1026V83.3333V83.0769H65.359H65.6154V82.8205V82.5641H64.5898H63.5641V82.8205ZM79.9744 82.8205V83.0769H80.2308H80.4872V82.8205V82.5641H80.2308H79.9744V82.8205ZM87.1539 82.8205V83.0769H87.6667H88.1795V82.8205V82.5641H87.6667H87.1539V82.8205ZM90.7436 82.8205V83.0769H91.5128H92.2821V82.8205V82.5641H91.5128H90.7436V82.8205ZM103.051 83.0769V83.5897H102.795H102.538V83.8462V84.1026H102.026H101.513V84.359V84.6154H102.026H102.538V84.359V84.1026H102.795H103.051V83.8462V83.5897H103.308H103.564V83.0769V82.5641H103.308H103.051V83.0769ZM66.1282 83.3333V83.5897H65.8718H65.6154V83.8462V84.1026H66.1282H66.641V84.359V84.6154H66.8974H67.1539V84.359V84.1026H67.4103H67.6667V83.8462V83.5897H67.9231H68.1795V83.3333V83.0769H67.1539H66.1282V83.3333ZM69.2051 83.3333V83.5897H68.9487H68.6923V83.8462V84.1026H68.9487H69.2051V84.359V84.6154H69.718H70.2308V84.359V84.1026H70.4872H70.7436V83.8462V83.5897H70.2308H69.718V83.3333V83.0769H69.4615H69.2051V83.3333ZM89.2051 83.3333V83.5897H89.718H90.2308V83.3333V83.0769H89.718H89.2051V83.3333ZM93.8205 83.3333V83.5897H94.5898H95.359V83.3333V83.0769H94.5898H93.8205V83.3333ZM71.7692 83.8462V84.1026H71.5128H71.2564V84.359V84.6154H71H70.7436V84.8718V85.1282H70.2308H69.718V85.3846V85.641H69.4615H69.2051V86.1538V86.6667H68.9487H68.6923V86.9231V87.1795H70.2308H71.7692V86.9231V86.6667H72.0257H72.2821V86.4103V86.1538H72.5385H72.7949V85.8974V85.641H73.0513H73.3077V85.3846V85.1282H73.5641H73.8205V84.8718V84.6154H73.3077H72.7949V84.8718V85.1282H72.5385H72.2821V85.3846V85.641H72.0257H71.7692V85.8974V86.1538H71.5128H71.2564V86.4103V86.6667H71H70.7436V86.1538V85.641H71H71.2564V85.3846V85.1282H71.5128H71.7692V84.8718V84.6154H72.0257H72.2821V84.1026V83.5897H72.0257H71.7692V83.8462ZM91.7692 83.8462V84.1026H92.5385H93.3077V83.8462V83.5897H92.5385H91.7692V83.8462ZM97.4103 83.8462V84.1026H99.2051H101V83.8462V83.5897H99.2051H97.4103V83.8462ZM57.9231 84.359V84.6154H58.1795H58.4359V84.359V84.1026H58.1795H57.9231V84.359ZM60.4872 84.359V84.6154H60.2308H59.9744V84.8718V85.1282H60.2308H60.4872V84.8718V84.6154H60.7436H61V84.359V84.1026H60.7436H60.4872V84.359ZM61.5128 84.6154V85.1282H61.2564H61V85.3846V85.641H61.7692H62.5385V85.8974V86.1538H63.8205H65.1026V86.4103V86.6667H66.641H68.1795V86.4103V86.1538H68.4359H68.6923V85.3846V84.6154H68.1795H67.6667V84.8718V85.1282H67.1539H66.641V85.641V86.1538H66.3846H66.1282V85.3846V84.6154H65.6154H65.1026V84.359V84.1026H63.3077H61.5128V84.6154ZM78.9487 84.359V84.6154H78.6923H78.4359V84.8718V85.1282H78.1795H77.9231V85.3846V85.641H77.6667H77.4103V85.8974V86.1538H77.6667H77.9231V85.8974V85.641H78.1795H78.4359V85.3846V85.1282H78.6923H78.9487V84.8718V84.6154H79.2051H79.4615V84.359V84.1026H79.2051H78.9487V84.359ZM94.8462 84.359V84.6154H95.8718H96.8974V84.359V84.1026H95.8718H94.8462V84.359ZM116.385 84.359V84.6154H116.128H115.872V84.8718V85.1282H115.615H115.359V85.3846V85.641H115.103H114.846V85.8974V86.1538H114.59H114.333V86.4103V86.6667H114.077H113.821V86.9231V87.1795H113.564H113.308V87.4359V87.6923H113.051H112.795V87.9487V88.2051H113.051H113.308V87.9487V87.6923H113.564H113.821V87.4359V87.1795H114.077H114.333V86.9231V86.6667H114.59H114.846V86.4103V86.1538H115.103H115.359V85.8974V85.641H115.615H115.872V85.3846V85.1282H116.128H116.385V84.8718V84.6154H116.641H116.897V84.359V84.1026H116.641H116.385V84.359ZM98.4359 84.8718V85.1282H98.9487H99.4616V84.8718V84.6154H98.9487H98.4359V84.8718ZM113.821 85.3846V85.641H113.564H113.308V85.8974V86.1538H113.051H112.795V86.4103V86.6667H112.538H112.282V86.9231V87.1795H112.026H111.769V87.4359V87.6923H110.487H109.205V87.4359V87.1795H106.897H104.59V87.4359V87.6923H103.564H102.538V87.9487V88.2051H101.769H101V88.4615V88.7179H100.231H99.4616V88.9744V89.2308H98.9487H98.4359V89.4872V89.7436H97.9231H97.4103V90V90.2564H97.1539H96.8974V90.5128V90.7692H96.641H96.3846V91.0256V91.2821H96.1282H95.8718V91.7949V92.3077H95.6154H95.359V94.359V96.4103H95.6154H95.8718V96.6667V96.9231H96.1282H96.3846V97.1795V97.4359H96.641H96.8974V97.6923V97.9487H97.1539H97.4103V98.2051V98.4615H97.9231H98.4359V98.718V98.9744H98.9487H99.4616V99.2308V99.4872H100.231H101V99.7436V100H102.795H104.59V99.7436V99.4872H105.615H106.641V99.2308V98.9744H107.41H108.179V98.718V98.4615H108.692H109.205V98.2051V97.9487H109.462H109.718V97.6923V97.4359H109.974H110.231V97.1795V96.9231H110.487H110.744V96.6667V96.4103H111H111.256V96.1538V95.8974H111.513H111.769V95.641V95.3846H112.026H112.282V95.1282V94.8718H112.538H112.795V94.359V93.8462H113.051H113.308V93.5897V93.3333H113.564H113.821V91.5385V89.7436H113.564H113.308V89.4872V89.2308H113.051H112.795V88.9744V88.7179H112.538H112.282V88.4615V88.2051H112.026H111.769V87.9487V87.6923H112.026H112.282V87.4359V87.1795H112.538H112.795V86.9231V86.6667H113.051H113.308V86.4103V86.1538H113.564H113.821V85.8974V85.641H114.077H114.333V85.3846V85.1282H114.077H113.821V85.3846ZM105.103 87.9487V88.2051H106.128H107.154V88.4615V88.7179H108.179H109.205V88.9744V89.2308H109.718H110.231V89.4872V89.7436H110.487H110.744V90V90.2564H111H111.256V90.5128V90.7692H111.513H111.769V91.0256V91.2821H112.026H112.282V91.0256V90.7692H112.538H112.795V90.2564V89.7436H112.538H112.282V89.4872V89.2308H112.026H111.769V88.9744V88.7179H111.256H110.744V88.4615V88.2051H109.718H108.692V87.9487V87.6923H106.897H105.103V87.9487ZM102.026 88.9744V89.2308H101H99.9744V89.4872V89.7436H99.4616H98.9487V90V90.2564H98.4359H97.9231V90.5128V90.7692H97.6667H97.4103V91.0256V91.2821H97.1539H96.8974V91.5385V91.7949H96.641H96.3846V92.8205V93.8462H96.1282H95.8718V94.8718V95.8974H96.1282H96.3846V96.1538V96.4103H96.641H96.8974V96.6667V96.9231H97.1539H97.4103V97.1795V97.4359H97.9231H98.4359V97.6923V97.9487H99.2051H99.9744V98.2051V98.4615H103.051H106.128V98.2051V97.9487H106.641H107.154V97.6923V97.4359H107.667H108.179V97.1795V96.9231H108.692H109.205V96.6667V96.4103H109.718H110.231V96.1538V95.8974H110.487H110.744V95.641V95.3846H111H111.256V94.8718V94.359H111.513H111.769V94.1026V93.8462H112.026H112.282V93.3333V92.8205H112.538H112.795V92.5641V92.3077H113.051H113.308V91.7949V91.2821H113.051H112.795V91.7949V92.3077H112.538H112.282V92.5641V92.8205H112.026H111.769V93.0769V93.3333H111.513H111.256V93.5897V93.8462H111H110.744V94.1026V94.359H110.487H110.231V94.6154V94.8718H109.974H109.718V95.1282V95.3846H109.205H108.692V95.641V95.8974H108.179H107.667V96.1538V96.4103H107.154H106.641V96.6667V96.9231H103.564H100.487V96.6667V96.4103H103.308H106.128V96.1538V95.8974H106.641H107.154V95.641V95.3846H107.667H108.179V95.1282V94.8718H108.692H109.205V94.6154V94.359H109.462H109.718V94.1026V93.8462H109.974H110.231V93.5897V93.3333H110.487H110.744V93.0769V92.8205H111H111.256V92.5641V92.3077H111.513H111.769V92.0513V91.7949H111.513H111.256V91.5385V91.2821H111H110.744V91.0256V90.7692H110.487H110.231V90.5128V90.2564H109.974H109.718V90V89.7436H109.205H108.692V89.4872V89.2308H107.667H106.641V88.9744V88.7179H104.333H102.026V88.9744ZM104.077 91.0256V91.2821H103.308H102.538V91.5385V91.7949H102.282H102.026V92.3077V92.8205H103.051H104.077V92.5641V92.3077H104.333H104.59V91.5385V90.7692H104.333H104.077V91.0256ZM103.051 92.0513V92.3077H103.308H103.564V92.0513V91.7949H103.308H103.051V92.0513ZM96.3846 94.1026V94.359H96.641H96.8974V94.6154V94.8718H97.1539H97.4103V95.1282V95.3846H97.6667H97.9231V95.641V95.8974H98.4359H98.9487V96.1538V96.4103H99.718H100.487V96.1538V95.8974H99.718H98.9487V95.641V95.3846H98.4359H97.9231V95.1282V94.8718H97.6667H97.4103V94.6154V94.359H97.1539H96.8974V94.1026V93.8462H96.641H96.3846V94.1026Z" fill="white"/>
</g>
<defs>
<clipPath id="clip0_1358_115065">
<rect width="119.538" height="100" fill="white" transform="translate(0.230713)"/>
</clipPath>
</defs>
</svg>
