<svg width="333" height="75" viewBox="0 0 333 75" fill="none" xmlns="http://www.w3.org/2000/svg">
<path d="M4.63577 54.7807C3.84827 50.2557 0.504524 26.2307 0.0795244 22.1557C-0.426726 17.3057 1.58577 16.0807 3.23577 15.787C5.67952 15.3495 7.02327 18.2495 7.02327 18.2495L7.71702 18.0057C7.52327 16.937 7.32327 15.412 7.14202 13.8995C6.79202 11.0495 7.82952 9.15572 9.66077 8.60572C11.1108 8.17447 13.5983 7.90572 15.5483 12.9932C17.2608 17.4745 22.3983 32.8307 22.6233 33.4307C22.8483 34.0307 23.417 34.812 24.1483 34.812C24.942 34.812 25.117 34.0057 25.1983 33.4432C25.2733 32.8807 27.8358 13.887 29.642 6.38072C30.8295 1.44322 32.817 -0.338031 35.392 0.0432194C37.7483 0.393219 38.5045 1.61822 38.8858 6.51197C38.8858 6.51197 40.142 4.23697 42.992 4.99322C45.3358 5.61197 46.2795 8.36822 46.2795 12.6745C46.2795 15.537 45.642 42.0495 45.6608 42.9245C45.7108 44.9745 46.9045 43.6432 46.9045 43.6432C50.5483 37.9495 56.617 36.5557 59.2108 36.4432C61.817 36.337 65.2545 37.7745 64.3858 40.4807C63.8733 42.0682 59.167 44.3182 56.0483 47.437C53.3733 50.112 50.1108 54.8245 47.3858 60.8557C45.0858 65.9432 41.392 74.487 27.192 74.7432C11.5858 75.012 6.17952 63.6432 4.63577 54.7807Z" fill="#FFCA28"/>
<path d="M27.7112 55.6559C29.5174 49.8434 34.0924 45.9184 38.3612 44.1184C42.3612 42.4247 45.6237 41.9747 45.6237 41.9747C45.6237 43.4809 47.0862 43.4372 47.0862 43.4372C46.4487 44.5122 44.4112 45.0747 43.5237 45.3309C32.7862 48.4059 29.6424 55.6434 28.6862 58.6622C28.0799 60.5559 27.2799 63.3059 27.2799 63.3059C27.2799 63.3059 26.0112 61.1309 27.7112 55.6559Z" fill="#EDA600"/>
<path d="M9.73633 67.062C10.0488 67.362 18.5551 74.7745 30.5426 72.562C40.4488 70.737 43.9301 63.762 46.0238 59.9183C48.1176 56.0808 50.0551 50.6058 54.5113 46.8745C57.0238 44.7683 59.7363 43.4995 61.2488 42.487C64.0176 40.6308 64.5051 39.4745 64.5051 39.4745C64.5051 39.4745 64.9363 40.912 61.9676 43.4245C59.8988 45.1745 56.2363 47.5683 54.4863 49.6745C51.5738 53.1683 50.1551 57.4745 45.4238 65.0558C41.4801 71.3808 36.3613 73.7933 30.5113 74.662C15.5988 76.8745 9.73633 67.062 9.73633 67.062Z" fill="#EDA600"/>
<path d="M11.9676 39.7931C11.1801 39.9118 10.8801 39.7056 10.9988 39.1931C11.1176 38.6806 11.4613 37.2993 11.2801 36.6556C10.0863 32.4993 7.29258 22.7368 6.51133 19.9243C5.51758 16.3493 3.79883 15.7493 3.79883 15.7493C6.34258 15.3556 7.75508 17.6868 8.14883 18.9806C8.43633 19.9306 12.2051 31.2868 13.7488 35.9806C13.9801 36.6806 14.3113 37.0118 14.7926 37.3556C15.0676 37.5493 15.2988 38.0306 14.7176 38.5743C14.2801 38.9931 12.3988 39.7306 11.9676 39.7931Z" fill="#EDA600"/>
<path d="M34.4367 36.5745C33.5617 36.2745 32.8429 35.7433 33.2117 34.987C33.4054 34.587 33.9492 34.0933 34.0304 33.4495C34.7929 27.362 37.1554 8.43077 37.3617 4.98702C37.5367 2.07452 36.3242 0.262024 36.3242 0.262024C36.3242 0.262024 39.0617 0.812023 38.8867 5.91827C38.8242 7.78077 37.2742 27.9058 36.8054 34.1495C36.7617 34.7433 37.4742 35.5058 37.4054 36.337C37.3554 36.9558 36.3617 37.2308 34.4367 36.5745Z" fill="#EDA600"/>
<path d="M47.0922 43.4686L44.5922 43.7874C44.5922 43.7874 45.1672 13.8186 45.0172 9.91237C44.8672 6.00612 42.9797 4.98737 42.9797 4.98737C42.9797 4.98737 46.5297 4.98737 46.9672 9.84362C47.2235 12.7186 47.0922 43.4686 47.0922 43.4686Z" fill="#EDA600"/>
<path d="M332.903 33.2986V34.6709C330.501 34.6709 329.472 35.4143 328.5 38.9595L321.238 64.1191H317.807L312.832 44.6776L307.572 64.1191H303.969L296.479 38.9595C295.392 35.4143 294.363 34.6709 291.961 34.6709V33.2986H303.969V34.6709C301.225 34.6709 301.396 35.4143 302.426 38.9595L307.286 55.8851H307.515L311.689 40.2747L311.346 39.0167C310.431 35.4143 309.573 34.6709 307.515 34.6709V33.2986H319.465V34.6709C316.378 34.6709 316.378 35.4715 317.178 39.0739L321.067 55.8851H321.295L326.098 38.9595C327.128 35.4143 327.185 34.6709 323.525 34.6709V33.2986H332.903Z" fill="white"/>
<path d="M290.785 51.3678H292.157C290.956 60.5739 287.068 64.5194 281.693 64.5194C275.232 64.5194 271.172 58.401 271.172 48.9662C271.172 39.9316 275.174 32.2693 281.979 32.2693C288.669 32.2693 291.814 38.5592 291.814 46.9076H276.718V47.022C276.718 54.7986 279.12 60.288 283.866 60.288C286.439 60.288 289.412 58.2867 290.785 51.3678ZM281.979 34.6709C278.548 34.6709 277.118 38.8451 276.775 44.5632H286.325C286.325 39.0739 285.353 34.6709 281.979 34.6709Z" fill="white"/>
<path d="M266.597 32.2693C268.599 32.2693 269.685 33.413 269.685 35.2999C269.685 37.53 268.37 38.9595 266.883 38.9595C265.854 38.9595 265.396 38.5592 264.653 37.7587C263.91 37.0154 263.624 36.7866 262.938 36.7866C261.622 36.7866 260.079 38.6736 258.878 42.1616V57.3718C258.878 61.2601 259.735 62.175 264.939 62.175V63.6045H249.5V62.2322C252.817 62.2322 253.388 61.3744 253.388 57.7149V40.1031C253.388 36.272 253.388 35.4715 249.958 36.901L249.386 35.5858L253.96 33.756L257.848 32.155L258.878 33.0127V38.5021H259.049C260.65 35.4715 263.452 32.2693 266.597 32.2693Z" fill="white"/>
<path d="M224.271 60.6311V24.8358C224.271 21.119 224.386 20.3757 221.069 22.0339L220.44 20.8331L224.843 18.6602L229.074 16.4874L229.875 17.2879V37.6443H230.104C232.219 34.4422 234.907 32.2693 238.452 32.2693C243.541 32.2693 246.915 37.6443 246.915 47.0792C246.915 57.772 242.626 64.4622 234.735 64.4622C231.476 64.4622 227.359 63.3186 224.271 60.6311ZM229.875 40.4462V58.8585C230.79 60.288 232.505 61.8319 234.735 61.8319C238.738 61.8319 240.911 56.7428 240.911 48.0513C240.911 39.9887 238.795 36.2148 235.536 36.2148C233.249 36.2148 231.304 38.1018 229.875 40.4462Z" fill="white"/>
<path d="M217.689 51.3678H219.061C217.861 60.5739 213.972 64.5194 208.597 64.5194C202.136 64.5194 198.076 58.401 198.076 48.9662C198.076 39.9316 202.079 32.2693 208.883 32.2693C215.573 32.2693 218.718 38.5592 218.718 46.9076H203.623V47.022C203.623 54.7986 206.024 60.288 210.77 60.288C213.343 60.288 216.317 58.2867 217.689 51.3678ZM208.883 34.6709C205.452 34.6709 204.023 38.8451 203.68 44.5632H213.229C213.229 39.0739 212.257 34.6709 208.883 34.6709Z" fill="white"/>
<path d="M192.164 40.5034V57.7149C192.164 61.3744 192.679 62.2322 195.995 62.2322V63.6045H183.358V62.2322C186.217 62.2322 186.675 61.3744 186.675 57.7149V40.7893C186.675 37.7015 185.531 36.272 183.473 36.272C181.414 36.272 179.584 37.7015 177.583 40.389V40.5034V57.7149C177.583 61.3744 178.04 62.2322 180.899 62.2322V63.6045H168.72V62.2322C171.636 62.2322 172.094 61.3744 172.094 57.7149V40.7893C172.094 37.7015 170.95 36.272 168.891 36.272C166.776 36.272 164.889 37.7587 162.83 40.6178V57.7149C162.83 61.3744 163.288 62.2322 166.204 62.2322V63.6045H153.453V62.2322C156.826 62.2322 157.341 61.3744 157.341 57.7149V40.1031C157.341 36.272 157.341 35.5286 153.967 36.901L153.395 35.643L161.744 32.155L162.83 33.0127V38.2733H163.002C165.175 35.014 167.633 32.2693 171.522 32.2693C174.895 32.2693 176.897 34.385 177.469 38.2733H177.64C179.756 35.014 182.215 32.2693 186.103 32.2693C190.106 32.2693 192.164 35.2427 192.164 40.5034Z" fill="white"/>
<path d="M138.615 64.5194C131.181 64.5194 126.321 57.9436 126.321 48.5659C126.321 39.3598 130.838 32.2693 138.615 32.2693C145.991 32.2693 150.908 38.8451 150.908 48.2228C150.908 57.4289 146.334 64.5194 138.615 64.5194ZM139.472 62.0034C143.532 62.0034 145.133 56.6284 145.133 51.5965C145.133 43.8199 142.789 34.7853 137.757 34.7853C133.697 34.7853 132.039 40.1603 132.039 45.1922C132.039 52.9688 134.44 62.0034 139.472 62.0034Z" fill="white"/>
<path d="M125.407 17.8597V19.2321C120.089 19.2321 119.289 20.2613 119.289 23.7494V57.7149C119.289 61.2029 120.089 62.2322 125.407 62.2322V63.6045H107.109V62.2322C112.141 62.2322 112.884 61.2029 112.884 57.7149V40.6749H95.1584V57.7149C95.1584 61.2029 95.8445 62.2322 100.876 62.2322V63.6045H82.6357V62.2322C87.9536 62.2322 88.6969 61.2029 88.6969 57.7149V23.7494C88.6969 20.2613 87.9536 19.2321 82.6357 19.2321V17.8597H100.876V19.2321C95.8445 19.2321 95.1584 20.2613 95.1584 23.7494V38.2162H112.884V23.7494C112.884 20.2613 112.141 19.2321 107.109 19.2321V17.8597H125.407Z" fill="white"/>
</svg>
