<svg width="333" height="75" viewBox="0 0 333 75" fill="none" xmlns="http://www.w3.org/2000/svg">
<path d="M4.63577 54.7872C3.84827 50.2622 0.504524 26.2372 0.0795244 22.1622C-0.426726 17.3123 1.58577 16.0872 3.23577 15.7935C5.67952 15.356 7.02327 18.256 7.02327 18.256L7.71702 18.0122C7.52327 16.9435 7.32327 15.4185 7.14202 13.906C6.79202 11.056 7.82952 9.16225 9.66077 8.61225C11.1108 8.181 13.5983 7.91225 15.5483 12.9997C17.2608 17.481 22.3983 32.8372 22.6233 33.4372C22.8483 34.0372 23.417 34.8185 24.1483 34.8185C24.942 34.8185 25.117 34.0122 25.1983 33.4497C25.2733 32.8872 27.8358 13.8935 29.642 6.38725C30.8295 1.44975 32.817 -0.3315 35.392 0.0497501C37.7483 0.39975 38.5045 1.62475 38.8858 6.5185C38.8858 6.5185 40.142 4.2435 42.992 4.99975C45.3358 5.6185 46.2795 8.37475 46.2795 12.681C46.2795 15.5435 45.642 42.056 45.6608 42.931C45.7108 44.981 46.9045 43.6497 46.9045 43.6497C50.5483 37.956 56.617 36.5622 59.2108 36.4497C61.817 36.3435 65.2545 37.781 64.3858 40.4872C63.8733 42.0747 59.167 44.3247 56.0483 47.4435C53.3733 50.1185 50.1108 54.831 47.3858 60.8622C45.0858 65.9497 41.392 74.4935 27.192 74.7497C11.5858 75.0185 6.17952 63.6497 4.63577 54.7872Z" fill="#FFCA28"/>
<path d="M27.7112 55.6624C29.5174 49.8499 34.0924 45.925 38.3612 44.125C42.3612 42.4312 45.6237 41.9812 45.6237 41.9812C45.6237 43.4875 47.0862 43.4437 47.0862 43.4437C46.4487 44.5187 44.4112 45.0812 43.5237 45.3375C32.7862 48.4125 29.6424 55.6499 28.6862 58.6687C28.0799 60.5624 27.2799 63.3124 27.2799 63.3124C27.2799 63.3124 26.0112 61.1374 27.7112 55.6624Z" fill="#EDA600"/>
<path d="M9.73633 67.0686C10.0488 67.3686 18.5551 74.7811 30.5426 72.5686C40.4488 70.7436 43.9301 63.7686 46.0238 59.9248C48.1176 56.0873 50.0551 50.6123 54.5113 46.8811C57.0238 44.7748 59.7363 43.5061 61.2488 42.4936C64.0176 40.6373 64.5051 39.4811 64.5051 39.4811C64.5051 39.4811 64.9363 40.9186 61.9676 43.4311C59.8988 45.1811 56.2363 47.5748 54.4863 49.6811C51.5738 53.1748 50.1551 57.4811 45.4238 65.0623C41.4801 71.3873 36.3613 73.7998 30.5113 74.6686C15.5988 76.8811 9.73633 67.0686 9.73633 67.0686Z" fill="#EDA600"/>
<path d="M11.9676 39.7996C11.1801 39.9184 10.8801 39.7121 10.9988 39.1996C11.1176 38.6871 11.4613 37.3059 11.2801 36.6621C10.0863 32.5059 7.29258 22.7434 6.51133 19.9309C5.51758 16.3559 3.79883 15.7559 3.79883 15.7559C6.34258 15.3621 7.75508 17.6934 8.14883 18.9871C8.43633 19.9371 12.2051 31.2934 13.7488 35.9871C13.9801 36.6871 14.3113 37.0184 14.7926 37.3621C15.0676 37.5559 15.2988 38.0371 14.7176 38.5809C14.2801 38.9996 12.3988 39.7371 11.9676 39.7996Z" fill="#EDA600"/>
<path d="M34.4367 36.5811C33.5617 36.2811 32.8429 35.7498 33.2117 34.9936C33.4054 34.5936 33.9492 34.0998 34.0304 33.4561C34.7929 27.3686 37.1554 8.4373 37.3617 4.99355C37.5367 2.08105 36.3242 0.268555 36.3242 0.268555C36.3242 0.268555 39.0617 0.818554 38.8867 5.9248C38.8242 7.7873 37.2742 27.9123 36.8054 34.1561C36.7617 34.7498 37.4742 35.5123 37.4054 36.3436C37.3554 36.9623 36.3617 37.2373 34.4367 36.5811Z" fill="#EDA600"/>
<path d="M47.0922 43.4752L44.5922 43.7939C44.5922 43.7939 45.1672 13.8251 45.0172 9.9189C44.8672 6.01265 42.9797 4.9939 42.9797 4.9939C42.9797 4.9939 46.5297 4.9939 46.9672 9.85015C47.2235 12.7251 47.0922 43.4752 47.0922 43.4752Z" fill="#EDA600"/>
<path d="M332.903 33.3051V34.6775C330.501 34.6775 329.472 35.4208 328.5 38.966L321.238 64.1257H317.807L312.832 44.6841L307.572 64.1257H303.969L296.479 38.966C295.392 35.4208 294.363 34.6775 291.961 34.6775V33.3051H303.969V34.6775C301.225 34.6775 301.396 35.4208 302.426 38.966L307.286 55.8916H307.515L311.689 40.2812L311.346 39.0232C310.431 35.4208 309.573 34.6775 307.515 34.6775V33.3051H319.465V34.6775C316.378 34.6775 316.378 35.478 317.178 39.0804L321.067 55.8916H321.295L326.098 38.966C327.128 35.4208 327.185 34.6775 323.525 34.6775V33.3051H332.903Z" fill="black"/>
<path d="M290.785 51.3743H292.157C290.956 60.5804 287.068 64.5259 281.693 64.5259C275.232 64.5259 271.172 58.4075 271.172 48.9727C271.172 39.9381 275.174 32.2758 281.979 32.2758C288.669 32.2758 291.814 38.5657 291.814 46.9141H276.718V47.0285C276.718 54.8051 279.12 60.2945 283.866 60.2945C286.439 60.2945 289.412 58.2932 290.785 51.3743ZM281.979 34.6774C278.548 34.6774 277.118 38.8516 276.775 44.5697H286.325C286.325 39.0804 285.353 34.6774 281.979 34.6774Z" fill="black"/>
<path d="M266.597 32.2759C268.599 32.2759 269.685 33.4195 269.685 35.3065C269.685 37.5365 268.37 38.966 266.883 38.966C265.854 38.966 265.396 38.5658 264.653 37.7652C263.91 37.0219 263.624 36.7932 262.938 36.7932C261.622 36.7932 260.079 38.6801 258.878 42.1682V57.3783C258.878 61.2666 259.735 62.1815 264.939 62.1815V63.611H249.5V62.2387C252.817 62.2387 253.388 61.381 253.388 57.7214V40.1097C253.388 36.2785 253.388 35.478 249.958 36.9075L249.386 35.5924L253.96 33.7626L257.848 32.1615L258.878 33.0192V38.5086H259.049C260.65 35.478 263.452 32.2759 266.597 32.2759Z" fill="black"/>
<path d="M224.271 60.6376V24.8423C224.271 21.1256 224.386 20.3822 221.069 22.0405L220.44 20.8397L224.843 18.6668L229.074 16.4939L229.875 17.2944V37.6509H230.104C232.219 34.4487 234.907 32.2758 238.452 32.2758C243.541 32.2758 246.915 37.6509 246.915 47.0857C246.915 57.7786 242.626 64.4687 234.735 64.4687C231.476 64.4687 227.359 63.3251 224.271 60.6376ZM229.875 40.4527V58.865C230.79 60.2945 232.505 61.8384 234.735 61.8384C238.738 61.8384 240.911 56.7493 240.911 48.0578C240.911 39.9953 238.795 36.2213 235.536 36.2213C233.249 36.2213 231.304 38.1083 229.875 40.4527Z" fill="black"/>
<path d="M217.689 51.3743H219.061C217.861 60.5804 213.972 64.5259 208.597 64.5259C202.136 64.5259 198.076 58.4075 198.076 48.9727C198.076 39.9381 202.079 32.2758 208.883 32.2758C215.573 32.2758 218.718 38.5657 218.718 46.9141H203.623V47.0285C203.623 54.8051 206.024 60.2945 210.77 60.2945C213.343 60.2945 216.317 58.2932 217.689 51.3743ZM208.883 34.6774C205.452 34.6774 204.023 38.8516 203.68 44.5697H213.229C213.229 39.0804 212.257 34.6774 208.883 34.6774Z" fill="black"/>
<path d="M192.164 40.5099V57.7214C192.164 61.381 192.679 62.2387 195.995 62.2387V63.611H183.358V62.2387C186.217 62.2387 186.675 61.381 186.675 57.7214V40.7958C186.675 37.7081 185.531 36.2785 183.473 36.2785C181.414 36.2785 179.584 37.7081 177.583 40.3956V40.5099V57.7214C177.583 61.381 178.04 62.2387 180.899 62.2387V63.611H168.72V62.2387C171.636 62.2387 172.094 61.381 172.094 57.7214V40.7958C172.094 37.7081 170.95 36.2785 168.891 36.2785C166.776 36.2785 164.889 37.7652 162.83 40.6243V57.7214C162.83 61.381 163.288 62.2387 166.204 62.2387V63.611H153.453V62.2387C156.826 62.2387 157.341 61.381 157.341 57.7214V40.1097C157.341 36.2785 157.341 35.5352 153.967 36.9075L153.395 35.6495L161.744 32.1615L162.83 33.0192V38.2799H163.002C165.175 35.0205 167.633 32.2759 171.522 32.2759C174.895 32.2759 176.897 34.3916 177.469 38.2799H177.64C179.756 35.0205 182.215 32.2759 186.103 32.2759C190.106 32.2759 192.164 35.2493 192.164 40.5099Z" fill="black"/>
<path d="M138.615 64.5259C131.181 64.5259 126.321 57.9501 126.321 48.5724C126.321 39.3663 130.838 32.2758 138.615 32.2758C145.991 32.2758 150.908 38.8516 150.908 48.2293C150.908 57.4354 146.334 64.5259 138.615 64.5259ZM139.472 62.0099C143.532 62.0099 145.133 56.6349 145.133 51.603C145.133 43.8264 142.789 34.7918 137.757 34.7918C133.697 34.7918 132.039 40.1668 132.039 45.1987C132.039 52.9753 134.44 62.0099 139.472 62.0099Z" fill="black"/>
<path d="M125.407 17.8663V19.2386C120.089 19.2386 119.289 20.2679 119.289 23.7559V57.7214C119.289 61.2094 120.089 62.2387 125.407 62.2387V63.611H107.109V62.2387C112.141 62.2387 112.884 61.2094 112.884 57.7214V40.6815H95.1584V57.7214C95.1584 61.2094 95.8445 62.2387 100.876 62.2387V63.611H82.6357V62.2387C87.9536 62.2387 88.6969 61.2094 88.6969 57.7214V23.7559C88.6969 20.2679 87.9536 19.2386 82.6357 19.2386V17.8663H100.876V19.2386C95.8445 19.2386 95.1584 20.2679 95.1584 23.7559V38.2227H112.884V23.7559C112.884 20.2679 112.141 19.2386 107.109 19.2386V17.8663H125.407Z" fill="black"/>
</svg>
