<svg width="100" height="26" viewBox="0 0 100 26" fill="none" xmlns="http://www.w3.org/2000/svg">
<path d="M83.3068 2.47705L84.8212 0.962708H96.4713L97.9856 2.47705L96.4713 4.0086H84.8212L83.3068 2.47705ZM83.3068 23.5229L84.8212 22.0086H96.4713L97.9856 23.5229L96.4713 25.0373H84.8212L83.3068 23.5229ZM97.9856 12.9914L99.4999 14.5229V22.0086L97.9856 23.5229L96.4713 22.0086V14.5229L97.9856 12.9914ZM83.3068 2.47705L81.7925 4.0086V11.4943L83.3068 12.9914L84.8212 11.4943V4.0086L83.3068 2.47705ZM97.9856 2.47705L96.4713 4.0086V11.4943L97.9856 12.9914L99.4999 11.4943V4.0086L97.9856 2.47705ZM83.3068 23.5229L81.7925 22.0086V14.5229L83.3068 12.9914L84.8212 14.5229V22.0086L83.3068 23.5229Z" fill="#FF5C00"/>
<path d="M62.4849 2.47705V11.477L63.9992 12.9914L65.5135 11.4943V2.47705L63.9992 0.962708L62.4849 2.47705ZM63.9992 23.5229L62.4849 22.0086V14.5229L63.9992 12.9914L65.5135 14.5229V22.0086L63.9992 23.5229ZM78.678 23.5229L77.1636 25.0373H65.5135L63.9992 23.5229L65.5135 22.0086H77.1636L78.678 23.5229Z" fill="#FF5C00"/>
<path d="M41.3184 14.5229L42.8327 13.0086L44.347 14.5229V23.5229L42.8327 25.0373L41.3184 23.5229V14.5229ZM41.3184 2.47705L42.8327 0.962708L44.347 2.47705V11.4943L42.8327 13.0086L41.3184 11.4943V2.47705ZM55.9971 2.47705L57.5115 0.962708L59.0258 2.47705V11.4943L57.5115 13.0086L55.9971 11.4943V2.47705ZM55.9971 14.5229L57.5115 13.0086L59.0258 14.5229V23.5229L57.5115 25.0373L55.9971 23.5229V14.5229ZM44.6568 3.87093L45.4312 1.87475L47.4273 2.66634L51.0239 10.9264L50.2323 12.9226L48.2361 12.131L44.6568 3.87093ZM49.4407 14.9187L50.2323 12.9226L52.2285 13.6969L55.8251 21.957L55.0335 23.9531L53.0373 23.1616L49.4407 14.9187Z" fill="#FF5C00"/>
<path d="M23.1808 23.5229L24.6952 22.0086H36.3453L37.8596 23.5229L36.3453 25.0373H24.6952L23.1808 23.5229ZM23.1808 2.47705L24.6952 0.962708H36.3453L37.8596 2.47705L36.3453 4.0086H24.6952L23.1808 2.47705ZM23.1808 12.9914L24.6952 11.477H36.3453L37.8596 12.9914L36.3453 14.5057H24.6952L23.1808 12.9914ZM23.1808 2.47705L21.6665 4.0086V11.4943L23.1808 12.9914L24.6952 11.4943V4.0086L23.1808 2.47705ZM23.1808 23.5229L21.6665 22.0086V14.5229L23.1808 12.9914L24.6952 14.5229V22.0086L23.1808 23.5229Z" fill="#FF5C00"/>
<path d="M16.6931 2.45984L18.2075 4.0086V11.4943L16.6931 13.0086L15.1788 11.4943V4.0086L16.6931 2.45984ZM9.34512 2.45984L10.8767 4.0086V11.4943L9.34512 13.0086L7.83078 11.4943V4.0086L9.34512 2.45984ZM2.01434 13.0086L0.5 11.4943V4.0086L2.01434 2.45984L3.52868 4.0086V11.4943L2.01434 13.0086ZM0.5 14.5229L2.01434 13.0086L3.52868 14.5229V23.5229L2.01434 25.0373L0.5 23.5229V14.5229ZM16.6931 25.0373L15.1788 23.5229V14.5229L16.6931 13.0086L18.2075 14.5229V23.5229L16.6931 25.0373ZM3.52868 0.962708H7.83078L9.34512 2.45984L7.83078 4.0086H3.52868L2.01434 2.45984L3.52868 0.962708ZM10.8767 0.962708H15.1788L16.6931 2.45984L15.1788 4.0086H10.8767L9.34512 2.45984L10.8767 0.962708Z" fill="#FF5C00"/>
</svg>
