<svg width="24" height="24" viewBox="0 0 24 24" fill="none" xmlns="http://www.w3.org/2000/svg">
<path d="M14.5488 1.09132C15.1506 0.97161 15.7721 0.992081 16.3647 1.15089C16.9574 1.30969 17.5055 1.60279 17.9668 2.00733C18.4281 2.41186 18.7901 2.91708 19.0249 3.48389C19.1484 3.78216 19.2338 4.0936 19.2822 4.41065C19.748 4.60818 20.1827 4.87586 20.5703 5.20557C21.1481 5.69713 21.6064 6.31389 21.9106 7.0088C22.2148 7.70372 22.357 8.45884 22.3262 9.2168C22.3059 9.71469 22.2108 10.205 22.0464 10.6724C22.4234 11.0916 22.7301 11.5737 22.9487 12.1016C23.3699 13.1184 23.4436 14.246 23.1587 15.3091C22.8738 16.3721 22.2462 17.3115 21.373 17.9815C21.3582 17.9929 21.3426 18.0034 21.3276 18.0147C21.3273 18.4797 21.2639 18.9436 21.1348 19.3926C20.9458 20.0494 20.6238 20.6608 20.1895 21.1885C19.7552 21.716 19.2175 22.1489 18.6094 22.4605C18.0012 22.772 17.3353 22.9557 16.6533 23C15.9713 23.0443 15.2875 22.9481 14.644 22.7178C14.0006 22.4874 13.411 22.1277 12.9121 21.6607C12.698 21.4602 12.504 21.2408 12.3291 21.0073C12.1542 21.2407 11.9606 21.4603 11.7466 21.6607C11.2477 22.1276 10.6584 22.4874 10.0151 22.7178C9.37178 22.9481 8.68778 23.0442 8.00586 23C7.32388 22.9558 6.65805 22.7721 6.04981 22.4605C5.4416 22.1489 4.90358 21.7161 4.46924 21.1885C4.03488 20.6608 3.71335 20.0494 3.52441 19.3926C3.39526 18.9436 3.33144 18.4798 3.33106 18.0147C3.31608 18.0034 3.30051 17.9929 3.28564 17.9815C2.41255 17.3115 1.78488 16.3721 1.5 15.3091C1.21514 14.246 1.28884 13.1184 1.70996 12.1016C1.92859 11.5737 2.23487 11.0911 2.61182 10.6719C2.44759 10.2047 2.35274 9.71447 2.33252 9.2168C2.30174 8.45886 2.44387 7.7037 2.74805 7.0088C3.05229 6.31383 3.51103 5.69715 4.08887 5.20557C4.47628 4.876 4.91038 4.60815 5.37598 4.41065C5.42442 4.09357 5.51024 3.78219 5.63379 3.48389C5.86857 2.91708 6.23065 2.41186 6.6919 2.00733C7.15315 1.60281 7.70135 1.3097 8.29395 1.15089C8.88661 0.992081 9.50809 0.97161 10.1099 1.09132C10.7116 1.21102 11.2779 1.46779 11.7647 1.84132C11.9705 1.99932 12.1586 2.17763 12.3291 2.3711C12.4997 2.17748 12.6885 1.99942 12.8945 1.84132C13.3812 1.46787 13.9472 1.21102 14.5488 1.09132ZM11.3296 5.01466C11.3296 4.70795 11.2587 4.40547 11.123 4.13038C10.9874 3.85523 10.7903 3.6145 10.5469 3.42774C10.3036 3.24108 10.0205 3.11308 9.71973 3.05323C9.4189 2.99339 9.10829 3.00365 8.81201 3.08301C8.51568 3.16242 8.24139 3.30896 8.01074 3.51124C7.78014 3.7135 7.59882 3.96612 7.48145 4.24952C7.36412 4.53288 7.3265 4.8389 7.3335 5.14551C7.36963 6.72901 8.40843 7.74849 8.56184 8.01417C8.83797 8.49244 8.67389 9.10422 8.19562 9.38038C7.71735 9.65651 7.10557 9.49243 6.82941 9.01417C6.74092 8.86088 5.69995 6.7023 5.63281 6.53956C5.54713 6.59828 5.46425 6.6614 5.38477 6.72901C5.03808 7.02395 4.76262 7.39359 4.58008 7.81055C4.39753 8.22754 4.31258 8.68093 4.33106 9.13575C4.33676 9.27595 4.35336 9.41497 4.37842 9.55225C4.70614 9.56864 5.01902 9.74549 5.19531 10.0508C5.47148 10.5291 5.30786 11.1408 4.82959 11.417C4.25775 11.7472 3.81082 12.2567 3.55811 12.8667C3.30544 13.4767 3.2608 14.1532 3.43164 14.791C3.60256 15.4289 3.97951 15.993 4.50342 16.395C5.02729 16.7969 6.6693 17.0146 7.32959 17.0147C7.88176 17.0148 8.32952 17.4625 8.32959 18.0147C8.32957 18.5669 7.88177 19.0146 7.32959 19.0147C7.04272 19.0146 5.75778 18.9898 5.47803 18.9414C5.59406 19.2968 5.77519 19.6279 6.01318 19.917C6.27378 20.2336 6.5965 20.4937 6.96143 20.6807C7.32638 20.8676 7.72606 20.9778 8.13525 21.0044C8.54442 21.0309 8.9548 20.9732 9.34082 20.835C9.72685 20.6967 10.0806 20.4809 10.3799 20.2007C10.6792 19.9205 10.9177 19.5817 11.0811 19.2056C11.2443 18.8297 11.329 18.4244 11.3296 18.0147V13.0947C10.8196 13.4907 9.23739 13.7912 8.60986 13.9746C8.07982 14.1295 7.5246 13.8254 7.36963 13.2954C7.21468 12.7653 7.51877 12.2102 8.04883 12.0552C8.70655 11.8629 10.2842 11.4623 10.6953 10.9141C11.1064 10.3659 11.3292 9.69937 11.3296 9.01417V5.01466ZM13.3296 9.01417L13.332 9.14258C13.3583 9.78234 13.578 10.4002 13.9634 10.9141C14.3745 11.4622 15.9522 11.8629 16.6099 12.0552C17.14 12.2101 17.444 12.7653 17.2891 13.2954C17.1341 13.8255 16.5789 14.1296 16.0488 13.9746C15.4215 13.7912 13.8394 13.491 13.3296 13.0952V18.0137L13.3335 18.167C13.3522 18.5246 13.4347 18.8764 13.5776 19.2056C13.741 19.5817 13.98 19.9204 14.2793 20.2007C14.5786 20.4809 14.9324 20.6968 15.3184 20.835C15.7044 20.9731 16.1148 21.031 16.5239 21.0044C16.933 20.9778 17.3324 20.8676 17.6973 20.6807C18.0622 20.4937 18.3849 20.2336 18.6455 19.917C18.8836 19.6278 19.0641 19.2965 19.1802 18.9409C18.9006 18.9892 17.6162 19.0146 17.3296 19.0147C16.7773 19.0147 16.3296 18.5669 16.3296 18.0147C16.3297 17.4625 16.7774 17.0147 17.3296 17.0147C17.9899 17.0146 19.6319 16.797 20.1558 16.395C20.6797 15.993 21.0561 15.4289 21.2271 14.791C21.3979 14.1532 21.3537 13.4768 21.1011 12.8667C20.8484 12.2567 20.4013 11.7472 19.8296 11.417C19.3513 11.1408 19.1873 10.5291 19.4634 10.0508C19.6396 9.74553 19.9526 9.56869 20.2803 9.55225C20.3053 9.41497 20.3219 9.27595 20.3276 9.13575C20.3461 8.68093 20.2612 8.22754 20.0786 7.81055C19.8961 7.39369 19.621 7.02391 19.2744 6.72901C19.1948 6.66128 19.1112 6.59836 19.0254 6.53956C18.9583 6.70224 18.3443 8.86093 18.2559 9.01417C17.9797 9.49245 17.3679 9.65655 16.8897 9.38038C16.4114 9.1042 16.2478 8.49243 16.5239 8.01417C16.6773 7.74852 17.2251 6.6714 17.3252 5.14551C17.3453 4.83946 17.2946 4.5329 17.1772 4.24952C17.0599 3.96609 16.8786 3.71352 16.648 3.51124C16.4173 3.30899 16.1434 3.16243 15.8472 3.08301C15.5509 3.00363 15.2403 2.99342 14.9395 3.05323C14.6386 3.11308 14.3552 3.24101 14.1118 3.42774C13.8684 3.6145 13.6713 3.85523 13.5356 4.13038C13.417 4.37108 13.3479 4.63277 13.3325 4.89991L13.3296 5.01466V9.01417Z" fill="black"/>
</svg>
