<svg width="26" height="26" viewBox="0 0 26 26" fill="none" xmlns="http://www.w3.org/2000/svg">
<path d="M21.9248 6.9028C22.188 7.23631 22.4096 7.60206 22.5811 7.99362C22.8852 8.68842 23.0278 9.4438 22.9971 10.2016C22.9769 10.6995 22.8812 11.1903 22.7168 11.6577C23.0937 12.0768 23.4005 12.5587 23.6192 13.0864C24.0403 14.1032 24.114 15.2313 23.8291 16.2944C23.5443 17.3572 22.9168 18.2963 22.044 18.9663C22.0291 18.9777 22.013 18.9883 21.9981 18.9995C21.9977 19.4644 21.9347 19.9286 21.8057 20.3774C21.6168 21.034 21.2946 21.6458 20.8604 22.1733C20.4262 22.7007 19.8883 23.1342 19.2803 23.4458C18.6722 23.7573 18.0061 23.9405 17.3242 23.9848C16.6423 24.0291 15.9579 23.933 15.3145 23.7026C14.6712 23.4723 14.0818 23.1129 13.583 22.646C13.369 22.4456 13.1749 22.226 13 21.9926C12.8252 22.226 12.631 22.4456 12.417 22.646C11.9182 23.1129 11.3288 23.4722 10.6856 23.7026C10.0423 23.9329 9.3586 24.029 8.67678 23.9848C7.99492 23.9406 7.32889 23.7573 6.72073 23.4458C6.43193 23.2978 6.15886 23.1221 5.9053 22.9223L7.33596 21.4917C7.43102 21.5551 7.52976 21.6132 7.63186 21.6655C7.99678 21.8524 8.39654 21.9631 8.80569 21.9897C9.21485 22.0163 9.62572 21.958 10.0117 21.8198C10.3976 21.6816 10.7516 21.4661 11.0508 21.186C11.3501 20.9058 11.5887 20.5669 11.752 20.1909C11.9152 19.8151 11.9995 19.4092 12 18.9995V16.8286L14 14.8286V18.9985L14.0039 19.1518C14.0226 19.5094 14.1051 19.8617 14.2481 20.1909C14.4114 20.567 14.6509 20.9058 14.9502 21.186C15.2495 21.4661 15.6034 21.6816 15.9893 21.8198C16.3752 21.9579 16.7854 22.0162 17.1944 21.9897C17.6035 21.9631 18.0033 21.8524 18.3682 21.6655C18.733 21.4785 19.0559 21.2183 19.3164 20.9018C19.5543 20.6127 19.7346 20.2816 19.8506 19.9262C19.5711 19.9745 19.2866 19.9995 19 19.9995C18.4478 19.9994 18 19.5517 18 18.9995C18.0003 18.4475 18.448 17.9996 19 17.9995C19.6603 17.9994 20.3024 17.7823 20.8262 17.3803C21.3501 16.9783 21.7266 16.4137 21.8975 15.7758C22.0682 15.1381 22.0241 14.462 21.7715 13.852C21.5188 13.242 21.0718 12.732 20.5 12.4018C20.022 12.1256 19.8577 11.5138 20.1338 11.0356C20.3101 10.7305 20.6236 10.554 20.9512 10.5376C20.9763 10.4003 20.9924 10.2608 20.9981 10.1206C21.0165 9.66589 20.9315 9.21225 20.749 8.79538C20.6781 8.63336 20.5928 8.47865 20.4951 8.33249L21.9248 6.9028Z" fill="black"/>
<path d="M15.2198 2.07663C15.8214 1.957 16.4427 1.97745 17.0352 2.1362C17.6278 2.295 18.1764 2.5881 18.6377 2.99265C18.9135 3.23456 19.1527 3.51325 19.3516 3.81882L17.8701 5.30026C17.8621 5.27869 17.8565 5.25616 17.8477 5.23483C17.7303 4.95141 17.549 4.69883 17.3184 4.49655C17.0878 4.29432 16.8139 4.14725 16.5176 4.06784C16.2215 3.98854 15.911 3.97882 15.6104 4.03854C15.3096 4.09838 15.0256 4.22588 14.7823 4.41257C14.5389 4.59933 14.3418 4.84054 14.2061 5.11569C14.0875 5.35635 14.0183 5.61814 14.003 5.88522L14 5.99948V9.17136L12 11.1714V5.99948C12 5.69299 11.9295 5.39061 11.794 5.11569C11.6583 4.84055 11.4612 4.59933 11.2178 4.41257C10.9746 4.22598 10.6913 4.09842 10.3906 4.03854C10.0898 3.9787 9.77872 3.98848 9.48245 4.06784C9.18619 4.14723 8.91227 4.29434 8.68166 4.49655C8.45107 4.69881 8.26974 4.95145 8.15237 5.23483C8.03509 5.51807 7.98393 5.82444 8.00393 6.13034C8.024 6.43641 8.11522 6.73384 8.26858 6.99948C8.54463 7.47761 8.38031 8.08942 7.90237 8.36569C7.4241 8.64182 6.81231 8.47775 6.53616 7.99948C6.44773 7.8463 6.37083 7.68749 6.30373 7.52487C6.21811 7.58356 6.13512 7.64676 6.05569 7.71432C5.70913 8.00916 5.43354 8.3786 5.251 8.79538C5.0685 9.21225 4.98357 9.66588 5.00198 10.1206C5.00768 10.2608 5.02379 10.4003 5.04885 10.5376C5.37652 10.554 5.68993 10.7304 5.86623 11.0356C6.14239 11.5139 5.97825 12.1256 5.50002 12.4018C4.92818 12.732 4.48125 13.242 4.22854 13.852C3.97596 14.4619 3.93182 15.1382 4.10256 15.7758C4.27348 16.4137 4.64997 16.9783 5.17385 17.3803C5.29245 17.4713 5.41833 17.5508 5.54788 17.6225L4.00686 19.1635C4.00506 19.109 4.00202 19.0541 4.00198 18.9995C3.987 18.9883 3.97094 18.9777 3.95608 18.9663C3.08318 18.2963 2.4558 17.3572 2.17092 16.2944C1.88607 15.2313 1.95976 14.1032 2.38088 13.0864C2.5995 12.5587 2.90541 12.0758 3.28225 11.6567C3.1181 11.1897 3.02317 10.6992 3.00295 10.2016C2.97223 9.44382 3.11484 8.68841 3.41897 7.99362C3.72321 7.29884 4.18208 6.68236 4.75979 6.19089C5.14717 5.86137 5.58136 5.59344 6.0469 5.39597C6.09534 5.07888 6.18116 4.7675 6.30471 4.46921C6.53947 3.90246 6.90115 3.39715 7.36233 2.99265C7.82359 2.58812 8.37227 2.29501 8.96487 2.1362C9.5574 1.97748 10.1787 1.95697 10.7803 2.07663C11.3821 2.19634 11.9488 2.45311 12.4356 2.82663C12.6413 2.98457 12.8296 3.16255 13 3.35593C13.1705 3.16245 13.3595 2.98463 13.5655 2.82663C14.0521 2.45326 14.6182 2.19632 15.2198 2.07663Z" fill="black"/>
<path d="M4 22C11.7837 14.2163 17.1351 8.86491 22 4" stroke="black" stroke-width="2" stroke-linecap="round"/>
</svg>
