<svg width="24" height="24" viewBox="0 0 24 24" fill="none" xmlns="http://www.w3.org/2000/svg">
<path d="M14.2194 1.07652C14.8212 0.956816 15.4427 0.977288 16.0353 1.13609C16.628 1.2949 17.1761 1.588 17.6374 1.99254C18.0986 2.39707 18.4607 2.90229 18.6955 3.4691C18.819 3.76737 18.9044 4.07881 18.9528 4.39586C19.4186 4.59338 19.8533 4.86107 20.2409 5.19078C20.8187 5.68233 21.277 6.2991 21.5812 6.994C21.8854 7.68893 22.0275 8.44405 21.9968 9.20201C21.9765 9.6999 21.8813 10.1902 21.717 10.6576C22.0939 11.0768 22.4007 11.5589 22.6193 12.0868C23.0405 13.1036 23.1141 14.2312 22.8293 15.2943C22.5444 16.3573 21.9167 17.2967 21.0436 17.9667C21.0287 17.9781 21.0132 17.9886 20.9982 17.9999C20.9978 18.4649 20.9345 18.9288 20.8054 19.3778C20.6164 20.0346 20.2944 20.646 19.86 21.1737C19.4258 21.7012 18.888 22.1341 18.28 22.4457C17.6717 22.7573 17.0059 22.9409 16.3239 22.9852C15.6419 23.0295 14.958 22.9334 14.3146 22.703C13.6712 22.4726 13.0816 22.1129 12.5827 21.6459C12.3686 21.4455 12.1746 21.226 11.9997 20.9925C11.8248 21.2259 11.6311 21.4455 11.4172 21.6459C10.9183 22.1129 10.329 22.4726 9.68572 22.703C9.04236 22.9333 8.35837 23.0294 7.67645 22.9852C6.99447 22.941 6.32864 22.7573 5.72039 22.4457C5.11219 22.1341 4.57416 21.7013 4.13982 21.1737C3.70546 20.646 3.38393 20.0346 3.195 19.3778C3.06585 18.9288 3.00203 18.465 3.00164 17.9999C2.98666 17.9886 2.97109 17.9781 2.95623 17.9667C2.08314 17.2967 1.45547 16.3573 1.17059 15.2943C0.885731 14.2312 0.959428 13.1036 1.38055 12.0868C1.59917 11.5589 1.90546 11.0763 2.2824 10.6571C2.11817 10.1899 2.02333 9.69968 2.00311 9.20201C1.97232 8.44407 2.11445 7.68891 2.41863 6.994C2.72288 6.29903 3.18161 5.68236 3.75945 5.19078C4.14687 4.86121 4.58097 4.59335 5.04656 4.39586C5.09501 4.07877 5.18083 3.76739 5.30438 3.4691C5.53916 2.90229 5.90123 2.39707 6.36248 1.99254C6.82374 1.58801 7.37193 1.29491 7.96453 1.13609C8.55719 0.977288 9.17867 0.956816 9.78045 1.07652C10.3822 1.19623 10.9485 1.453 11.4352 1.82652C11.6411 1.98453 11.8292 2.16283 11.9997 2.35631C12.1703 2.16269 12.3591 1.98463 12.5651 1.82652C13.0518 1.45308 13.6177 1.19623 14.2194 1.07652ZM11.0002 4.99986C11.0002 4.69316 10.9293 4.39067 10.7936 4.11558C10.658 3.84043 10.4608 3.59971 10.2175 3.41295C9.97415 3.22629 9.69108 3.09829 9.39031 3.03844C9.08948 2.9786 8.77888 2.98886 8.4826 3.06822C8.18627 3.14762 7.91198 3.29416 7.68133 3.49644C7.45073 3.69871 7.26941 3.95133 7.15203 4.23473C7.03471 4.51809 6.98402 4.82469 7.00408 5.13072C7.02416 5.43685 7.11484 5.73419 7.26824 5.99986C7.54438 6.47814 7.3803 7.08991 6.90203 7.36607C6.42376 7.6422 5.81198 7.47813 5.53582 6.99986C5.44732 6.84658 5.37053 6.68751 5.3034 6.52476C5.21772 6.58349 5.13483 6.6466 5.05535 6.71422C4.70867 7.00916 4.43321 7.3788 4.25066 7.79576C4.06812 8.21274 3.98317 8.66614 4.00164 9.12096C4.00735 9.26115 4.02395 9.40018 4.049 9.53746C4.37672 9.55385 4.68961 9.7307 4.8659 10.036C5.14206 10.5143 4.97845 11.126 4.50018 11.4022C3.92834 11.7324 3.4814 12.2419 3.22869 12.8519C2.97603 13.4619 2.93139 14.1384 3.10223 14.7762C3.27315 15.4141 3.6501 15.9782 4.174 16.3802C4.69787 16.7822 5.33988 16.9998 6.00018 16.9999C6.55234 17 7.0001 17.4477 7.00018 17.9999C7.00015 18.5521 6.55236 18.9998 6.00018 18.9999C5.71331 18.9998 5.42837 18.975 5.14861 18.9266C5.26465 19.282 5.44577 19.6131 5.68377 19.9022C5.94437 20.2188 6.26708 20.4789 6.63201 20.6659C6.99697 20.8528 7.39664 20.9631 7.80584 20.9896C8.215 21.0161 8.62538 20.9584 9.01141 20.8202C9.39743 20.6819 9.75115 20.4661 10.0505 20.1859C10.3498 19.9057 10.5883 19.5669 10.7516 19.1908C10.9149 18.8149 10.9996 18.4096 11.0002 17.9999V13.0799C10.4902 13.4759 9.90798 13.7764 9.28045 13.9598C8.75041 14.1147 8.19519 13.8106 8.04022 13.2806C7.88527 12.7505 8.18936 12.1954 8.71941 12.0404C9.37713 11.8481 9.95475 11.4475 10.3659 10.8993C10.777 10.3511 10.9998 9.68458 11.0002 8.99937V4.99986ZM13.0002 8.99937L13.0026 9.12779C13.0289 9.76754 13.2486 10.3854 13.634 10.8993C14.0451 11.4475 14.6228 11.8481 15.2804 12.0404C15.8105 12.1953 16.1146 12.7505 15.9596 13.2806C15.8047 13.8107 15.2495 14.1148 14.7194 13.9598C14.0921 13.7764 13.51 13.4762 13.0002 13.0804V17.9989L13.0041 18.1522C13.0228 18.5098 13.1053 18.8616 13.2482 19.1908C13.4116 19.5669 13.6505 19.9057 13.9499 20.1859C14.2492 20.4661 14.603 20.682 14.9889 20.8202C15.3749 20.9583 15.7854 21.0162 16.1945 20.9896C16.6036 20.963 17.003 20.8528 17.3679 20.6659C17.7328 20.4789 18.0555 20.2188 18.3161 19.9022C18.5542 19.613 18.7347 19.2817 18.8508 18.9261C18.5712 18.9744 18.2868 18.9998 18.0002 18.9999C17.4479 18.9999 17.0002 18.5521 17.0002 17.9999C17.0002 17.4477 17.4479 16.9999 18.0002 16.9999C18.6605 16.9998 19.3025 16.7822 19.8263 16.3802C20.3502 15.9782 20.7267 15.4141 20.8976 14.7762C21.0685 14.1384 21.0243 13.462 20.7717 12.8519C20.519 12.2419 20.0719 11.7324 19.5002 11.4022C19.0219 11.126 18.8578 10.5143 19.134 10.036C19.3102 9.73073 19.6232 9.55389 19.9509 9.53746C19.9759 9.40017 19.9925 9.26116 19.9982 9.12096C20.0167 8.66614 19.9317 8.21274 19.7492 7.79576C19.5667 7.3789 19.2916 7.00912 18.945 6.71422C18.8654 6.64649 18.7818 6.58357 18.696 6.52476C18.6289 6.68745 18.5525 6.84663 18.464 6.99986C18.1879 7.47814 17.5761 7.64224 17.0978 7.36607C16.6196 7.08989 16.456 6.47812 16.7321 5.99986C16.8855 5.73422 16.9757 5.4368 16.9958 5.13072C17.0159 4.82467 16.9652 4.5181 16.8478 4.23473C16.7304 3.9513 16.5492 3.69872 16.3185 3.49644C16.0879 3.2942 15.814 3.14763 15.5178 3.06822C15.2215 2.98884 14.9109 2.97863 14.61 3.03844C14.3092 3.09828 14.0258 3.22622 13.7824 3.41295C13.539 3.59971 13.3419 3.84043 13.2062 4.11558C13.0876 4.35628 13.0185 4.61798 13.0031 4.88512L13.0002 4.99986V8.99937Z" fill="black"/>
</svg>
