<svg width="24" height="24" viewBox="0 0 24 24" fill="none" xmlns="http://www.w3.org/2000/svg">
<path d="M14.2193 1.07681C14.821 0.957106 15.4425 0.977578 16.0352 1.13638C16.6278 1.29519 17.1759 1.58829 17.6372 1.99283C18.0985 2.39736 18.4605 2.90258 18.6953 3.46939C18.8189 3.76766 18.9042 4.0791 18.9527 4.39615C19.4185 4.59367 19.8532 4.86136 20.2407 5.19107C20.8185 5.68262 21.2769 6.29939 21.5811 6.99429C21.8853 7.68922 22.0274 8.44434 21.9966 9.2023C21.9764 9.70019 21.8812 10.1905 21.7168 10.6579C22.0938 11.0771 22.4005 11.5592 22.6192 12.0871C23.0403 13.1039 23.114 14.2315 22.8291 15.2946C22.5442 16.3576 21.9166 17.297 21.0435 17.9669C21.0286 17.9784 21.0131 17.9889 20.9981 18.0002C20.9977 18.4652 20.9343 18.9291 20.8052 19.3781C20.6163 20.0349 20.2942 20.6463 19.8599 21.174C19.4256 21.7015 18.8879 22.1344 18.2798 22.446C17.6716 22.7575 17.0057 22.9412 16.3238 22.9855C15.6418 23.0298 14.9579 22.9336 14.3145 22.7033C13.671 22.4729 13.0815 22.1132 12.5825 21.6461C12.3685 21.4457 12.1745 21.2263 11.9995 20.9928C11.8247 21.2262 11.631 21.4458 11.417 21.6461C10.9182 22.1131 10.3289 22.4729 9.68557 22.7033C9.04221 22.9336 8.35822 23.0297 7.67629 22.9855C6.99431 22.9412 6.32849 22.7575 5.72024 22.446C5.11204 22.1344 4.57401 21.7016 4.13967 21.174C3.70531 20.6463 3.38378 20.0349 3.19485 19.3781C3.0657 18.9291 3.00187 18.4653 3.00149 18.0002C2.98651 17.9889 2.97094 17.9784 2.95608 17.9669C2.08298 17.297 1.45532 16.3576 1.17043 15.2946C0.885578 14.2315 0.959276 13.1039 1.38039 12.0871C1.59902 11.5592 1.9053 11.0766 2.28225 10.6574C2.11802 10.1902 2.02318 9.69997 2.00295 9.2023C1.97217 8.44436 2.1143 7.6892 2.41848 6.99429C2.72273 6.29932 3.18146 5.68265 3.7593 5.19107C4.14672 4.8615 4.58081 4.59364 5.04641 4.39615C5.09486 4.07906 5.18068 3.76768 5.30422 3.46939C5.539 2.90258 5.90108 2.39736 6.36233 1.99283C6.82359 1.5883 7.37178 1.2952 7.96438 1.13638C8.55704 0.977578 9.17852 0.957106 9.7803 1.07681C10.3821 1.19652 10.9483 1.45329 11.4351 1.82681C11.641 1.98482 11.829 2.16312 11.9995 2.3566C12.1701 2.16298 12.3589 1.98492 12.565 1.82681C13.0517 1.45337 13.6176 1.19652 14.2193 1.07681ZM11 5.00015C11 4.69345 10.9291 4.39096 10.7935 4.11587C10.6578 3.84072 10.4607 3.6 10.2173 3.41324C9.974 3.22658 9.69093 3.09858 9.39016 3.03873C9.08933 2.97889 8.77872 2.98915 8.48245 3.06851C8.18612 3.14791 7.91183 3.29445 7.68118 3.49673C7.45057 3.699 7.26926 3.95162 7.15188 4.23502C7.03456 4.51838 6.98387 4.82498 7.00393 5.13101C7.02401 5.43714 7.11469 5.73448 7.26809 6.00015C7.54423 6.47843 7.38015 7.0902 6.90188 7.36636C6.42361 7.64249 5.81183 7.47842 5.53567 7.00015C5.44717 6.84687 5.37038 6.6878 5.30325 6.52505C5.21756 6.58378 5.13468 6.64689 5.0552 6.71451C4.70851 7.00945 4.43305 7.37909 4.25051 7.79605C4.06797 8.21303 3.98302 8.66643 4.00149 9.12125C4.00719 9.26144 4.02379 9.40047 4.04885 9.53775C4.37657 9.55414 4.68946 9.73099 4.86575 10.0363C5.14191 10.5146 4.9783 11.1263 4.50002 11.4025C3.92818 11.7327 3.48125 12.2422 3.22854 12.8522C2.97587 13.4622 2.93124 14.1387 3.10207 14.7765C3.273 15.4144 3.64995 15.9785 4.17385 16.3805C4.69772 16.7824 5.33973 17.0001 6.00002 17.0002C6.55219 17.0002 6.99995 17.448 7.00002 18.0002C7 18.5524 6.55221 19.0001 6.00002 19.0002C5.71315 19.0001 5.42821 18.9753 5.14846 18.9269C5.26449 19.2823 5.44562 19.6133 5.68362 19.9025C5.94422 20.2191 6.26693 20.4792 6.63186 20.6662C6.99682 20.8531 7.39649 20.9633 7.80569 20.9899C8.21485 21.0164 8.62523 20.9587 9.01126 20.8205C9.39728 20.6822 9.75099 20.4664 10.0503 20.1862C10.3496 19.906 10.5881 19.5672 10.7515 19.1911C10.9147 18.8152 10.9995 18.4099 11 18.0002C11 18.0002 10.9997 16.6896 10.9998 16.0003C11 15.3109 10.9998 15.1156 10.9998 14.5003C10.9998 13.885 10.9997 13.5003 10.9998 13.0003C11 12.5003 11 12.0407 11 11.5003C11 10.9599 10.9998 11.0003 10.9998 10.5003C10.9998 10.0003 10.9996 9.68487 11 8.99966V5.00015ZM13 8.99966C13 8.99966 13.0051 8.25587 13.0025 9.12808C12.9998 10.0003 12.9998 9.00029 12.9998 10.0003C12.9998 11.0003 12.9998 9.98686 12.9998 10.5003C12.9998 11.0137 12.9998 11.5003 12.9998 12.0003C12.9998 12.5003 12.9998 12.963 12.9998 13.5003C12.9998 14.0376 13 14.5807 12.9998 15.0003C12.9997 15.4199 13 17.9992 13 17.9992L13.0039 18.1525C13.0226 18.5101 13.1051 18.8619 13.2481 19.1911C13.4114 19.5672 13.6504 19.9059 13.9497 20.1862C14.249 20.4664 14.6028 20.6823 14.9888 20.8205C15.3748 20.9586 15.7852 21.0164 16.1944 20.9899C16.6035 20.9633 17.0028 20.8531 17.3677 20.6662C17.7327 20.4792 18.0553 20.2191 18.3159 19.9025C18.554 19.6133 18.7346 19.282 18.8506 18.9264C18.5711 18.9747 18.2867 19.0001 18 19.0002C17.4477 19.0002 17 18.5524 17 18.0002C17.0001 17.4479 17.4478 17.0002 18 17.0002C18.6603 17.0001 19.3023 16.7825 19.8262 16.3805C20.3501 15.9785 20.7266 15.4144 20.8975 14.7765C21.0683 14.1387 21.0242 13.4622 20.7715 12.8522C20.5188 12.2422 20.0718 11.7327 19.5 11.4025C19.0218 11.1263 18.8577 10.5146 19.1338 10.0363C19.3101 9.73102 19.623 9.55418 19.9507 9.53775C19.9758 9.40046 19.9924 9.26145 19.9981 9.12125C20.0165 8.66643 19.9316 8.21303 19.749 7.79605C19.5665 7.37919 19.2914 7.00941 18.9448 6.71451C18.8652 6.64678 18.7817 6.58386 18.6958 6.52505C18.6287 6.68774 18.5524 6.84692 18.4639 7.00015C18.1877 7.47843 17.576 7.64253 17.0977 7.36636C16.6194 7.09018 16.4558 6.47841 16.732 6.00015C16.8853 5.73451 16.9756 5.43709 16.9956 5.13101C17.0157 4.82496 16.965 4.51839 16.8477 4.23502C16.7303 3.95159 16.549 3.69901 16.3184 3.49673C16.0878 3.29449 15.8139 3.14792 15.5176 3.06851C15.2213 2.98913 14.9107 2.97892 14.6099 3.03873C14.309 3.09857 14.0256 3.22651 13.7823 3.41324C13.5389 3.6 13.3418 3.84072 13.2061 4.11587C13.0874 4.35657 13.0183 4.61827 13.003 4.88541L13 5.00015V8.99966Z" fill="black"/>
</svg>
