<svg width="160" height="160" viewBox="0 0 160 160" fill="none" xmlns="http://www.w3.org/2000/svg">
<path d="M41.2988 55.6985C41.7863 55.6575 42.3545 55.646 42.8594 55.7541C43.1984 55.8267 43.5282 55.9571 43.7871 56.1858C44.0519 56.4197 44.2267 56.7425 44.2705 57.1633L44.2783 57.2424L44.2393 57.3137C43.674 58.342 42.605 58.7405 41.5361 58.9758C41.0011 59.0936 40.4349 59.1762 39.9199 59.2678C39.3959 59.361 38.9158 59.4646 38.5107 59.6252C33.9389 61.4384 31.2754 64.5 30.083 68.1272C28.8876 71.7638 29.1633 75.994 30.5254 80.1389L30.5898 80.3332L30.4141 80.4387C27.3404 82.2947 24.8447 84.7921 23.6348 88.1438V88.1447C22.5525 91.1001 22.6863 94.3524 24 97.2063L24.1309 97.4807L24.1318 97.4826C25.1369 99.5559 26.348 100.889 27.8105 101.885C29.0973 102.761 30.5852 103.382 32.3242 104.012L33.085 104.283L33.2266 104.333L33.2529 104.481C33.5097 105.92 33.701 106.903 34.374 108.107L34.5156 108.35V108.351C35.5821 110.151 37.3537 111.439 39.4141 111.91H39.416C42.3143 112.591 44.6841 111.705 47.1533 110.23C46.6644 108.156 46.3882 106.038 46.3291 103.909C42.5664 102.544 40.525 99.52 39.9521 96.1125C39.3806 92.7131 40.2668 88.926 42.3496 85.9885C40.9256 83.1403 40.4335 79.1246 42.002 76.2346C42.333 75.6246 42.7469 74.7083 43.2842 73.9699C43.8236 73.2287 44.5443 72.5836 45.5312 72.592H45.584L45.6328 72.6135C45.8136 72.6939 45.931 72.7399 46.0234 72.7785C46.1094 72.8145 46.1936 72.8515 46.2686 72.9113C46.3456 72.9729 46.3977 73.0473 46.4492 73.1242L46.6748 73.4631L46.708 73.511L46.7168 73.5676C46.8636 74.4863 46.5432 75.219 46.1094 75.9065C45.8955 76.2453 45.6425 76.5898 45.4043 76.9348C45.1624 77.2851 44.9262 77.6481 44.7256 78.0471C44.3276 78.8386 44.0641 79.7818 44.2002 81.0442C44.3371 82.3138 44.8807 83.9219 46.127 86.0344L46.2129 86.1809L46.1123 86.3176C43.7925 89.4861 42.6321 92.5803 43.0361 95.2629C43.4369 97.9236 45.3918 100.262 49.5 101.902L49.667 101.969L49.6621 102.148C49.6447 102.789 49.6317 103.43 49.624 104.072C49.5599 109.564 51.9013 114.213 57.2285 116.488C59.5463 117.478 61.7042 117.46 64.2529 117.476L64.373 117.477L64.4492 117.569C66.0998 119.548 67.5646 121.1 69.2783 122.293C70.9879 123.484 72.9571 124.326 75.624 124.866H75.623C79.3947 125.572 83.6219 124.828 86.8291 122.738L87.1367 122.531C87.6438 122.18 88.0451 121.835 88.415 121.518C88.7812 121.204 89.1258 120.908 89.5029 120.679C90.2852 120.204 91.1775 120.035 92.6982 120.368C96.7501 121.257 100.308 120.315 102.822 118.169C105.338 116.022 106.832 112.649 106.714 108.634V108.615L106.716 108.598C106.766 108.145 107 107.777 107.311 107.477C107.619 107.179 108.015 106.935 108.418 106.724C108.82 106.514 109.252 106.325 109.626 106.151C110.01 105.971 110.328 105.808 110.544 105.641C113.466 103.371 114.912 100.582 115.158 97.6428C115.405 94.6973 114.449 91.5748 112.517 88.6477L112.444 88.5373L112.491 88.4143C113.374 86.1026 113.935 84.9495 114.28 82.5774C114.527 80.8844 113.947 79.4143 113.304 78.1985C113.143 77.895 112.98 77.6089 112.825 77.3391C112.671 77.0709 112.524 76.8155 112.399 76.5803C112.276 76.3457 112.168 76.1214 112.1 75.9123C112.031 75.7051 111.993 75.4922 112.025 75.2893L112.035 75.2278L112.071 75.1779C112.276 74.8979 112.416 74.7132 112.597 74.5686C112.777 74.4241 112.988 74.3274 113.309 74.1877L113.35 74.1701L113.394 74.1672C114.506 74.0904 115.241 74.6977 115.742 75.4738C116.236 76.2378 116.533 77.2077 116.774 77.9377C117.853 81.2021 117.63 84.9917 116.047 88.0695C116.161 88.257 116.274 88.445 116.385 88.635H116.386C118.388 92.0063 118.977 96.0115 118.037 99.7981L117.941 100.164C117.246 102.671 116.262 104.505 114.895 106.019C113.557 107.5 111.862 108.662 109.749 109.852C109.694 110.785 109.714 111.726 109.726 112.678C110.823 113.744 111.667 114.152 113.072 114.805L113.414 114.947C115.112 115.633 116.605 115.892 118.482 115.813H118.483C121.247 115.705 123.853 114.512 125.719 112.499C127.935 110.065 128.556 107.163 128.395 103.97L128.386 103.801L128.537 103.727C137.448 99.341 139.997 88.7704 133.302 81.1858C133.164 81.0303 132.84 80.7706 132.4 80.4455C131.968 80.1258 131.449 79.7614 130.942 79.3996C130.438 79.0398 129.944 78.6821 129.569 78.3811C129.382 78.2309 129.219 78.0908 129.098 77.968C129.037 77.9067 128.983 77.845 128.939 77.7854C128.91 77.7444 128.877 77.6916 128.854 77.6311L128.837 77.5676C128.578 76.239 128.659 74.8476 128.628 73.5305C128.597 72.1962 128.454 70.9001 127.782 69.6594L127.777 69.6526L127.774 69.6447C126.495 66.8602 125.026 65.509 123.292 64.6067C122.417 64.1513 121.469 63.8075 120.427 63.4533C119.388 63.1005 118.256 62.7377 117.036 62.2473L116.968 62.2199L116.925 62.1604C116.682 61.8299 116.575 61.5328 116.607 61.219C116.638 60.9264 116.79 60.6566 116.949 60.385L116.979 60.3342L117.026 60.302C117.734 59.8225 118.59 59.7472 119.376 59.8567C127.862 61.0387 132.622 68.2753 132.014 76.2014C137.072 78.8836 139.811 84.0262 140.207 89.3586C140.607 94.7428 138.622 100.353 134.189 103.86C133.373 104.505 132.617 105.038 131.756 105.605C131.261 108.512 130.878 111.084 129.008 113.62C125.874 117.868 120.516 119.58 115.4 118.773C112.748 118.354 110.686 117.412 108.556 115.91C106.754 119.346 104.324 121.608 101.396 122.826C98.4324 124.059 94.986 124.212 91.2148 123.471C90.54 124.106 89.8133 124.645 89.043 125.137L88.6934 125.356C84.2319 128.078 78.8537 128.929 73.7539 127.721V127.72C71.8684 127.281 69.6785 126.338 67.708 125.105C65.784 123.901 64.0474 122.406 63.0078 120.812C59.8836 120.611 57.1122 120.067 54.7021 118.867C52.3178 117.681 50.3028 115.86 48.6484 113.129C45.0238 115.265 41.1468 115.886 37.834 114.885C34.4769 113.871 31.7402 111.204 30.4531 106.861C26.7478 105.487 23.8613 103.289 22.0225 100.422C20.1626 97.5225 19.3858 93.959 19.8965 89.9192C20.5004 85.1436 22.9201 82.0295 26.6787 79.2112C26.6602 79.1178 26.6411 79.0245 26.624 78.9309C25.619 73.422 26.1289 68.1535 28.4199 63.9924C30.7158 59.8228 34.7849 56.7938 40.8311 55.7473L40.8438 55.7453L41.2988 55.6985Z" fill="black" stroke="black" stroke-width="0.514286"/>
<path d="M78.4505 89.5733C79.6155 89.498 81.574 89.4475 83.1322 89.9639C83.9167 90.224 84.6598 90.6474 85.1283 91.3418C85.6076 92.0527 85.7448 92.9659 85.473 94.0811C85.2517 94.9887 84.6166 95.7428 83.9134 96.3369C83.2991 96.856 82.5912 97.2821 81.9554 97.6162C81.9671 98.5222 81.9936 99.4422 82.015 100.357C83.6104 102.148 84.9923 103.036 86.1771 103.4C87.3793 103.77 88.4315 103.619 89.3812 103.247C90.3504 102.867 91.1913 102.269 91.9896 101.734C92.3779 101.475 92.767 101.223 93.14 101.046C93.4638 100.893 93.8194 100.774 94.1869 100.777L94.3451 100.787L94.5082 100.805L94.6302 100.914C95.5564 101.736 95.791 103.121 94.9203 104.151L94.9193 104.15C93.3224 106.041 90.9785 106.977 88.6146 107.241C88.313 109.285 87.8966 111.395 86.93 113.102C85.881 114.953 84.1958 116.31 81.4261 116.659C80.6307 116.838 79.6596 116.814 78.7415 116.644C77.8157 116.472 76.8853 116.143 76.1986 115.666C73.1531 113.553 72.5166 110.333 71.9417 107.231C70.7224 107.18 68.9792 106.804 67.5121 106.075C65.8804 105.264 64.3575 103.885 64.6507 101.841C64.7625 101.062 65.433 100.807 65.7503 100.658L65.8548 100.609H65.9701C66.4329 100.611 66.839 100.782 67.1888 101.005C67.5345 101.225 67.8575 101.516 68.1537 101.793C68.7834 102.382 69.3007 102.902 69.9027 103.119C71.6634 103.755 73.1692 103.605 74.5238 103.005C75.8472 102.419 77.0452 101.392 78.1908 100.188L78.2259 97.751C78.1943 97.7324 78.1617 97.7141 78.1302 97.6953C77.1301 97.1011 76.2526 96.4092 75.5921 95.6768C74.937 94.9502 74.4645 94.1484 74.3392 93.334C74.2092 92.4884 74.4629 91.6763 75.1624 91.0127C75.8387 90.3715 76.9062 89.8902 78.3792 89.583L78.4144 89.5762L78.4505 89.5733ZM81.3324 116.153C81.2435 116.174 81.1516 116.192 81.057 116.207L81.3324 116.154C81.4961 116.134 81.6554 116.109 81.8109 116.082C81.6554 116.109 81.496 116.133 81.3324 116.153ZM81.3734 104.431C81.3982 106.365 82.1078 110.209 79.8275 110.7C77.5516 109.569 79.3875 105.421 78.4085 104.573C77.3679 105.177 76.0941 105.974 74.9984 106.422C75.843 110.649 75.8694 112.44 80.3675 113.854C81.2685 113.551 82.391 113.246 83.098 112.644L83.1898 112.566C83.9394 111.923 84.3445 110.981 84.7582 110.09L85.6664 106.521C84.1316 106.039 82.7278 105.285 81.3734 104.431ZM73.3001 103.931C73.1021 103.969 72.9009 103.998 72.6966 104.018L73.0013 103.981C73.1017 103.967 73.2013 103.95 73.3001 103.931ZM65.5619 101.331C65.5533 101.336 65.5458 101.343 65.5374 101.349C65.5861 101.317 65.6371 101.286 65.6908 101.258L65.5619 101.331ZM77.5345 96.6953C77.8063 96.8886 78.0931 97.0758 78.3929 97.2539C78.5093 97.3231 78.627 97.3909 78.7445 97.458C78.6269 97.3908 78.5093 97.3221 78.3929 97.253C78.0932 97.0749 77.8063 96.8883 77.5345 96.6953ZM81.4359 97.3086C81.5832 97.2352 81.7342 97.1544 81.889 97.0703C81.7342 97.1544 81.5831 97.2352 81.4359 97.3086ZM82.058 96.9785C82.088 96.9617 82.1177 96.944 82.1478 96.9268C82.1177 96.944 82.088 96.9617 82.058 96.9785ZM82.3665 96.7979C82.4045 96.7751 82.4429 96.7529 82.4808 96.7295C82.4429 96.7529 82.4045 96.7751 82.3665 96.7979Z" fill="black"/>
<path d="M66.3276 35.0266C66.8646 34.942 67.7363 34.9362 68.7056 35.0217C69.682 35.1078 70.7776 35.2872 71.7583 35.5822C72.7304 35.8747 73.6266 36.2916 74.1685 36.8733C74.4437 37.1687 74.6343 37.5145 74.687 37.9113C74.7396 38.3083 74.6506 38.73 74.4146 39.1721L74.3823 39.2336L74.3237 39.2697C73.9911 39.476 73.5795 39.4873 73.1548 39.4231C72.7265 39.3583 72.234 39.2089 71.7065 39.0373C70.6377 38.6897 69.3842 38.242 68.0112 38.1037C66.6472 37.9664 65.1748 38.136 63.6792 39.0256C62.1795 39.9177 60.6334 41.547 59.1519 44.3703L59.0825 44.5041L58.9321 44.508C56.7971 44.5707 55.2135 44.6697 53.8579 45.1975C52.522 45.7177 51.3835 46.665 50.1763 48.4787C49.6942 49.4738 49.5724 50.5888 49.397 51.717C49.2243 52.8275 48.9979 53.9538 48.2505 54.8352C48.1004 55.012 47.915 55.0805 47.7319 55.093C47.5653 55.1043 47.3931 55.0686 47.2632 55.0432L47.2017 55.0315L47.1528 54.9934C46.4424 54.433 46.1117 53.6171 46.0405 52.7785L46.0415 52.7776C45.4965 48.2261 48.7954 43.3247 53.2466 42.0656C54.1362 41.814 54.8234 41.6754 55.3784 41.5578C55.9381 41.4392 56.347 41.3447 56.7104 41.1848C57.4172 40.8738 57.9941 40.296 59.0669 38.6252C59.7447 37.5696 60.9632 36.7569 62.2896 36.1682C63.6217 35.5769 65.0963 35.1963 66.3276 35.0256V35.0266Z" fill="black" stroke="black" stroke-width="0.514286"/>
<path d="M96.1626 37.5152C98.9558 37.3558 101.345 37.8305 103.352 38.979C105.326 40.109 106.909 41.8804 108.142 44.2964C110.934 44.6905 113.585 45.9596 115.415 47.9126C117.278 49.9026 118.284 52.5985 117.708 55.7681C117.656 56.0591 117.486 56.2638 117.299 56.4107C117.118 56.553 116.903 56.6544 116.739 56.7339L116.677 56.7642L116.609 56.7593C116.152 56.7268 115.789 56.6189 115.505 56.438C115.219 56.2553 115.032 56.0087 114.909 55.729C114.788 55.4539 114.729 55.1467 114.694 54.8384C114.66 54.5366 114.644 54.2098 114.625 53.8999C114.123 51.3563 113.116 49.8898 111.692 48.9683C110.245 48.0323 108.339 47.6363 105.993 47.3072L105.846 47.2867L105.791 47.1499C104.884 44.9184 103.59 43.033 101.905 41.899C100.23 40.772 98.1471 40.3708 95.6138 41.1402C94.9548 41.3402 93.8251 41.6065 92.9556 41.4917C92.5203 41.4342 92.0907 41.273 91.8491 40.896C91.6055 40.5158 91.6045 39.9974 91.8335 39.3501L91.8521 39.2984L91.8901 39.2583C92.4397 38.6845 93.1453 38.346 93.8794 38.104C94.604 37.8652 95.4041 37.7069 96.1128 37.523L96.1372 37.5171L96.1626 37.5152Z" fill="black" stroke="black" stroke-width="0.514286"/>
<path d="M60.4856 75.2934C61.5908 74.9082 62.7957 74.9056 63.9026 75.2856C65.9576 75.9911 67.3437 77.8924 67.3694 80.0395C67.3952 82.1864 66.0552 84.1191 64.0178 84.8725C61.3286 85.8669 58.3338 84.5052 57.3518 81.8422C56.37 79.1791 57.7779 76.2368 60.4856 75.2934ZM61.3508 76.9321C60.9541 76.796 60.5223 76.7969 60.1262 76.935C59.1558 77.2734 58.6502 78.3281 59.0022 79.2826C59.1769 79.7564 59.5306 80.1142 59.9592 80.3119C60.0058 79.4745 60.5523 78.706 61.4045 78.4086C61.7781 78.2784 62.1792 78.2537 62.5637 78.3315C62.4461 77.691 61.9885 77.151 61.3508 76.9321Z" fill="black"/>
<path d="M92.0651 75.2929C93.1704 74.9076 94.3753 74.9051 95.4821 75.2851C97.5372 75.9906 98.9242 77.8919 98.9499 80.039C98.9757 82.186 97.6349 84.1187 95.5973 84.872C92.9081 85.8663 89.9133 84.5046 88.9313 81.8417C87.9496 79.1786 89.3575 76.2363 92.0651 75.2929ZM92.9313 76.9306C92.5346 76.7944 92.1019 76.7954 91.7057 76.9335C90.7354 77.2718 90.231 78.3267 90.5827 79.2812C90.7574 79.7549 91.1102 80.1137 91.5388 80.3114C91.5853 79.4737 92.1314 78.7044 92.9841 78.4071C93.3577 78.2769 93.7587 78.2522 94.1432 78.33C94.0255 77.6899 93.5688 77.1495 92.9313 76.9306Z" fill="black"/>
<path d="M72.6514 30.886C73.5808 30.8693 74.7674 31.1703 75.9609 31.6692C77.159 32.1701 78.3875 32.8807 79.4023 33.7073C80.4127 34.5303 81.2345 35.487 81.584 36.4866C81.7601 36.9902 81.8181 37.5088 81.7139 38.0247C81.6095 38.5413 81.3459 39.039 80.9062 39.5042L80.833 39.5813L80.7266 39.5843C80.2564 39.5966 80.0979 39.5341 79.6826 39.428L79.6318 39.4153L79.5898 39.3831C78.9529 38.8927 78.6431 38.2658 78.3613 37.6692C78.0757 37.0643 77.8177 36.4895 77.2988 35.9886C76.946 35.648 76.4941 35.3917 75.9863 35.1721C75.4758 34.9514 74.9317 34.7761 74.3848 34.5823C73.3257 34.207 72.2281 33.758 71.7617 32.7415L71.7373 32.6878L71.7383 32.6292C71.7522 31.8761 72.0866 31.5102 72.4453 30.9964L72.5195 30.8889L72.6514 30.886Z" fill="black" stroke="black" stroke-width="0.514286"/>
<path d="M91.917 32.8659C92.4123 32.839 93.3848 32.7058 94.2168 32.778C94.6366 32.8144 95.0584 32.9047 95.3896 33.1081C95.6916 33.2936 95.9122 33.57 95.9873 33.9538L96.0098 34.1257L96.0107 34.1276C96.041 34.5595 96.058 34.9761 95.8906 35.3015C95.7066 35.6589 95.3427 35.8425 94.8047 35.9352C93.9558 36.0817 93.2783 36.162 92.7178 36.239C92.1529 36.3165 91.7113 36.391 91.3076 36.5251C90.5195 36.7869 89.8366 37.2878 88.707 38.6052C88.5502 38.8261 88.4204 39.0181 88.3027 39.1706C88.181 39.3283 88.0584 39.4633 87.9092 39.571C87.6046 39.7907 87.2343 39.8604 86.6475 39.9011L86.5752 39.9059L86.5117 39.8727C85.8745 39.5443 85.579 39.0399 85.5391 38.4753C85.5007 37.931 85.7002 37.358 85.9863 36.8591C87.2573 34.6435 89.5789 33.5797 91.8555 32.8766L91.8857 32.8669L91.917 32.8659Z" fill="black" stroke="black" stroke-width="0.514286"/>
</svg>
