<svg width="120" height="100" viewBox="0 0 120 100" fill="none" xmlns="http://www.w3.org/2000/svg">
<g clip-path="url(#clip0_1754_52021)">
<path fill-rule="evenodd" clipRule="evenodd" d="M38.4358 0.25641V0.512821H37.923H37.4101V0.769231V1.02564H37.1537H36.8973V3.33333V5.64103H36.6409H36.3845V9.48718V13.3333H36.1281H35.8717V17.1795V21.0256H35.6153H35.3589V24.8718V28.7179H35.1024H34.846V32.5641V36.4103H34.5896H34.3332V39.2308V42.0513H34.5896H34.846V42.3077V42.5641H35.3589H35.8717V42.8205V43.0769H36.3845H36.8973V44.359V45.641H37.4101H37.923V45.8974V46.1538H37.4101H36.8973V46.4103V46.6667H36.3845H35.8717V46.9231V47.1795H35.3589H34.846V47.4359V47.6923H34.3332H33.8204V47.9487V48.2051H33.0512H32.2819V48.4615V48.7179H31.7691H31.2563V48.9744V49.2308H30.7435H30.2307V49.4872V49.7436H29.7178H29.205V50V50.2564H28.4358H27.6665V50.5128V50.7692H27.1537H26.6409V51.0256V51.2821H26.1281H25.6153V51.5385V51.7949H25.3589H25.1024V54.1026V56.4103H24.846H24.5896V56.6667V56.9231H24.846H25.1024V57.1795V57.4359H24.5896H24.0768V57.6923V57.9487H24.5896H25.1024V59.4872V61.0256H25.3589H25.6153V61.5385V62.0513H25.8717H26.1281V62.3077V62.5641H27.6665H29.205V62.8205V63.0769H30.9999H32.7948V63.3333V63.5897H34.3332H35.8717V63.8462V64.1026H37.6665H39.4614V64.359V64.6154H40.9999H42.5383V64.8718V65.1282H44.3332H46.1281V65.3846V65.641H47.6666H49.205V65.8974V66.1538H50.9999H52.7948V66.4103V66.6667H54.5896H56.3845V66.9231V67.1795H57.923H59.4614V67.4359V67.6923H61.2563H63.0512V67.9487V68.2051H64.5896H66.1281V68.4615V68.7179H67.923H69.7178V68.9744V69.2308H71.2563H72.7948V69.4872V69.7436H74.5896H76.3845V70V70.2564H78.1794H79.9742V70.5128V70.7692H81.5127H83.0512V70.5128V70.2564H83.3076H83.564V70V69.7436H84.846H86.1281V69.4872V69.2308H86.3845H86.6409V68.9744V68.7179H87.1537H87.6666V68.2051V67.6923H87.923H88.1794V66.9231V66.1538H88.4358H88.6922V65.8974V65.641H88.9486H89.205V65.3846V65.1282H89.7178H90.2307V64.8718V64.6154H90.4871H90.7435V64.359V64.1026H90.9999H91.2563V63.8462V63.5897H91.5127H91.7691V63.3333V63.0769H92.2819H92.7948V62.8205V62.5641H93.0512H93.3076V62.3077V62.0513H93.564H93.8204V61.7949V61.5385H94.0768H94.3332V61.2821V61.0256H94.846H95.3589V60.7692V60.5128H95.6153H95.8717V60.2564V60H96.1281H96.3845V59.7436V59.4872H96.6409H96.8973V59.2308V58.9744H97.4101H97.923V58.7179V58.4615H98.1794H98.4358V58.2051V57.9487H98.6922H98.9486V57.6923V57.4359H99.7178H100.487V57.1795V56.9231H101H101.513V56.6667V56.4103H101.769H102.026V56.1538V55.8974H102.282H102.538V55.3846V54.8718H102.795H103.051V54.6154V54.359H103.308H103.564V49.2308V44.1026H101.513H99.4614V43.8462V43.5897H95.6153H91.7691V43.3333V43.0769H89.9743H88.1794V42.3077V41.5385H88.6922H89.205V41.2821V41.0256H89.7178H90.2307V40.7692V40.5128H90.4871H90.7435V40.2564V40H91.2563H91.7691V39.7436V39.4872H92.2819H92.7948V39.2308V38.9744H93.0512H93.3076V38.7179V38.4615H93.8204H94.3332V38.2051V37.9487H94.846H95.3589V37.6923V37.4359H95.8717H96.3845V37.1795V36.9231H96.6409H96.8973V33.8462V30.7692H97.1537H97.4101V24.8718V18.9744H97.6666H97.923V14.6154V10.2564H96.3845H94.846V10V9.74359H92.5384H90.2307V8.46154V7.17949H90.4871H90.7435V5.12821V3.07692H89.9743H89.205V2.82051V2.5641H85.3589H81.5127V2.30769V2.05128H77.4101H73.3076V1.79487V1.53846H69.205H65.1024V1.28205V1.02564H61.2563H57.4101V0.769231V0.512821H53.3076H49.205V0.25641V0H43.8204H38.4358V0.25641ZM44.5896 0.769231V1.02564H46.6409H48.6922V0.769231V0.512821H46.6409H44.5896V0.769231ZM37.4101 3.33333V5.64103H37.1537H36.8973V9.48718V13.3333H36.6409H36.3845V17.1795V21.0256H36.1281H35.8717V24.8718V28.7179H35.6153H35.3589V32.5641V36.4103H35.1024H34.846V39.2308V42.0513H35.3589H35.8717V42.3077V42.5641H37.923H39.9742V42.8205V43.0769H38.6922H37.4101V44.1026V45.1282H38.6922H39.9742V45.3846V45.641H41.7691H43.564V45.8974V46.1538H41.7691H39.9742V46.4103V46.6667H39.4614H38.9486V46.9231V47.1795H38.4358H37.923V47.4359V47.6923H38.9486H39.9742V47.9487V48.2051H38.4358H36.8973V48.9744V49.7436H38.1794H39.4614V50V50.2564H37.923H36.3845V48.9744V47.6923H35.8717H35.3589V47.9487V48.2051H34.846H34.3332V48.4615V48.7179H33.564H32.7948V48.9744V49.2308H32.2819H31.7691V49.4872V49.7436H31.2563H30.7435V50V50.2564H30.2307H29.7178V50.5128V50.7692H28.9486H28.1794V51.0256V51.2821H28.4358H28.6922V51.5385V51.7949H29.9742H31.2563V52.0513V52.3077H32.7948H34.3332V52.5641V52.8205H35.8717H37.4101V53.0769V53.3333H38.6922H39.9742V53.5897V53.8462H41.5127H43.0512V54.1026V54.359H44.846H46.6409V54.6154V54.8718H48.4358H50.2307V55.1282V55.3846H52.0255H53.8204V55.641V55.8974H55.6153H57.4101V56.1538V56.4103H59.205H60.9999V56.6667V56.9231H62.7948H64.5896V57.1795V57.4359H67.1537H69.7178V57.6923V57.9487H72.2819H74.846V58.2051V58.4615H77.4101H79.9742V58.7179V58.9744H81.5127H83.0512V58.7179V58.4615H83.564H84.0768V58.2051V57.9487H84.3332H84.5896V57.6923V57.4359H85.1025H85.6153V57.6923V57.9487H85.3589H85.1025V58.2051V58.4615H84.846H84.5896V58.7179V58.9744H84.3332H84.0768V59.2308V59.4872H83.8204H83.564V64.359V69.2308H83.8204H84.0768V67.6923V66.1538H84.3332H84.5896V64.8718V63.5897H84.846H85.1025V65.1282V66.6667H84.846H84.5896V67.4359V68.2051H85.1025H85.6153V67.9487V67.6923H85.8717H86.1281V67.4359V67.1795H86.3845H86.6409V66.9231V66.6667H87.1537H87.6666V65.3846V64.1026H87.4101H87.1537V63.0769V62.0513H86.8973H86.6409V61.7949V61.5385H87.1537H87.6666V62.5641V63.5897H87.923H88.1794V64.359V65.1282H88.4358H88.6922V64.8718V64.6154H89.205H89.7178V64.359V64.1026H89.9743H90.2307V63.8462V63.5897H90.4871H90.7435V63.3333V63.0769H90.9999H91.2563V62.8205V62.5641H91.7691H92.2819V62.3077V62.0513H92.5384H92.7948V61.7949V61.5385H93.0512H93.3076V61.2821V61.0256H93.564H93.8204V60.7692V60.5128H94.3332H94.846V60.2564V60H95.1025H95.3589V59.7436V59.4872H95.6153H95.8717V59.2308V58.9744H96.1281H96.3845V58.7179V58.4615H96.8973H97.4101V58.2051V57.9487H97.6666H97.923V57.6923V57.4359H98.1794H98.4358V57.1795V56.9231H98.6922H98.9486V56.6667V56.4103H99.205H99.4614V54.359V52.3077H99.7178H99.9743V51.7949V51.2821H100.231H100.487V52.0513V52.8205H100.231H99.9743V54.359V55.8974H100.487H101V55.641V55.3846H101.256H101.513V55.1282V54.8718H101.769H102.026V54.6154V54.359H102.282H102.538V53.0769V51.7949H102.282H102.026V51.2821V50.7692H101.769H101.513V50.2564V49.7436H101.769H102.026V50V50.2564H102.282H102.538V50.7692V51.2821H102.795H103.051V48.4615V45.641H102.795H102.538V45.8974V46.1538H102.026H101.513V45.8974V45.641H101.769H102.026V45.1282V44.6154H100.743H99.4614V44.359V44.1026H95.6153H91.7691V43.8462V43.5897H89.9743H88.1794V44.1026V44.6154H88.4358H88.6922V44.8718V45.1282H90.4871H92.2819V45.3846V45.641H93.0512H93.8204V45.8974V46.1538H93.564H93.3076V46.4103V46.6667H92.7948H92.2819V46.9231V47.1795H92.0255H91.7691V47.4359V47.6923H91.2563H90.7435V48.2051V48.7179H90.2307H89.7178V48.4615V48.2051H88.1794H86.6409V47.9487V47.6923H85.8717H85.1025V47.9487V48.2051H84.5896H84.0768V48.7179V49.2308H84.3332H84.5896V49.4872V49.7436H84.846H85.1025V51.0256V52.3077H84.846H84.5896V52.5641V52.8205H84.3332H84.0768V53.0769V53.3333H83.8204H83.564V53.5897V53.8462H83.3076H83.0512V54.1026V54.359H82.7948H82.5384V54.6154V54.8718H82.0255H81.5127V55.1282V55.3846H78.6922H75.8717V55.1282V54.8718H78.1794H80.4871V54.1026V53.3333H78.9486H77.4101V53.0769V52.8205H79.4614H81.5127V53.0769V53.3333H81.2563H80.9999V53.8462V54.359H81.5127H82.0255V54.1026V53.8462H82.2819H82.5384V53.5897V53.3333H82.7948H83.0512V53.0769V52.8205H83.3076H83.564V52.5641V52.3077H83.8204H84.0768V52.0513V51.7949H84.3332H84.5896V51.2821V50.7692H84.3332H84.0768V50.2564V49.7436H83.8204H83.564V49.4872V49.2308H82.7948H82.0255V49.4872V49.7436H81.7691H81.5127V50V50.2564H78.9486H76.3845V50V49.7436H74.0768H71.7691V49.4872V49.2308H69.4614H67.1537V48.9744V48.7179H69.7178H72.2819V48.9744V49.2308H73.0512H73.8204V48.9744V48.7179H73.564H73.3076V47.9487V47.1795H72.5383H71.7691V46.9231V46.6667H74.0768H76.3845V46.9231V47.1795H75.1025H73.8204V47.6923V48.2051H74.0768H74.3332V48.4615V48.7179H75.3589H76.3845V47.9487V47.1795H78.6922H80.9999V47.4359V47.6923H81.2563H81.5127V47.4359V47.1795H81.7691H82.0255V46.9231V46.6667H82.2819H82.5384V43.8462V41.0256H82.7948H83.0512V44.1026V47.1795H83.3076H83.564V46.9231V46.6667H84.0768H84.5896V46.4103V46.1538H84.846H85.1025V45.8974V45.641H85.6153H86.1281V45.3846V45.1282H86.6409H87.1537V44.8718V44.6154H87.4101H87.6666V42.5641V40.5128H87.923H88.1794V40.7692V41.0256H88.4358H88.6922V40.7692V40.5128H89.205H89.7178V40.2564V40H89.9743H90.2307V39.7436V39.4872H90.7435H91.2563V39.2308V38.9744H91.7691H92.2819V38.7179V38.4615H92.5384H92.7948V38.2051V37.9487H93.3076H93.8204V37.6923V37.4359H94.3332H94.846V37.1795V36.9231H95.3589H95.8717V36.6667V36.4103H96.1281H96.3845V36.1538V35.8974H95.8717H95.3589V36.1538V36.4103H94.846H94.3332V36.6667V36.9231H93.8204H93.3076V37.1795V37.4359H92.7948H92.2819V37.6923V37.9487H91.7691H91.2563V38.2051V38.4615H90.9999H90.7435V38.7179V38.9744H90.2307H89.7178V39.2308V39.4872H89.205H88.6922V40V40.5128H88.4358H88.1794V36.4103V32.3077H88.4358H88.6922V32.5641V32.8205H88.9486H89.205V32.5641V32.3077H89.7178H90.2307V32.0513V31.7949H90.9999H91.7691V31.5385V31.2821H92.2819H92.7948V31.0256V30.7692H93.3076H93.8204V30.5128V30.2564H94.3332H94.846V30V29.7436H95.6153H96.3845V30V30.2564H95.8717H95.3589V30.5128V30.7692H94.846H94.3332V31.0256V31.2821H93.8204H93.3076V31.5385V31.7949H92.7948H92.2819V32.0513V32.3077H91.5127H90.7435V32.5641V32.8205H90.2307H89.7178V33.0769V33.3333H89.205H88.6922V33.8462V34.359H88.9486H89.205V34.1026V33.8462H89.7178H90.2307V33.5897V33.3333H90.7435H91.2563V33.0769V32.8205H91.7691H92.2819V32.5641V32.3077H93.0512H93.8204V32.0513V31.7949H94.3332H94.846V31.5385V31.2821H95.3589H95.8717V31.0256V30.7692H96.1281H96.3845V30.5128V30.2564H96.6409H96.8973V28.2051V26.1538H96.1281H95.3589V26.4103V26.6667H94.846H94.3332V26.9231V27.1795H93.564H92.7948V27.4359V27.6923H92.0255H91.2563V27.9487V28.2051H90.4871H89.7178V28.4615V28.7179H89.4614H89.205V28.9744V29.2308H89.9743H90.7435V28.9744V28.7179H91.2563H91.7691V28.4615V28.2051H92.5384H93.3076V27.9487V27.6923H94.0768H94.846V27.4359V27.1795H95.3589H95.8717V26.9231V26.6667H96.1281H96.3845V27.1795V27.6923H95.8717H95.3589V27.9487V28.2051H94.5896H93.8204V28.4615V28.7179H93.0512H92.2819V28.9744V29.2308H91.7691H91.2563V29.4872V29.7436H90.4871H89.7178V30V30.2564H89.4614H89.205V30.5128V30.7692H89.9743H90.7435V30.5128V30.2564H91.2563H91.7691V30V29.7436H92.2819H92.7948V29.4872V29.2308H93.564H94.3332V28.9744V28.7179H94.846H95.3589V28.4615V28.2051H95.8717H96.3845V28.4615V28.7179H96.1281H95.8717V28.9744V29.2308H95.3589H94.846V29.4872V29.7436H94.0768H93.3076V30V30.2564H92.7948H92.2819V30.5128V30.7692H91.7691H91.2563V31.0256V31.2821H90.4871H89.7178V31.5385V31.7949H89.4614H89.205V32.0513V32.3077H88.9486H88.6922V28.2051V24.1026H88.9486H89.205V24.359V24.6154H90.2307H91.2563V24.359V24.1026H92.0255H92.7948V23.8462V23.5897H93.564H94.3332V23.3333V23.0769H95.1025H95.8717V22.8205V22.5641H96.3845H96.8973V22.3077V22.0513H96.1281H95.3589V22.3077V22.5641H94.3332H93.3076V22.8205V23.0769H92.5384H91.7691V23.3333V23.5897H90.7435H89.7178V23.8462V24.1026H89.4614H89.205V20V15.8974H89.4614H89.7178V16.4103V16.9231H90.7435H91.7691V16.6667V16.4103H93.3076H94.846V16.1538V15.8974H95.8717H96.8973V16.1538V16.4103H96.1281H95.3589V16.6667V16.9231H93.8204H92.2819V17.1795V17.4359H90.9999H89.7178V17.9487V18.4615H90.7435H91.7691V18.2051V17.9487H93.0512H94.3332V17.6923V17.4359H95.6153H96.8973V17.6923V17.9487H95.8717H94.846V18.2051V18.4615H93.564H92.2819V18.7179V18.9744H90.9999H89.7178V19.4872V20H90.4871H91.2563V19.7436V19.4872H92.5384H93.8204V19.2308V18.9744H94.846H95.8717V18.7179V18.4615H96.6409H97.4101V16.6667V14.8718H96.8973H96.3845V15.1282V15.3846H94.5896H92.7948V15.641V15.8974H91.2563H89.7178V11.5385V7.17949H89.9743H90.2307V5.64103V4.10256H87.923H85.6153V6.66667V9.23077H85.3589H85.1025V6.66667V4.10256H84.5896H84.0768V3.84615V3.58974H80.2307H76.3845V3.33333V3.07692H72.2819H68.1794V2.82051V2.5641H64.3332H60.4871V2.30769V2.05128H56.3845H52.2819V1.79487V1.53846H48.1794H44.0768V1.28205V1.02564H40.7435H37.4101V3.33333ZM52.7948 1.28205V1.53846H54.846H56.8973V1.28205V1.02564H54.846H52.7948V1.28205ZM60.9999 1.79487V2.05128H62.7948H64.5896V1.79487V1.53846H62.7948H60.9999V1.79487ZM68.6922 2.30769V2.5641H70.7435H72.7948V2.30769V2.05128H70.7435H68.6922V2.30769ZM76.8973 2.82051V3.07692H78.9486H80.9999V2.82051V2.5641H78.9486H76.8973V2.82051ZM84.5896 3.33333V3.58974H86.6409H88.6922V3.33333V3.07692H86.6409H84.5896V3.33333ZM43.0512 7.94872V8.20513H42.5383H42.0255V8.71795V9.23077H42.2819H42.5383V10.5128V11.7949H42.2819H42.0255V15.1282V18.4615H41.7691H41.5127V21.7949V25.1282H41.2563H40.9999V28.4615V31.7949H40.7435H40.4871V33.5897V35.3846H40.7435H40.9999V35.8974V36.4103H41.2563H41.5127V36.1538V35.8974H41.7691H42.0255V36.1538V36.4103H44.5896H47.1537V36.6667V36.9231H49.7178H52.2819V37.1795V37.4359H54.5896H56.8973V37.6923V37.9487H59.4614H62.0255V38.2051V38.4615H64.3332H66.6409V38.7179V38.9744H69.205H71.7691V39.2308V39.4872H73.8204H75.8717V39.2308V38.9744H76.1281H76.3845V38.7179V38.4615H76.6409H76.8973V34.8718V31.2821H77.1537H77.4101V27.1795V23.0769H77.6666H77.923V18.9744V14.8718H78.1794H78.4358V12.5641V10.2564H78.1794H77.923V10V9.74359H75.3589H72.7948V9.48718V9.23077H69.205H65.6153V8.97436V8.71795H61.7691H57.923V8.46154V8.20513H54.3332H50.7435V7.94872V7.69231H46.8973H43.0512V7.94872ZM44.0768 9.48718V10.7692H43.8204H43.564V9.74359V8.71795H43.3076H43.0512V9.74359V10.7692H43.3076H43.564V13.5897V16.4103H43.3076H43.0512V14.1026V11.7949H42.7948H42.5383V14.1026V16.4103H42.7948H43.0512V19.2308V22.0513H42.7948H42.5383V20.2564V18.4615H42.2819H42.0255V20.2564V22.0513H42.2819H42.5383V24.8718V27.6923H42.2819H42.0255V26.4103V25.1282H41.7691H41.5127V26.4103V27.6923H41.7691H42.0255V31.2821V34.8718H42.2819H42.5383V35.1282V35.3846H45.1024H47.6666V35.641V35.8974H49.9742H52.2819V36.1538V36.4103H54.5896H56.8973V36.6667V36.9231H59.4614H62.0255V37.1795V37.4359H64.3332H66.6409V37.6923V37.9487H68.9486H71.2563V38.2051V38.4615H73.564H75.8717V38.2051V37.9487H76.1281H76.3845V34.6154V31.2821H76.6409H76.8973V27.1795V23.0769H77.1537H77.4101V18.9744V14.8718H77.6666H77.923V12.8205V10.7692H77.6666H77.4101V10.5128V10.2564H74.846H72.2819V10V9.74359H68.6922H65.1024V9.48718V9.23077H61.2563H57.4101V8.97436V8.71795H53.8204H50.2307V8.46154V8.20513H47.1537H44.0768V9.48718ZM84.5896 13.3333V17.4359H84.3332H84.0768V21.2821V25.1282H83.8204H83.564V29.2308V33.3333H83.3076H83.0512V37.1795V41.0256H83.3076H83.564V37.1795V33.3333H83.8204H84.0768V29.2308V25.1282H84.3332H84.5896V21.2821V17.4359H84.846H85.1025V13.3333V9.23077H84.846H84.5896V13.3333ZM90.2307 10.5128V10.7692H92.2819H94.3332V10.5128V10.2564H92.2819H90.2307V10.5128ZM90.2307 11.7949V12.3077H91.7691H93.3076V12.0513V11.7949H95.3589H97.4101V11.5385V11.2821H93.8204H90.2307V11.7949ZM93.8204 12.5641V12.8205H92.0255H90.2307V13.3333V13.8462H91.2563H92.2819V13.5897V13.3333H94.846H97.4101V12.8205V12.3077H95.6153H93.8204V12.5641ZM92.7948 14.1026V14.359H91.5127H90.2307V14.8718V15.3846H91.2563H92.2819V15.1282V14.8718H94.0768H95.8717V14.6154V14.359H96.6409H97.4101V14.1026V13.8462H95.1025H92.7948V14.1026ZM96.3845 19.2308V19.4872H95.3589H94.3332V19.7436V20H93.0512H91.7691V20.2564V20.5128H90.7435H89.7178V21.0256V21.5385H90.4871H91.2563V21.2821V21.0256H92.2819H93.3076V20.7692V20.5128H94.3332H95.3589V20.2564V20H96.1281H96.8973V19.4872V18.9744H96.6409H96.3845V19.2308ZM95.8717 20.7692V21.0256H94.846H93.8204V21.2821V21.5385H92.7948H91.7691V21.7949V22.0513H90.7435H89.7178V22.5641V23.0769H90.4871H91.2563V22.8205V22.5641H92.0255H92.7948V22.3077V22.0513H93.8204H94.846V21.7949V21.5385H95.8717H96.8973V21.0256V20.5128H96.3845H95.8717V20.7692ZM96.3845 23.3333V23.5897H95.6153H94.846V23.8462V24.1026H94.0768H93.3076V24.359V24.6154H92.5384H91.7691V24.8718V25.1282H90.7435H89.7178V25.3846V25.641H89.4614H89.205V25.8974V26.1538H89.9743H90.7435V25.8974V25.641H91.5127H92.2819V25.3846V25.1282H93.0512H93.8204V24.8718V24.6154H94.5896H95.3589V24.359V24.1026H96.1281H96.8973V23.5897V23.0769H96.6409H96.3845V23.3333ZM95.8717 24.8718V25.1282H95.1025H94.3332V25.3846V25.641H93.564H92.7948V25.8974V26.1538H92.0255H91.2563V26.4103V26.6667H90.4871H89.7178V26.9231V27.1795H89.4614H89.205V27.4359V27.6923H89.9743H90.7435V27.4359V27.1795H91.5127H92.2819V26.9231V26.6667H93.0512H93.8204V26.4103V26.1538H94.3332H94.846V25.8974V25.641H95.8717H96.8973V25.1282V24.6154H96.3845H95.8717V24.8718ZM40.9999 32.5641V33.3333H41.2563H41.5127V32.5641V31.7949H41.2563H40.9999V32.5641ZM95.3589 32.0513V32.3077H94.846H94.3332V32.5641V32.8205H93.564H92.7948V33.0769V33.3333H92.2819H91.7691V33.5897V33.8462H91.2563H90.7435V34.1026V34.359H90.2307H89.7178V34.6154V34.8718H89.205H88.6922V35.3846V35.8974H88.9486H89.205V35.641V35.3846H89.7178H90.2307V35.1282V34.8718H90.7435H91.2563V34.6154V34.359H91.7691H92.2819V34.1026V33.8462H92.7948H93.3076V33.5897V33.3333H93.8204H94.3332V33.0769V32.8205H94.846H95.3589V32.5641V32.3077H95.8717H96.3845V32.0513V31.7949H95.8717H95.3589V32.0513ZM95.8717 33.0769V33.3333H95.3589H94.846V33.5897V33.8462H94.3332H93.8204V34.1026V34.359H93.3076H92.7948V34.6154V34.8718H92.2819H91.7691V35.1282V35.3846H91.2563H90.7435V35.641V35.8974H90.2307H89.7178V36.1538V36.4103H89.205H88.6922V36.9231V37.4359H88.9486H89.205V37.1795V36.9231H89.7178H90.2307V36.6667V36.4103H90.7435H91.2563V36.1538V35.8974H91.7691H92.2819V35.641V35.3846H92.7948H93.3076V35.1282V34.8718H93.564H93.8204V34.6154V34.359H94.3332H94.846V34.1026V33.8462H95.6153H96.3845V33.3333V32.8205H96.1281H95.8717V33.0769ZM95.3589 34.6154V34.8718H94.846H94.3332V35.1282V35.3846H94.0768H93.8204V35.641V35.8974H93.3076H92.7948V36.1538V36.4103H92.2819H91.7691V36.6667V36.9231H91.2563H90.7435V37.1795V37.4359H90.2307H89.7178V37.6923V37.9487H89.205H88.6922V38.4615V38.9744H88.9486H89.205V38.7179V38.4615H89.7178H90.2307V38.2051V37.9487H90.4871H90.7435V37.6923V37.4359H91.2563H91.7691V37.1795V36.9231H92.2819H92.7948V36.6667V36.4103H93.3076H93.8204V36.1538V35.8974H94.3332H94.846V35.641V35.3846H95.3589H95.8717V35.1282V34.8718H96.1281H96.3845V34.6154V34.359H95.8717H95.3589V34.6154ZM40.9999 38.2051V38.4615H40.4871H39.9742V39.4872V40.5128H40.9999H42.0255V39.7436V38.9744H41.7691H41.5127V38.4615V37.9487H41.2563H40.9999V38.2051ZM40.4871 39.4872V40H40.9999H41.5127V39.7436V39.4872H41.2563H40.9999V39.2308V38.9744H40.7435H40.4871V39.4872ZM39.9742 43.3333V43.5897H40.4871H40.9999V43.8462V44.1026H41.5127H42.0255V44.359V44.6154H42.5383H43.0512V44.8718V45.1282H43.564H44.0768V44.8718V44.6154H44.3332H44.5896V44.359V44.1026H45.3589H46.1281V44.359V44.6154H46.6409H47.1537V44.8718V45.1282H47.6666H48.1794V45.3846V45.641H48.6922H49.205V45.3846V45.1282H49.7178H50.2307V44.8718V44.6154H52.0255H53.8204V44.8718V45.1282H56.1281H58.4358V45.3846V45.641H60.4871H62.5383V45.8974V46.1538H64.846H67.1537V46.4103V46.6667H69.4614H71.7691V46.4103V46.1538H69.4614H67.1537V45.8974V45.641H64.846H62.5383V45.3846V45.1282H60.4871H58.4358V44.8718V44.6154H56.1281H53.8204V44.359V44.1026H51.5127H49.205V43.8462V43.5897H46.8973H44.5896V43.3333V43.0769H42.2819H39.9742V43.3333ZM73.8204 43.5897V44.1026H74.846H75.8717V43.5897V43.0769H74.846H73.8204V43.5897ZM42.5383 43.8462V44.1026H43.0512H43.564V43.8462V43.5897H43.0512H42.5383V43.8462ZM47.6666 44.359V44.6154H48.1794H48.6922V44.359V44.1026H48.1794H47.6666V44.359ZM43.564 46.4103V46.6667H45.8717H48.1794V46.9231V47.1795H50.4871H52.7948V47.4359V47.6923H55.1025H57.4101V47.9487V48.2051H59.7178H62.0255V48.4615V48.7179H64.5896H67.1537V48.4615V48.2051H64.5896H62.0255V47.9487V47.6923H59.7178H57.4101V47.4359V47.1795H55.1025H52.7948V46.9231V46.6667H50.4871H48.1794V46.4103V46.1538H45.8717H43.564V46.4103ZM100.487 46.4103V46.6667H100.231H99.9743V46.9231V47.1795H99.7178H99.4614V47.4359V47.6923H98.9486H98.4358V47.9487V48.2051H98.1794H97.923V48.4615V48.7179H97.4101H96.8973V48.9744V49.2308H96.6409H96.3845V49.4872V49.7436H95.8717H95.3589V50V50.2564H95.1025H94.846V50.5128V50.7692H94.5896H94.3332V51.0256V51.2821H93.8204H93.3076V51.5385V51.7949H93.0512H92.7948V52.0513V52.3077H92.2819H91.7691V52.5641V52.8205H91.5127H91.2563V53.0769V53.3333H90.9999H90.7435V53.5897V53.8462H90.2307H89.7178V54.1026V54.359H89.4614H89.205V54.6154V54.8718H88.6922H88.1794V55.1282V55.3846H87.923H87.6666V55.641V55.8974H87.1537H86.6409V56.1538V56.4103H86.3845H86.1281V56.6667V56.9231H85.8717H85.6153V57.1795V57.4359H86.1281H86.6409V57.1795V56.9231H86.8973H87.1537V56.6667V56.4103H87.6666H88.1794V56.1538V55.8974H88.4358H88.6922V55.641V55.3846H88.9486H89.205V55.1282V54.8718H89.7178H90.2307V54.6154V54.359H90.4871H90.7435V54.1026V53.8462H91.2563H91.7691V53.5897V53.3333H92.0255H92.2819V53.0769V52.8205H92.5384H92.7948V52.5641V52.3077H93.3076H93.8204V52.0513V51.7949H94.0768H94.3332V51.5385V51.2821H94.5896H94.846V51.0256V50.7692H95.3589H95.8717V50.5128V50.2564H96.1281H96.3845V50V49.7436H96.8973H97.4101V49.4872V49.2308H97.6666H97.923V48.9744V48.7179H98.1794H98.4358V48.4615V48.2051H98.9486H99.4614V47.9487V47.6923H99.7178H99.9743V47.4359V47.1795H100.487H101V46.9231V46.6667H101.256H101.513V46.4103V46.1538H101H100.487V46.4103ZM84.0768 47.4359V47.6923H84.3332H84.5896V47.4359V47.1795H84.3332H84.0768V47.4359ZM77.4101 48.4615V49.2308H77.1537H76.8973V49.4872V49.7436H78.4358H79.9742V48.7179V47.6923H78.6922H77.4101V48.4615ZM82.5384 47.9487V48.2051H81.5127H80.4871V48.9744V49.7436H80.7435H80.9999V49.4872V49.2308H81.2563H81.5127V48.9744V48.7179H82.0255H82.5384V48.4615V48.2051H83.0512H83.564V47.9487V47.6923H83.0512H82.5384V47.9487ZM39.9742 48.4615V48.7179H41.5127H43.0512V48.9744V49.2308H44.846H46.6409V49.4872V49.7436H48.1794H49.7178V50V50.2564H51.5127H53.3076V50.5128V50.7692H55.1025H56.8973V51.0256V51.2821H59.4614H62.0255V51.5385V51.7949H64.5896H67.1537V52.0513V52.3077H69.7178H72.2819V52.5641V52.8205H74.846H77.4101V52.5641V52.3077H74.846H72.2819V52.0513V51.7949H69.7178H67.1537V51.5385V51.2821H64.5896H62.0255V51.0256V50.7692H59.4614H56.8973V50.5128V50.2564H55.1025H53.3076V50V49.7436H51.5127H49.7178V49.4872V49.2308H48.1794H46.6409V48.9744V48.7179H44.846H43.0512V48.4615V48.2051H41.5127H39.9742V48.4615ZM39.4614 50.5128V50.7692H41.2563H43.0512V51.0256V51.2821H44.5896H46.1281V51.5385V51.7949H47.6666H49.205V52.0513V52.3077H50.7435H52.2819V52.5641V52.8205H54.0768H55.8717V53.0769V53.3333H58.4358H60.9999V53.5897V53.8462H63.3076H65.6153V54.1026V54.359H68.1794H70.7435V54.6154V54.8718H73.3076H75.8717V54.6154V54.359H73.3076H70.7435V54.1026V53.8462H68.1794H65.6153V53.5897V53.3333H63.3076H60.9999V53.0769V52.8205H58.4358H55.8717V52.5641V52.3077H54.0768H52.2819V52.0513V51.7949H50.7435H49.205V51.5385V51.2821H47.6666H46.1281V51.0256V50.7692H44.5896H43.0512V50.5128V50.2564H41.2563H39.4614V50.5128ZM83.564 51.0256V51.2821H83.3076H83.0512V51.5385V51.7949H82.7948H82.5384V52.0513V52.3077H82.0255H81.5127V52.5641V52.8205H82.0255H82.5384V52.5641V52.3077H82.7948H83.0512V52.0513V51.7949H83.3076H83.564V51.5385V51.2821H83.8204H84.0768V51.0256V50.7692H83.8204H83.564V51.0256ZM27.1537 52.0513V52.3077H27.6665H28.1794V52.0513V51.7949H27.6665H27.1537V52.0513ZM25.6153 56.4103V60.5128H26.1281H26.6409V60.7692V61.0256H27.923H29.205V61.2821V61.5385H27.923H26.6409V61.7949V62.0513H27.923H29.205V61.7949V61.5385H30.7435H32.2819V61.7949V62.0513H30.9999H29.7178V62.3077V62.5641H30.9999H32.2819V62.3077V62.0513H33.8204H35.3589V62.3077V62.5641H34.0768H32.7948V62.8205V63.0769H34.0768H35.3589V62.8205V62.5641H36.8973H38.4358V62.8205V63.0769H37.1537H35.8717V63.3333V63.5897H37.1537H38.4358V63.3333V63.0769H38.9486H39.4614V58.9744V54.8718H39.205H38.9486V54.6154V54.359H37.4101H35.8717V54.1026V53.8462H34.3332H32.7948V53.5897V53.3333H31.2563H29.7178V53.0769V52.8205H28.1794H26.6409V52.5641V52.3077H26.1281H25.6153V56.4103ZM30.2307 52.5641V52.8205H30.4871H30.7435V52.5641V52.3077H30.4871H30.2307V52.5641ZM33.3076 53.0769V53.3333H33.564H33.8204V53.0769V52.8205H33.564H33.3076V53.0769ZM36.3845 53.5897V53.8462H36.6409H36.8973V53.5897V53.3333H36.6409H36.3845V53.5897ZM42.0255 54.6154V54.8718H42.2819H42.5383V54.6154V54.359H42.2819H42.0255V54.6154ZM39.9742 58.9744V63.0769H40.7435H41.5127V63.3333V63.5897H40.4871H39.4614V63.8462V64.1026H40.4871H41.5127V63.8462V63.5897H43.0512H44.5896V63.8462V64.1026H43.564H42.5383V64.359V64.6154H43.564H44.5896V64.359V64.1026H46.1281H47.6666V64.359V64.6154H46.8973H46.1281V64.8718V65.1282H46.8973H47.6666V64.8718V64.6154H48.9486H50.2307V64.8718V65.1282H49.7178H49.205V65.3846V65.641H49.7178H50.2307V65.3846V65.1282H52.0255H53.8204V65.3846V65.641H55.3589H56.8973V65.8974V66.1538H56.6409H56.3845V66.4103V66.6667H56.6409H56.8973V66.4103V66.1538H58.4358H59.9742V66.4103V66.6667H59.7178H59.4614V66.9231V67.1795H59.7178H59.9742V66.9231V66.6667H61.2563H62.5383V62.3077V57.9487H60.9999H59.4614V57.6923V57.4359H57.1537H54.846V57.1795V56.9231H52.7948H50.7435V56.6667V56.4103H49.205H47.6666V56.1538V55.8974H46.1281H44.5896V55.641V55.3846H43.0512H41.5127V55.1282V54.8718H40.7435H39.9742V58.9744ZM45.1024 55.1282V55.3846H45.6153H46.1281V55.1282V54.8718H45.6153H45.1024V55.1282ZM48.1794 55.641V55.8974H48.9486H49.7178V55.641V55.3846H48.9486H48.1794V55.641ZM51.2563 56.1538V56.4103H52.2819H53.3076V56.1538V55.8974H52.2819H51.2563V56.1538ZM31.7691 57.1795V57.9487H32.5383H33.3076V57.4359V56.9231H33.0512H32.7948V56.6667V56.4103H32.2819H31.7691V57.1795ZM55.3589 56.6667V56.9231H56.1281H56.8973V56.6667V56.4103H56.1281H55.3589V56.6667ZM22.0255 57.1795V57.4359H22.7948H23.564V57.1795V56.9231H22.7948H22.0255V57.1795ZM59.9742 57.1795V57.4359H60.2307H60.4871V57.1795V56.9231H60.2307H59.9742V57.1795ZM19.4614 57.6923V57.9487H20.2307H20.9999V57.6923V57.4359H20.2307H19.4614V57.6923ZM40.9999 57.6923V57.9487H41.5127H42.0255V58.2051V58.4615H42.2819H42.5383V58.9744V59.4872H41.7691H40.9999V59.7436V60H41.7691H42.5383V60.2564V60.5128H44.3332H46.1281V60.7692V61.0256H47.6666H49.205V61.2821V61.5385H50.9999H52.7948V61.7949V62.0513H54.5896H56.3845V62.3077V62.5641H57.923H59.4614V62.8205V63.0769H60.7435H62.0255V62.8205V62.5641H61.7691H61.5127V62.3077V62.0513H61.2563H60.9999V61.5385V61.0256H61.5127H62.0255V60.7692V60.5128H60.9999H59.9742V60.2564V60H58.1794H56.3845V59.7436V59.4872H54.846H53.3076V59.2308V58.9744H51.5127H49.7178V58.7179V58.4615H47.923H46.1281V58.2051V57.9487H44.3332H42.5383V57.6923V57.4359H41.7691H40.9999V57.6923ZM17.4101 58.2051V58.4615H17.923H18.4358V58.2051V57.9487H17.923H17.4101V58.2051ZM21.5127 58.2051V58.4615H22.0255H22.5383V58.2051V57.9487H22.0255H21.5127V58.2051ZM63.0512 62.5641V67.1795H64.846H66.6409V67.4359V67.6923H66.3845H66.1281V67.9487V68.2051H66.3845H66.6409V67.9487V67.6923H68.6922H70.7435V67.9487V68.2051H70.2307H69.7178V68.4615V68.7179H70.2307H70.7435V68.4615V68.2051H72.0255H73.3076V68.4615V68.7179H73.0512H72.7948V68.9744V69.2308H73.0512H73.3076V68.9744V68.7179H74.0768H74.846V67.6923V66.6667H75.3589H75.8717V66.4103V66.1538H76.6409H77.4101V66.4103V66.6667H77.6666H77.923V66.9231V67.1795H78.1794H78.4358V68.2051V69.2308H78.9486H79.4614V68.9744V68.7179H79.7178H79.9742V68.9744V69.2308H80.9999H82.0255V64.8718V60.5128H81.5127H80.9999V60.2564V60H78.9486H76.8973V59.7436V59.4872H74.5896H72.2819V59.2308V58.9744H70.2307H68.1794V58.7179V58.4615H65.8717H63.564V58.2051V57.9487H63.3076H63.0512V62.5641ZM68.6922 58.2051V58.4615H68.9486H69.205V58.2051V57.9487H68.9486H68.6922V58.2051ZM15.8717 58.7179V58.9744H16.1281H16.3845V58.7179V58.4615H16.1281H15.8717V58.7179ZM18.9486 58.7179V58.9744H19.4614H19.9742V58.7179V58.4615H19.4614H18.9486V58.7179ZM43.0512 58.7179V58.9744H43.3076H43.564V59.2308V59.4872H45.1024H46.6409V59.7436V60H48.4358H50.2307V60.2564V60.5128H51.7691H53.3076V60.7692V61.0256H55.1025H56.8973V61.2821V61.5385H58.6922H60.4871V61.2821V61.0256H59.9742H59.4614V60.7692V60.5128H57.6666H55.8717V60.2564V60H54.3332H52.7948V59.7436V59.4872H50.9999H49.205V59.2308V58.9744H47.4101H45.6153V58.7179V58.4615H44.3332H43.0512V58.7179ZM72.7948 58.7179V58.9744H73.564H74.3332V58.7179V58.4615H73.564H72.7948V58.7179ZM14.3332 59.2308V59.4872H14.5896H14.846V59.2308V58.9744H14.5896H14.3332V59.2308ZM16.8973 59.2308V59.4872H17.4101H17.923V59.2308V58.9744H17.4101H16.8973V59.2308ZM30.2307 59.7436V60.5128H30.4871H30.7435V60.7692V61.0256H32.2819H33.8204V61.2821V61.5385H34.0768H34.3332V60.5128V59.4872H32.7948H31.2563V59.2308V58.9744H30.7435H30.2307V59.7436ZM77.4101 59.2308V59.4872H78.4358H79.4614V59.2308V58.9744H78.4358H77.4101V59.2308ZM12.7948 59.7436V60H13.0512H13.3076V59.7436V59.4872H13.0512H12.7948V59.7436ZM15.3589 59.7436V60H15.8717H16.3845V59.7436V59.4872H15.8717H15.3589V59.7436ZM81.5127 59.7436V60H82.0255H82.5384V59.7436V59.4872H82.0255H81.5127V59.7436ZM11.2563 60.2564V60.5128H11.7691H12.2819V60.2564V60H11.7691H11.2563V60.2564ZM13.8204 60.2564V60.5128H14.3332H14.846V60.2564V60H14.3332H13.8204V60.2564ZM31.2563 60.2564V60.5128H32.5383H33.8204V60.2564V60H32.5383H31.2563V60.2564ZM12.7948 60.7692V61.0256H13.0512H13.3076V60.7692V60.5128H13.0512H12.7948V60.7692ZM82.5384 64.359V68.2051H82.7948H83.0512V64.359V60.5128H82.7948H82.5384V64.359ZM9.71783 61.2821V61.5385H9.97424H10.2307V61.2821V61.0256H9.97424H9.71783V61.2821ZM11.2563 61.2821V61.5385H10.9999H10.7435V61.7949V62.0513H10.4871H10.2307V62.3077V62.5641H10.4871H10.7435V62.8205V63.0769H10.9999H11.2563V62.8205V62.5641H10.9999H10.7435V62.3077V62.0513H10.9999H11.2563V61.7949V61.5385H11.5127H11.7691V61.2821V61.0256H11.5127H11.2563V61.2821ZM63.564 61.2821V61.5385H63.8204H64.0768V61.7949V62.0513H63.8204H63.564V62.3077V62.5641H64.5896H65.6153V62.8205V63.0769H67.1537H68.6922V63.3333V63.5897H70.4871H72.2819V63.8462V64.1026H73.8204H75.3589V64.359V64.6154H76.8973H78.4358V64.8718V65.1282H79.205H79.9742V64.6154V64.1026H79.7178H79.4614V63.8462V63.5897H79.205H78.9486V63.3333V63.0769H79.4614H79.9742V62.8205V62.5641H78.1794H76.3845V62.3077V62.0513H74.3332H72.2819V61.7949V61.5385H69.9742H67.6665V61.2821V61.0256H65.6153H63.564V61.2821ZM17.4101 62.3077V62.5641H17.1537H16.8973V62.8205V63.0769H16.6409H16.3845V63.3333V63.5897H16.1281H15.8717V63.8462V64.1026H15.1024H14.3332V64.6154V65.1282H14.0768H13.8204V64.8718V64.6154H13.564H13.3076V64.8718V65.1282H13.564H13.8204V65.3846V65.641H13.564H13.3076V65.8974V66.1538H12.7948H12.2819V66.4103V66.6667H12.0255H11.7691V66.9231V67.1795H11.5127H11.2563V67.4359V67.6923H10.9999H10.7435V67.9487V68.2051H10.2307H9.71783V68.4615V68.7179H9.46142H9.20501V68.9744V69.2308H8.9486H8.69219V69.4872V69.7436H8.43578H8.17937V70V70.2564H7.66655H7.15373V70.5128V70.7692H6.89732H6.64091V71.0256V71.2821H6.12809H5.61527V71.5385V71.7949H5.10245H4.58962V72.0513V72.3077H4.0768H3.56398V72.5641V72.8205H3.05116H2.53834V73.0769V73.3333H2.02552H1.5127V73.5897V73.8462H1.25629H0.999881V74.1026V74.359H0.743471H0.487061V75.8974V77.4359H0.743471H0.999881V77.6923V77.9487H1.25629H1.5127V78.2051V78.4615H2.53834H3.56398V78.7179V78.9744H4.84604H6.12809V79.2308V79.4872H7.15373H8.17937V79.7436V80H9.46142H10.7435V80.2564V80.5128H12.0255H13.3076V80.7692V81.0256H14.5896H15.8717V81.2821V81.5385H16.8973H17.923V81.7949V82.0513H19.205H20.4871V82.3077V82.5641H21.7691H23.0512V82.8205V83.0769H24.3332H25.6153V83.3333V83.5897H26.6409H27.6665V83.8462V84.1026H28.9486H30.2307V84.359V84.6154H31.5127H32.7948V84.8718V85.1282H34.0768H35.3589V85.3846V85.641H36.3845H37.4101V85.8974V86.1538H38.6922H39.9742V86.4103V86.6667H41.2563H42.5383V86.9231V87.1795H43.8204H45.1024V87.4359V87.6923H46.1281H47.1537V87.9487V88.2051H48.4358H49.7178V88.4615V88.7179H50.9999H52.2819V88.9744V89.2308H53.3076H54.3332V89.4872V89.7436H55.6153H56.8973V90V90.2564H58.1794H59.4614V90.5128V90.7692H60.7435H62.0255V91.0256V91.2821H63.0512H64.0768V91.5385V91.7949H65.3589H66.6409V92.0513V92.3077H67.923H69.205V92.5641V92.8205H70.4871H71.7691V93.0769V93.3333H73.0512H74.3332V93.0769V92.8205H74.5896H74.846V92.5641V92.3077H75.1025H75.3589V92.0513V91.7949H75.6153H75.8717V91.2821V90.7692H76.1281H76.3845V90.5128V90.2564H76.6409H76.8973V90V89.7436H77.1537H77.4101V89.4872V89.2308H77.6666H77.923V88.9744V88.7179H78.1794H78.4358V88.2051V87.6923H78.6922H78.9486V87.4359V87.1795H79.205H79.4614V86.9231V86.6667H79.7178H79.9742V86.4103V86.1538H80.2307H80.4871V85.8974V85.641H80.7435H80.9999V85.1282V84.6154H81.2563H81.5127V84.359V84.1026H81.7691H82.0255V83.8462V83.5897H82.2819H82.5384V83.3333V83.0769H83.0512H83.564V82.8205V82.5641H85.1025H86.6409V82.3077V82.0513H86.3845H86.1281V81.5385V81.0256H85.6153H85.1025V80.7692V80.5128H84.5896H84.0768V80.2564V80H84.3332H84.5896V79.7436V79.4872H84.846H85.1025V79.2308V78.9744H85.3589H85.6153V75.8974V72.8205H84.846H84.0768V72.5641V72.3077H82.5384H80.9999V72.0513V71.7949H79.205H77.4101V71.5385V71.2821H75.8717H74.3332V71.0256V70.7692H72.7948H71.2563V70.5128V70.2564H69.7178H68.1794V70V69.7436H66.3845H64.5896V69.4872V69.2308H63.0512H61.5127V68.9744V68.7179H59.9742H58.4358V68.4615V68.2051H56.8973H55.3589V67.9487V67.6923H53.8204H52.2819V67.4359V67.1795H50.7435H49.205V66.9231V66.6667H47.6666H46.1281V66.4103V66.1538H44.5896H43.0512V65.8974V65.641H41.5127H39.9742V65.3846V65.1282H38.1794H36.3845V64.8718V64.6154H34.846H33.3076V64.359V64.1026H31.7691H30.2307V63.8462V63.5897H28.6922H27.1537V63.3333V63.0769H25.6153H24.0768V62.8205V62.5641H22.5383H20.9999V62.3077V62.0513H19.205H17.4101V62.3077ZM67.6665 62.3077V62.5641H68.1794H68.6922V62.3077V62.0513H68.1794H67.6665V62.3077ZM17.923 62.8205V63.0769H17.6665H17.4101V63.3333V63.5897H17.1537H16.8973V63.8462V64.1026H16.6409H16.3845V64.359V64.6154H15.8717H15.3589V64.8718V65.1282H15.1024H14.846V65.3846V65.641H14.5896H14.3332V65.8974V66.1538H14.0768H13.8204V66.4103V66.6667H13.3076H12.7948V66.9231V67.1795H12.5383H12.2819V67.4359V67.6923H12.0255H11.7691V67.9487V68.2051H11.5127H11.2563V68.4615V68.7179H10.7435H10.2307V68.9744V69.2308H9.97424H9.71783V69.4872V69.7436H9.46142H9.20501V70V70.2564H8.9486H8.69219V70.5128V70.7692H8.17937H7.66655V71.0256V71.2821H7.41014H7.15373V71.5385V71.7949H6.64091H6.12809V72.0513V72.3077H5.61527H5.10245V72.5641V72.8205H5.35886H5.61527V73.3333V73.8462H5.35886H5.10245V74.1026V74.359H4.33321H3.56398V73.8462V73.3333H3.30757H3.05116V73.5897V73.8462H2.53834H2.02552V74.1026V74.359H1.76911H1.5127V74.6154V74.8718H2.02552H2.53834V75.1282V75.3846H2.02552H1.5127V75.641V75.8974H1.76911H2.02552V76.1538V76.4103H1.5127H0.999881V76.9231V77.4359H1.25629H1.5127V77.6923V77.9487H2.53834H3.56398V78.2051V78.4615H4.84604H6.12809V78.7179V78.9744H7.15373H8.17937V79.2308V79.4872H9.46142H10.7435V79.7436V80H12.0255H13.3076V80.2564V80.5128H14.5896H15.8717V80.7692V81.0256H16.8973H17.923V81.2821V81.5385H19.205H20.4871V81.7949V82.0513H21.7691H23.0512V82.3077V82.5641H24.3332H25.6153V82.8205V83.0769H26.6409H27.6665V83.3333V83.5897H28.9486H30.2307V83.8462V84.1026H31.5127H32.7948V84.359V84.6154H34.0768H35.3589V84.8718V85.1282H36.3845H37.4101V85.3846V85.641H38.6922H39.9742V85.8974V86.1538H41.2563H42.5383V86.4103V86.6667H43.8204H45.1024V86.9231V87.1795H46.1281H47.1537V87.4359V87.6923H48.4358H49.7178V87.9487V88.2051H50.9999H52.2819V88.4615V88.7179H53.3076H54.3332V88.9744V89.2308H55.6153H56.8973V89.4872V89.7436H58.1794H59.4614V90V90.2564H60.7435H62.0255V90.5128V90.7692H63.0512H64.0768V91.0256V91.2821H65.3589H66.6409V91.5385V91.7949H67.923H69.205V92.0513V92.3077H70.4871H71.7691V92.5641V92.8205H72.7948H73.8204V92.5641V92.3077H74.0768H74.3332V92.0513V91.7949H74.5896H74.846V91.5385V91.2821H75.1025H75.3589V90.7692V90.2564H75.6153H75.8717V90V89.7436H76.1281H76.3845V89.4872V89.2308H76.6409H76.8973V88.9744V88.7179H77.1537H77.4101V88.4615V88.2051H77.6666H77.923V87.6923V87.1795H78.1794H78.4358V86.9231V86.6667H78.6922H78.9486V86.4103V86.1538H79.205H79.4614V85.8974V85.641H79.7178H79.9742V85.3846V85.1282H80.2307H80.4871V84.6154V84.1026H80.7435H80.9999V83.8462V83.5897H81.2563H81.5127V83.0769V82.5641H81.7691H82.0255V82.3077V82.0513H82.2819H82.5384V81.5385V81.0256H82.7948H83.0512V80.7692V80.5128H83.3076H83.564V80V79.4872H83.8204H84.0768V79.2308V78.9744H84.3332H84.5896V78.7179V78.4615H84.846H85.1025V77.9487V77.4359H84.846H84.5896V77.6923V77.9487H84.3332H84.0768V78.4615V78.9744H83.8204H83.564V79.2308V79.4872H83.3076H83.0512V80V80.5128H82.7948H82.5384V80.7692V81.0256H82.2819H82.0255V81.5385V82.0513H81.7691H81.5127V82.3077V82.5641H81.2563H80.9999V83.0769V83.5897H80.7435H80.4871V83.8462V84.1026H80.2307H79.9742V84.6154V85.1282H79.7178H79.4614V85.3846V85.641H79.205H78.9486V85.8974V86.1538H78.6922H78.4358V86.4103V86.6667H78.1794H77.923V86.9231V87.1795H77.6666H77.4101V87.4359V87.6923H77.1537H76.8973V88.2051V88.7179H76.6409H76.3845V88.9744V89.2308H76.1281H75.8717V89.4872V89.7436H75.6153H75.3589V90V90.2564H75.1025H74.846V90.5128V90.7692H74.5896H74.3332V91.0256V91.2821H72.5383H70.7435V91.0256V90.7692H72.2819H73.8204V90.5128V90.2564H74.0768H74.3332V90V89.7436H74.5896H74.846V89.4872V89.2308H75.1025H75.3589V88.9744V88.7179H75.6153H75.8717V88.4615V88.2051H76.1281H76.3845V87.9487V87.6923H76.1281H75.8717V87.9487V88.2051H75.6153H75.3589V88.4615V88.7179H75.1025H74.846V88.9744V89.2308H74.5896H74.3332V89.4872V89.7436H74.0768H73.8204V90V90.2564H72.7948H71.7691V90V89.7436H72.5383H73.3076V89.4872V89.2308H73.564H73.8204V88.9744V88.7179H74.0768H74.3332V88.4615V88.2051H74.5896H74.846V87.9487V87.6923H75.1025H75.3589V87.4359V87.1795H75.6153H75.8717V86.9231V86.6667H76.1281H76.3845V86.4103V86.1538H76.6409H76.8973V85.641V85.1282H77.1537H77.4101V84.8718V84.6154H77.6666H77.923V84.359V84.1026H78.1794H78.4358V83.8462V83.5897H78.6922H78.9486V83.3333V83.0769H79.205H79.4614V82.5641V82.0513H79.7178H79.9742V81.7949V81.5385H80.2307H80.4871V81.0256V80.5128H80.7435H80.9999V80.2564V80H81.2563H81.5127V79.4872V78.9744H81.7691H82.0255V78.7179V78.4615H82.2819H82.5384V77.9487V77.4359H82.7948H83.0512V77.1795V76.9231H83.3076H83.564V76.4103V75.8974H83.8204H84.0768V75.641V75.3846H84.3332H84.5896V74.8718V74.359H84.846H85.1025V73.8462V73.3333H84.3332H83.564V73.0769V72.8205H82.0255H80.4871V72.5641V72.3077H78.9486H77.4101V72.0513V71.7949H75.8717H74.3332V71.5385V71.2821H72.7948H71.2563V71.0256V70.7692H69.7178H68.1794V70.5128V70.2564H66.3845H64.5896V70V69.7436H63.0512H61.5127V69.4872V69.2308H59.9742H58.4358V68.9744V68.7179H56.8973H55.3589V68.4615V68.2051H53.8204H52.2819V67.9487V67.6923H50.7435H49.205V67.4359V67.1795H47.6666H46.1281V66.9231V66.6667H44.5896H43.0512V66.4103V66.1538H41.5127H39.9742V65.8974V65.641H38.1794H36.3845V65.3846V65.1282H34.846H33.3076V64.8718V64.6154H31.7691H30.2307V64.359V64.1026H28.6922H27.1537V63.8462V63.5897H25.6153H24.0768V63.3333V63.0769H22.5383H20.9999V62.8205V62.5641H19.4614H17.923V62.8205ZM9.71783 63.3333V63.5897H9.97424H10.2307V63.3333V63.0769H9.97424H9.71783V63.3333ZM11.7691 63.3333V63.5897H12.2819H12.7948V63.3333V63.0769H12.2819H11.7691V63.3333ZM10.7435 63.8462V64.1026H10.9999H11.2563V63.8462V63.5897H10.9999H10.7435V63.8462ZM13.3076 63.8462V64.1026H13.564H13.8204V63.8462V63.5897H13.564H13.3076V63.8462ZM11.7691 64.359V64.6154H12.2819H12.7948V64.359V64.1026H12.2819H11.7691V64.359ZM18.9486 64.359V64.6154H18.6922H18.4358V64.8718V65.1282H18.1794H17.923V65.8974V66.6667H18.6922H19.4614V66.9231V67.1795H20.2307H20.9999V66.9231V66.6667H21.2563H21.5127V66.4103V66.1538H21.7691H22.0255V66.9231V67.6923H23.564H25.1024V67.9487V68.2051H26.3845H27.6665V68.4615V68.7179H25.6153H23.564V68.4615V68.2051H22.0255H20.4871V67.9487V67.6923H19.205H17.923V67.4359V67.1795H16.6409H15.3589V67.4359V67.6923H15.1024H14.846V67.9487V68.2051H14.5896H14.3332V68.4615V68.7179H13.8204H13.3076V68.9744V69.2308H13.0512H12.7948V69.4872V69.7436H12.5383H12.2819V70V70.2564H11.7691H11.2563V70.5128V70.7692H10.9999H10.7435V71.0256V71.2821H10.4871H10.2307V71.5385V71.7949H9.71783H9.20501V72.0513V72.3077H8.9486H8.69219V72.5641V72.8205H7.92296H7.15373V73.0769V73.3333H6.89732H6.64091V73.5897V73.8462H6.3845H6.12809V74.1026V74.359H5.87168H5.61527V74.6154V74.8718H6.3845H7.15373V75.1282V75.3846H8.43578H9.71783V75.641V75.8974H10.9999H12.2819V76.1538V76.4103H13.3076H14.3332V76.6667V76.9231H15.6153H16.8973V77.1795V77.4359H18.1794H19.4614V77.6923V77.9487H20.7435H22.0255V78.2051V78.4615H23.3076H24.5896V78.7179V78.9744H25.8717H27.1537V79.2308V79.4872H28.4358H29.7178V79.7436V80H30.9999H32.2819V80.2564V80.5128H33.564H34.846V80.7692V81.0256H36.1281H37.4101V81.2821V81.5385H38.6922H39.9742V81.7949V82.0513H41.2563H42.5383V82.3077V82.5641H43.8204H45.1024V82.8205V83.0769H46.3845H47.6666V83.3333V83.5897H48.6922H49.7178V83.8462V84.1026H50.9999H52.2819V84.359V84.6154H53.564H54.846V84.8718V85.1282H56.1281H57.4101V85.3846V85.641H58.6922H59.9742V85.8974V86.1538H61.2563H62.5383V86.4103V86.6667H63.8204H65.1024V86.9231V87.1795H66.3845H67.6665V87.4359V87.6923H68.9486H70.2307V87.9487V88.2051H70.4871H70.7435V87.9487V87.6923H71.5127H72.2819V87.4359V87.1795H72.5383H72.7948V86.9231V86.6667H73.0512H73.3076V86.4103V86.1538H73.564H73.8204V85.8974V85.641H74.0768H74.3332V85.3846V85.1282H74.5896H74.846V84.6154V84.1026H75.1025H75.3589V83.8462V83.5897H75.6153H75.8717V83.3333V83.0769H76.1281H76.3845V82.5641V82.0513H76.6409H76.8973V81.7949V81.5385H77.1537H77.4101V81.2821V81.0256H77.6666H77.923V80.7692V80.5128H78.1794H78.4358V79.7436V78.9744H78.1794H77.923V78.4615V77.9487H76.3845H74.846V77.6923V77.4359H73.564H72.2819V77.1795V76.9231H70.9999H69.7178V76.6667V76.4103H68.6922H67.6665V76.9231V77.4359H67.4101H67.1537V77.9487V78.4615H66.6409H66.1281V78.7179V78.9744H65.8717H65.6153V79.2308V79.4872H65.3589H65.1024V78.9744V78.4615H65.3589H65.6153V78.2051V77.9487H65.8717H66.1281V76.9231V75.8974H65.6153H65.1024V75.641V75.3846H66.1281H67.1537V75.641V75.8974H67.4101H67.6665V75.641V75.3846H67.923H68.1794V74.8718V74.359H68.4358H68.6922V73.5897V72.8205H68.4358H68.1794V72.5641V72.3077H66.6409H65.1024V72.0513V71.7949H63.8204H62.5383V71.5385V71.2821H62.2819H62.0255V71.5385V71.7949H61.5127H60.9999V72.0513V72.3077H60.7435H60.4871V72.5641V72.8205H60.2307H59.9742V73.5897V74.359H60.7435H61.5127V74.6154V74.8718H62.7948H64.0768V75.1282V75.3846H63.8204H63.564V75.641V75.8974H63.3076H63.0512V75.641V75.3846H62.0255H60.9999V75.1282V74.8718H59.7178H58.4358V75.1282V75.3846H58.1794H57.923V76.1538V76.9231H57.4101H56.8973V77.1795V77.4359H56.6409H56.3845V77.6923V77.9487H56.1281H55.8717V78.7179V79.4872H56.3845H56.8973V80V80.5128H56.3845H55.8717V80.7692V81.0256H55.6153H55.3589V81.5385V82.0513H54.846H54.3332V81.7949V81.5385H53.3076H52.2819V81.2821V81.0256H52.5383H52.7948V80.7692V80.5128H53.0512H53.3076V80.2564V80H53.564H53.8204V79.7436V79.4872H54.0768H54.3332V79.2308V78.9744H54.5896H54.846V78.4615V77.9487H55.1025H55.3589V77.6923V77.4359H55.6153H55.8717V77.1795V76.9231H56.1281H56.3845V76.6667V76.4103H56.6409H56.8973V75.3846V74.359H56.6409H56.3845V74.1026V73.8462H57.1537H57.923V73.5897V73.3333H58.1794H58.4358V73.0769V72.8205H58.6922H58.9486V72.5641V72.3077H59.205H59.4614V72.0513V71.7949H59.205H58.9486V71.5385V71.2821H58.6922H58.4358V71.0256V70.7692H57.1537H55.8717V70.5128V70.2564H54.5896H53.3076V70V69.7436H51.5127H49.7178V69.4872V69.2308H48.6922H47.6666V69.4872V69.7436H47.4101H47.1537V70.2564V70.7692H46.8973H46.6409V71.2821V71.7949H47.1537H47.6666V72.0513V72.3077H46.3845H45.1024V72.0513V71.7949H43.8204H42.5383V71.5385V71.2821H44.0768H45.6153V71.0256V70.7692H45.8717H46.1281V69.7436V68.7179H45.6153H45.1024V68.4615V68.2051H43.564H42.0255V67.9487V67.6923H41.5127H40.9999V67.9487V68.2051H40.7435H40.4871V67.9487V67.6923H39.9742H39.4614V67.4359V67.1795H38.9486H38.4358V67.4359V67.6923H38.1794H37.923V67.4359V67.1795H36.3845H34.846V67.4359V67.6923H34.5896H34.3332V68.7179V69.7436H35.6153H36.8973V70V70.2564H35.3589H33.8204V70V69.7436H33.3076H32.7948V70V70.2564H32.2819H31.7691V70V69.7436H31.2563H30.7435V69.4872V69.2308H32.0255H33.3076V68.7179V68.2051H33.564H33.8204V67.4359V66.6667H33.564H33.3076V66.4103V66.1538H31.7691H30.2307V65.8974V65.641H28.9486H27.6665V65.3846V65.1282H26.1281H24.5896V64.8718V64.6154H24.0768H23.564V64.8718V65.1282H23.0512H22.5383V65.3846V65.641H22.2819H22.0255V65.1282V64.6154H21.7691H21.5127V64.359V64.1026H20.2307H18.9486V64.359ZM19.4614 64.8718V65.1282H19.205H18.9486V65.3846V65.641H18.6922H18.4358V65.8974V66.1538H19.205H19.9742V66.4103V66.6667H20.2307H20.4871V66.4103V66.1538H20.7435H20.9999V65.8974V65.641H21.2563H21.5127V65.3846V65.1282H21.2563H20.9999V65.3846V65.641H20.7435H20.4871V65.8974V66.1538H20.2307H19.9742V65.641V65.1282H20.2307H20.4871V64.8718V64.6154H19.9742H19.4614V64.8718ZM23.0512 65.8974V66.1538H22.7948H22.5383V66.6667V67.1795H23.564H24.5896V66.6667V66.1538H24.846H25.1024V65.8974V65.641H24.0768H23.0512V65.8974ZM26.1281 65.8974V66.1538H25.8717H25.6153V66.4103V66.6667H25.3589H25.1024V66.9231V67.1795H25.3589H25.6153V67.4359V67.6923H26.3845H27.1537V67.1795V66.6667H27.4101H27.6665V66.4103V66.1538H27.4101H27.1537V65.8974V65.641H26.6409H26.1281V65.8974ZM52.7948 65.8974V66.1538H53.0512H53.3076V65.8974V65.641H53.0512H52.7948V65.8974ZM28.6922 66.4103V66.6667H28.4358H28.1794V66.9231V67.1795H27.923H27.6665V67.4359V67.6923H27.923H28.1794V67.9487V68.2051H28.9486H29.7178V67.6923V67.1795H29.9742H30.2307V66.9231V66.6667H29.9742H29.7178V66.4103V66.1538H29.205H28.6922V66.4103ZM31.2563 66.9231V67.1795H30.9999H30.7435V67.4359V67.6923H30.4871H30.2307V67.9487V68.2051H30.7435H31.2563V68.4615V68.7179H32.0255H32.7948V68.2051V67.6923H33.0512H33.3076V67.4359V67.1795H33.0512H32.7948V67.4359V67.6923H32.5383H32.2819V67.9487V68.2051H32.0255H31.7691V67.6923V67.1795H32.0255H32.2819V66.9231V66.6667H31.7691H31.2563V66.9231ZM75.3589 67.6923V68.2051H75.6153H75.8717V67.6923V67.1795H75.6153H75.3589V67.6923ZM15.3589 67.9487V68.2051H15.1024H14.846V68.4615V68.7179H15.1024H15.3589V68.9744V69.2308H14.3332H13.3076V69.4872V69.7436H13.0512H12.7948V70V70.2564H13.564H14.3332V70.5128V70.7692H15.3589H16.3845V70.5128V70.2564H16.6409H16.8973V70V69.7436H17.1537H17.4101V68.9744V68.2051H17.6665H17.923V67.9487V67.6923H16.6409H15.3589V67.9487ZM35.3589 67.9487V68.2051H35.1024H34.846V68.7179V69.2308H35.8717H36.8973V68.7179V68.2051H37.1537H37.4101V67.9487V67.6923H36.3845H35.3589V67.9487ZM76.3845 67.9487V68.2051H76.6409H76.8973V67.9487V67.6923H76.6409H76.3845V67.9487ZM86.6409 67.9487V68.2051H86.8973H87.1537V67.9487V67.6923H86.8973H86.6409V67.9487ZM18.4358 68.4615V68.7179H18.1794H17.923V68.9744V69.2308H18.4358H18.9486V69.4872V69.7436H19.4614H19.9742V69.4872V69.2308H20.2307H20.4871V68.7179V68.2051H19.4614H18.4358V68.4615ZM37.923 68.4615V68.7179H37.6665H37.4101V69.2308V69.7436H38.4358H39.4614V69.2308V68.7179H39.7178H39.9742V68.4615V68.2051H38.9486H37.923V68.4615ZM20.9999 69.2308V69.7436H21.2563H21.5127V70V70.2564H21.2563H20.9999V70.5128V70.7692H20.4871H19.9742V71.0256V71.2821H19.7178H19.4614V71.5385V71.7949H20.7435H22.0255V71.5385V71.2821H22.2819H22.5383V71.0256V70.7692H22.0255H21.5127V70.5128V70.2564H22.0255H22.5383V70V69.7436H22.7948H23.0512V69.4872V69.2308H23.3076H23.564V68.9744V68.7179H22.2819H20.9999V69.2308ZM28.1794 68.9744V69.2308H29.4614H30.7435V68.9744V68.7179H29.4614H28.1794V68.9744ZM40.4871 68.9744V69.2308H40.2307H39.9742V69.7436V70.2564H40.9999H42.0255V69.7436V69.2308H42.2819H42.5383V68.9744V68.7179H41.5127H40.4871V68.9744ZM43.564 68.9744V69.2308H43.3076H43.0512V69.4872V69.7436H42.7948H42.5383V70V70.2564H42.7948H43.0512V70.5128V70.7692H44.0768H45.1024V70.5128V70.2564H45.3589H45.6153V70V69.7436H45.3589H45.1024V70V70.2564H44.5896H44.0768V70V69.7436H44.3332H44.5896V69.2308V68.7179H44.0768H43.564V68.9744ZM76.3845 68.9744V69.2308H76.6409H76.8973V68.9744V68.7179H76.6409H76.3845V68.9744ZM85.1025 68.9744V69.2308H85.3589H85.6153V68.9744V68.7179H85.3589H85.1025V68.9744ZM15.3589 69.4872V69.7436H16.1281H16.8973V69.4872V69.2308H16.1281H15.3589V69.4872ZM24.0768 69.4872V69.7436H23.8204H23.564V70V70.2564H23.3076H23.0512V70.5128V70.7692H23.3076H23.564V70.5128V70.2564H24.0768H24.5896V70.5128V70.7692H25.1024H25.6153V70.2564V69.7436H25.8717H26.1281V69.4872V69.2308H25.1024H24.0768V69.4872ZM27.1537 69.4872V69.7436H26.8973H26.6409V70V70.2564H26.3845H26.1281V70.5128V70.7692H26.6409H27.1537V71.0256V71.2821H26.6409H26.1281V71.5385V71.7949H25.8717H25.6153V72.3077V72.8205H26.6409H27.6665V72.5641V72.3077H27.923H28.1794V72.0513V71.7949H27.6665H27.1537V71.5385V71.2821H27.6665H28.1794V70.7692V70.2564H28.4358H28.6922V70V69.7436H28.1794H27.6665V69.4872V69.2308H27.4101H27.1537V69.4872ZM29.7178 70V70.2564H29.4614H29.205V70.5128V70.7692H28.9486H28.6922V71.0256V71.2821H29.4614H30.2307V71.5385V71.7949H29.7178H29.205V72.0513V72.3077H28.9486H28.6922V72.8205V73.3333H29.4614H30.2307V73.0769V72.8205H30.4871H30.7435V72.5641V72.3077H30.4871H30.2307V72.0513V71.7949H30.7435H31.2563V71.2821V70.7692H31.5127H31.7691V70.5128V70.2564H30.9999H30.2307V70V69.7436H29.9742H29.7178V70ZM48.1794 70V70.2564H47.923H47.6666V70.7692V71.2821H47.923H48.1794V71.5385V71.7949H48.6922H49.205V71.5385V71.2821H49.4614H49.7178V70.5128V69.7436H48.9486H48.1794V70ZM80.4871 70V70.2564H81.2563H82.0255V70V69.7436H81.2563H80.4871V70ZM17.4101 70.5128V70.7692H17.1537H16.8973V71.0256V71.2821H17.923H18.9486V71.0256V70.7692H19.205H19.4614V70.5128V70.2564H18.4358H17.4101V70.5128ZM37.4101 70.7692V71.2821H37.1537H36.8973V71.0256V70.7692H36.1281H35.3589V71.0256V71.2821H35.1024H34.846V71.7949V72.3077H35.3589H35.8717V72.5641V72.8205H35.1024H34.3332V73.0769V73.3333H34.0768H33.8204V73.5897V73.8462H34.0768H34.3332V74.1026V74.359H33.3076H32.2819V74.6154V74.8718H31.7691H31.2563V75.1282V75.3846H32.0255H32.7948V75.641V75.8974H33.0512H33.3076V75.641V75.3846H33.564H33.8204V75.1282V74.8718H34.0768H34.3332V74.6154V74.359H34.846H35.3589V74.1026V73.8462H35.6153H35.8717V73.3333V72.8205H36.3845H36.8973V72.3077V71.7949H37.1537H37.4101V71.5385V71.2821H37.6665H37.923V71.0256V70.7692H38.6922H39.4614V70.5128V70.2564H38.4358H37.4101V70.7692ZM50.7435 70.5128V70.7692H50.4871H50.2307V71.5385V72.3077H49.4614H48.6922V72.5641V72.8205H47.4101H46.1281V73.0769V73.3333H45.8717H45.6153V73.8462V74.359H46.6409H47.6666V74.1026V73.8462H47.923H48.1794V73.5897V73.3333H48.4358H48.6922V73.0769V72.8205H49.4614H50.2307V72.5641V72.3077H51.2563H52.2819V71.7949V71.2821H52.5383H52.7948V71.0256V70.7692H53.0512H53.3076V70.5128V70.2564H52.0255H50.7435V70.5128ZM11.2563 71.0256V71.2821H10.9999H10.7435V71.5385V71.7949H11.2563H11.7691V72.0513V72.3077H10.4871H9.20501V72.8205V73.3333H8.17937H7.15373V73.5897V73.8462H6.89732H6.64091V74.1026V74.359H6.89732H7.15373V74.6154V74.8718H8.17937H9.20501V74.6154V74.359H9.46142H9.71783V74.1026V73.8462H9.46142H9.20501V73.5897V73.3333H10.7435H12.2819V73.5897V73.8462H11.7691H11.2563V74.1026V74.359H10.7435H10.2307V74.8718V75.3846H11.2563H12.2819V75.1282V74.8718H12.5383H12.7948V74.6154V74.359H12.5383H12.2819V74.1026V73.8462H13.564H14.846V73.5897V73.3333H15.1024H15.3589V73.0769V72.8205H13.564H11.7691V72.5641V72.3077H13.8204H15.8717V72.0513V71.7949H16.1281H16.3845V71.5385V71.2821H15.1024H13.8204V71.0256V70.7692H12.5383H11.2563V71.0256ZM32.2819 71.0256V71.2821H32.0255H31.7691V71.5385V71.7949H32.2819H32.7948V72.0513V72.3077H32.2819H31.7691V72.5641V72.8205H31.5127H31.2563V73.3333V73.8462H32.0255H32.7948V73.5897V73.3333H33.0512H33.3076V73.0769V72.8205H33.0512H32.7948V72.5641V72.3077H33.3076H33.8204V72.0513V71.7949H34.0768H34.3332V71.2821V70.7692H33.3076H32.2819V71.0256ZM39.9742 71.0256V71.2821H41.2563H42.5383V71.0256V70.7692H41.2563H39.9742V71.0256ZM53.8204 71.0256V71.2821H53.564H53.3076V71.5385V71.7949H53.0512H52.7948V72.3077V72.8205H52.0255H51.2563V73.0769V73.3333H52.0255H52.7948V73.0769V72.8205H53.8204H54.846V72.3077V71.7949H55.1025H55.3589V71.5385V71.2821H55.6153H55.8717V71.0256V70.7692H54.846H53.8204V71.0256ZM23.0512 71.5385V71.7949H22.7948H22.5383V72.0513V72.3077H23.564H24.5896V72.0513V71.7949H24.846H25.1024V71.5385V71.2821H24.0768H23.0512V71.5385ZM38.4358 71.5385V71.7949H38.1794H37.923V72.0513V72.3077H37.6665H37.4101V72.5641V72.8205H37.923H38.4358V73.0769V73.3333H37.6665H36.8973V73.5897V73.8462H36.6409H36.3845V74.1026V74.359H36.6409H36.8973V74.6154V74.8718H35.8717H34.846V75.1282V75.3846H34.5896H34.3332V75.641V75.8974H35.1024H35.8717V75.641V75.3846H36.3845H36.8973V75.1282V74.8718H37.6665H38.4358V74.1026V73.3333H38.9486H39.4614V72.8205V72.3077H39.7178H39.9742V72.0513V71.7949H39.7178H39.4614V71.5385V71.2821H38.9486H38.4358V71.5385ZM56.3845 71.5385V71.7949H56.1281H55.8717V72.0513V72.3077H55.6153H55.3589V72.5641V72.8205H55.6153H55.8717V73.0769V73.3333H55.1025H54.3332V73.5897V73.8462H55.1025H55.8717V73.5897V73.3333H56.1281H56.3845V73.0769V72.8205H56.6409H56.8973V73.0769V73.3333H57.4101H57.923V73.0769V72.8205H58.1794H58.4358V72.3077V71.7949H58.1794H57.923V72.0513V72.3077H57.6666H57.4101V71.7949V71.2821H56.8973H56.3845V71.5385ZM16.8973 72.0513V72.3077H16.6409H16.3845V72.5641V72.8205H17.1537H17.923V73.0769V73.3333H16.8973H15.8717V73.5897V73.8462H15.6153H15.3589V74.1026V74.359H16.1281H16.8973V74.6154V74.8718H17.4101H17.923V74.1026V73.3333H18.4358H18.9486V72.5641V71.7949H17.923H16.8973V72.0513ZM40.9999 72.0513V72.3077H40.7435H40.4871V72.5641V72.8205H40.2307H39.9742V73.0769V73.3333H40.9999H42.0255V73.0769V72.8205H42.2819H42.5383V72.5641V72.3077H42.2819H42.0255V72.0513V71.7949H41.5127H40.9999V72.0513ZM20.4871 72.5641V72.8205H19.9742H19.4614V73.0769V73.3333H20.7435H22.0255V72.8205V72.3077H21.2563H20.4871V72.5641ZM43.564 72.5641V72.8205H43.3076H43.0512V73.0769V73.3333H42.7948H42.5383V73.5897V73.8462H43.8204H45.1024V73.0769V72.3077H44.3332H43.564V72.5641ZM56.8973 72.5641V72.8205H57.1537H57.4101V72.5641V72.3077H57.1537H56.8973V72.5641ZM61.5127 72.5641V72.8205H61.2563H60.9999V73.0769V73.3333H60.7435H60.4871V73.5897V73.8462H61.2563H62.0255V74.1026V74.359H62.2819H62.5383V73.5897V72.8205H62.7948H63.0512V72.5641V72.3077H62.2819H61.5127V72.5641ZM64.0768 72.5641V72.8205H63.8204H63.564V73.0769V73.3333H63.3076H63.0512V73.8462V74.359H63.8204H64.5896V74.6154V74.8718H66.1281H67.6665V74.6154V74.359H67.1537H66.6409V74.1026V73.8462H66.8973H67.1537V73.3333V72.8205H66.6409H66.1281V73.0769V73.3333H65.8717H65.6153V73.5897V73.8462H65.3589H65.1024V74.1026V74.359H64.846H64.5896V73.8462V73.3333H64.846H65.1024V73.0769V72.8205H64.846H64.5896V72.5641V72.3077H64.3332H64.0768V72.5641ZM4.0768 73.0769V73.3333H4.33321H4.58962V73.0769V72.8205H4.33321H4.0768V73.0769ZM23.0512 73.0769V73.3333H22.7948H22.5383V73.5897V73.8462H23.0512H23.564V74.1026V74.359H23.0512H22.5383V74.6154V74.8718H22.0255H21.5127V75.1282V75.3846H22.0255H22.5383V75.641V75.8974H21.2563H19.9742V75.641V75.3846H20.4871H20.9999V74.8718V74.359H21.2563H21.5127V74.1026V73.8462H20.4871H19.4614V74.1026V74.359H18.9486H18.4358V74.6154V74.8718H19.205H19.9742V75.1282V75.3846H18.1794H16.3845V75.641V75.8974H16.1281H15.8717V76.1538V76.4103H16.3845H16.8973V76.6667V76.9231H18.1794H19.4614V77.1795V77.4359H20.7435H22.0255V77.6923V77.9487H23.3076H24.5896V78.2051V78.4615H25.8717H27.1537V78.7179V78.9744H28.4358H29.7178V79.2308V79.4872H30.9999H32.2819V79.7436V80H33.564H34.846V80.2564V80.5128H36.1281H37.4101V80.7692V81.0256H38.9486H40.4871V80.7692V80.5128H40.7435H40.9999V80.2564V80H41.2563H41.5127V79.7436V79.4872H42.5383H43.564V79.2308V78.9744H43.8204H44.0768V78.7179V78.4615H43.564H43.0512V78.2051V77.9487H42.7948H42.5383V78.2051V78.4615H42.0255H41.5127V78.2051V77.9487H40.2307H38.9486V77.6923V77.4359H39.9742H40.9999V77.1795V76.9231H41.2563H41.5127V77.1795V77.4359H42.7948H44.0768V77.1795V76.9231H44.3332H44.5896V76.6667V76.4103H45.8717H47.1537V75.8974V75.3846H47.6666H48.1794V75.1282V74.8718H49.4614H50.7435V74.1026V73.3333H49.9742H49.205V73.5897V73.8462H48.9486H48.6922V74.1026V74.359H48.4358H48.1794V74.6154V74.8718H46.6409H45.1024V75.1282V75.3846H44.846H44.5896V75.8974V76.4103H43.3076H42.0255V76.1538V75.8974H43.0512H44.0768V75.1282V74.359H43.3076H42.5383V74.6154V74.8718H42.2819H42.0255V75.3846V75.8974H40.9999H39.9742V76.1538V76.4103H39.4614H38.9486V76.9231V77.4359H38.4358H37.923V77.1795V76.9231H37.1537H36.3845V76.6667V76.4103H37.4101H38.4358V76.1538V75.8974H38.9486H39.4614V75.641V75.3846H40.2307H40.9999V75.1282V74.8718H41.2563H41.5127V74.359V73.8462H40.7435H39.9742V74.1026V74.359H39.4614H38.9486V74.6154V74.8718H39.205H39.4614V75.1282V75.3846H38.4358H37.4101V75.641V75.8974H36.8973H36.3845V76.1538V76.4103H35.1024H33.8204V76.6667V76.9231H33.564H33.3076V77.4359V77.9487H32.0255H30.7435V77.6923V77.4359H31.5127H32.2819V77.1795V76.9231H32.5383H32.7948V76.6667V76.4103H32.5383H32.2819V76.1538V75.8974H31.7691H31.2563V76.1538V76.4103H30.7435H30.2307V76.6667V76.9231H30.4871H30.7435V77.1795V77.4359H29.205H27.6665V77.1795V76.9231H28.6922H29.7178V76.1538V75.3846H30.2307H30.7435V74.6154V73.8462H29.9742H29.205V74.1026V74.359H28.6922H28.1794V74.6154V74.8718H28.9486H29.7178V75.1282V75.3846H29.205H28.6922V75.641V75.8974H28.1794H27.6665V76.4103V76.9231H26.3845H25.1024V76.6667V76.4103H25.8717H26.6409V76.1538V75.8974H26.8973H27.1537V75.3846V74.8718H26.3845H25.6153V75.1282V75.3846H25.1024H24.5896V75.641V75.8974H24.846H25.1024V76.1538V76.4103H23.8204H22.5383V76.1538V75.8974H23.3076H24.0768V75.3846V74.8718H23.8204H23.564V74.6154V74.359H24.0768H24.5896V74.1026V73.8462H24.846H25.1024V73.3333V72.8205H24.0768H23.0512V73.0769ZM26.1281 73.5897V73.8462H25.8717H25.6153V74.1026V74.359H26.6409H27.6665V74.1026V73.8462H27.923H28.1794V73.5897V73.3333H27.1537H26.1281V73.5897ZM67.6665 73.5897V73.8462H67.923H68.1794V73.5897V73.3333H67.923H67.6665V73.5897ZM51.7691 74.1026V74.359H51.5127H51.2563V74.8718V75.3846H52.2819H53.3076V75.641V75.8974H52.2819H51.2563V76.1538V76.4103H50.9999H50.7435V76.9231V77.4359H49.205H47.6666V77.6923V77.9487H47.4101H47.1537V78.2051V78.4615H47.923H48.6922V78.7179V78.9744H47.4101H46.1281V78.7179V78.4615H45.6153H45.1024V78.7179V78.9744H44.846H44.5896V79.4872V80H45.6153H46.6409V80.2564V80.5128H45.6153H44.5896V80.7692V81.0256H44.3332H44.0768V81.2821V81.5385H43.8204H43.564V81.7949V82.0513H44.3332H45.1024V82.3077V82.5641H45.6153H46.1281V81.7949V81.0256H46.3845H46.6409V80.7692V80.5128H48.4358H50.2307V80.2564V80H50.4871H50.7435V79.7436V79.4872H49.7178H48.6922V79.2308V78.9744H50.2307H51.7691V78.7179V78.4615H52.0255H52.2819V78.2051V77.9487H51.5127H50.7435V77.6923V77.4359H52.0255H53.3076V77.6923V77.9487H53.564H53.8204V78.2051V78.4615H54.0768H54.3332V77.9487V77.4359H54.5896H54.846V77.1795V76.9231H54.5896H54.3332V77.1795V77.4359H53.8204H53.3076V77.1795V76.9231H53.564H53.8204V76.6667V76.4103H53.564H53.3076V76.1538V75.8974H54.0768H54.846V75.3846V74.8718H55.1025H55.3589V74.6154V74.359H54.5896H53.8204V74.1026V73.8462H52.7948H51.7691V74.1026ZM13.8204 74.6154V74.8718H13.564H13.3076V75.1282V75.3846H13.0512H12.7948V75.641V75.8974H13.564H14.3332V76.1538V76.4103H14.846H15.3589V75.8974V75.3846H15.6153H15.8717V75.1282V74.8718H15.3589H14.846V74.6154V74.359H14.3332H13.8204V74.6154ZM77.4101 74.6154V74.8718H77.1537H76.8973V75.1282V75.3846H76.6409H76.3845V76.4103V77.4359H77.6666H78.9486V77.6923V77.9487H79.205H79.4614V77.4359V76.9231H79.7178H79.9742V76.4103V75.8974H80.2307H80.4871V75.641V75.3846H80.2307H79.9742V74.8718V74.359H78.6922H77.4101V74.6154ZM55.8717 75.1282V75.3846H55.6153H55.3589V75.8974V76.4103H55.6153H55.8717V76.1538V75.8974H56.1281H56.3845V75.3846V74.8718H56.1281H55.8717V75.1282ZM77.923 75.1282V75.3846H77.6666H77.4101V75.641V75.8974H77.1537H76.8973V76.4103V76.9231H77.6666H78.4358V76.4103V75.8974H78.6922H78.9486V75.3846V74.8718H78.4358H77.923V75.1282ZM2.53834 75.641V75.8974H3.82039H5.10245V76.1538V76.4103H6.3845H7.66655V76.6667V76.9231H8.9486H10.2307V77.1795V77.4359H11.5127H12.7948V77.6923V77.9487H13.8204H14.846V78.2051V78.4615H16.1281H17.4101V78.7179V78.9744H18.6922H19.9742V79.2308V79.4872H21.2563H22.5383V79.7436V80H23.8204H25.1024V80.2564V80.5128H26.1281H27.1537V80.7692V81.0256H28.4358H29.7178V81.2821V81.5385H30.9999H32.2819V81.7949V82.0513H33.564H34.846V82.3077V82.5641H36.1281H37.4101V82.8205V83.0769H38.6922H39.9742V83.3333V83.5897H40.9999H42.0255V83.8462V84.1026H43.3076H44.5896V84.359V84.6154H45.8717H47.1537V84.8718V85.1282H48.4358H49.7178V85.3846V85.641H50.9999H52.2819V85.8974V86.1538H53.564H54.846V86.4103V86.6667H55.8717H56.8973V86.9231V87.1795H58.1794H59.4614V87.4359V87.6923H60.7435H62.0255V87.9487V88.2051H63.3076H64.5896V88.4615V88.7179H65.8717H67.1537V88.9744V89.2308H68.4358H69.7178V89.4872V89.7436H70.7435H71.7691V89.4872V89.2308H70.7435H69.7178V88.9744V88.7179H68.4358H67.1537V88.4615V88.2051H65.8717H64.5896V87.9487V87.6923H63.3076H62.0255V87.4359V87.1795H60.7435H59.4614V86.9231V86.6667H58.1794H56.8973V86.4103V86.1538H55.8717H54.846V85.8974V85.641H53.564H52.2819V85.3846V85.1282H50.9999H49.7178V84.8718V84.6154H48.4358H47.1537V84.359V84.1026H45.8717H44.5896V83.8462V83.5897H43.3076H42.0255V83.3333V83.0769H40.9999H39.9742V82.8205V82.5641H38.6922H37.4101V82.3077V82.0513H36.1281H34.846V81.7949V81.5385H33.564H32.2819V81.2821V81.0256H30.9999H29.7178V80.7692V80.5128H28.4358H27.1537V80.2564V80H26.3845H25.6153V79.7436V79.4872H24.0768H22.5383V79.2308V78.9744H21.2563H19.9742V78.7179V78.4615H18.6922H17.4101V78.2051V77.9487H16.1281H14.846V77.6923V77.4359H13.8204H12.7948V77.1795V76.9231H11.5127H10.2307V76.6667V76.4103H8.9486H7.66655V76.1538V75.8974H6.3845H5.10245V75.641V75.3846H3.82039H2.53834V75.641ZM48.6922 75.641V75.8974H48.1794H47.6666V76.1538V76.4103H47.923H48.1794V76.6667V76.9231H49.205H50.2307V76.4103V75.8974H50.4871H50.7435V75.641V75.3846H49.7178H48.6922V75.641ZM58.9486 75.641V75.8974H58.6922H58.4358V76.4103V76.9231H58.9486H59.4614V77.1795V77.4359H59.7178H59.9742V76.6667V75.8974H60.2307H60.4871V75.641V75.3846H59.7178H58.9486V75.641ZM101.513 75.641V75.8974H102.538H103.564V75.641V75.3846H102.538H101.513V75.641ZM112.795 75.641V75.8974H113.564H114.333V75.641V75.3846H113.564H112.795V75.641ZM60.9999 76.1538V76.4103H60.7435H60.4871V76.9231V77.4359H60.9999H61.5127V77.6923V77.9487H60.4871H59.4614V78.2051V78.4615H59.205H58.9486V78.9744V79.4872H59.4614H59.9742V79.7436V80H58.6922H57.4101V80.2564V80.5128H58.1794H58.9486V80.7692V81.0256H59.205H59.4614V81.5385V82.0513H59.205H58.9486V81.7949V81.5385H58.6922H58.4358V81.7949V82.0513H57.923H57.4101V81.7949V81.5385H57.6666H57.923V81.2821V81.0256H57.1537H56.3845V81.2821V81.5385H56.1281H55.8717V81.7949V82.0513H56.6409H57.4101V82.3077V82.5641H58.6922H59.9742V82.8205V83.0769H60.4871H60.9999V82.8205V82.5641H61.2563H61.5127V82.3077V82.0513H61.7691H62.0255V81.7949V81.5385H62.2819H62.5383V81.0256V80.5128H61.2563H59.9742V80.2564V80H60.4871H60.9999V79.2308V78.4615H61.2563H61.5127V78.2051V77.9487H62.0255H62.5383V77.1795V76.4103H62.7948H63.0512V76.1538V75.8974H62.0255H60.9999V76.1538ZM64.0768 76.1538V76.4103H63.8204H63.564V76.6667V76.9231H63.3076H63.0512V77.1795V77.4359H63.3076H63.564V77.6923V77.9487H64.0768H64.5896V76.9231V75.8974H64.3332H64.0768V76.1538ZM99.9743 76.1538V76.4103H100.487H101V76.1538V75.8974H100.487H99.9743V76.1538ZM104.077 76.1538V76.4103H108.179H112.282V76.1538V75.8974H108.179H104.077V76.1538ZM116.385 76.1538V76.4103H116.897H117.41V76.1538V75.8974H116.897H116.385V76.1538ZM2.02552 76.6667V76.9231H3.30757H4.58962V77.1795V77.4359H5.87168H7.15373V77.6923V77.9487H8.17937H9.20501V78.2051V78.4615H10.4871H11.7691V78.7179V78.9744H13.0512H14.3332V79.2308V79.4872H15.6153H16.8973V79.7436V80H18.1794H19.4614V80.2564V80.5128H20.4871H21.5127V80.7692V81.0256H22.7948H24.0768V81.2821V81.5385H25.3589H26.6409V81.7949V82.0513H27.923H29.205V82.3077V82.5641H30.2307H31.2563V82.8205V83.0769H32.5383H33.8204V83.3333V83.5897H35.1024H36.3845V83.8462V84.1026H37.6665H38.9486V84.359V84.6154H40.2307H41.5127V84.8718V85.1282H42.5383H43.564V85.3846V85.641H44.846H46.1281V85.8974V86.1538H47.4101H48.6922V86.4103V86.6667H49.9742H51.2563V86.9231V87.1795H52.5383H53.8204V87.4359V87.6923H54.846H55.8717V87.9487V88.2051H57.1537H58.4358V88.4615V88.7179H59.7178H60.9999V88.9744V89.2308H62.2819H63.564V89.4872V89.7436H64.5896H65.6153V90V90.2564H66.8973H68.1794V90.5128V90.7692H69.4614H70.7435V90.5128V90.2564H69.4614H68.1794V90V89.7436H66.8973H65.6153V89.4872V89.2308H64.5896H63.564V88.9744V88.7179H62.2819H60.9999V88.4615V88.2051H59.7178H58.4358V87.9487V87.6923H57.1537H55.8717V87.4359V87.1795H54.846H53.8204V86.9231V86.6667H52.5383H51.2563V86.4103V86.1538H49.9742H48.6922V85.8974V85.641H47.4101H46.1281V85.3846V85.1282H44.846H43.564V84.8718V84.6154H42.5383H41.5127V84.359V84.1026H40.2307H38.9486V83.8462V83.5897H37.6665H36.3845V83.3333V83.0769H35.1024H33.8204V82.8205V82.5641H32.5383H31.2563V82.3077V82.0513H30.2307H29.205V81.7949V81.5385H27.923H26.6409V81.2821V81.0256H25.3589H24.0768V80.7692V80.5128H22.7948H21.5127V80.2564V80H20.4871H19.4614V79.7436V79.4872H18.1794H16.8973V79.2308V78.9744H15.6153H14.3332V78.7179V78.4615H13.0512H11.7691V78.2051V77.9487H10.4871H9.20501V77.6923V77.4359H8.17937H7.15373V77.1795V76.9231H5.87168H4.58962V76.6667V76.4103H3.30757H2.02552V76.6667ZM41.5127 76.6667V76.9231H41.7691H42.0255V76.6667V76.4103H41.7691H41.5127V76.6667ZM84.0768 76.6667V76.9231H84.3332H84.5896V76.6667V76.4103H84.3332H84.0768V76.6667ZM98.9486 76.9231V77.4359H99.205H99.4614V76.9231V76.4103H99.205H98.9486V76.9231ZM101.513 76.6667V76.9231H101.769H102.026V76.6667V76.4103H101.769H101.513V76.6667ZM113.82 76.6667V76.9231H114.846H115.872V76.6667V76.4103H114.846H113.82V76.6667ZM117.923 76.6667V76.9231H118.179H118.436V76.6667V76.4103H118.179H117.923V76.6667ZM35.8717 77.1795V77.4359H35.6153H35.3589V77.6923V77.9487H34.3332H33.3076V78.2051V78.4615H34.5896H35.8717V78.7179V78.9744H37.1537H38.4358V79.2308V79.4872H39.9742H41.5127V78.9744V78.4615H41.2563H40.9999V78.7179V78.9744H39.7178H38.4358V78.7179V78.4615H38.6922H38.9486V78.2051V77.9487H38.6922H38.4358V78.2051V78.4615H37.1537H35.8717V77.9487V77.4359H36.1281H36.3845V77.1795V76.9231H36.1281H35.8717V77.1795ZM45.1024 77.1795V77.4359H44.846H44.5896V77.6923V77.9487H45.6153H46.6409V77.6923V77.4359H46.8973H47.1537V77.1795V76.9231H46.1281H45.1024V77.1795ZM65.1024 77.1795V77.4359H65.3589H65.6153V77.1795V76.9231H65.3589H65.1024V77.1795ZM68.1794 77.4359V77.9487H67.923H67.6665V78.2051V78.4615H67.923H68.1794V78.7179V78.9744H68.6922H69.205V78.4615V77.9487H69.4614H69.7178V77.6923V77.4359H69.4614H69.205V77.1795V76.9231H68.6922H68.1794V77.4359ZM99.9743 77.1795V77.4359H100.487H101V77.1795V76.9231H100.487H99.9743V77.1795ZM116.897 77.1795V77.4359H117.154H117.41V77.1795V76.9231H117.154H116.897V77.1795ZM118.949 77.1795V77.4359H119.205H119.461V77.1795V76.9231H119.205H118.949V77.1795ZM57.4101 77.6923V77.9487H57.1537H56.8973V78.2051V78.4615H56.6409H56.3845V78.7179V78.9744H56.8973H57.4101V79.2308V79.4872H57.923H58.4358V78.7179V77.9487H58.6922H58.9486V77.6923V77.4359H58.1794H57.4101V77.6923ZM70.7435 77.6923V77.9487H70.4871H70.2307V78.2051V78.4615H69.9742H69.7178V78.7179V78.9744H70.4871H71.2563V79.2308V79.4872H71.5127H71.7691V78.9744V78.4615H72.0255H72.2819V78.2051V77.9487H72.0255H71.7691V77.6923V77.4359H71.2563H70.7435V77.6923ZM117.923 77.6923V77.9487H118.179H118.436V78.2051V78.4615H118.692H118.949V79.2308V80H119.205H119.461V79.2308V78.4615H119.205H118.949V78.2051V77.9487H118.692H118.436V77.6923V77.4359H118.179H117.923V77.6923ZM73.3076 78.2051V78.4615H73.0512H72.7948V78.7179V78.9744H72.5383H72.2819V79.2308V79.4872H73.0512H73.8204V79.7436V80H74.0768H74.3332V79.4872V78.9744H74.5896H74.846V78.4615V77.9487H74.0768H73.3076V78.2051ZM83.0512 78.2051V78.4615H83.3076H83.564V78.2051V77.9487H83.3076H83.0512V78.2051ZM98.9486 78.2051V78.4615H99.205H99.4614V78.2051V77.9487H99.205H98.9486V78.2051ZM99.9743 78.2051V78.4615H100.231H100.487V78.7179V78.9744H100.743H101V79.2308V79.4872H101.256H101.513V79.2308V78.9744H101.256H101V78.7179V78.4615H100.743H100.487V78.2051V77.9487H100.231H99.9743V78.2051ZM52.7948 78.7179V78.9744H52.5383H52.2819V79.4872V80H52.5383H52.7948V79.7436V79.4872H53.0512H53.3076V78.9744V78.4615H53.0512H52.7948V78.7179ZM62.0255 78.7179V78.9744H61.7691H61.5127V79.4872V80H62.5383H63.564V79.7436V79.4872H63.3076H63.0512V79.2308V78.9744H63.3076H63.564V78.7179V78.4615H62.7948H62.0255V78.7179ZM75.3589 78.9744V79.4872H75.1025H74.846V79.7436V80H75.6153H76.3845V80.2564V80.5128H76.8973H77.4101V80.2564V80H77.6666H77.923V79.7436V79.4872H77.4101H76.8973V79.7436V80H76.6409H76.3845V79.4872V78.9744H76.6409H76.8973V78.7179V78.4615H76.1281H75.3589V78.9744ZM66.6409 79.2308V79.4872H66.3845H66.1281V79.7436V80H65.8717H65.6153V80.2564V80.5128H66.3845H67.1537V80.7692V81.0256H66.1281H65.1024V81.2821V81.5385H64.846H64.5896V81.7949V82.0513H65.3589H66.1281V82.3077V82.5641H66.3845H66.6409V82.0513V81.5385H66.8973H67.1537V81.2821V81.0256H67.4101H67.6665V80.7692V80.5128H67.923H68.1794V80V79.4872H67.923H67.6665V79.2308V78.9744H67.1537H66.6409V79.2308ZM99.4614 79.2308V79.4872H99.7178H99.9743V79.7436V80H100.231H100.487V80.2564V80.5128H100.743H101V80.7692V81.0256H101.256H101.513V81.2821V81.5385H101.769H102.026V81.2821V81.0256H101.769H101.513V80.7692V80.5128H101.256H101V80.2564V80H100.743H100.487V79.7436V79.4872H100.231H99.9743V79.2308V78.9744H99.7178H99.4614V79.2308ZM64.5896 79.7436V80H64.3332H64.0768V80.2564V80.5128H63.8204H63.564V81.0256V81.5385H63.3076H63.0512V81.7949V82.0513H62.7948H62.5383V82.3077V82.5641H62.2819H62.0255V82.8205V83.0769H61.7691H61.5127V83.3333V83.5897H62.0255H62.5383V83.0769V82.5641H62.7948H63.0512V82.3077V82.0513H63.564H64.0768V81.5385V81.0256H64.3332H64.5896V80.7692V80.5128H64.846H65.1024V80V79.4872H64.846H64.5896V79.7436ZM69.205 79.7436V80H68.9486H68.6922V80.5128V81.0256H69.205H69.7178V81.2821V81.5385H69.9742H70.2307V81.2821V81.0256H70.4871H70.7435V80.2564V79.4872H69.9742H69.205V79.7436ZM82.0255 79.7436V80H82.2819H82.5384V79.7436V79.4872H82.2819H82.0255V79.7436ZM42.0255 80.2564V80.5128H41.7691H41.5127V80.7692V81.0256H41.2563H40.9999V81.2821V81.5385H42.0255H43.0512V81.2821V81.0256H43.3076H43.564V80.7692V80.5128H43.8204H44.0768V80.2564V80H43.0512H42.0255V80.2564ZM51.2563 80.2564V80.5128H50.9999H50.7435V81.0256V81.5385H50.9999H51.2563V81.2821V81.0256H51.5127H51.7691V80.5128V80H51.5127H51.2563V80.2564ZM71.7691 80.2564V80.5128H71.5127H71.2563V80.7692V81.0256H71.5127H71.7691V81.2821V81.5385H72.0255H72.2819V81.7949V82.0513H72.5383H72.7948V81.7949V81.5385H73.0512H73.3076V80.7692V80H72.5383H71.7691V80.2564ZM74.3332 80.7692V81.0256H74.0768H73.8204V81.2821V81.5385H74.3332H74.846V81.7949V82.0513H75.1025H75.3589V82.3077V82.5641H75.6153H75.8717V82.3077V82.0513H75.6153H75.3589V81.5385V81.0256H75.6153H75.8717V80.7692V80.5128H75.1025H74.3332V80.7692ZM118.436 80.7692V81.0256H118.179H117.923V81.2821V81.5385H118.179H118.436V81.2821V81.0256H118.692H118.949V80.7692V80.5128H118.692H118.436V80.7692ZM119.461 80.7692C119.461 81.02 119.465 81.0256 119.615 81.0256C119.766 81.0256 119.769 81.02 119.769 80.7692C119.769 80.5185 119.766 80.5128 119.615 80.5128C119.465 80.5128 119.461 80.5185 119.461 80.7692ZM47.1537 81.2821V81.5385H46.8973H46.6409V82.0513V82.5641H47.1537H47.6666V82.8205V83.0769H47.923H48.1794V82.8205V82.5641H48.4358H48.6922V82.8205V83.0769H48.9486H49.205V82.8205V82.5641H49.4614H49.7178V82.3077V82.0513H49.9742H50.2307V81.7949V81.5385H49.9742H49.7178V81.7949V82.0513H49.4614H49.205V82.3077V82.5641H48.9486H48.6922V82.0513V81.5385H48.9486H49.205V81.2821V81.0256H48.1794H47.1537V81.2821ZM80.9999 81.2821V81.5385H81.2563H81.5127V81.2821V81.0256H81.2563H80.9999V81.2821ZM102.538 81.2821V81.5385H102.795H103.051V81.2821V81.0256H102.795H102.538V81.2821ZM67.6665 82.0513V82.5641H68.4358H69.205V82.0513V81.5385H68.4358H67.6665V82.0513ZM70.7435 81.7949V82.0513H70.2307H69.7178V82.3077V82.5641H69.9742H70.2307V82.8205V83.0769H70.9999H71.7691V82.5641V82.0513H71.5127H71.2563V81.7949V81.5385H70.9999H70.7435V81.7949ZM83.0512 81.7949V82.0513H83.3076H83.564V81.7949V81.5385H83.3076H83.0512V81.7949ZM84.5896 81.7949V82.0513H84.846H85.1025V81.7949V81.5385H84.846H84.5896V81.7949ZM87.1537 81.7949V82.0513H87.4101H87.6666V81.7949V81.5385H87.4101H87.1537V81.7949ZM118.949 81.7949V82.0513H118.692H118.436V82.3077V82.5641H118.692H118.949V82.3077V82.0513H119.205H119.461V81.7949V81.5385H119.205H118.949V81.7949ZM52.2819 82.3077V82.5641H52.0255H51.7691V83.0769V83.5897H52.0255H52.2819V83.8462V84.1026H53.564H54.846V84.359V84.6154H56.3845H57.923V84.8718V85.1282H58.4358H58.9486V84.8718V84.6154H59.205H59.4614V84.359V84.1026H59.7178H59.9742V83.8462V83.5897H59.7178H59.4614V83.8462V84.1026H58.9486H58.4358V83.8462V83.5897H58.6922H58.9486V83.3333V83.0769H57.923H56.8973V83.5897V84.1026H56.3845H55.8717V83.8462V83.5897H56.1281H56.3845V83.0769V82.5641H55.6153H54.846V82.8205V83.0769H54.5896H54.3332V83.3333V83.5897H53.8204H53.3076V83.3333V83.0769H53.564H53.8204V82.8205V82.5641H54.0768H54.3332V82.3077V82.0513H53.3076H52.2819V82.3077ZM73.3076 82.3077V82.5641H72.7948H72.2819V82.8205V83.0769H72.5383H72.7948V83.3333V83.5897H73.3076H73.8204V83.8462V84.1026H74.0768H74.3332V83.8462V83.5897H74.5896H74.846V83.3333V83.0769H74.5896H74.3332V83.3333V83.5897H74.0768H73.8204V83.0769V82.5641H74.0768H74.3332V82.3077V82.0513H73.8204H73.3076V82.3077ZM88.6922 82.3077V82.5641H89.205H89.7178V82.3077V82.0513H89.205H88.6922V82.3077ZM102.026 82.5641V83.0769H101.769H101.513V83.3333V83.5897H101.769H102.026V83.3333V83.0769H102.282H102.538V82.5641V82.0513H102.282H102.026V82.5641ZM117.41 82.3077V82.5641H117.154H116.897V82.8205V83.0769H116.641H116.385V83.3333V83.5897H116.641H116.897V83.3333V83.0769H117.154H117.41V82.8205V82.5641H117.667H117.923V82.3077V82.0513H117.667H117.41V82.3077ZM50.2307 83.0769V83.5897H50.7435H51.2563V83.0769V82.5641H50.7435H50.2307V83.0769ZM63.564 82.8205V83.0769H63.3076H63.0512V83.3333V83.5897H64.0768H65.1024V83.3333V83.0769H65.3589H65.6153V82.8205V82.5641H64.5896H63.564V82.8205ZM79.9742 82.8205V83.0769H80.2307H80.4871V82.8205V82.5641H80.2307H79.9742V82.8205ZM87.1537 82.8205V83.0769H87.6666H88.1794V82.8205V82.5641H87.6666H87.1537V82.8205ZM90.7435 82.8205V83.0769H91.5127H92.2819V82.8205V82.5641H91.5127H90.7435V82.8205ZM103.051 83.0769V83.5897H102.795H102.538V83.8462V84.1026H102.026H101.513V84.359V84.6154H102.026H102.538V84.359V84.1026H102.795H103.051V83.8462V83.5897H103.308H103.564V83.0769V82.5641H103.308H103.051V83.0769ZM66.1281 83.3333V83.5897H65.8717H65.6153V83.8462V84.1026H66.1281H66.6409V84.359V84.6154H66.8973H67.1537V84.359V84.1026H67.4101H67.6665V83.8462V83.5897H67.923H68.1794V83.3333V83.0769H67.1537H66.1281V83.3333ZM69.205 83.3333V83.5897H68.9486H68.6922V83.8462V84.1026H68.9486H69.205V84.359V84.6154H69.7178H70.2307V84.359V84.1026H70.4871H70.7435V83.8462V83.5897H70.2307H69.7178V83.3333V83.0769H69.4614H69.205V83.3333ZM89.205 83.3333V83.5897H89.7178H90.2307V83.3333V83.0769H89.7178H89.205V83.3333ZM93.8204 83.3333V83.5897H94.5896H95.3589V83.3333V83.0769H94.5896H93.8204V83.3333ZM71.7691 83.8462V84.1026H71.5127H71.2563V84.359V84.6154H70.9999H70.7435V84.8718V85.1282H70.2307H69.7178V85.3846V85.641H69.4614H69.205V86.1538V86.6667H68.9486H68.6922V86.9231V87.1795H70.2307H71.7691V86.9231V86.6667H72.0255H72.2819V86.4103V86.1538H72.5383H72.7948V85.8974V85.641H73.0512H73.3076V85.3846V85.1282H73.564H73.8204V84.8718V84.6154H73.3076H72.7948V84.8718V85.1282H72.5383H72.2819V85.3846V85.641H72.0255H71.7691V85.8974V86.1538H71.5127H71.2563V86.4103V86.6667H70.9999H70.7435V86.1538V85.641H70.9999H71.2563V85.3846V85.1282H71.5127H71.7691V84.8718V84.6154H72.0255H72.2819V84.1026V83.5897H72.0255H71.7691V83.8462ZM91.7691 83.8462V84.1026H92.5384H93.3076V83.8462V83.5897H92.5384H91.7691V83.8462ZM97.4101 83.8462V84.1026H99.205H101V83.8462V83.5897H99.205H97.4101V83.8462ZM57.923 84.359V84.6154H58.1794H58.4358V84.359V84.1026H58.1794H57.923V84.359ZM60.4871 84.359V84.6154H60.2307H59.9742V84.8718V85.1282H60.2307H60.4871V84.8718V84.6154H60.7435H60.9999V84.359V84.1026H60.7435H60.4871V84.359ZM61.5127 84.6154V85.1282H61.2563H60.9999V85.3846V85.641H61.7691H62.5383V85.8974V86.1538H63.8204H65.1024V86.4103V86.6667H66.6409H68.1794V86.4103V86.1538H68.4358H68.6922V85.3846V84.6154H68.1794H67.6665V84.8718V85.1282H67.1537H66.6409V85.641V86.1538H66.3845H66.1281V85.3846V84.6154H65.6153H65.1024V84.359V84.1026H63.3076H61.5127V84.6154ZM78.9486 84.359V84.6154H78.6922H78.4358V84.8718V85.1282H78.1794H77.923V85.3846V85.641H77.6666H77.4101V85.8974V86.1538H77.6666H77.923V85.8974V85.641H78.1794H78.4358V85.3846V85.1282H78.6922H78.9486V84.8718V84.6154H79.205H79.4614V84.359V84.1026H79.205H78.9486V84.359ZM94.846 84.359V84.6154H95.8717H96.8973V84.359V84.1026H95.8717H94.846V84.359ZM116.385 84.359V84.6154H116.128H115.872V84.8718V85.1282H115.615H115.359V85.3846V85.641H115.102H114.846V85.8974V86.1538H114.59H114.333V86.4103V86.6667H114.077H113.82V86.9231V87.1795H113.564H113.308V87.4359V87.6923H113.051H112.795V87.9487V88.2051H113.051H113.308V87.9487V87.6923H113.564H113.82V87.4359V87.1795H114.077H114.333V86.9231V86.6667H114.59H114.846V86.4103V86.1538H115.102H115.359V85.8974V85.641H115.615H115.872V85.3846V85.1282H116.128H116.385V84.8718V84.6154H116.641H116.897V84.359V84.1026H116.641H116.385V84.359ZM98.4358 84.8718V85.1282H98.9486H99.4614V84.8718V84.6154H98.9486H98.4358V84.8718ZM113.82 85.3846V85.641H113.564H113.308V85.8974V86.1538H113.051H112.795V86.4103V86.6667H112.538H112.282V86.9231V87.1795H112.026H111.769V87.4359V87.6923H110.487H109.205V87.4359V87.1795H106.897H104.59V87.4359V87.6923H103.564H102.538V87.9487V88.2051H101.769H101V88.4615V88.7179H100.231H99.4614V88.9744V89.2308H98.9486H98.4358V89.4872V89.7436H97.923H97.4101V90V90.2564H97.1537H96.8973V90.5128V90.7692H96.6409H96.3845V91.0256V91.2821H96.1281H95.8717V91.7949V92.3077H95.6153H95.3589V94.359V96.4103H95.6153H95.8717V96.6667V96.9231H96.1281H96.3845V97.1795V97.4359H96.6409H96.8973V97.6923V97.9487H97.1537H97.4101V98.2051V98.4615H97.923H98.4358V98.7179V98.9744H98.9486H99.4614V99.2308V99.4872H100.231H101V99.7436V100H102.795H104.59V99.7436V99.4872H105.615H106.641V99.2308V98.9744H107.41H108.179V98.7179V98.4615H108.692H109.205V98.2051V97.9487H109.461H109.718V97.6923V97.4359H109.974H110.231V97.1795V96.9231H110.487H110.743V96.6667V96.4103H111H111.256V96.1538V95.8974H111.513H111.769V95.641V95.3846H112.026H112.282V95.1282V94.8718H112.538H112.795V94.359V93.8462H113.051H113.308V93.5897V93.3333H113.564H113.82V91.5385V89.7436H113.564H113.308V89.4872V89.2308H113.051H112.795V88.9744V88.7179H112.538H112.282V88.4615V88.2051H112.026H111.769V87.9487V87.6923H112.026H112.282V87.4359V87.1795H112.538H112.795V86.9231V86.6667H113.051H113.308V86.4103V86.1538H113.564H113.82V85.8974V85.641H114.077H114.333V85.3846V85.1282H114.077H113.82V85.3846ZM105.102 87.9487V88.2051H106.128H107.154V88.4615V88.7179H108.179H109.205V88.9744V89.2308H109.718H110.231V89.4872V89.7436H110.487H110.743V90V90.2564H111H111.256V90.5128V90.7692H111.513H111.769V91.0256V91.2821H112.026H112.282V91.0256V90.7692H112.538H112.795V90.2564V89.7436H112.538H112.282V89.4872V89.2308H112.026H111.769V88.9744V88.7179H111.256H110.743V88.4615V88.2051H109.718H108.692V87.9487V87.6923H106.897H105.102V87.9487ZM102.026 88.9744V89.2308H101H99.9743V89.4872V89.7436H99.4614H98.9486V90V90.2564H98.4358H97.923V90.5128V90.7692H97.6666H97.4101V91.0256V91.2821H97.1537H96.8973V91.5385V91.7949H96.6409H96.3845V92.8205V93.8462H96.1281H95.8717V94.8718V95.8974H96.1281H96.3845V96.1538V96.4103H96.6409H96.8973V96.6667V96.9231H97.1537H97.4101V97.1795V97.4359H97.923H98.4358V97.6923V97.9487H99.205H99.9743V98.2051V98.4615H103.051H106.128V98.2051V97.9487H106.641H107.154V97.6923V97.4359H107.667H108.179V97.1795V96.9231H108.692H109.205V96.6667V96.4103H109.718H110.231V96.1538V95.8974H110.487H110.743V95.641V95.3846H111H111.256V94.8718V94.359H111.513H111.769V94.1026V93.8462H112.026H112.282V93.3333V92.8205H112.538H112.795V92.5641V92.3077H113.051H113.308V91.7949V91.2821H113.051H112.795V91.7949V92.3077H112.538H112.282V92.5641V92.8205H112.026H111.769V93.0769V93.3333H111.513H111.256V93.5897V93.8462H111H110.743V94.1026V94.359H110.487H110.231V94.6154V94.8718H109.974H109.718V95.1282V95.3846H109.205H108.692V95.641V95.8974H108.179H107.667V96.1538V96.4103H107.154H106.641V96.6667V96.9231H103.564H100.487V96.6667V96.4103H103.308H106.128V96.1538V95.8974H106.641H107.154V95.641V95.3846H107.667H108.179V95.1282V94.8718H108.692H109.205V94.6154V94.359H109.461H109.718V94.1026V93.8462H109.974H110.231V93.5897V93.3333H110.487H110.743V93.0769V92.8205H111H111.256V92.5641V92.3077H111.513H111.769V92.0513V91.7949H111.513H111.256V91.5385V91.2821H111H110.743V91.0256V90.7692H110.487H110.231V90.5128V90.2564H109.974H109.718V90V89.7436H109.205H108.692V89.4872V89.2308H107.667H106.641V88.9744V88.7179H104.333H102.026V88.9744ZM104.077 91.0256V91.2821H103.308H102.538V91.5385V91.7949H102.282H102.026V92.3077V92.8205H103.051H104.077V92.5641V92.3077H104.333H104.59V91.5385V90.7692H104.333H104.077V91.0256ZM103.051 92.0513V92.3077H103.308H103.564V92.0513V91.7949H103.308H103.051V92.0513ZM96.3845 94.1026V94.359H96.6409H96.8973V94.6154V94.8718H97.1537H97.4101V95.1282V95.3846H97.6666H97.923V95.641V95.8974H98.4358H98.9486V96.1538V96.4103H99.7178H100.487V96.1538V95.8974H99.7178H98.9486V95.641V95.3846H98.4358H97.923V95.1282V94.8718H97.6666H97.4101V94.6154V94.359H97.1537H96.8973V94.1026V93.8462H96.6409H96.3845V94.1026Z" fill="black"/>
</g>
<defs>
<clipPath id="clip0_1754_52021">
<rect width="119.538" height="100" fill="white" transform="translate(0.230713)"/>
</clipPath>
</defs>
</svg>
